ISO-10303-21;
HEADER;
FILE_DESCRIPTION(('Open CASCADE Model'),'2;1');
FILE_NAME('Open CASCADE Shape Model','2026-09-23T09:52:36',('Author'),(
    'Open CASCADE'),'Open CASCADE STEP processor 7.9','Open CASCADE 7.9'
  ,'Unknown');
FILE_SCHEMA(('AUTOMOTIVE_DESIGN { 1 0 10303 214 1 1 1 1 }'));
ENDSEC;
DATA;
#1 = APPLICATION_PROTOCOL_DEFINITION('international standard',
  'automotive_design',2000,#2);
#2 = APPLICATION_CONTEXT(
  'core data for automotive mechanical design processes');
#3 = SHAPE_DEFINITION_REPRESENTATION(#4,#10);
#4 = PRODUCT_DEFINITION_SHAPE('','',#5);
#5 = PRODUCT_DEFINITION('design','',#6,#9);
#6 = PRODUCT_DEFINITION_FORMATION('','',#7);
#7 = PRODUCT('Open CASCADE STEP translator 7.9 1',
  'Open CASCADE STEP translator 7.9 1','',(#8));
#8 = PRODUCT_CONTEXT('',#2,'mechanical');
#9 = PRODUCT_DEFINITION_CONTEXT('part definition',#2,'design');
#10 = ADVANCED_BREP_SHAPE_REPRESENTATION('',(#11,#15),#267);
#11 = AXIS2_PLACEMENT_3D('',#12,#13,#14);
#12 = CARTESIAN_POINT('',(0.,0.,0.));
#13 = DIRECTION('',(0.,0.,1.));
#14 = DIRECTION('',(1.,0.,-0.));
#15 = MANIFOLD_SOLID_BREP('',#16);
#16 = CLOSED_SHELL('',(#17,#140,#206,#240));
#17 = ADVANCED_FACE('',(#18),#31,.F.);
#18 = FACE_BOUND('',#19,.T.);
#19 = EDGE_LOOP('',(#20,#85,#108,#139));
#20 = ORIENTED_EDGE('',*,*,#21,.T.);
#21 = EDGE_CURVE('',#22,#22,#24,.T.);
#22 = VERTEX_POINT('',#23);
#23 = CARTESIAN_POINT('',(-30.4184171545,0.,49.5));
#24 = SURFACE_CURVE('',#25,(#30,#69),.PCURVE_S1.);
#25 = ELLIPSE('',#26,49.79123070224,49.5);
#26 = AXIS2_PLACEMENT_3D('',#27,#28,#29);
#27 = CARTESIAN_POINT('',(-25.04099631885,0.,0.));
#28 = DIRECTION('',(0.994150963972,-0.,0.107999355706));
#29 = DIRECTION('',(-0.107999355706,-0.,0.994150963972));
#30 = PCURVE('',#31,#36);
#31 = CYLINDRICAL_SURFACE('',#32,49.5);
#32 = AXIS2_PLACEMENT_3D('',#33,#34,#35);
#33 = CARTESIAN_POINT('',(-5.,0.,0.));
#34 = DIRECTION('',(-1.,-0.,-0.));
#35 = DIRECTION('',(-0.,-0.,1.));
#36 = DEFINITIONAL_REPRESENTATION('',(#37),#68);
#37 = B_SPLINE_CURVE_WITH_KNOTS('',8,(#38,#39,#40,#41,#42,#43,#44,#45,
    #46,#47,#48,#49,#50,#51,#52,#53,#54,#55,#56,#57,#58,#59,#60,#61,#62,
    #63,#64,#65,#66,#67),.UNSPECIFIED.,.F.,.F.,(9,7,7,7,9),(0.,
    1.570796326795,2.748893571891,4.516039439535,6.28318530718),
  .UNSPECIFIED.);
#38 = CARTESIAN_POINT('',(0.,25.418417154504));
#39 = CARTESIAN_POINT('',(-0.196349540849,25.418417154504));
#40 = CARTESIAN_POINT('',(-0.392699081698,25.181483819659));
#41 = CARTESIAN_POINT('',(-0.589048622548,24.707619162757));
#42 = CARTESIAN_POINT('',(-0.785398163395,24.016301727097));
#43 = CARTESIAN_POINT('',(-0.981747704246,23.146528162528));
#44 = CARTESIAN_POINT('',(-1.178097245096,22.1527047936));
#45 = CARTESIAN_POINT('',(-1.374446785946,21.096850430886));
#46 = CARTESIAN_POINT('',(-1.718058482432,19.249105734826));
#47 = CARTESIAN_POINT('',(-1.865320638069,18.45721544061));
#48 = CARTESIAN_POINT('',(-2.012582793706,17.691491978302));
#49 = CARTESIAN_POINT('',(-2.159844949343,16.978109166501));
#50 = CARTESIAN_POINT('',(-2.30710710498,16.341411734476));
#51 = CARTESIAN_POINT('',(-2.454369260617,15.802124344102));
#52 = CARTESIAN_POINT('',(-2.601631416254,15.375950677846));
#53 = CARTESIAN_POINT('',(-2.969786805347,14.618342160964));
#54 = CARTESIAN_POINT('',(-3.190680038802,14.440819795518));
#55 = CARTESIAN_POINT('',(-3.411573272258,14.574134676986));
#56 = CARTESIAN_POINT('',(-3.632466505696,15.023260845395));
#57 = CARTESIAN_POINT('',(-3.853359739169,15.759006763532));
#58 = CARTESIAN_POINT('',(-4.074252972622,16.720390600643));
#59 = CARTESIAN_POINT('',(-4.29514620608,17.826901613655));
#60 = CARTESIAN_POINT('',(-4.736932672991,20.156925499161));
#61 = CARTESIAN_POINT('',(-4.957825906445,21.380439661294));
#62 = CARTESIAN_POINT('',(-5.17871913988,22.575827319408));
#63 = CARTESIAN_POINT('',(-5.399612373378,23.650408876158));
#64 = CARTESIAN_POINT('',(-5.620505606799,24.518815968375));
#65 = CARTESIAN_POINT('',(-5.841398840269,25.118547976166));
#66 = CARTESIAN_POINT('',(-6.062292073724,25.418417154504));
#67 = CARTESIAN_POINT('',(-6.28318530718,25.418417154504));
#68 = ( GEOMETRIC_REPRESENTATION_CONTEXT(2) 
PARAMETRIC_REPRESENTATION_CONTEXT() REPRESENTATION_CONTEXT('2D SPACE',''
  ) );
#69 = PCURVE('',#70,#75);
#70 = PLANE('',#71);
#71 = AXIS2_PLACEMENT_3D('',#72,#73,#74);
#72 = CARTESIAN_POINT('',(2.61156921326,-200.,-254.5461915058));
#73 = DIRECTION('',(-0.994150963972,-0.,-0.107999355706));
#74 = DIRECTION('',(0.107999355706,0.,-0.994150963972));
#75 = DEFINITIONAL_REPRESENTATION('',(#76),#84);
#76 = ( BOUNDED_CURVE() B_SPLINE_CURVE(2,(#77,#78,#79,#80,#81,#82,#83),
.UNSPECIFIED.,.T.,.F.) B_SPLINE_CURVE_WITH_KNOTS((1,2,2,2,2,1),(
    -2.094395102393,0.,2.094395102393,4.188790204786,6.28318530718,
8.377580409573),.UNSPECIFIED.) CURVE() GEOMETRIC_REPRESENTATION_ITEM() 
RATIONAL_B_SPLINE_CURVE((1.,0.5,1.,0.5,1.,0.5,1.)) REPRESENTATION_ITEM(
  '') );
#77 = CARTESIAN_POINT('',(-305.8350316243,-200.));
#78 = CARTESIAN_POINT('',(-305.8350316243,-114.2634850253));
#79 = CARTESIAN_POINT('',(-231.148185571,-157.1317425126));
#80 = CARTESIAN_POINT('',(-156.4613395176,-200.));
#81 = CARTESIAN_POINT('',(-231.148185571,-242.8682574873));
#82 = CARTESIAN_POINT('',(-305.8350316243,-285.7365149746));
#83 = CARTESIAN_POINT('',(-305.8350316243,-200.));
#84 = ( GEOMETRIC_REPRESENTATION_CONTEXT(2) 
PARAMETRIC_REPRESENTATION_CONTEXT() REPRESENTATION_CONTEXT('2D SPACE',''
  ) );
#85 = ORIENTED_EDGE('',*,*,#86,.T.);
#86 = EDGE_CURVE('',#22,#87,#89,.T.);
#87 = VERTEX_POINT('',#88);
#88 = CARTESIAN_POINT('',(-95.,0.,49.5));
#89 = SEAM_CURVE('',#90,(#94,#101),.PCURVE_S1.);
#90 = LINE('',#91,#92);
#91 = CARTESIAN_POINT('',(-5.,0.,49.5));
#92 = VECTOR('',#93,1.);
#93 = DIRECTION('',(-1.,-0.,-0.));
#94 = PCURVE('',#31,#95);
#95 = DEFINITIONAL_REPRESENTATION('',(#96),#100);
#96 = LINE('',#97,#98);
#97 = CARTESIAN_POINT('',(-0.,0.));
#98 = VECTOR('',#99,1.);
#99 = DIRECTION('',(-0.,1.));
#100 = ( GEOMETRIC_REPRESENTATION_CONTEXT(2) 
PARAMETRIC_REPRESENTATION_CONTEXT() REPRESENTATION_CONTEXT('2D SPACE',''
  ) );
#101 = PCURVE('',#31,#102);
#102 = DEFINITIONAL_REPRESENTATION('',(#103),#107);
#103 = LINE('',#104,#105);
#104 = CARTESIAN_POINT('',(-6.28318530718,0.));
#105 = VECTOR('',#106,1.);
#106 = DIRECTION('',(-0.,1.));
#107 = ( GEOMETRIC_REPRESENTATION_CONTEXT(2) 
PARAMETRIC_REPRESENTATION_CONTEXT() REPRESENTATION_CONTEXT('2D SPACE',''
  ) );
#108 = ORIENTED_EDGE('',*,*,#109,.F.);
#109 = EDGE_CURVE('',#87,#87,#110,.T.);
#110 = SURFACE_CURVE('',#111,(#116,#123),.PCURVE_S1.);
#111 = CIRCLE('',#112,49.5);
#112 = AXIS2_PLACEMENT_3D('',#113,#114,#115);
#113 = CARTESIAN_POINT('',(-95.,0.,0.));
#114 = DIRECTION('',(1.,-0.,0.));
#115 = DIRECTION('',(-0.,-0.,1.));
#116 = PCURVE('',#31,#117);
#117 = DEFINITIONAL_REPRESENTATION('',(#118),#122);
#118 = LINE('',#119,#120);
#119 = CARTESIAN_POINT('',(-0.,90.));
#120 = VECTOR('',#121,1.);
#121 = DIRECTION('',(-1.,0.));
#122 = ( GEOMETRIC_REPRESENTATION_CONTEXT(2) 
PARAMETRIC_REPRESENTATION_CONTEXT() REPRESENTATION_CONTEXT('2D SPACE',''
  ) );
#123 = PCURVE('',#124,#129);
#124 = PLANE('',#125);
#125 = AXIS2_PLACEMENT_3D('',#126,#127,#128);
#126 = CARTESIAN_POINT('',(-95.,0.,0.));
#127 = DIRECTION('',(-1.,-0.,-0.));
#128 = DIRECTION('',(0.,-0.,-1.));
#129 = DEFINITIONAL_REPRESENTATION('',(#130),#138);
#130 = ( BOUNDED_CURVE() B_SPLINE_CURVE(2,(#131,#132,#133,#134,#135,#136
,#137),.UNSPECIFIED.,.T.,.F.) B_SPLINE_CURVE_WITH_KNOTS((1,2,2,2,2,1),(
    -2.094395102393,0.,2.094395102393,4.188790204786,6.28318530718,
8.377580409573),.UNSPECIFIED.) CURVE() GEOMETRIC_REPRESENTATION_ITEM() 
RATIONAL_B_SPLINE_CURVE((1.,0.5,1.,0.5,1.,0.5,1.)) REPRESENTATION_ITEM(
  '') );
#131 = CARTESIAN_POINT('',(-49.5,0.));
#132 = CARTESIAN_POINT('',(-49.5,85.736514974659));
#133 = CARTESIAN_POINT('',(24.75,42.86825748733));
#134 = CARTESIAN_POINT('',(99.,1.212400331156E-14));
#135 = CARTESIAN_POINT('',(24.75,-42.86825748733));
#136 = CARTESIAN_POINT('',(-49.5,-85.73651497465));
#137 = CARTESIAN_POINT('',(-49.5,0.));
#138 = ( GEOMETRIC_REPRESENTATION_CONTEXT(2) 
PARAMETRIC_REPRESENTATION_CONTEXT() REPRESENTATION_CONTEXT('2D SPACE',''
  ) );
#139 = ORIENTED_EDGE('',*,*,#86,.F.);
#140 = ADVANCED_FACE('',(#141,#203),#70,.F.);
#141 = FACE_BOUND('',#142,.T.);
#142 = EDGE_LOOP('',(#143));
#143 = ORIENTED_EDGE('',*,*,#144,.T.);
#144 = EDGE_CURVE('',#145,#145,#147,.T.);
#145 = VERTEX_POINT('',#146);
#146 = CARTESIAN_POINT('',(-31.07022574064,0.,55.5));
#147 = SURFACE_CURVE('',#148,(#153,#164),.PCURVE_S1.);
#148 = ELLIPSE('',#149,55.826531393421,55.5);
#149 = AXIS2_PLACEMENT_3D('',#150,#151,#152);
#150 = CARTESIAN_POINT('',(-25.04099631885,0.,0.));
#151 = DIRECTION('',(0.994150963972,0.,0.107999355706));
#152 = DIRECTION('',(0.107999355706,0.,-0.994150963972));
#153 = PCURVE('',#70,#154);
#154 = DEFINITIONAL_REPRESENTATION('',(#155),#163);
#155 = ( BOUNDED_CURVE() B_SPLINE_CURVE(2,(#156,#157,#158,#159,#160,#161
,#162),.UNSPECIFIED.,.T.,.F.) B_SPLINE_CURVE_WITH_KNOTS((1,2,2,2,2,1),(
    -2.094395102393,0.,2.094395102393,4.188790204786,6.28318530718,
8.377580409573),.UNSPECIFIED.) CURVE() GEOMETRIC_REPRESENTATION_ITEM() 
RATIONAL_B_SPLINE_CURVE((1.,0.5,1.,0.5,1.,0.5,1.)) REPRESENTATION_ITEM(
  '') );
#156 = CARTESIAN_POINT('',(-200.2172695287,-200.));
#157 = CARTESIAN_POINT('',(-200.2172695287,-296.12881982));
#158 = CARTESIAN_POINT('',(-283.9570666188,-248.06440991));
#159 = CARTESIAN_POINT('',(-367.6968637089,-200.));
#160 = CARTESIAN_POINT('',(-283.9570666188,-151.9355900899));
#161 = CARTESIAN_POINT('',(-200.2172695287,-103.8711801799));
#162 = CARTESIAN_POINT('',(-200.2172695287,-200.));
#163 = ( GEOMETRIC_REPRESENTATION_CONTEXT(2) 
PARAMETRIC_REPRESENTATION_CONTEXT() REPRESENTATION_CONTEXT('2D SPACE',''
  ) );
#164 = PCURVE('',#165,#170);
#165 = CYLINDRICAL_SURFACE('',#166,55.5);
#166 = AXIS2_PLACEMENT_3D('',#167,#168,#169);
#167 = CARTESIAN_POINT('',(-95.,0.,0.));
#168 = DIRECTION('',(1.,-0.,-0.));
#169 = DIRECTION('',(-0.,-0.,1.));
#170 = DEFINITIONAL_REPRESENTATION('',(#171),#202);
#171 = B_SPLINE_CURVE_WITH_KNOTS('',8,(#172,#173,#174,#175,#176,#177,
    #178,#179,#180,#181,#182,#183,#184,#185,#186,#187,#188,#189,#190,
    #191,#192,#193,#194,#195,#196,#197,#198,#199,#200,#201),
  .UNSPECIFIED.,.F.,.F.,(9,7,7,7,9),(3.14159265359,4.712388980385,
    5.890486225481,7.657632093125,9.424777960769),.UNSPECIFIED.);
#172 = CARTESIAN_POINT('',(-8.881784197001E-16,63.929774259357));
#173 = CARTESIAN_POINT('',(0.196349540849,63.929774259357));
#174 = CARTESIAN_POINT('',(0.392699081696,64.195426786326));
#175 = CARTESIAN_POINT('',(0.589048622541,64.726729582995));
#176 = CARTESIAN_POINT('',(0.785398163379,65.501843072067));
#177 = CARTESIAN_POINT('',(0.981747704253,66.477043734776));
#178 = CARTESIAN_POINT('',(1.178097245089,67.591330542833));
#179 = CARTESIAN_POINT('',(1.374446785946,68.775167252504));
#180 = CARTESIAN_POINT('',(1.718058482432,70.846881002631));
#181 = CARTESIAN_POINT('',(1.865320638069,71.734757999154));
#182 = CARTESIAN_POINT('',(2.012582793706,72.593296426647));
#183 = CARTESIAN_POINT('',(2.159844949342,73.393149882279));
#184 = CARTESIAN_POINT('',(2.307107104979,74.107022760574));
#185 = CARTESIAN_POINT('',(2.454369260617,74.711678319519));
#186 = CARTESIAN_POINT('',(2.601631416254,75.189509399852));
#187 = CARTESIAN_POINT('',(2.969786805347,76.038949252113));
#188 = CARTESIAN_POINT('',(3.190680038806,76.237989480069));
#189 = CARTESIAN_POINT('',(3.411573272195,76.088515218609));
#190 = CARTESIAN_POINT('',(3.632466505773,75.584949515411));
#191 = CARTESIAN_POINT('',(3.853359739126,74.760022272996));
#192 = CARTESIAN_POINT('',(4.074252972633,73.682107062166));
#193 = CARTESIAN_POINT('',(4.29514620608,72.441473502127));
#194 = CARTESIAN_POINT('',(4.736932672991,69.829022478983));
#195 = CARTESIAN_POINT('',(4.957825906441,68.457203569968));
#196 = CARTESIAN_POINT('',(5.17871913988,67.11692043778));
#197 = CARTESIAN_POINT('',(5.399612373342,65.912086571741));
#198 = CARTESIAN_POINT('',(5.620505606833,64.938418013189));
#199 = CARTESIAN_POINT('',(5.841398840254,64.265991216911));
#200 = CARTESIAN_POINT('',(6.062292073724,63.929774259357));
#201 = CARTESIAN_POINT('',(6.28318530718,63.929774259357));
#202 = ( GEOMETRIC_REPRESENTATION_CONTEXT(2) 
PARAMETRIC_REPRESENTATION_CONTEXT() REPRESENTATION_CONTEXT('2D SPACE',''
  ) );
#203 = FACE_BOUND('',#204,.T.);
#204 = EDGE_LOOP('',(#205));
#205 = ORIENTED_EDGE('',*,*,#21,.F.);
#206 = ADVANCED_FACE('',(#207,#210),#124,.T.);
#207 = FACE_BOUND('',#208,.T.);
#208 = EDGE_LOOP('',(#209));
#209 = ORIENTED_EDGE('',*,*,#109,.T.);
#210 = FACE_BOUND('',#211,.T.);
#211 = EDGE_LOOP('',(#212));
#212 = ORIENTED_EDGE('',*,*,#213,.F.);
#213 = EDGE_CURVE('',#214,#214,#216,.T.);
#214 = VERTEX_POINT('',#215);
#215 = CARTESIAN_POINT('',(-95.,0.,55.5));
#216 = SURFACE_CURVE('',#217,(#222,#233),.PCURVE_S1.);
#217 = CIRCLE('',#218,55.5);
#218 = AXIS2_PLACEMENT_3D('',#219,#220,#221);
#219 = CARTESIAN_POINT('',(-95.,0.,0.));
#220 = DIRECTION('',(1.,-0.,0.));
#221 = DIRECTION('',(-0.,-0.,1.));
#222 = PCURVE('',#124,#223);
#223 = DEFINITIONAL_REPRESENTATION('',(#224),#232);
#224 = ( BOUNDED_CURVE() B_SPLINE_CURVE(2,(#225,#226,#227,#228,#229,#230
,#231),.UNSPECIFIED.,.T.,.F.) B_SPLINE_CURVE_WITH_KNOTS((1,2,2,2,2,1),(
    -2.094395102393,0.,2.094395102393,4.188790204786,6.28318530718,
8.377580409573),.UNSPECIFIED.) CURVE() GEOMETRIC_REPRESENTATION_ITEM() 
RATIONAL_B_SPLINE_CURVE((1.,0.5,1.,0.5,1.,0.5,1.)) REPRESENTATION_ITEM(
  '') );
#225 = CARTESIAN_POINT('',(-55.5,0.));
#226 = CARTESIAN_POINT('',(-55.5,96.128819820073));
#227 = CARTESIAN_POINT('',(27.75,48.064409910036));
#228 = CARTESIAN_POINT('',(111.,1.359357947054E-14));
#229 = CARTESIAN_POINT('',(27.75,-48.06440991003));
#230 = CARTESIAN_POINT('',(-55.5,-96.12881982007));
#231 = CARTESIAN_POINT('',(-55.5,0.));
#232 = ( GEOMETRIC_REPRESENTATION_CONTEXT(2) 
PARAMETRIC_REPRESENTATION_CONTEXT() REPRESENTATION_CONTEXT('2D SPACE',''
  ) );
#233 = PCURVE('',#165,#234);
#234 = DEFINITIONAL_REPRESENTATION('',(#235),#239);
#235 = LINE('',#236,#237);
#236 = CARTESIAN_POINT('',(0.,0.));
#237 = VECTOR('',#238,1.);
#238 = DIRECTION('',(1.,0.));
#239 = ( GEOMETRIC_REPRESENTATION_CONTEXT(2) 
PARAMETRIC_REPRESENTATION_CONTEXT() REPRESENTATION_CONTEXT('2D SPACE',''
  ) );
#240 = ADVANCED_FACE('',(#241),#165,.T.);
#241 = FACE_BOUND('',#242,.T.);
#242 = EDGE_LOOP('',(#243,#264,#265,#266));
#243 = ORIENTED_EDGE('',*,*,#244,.F.);
#244 = EDGE_CURVE('',#214,#145,#245,.T.);
#245 = SEAM_CURVE('',#246,(#250,#257),.PCURVE_S1.);
#246 = LINE('',#247,#248);
#247 = CARTESIAN_POINT('',(-95.,0.,55.5));
#248 = VECTOR('',#249,1.);
#249 = DIRECTION('',(1.,-0.,-0.));
#250 = PCURVE('',#165,#251);
#251 = DEFINITIONAL_REPRESENTATION('',(#252),#256);
#252 = LINE('',#253,#254);
#253 = CARTESIAN_POINT('',(0.,0.));
#254 = VECTOR('',#255,1.);
#255 = DIRECTION('',(0.,1.));
#256 = ( GEOMETRIC_REPRESENTATION_CONTEXT(2) 
PARAMETRIC_REPRESENTATION_CONTEXT() REPRESENTATION_CONTEXT('2D SPACE',''
  ) );
#257 = PCURVE('',#165,#258);
#258 = DEFINITIONAL_REPRESENTATION('',(#259),#263);
#259 = LINE('',#260,#261);
#260 = CARTESIAN_POINT('',(6.28318530718,0.));
#261 = VECTOR('',#262,1.);
#262 = DIRECTION('',(0.,1.));
#263 = ( GEOMETRIC_REPRESENTATION_CONTEXT(2) 
PARAMETRIC_REPRESENTATION_CONTEXT() REPRESENTATION_CONTEXT('2D SPACE',''
  ) );
#264 = ORIENTED_EDGE('',*,*,#213,.T.);
#265 = ORIENTED_EDGE('',*,*,#244,.T.);
#266 = ORIENTED_EDGE('',*,*,#144,.F.);
#267 = ( GEOMETRIC_REPRESENTATION_CONTEXT(3) 
GLOBAL_UNCERTAINTY_ASSIGNED_CONTEXT((#271)) GLOBAL_UNIT_ASSIGNED_CONTEXT
((#268,#269,#270)) REPRESENTATION_CONTEXT('Context #1',
  '3D Context with UNIT and UNCERTAINTY') );
#268 = ( LENGTH_UNIT() NAMED_UNIT(*) SI_UNIT(.MILLI.,.METRE.) );
#269 = ( NAMED_UNIT(*) PLANE_ANGLE_UNIT() SI_UNIT($,.RADIAN.) );
#270 = ( NAMED_UNIT(*) SI_UNIT($,.STERADIAN.) SOLID_ANGLE_UNIT() );
#271 = UNCERTAINTY_MEASURE_WITH_UNIT(LENGTH_MEASURE(1.E-07),#268,
  'distance_accuracy_value','confusion accuracy');
#272 = PRODUCT_RELATED_PRODUCT_CATEGORY('part',$,(#7));
ENDSEC;
END-ISO-10303-21;
