ISO-10303-21;
HEADER;
FILE_DESCRIPTION(('Open CASCADE Model'),'2;1');
FILE_NAME('Open CASCADE Shape Model','2026-09-23T09:25:03',('Author'),(
    'Open CASCADE'),'Open CASCADE STEP processor 7.9','Open CASCADE 7.9'
  ,'Unknown');
FILE_SCHEMA(('AUTOMOTIVE_DESIGN { 1 0 10303 214 1 1 1 1 }'));
ENDSEC;
DATA;
#1 = APPLICATION_PROTOCOL_DEFINITION('international standard',
  'automotive_design',2000,#2);
#2 = APPLICATION_CONTEXT(
  'core data for automotive mechanical design processes');
#3 = SHAPE_DEFINITION_REPRESENTATION(#4,#10);
#4 = PRODUCT_DEFINITION_SHAPE('','',#5);
#5 = PRODUCT_DEFINITION('design','',#6,#9);
#6 = PRODUCT_DEFINITION_FORMATION('','',#7);
#7 = PRODUCT('Open CASCADE STEP translator 7.9 10',
  'Open CASCADE STEP translator 7.9 10','',(#8));
#8 = PRODUCT_CONTEXT('',#2,'mechanical');
#9 = PRODUCT_DEFINITION_CONTEXT('part definition',#2,'design');
#10 = ADVANCED_BREP_SHAPE_REPRESENTATION('',(#11,#15),#1183);
#11 = AXIS2_PLACEMENT_3D('',#12,#13,#14);
#12 = CARTESIAN_POINT('',(0.,0.,0.));
#13 = DIRECTION('',(0.,0.,1.));
#14 = DIRECTION('',(1.,0.,-0.));
#15 = MANIFOLD_SOLID_BREP('',#16);
#16 = CLOSED_SHELL('',(#17,#137,#213,#289,#367,#471,#498,#525,#532,#793,
    #1116,#1120,#1124,#1179));
#17 = ADVANCED_FACE('',(#18),#32,.F.);
#18 = FACE_BOUND('',#19,.F.);
#19 = EDGE_LOOP('',(#20,#55,#83,#111));
#20 = ORIENTED_EDGE('',*,*,#21,.T.);
#21 = EDGE_CURVE('',#22,#24,#26,.T.);
#22 = VERTEX_POINT('',#23);
#23 = CARTESIAN_POINT('',(324.45,17.320508075689,1.235871120486E+03));
#24 = VERTEX_POINT('',#25);
#25 = CARTESIAN_POINT('',(335.4,17.320508075689,1.235871120486E+03));
#26 = SURFACE_CURVE('',#27,(#31,#43),.PCURVE_S1.);
#27 = LINE('',#28,#29);
#28 = CARTESIAN_POINT('',(324.45,17.320508075689,1.235871120486E+03));
#29 = VECTOR('',#30,1.);
#30 = DIRECTION('',(1.,0.,0.));
#31 = PCURVE('',#32,#37);
#32 = PLANE('',#33);
#33 = AXIS2_PLACEMENT_3D('',#34,#35,#36);
#34 = CARTESIAN_POINT('',(324.45,17.320508075689,1.235871120486E+03));
#35 = DIRECTION('',(0.,-0.866025403784,-0.5));
#36 = DIRECTION('',(0.,-0.5,0.866025403784));
#37 = DEFINITIONAL_REPRESENTATION('',(#38),#42);
#38 = LINE('',#39,#40);
#39 = CARTESIAN_POINT('',(0.,0.));
#40 = VECTOR('',#41,1.);
#41 = DIRECTION('',(0.,-1.));
#42 = ( GEOMETRIC_REPRESENTATION_CONTEXT(2) 
PARAMETRIC_REPRESENTATION_CONTEXT() REPRESENTATION_CONTEXT('2D SPACE',''
  ) );
#43 = PCURVE('',#44,#49);
#44 = PLANE('',#45);
#45 = AXIS2_PLACEMENT_3D('',#46,#47,#48);
#46 = CARTESIAN_POINT('',(324.45,8.660254037844,1.220871120486E+03));
#47 = DIRECTION('',(0.,-0.866025403784,0.5));
#48 = DIRECTION('',(0.,0.5,0.866025403784));
#49 = DEFINITIONAL_REPRESENTATION('',(#50),#54);
#50 = LINE('',#51,#52);
#51 = CARTESIAN_POINT('',(17.320508075689,0.));
#52 = VECTOR('',#53,1.);
#53 = DIRECTION('',(0.,-1.));
#54 = ( GEOMETRIC_REPRESENTATION_CONTEXT(2) 
PARAMETRIC_REPRESENTATION_CONTEXT() REPRESENTATION_CONTEXT('2D SPACE',''
  ) );
#55 = ORIENTED_EDGE('',*,*,#56,.T.);
#56 = EDGE_CURVE('',#24,#57,#59,.T.);
#57 = VERTEX_POINT('',#58);
#58 = CARTESIAN_POINT('',(335.4,8.660254037844,1.250871120486E+03));
#59 = SURFACE_CURVE('',#60,(#64,#71),.PCURVE_S1.);
#60 = LINE('',#61,#62);
#61 = CARTESIAN_POINT('',(335.4,17.320508075689,1.235871120486E+03));
#62 = VECTOR('',#63,1.);
#63 = DIRECTION('',(0.,-0.5,0.866025403784));
#64 = PCURVE('',#32,#65);
#65 = DEFINITIONAL_REPRESENTATION('',(#66),#70);
#66 = LINE('',#67,#68);
#67 = CARTESIAN_POINT('',(0.,-10.95));
#68 = VECTOR('',#69,1.);
#69 = DIRECTION('',(1.,0.));
#70 = ( GEOMETRIC_REPRESENTATION_CONTEXT(2) 
PARAMETRIC_REPRESENTATION_CONTEXT() REPRESENTATION_CONTEXT('2D SPACE',''
  ) );
#71 = PCURVE('',#72,#77);
#72 = PLANE('',#73);
#73 = AXIS2_PLACEMENT_3D('',#74,#75,#76);
#74 = CARTESIAN_POINT('',(335.4,-1.367440132539E-15,1.235871120486E+03)
  );
#75 = DIRECTION('',(1.,0.,0.));
#76 = DIRECTION('',(-0.,0.,1.));
#77 = DEFINITIONAL_REPRESENTATION('',(#78),#82);
#78 = LINE('',#79,#80);
#79 = CARTESIAN_POINT('',(2.273736754432E-13,-17.32050807568));
#80 = VECTOR('',#81,1.);
#81 = DIRECTION('',(0.866025403784,0.5));
#82 = ( GEOMETRIC_REPRESENTATION_CONTEXT(2) 
PARAMETRIC_REPRESENTATION_CONTEXT() REPRESENTATION_CONTEXT('2D SPACE',''
  ) );
#83 = ORIENTED_EDGE('',*,*,#84,.F.);
#84 = EDGE_CURVE('',#85,#57,#87,.T.);
#85 = VERTEX_POINT('',#86);
#86 = CARTESIAN_POINT('',(324.45,8.660254037844,1.250871120486E+03));
#87 = SURFACE_CURVE('',#88,(#92,#99),.PCURVE_S1.);
#88 = LINE('',#89,#90);
#89 = CARTESIAN_POINT('',(324.45,8.660254037844,1.250871120486E+03));
#90 = VECTOR('',#91,1.);
#91 = DIRECTION('',(1.,0.,0.));
#92 = PCURVE('',#32,#93);
#93 = DEFINITIONAL_REPRESENTATION('',(#94),#98);
#94 = LINE('',#95,#96);
#95 = CARTESIAN_POINT('',(17.320508075689,0.));
#96 = VECTOR('',#97,1.);
#97 = DIRECTION('',(0.,-1.));
#98 = ( GEOMETRIC_REPRESENTATION_CONTEXT(2) 
PARAMETRIC_REPRESENTATION_CONTEXT() REPRESENTATION_CONTEXT('2D SPACE',''
  ) );
#99 = PCURVE('',#100,#105);
#100 = PLANE('',#101);
#101 = AXIS2_PLACEMENT_3D('',#102,#103,#104);
#102 = CARTESIAN_POINT('',(324.45,8.660254037844,1.250871120486E+03));
#103 = DIRECTION('',(0.,-1.025580099405E-16,-1.));
#104 = DIRECTION('',(0.,-1.,1.025580099405E-16));
#105 = DEFINITIONAL_REPRESENTATION('',(#106),#110);
#106 = LINE('',#107,#108);
#107 = CARTESIAN_POINT('',(0.,0.));
#108 = VECTOR('',#109,1.);
#109 = DIRECTION('',(0.,-1.));
#110 = ( GEOMETRIC_REPRESENTATION_CONTEXT(2) 
PARAMETRIC_REPRESENTATION_CONTEXT() REPRESENTATION_CONTEXT('2D SPACE',''
  ) );
#111 = ORIENTED_EDGE('',*,*,#112,.F.);
#112 = EDGE_CURVE('',#22,#85,#113,.T.);
#113 = SURFACE_CURVE('',#114,(#118,#125),.PCURVE_S1.);
#114 = LINE('',#115,#116);
#115 = CARTESIAN_POINT('',(324.45,17.320508075689,1.235871120486E+03));
#116 = VECTOR('',#117,1.);
#117 = DIRECTION('',(0.,-0.5,0.866025403784));
#118 = PCURVE('',#32,#119);
#119 = DEFINITIONAL_REPRESENTATION('',(#120),#124);
#120 = LINE('',#121,#122);
#121 = CARTESIAN_POINT('',(0.,0.));
#122 = VECTOR('',#123,1.);
#123 = DIRECTION('',(1.,0.));
#124 = ( GEOMETRIC_REPRESENTATION_CONTEXT(2) 
PARAMETRIC_REPRESENTATION_CONTEXT() REPRESENTATION_CONTEXT('2D SPACE',''
  ) );
#125 = PCURVE('',#126,#131);
#126 = PLANE('',#127);
#127 = AXIS2_PLACEMENT_3D('',#128,#129,#130);
#128 = CARTESIAN_POINT('',(324.45,-1.367440132539E-15,1.235871120486E+03
    ));
#129 = DIRECTION('',(1.,0.,0.));
#130 = DIRECTION('',(-0.,0.,1.));
#131 = DEFINITIONAL_REPRESENTATION('',(#132),#136);
#132 = LINE('',#133,#134);
#133 = CARTESIAN_POINT('',(2.273736754432E-13,-17.32050807568));
#134 = VECTOR('',#135,1.);
#135 = DIRECTION('',(0.866025403784,0.5));
#136 = ( GEOMETRIC_REPRESENTATION_CONTEXT(2) 
PARAMETRIC_REPRESENTATION_CONTEXT() REPRESENTATION_CONTEXT('2D SPACE',''
  ) );
#137 = ADVANCED_FACE('',(#138),#44,.F.);
#138 = FACE_BOUND('',#139,.F.);
#139 = EDGE_LOOP('',(#140,#170,#191,#192));
#140 = ORIENTED_EDGE('',*,*,#141,.T.);
#141 = EDGE_CURVE('',#142,#144,#146,.T.);
#142 = VERTEX_POINT('',#143);
#143 = CARTESIAN_POINT('',(324.45,8.660254037844,1.220871120486E+03));
#144 = VERTEX_POINT('',#145);
#145 = CARTESIAN_POINT('',(335.4,8.660254037844,1.220871120486E+03));
#146 = SURFACE_CURVE('',#147,(#151,#158),.PCURVE_S1.);
#147 = LINE('',#148,#149);
#148 = CARTESIAN_POINT('',(324.45,8.660254037844,1.220871120486E+03));
#149 = VECTOR('',#150,1.);
#150 = DIRECTION('',(1.,0.,0.));
#151 = PCURVE('',#44,#152);
#152 = DEFINITIONAL_REPRESENTATION('',(#153),#157);
#153 = LINE('',#154,#155);
#154 = CARTESIAN_POINT('',(0.,0.));
#155 = VECTOR('',#156,1.);
#156 = DIRECTION('',(0.,-1.));
#157 = ( GEOMETRIC_REPRESENTATION_CONTEXT(2) 
PARAMETRIC_REPRESENTATION_CONTEXT() REPRESENTATION_CONTEXT('2D SPACE',''
  ) );
#158 = PCURVE('',#159,#164);
#159 = PLANE('',#160);
#160 = AXIS2_PLACEMENT_3D('',#161,#162,#163);
#161 = CARTESIAN_POINT('',(324.45,-8.660254037844,1.220871120486E+03));
#162 = DIRECTION('',(-0.,7.179060695832E-16,1.));
#163 = DIRECTION('',(0.,1.,-7.179060695832E-16));
#164 = DEFINITIONAL_REPRESENTATION('',(#165),#169);
#165 = LINE('',#166,#167);
#166 = CARTESIAN_POINT('',(17.320508075689,0.));
#167 = VECTOR('',#168,1.);
#168 = DIRECTION('',(0.,-1.));
#169 = ( GEOMETRIC_REPRESENTATION_CONTEXT(2) 
PARAMETRIC_REPRESENTATION_CONTEXT() REPRESENTATION_CONTEXT('2D SPACE',''
  ) );
#170 = ORIENTED_EDGE('',*,*,#171,.T.);
#171 = EDGE_CURVE('',#144,#24,#172,.T.);
#172 = SURFACE_CURVE('',#173,(#177,#184),.PCURVE_S1.);
#173 = LINE('',#174,#175);
#174 = CARTESIAN_POINT('',(335.4,8.660254037844,1.220871120486E+03));
#175 = VECTOR('',#176,1.);
#176 = DIRECTION('',(0.,0.5,0.866025403784));
#177 = PCURVE('',#44,#178);
#178 = DEFINITIONAL_REPRESENTATION('',(#179),#183);
#179 = LINE('',#180,#181);
#180 = CARTESIAN_POINT('',(0.,-10.95));
#181 = VECTOR('',#182,1.);
#182 = DIRECTION('',(1.,0.));
#183 = ( GEOMETRIC_REPRESENTATION_CONTEXT(2) 
PARAMETRIC_REPRESENTATION_CONTEXT() REPRESENTATION_CONTEXT('2D SPACE',''
  ) );
#184 = PCURVE('',#72,#185);
#185 = DEFINITIONAL_REPRESENTATION('',(#186),#190);
#186 = LINE('',#187,#188);
#187 = CARTESIAN_POINT('',(-15.,-8.660254037844));
#188 = VECTOR('',#189,1.);
#189 = DIRECTION('',(0.866025403784,-0.5));
#190 = ( GEOMETRIC_REPRESENTATION_CONTEXT(2) 
PARAMETRIC_REPRESENTATION_CONTEXT() REPRESENTATION_CONTEXT('2D SPACE',''
  ) );
#191 = ORIENTED_EDGE('',*,*,#21,.F.);
#192 = ORIENTED_EDGE('',*,*,#193,.F.);
#193 = EDGE_CURVE('',#142,#22,#194,.T.);
#194 = SURFACE_CURVE('',#195,(#199,#206),.PCURVE_S1.);
#195 = LINE('',#196,#197);
#196 = CARTESIAN_POINT('',(324.45,8.660254037844,1.220871120486E+03));
#197 = VECTOR('',#198,1.);
#198 = DIRECTION('',(0.,0.5,0.866025403784));
#199 = PCURVE('',#44,#200);
#200 = DEFINITIONAL_REPRESENTATION('',(#201),#205);
#201 = LINE('',#202,#203);
#202 = CARTESIAN_POINT('',(0.,0.));
#203 = VECTOR('',#204,1.);
#204 = DIRECTION('',(1.,0.));
#205 = ( GEOMETRIC_REPRESENTATION_CONTEXT(2) 
PARAMETRIC_REPRESENTATION_CONTEXT() REPRESENTATION_CONTEXT('2D SPACE',''
  ) );
#206 = PCURVE('',#126,#207);
#207 = DEFINITIONAL_REPRESENTATION('',(#208),#212);
#208 = LINE('',#209,#210);
#209 = CARTESIAN_POINT('',(-15.,-8.660254037844));
#210 = VECTOR('',#211,1.);
#211 = DIRECTION('',(0.866025403784,-0.5));
#212 = ( GEOMETRIC_REPRESENTATION_CONTEXT(2) 
PARAMETRIC_REPRESENTATION_CONTEXT() REPRESENTATION_CONTEXT('2D SPACE',''
  ) );
#213 = ADVANCED_FACE('',(#214),#100,.F.);
#214 = FACE_BOUND('',#215,.F.);
#215 = EDGE_LOOP('',(#216,#217,#240,#268));
#216 = ORIENTED_EDGE('',*,*,#84,.T.);
#217 = ORIENTED_EDGE('',*,*,#218,.T.);
#218 = EDGE_CURVE('',#57,#219,#221,.T.);
#219 = VERTEX_POINT('',#220);
#220 = CARTESIAN_POINT('',(335.4,-8.660254037844,1.250871120486E+03));
#221 = SURFACE_CURVE('',#222,(#226,#233),.PCURVE_S1.);
#222 = LINE('',#223,#224);
#223 = CARTESIAN_POINT('',(335.4,8.660254037844,1.250871120486E+03));
#224 = VECTOR('',#225,1.);
#225 = DIRECTION('',(0.,-1.,1.025580099405E-16));
#226 = PCURVE('',#100,#227);
#227 = DEFINITIONAL_REPRESENTATION('',(#228),#232);
#228 = LINE('',#229,#230);
#229 = CARTESIAN_POINT('',(0.,-10.95));
#230 = VECTOR('',#231,1.);
#231 = DIRECTION('',(1.,0.));
#232 = ( GEOMETRIC_REPRESENTATION_CONTEXT(2) 
PARAMETRIC_REPRESENTATION_CONTEXT() REPRESENTATION_CONTEXT('2D SPACE',''
  ) );
#233 = PCURVE('',#72,#234);
#234 = DEFINITIONAL_REPRESENTATION('',(#235),#239);
#235 = LINE('',#236,#237);
#236 = CARTESIAN_POINT('',(15.,-8.660254037844));
#237 = VECTOR('',#238,1.);
#238 = DIRECTION('',(1.025580099405E-16,1.));
#239 = ( GEOMETRIC_REPRESENTATION_CONTEXT(2) 
PARAMETRIC_REPRESENTATION_CONTEXT() REPRESENTATION_CONTEXT('2D SPACE',''
  ) );
#240 = ORIENTED_EDGE('',*,*,#241,.F.);
#241 = EDGE_CURVE('',#242,#219,#244,.T.);
#242 = VERTEX_POINT('',#243);
#243 = CARTESIAN_POINT('',(324.45,-8.660254037844,1.250871120486E+03));
#244 = SURFACE_CURVE('',#245,(#249,#256),.PCURVE_S1.);
#245 = LINE('',#246,#247);
#246 = CARTESIAN_POINT('',(324.45,-8.660254037844,1.250871120486E+03));
#247 = VECTOR('',#248,1.);
#248 = DIRECTION('',(1.,0.,0.));
#249 = PCURVE('',#100,#250);
#250 = DEFINITIONAL_REPRESENTATION('',(#251),#255);
#251 = LINE('',#252,#253);
#252 = CARTESIAN_POINT('',(17.320508075689,0.));
#253 = VECTOR('',#254,1.);
#254 = DIRECTION('',(0.,-1.));
#255 = ( GEOMETRIC_REPRESENTATION_CONTEXT(2) 
PARAMETRIC_REPRESENTATION_CONTEXT() REPRESENTATION_CONTEXT('2D SPACE',''
  ) );
#256 = PCURVE('',#257,#262);
#257 = PLANE('',#258);
#258 = AXIS2_PLACEMENT_3D('',#259,#260,#261);
#259 = CARTESIAN_POINT('',(324.45,-8.660254037844,1.250871120486E+03));
#260 = DIRECTION('',(0.,0.866025403784,-0.5));
#261 = DIRECTION('',(0.,-0.5,-0.866025403784));
#262 = DEFINITIONAL_REPRESENTATION('',(#263),#267);
#263 = LINE('',#264,#265);
#264 = CARTESIAN_POINT('',(0.,0.));
#265 = VECTOR('',#266,1.);
#266 = DIRECTION('',(0.,-1.));
#267 = ( GEOMETRIC_REPRESENTATION_CONTEXT(2) 
PARAMETRIC_REPRESENTATION_CONTEXT() REPRESENTATION_CONTEXT('2D SPACE',''
  ) );
#268 = ORIENTED_EDGE('',*,*,#269,.F.);
#269 = EDGE_CURVE('',#85,#242,#270,.T.);
#270 = SURFACE_CURVE('',#271,(#275,#282),.PCURVE_S1.);
#271 = LINE('',#272,#273);
#272 = CARTESIAN_POINT('',(324.45,8.660254037844,1.250871120486E+03));
#273 = VECTOR('',#274,1.);
#274 = DIRECTION('',(0.,-1.,1.025580099405E-16));
#275 = PCURVE('',#100,#276);
#276 = DEFINITIONAL_REPRESENTATION('',(#277),#281);
#277 = LINE('',#278,#279);
#278 = CARTESIAN_POINT('',(0.,0.));
#279 = VECTOR('',#280,1.);
#280 = DIRECTION('',(1.,0.));
#281 = ( GEOMETRIC_REPRESENTATION_CONTEXT(2) 
PARAMETRIC_REPRESENTATION_CONTEXT() REPRESENTATION_CONTEXT('2D SPACE',''
  ) );
#282 = PCURVE('',#126,#283);
#283 = DEFINITIONAL_REPRESENTATION('',(#284),#288);
#284 = LINE('',#285,#286);
#285 = CARTESIAN_POINT('',(15.,-8.660254037844));
#286 = VECTOR('',#287,1.);
#287 = DIRECTION('',(1.025580099405E-16,1.));
#288 = ( GEOMETRIC_REPRESENTATION_CONTEXT(2) 
PARAMETRIC_REPRESENTATION_CONTEXT() REPRESENTATION_CONTEXT('2D SPACE',''
  ) );
#289 = ADVANCED_FACE('',(#290),#126,.F.);
#290 = FACE_BOUND('',#291,.F.);
#291 = EDGE_LOOP('',(#292,#293,#294,#317,#345,#366));
#292 = ORIENTED_EDGE('',*,*,#112,.T.);
#293 = ORIENTED_EDGE('',*,*,#269,.T.);
#294 = ORIENTED_EDGE('',*,*,#295,.T.);
#295 = EDGE_CURVE('',#242,#296,#298,.T.);
#296 = VERTEX_POINT('',#297);
#297 = CARTESIAN_POINT('',(324.45,-17.32050807568,1.235871120486E+03));
#298 = SURFACE_CURVE('',#299,(#303,#310),.PCURVE_S1.);
#299 = LINE('',#300,#301);
#300 = CARTESIAN_POINT('',(324.45,-8.660254037844,1.250871120486E+03));
#301 = VECTOR('',#302,1.);
#302 = DIRECTION('',(0.,-0.5,-0.866025403784));
#303 = PCURVE('',#126,#304);
#304 = DEFINITIONAL_REPRESENTATION('',(#305),#309);
#305 = LINE('',#306,#307);
#306 = CARTESIAN_POINT('',(15.,8.660254037844));
#307 = VECTOR('',#308,1.);
#308 = DIRECTION('',(-0.866025403784,0.5));
#309 = ( GEOMETRIC_REPRESENTATION_CONTEXT(2) 
PARAMETRIC_REPRESENTATION_CONTEXT() REPRESENTATION_CONTEXT('2D SPACE',''
  ) );
#310 = PCURVE('',#257,#311);
#311 = DEFINITIONAL_REPRESENTATION('',(#312),#316);
#312 = LINE('',#313,#314);
#313 = CARTESIAN_POINT('',(0.,0.));
#314 = VECTOR('',#315,1.);
#315 = DIRECTION('',(1.,0.));
#316 = ( GEOMETRIC_REPRESENTATION_CONTEXT(2) 
PARAMETRIC_REPRESENTATION_CONTEXT() REPRESENTATION_CONTEXT('2D SPACE',''
  ) );
#317 = ORIENTED_EDGE('',*,*,#318,.T.);
#318 = EDGE_CURVE('',#296,#319,#321,.T.);
#319 = VERTEX_POINT('',#320);
#320 = CARTESIAN_POINT('',(324.45,-8.660254037844,1.220871120486E+03));
#321 = SURFACE_CURVE('',#322,(#326,#333),.PCURVE_S1.);
#322 = LINE('',#323,#324);
#323 = CARTESIAN_POINT('',(324.45,-17.32050807568,1.235871120486E+03));
#324 = VECTOR('',#325,1.);
#325 = DIRECTION('',(0.,0.5,-0.866025403784));
#326 = PCURVE('',#126,#327);
#327 = DEFINITIONAL_REPRESENTATION('',(#328),#332);
#328 = LINE('',#329,#330);
#329 = CARTESIAN_POINT('',(2.273736754432E-13,17.320508075689));
#330 = VECTOR('',#331,1.);
#331 = DIRECTION('',(-0.866025403784,-0.5));
#332 = ( GEOMETRIC_REPRESENTATION_CONTEXT(2) 
PARAMETRIC_REPRESENTATION_CONTEXT() REPRESENTATION_CONTEXT('2D SPACE',''
  ) );
#333 = PCURVE('',#334,#339);
#334 = PLANE('',#335);
#335 = AXIS2_PLACEMENT_3D('',#336,#337,#338);
#336 = CARTESIAN_POINT('',(324.45,-17.32050807568,1.235871120486E+03));
#337 = DIRECTION('',(-0.,0.866025403784,0.5));
#338 = DIRECTION('',(0.,0.5,-0.866025403784));
#339 = DEFINITIONAL_REPRESENTATION('',(#340),#344);
#340 = LINE('',#341,#342);
#341 = CARTESIAN_POINT('',(0.,0.));
#342 = VECTOR('',#343,1.);
#343 = DIRECTION('',(1.,0.));
#344 = ( GEOMETRIC_REPRESENTATION_CONTEXT(2) 
PARAMETRIC_REPRESENTATION_CONTEXT() REPRESENTATION_CONTEXT('2D SPACE',''
  ) );
#345 = ORIENTED_EDGE('',*,*,#346,.T.);
#346 = EDGE_CURVE('',#319,#142,#347,.T.);
#347 = SURFACE_CURVE('',#348,(#352,#359),.PCURVE_S1.);
#348 = LINE('',#349,#350);
#349 = CARTESIAN_POINT('',(324.45,-8.660254037844,1.220871120486E+03));
#350 = VECTOR('',#351,1.);
#351 = DIRECTION('',(0.,1.,-7.179060695832E-16));
#352 = PCURVE('',#126,#353);
#353 = DEFINITIONAL_REPRESENTATION('',(#354),#358);
#354 = LINE('',#355,#356);
#355 = CARTESIAN_POINT('',(-15.,8.660254037844));
#356 = VECTOR('',#357,1.);
#357 = DIRECTION('',(-7.179060695832E-16,-1.));
#358 = ( GEOMETRIC_REPRESENTATION_CONTEXT(2) 
PARAMETRIC_REPRESENTATION_CONTEXT() REPRESENTATION_CONTEXT('2D SPACE',''
  ) );
#359 = PCURVE('',#159,#360);
#360 = DEFINITIONAL_REPRESENTATION('',(#361),#365);
#361 = LINE('',#362,#363);
#362 = CARTESIAN_POINT('',(0.,0.));
#363 = VECTOR('',#364,1.);
#364 = DIRECTION('',(1.,0.));
#365 = ( GEOMETRIC_REPRESENTATION_CONTEXT(2) 
PARAMETRIC_REPRESENTATION_CONTEXT() REPRESENTATION_CONTEXT('2D SPACE',''
  ) );
#366 = ORIENTED_EDGE('',*,*,#193,.T.);
#367 = ADVANCED_FACE('',(#368,#440),#72,.T.);
#368 = FACE_BOUND('',#369,.T.);
#369 = EDGE_LOOP('',(#370,#371,#372,#395,#418,#439));
#370 = ORIENTED_EDGE('',*,*,#56,.T.);
#371 = ORIENTED_EDGE('',*,*,#218,.T.);
#372 = ORIENTED_EDGE('',*,*,#373,.T.);
#373 = EDGE_CURVE('',#219,#374,#376,.T.);
#374 = VERTEX_POINT('',#375);
#375 = CARTESIAN_POINT('',(335.4,-17.32050807568,1.235871120486E+03));
#376 = SURFACE_CURVE('',#377,(#381,#388),.PCURVE_S1.);
#377 = LINE('',#378,#379);
#378 = CARTESIAN_POINT('',(335.4,-8.660254037844,1.250871120486E+03));
#379 = VECTOR('',#380,1.);
#380 = DIRECTION('',(0.,-0.5,-0.866025403784));
#381 = PCURVE('',#72,#382);
#382 = DEFINITIONAL_REPRESENTATION('',(#383),#387);
#383 = LINE('',#384,#385);
#384 = CARTESIAN_POINT('',(15.,8.660254037844));
#385 = VECTOR('',#386,1.);
#386 = DIRECTION('',(-0.866025403784,0.5));
#387 = ( GEOMETRIC_REPRESENTATION_CONTEXT(2) 
PARAMETRIC_REPRESENTATION_CONTEXT() REPRESENTATION_CONTEXT('2D SPACE',''
  ) );
#388 = PCURVE('',#257,#389);
#389 = DEFINITIONAL_REPRESENTATION('',(#390),#394);
#390 = LINE('',#391,#392);
#391 = CARTESIAN_POINT('',(0.,-10.95));
#392 = VECTOR('',#393,1.);
#393 = DIRECTION('',(1.,0.));
#394 = ( GEOMETRIC_REPRESENTATION_CONTEXT(2) 
PARAMETRIC_REPRESENTATION_CONTEXT() REPRESENTATION_CONTEXT('2D SPACE',''
  ) );
#395 = ORIENTED_EDGE('',*,*,#396,.T.);
#396 = EDGE_CURVE('',#374,#397,#399,.T.);
#397 = VERTEX_POINT('',#398);
#398 = CARTESIAN_POINT('',(335.4,-8.660254037844,1.220871120486E+03));
#399 = SURFACE_CURVE('',#400,(#404,#411),.PCURVE_S1.);
#400 = LINE('',#401,#402);
#401 = CARTESIAN_POINT('',(335.4,-17.32050807568,1.235871120486E+03));
#402 = VECTOR('',#403,1.);
#403 = DIRECTION('',(0.,0.5,-0.866025403784));
#404 = PCURVE('',#72,#405);
#405 = DEFINITIONAL_REPRESENTATION('',(#406),#410);
#406 = LINE('',#407,#408);
#407 = CARTESIAN_POINT('',(2.273736754432E-13,17.320508075689));
#408 = VECTOR('',#409,1.);
#409 = DIRECTION('',(-0.866025403784,-0.5));
#410 = ( GEOMETRIC_REPRESENTATION_CONTEXT(2) 
PARAMETRIC_REPRESENTATION_CONTEXT() REPRESENTATION_CONTEXT('2D SPACE',''
  ) );
#411 = PCURVE('',#334,#412);
#412 = DEFINITIONAL_REPRESENTATION('',(#413),#417);
#413 = LINE('',#414,#415);
#414 = CARTESIAN_POINT('',(0.,-10.95));
#415 = VECTOR('',#416,1.);
#416 = DIRECTION('',(1.,0.));
#417 = ( GEOMETRIC_REPRESENTATION_CONTEXT(2) 
PARAMETRIC_REPRESENTATION_CONTEXT() REPRESENTATION_CONTEXT('2D SPACE',''
  ) );
#418 = ORIENTED_EDGE('',*,*,#419,.T.);
#419 = EDGE_CURVE('',#397,#144,#420,.T.);
#420 = SURFACE_CURVE('',#421,(#425,#432),.PCURVE_S1.);
#421 = LINE('',#422,#423);
#422 = CARTESIAN_POINT('',(335.4,-8.660254037844,1.220871120486E+03));
#423 = VECTOR('',#424,1.);
#424 = DIRECTION('',(0.,1.,-7.179060695832E-16));
#425 = PCURVE('',#72,#426);
#426 = DEFINITIONAL_REPRESENTATION('',(#427),#431);
#427 = LINE('',#428,#429);
#428 = CARTESIAN_POINT('',(-15.,8.660254037844));
#429 = VECTOR('',#430,1.);
#430 = DIRECTION('',(-7.179060695832E-16,-1.));
#431 = ( GEOMETRIC_REPRESENTATION_CONTEXT(2) 
PARAMETRIC_REPRESENTATION_CONTEXT() REPRESENTATION_CONTEXT('2D SPACE',''
  ) );
#432 = PCURVE('',#159,#433);
#433 = DEFINITIONAL_REPRESENTATION('',(#434),#438);
#434 = LINE('',#435,#436);
#435 = CARTESIAN_POINT('',(0.,-10.95));
#436 = VECTOR('',#437,1.);
#437 = DIRECTION('',(1.,0.));
#438 = ( GEOMETRIC_REPRESENTATION_CONTEXT(2) 
PARAMETRIC_REPRESENTATION_CONTEXT() REPRESENTATION_CONTEXT('2D SPACE',''
  ) );
#439 = ORIENTED_EDGE('',*,*,#171,.T.);
#440 = FACE_BOUND('',#441,.T.);
#441 = EDGE_LOOP('',(#442));
#442 = ORIENTED_EDGE('',*,*,#443,.F.);
#443 = EDGE_CURVE('',#444,#444,#446,.T.);
#444 = VERTEX_POINT('',#445);
#445 = CARTESIAN_POINT('',(335.4,1.555301434917E-15,1.242221120486E+03)
  );
#446 = SURFACE_CURVE('',#447,(#452,#459),.PCURVE_S1.);
#447 = CIRCLE('',#448,6.35);
#448 = AXIS2_PLACEMENT_3D('',#449,#450,#451);
#449 = CARTESIAN_POINT('',(335.4,0.,1.235871120486E+03));
#450 = DIRECTION('',(1.,0.,0.));
#451 = DIRECTION('',(-0.,0.,1.));
#452 = PCURVE('',#72,#453);
#453 = DEFINITIONAL_REPRESENTATION('',(#454),#458);
#454 = CIRCLE('',#455,6.35);
#455 = AXIS2_PLACEMENT_2D('',#456,#457);
#456 = CARTESIAN_POINT('',(2.273736754432E-13,-1.367440132539E-15));
#457 = DIRECTION('',(1.,0.));
#458 = ( GEOMETRIC_REPRESENTATION_CONTEXT(2) 
PARAMETRIC_REPRESENTATION_CONTEXT() REPRESENTATION_CONTEXT('2D SPACE',''
  ) );
#459 = PCURVE('',#460,#465);
#460 = CYLINDRICAL_SURFACE('',#461,6.35);
#461 = AXIS2_PLACEMENT_3D('',#462,#463,#464);
#462 = CARTESIAN_POINT('',(335.4,0.,1.235871120486E+03));
#463 = DIRECTION('',(1.,0.,0.));
#464 = DIRECTION('',(-0.,0.,1.));
#465 = DEFINITIONAL_REPRESENTATION('',(#466),#470);
#466 = LINE('',#467,#468);
#467 = CARTESIAN_POINT('',(0.,0.));
#468 = VECTOR('',#469,1.);
#469 = DIRECTION('',(1.,0.));
#470 = ( GEOMETRIC_REPRESENTATION_CONTEXT(2) 
PARAMETRIC_REPRESENTATION_CONTEXT() REPRESENTATION_CONTEXT('2D SPACE',''
  ) );
#471 = ADVANCED_FACE('',(#472),#159,.F.);
#472 = FACE_BOUND('',#473,.F.);
#473 = EDGE_LOOP('',(#474,#495,#496,#497));
#474 = ORIENTED_EDGE('',*,*,#475,.T.);
#475 = EDGE_CURVE('',#319,#397,#476,.T.);
#476 = SURFACE_CURVE('',#477,(#481,#488),.PCURVE_S1.);
#477 = LINE('',#478,#479);
#478 = CARTESIAN_POINT('',(324.45,-8.660254037844,1.220871120486E+03));
#479 = VECTOR('',#480,1.);
#480 = DIRECTION('',(1.,0.,0.));
#481 = PCURVE('',#159,#482);
#482 = DEFINITIONAL_REPRESENTATION('',(#483),#487);
#483 = LINE('',#484,#485);
#484 = CARTESIAN_POINT('',(0.,0.));
#485 = VECTOR('',#486,1.);
#486 = DIRECTION('',(0.,-1.));
#487 = ( GEOMETRIC_REPRESENTATION_CONTEXT(2) 
PARAMETRIC_REPRESENTATION_CONTEXT() REPRESENTATION_CONTEXT('2D SPACE',''
  ) );
#488 = PCURVE('',#334,#489);
#489 = DEFINITIONAL_REPRESENTATION('',(#490),#494);
#490 = LINE('',#491,#492);
#491 = CARTESIAN_POINT('',(17.320508075689,0.));
#492 = VECTOR('',#493,1.);
#493 = DIRECTION('',(0.,-1.));
#494 = ( GEOMETRIC_REPRESENTATION_CONTEXT(2) 
PARAMETRIC_REPRESENTATION_CONTEXT() REPRESENTATION_CONTEXT('2D SPACE',''
  ) );
#495 = ORIENTED_EDGE('',*,*,#419,.T.);
#496 = ORIENTED_EDGE('',*,*,#141,.F.);
#497 = ORIENTED_EDGE('',*,*,#346,.F.);
#498 = ADVANCED_FACE('',(#499),#257,.F.);
#499 = FACE_BOUND('',#500,.F.);
#500 = EDGE_LOOP('',(#501,#502,#503,#524));
#501 = ORIENTED_EDGE('',*,*,#241,.T.);
#502 = ORIENTED_EDGE('',*,*,#373,.T.);
#503 = ORIENTED_EDGE('',*,*,#504,.F.);
#504 = EDGE_CURVE('',#296,#374,#505,.T.);
#505 = SURFACE_CURVE('',#506,(#510,#517),.PCURVE_S1.);
#506 = LINE('',#507,#508);
#507 = CARTESIAN_POINT('',(324.45,-17.32050807568,1.235871120486E+03));
#508 = VECTOR('',#509,1.);
#509 = DIRECTION('',(1.,0.,0.));
#510 = PCURVE('',#257,#511);
#511 = DEFINITIONAL_REPRESENTATION('',(#512),#516);
#512 = LINE('',#513,#514);
#513 = CARTESIAN_POINT('',(17.320508075689,0.));
#514 = VECTOR('',#515,1.);
#515 = DIRECTION('',(0.,-1.));
#516 = ( GEOMETRIC_REPRESENTATION_CONTEXT(2) 
PARAMETRIC_REPRESENTATION_CONTEXT() REPRESENTATION_CONTEXT('2D SPACE',''
  ) );
#517 = PCURVE('',#334,#518);
#518 = DEFINITIONAL_REPRESENTATION('',(#519),#523);
#519 = LINE('',#520,#521);
#520 = CARTESIAN_POINT('',(0.,0.));
#521 = VECTOR('',#522,1.);
#522 = DIRECTION('',(0.,-1.));
#523 = ( GEOMETRIC_REPRESENTATION_CONTEXT(2) 
PARAMETRIC_REPRESENTATION_CONTEXT() REPRESENTATION_CONTEXT('2D SPACE',''
  ) );
#524 = ORIENTED_EDGE('',*,*,#295,.F.);
#525 = ADVANCED_FACE('',(#526),#334,.F.);
#526 = FACE_BOUND('',#527,.F.);
#527 = EDGE_LOOP('',(#528,#529,#530,#531));
#528 = ORIENTED_EDGE('',*,*,#504,.T.);
#529 = ORIENTED_EDGE('',*,*,#396,.T.);
#530 = ORIENTED_EDGE('',*,*,#475,.F.);
#531 = ORIENTED_EDGE('',*,*,#318,.F.);
#532 = ADVANCED_FACE('',(#533),#460,.T.);
#533 = FACE_BOUND('',#534,.T.);
#534 = EDGE_LOOP('',(#535,#770,#791,#792));
#535 = ORIENTED_EDGE('',*,*,#536,.F.);
#536 = EDGE_CURVE('',#537,#537,#539,.T.);
#537 = VERTEX_POINT('',#538);
#538 = CARTESIAN_POINT('',(343.32688362644,1.555301434917E-15,
    1.242221120486E+03));
#539 = SURFACE_CURVE('',#540,(#613,#689),.PCURVE_S1.);
#540 = B_SPLINE_CURVE_WITH_KNOTS('',8,(#541,#542,#543,#544,#545,#546,
    #547,#548,#549,#550,#551,#552,#553,#554,#555,#556,#557,#558,#559,
    #560,#561,#562,#563,#564,#565,#566,#567,#568,#569,#570,#571,#572,
    #573,#574,#575,#576,#577,#578,#579,#580,#581,#582,#583,#584,#585,
    #586,#587,#588,#589,#590,#591,#592,#593,#594,#595,#596,#597,#598,
    #599,#600,#601,#602,#603,#604,#605,#606,#607,#608,#609,#610,#611,
    #612),.UNSPECIFIED.,.T.,.F.,(9,7,7,7,7,7,7,7,7,7,9),(0.,
    0.106655569983,0.205785974624,0.294245303056,0.39337570773,
    0.500030809161,0.60668610959,0.705816262856,0.794275366973,
    0.889181421758,1.),.UNSPECIFIED.);
#541 = CARTESIAN_POINT('',(343.32688362644,8.881784197001E-16,
    1.242221120486E+03));
#542 = CARTESIAN_POINT('',(343.32688362644,-0.459518737646,
    1.242221120486E+03));
#543 = CARTESIAN_POINT('',(343.31806742024,-0.918754928912,
    1.242183117419E+03));
#544 = CARTESIAN_POINT('',(343.30045455655,-1.37588718106,
    1.242107190036E+03));
#545 = CARTESIAN_POINT('',(343.27427512178,-1.829012140752,
    1.241992997514E+03));
#546 = CARTESIAN_POINT('',(343.23998321656,-2.276018482938,
    1.241839821228E+03));
#547 = CARTESIAN_POINT('',(343.19829648307,-2.714420721224,
    1.241646610781E+03));
#548 = CARTESIAN_POINT('',(343.15026168313,-3.141152839727,
    1.241412034285E+03));
#549 = CARTESIAN_POINT('',(343.04816445435,-3.934480316321,
    1.240876610832E+03));
#550 = CARTESIAN_POINT('',(342.99458286939,-4.3046204724,
    1.240580645145E+03));
#551 = CARTESIAN_POINT('',(342.93779711214,-4.658855506769,
    1.240245288748E+03));
#552 = CARTESIAN_POINT('',(342.87940714543,-4.992573582363,
    1.239869386771E+03));
#553 = CARTESIAN_POINT('',(342.82145143088,-5.300367018282,
    1.239452091912E+03));
#554 = CARTESIAN_POINT('',(342.76644135248,-5.575914605119,
    1.238993045583E+03));
#555 = CARTESIAN_POINT('',(342.71731012809,-5.811793427774,
    1.23849265541E+03));
#556 = CARTESIAN_POINT('',(342.64138933834,-6.166426548775,
    1.237470489981E+03));
#557 = CARTESIAN_POINT('',(342.61272468235,-6.295238542102,
    1.236956286345E+03));
#558 = CARTESIAN_POINT('',(342.59409072166,-6.376225525386,
    1.236419525413E+03));
#559 = CARTESIAN_POINT('',(342.58760924077,-6.403830919748,
    1.235871120486E+03));
#560 = CARTESIAN_POINT('',(342.59409072166,-6.376225525387,
    1.235322715558E+03));
#561 = CARTESIAN_POINT('',(342.61272468235,-6.295238542101,
    1.234785954626E+03));
#562 = CARTESIAN_POINT('',(342.64138933834,-6.166426548776,
    1.23427175099E+03));
#563 = CARTESIAN_POINT('',(342.7173101281,-5.81179342771,
    1.233249585561E+03));
#564 = CARTESIAN_POINT('',(342.76644135249,-5.575914605054,
    1.232749195388E+03));
#565 = CARTESIAN_POINT('',(342.82145143087,-5.300367018304,
    1.23229014906E+03));
#566 = CARTESIAN_POINT('',(342.87940714541,-4.992573582474,
    1.231872854201E+03));
#567 = CARTESIAN_POINT('',(342.93779711213,-4.658855506869,
    1.231496952223E+03));
#568 = CARTESIAN_POINT('',(342.9945828694,-4.304620472371,
    1.231161595826E+03));
#569 = CARTESIAN_POINT('',(343.04816445437,-3.934480316159,
    1.23086563014E+03));
#570 = CARTESIAN_POINT('',(343.15026145063,-3.141154646359,
    1.230330207906E+03));
#571 = CARTESIAN_POINT('',(343.19829641956,-2.714421724244,
    1.230095630399E+03));
#572 = CARTESIAN_POINT('',(343.23998335647,-2.27601759232,
    1.229902419032E+03));
#573 = CARTESIAN_POINT('',(343.2742753267,-1.82900970248,
    1.22974924257E+03));
#574 = CARTESIAN_POINT('',(343.30045468816,-1.375884349792,
    1.229635050398E+03));
#575 = CARTESIAN_POINT('',(343.31806744807,-0.918752847913,
    1.229559123413E+03));
#576 = CARTESIAN_POINT('',(343.32688362644,-0.459517876416,
    1.229521120486E+03));
#577 = CARTESIAN_POINT('',(343.32688362644,0.459518733789,
    1.229521120486E+03));
#578 = CARTESIAN_POINT('',(343.31806741995,0.918754935407,
    1.229559123554E+03));
#579 = CARTESIAN_POINT('',(343.30045455676,1.375887181202,
    1.229635050934E+03));
#580 = CARTESIAN_POINT('',(343.27427512215,1.829012134747,
    1.229749243455E+03));
#581 = CARTESIAN_POINT('',(343.23998321636,2.276018482747,
    1.229902419744E+03));
#582 = CARTESIAN_POINT('',(343.19829648257,2.714420727545,
    1.230095630193E+03));
#583 = CARTESIAN_POINT('',(343.15026168358,3.141152836244,
    1.230330206684E+03));
#584 = CARTESIAN_POINT('',(343.04816445435,3.934480316321,
    1.23086563014E+03));
#585 = CARTESIAN_POINT('',(342.99458286939,4.3046204724,
    1.231161595827E+03));
#586 = CARTESIAN_POINT('',(342.93779711214,4.658855506768,
    1.231496952223E+03));
#587 = CARTESIAN_POINT('',(342.87940714543,4.992573582363,
    1.231872854201E+03));
#588 = CARTESIAN_POINT('',(342.82145143088,5.300367018282,
    1.23229014906E+03));
#589 = CARTESIAN_POINT('',(342.76644135248,5.575914605119,
    1.232749195388E+03));
#590 = CARTESIAN_POINT('',(342.71731012809,5.811793427773,
    1.233249585561E+03));
#591 = CARTESIAN_POINT('',(342.64138933834,6.166426548775,
    1.23427175099E+03));
#592 = CARTESIAN_POINT('',(342.61272468235,6.295238542104,
    1.234785954626E+03));
#593 = CARTESIAN_POINT('',(342.59409072166,6.37622552538,
    1.235322715558E+03));
#594 = CARTESIAN_POINT('',(342.58760924077,6.403830919758,
    1.235871120486E+03));
#595 = CARTESIAN_POINT('',(342.59409072166,6.376225525379,
    1.236419525413E+03));
#596 = CARTESIAN_POINT('',(342.61272468235,6.295238542105,
    1.236956286345E+03));
#597 = CARTESIAN_POINT('',(342.64138933834,6.166426548775,
    1.237470489981E+03));
#598 = CARTESIAN_POINT('',(342.71560055848,5.819778987547,
    1.238469638488E+03));
#599 = CARTESIAN_POINT('',(342.76228049575,5.595882387827,
    1.238950462273E+03));
#600 = CARTESIAN_POINT('',(342.81448591409,5.335209385753,
    1.239393513591E+03));
#601 = CARTESIAN_POINT('',(342.86962960158,5.044335516602,
    1.239798324435E+03));
#602 = CARTESIAN_POINT('',(342.92546510432,4.72893115155,
    1.240165095627E+03));
#603 = CARTESIAN_POINT('',(342.98013824092,4.393910632699,
    1.240494474632E+03));
#604 = CARTESIAN_POINT('',(343.03217007273,4.043525981458,
    1.240787409661E+03));
#605 = CARTESIAN_POINT('',(343.13679230427,3.258606407782,
    1.24134590511E+03));
#606 = CARTESIAN_POINT('',(343.18826135266,2.817952916674,
    1.241599963836E+03));
#607 = CARTESIAN_POINT('',(343.2330986437,2.364042168806,
    1.241809022323E+03));
#608 = CARTESIAN_POINT('',(343.27006703364,1.900428038305,
    1.241974632641E+03));
#609 = CARTESIAN_POINT('',(343.29832868397,1.429951631346,
    1.242098027836E+03));
#610 = CARTESIAN_POINT('',(343.31735746234,0.954992598663,
    1.242180055821E+03));
#611 = CARTESIAN_POINT('',(343.32688362644,0.47766943386,
    1.242221120486E+03));
#612 = CARTESIAN_POINT('',(343.32688362644,8.881784197001E-16,
    1.242221120486E+03));
#613 = PCURVE('',#460,#614);
#614 = DEFINITIONAL_REPRESENTATION('',(#615),#688);
#615 = B_SPLINE_CURVE_WITH_KNOTS('',8,(#616,#617,#618,#619,#620,#621,
    #622,#623,#624,#625,#626,#627,#628,#629,#630,#631,#632,#633,#634,
    #635,#636,#637,#638,#639,#640,#641,#642,#643,#644,#645,#646,#647,
    #648,#649,#650,#651,#652,#653,#654,#655,#656,#657,#658,#659,#660,
    #661,#662,#663,#664,#665,#666,#667,#668,#669,#670,#671,#672,#673,
    #674,#675,#676,#677,#678,#679,#680,#681,#682,#683,#684,#685,#686,
    #687),.UNSPECIFIED.,.F.,.F.,(9,7,7,7,7,7,7,7,7,7,9),(0.,
    0.106655569983,0.205785974624,0.294245303056,0.39337570773,
    0.500030809161,0.60668610959,0.705816262856,0.794275366973,
    0.889181421758,1.),.UNSPECIFIED.);
#616 = CARTESIAN_POINT('',(0.,7.926883626448));
#617 = CARTESIAN_POINT('',(7.236515553477E-02,7.926883626448));
#618 = CARTESIAN_POINT('',(0.144686253387,7.918067420249));
#619 = CARTESIAN_POINT('',(0.217251937706,7.900454556557));
#620 = CARTESIAN_POINT('',(0.290340206794,7.874275121781));
#621 = CARTESIAN_POINT('',(0.364227354672,7.839983216562));
#622 = CARTESIAN_POINT('',(0.439199754816,7.798296483079));
#623 = CARTESIAN_POINT('',(0.515568486061,7.750261683137));
#624 = CARTESIAN_POINT('',(0.66629341784,7.648164454352));
#625 = CARTESIAN_POINT('',(0.740682672911,7.594582869396));
#626 = CARTESIAN_POINT('',(0.817049858442,7.537797112146));
#627 = CARTESIAN_POINT('',(0.895596560796,7.479407145433));
#628 = CARTESIAN_POINT('',(0.976553330611,7.421451430883));
#629 = CARTESIAN_POINT('',(1.060185479908,7.366441352481));
#630 = CARTESIAN_POINT('',(1.146809488385,7.317310128092));
#631 = CARTESIAN_POINT('',(1.317193205587,7.241389338342));
#632 = CARTESIAN_POINT('',(1.400345715413,7.212724682357));
#633 = CARTESIAN_POINT('',(1.485175709441,7.194090721667));
#634 = CARTESIAN_POINT('',(1.570796326795,7.187609240773));
#635 = CARTESIAN_POINT('',(1.656416944148,7.194090721667));
#636 = CARTESIAN_POINT('',(1.741246938177,7.212724682358));
#637 = CARTESIAN_POINT('',(1.824399448003,7.241389338341));
#638 = CARTESIAN_POINT('',(1.994783165235,7.317310128106));
#639 = CARTESIAN_POINT('',(2.081407173695,7.366441352495));
#640 = CARTESIAN_POINT('',(2.165039322965,7.421451430876));
#641 = CARTESIAN_POINT('',(2.245996092767,7.479407145411));
#642 = CARTESIAN_POINT('',(2.32454279513,7.537797112131));
#643 = CARTESIAN_POINT('',(2.400909980688,7.594582869405));
#644 = CARTESIAN_POINT('',(2.475299235781,7.648164454373));
#645 = CARTESIAN_POINT('',(2.626023824285,7.750261450633));
#646 = CARTESIAN_POINT('',(2.702392747898,7.798296419567));
#647 = CARTESIAN_POINT('',(2.777365471114,7.839983356478));
#648 = CARTESIAN_POINT('',(2.851252847142,7.874275326704));
#649 = CARTESIAN_POINT('',(2.924341162957,7.900454688166));
#650 = CARTESIAN_POINT('',(2.996906729434,7.918067448074));
#651 = CARTESIAN_POINT('',(3.069227633682,7.926883626448));
#652 = CARTESIAN_POINT('',(3.213957808517,7.926883626448));
#653 = CARTESIAN_POINT('',(3.286278908062,7.918067419955));
#654 = CARTESIAN_POINT('',(3.358844591269,7.900454556764));
#655 = CARTESIAN_POINT('',(3.431932859357,7.874275122159));
#656 = CARTESIAN_POINT('',(3.505820008284,7.839983216362));
#657 = CARTESIAN_POINT('',(3.580792409517,7.79829648257));
#658 = CARTESIAN_POINT('',(3.657161138989,7.750261683586));
#659 = CARTESIAN_POINT('',(3.80788607143,7.648164454352));
#660 = CARTESIAN_POINT('',(3.882275326501,7.594582869396));
#661 = CARTESIAN_POINT('',(3.958642512031,7.537797112146));
#662 = CARTESIAN_POINT('',(4.037189214385,7.479407145433));
#663 = CARTESIAN_POINT('',(4.118145984201,7.421451430883));
#664 = CARTESIAN_POINT('',(4.201778133498,7.366441352481));
#665 = CARTESIAN_POINT('',(4.288402141974,7.317310128092));
#666 = CARTESIAN_POINT('',(4.458785859177,7.241389338342));
#667 = CARTESIAN_POINT('',(4.541938369003,7.212724682357));
#668 = CARTESIAN_POINT('',(4.62676836303,7.194090721668));
#669 = CARTESIAN_POINT('',(4.712388980386,7.187609240772));
#670 = CARTESIAN_POINT('',(4.798009597738,7.194090721668));
#671 = CARTESIAN_POINT('',(4.882839591766,7.212724682357));
#672 = CARTESIAN_POINT('',(4.965992101593,7.241389338342));
#673 = CARTESIAN_POINT('',(5.132539151328,7.315600558487));
#674 = CARTESIAN_POINT('',(5.215633534691,7.362280495754));
#675 = CARTESIAN_POINT('',(5.295982063331,7.414485914095));
#676 = CARTESIAN_POINT('',(5.373857877582,7.469629601585));
#677 = CARTESIAN_POINT('',(5.449488933818,7.525465104324));
#678 = CARTESIAN_POINT('',(5.52307154203,7.580138240924));
#679 = CARTESIAN_POINT('',(5.594775486275,7.632170072736));
#680 = CARTESIAN_POINT('',(5.746481914712,7.736792304272));
#681 = CARTESIAN_POINT('',(5.82621933809,7.788261352668));
#682 = CARTESIAN_POINT('',(5.904380786149,7.833098643703));
#683 = CARTESIAN_POINT('',(5.981314820795,7.87006703364));
#684 = CARTESIAN_POINT('',(6.057347339978,7.898328683974));
#685 = CARTESIAN_POINT('',(6.132792813903,7.917357462345));
#686 = CARTESIAN_POINT('',(6.207961774288,7.926883626448));
#687 = CARTESIAN_POINT('',(6.28318530718,7.926883626448));
#688 = ( GEOMETRIC_REPRESENTATION_CONTEXT(2) 
PARAMETRIC_REPRESENTATION_CONTEXT() REPRESENTATION_CONTEXT('2D SPACE',''
  ) );
#689 = PCURVE('',#690,#695);
#690 = CYLINDRICAL_SURFACE('',#691,28.1);
#691 = AXIS2_PLACEMENT_3D('',#692,#693,#694);
#692 = CARTESIAN_POINT('',(370.7,-20.,1.235871120486E+03));
#693 = DIRECTION('',(0.,1.,0.));
#694 = DIRECTION('',(0.,-0.,1.));
#695 = DEFINITIONAL_REPRESENTATION('',(#696),#769);
#696 = B_SPLINE_CURVE_WITH_KNOTS('',8,(#697,#698,#699,#700,#701,#702,
    #703,#704,#705,#706,#707,#708,#709,#710,#711,#712,#713,#714,#715,
    #716,#717,#718,#719,#720,#721,#722,#723,#724,#725,#726,#727,#728,
    #729,#730,#731,#732,#733,#734,#735,#736,#737,#738,#739,#740,#741,
    #742,#743,#744,#745,#746,#747,#748,#749,#750,#751,#752,#753,#754,
    #755,#756,#757,#758,#759,#760,#761,#762,#763,#764,#765,#766,#767,
    #768),.UNSPECIFIED.,.T.,.F.,(9,7,7,7,7,7,7,7,7,7,9),(0.,
    0.106655569983,0.205785974624,0.294245303056,0.39337570773,
    0.500030809161,0.60668610959,0.705816262856,0.794275366973,
    0.889181421758,1.),.UNSPECIFIED.);
#697 = CARTESIAN_POINT('',(4.940336535029,20.));
#698 = CARTESIAN_POINT('',(4.940336535029,19.540481262354));
#699 = CARTESIAN_POINT('',(4.938948190747,19.081245071088));
#700 = CARTESIAN_POINT('',(4.936174418824,18.62411281894));
#701 = CARTESIAN_POINT('',(4.932005209362,18.170987859248));
#702 = CARTESIAN_POINT('',(4.926419312806,17.723981517062));
#703 = CARTESIAN_POINT('',(4.919385789534,17.285579278776));
#704 = CARTESIAN_POINT('',(4.910865422182,16.858847160273));
#705 = CARTESIAN_POINT('',(4.891467886741,16.065519683679));
#706 = CARTESIAN_POINT('',(4.880764547161,15.6953795276));
#707 = CARTESIAN_POINT('',(4.868661635137,15.341144493231));
#708 = CARTESIAN_POINT('',(4.855126609712,15.007426417637));
#709 = CARTESIAN_POINT('',(4.840138182294,14.699632981718));
#710 = CARTESIAN_POINT('',(4.823690951999,14.424085394881));
#711 = CARTESIAN_POINT('',(4.805802886097,14.188206572226));
#712 = CARTESIAN_POINT('',(4.76932669252,13.833573451225));
#713 = CARTESIAN_POINT('',(4.751002342025,13.704761457898));
#714 = CARTESIAN_POINT('',(4.73189611203,13.623774474614));
#715 = CARTESIAN_POINT('',(4.712388980384,13.596169080252));
#716 = CARTESIAN_POINT('',(4.69288184874,13.623774474613));
#717 = CARTESIAN_POINT('',(4.673775618744,13.704761457899));
#718 = CARTESIAN_POINT('',(4.65545126825,13.833573451224));
#719 = CARTESIAN_POINT('',(4.618975074666,14.18820657229));
#720 = CARTESIAN_POINT('',(4.601087008768,14.424085394946));
#721 = CARTESIAN_POINT('',(4.584639778478,14.699632981696));
#722 = CARTESIAN_POINT('',(4.569651351063,15.007426417526));
#723 = CARTESIAN_POINT('',(4.556116325635,15.341144493131));
#724 = CARTESIAN_POINT('',(4.544013413606,15.695379527629));
#725 = CARTESIAN_POINT('',(4.533310074025,16.065519683841));
#726 = CARTESIAN_POINT('',(4.513912582761,16.858845353641));
#727 = CARTESIAN_POINT('',(4.505392178964,17.285578275756));
#728 = CARTESIAN_POINT('',(4.49835862216,17.72398240768));
#729 = CARTESIAN_POINT('',(4.492772719009,18.17099029752));
#730 = CARTESIAN_POINT('',(4.488603522266,18.624115650208));
#731 = CARTESIAN_POINT('',(4.485829764943,19.081247152087));
#732 = CARTESIAN_POINT('',(4.48444142574,19.540482123584));
#733 = CARTESIAN_POINT('',(4.48444142574,20.459518733789));
#734 = CARTESIAN_POINT('',(4.485829770076,20.918754935407));
#735 = CARTESIAN_POINT('',(4.488603541907,21.375887181202));
#736 = CARTESIAN_POINT('',(4.492772751338,21.829012134747));
#737 = CARTESIAN_POINT('',(4.498358648002,22.276018482747));
#738 = CARTESIAN_POINT('',(4.50539217133,22.714420727545));
#739 = CARTESIAN_POINT('',(4.513912538503,23.141152836244));
#740 = CARTESIAN_POINT('',(4.533310074029,23.934480316321));
#741 = CARTESIAN_POINT('',(4.544013413608,24.3046204724));
#742 = CARTESIAN_POINT('',(4.556116325633,24.658855506768));
#743 = CARTESIAN_POINT('',(4.569651351058,24.992573582363));
#744 = CARTESIAN_POINT('',(4.584639778475,25.300367018282));
#745 = CARTESIAN_POINT('',(4.601087008771,25.575914605119));
#746 = CARTESIAN_POINT('',(4.618975074672,25.811793427773));
#747 = CARTESIAN_POINT('',(4.65545126825,26.166426548775));
#748 = CARTESIAN_POINT('',(4.673775618744,26.295238542104));
#749 = CARTESIAN_POINT('',(4.69288184874,26.37622552538));
#750 = CARTESIAN_POINT('',(4.712388980384,26.403830919758));
#751 = CARTESIAN_POINT('',(4.73189611203,26.376225525379));
#752 = CARTESIAN_POINT('',(4.751002342025,26.295238542105));
#753 = CARTESIAN_POINT('',(4.76932669252,26.166426548775));
#754 = CARTESIAN_POINT('',(4.804981522251,25.819778987547));
#755 = CARTESIAN_POINT('',(4.822168727942,25.595882387827));
#756 = CARTESIAN_POINT('',(4.838039569456,25.335209385753));
#757 = CARTESIAN_POINT('',(4.852574611259,25.044335516602));
#758 = CARTESIAN_POINT('',(4.865774805774,24.72893115155));
#759 = CARTESIAN_POINT('',(4.877655539675,24.393910632699));
#760 = CARTESIAN_POINT('',(4.888242981797,24.043525981458));
#761 = CARTESIAN_POINT('',(4.908463989928,23.258606407782));
#762 = CARTESIAN_POINT('',(4.91768789771,22.817952916674));
#763 = CARTESIAN_POINT('',(4.925296263837,22.364042168806));
#764 = CARTESIAN_POINT('',(4.931334720958,21.900428038305));
#765 = CARTESIAN_POINT('',(4.935839687753,21.429951631346));
#766 = CARTESIAN_POINT('',(4.938836353526,20.954992598663));
#767 = CARTESIAN_POINT('',(4.940336535029,20.47766943386));
#768 = CARTESIAN_POINT('',(4.940336535029,20.));
#769 = ( GEOMETRIC_REPRESENTATION_CONTEXT(2) 
PARAMETRIC_REPRESENTATION_CONTEXT() REPRESENTATION_CONTEXT('2D SPACE',''
  ) );
#770 = ORIENTED_EDGE('',*,*,#771,.F.);
#771 = EDGE_CURVE('',#444,#537,#772,.T.);
#772 = SEAM_CURVE('',#773,(#777,#784),.PCURVE_S1.);
#773 = LINE('',#774,#775);
#774 = CARTESIAN_POINT('',(335.4,1.555301434917E-15,1.242221120486E+03)
  );
#775 = VECTOR('',#776,1.);
#776 = DIRECTION('',(1.,0.,0.));
#777 = PCURVE('',#460,#778);
#778 = DEFINITIONAL_REPRESENTATION('',(#779),#783);
#779 = LINE('',#780,#781);
#780 = CARTESIAN_POINT('',(6.28318530718,-0.));
#781 = VECTOR('',#782,1.);
#782 = DIRECTION('',(0.,1.));
#783 = ( GEOMETRIC_REPRESENTATION_CONTEXT(2) 
PARAMETRIC_REPRESENTATION_CONTEXT() REPRESENTATION_CONTEXT('2D SPACE',''
  ) );
#784 = PCURVE('',#460,#785);
#785 = DEFINITIONAL_REPRESENTATION('',(#786),#790);
#786 = LINE('',#787,#788);
#787 = CARTESIAN_POINT('',(0.,-0.));
#788 = VECTOR('',#789,1.);
#789 = DIRECTION('',(0.,1.));
#790 = ( GEOMETRIC_REPRESENTATION_CONTEXT(2) 
PARAMETRIC_REPRESENTATION_CONTEXT() REPRESENTATION_CONTEXT('2D SPACE',''
  ) );
#791 = ORIENTED_EDGE('',*,*,#443,.T.);
#792 = ORIENTED_EDGE('',*,*,#771,.T.);
#793 = ADVANCED_FACE('',(#794,#876,#1113),#690,.T.);
#794 = FACE_BOUND('',#795,.T.);
#795 = EDGE_LOOP('',(#796,#825,#848,#875));
#796 = ORIENTED_EDGE('',*,*,#797,.F.);
#797 = EDGE_CURVE('',#798,#798,#800,.T.);
#798 = VERTEX_POINT('',#799);
#799 = CARTESIAN_POINT('',(370.7,20.,1.263971120486E+03));
#800 = SURFACE_CURVE('',#801,(#806,#813),.PCURVE_S1.);
#801 = CIRCLE('',#802,28.1);
#802 = AXIS2_PLACEMENT_3D('',#803,#804,#805);
#803 = CARTESIAN_POINT('',(370.7,20.,1.235871120486E+03));
#804 = DIRECTION('',(0.,1.,0.));
#805 = DIRECTION('',(0.,-0.,1.));
#806 = PCURVE('',#690,#807);
#807 = DEFINITIONAL_REPRESENTATION('',(#808),#812);
#808 = LINE('',#809,#810);
#809 = CARTESIAN_POINT('',(0.,40.));
#810 = VECTOR('',#811,1.);
#811 = DIRECTION('',(1.,0.));
#812 = ( GEOMETRIC_REPRESENTATION_CONTEXT(2) 
PARAMETRIC_REPRESENTATION_CONTEXT() REPRESENTATION_CONTEXT('2D SPACE',''
  ) );
#813 = PCURVE('',#814,#819);
#814 = PLANE('',#815);
#815 = AXIS2_PLACEMENT_3D('',#816,#817,#818);
#816 = CARTESIAN_POINT('',(370.7,20.,1.235871120486E+03));
#817 = DIRECTION('',(0.,1.,0.));
#818 = DIRECTION('',(0.,-0.,1.));
#819 = DEFINITIONAL_REPRESENTATION('',(#820),#824);
#820 = CIRCLE('',#821,28.1);
#821 = AXIS2_PLACEMENT_2D('',#822,#823);
#822 = CARTESIAN_POINT('',(0.,0.));
#823 = DIRECTION('',(1.,0.));
#824 = ( GEOMETRIC_REPRESENTATION_CONTEXT(2) 
PARAMETRIC_REPRESENTATION_CONTEXT() REPRESENTATION_CONTEXT('2D SPACE',''
  ) );
#825 = ORIENTED_EDGE('',*,*,#826,.F.);
#826 = EDGE_CURVE('',#827,#798,#829,.T.);
#827 = VERTEX_POINT('',#828);
#828 = CARTESIAN_POINT('',(370.7,-20.,1.263971120486E+03));
#829 = SEAM_CURVE('',#830,(#834,#841),.PCURVE_S1.);
#830 = LINE('',#831,#832);
#831 = CARTESIAN_POINT('',(370.7,-20.,1.263971120486E+03));
#832 = VECTOR('',#833,1.);
#833 = DIRECTION('',(0.,1.,0.));
#834 = PCURVE('',#690,#835);
#835 = DEFINITIONAL_REPRESENTATION('',(#836),#840);
#836 = LINE('',#837,#838);
#837 = CARTESIAN_POINT('',(6.28318530718,-0.));
#838 = VECTOR('',#839,1.);
#839 = DIRECTION('',(0.,1.));
#840 = ( GEOMETRIC_REPRESENTATION_CONTEXT(2) 
PARAMETRIC_REPRESENTATION_CONTEXT() REPRESENTATION_CONTEXT('2D SPACE',''
  ) );
#841 = PCURVE('',#690,#842);
#842 = DEFINITIONAL_REPRESENTATION('',(#843),#847);
#843 = LINE('',#844,#845);
#844 = CARTESIAN_POINT('',(0.,-0.));
#845 = VECTOR('',#846,1.);
#846 = DIRECTION('',(0.,1.));
#847 = ( GEOMETRIC_REPRESENTATION_CONTEXT(2) 
PARAMETRIC_REPRESENTATION_CONTEXT() REPRESENTATION_CONTEXT('2D SPACE',''
  ) );
#848 = ORIENTED_EDGE('',*,*,#849,.T.);
#849 = EDGE_CURVE('',#827,#827,#850,.T.);
#850 = SURFACE_CURVE('',#851,(#856,#863),.PCURVE_S1.);
#851 = CIRCLE('',#852,28.1);
#852 = AXIS2_PLACEMENT_3D('',#853,#854,#855);
#853 = CARTESIAN_POINT('',(370.7,-20.,1.235871120486E+03));
#854 = DIRECTION('',(0.,1.,0.));
#855 = DIRECTION('',(0.,-0.,1.));
#856 = PCURVE('',#690,#857);
#857 = DEFINITIONAL_REPRESENTATION('',(#858),#862);
#858 = LINE('',#859,#860);
#859 = CARTESIAN_POINT('',(0.,0.));
#860 = VECTOR('',#861,1.);
#861 = DIRECTION('',(1.,0.));
#862 = ( GEOMETRIC_REPRESENTATION_CONTEXT(2) 
PARAMETRIC_REPRESENTATION_CONTEXT() REPRESENTATION_CONTEXT('2D SPACE',''
  ) );
#863 = PCURVE('',#864,#869);
#864 = PLANE('',#865);
#865 = AXIS2_PLACEMENT_3D('',#866,#867,#868);
#866 = CARTESIAN_POINT('',(370.7,-20.,1.235871120486E+03));
#867 = DIRECTION('',(0.,1.,0.));
#868 = DIRECTION('',(0.,-0.,1.));
#869 = DEFINITIONAL_REPRESENTATION('',(#870),#874);
#870 = CIRCLE('',#871,28.1);
#871 = AXIS2_PLACEMENT_2D('',#872,#873);
#872 = CARTESIAN_POINT('',(0.,0.));
#873 = DIRECTION('',(1.,0.));
#874 = ( GEOMETRIC_REPRESENTATION_CONTEXT(2) 
PARAMETRIC_REPRESENTATION_CONTEXT() REPRESENTATION_CONTEXT('2D SPACE',''
  ) );
#875 = ORIENTED_EDGE('',*,*,#826,.T.);
#876 = FACE_BOUND('',#877,.T.);
#877 = EDGE_LOOP('',(#878));
#878 = ORIENTED_EDGE('',*,*,#879,.F.);
#879 = EDGE_CURVE('',#880,#880,#882,.T.);
#880 = VERTEX_POINT('',#881);
#881 = CARTESIAN_POINT('',(398.07311637355,1.555301434917E-15,
    1.242221120486E+03));
#882 = SURFACE_CURVE('',#883,(#956,#1032),.PCURVE_S1.);
#883 = B_SPLINE_CURVE_WITH_KNOTS('',8,(#884,#885,#886,#887,#888,#889,
    #890,#891,#892,#893,#894,#895,#896,#897,#898,#899,#900,#901,#902,
    #903,#904,#905,#906,#907,#908,#909,#910,#911,#912,#913,#914,#915,
    #916,#917,#918,#919,#920,#921,#922,#923,#924,#925,#926,#927,#928,
    #929,#930,#931,#932,#933,#934,#935,#936,#937,#938,#939,#940,#941,
    #942,#943,#944,#945,#946,#947,#948,#949,#950,#951,#952,#953,#954,
    #955),.UNSPECIFIED.,.T.,.F.,(9,7,7,7,7,7,7,7,7,7,9),(0.,
    0.106655570035,0.205785974725,0.294245303201,0.393375707891,
    0.500030809294,0.606686109695,0.705816262934,0.794275367028,
    0.889181421787,1.),.UNSPECIFIED.);
#884 = CARTESIAN_POINT('',(398.07311637355,8.881784197001E-16,
    1.242221120486E+03));
#885 = CARTESIAN_POINT('',(398.07311637355,-0.459518737646,
    1.242221120486E+03));
#886 = CARTESIAN_POINT('',(398.08193257975,-0.918754928912,
    1.242183117419E+03));
#887 = CARTESIAN_POINT('',(398.09954544344,-1.37588718106,
    1.242107190036E+03));
#888 = CARTESIAN_POINT('',(398.12572487821,-1.829012140752,
    1.241992997514E+03));
#889 = CARTESIAN_POINT('',(398.16001678343,-2.276018482938,
    1.241839821228E+03));
#890 = CARTESIAN_POINT('',(398.20170351692,-2.714420721224,
    1.241646610781E+03));
#891 = CARTESIAN_POINT('',(398.24973831686,-3.141152839727,
    1.241412034285E+03));
#892 = CARTESIAN_POINT('',(398.35183554564,-3.934480316321,
    1.240876610832E+03));
#893 = CARTESIAN_POINT('',(398.4054171306,-4.304620472399,
    1.240580645145E+03));
#894 = CARTESIAN_POINT('',(398.46220288785,-4.658855506769,
    1.240245288748E+03));
#895 = CARTESIAN_POINT('',(398.52059285456,-4.992573582364,
    1.239869386771E+03));
#896 = CARTESIAN_POINT('',(398.57854856911,-5.300367018281,
    1.239452091912E+03));
#897 = CARTESIAN_POINT('',(398.63355864751,-5.57591460512,
    1.238993045583E+03));
#898 = CARTESIAN_POINT('',(398.6826898719,-5.811793427773,
    1.23849265541E+03));
#899 = CARTESIAN_POINT('',(398.75861066165,-6.166426548775,
    1.237470489981E+03));
#900 = CARTESIAN_POINT('',(398.78727531764,-6.295238542102,
    1.236956286345E+03));
#901 = CARTESIAN_POINT('',(398.80590927833,-6.376225525386,
    1.236419525413E+03));
#902 = CARTESIAN_POINT('',(398.81239075922,-6.403830919748,
    1.235871120486E+03));
#903 = CARTESIAN_POINT('',(398.80590927833,-6.376225525386,
    1.235322715558E+03));
#904 = CARTESIAN_POINT('',(398.78727531764,-6.295238542102,
    1.234785954626E+03));
#905 = CARTESIAN_POINT('',(398.75861066165,-6.166426548775,
    1.23427175099E+03));
#906 = CARTESIAN_POINT('',(398.6826898719,-5.811793427773,
    1.233249585561E+03));
#907 = CARTESIAN_POINT('',(398.63355864751,-5.575914605119,
    1.232749195388E+03));
#908 = CARTESIAN_POINT('',(398.57854856911,-5.300367018282,
    1.23229014906E+03));
#909 = CARTESIAN_POINT('',(398.52059285456,-4.992573582364,
    1.231872854201E+03));
#910 = CARTESIAN_POINT('',(398.46220288785,-4.658855506768,
    1.231496952223E+03));
#911 = CARTESIAN_POINT('',(398.4054171306,-4.304620472399,
    1.231161595827E+03));
#912 = CARTESIAN_POINT('',(398.35183554564,-3.934480316321,
    1.23086563014E+03));
#913 = CARTESIAN_POINT('',(398.24973854936,-3.141154646359,
    1.230330207906E+03));
#914 = CARTESIAN_POINT('',(398.20170358043,-2.714421724244,
    1.230095630399E+03));
#915 = CARTESIAN_POINT('',(398.16001664352,-2.27601759232,
    1.229902419032E+03));
#916 = CARTESIAN_POINT('',(398.12572467329,-1.82900970248,
    1.22974924257E+03));
#917 = CARTESIAN_POINT('',(398.09954531183,-1.375884349792,
    1.229635050398E+03));
#918 = CARTESIAN_POINT('',(398.08193255192,-0.918752847914,
    1.229559123413E+03));
#919 = CARTESIAN_POINT('',(398.07311637355,-0.459517876416,
    1.229521120486E+03));
#920 = CARTESIAN_POINT('',(398.07311637355,0.45951873379,
    1.229521120486E+03));
#921 = CARTESIAN_POINT('',(398.08193258004,0.918754935407,
    1.229559123554E+03));
#922 = CARTESIAN_POINT('',(398.09954544323,1.375887181201,
    1.229635050934E+03));
#923 = CARTESIAN_POINT('',(398.12572487784,1.829012134747,
    1.229749243455E+03));
#924 = CARTESIAN_POINT('',(398.16001678363,2.276018482747,
    1.229902419744E+03));
#925 = CARTESIAN_POINT('',(398.20170351743,2.714420727546,
    1.230095630193E+03));
#926 = CARTESIAN_POINT('',(398.24973831641,3.141152836243,
    1.230330206684E+03));
#927 = CARTESIAN_POINT('',(398.35183554564,3.934480316321,
    1.23086563014E+03));
#928 = CARTESIAN_POINT('',(398.4054171306,4.3046204724,
    1.231161595827E+03));
#929 = CARTESIAN_POINT('',(398.46220288785,4.658855506768,
    1.231496952223E+03));
#930 = CARTESIAN_POINT('',(398.52059285456,4.992573582363,
    1.231872854201E+03));
#931 = CARTESIAN_POINT('',(398.57854856911,5.300367018282,
    1.23229014906E+03));
#932 = CARTESIAN_POINT('',(398.63355864751,5.575914605119,
    1.232749195388E+03));
#933 = CARTESIAN_POINT('',(398.6826898719,5.811793427773,
    1.233249585561E+03));
#934 = CARTESIAN_POINT('',(398.75861066165,6.166426548776,
    1.23427175099E+03));
#935 = CARTESIAN_POINT('',(398.78727531764,6.295238542101,
    1.234785954626E+03));
#936 = CARTESIAN_POINT('',(398.80590927833,6.376225525388,
    1.235322715558E+03));
#937 = CARTESIAN_POINT('',(398.81239075922,6.403830919746,
    1.235871120486E+03));
#938 = CARTESIAN_POINT('',(398.80590927833,6.376225525388,
    1.236419525413E+03));
#939 = CARTESIAN_POINT('',(398.78727531764,6.2952385421,
    1.236956286345E+03));
#940 = CARTESIAN_POINT('',(398.75861066165,6.166426548776,
    1.237470489981E+03));
#941 = CARTESIAN_POINT('',(398.68439944151,5.819778987547,
    1.238469638488E+03));
#942 = CARTESIAN_POINT('',(398.63771950424,5.595882387826,
    1.238950462273E+03));
#943 = CARTESIAN_POINT('',(398.5855140859,5.335209385755,
    1.239393513591E+03));
#944 = CARTESIAN_POINT('',(398.53037039841,5.044335516602,
    1.239798324435E+03));
#945 = CARTESIAN_POINT('',(398.47453489567,4.728931151548,
    1.240165095627E+03));
#946 = CARTESIAN_POINT('',(398.41986175907,4.393910632701,
    1.240494474632E+03));
#947 = CARTESIAN_POINT('',(398.36782992726,4.043525981457,
    1.240787409661E+03));
#948 = CARTESIAN_POINT('',(398.26320769572,3.258606407782,
    1.24134590511E+03));
#949 = CARTESIAN_POINT('',(398.21173864733,2.817952916674,
    1.241599963836E+03));
#950 = CARTESIAN_POINT('',(398.16690135629,2.364042168807,
    1.241809022323E+03));
#951 = CARTESIAN_POINT('',(398.12993296636,1.900428038304,
    1.241974632641E+03));
#952 = CARTESIAN_POINT('',(398.10167131602,1.429951631345,
    1.242098027836E+03));
#953 = CARTESIAN_POINT('',(398.08264253765,0.954992598663,
    1.242180055821E+03));
#954 = CARTESIAN_POINT('',(398.07311637355,0.47766943386,
    1.242221120486E+03));
#955 = CARTESIAN_POINT('',(398.07311637355,8.881784197001E-16,
    1.242221120486E+03));
#956 = PCURVE('',#690,#957);
#957 = DEFINITIONAL_REPRESENTATION('',(#958),#1031);
#958 = B_SPLINE_CURVE_WITH_KNOTS('',8,(#959,#960,#961,#962,#963,#964,
    #965,#966,#967,#968,#969,#970,#971,#972,#973,#974,#975,#976,#977,
    #978,#979,#980,#981,#982,#983,#984,#985,#986,#987,#988,#989,#990,
    #991,#992,#993,#994,#995,#996,#997,#998,#999,#1000,#1001,#1002,#1003
    ,#1004,#1005,#1006,#1007,#1008,#1009,#1010,#1011,#1012,#1013,#1014,
    #1015,#1016,#1017,#1018,#1019,#1020,#1021,#1022,#1023,#1024,#1025,
    #1026,#1027,#1028,#1029,#1030),.UNSPECIFIED.,.F.,.F.,(9,7,7,7,7,7,7,
    7,7,7,9),(0.,0.106655570035,0.205785974725,0.294245303201,
    0.393375707891,0.500030809294,0.606686109695,0.705816262934,
    0.794275367028,0.889181421787,1.),.UNSPECIFIED.);
#959 = CARTESIAN_POINT('',(1.34284877215,20.));
#960 = CARTESIAN_POINT('',(1.34284877215,19.540481262354));
#961 = CARTESIAN_POINT('',(1.344237116433,19.081245071088));
#962 = CARTESIAN_POINT('',(1.347010888356,18.62411281894));
#963 = CARTESIAN_POINT('',(1.351180097817,18.170987859248));
#964 = CARTESIAN_POINT('',(1.356765994374,17.723981517062));
#965 = CARTESIAN_POINT('',(1.363799517646,17.285579278776));
#966 = CARTESIAN_POINT('',(1.372319884998,16.858847160273));
#967 = CARTESIAN_POINT('',(1.391717420439,16.065519683679));
#968 = CARTESIAN_POINT('',(1.402420760018,15.695379527601));
#969 = CARTESIAN_POINT('',(1.414523672043,15.341144493231));
#970 = CARTESIAN_POINT('',(1.428058697468,15.007426417636));
#971 = CARTESIAN_POINT('',(1.443047124885,14.699632981719));
#972 = CARTESIAN_POINT('',(1.459494355181,14.42408539488));
#973 = CARTESIAN_POINT('',(1.477382421083,14.188206572227));
#974 = CARTESIAN_POINT('',(1.51385861466,13.833573451225));
#975 = CARTESIAN_POINT('',(1.532182965154,13.704761457898));
#976 = CARTESIAN_POINT('',(1.551289195149,13.623774474614));
#977 = CARTESIAN_POINT('',(1.570796326795,13.596169080252));
#978 = CARTESIAN_POINT('',(1.59030345844,13.623774474614));
#979 = CARTESIAN_POINT('',(1.609409688435,13.704761457898));
#980 = CARTESIAN_POINT('',(1.62773403893,13.833573451225));
#981 = CARTESIAN_POINT('',(1.664210232507,14.188206572227));
#982 = CARTESIAN_POINT('',(1.682098298409,14.424085394881));
#983 = CARTESIAN_POINT('',(1.698545528704,14.699632981718));
#984 = CARTESIAN_POINT('',(1.713533956122,15.007426417636));
#985 = CARTESIAN_POINT('',(1.727068981547,15.341144493231));
#986 = CARTESIAN_POINT('',(1.739171893572,15.695379527601));
#987 = CARTESIAN_POINT('',(1.749875233151,16.065519683679));
#988 = CARTESIAN_POINT('',(1.769272724418,16.858845353641));
#989 = CARTESIAN_POINT('',(1.777793128215,17.285578275756));
#990 = CARTESIAN_POINT('',(1.78482668502,17.72398240768));
#991 = CARTESIAN_POINT('',(1.790412588171,18.17099029752));
#992 = CARTESIAN_POINT('',(1.794581784914,18.624115650208));
#993 = CARTESIAN_POINT('',(1.797355542236,19.081247152086));
#994 = CARTESIAN_POINT('',(1.798743881439,19.540482123584));
#995 = CARTESIAN_POINT('',(1.798743881439,20.45951873379));
#996 = CARTESIAN_POINT('',(1.797355537103,20.918754935407));
#997 = CARTESIAN_POINT('',(1.794581765273,21.375887181201));
#998 = CARTESIAN_POINT('',(1.790412555842,21.829012134747));
#999 = CARTESIAN_POINT('',(1.784826659178,22.276018482747));
#1000 = CARTESIAN_POINT('',(1.777793135849,22.714420727546));
#1001 = CARTESIAN_POINT('',(1.769272768677,23.141152836243));
#1002 = CARTESIAN_POINT('',(1.749875233151,23.934480316321));
#1003 = CARTESIAN_POINT('',(1.739171893572,24.3046204724));
#1004 = CARTESIAN_POINT('',(1.727068981547,24.658855506768));
#1005 = CARTESIAN_POINT('',(1.713533956122,24.992573582363));
#1006 = CARTESIAN_POINT('',(1.698545528704,25.300367018283));
#1007 = CARTESIAN_POINT('',(1.682098298409,25.575914605119));
#1008 = CARTESIAN_POINT('',(1.664210232507,25.811793427773));
#1009 = CARTESIAN_POINT('',(1.62773403893,26.166426548776));
#1010 = CARTESIAN_POINT('',(1.609409688435,26.295238542101));
#1011 = CARTESIAN_POINT('',(1.59030345844,26.376225525388));
#1012 = CARTESIAN_POINT('',(1.570796326795,26.403830919746));
#1013 = CARTESIAN_POINT('',(1.55128919515,26.376225525388));
#1014 = CARTESIAN_POINT('',(1.532182965154,26.2952385421));
#1015 = CARTESIAN_POINT('',(1.51385861466,26.166426548776));
#1016 = CARTESIAN_POINT('',(1.478203784928,25.819778987547));
#1017 = CARTESIAN_POINT('',(1.461016579238,25.595882387826));
#1018 = CARTESIAN_POINT('',(1.445145737724,25.335209385755));
#1019 = CARTESIAN_POINT('',(1.43061069592,25.044335516602));
#1020 = CARTESIAN_POINT('',(1.417410501406,24.728931151548));
#1021 = CARTESIAN_POINT('',(1.405529767504,24.393910632701));
#1022 = CARTESIAN_POINT('',(1.394942325382,24.043525981457));
#1023 = CARTESIAN_POINT('',(1.374721317251,23.258606407782));
#1024 = CARTESIAN_POINT('',(1.36549740947,22.817952916674));
#1025 = CARTESIAN_POINT('',(1.357889043343,22.364042168807));
#1026 = CARTESIAN_POINT('',(1.351850586222,21.900428038304));
#1027 = CARTESIAN_POINT('',(1.347345619427,21.429951631345));
#1028 = CARTESIAN_POINT('',(1.344348953653,20.954992598663));
#1029 = CARTESIAN_POINT('',(1.34284877215,20.47766943386));
#1030 = CARTESIAN_POINT('',(1.34284877215,20.));
#1031 = ( GEOMETRIC_REPRESENTATION_CONTEXT(2) 
PARAMETRIC_REPRESENTATION_CONTEXT() REPRESENTATION_CONTEXT('2D SPACE',''
  ) );
#1032 = PCURVE('',#1033,#1038);
#1033 = CYLINDRICAL_SURFACE('',#1034,6.35);
#1034 = AXIS2_PLACEMENT_3D('',#1035,#1036,#1037);
#1035 = CARTESIAN_POINT('',(394.5,0.,1.235871120486E+03));
#1036 = DIRECTION('',(1.,0.,0.));
#1037 = DIRECTION('',(-0.,0.,1.));
#1038 = DEFINITIONAL_REPRESENTATION('',(#1039),#1112);
#1039 = B_SPLINE_CURVE_WITH_KNOTS('',8,(#1040,#1041,#1042,#1043,#1044,
    #1045,#1046,#1047,#1048,#1049,#1050,#1051,#1052,#1053,#1054,#1055,
    #1056,#1057,#1058,#1059,#1060,#1061,#1062,#1063,#1064,#1065,#1066,
    #1067,#1068,#1069,#1070,#1071,#1072,#1073,#1074,#1075,#1076,#1077,
    #1078,#1079,#1080,#1081,#1082,#1083,#1084,#1085,#1086,#1087,#1088,
    #1089,#1090,#1091,#1092,#1093,#1094,#1095,#1096,#1097,#1098,#1099,
    #1100,#1101,#1102,#1103,#1104,#1105,#1106,#1107,#1108,#1109,#1110,
    #1111),.UNSPECIFIED.,.F.,.F.,(9,7,7,7,7,7,7,7,7,7,9),(0.,
    0.106655570035,0.205785974725,0.294245303201,0.393375707891,
    0.500030809294,0.606686109695,0.705816262934,0.794275367028,
    0.889181421787,1.),.UNSPECIFIED.);
#1040 = CARTESIAN_POINT('',(0.,3.573116373552));
#1041 = CARTESIAN_POINT('',(7.236515553476E-02,3.573116373552));
#1042 = CARTESIAN_POINT('',(0.144686253387,3.581932579751));
#1043 = CARTESIAN_POINT('',(0.217251937706,3.599545443443));
#1044 = CARTESIAN_POINT('',(0.290340206794,3.625724878219));
#1045 = CARTESIAN_POINT('',(0.364227354672,3.660016783438));
#1046 = CARTESIAN_POINT('',(0.439199754816,3.701703516921));
#1047 = CARTESIAN_POINT('',(0.515568486061,3.749738316863));
#1048 = CARTESIAN_POINT('',(0.66629341784,3.851835545648));
#1049 = CARTESIAN_POINT('',(0.740682672911,3.905417130603));
#1050 = CARTESIAN_POINT('',(0.817049858442,3.962202887854));
#1051 = CARTESIAN_POINT('',(0.895596560796,4.020592854567));
#1052 = CARTESIAN_POINT('',(0.97655333061,4.078548569117));
#1053 = CARTESIAN_POINT('',(1.060185479908,4.133558647519));
#1054 = CARTESIAN_POINT('',(1.146809488385,4.182689871908));
#1055 = CARTESIAN_POINT('',(1.317193205587,4.258610661658));
#1056 = CARTESIAN_POINT('',(1.400345715413,4.287275317642));
#1057 = CARTESIAN_POINT('',(1.48517570944,4.305909278332));
#1058 = CARTESIAN_POINT('',(1.570796326796,4.312390759227));
#1059 = CARTESIAN_POINT('',(1.656416944148,4.305909278332));
#1060 = CARTESIAN_POINT('',(1.741246938177,4.287275317643));
#1061 = CARTESIAN_POINT('',(1.824399448003,4.258610661658));
#1062 = CARTESIAN_POINT('',(1.994783165205,4.182689871908));
#1063 = CARTESIAN_POINT('',(2.081407173682,4.133558647518));
#1064 = CARTESIAN_POINT('',(2.165039322979,4.078548569117));
#1065 = CARTESIAN_POINT('',(2.245996092794,4.020592854567));
#1066 = CARTESIAN_POINT('',(2.324542795148,3.962202887854));
#1067 = CARTESIAN_POINT('',(2.400909980679,3.905417130603));
#1068 = CARTESIAN_POINT('',(2.47529923575,3.851835545648));
#1069 = CARTESIAN_POINT('',(2.626023824285,3.749738549367));
#1070 = CARTESIAN_POINT('',(2.702392747898,3.701703580433));
#1071 = CARTESIAN_POINT('',(2.777365471114,3.660016643522));
#1072 = CARTESIAN_POINT('',(2.851252847142,3.625724673296));
#1073 = CARTESIAN_POINT('',(2.924341162957,3.599545311834));
#1074 = CARTESIAN_POINT('',(2.996906729434,3.581932551926));
#1075 = CARTESIAN_POINT('',(3.069227633682,3.573116373552));
#1076 = CARTESIAN_POINT('',(3.213957808517,3.573116373552));
#1077 = CARTESIAN_POINT('',(3.286278908062,3.581932580045));
#1078 = CARTESIAN_POINT('',(3.358844591269,3.599545443235));
#1079 = CARTESIAN_POINT('',(3.431932859357,3.625724877841));
#1080 = CARTESIAN_POINT('',(3.505820008284,3.660016783638));
#1081 = CARTESIAN_POINT('',(3.580792409517,3.70170351743));
#1082 = CARTESIAN_POINT('',(3.657161138989,3.749738316414));
#1083 = CARTESIAN_POINT('',(3.80788607143,3.851835545648));
#1084 = CARTESIAN_POINT('',(3.882275326501,3.905417130603));
#1085 = CARTESIAN_POINT('',(3.958642512031,3.962202887854));
#1086 = CARTESIAN_POINT('',(4.037189214385,4.020592854567));
#1087 = CARTESIAN_POINT('',(4.118145984201,4.078548569117));
#1088 = CARTESIAN_POINT('',(4.201778133498,4.133558647518));
#1089 = CARTESIAN_POINT('',(4.288402141974,4.182689871908));
#1090 = CARTESIAN_POINT('',(4.458785859177,4.258610661658));
#1091 = CARTESIAN_POINT('',(4.541938369003,4.287275317642));
#1092 = CARTESIAN_POINT('',(4.626768363031,4.305909278333));
#1093 = CARTESIAN_POINT('',(4.712388980384,4.312390759227));
#1094 = CARTESIAN_POINT('',(4.798009597739,4.305909278333));
#1095 = CARTESIAN_POINT('',(4.882839591767,4.287275317642));
#1096 = CARTESIAN_POINT('',(4.965992101593,4.258610661658));
#1097 = CARTESIAN_POINT('',(5.132539151328,4.184399441513));
#1098 = CARTESIAN_POINT('',(5.215633534691,4.137719504245));
#1099 = CARTESIAN_POINT('',(5.29598206333,4.085514085905));
#1100 = CARTESIAN_POINT('',(5.373857877582,4.030370398415));
#1101 = CARTESIAN_POINT('',(5.449488933819,3.974534895675));
#1102 = CARTESIAN_POINT('',(5.52307154203,3.919861759076));
#1103 = CARTESIAN_POINT('',(5.594775486275,3.867829927264));
#1104 = CARTESIAN_POINT('',(5.746481914712,3.763207695728));
#1105 = CARTESIAN_POINT('',(5.82621933809,3.711738647332));
#1106 = CARTESIAN_POINT('',(5.904380786149,3.666901356297));
#1107 = CARTESIAN_POINT('',(5.981314820795,3.62993296636));
#1108 = CARTESIAN_POINT('',(6.057347339978,3.601671316026));
#1109 = CARTESIAN_POINT('',(6.132792813903,3.582642537655));
#1110 = CARTESIAN_POINT('',(6.207961774288,3.573116373552));
#1111 = CARTESIAN_POINT('',(6.28318530718,3.573116373552));
#1112 = ( GEOMETRIC_REPRESENTATION_CONTEXT(2) 
PARAMETRIC_REPRESENTATION_CONTEXT() REPRESENTATION_CONTEXT('2D SPACE',''
  ) );
#1113 = FACE_BOUND('',#1114,.T.);
#1114 = EDGE_LOOP('',(#1115));
#1115 = ORIENTED_EDGE('',*,*,#536,.T.);
#1116 = ADVANCED_FACE('',(#1117),#814,.T.);
#1117 = FACE_BOUND('',#1118,.T.);
#1118 = EDGE_LOOP('',(#1119));
#1119 = ORIENTED_EDGE('',*,*,#797,.T.);
#1120 = ADVANCED_FACE('',(#1121),#864,.F.);
#1121 = FACE_BOUND('',#1122,.T.);
#1122 = EDGE_LOOP('',(#1123));
#1123 = ORIENTED_EDGE('',*,*,#849,.F.);
#1124 = ADVANCED_FACE('',(#1125),#1033,.T.);
#1125 = FACE_BOUND('',#1126,.T.);
#1126 = EDGE_LOOP('',(#1127,#1150,#1177,#1178));
#1127 = ORIENTED_EDGE('',*,*,#1128,.T.);
#1128 = EDGE_CURVE('',#880,#1129,#1131,.T.);
#1129 = VERTEX_POINT('',#1130);
#1130 = CARTESIAN_POINT('',(407.4,1.555301434917E-15,1.242221120486E+03)
  );
#1131 = SEAM_CURVE('',#1132,(#1136,#1143),.PCURVE_S1.);
#1132 = LINE('',#1133,#1134);
#1133 = CARTESIAN_POINT('',(394.5,1.555301434917E-15,1.242221120486E+03)
  );
#1134 = VECTOR('',#1135,1.);
#1135 = DIRECTION('',(1.,0.,0.));
#1136 = PCURVE('',#1033,#1137);
#1137 = DEFINITIONAL_REPRESENTATION('',(#1138),#1142);
#1138 = LINE('',#1139,#1140);
#1139 = CARTESIAN_POINT('',(6.28318530718,-0.));
#1140 = VECTOR('',#1141,1.);
#1141 = DIRECTION('',(0.,1.));
#1142 = ( GEOMETRIC_REPRESENTATION_CONTEXT(2) 
PARAMETRIC_REPRESENTATION_CONTEXT() REPRESENTATION_CONTEXT('2D SPACE',''
  ) );
#1143 = PCURVE('',#1033,#1144);
#1144 = DEFINITIONAL_REPRESENTATION('',(#1145),#1149);
#1145 = LINE('',#1146,#1147);
#1146 = CARTESIAN_POINT('',(0.,-0.));
#1147 = VECTOR('',#1148,1.);
#1148 = DIRECTION('',(0.,1.));
#1149 = ( GEOMETRIC_REPRESENTATION_CONTEXT(2) 
PARAMETRIC_REPRESENTATION_CONTEXT() REPRESENTATION_CONTEXT('2D SPACE',''
  ) );
#1150 = ORIENTED_EDGE('',*,*,#1151,.F.);
#1151 = EDGE_CURVE('',#1129,#1129,#1152,.T.);
#1152 = SURFACE_CURVE('',#1153,(#1158,#1165),.PCURVE_S1.);
#1153 = CIRCLE('',#1154,6.35);
#1154 = AXIS2_PLACEMENT_3D('',#1155,#1156,#1157);
#1155 = CARTESIAN_POINT('',(407.4,0.,1.235871120486E+03));
#1156 = DIRECTION('',(1.,0.,0.));
#1157 = DIRECTION('',(-0.,0.,1.));
#1158 = PCURVE('',#1033,#1159);
#1159 = DEFINITIONAL_REPRESENTATION('',(#1160),#1164);
#1160 = LINE('',#1161,#1162);
#1161 = CARTESIAN_POINT('',(0.,12.9));
#1162 = VECTOR('',#1163,1.);
#1163 = DIRECTION('',(1.,0.));
#1164 = ( GEOMETRIC_REPRESENTATION_CONTEXT(2) 
PARAMETRIC_REPRESENTATION_CONTEXT() REPRESENTATION_CONTEXT('2D SPACE',''
  ) );
#1165 = PCURVE('',#1166,#1171);
#1166 = PLANE('',#1167);
#1167 = AXIS2_PLACEMENT_3D('',#1168,#1169,#1170);
#1168 = CARTESIAN_POINT('',(407.4,0.,1.235871120486E+03));
#1169 = DIRECTION('',(1.,0.,0.));
#1170 = DIRECTION('',(-0.,0.,1.));
#1171 = DEFINITIONAL_REPRESENTATION('',(#1172),#1176);
#1172 = CIRCLE('',#1173,6.35);
#1173 = AXIS2_PLACEMENT_2D('',#1174,#1175);
#1174 = CARTESIAN_POINT('',(0.,0.));
#1175 = DIRECTION('',(1.,0.));
#1176 = ( GEOMETRIC_REPRESENTATION_CONTEXT(2) 
PARAMETRIC_REPRESENTATION_CONTEXT() REPRESENTATION_CONTEXT('2D SPACE',''
  ) );
#1177 = ORIENTED_EDGE('',*,*,#1128,.F.);
#1178 = ORIENTED_EDGE('',*,*,#879,.T.);
#1179 = ADVANCED_FACE('',(#1180),#1166,.T.);
#1180 = FACE_BOUND('',#1181,.T.);
#1181 = EDGE_LOOP('',(#1182));
#1182 = ORIENTED_EDGE('',*,*,#1151,.T.);
#1183 = ( GEOMETRIC_REPRESENTATION_CONTEXT(3) 
GLOBAL_UNCERTAINTY_ASSIGNED_CONTEXT((#1187)) 
GLOBAL_UNIT_ASSIGNED_CONTEXT((#1184,#1185,#1186)) REPRESENTATION_CONTEXT
('Context #1','3D Context with UNIT and UNCERTAINTY') );
#1184 = ( LENGTH_UNIT() NAMED_UNIT(*) SI_UNIT(.MILLI.,.METRE.) );
#1185 = ( NAMED_UNIT(*) PLANE_ANGLE_UNIT() SI_UNIT($,.RADIAN.) );
#1186 = ( NAMED_UNIT(*) SI_UNIT($,.STERADIAN.) SOLID_ANGLE_UNIT() );
#1187 = UNCERTAINTY_MEASURE_WITH_UNIT(LENGTH_MEASURE(1.E-07),#1184,
  'distance_accuracy_value','confusion accuracy');
#1188 = PRODUCT_RELATED_PRODUCT_CATEGORY('part',$,(#7));
ENDSEC;
END-ISO-10303-21;
