ISO-10303-21;
HEADER;
FILE_DESCRIPTION(('Open CASCADE Model'),'2;1');
FILE_NAME('Open CASCADE Shape Model','2026-09-23T09:25:03',('Author'),(
    'Open CASCADE'),'Open CASCADE STEP processor 7.9','Open CASCADE 7.9'
  ,'Unknown');
FILE_SCHEMA(('AUTOMOTIVE_DESIGN { 1 0 10303 214 1 1 1 1 }'));
ENDSEC;
DATA;
#1 = APPLICATION_PROTOCOL_DEFINITION('international standard',
  'automotive_design',2000,#2);
#2 = APPLICATION_CONTEXT(
  'core data for automotive mechanical design processes');
#3 = SHAPE_DEFINITION_REPRESENTATION(#4,#10);
#4 = PRODUCT_DEFINITION_SHAPE('','',#5);
#5 = PRODUCT_DEFINITION('design','',#6,#9);
#6 = PRODUCT_DEFINITION_FORMATION('','',#7);
#7 = PRODUCT('Open CASCADE STEP translator 7.9 11',
  'Open CASCADE STEP translator 7.9 11','',(#8));
#8 = PRODUCT_CONTEXT('',#2,'mechanical');
#9 = PRODUCT_DEFINITION_CONTEXT('part definition',#2,'design');
#10 = ADVANCED_BREP_SHAPE_REPRESENTATION('',(#11,#15),#478);
#11 = AXIS2_PLACEMENT_3D('',#12,#13,#14);
#12 = CARTESIAN_POINT('',(0.,0.,0.));
#13 = DIRECTION('',(0.,0.,1.));
#14 = DIRECTION('',(1.,0.,-0.));
#15 = MANIFOLD_SOLID_BREP('',#16);
#16 = CLOSED_SHELL('',(#17,#321,#356,#360,#415,#470,#474));
#17 = ADVANCED_FACE('',(#18,#105),#32,.T.);
#18 = FACE_BOUND('',#19,.T.);
#19 = EDGE_LOOP('',(#20,#50,#77,#78));
#20 = ORIENTED_EDGE('',*,*,#21,.T.);
#21 = EDGE_CURVE('',#22,#24,#26,.T.);
#22 = VERTEX_POINT('',#23);
#23 = CARTESIAN_POINT('',(349.2,-9.,1.302687754297E+03));
#24 = VERTEX_POINT('',#25);
#25 = CARTESIAN_POINT('',(349.2,9.,1.302687754297E+03));
#26 = SEAM_CURVE('',#27,(#31,#43),.PCURVE_S1.);
#27 = LINE('',#28,#29);
#28 = CARTESIAN_POINT('',(349.2,-9.,1.302687754297E+03));
#29 = VECTOR('',#30,1.);
#30 = DIRECTION('',(0.,1.,0.));
#31 = PCURVE('',#32,#37);
#32 = CYLINDRICAL_SURFACE('',#33,14.8);
#33 = AXIS2_PLACEMENT_3D('',#34,#35,#36);
#34 = CARTESIAN_POINT('',(349.2,-9.,1.287887754297E+03));
#35 = DIRECTION('',(0.,1.,0.));
#36 = DIRECTION('',(0.,-0.,1.));
#37 = DEFINITIONAL_REPRESENTATION('',(#38),#42);
#38 = LINE('',#39,#40);
#39 = CARTESIAN_POINT('',(6.28318530718,-0.));
#40 = VECTOR('',#41,1.);
#41 = DIRECTION('',(0.,1.));
#42 = ( GEOMETRIC_REPRESENTATION_CONTEXT(2) 
PARAMETRIC_REPRESENTATION_CONTEXT() REPRESENTATION_CONTEXT('2D SPACE',''
  ) );
#43 = PCURVE('',#32,#44);
#44 = DEFINITIONAL_REPRESENTATION('',(#45),#49);
#45 = LINE('',#46,#47);
#46 = CARTESIAN_POINT('',(0.,-0.));
#47 = VECTOR('',#48,1.);
#48 = DIRECTION('',(0.,1.));
#49 = ( GEOMETRIC_REPRESENTATION_CONTEXT(2) 
PARAMETRIC_REPRESENTATION_CONTEXT() REPRESENTATION_CONTEXT('2D SPACE',''
  ) );
#50 = ORIENTED_EDGE('',*,*,#51,.F.);
#51 = EDGE_CURVE('',#24,#24,#52,.T.);
#52 = SURFACE_CURVE('',#53,(#58,#65),.PCURVE_S1.);
#53 = CIRCLE('',#54,14.8);
#54 = AXIS2_PLACEMENT_3D('',#55,#56,#57);
#55 = CARTESIAN_POINT('',(349.2,9.,1.287887754297E+03));
#56 = DIRECTION('',(0.,1.,0.));
#57 = DIRECTION('',(0.,-0.,1.));
#58 = PCURVE('',#32,#59);
#59 = DEFINITIONAL_REPRESENTATION('',(#60),#64);
#60 = LINE('',#61,#62);
#61 = CARTESIAN_POINT('',(0.,18.));
#62 = VECTOR('',#63,1.);
#63 = DIRECTION('',(1.,0.));
#64 = ( GEOMETRIC_REPRESENTATION_CONTEXT(2) 
PARAMETRIC_REPRESENTATION_CONTEXT() REPRESENTATION_CONTEXT('2D SPACE',''
  ) );
#65 = PCURVE('',#66,#71);
#66 = PLANE('',#67);
#67 = AXIS2_PLACEMENT_3D('',#68,#69,#70);
#68 = CARTESIAN_POINT('',(349.2,9.,1.287887754297E+03));
#69 = DIRECTION('',(0.,1.,0.));
#70 = DIRECTION('',(0.,-0.,1.));
#71 = DEFINITIONAL_REPRESENTATION('',(#72),#76);
#72 = CIRCLE('',#73,14.8);
#73 = AXIS2_PLACEMENT_2D('',#74,#75);
#74 = CARTESIAN_POINT('',(0.,0.));
#75 = DIRECTION('',(1.,0.));
#76 = ( GEOMETRIC_REPRESENTATION_CONTEXT(2) 
PARAMETRIC_REPRESENTATION_CONTEXT() REPRESENTATION_CONTEXT('2D SPACE',''
  ) );
#77 = ORIENTED_EDGE('',*,*,#21,.F.);
#78 = ORIENTED_EDGE('',*,*,#79,.T.);
#79 = EDGE_CURVE('',#22,#22,#80,.T.);
#80 = SURFACE_CURVE('',#81,(#86,#93),.PCURVE_S1.);
#81 = CIRCLE('',#82,14.8);
#82 = AXIS2_PLACEMENT_3D('',#83,#84,#85);
#83 = CARTESIAN_POINT('',(349.2,-9.,1.287887754297E+03));
#84 = DIRECTION('',(0.,1.,0.));
#85 = DIRECTION('',(0.,-0.,1.));
#86 = PCURVE('',#32,#87);
#87 = DEFINITIONAL_REPRESENTATION('',(#88),#92);
#88 = LINE('',#89,#90);
#89 = CARTESIAN_POINT('',(0.,0.));
#90 = VECTOR('',#91,1.);
#91 = DIRECTION('',(1.,0.));
#92 = ( GEOMETRIC_REPRESENTATION_CONTEXT(2) 
PARAMETRIC_REPRESENTATION_CONTEXT() REPRESENTATION_CONTEXT('2D SPACE',''
  ) );
#93 = PCURVE('',#94,#99);
#94 = PLANE('',#95);
#95 = AXIS2_PLACEMENT_3D('',#96,#97,#98);
#96 = CARTESIAN_POINT('',(349.2,-9.,1.287887754297E+03));
#97 = DIRECTION('',(0.,1.,0.));
#98 = DIRECTION('',(0.,-0.,1.));
#99 = DEFINITIONAL_REPRESENTATION('',(#100),#104);
#100 = CIRCLE('',#101,14.8);
#101 = AXIS2_PLACEMENT_2D('',#102,#103);
#102 = CARTESIAN_POINT('',(0.,0.));
#103 = DIRECTION('',(1.,0.));
#104 = ( GEOMETRIC_REPRESENTATION_CONTEXT(2) 
PARAMETRIC_REPRESENTATION_CONTEXT() REPRESENTATION_CONTEXT('2D SPACE',''
  ) );
#105 = FACE_BOUND('',#106,.T.);
#106 = EDGE_LOOP('',(#107));
#107 = ORIENTED_EDGE('',*,*,#108,.T.);
#108 = EDGE_CURVE('',#109,#109,#111,.T.);
#109 = VERTEX_POINT('',#110);
#110 = CARTESIAN_POINT('',(357.92761899797,-8.572527594031E-16,
    1.27593498614E+03));
#111 = SURFACE_CURVE('',#112,(#178,#247),.PCURVE_S1.);
#112 = B_SPLINE_CURVE_WITH_KNOTS('',8,(#113,#114,#115,#116,#117,#118,
    #119,#120,#121,#122,#123,#124,#125,#126,#127,#128,#129,#130,#131,
    #132,#133,#134,#135,#136,#137,#138,#139,#140,#141,#142,#143,#144,
    #145,#146,#147,#148,#149,#150,#151,#152,#153,#154,#155,#156,#157,
    #158,#159,#160,#161,#162,#163,#164,#165,#166,#167,#168,#169,#170,
    #171,#172,#173,#174,#175,#176,#177),.UNSPECIFIED.,.T.,.F.,(9,7,7,7,7
    ,7,7,7,7,9),(0.,0.105559012986,0.204179334104,0.282764055393,
    0.36964740667,0.472143058359,0.587145244204,0.754892976673,
    0.860798405331,1.),.UNSPECIFIED.);
#113 = CARTESIAN_POINT('',(357.92761899797,-4.440892098501E-16,
    1.27593498614E+03));
#114 = CARTESIAN_POINT('',(357.92761899797,0.249361963722,
    1.27593498614E+03));
#115 = CARTESIAN_POINT('',(357.91074253798,0.498592567657,
    1.275922663199E+03));
#116 = CARTESIAN_POINT('',(357.87701931342,0.746684415292,
    1.275898039754E+03));
#117 = CARTESIAN_POINT('',(357.82625232062,0.99259050494,
    1.275861175237E+03));
#118 = CARTESIAN_POINT('',(357.75803373447,1.235163890544,
    1.275812179992E+03));
#119 = CARTESIAN_POINT('',(357.67175820812,1.473079033957,
    1.275751240572E+03));
#120 = CARTESIAN_POINT('',(357.56663359467,1.704734848681,
    1.275678656437E+03));
#121 = CARTESIAN_POINT('',(357.32495754207,2.136859007453,
    1.275516625968E+03));
#122 = CARTESIAN_POINT('',(357.19055859502,2.33903372173,
    1.275428355215E+03));
#123 = CARTESIAN_POINT('',(357.03766100665,2.532686599307,
    1.27533044394E+03));
#124 = CARTESIAN_POINT('',(356.86543614354,2.715491880032,
    1.275223487192E+03));
#125 = CARTESIAN_POINT('',(356.6731054717,2.884738614543,
    1.275108344019E+03));
#126 = CARTESIAN_POINT('',(356.46001345439,3.037274227505,
    1.274986183247E+03));
#127 = CARTESIAN_POINT('',(356.22575559009,3.169416453492,
    1.274858509212E+03));
#128 = CARTESIAN_POINT('',(355.76690658919,3.362407234488,
    1.274622457389E+03));
#129 = CARTESIAN_POINT('',(355.5494339353,3.432532465434,
    1.274515127973E+03));
#130 = CARTESIAN_POINT('',(355.3205927275,3.483693083814,
    1.274407444028E+03));
#131 = CARTESIAN_POINT('',(355.08348986967,3.513542002749,
    1.274301670146E+03));
#132 = CARTESIAN_POINT('',(354.84163777005,3.520858143074,
    1.274199813094E+03));
#133 = CARTESIAN_POINT('',(354.59882670919,3.505537059928,
    1.274103477936E+03));
#134 = CARTESIAN_POINT('',(354.35895160859,3.4686037576,
    1.274013809179E+03));
#135 = CARTESIAN_POINT('',(353.86801301686,3.349940367389,
    1.273840534541E+03));
#136 = CARTESIAN_POINT('',(353.62059960302,3.264412890199,
    1.273759330666E+03));
#137 = CARTESIAN_POINT('',(353.38536209808,3.158577570952,
    1.27368752195E+03));
#138 = CARTESIAN_POINT('',(353.16377122203,3.035204812364,
    1.27362449197E+03));
#139 = CARTESIAN_POINT('',(352.95697974351,2.89696454883,
    1.273569500482E+03));
#140 = CARTESIAN_POINT('',(352.76583062108,2.746454042697,
    1.273521765095E+03));
#141 = CARTESIAN_POINT('',(352.59085281745,2.586212037971,
    1.273480515365E+03));
#142 = CARTESIAN_POINT('',(352.24513605816,2.221129284363,
    1.273403144895E+03));
#143 = CARTESIAN_POINT('',(352.07941590341,2.01197789236,
    1.273368966624E+03));
#144 = CARTESIAN_POINT('',(351.93480064075,1.793800955099,
    1.273341221649E+03));
#145 = CARTESIAN_POINT('',(351.8109082712,1.568588420148,
    1.273318877208E+03));
#146 = CARTESIAN_POINT('',(351.70733919611,1.337919430802,
    1.27330111439E+03));
#147 = CARTESIAN_POINT('',(351.62374268049,1.103072746841,
    1.273287313093E+03));
#148 = CARTESIAN_POINT('',(351.55986906243,0.865112478235,
    1.273277038154E+03));
#149 = CARTESIAN_POINT('',(351.46594557818,0.355481019291,
    1.273262159648E+03));
#150 = CARTESIAN_POINT('',(351.44102885757,8.353801223717E-02,
    1.273258410149E+03));
#151 = CARTESIAN_POINT('',(351.44064172284,-0.189406808578,
    1.273258399255E+03));
#152 = CARTESIAN_POINT('',(351.46472706923,-0.461974383019,
    1.273262019006E+03));
#153 = CARTESIAN_POINT('',(351.51337134086,-0.732786823513,
    1.273269412904E+03));
#154 = CARTESIAN_POINT('',(351.58678772136,-1.000360668488,
    1.273280976064E+03));
#155 = CARTESIAN_POINT('',(351.68529768534,-1.262986237337,
    1.273297374999E+03));
#156 = CARTESIAN_POINT('',(351.99020258004,-1.891433560373,
    1.27335198665E+03));
#157 = CARTESIAN_POINT('',(352.23083269733,-2.26062716703,
    1.273397734098E+03));
#158 = CARTESIAN_POINT('',(352.53491998118,-2.611338728805,
    1.273460591219E+03));
#159 = CARTESIAN_POINT('',(352.90202244106,-2.927786727595,
    1.273545315505E+03));
#160 = CARTESIAN_POINT('',(353.32771609586,-3.193395984165,
    1.27365790923E+03));
#161 = CARTESIAN_POINT('',(353.80368597815,-3.390450385287,
    1.27380422582E+03));
#162 = CARTESIAN_POINT('',(354.31809107922,-3.5,1.27398881037E+03));
#163 = CARTESIAN_POINT('',(355.191344268,-3.5,1.274349751519E+03));
#164 = CARTESIAN_POINT('',(355.51784296038,-3.456335041567,
    1.274495876911E+03));
#165 = CARTESIAN_POINT('',(355.82761960442,-3.37239891559,
    1.274645393434E+03));
#166 = CARTESIAN_POINT('',(356.11642116899,-3.252472018459,
    1.274794717823E+03));
#167 = CARTESIAN_POINT('',(356.3810106626,-3.101724246302,
    1.274939991932E+03));
#168 = CARTESIAN_POINT('',(356.61917333911,-2.926225898225,
    1.2750775069E+03));
#169 = CARTESIAN_POINT('',(356.82974564371,-2.732954070474,
    1.275204167369E+03));
#170 = CARTESIAN_POINT('',(357.25314200806,-2.262733645387,
    1.275467325195E+03));
#171 = CARTESIAN_POINT('',(357.45276048458,-1.970916395679,
    1.275598684162E+03));
#172 = CARTESIAN_POINT('',(357.61450631978,-1.661753089607,
    1.275709804303E+03));
#173 = CARTESIAN_POINT('',(357.74108183872,-1.340456493758,
    1.275799475103E+03));
#174 = CARTESIAN_POINT('',(357.83461273166,-1.010895332693,
    1.275867074576E+03));
#175 = CARTESIAN_POINT('',(357.89655098652,-0.676051002172,
    1.275912301281E+03));
#176 = CARTESIAN_POINT('',(357.92761899797,-0.338330364304,
    1.27593498614E+03));
#177 = CARTESIAN_POINT('',(357.92761899797,-4.440892098501E-16,
    1.27593498614E+03));
#178 = PCURVE('',#32,#179);
#179 = DEFINITIONAL_REPRESENTATION('',(#180),#246);
#180 = B_SPLINE_CURVE_WITH_KNOTS('',8,(#181,#182,#183,#184,#185,#186,
    #187,#188,#189,#190,#191,#192,#193,#194,#195,#196,#197,#198,#199,
    #200,#201,#202,#203,#204,#205,#206,#207,#208,#209,#210,#211,#212,
    #213,#214,#215,#216,#217,#218,#219,#220,#221,#222,#223,#224,#225,
    #226,#227,#228,#229,#230,#231,#232,#233,#234,#235,#236,#237,#238,
    #239,#240,#241,#242,#243,#244,#245),.UNSPECIFIED.,.F.,.F.,(9,7,7,7,7
    ,7,7,7,7,9),(0.,0.105559012986,0.204179334104,0.282764055393,
    0.36964740667,0.472143058359,0.587145244204,0.754892976673,
    0.860798405331,1.),.UNSPECIFIED.);
#181 = CARTESIAN_POINT('',(2.510900388024,9.));
#182 = CARTESIAN_POINT('',(2.510900388024,9.249361963722));
#183 = CARTESIAN_POINT('',(2.512312329188,9.498592567657));
#184 = CARTESIAN_POINT('',(2.515133671934,9.746684415292));
#185 = CARTESIAN_POINT('',(2.519372836999,9.99259050494));
#186 = CARTESIAN_POINT('',(2.525047672945,10.235163890544));
#187 = CARTESIAN_POINT('',(2.532184102412,10.473079033957));
#188 = CARTESIAN_POINT('',(2.540814947148,10.704734848681));
#189 = CARTESIAN_POINT('',(2.56047480901,11.136859007453));
#190 = CARTESIAN_POINT('',(2.571338803056,11.33903372173));
#191 = CARTESIAN_POINT('',(2.583604992708,11.532686599307));
#192 = CARTESIAN_POINT('',(2.59730043933,11.715491880032));
#193 = CARTESIAN_POINT('',(2.612441979087,11.884738614543));
#194 = CARTESIAN_POINT('',(2.629032284437,12.037274227505));
#195 = CARTESIAN_POINT('',(2.647053559159,12.169416453492));
#196 = CARTESIAN_POINT('',(2.681918873746,12.362407234488));
#197 = CARTESIAN_POINT('',(2.698302869156,12.432532465434));
#198 = CARTESIAN_POINT('',(2.715386285936,12.483693083814));
#199 = CARTESIAN_POINT('',(2.732921380825,12.513542002749));
#200 = CARTESIAN_POINT('',(2.750645219588,12.520858143074));
#201 = CARTESIAN_POINT('',(2.768289370553,12.505537059928));
#202 = CARTESIAN_POINT('',(2.785589670861,12.4686037576));
#203 = CARTESIAN_POINT('',(2.82076667301,12.349940367389));
#204 = CARTESIAN_POINT('',(2.838356836626,12.264412890199));
#205 = CARTESIAN_POINT('',(2.854969603235,12.158577570952));
#206 = CARTESIAN_POINT('',(2.870530719886,12.035204812364));
#207 = CARTESIAN_POINT('',(2.884985132281,11.89696454883));
#208 = CARTESIAN_POINT('',(2.898295312712,11.746454042697));
#209 = CARTESIAN_POINT('',(2.910441417362,11.586212037971));
#210 = CARTESIAN_POINT('',(2.934378487441,11.221129284363));
#211 = CARTESIAN_POINT('',(2.945809854498,11.01197789236));
#212 = CARTESIAN_POINT('',(2.955757989432,10.793800955099));
#213 = CARTESIAN_POINT('',(2.964263423571,10.568588420148));
#214 = CARTESIAN_POINT('',(2.971363226083,10.337919430802));
#215 = CARTESIAN_POINT('',(2.977088001718,10.103072746841));
#216 = CARTESIAN_POINT('',(2.981459264526,9.865112478235));
#217 = CARTESIAN_POINT('',(2.987884578135,9.355481019291));
#218 = CARTESIAN_POINT('',(2.989587040378,9.083538012237));
#219 = CARTESIAN_POINT('',(2.989613059269,8.810593191422));
#220 = CARTESIAN_POINT('',(2.987967376938,8.538025616981));
#221 = CARTESIAN_POINT('',(2.984642807024,8.267213176487));
#222 = CARTESIAN_POINT('',(2.979621277783,7.999639331512));
#223 = CARTESIAN_POINT('',(2.972874103913,7.737013762663));
#224 = CARTESIAN_POINT('',(2.951944573808,7.108566439627));
#225 = CARTESIAN_POINT('',(2.93539551698,6.73937283297));
#226 = CARTESIAN_POINT('',(2.914419132556,6.388661271195));
#227 = CARTESIAN_POINT('',(2.888977509298,6.072213272405));
#228 = CARTESIAN_POINT('',(2.859259879862,5.806604015835));
#229 = CARTESIAN_POINT('',(2.825670702464,5.609549614713));
#230 = CARTESIAN_POINT('',(2.788785203038,5.5));
#231 = CARTESIAN_POINT('',(2.724940120958,5.5));
#232 = CARTESIAN_POINT('',(2.700780808954,5.543664958433));
#233 = CARTESIAN_POINT('',(2.67755527557,5.62760108441));
#234 = CARTESIAN_POINT('',(2.655602551523,5.747527981541));
#235 = CARTESIAN_POINT('',(2.63521761112,5.898275753698));
#236 = CARTESIAN_POINT('',(2.616640722612,6.073774101775));
#237 = CARTESIAN_POINT('',(2.600039079372,6.267045929526));
#238 = CARTESIAN_POINT('',(2.566355679667,6.737266354613));
#239 = CARTESIAN_POINT('',(2.550215031499,7.029083604321));
#240 = CARTESIAN_POINT('',(2.536958969526,7.338246910393));
#241 = CARTESIAN_POINT('',(2.526478908334,7.659543506242));
#242 = CARTESIAN_POINT('',(2.518681575277,7.989104667307));
#243 = CARTESIAN_POINT('',(2.513499606581,8.323948997828));
#244 = CARTESIAN_POINT('',(2.510900388024,8.661669635696));
#245 = CARTESIAN_POINT('',(2.510900388024,9.));
#246 = ( GEOMETRIC_REPRESENTATION_CONTEXT(2) 
PARAMETRIC_REPRESENTATION_CONTEXT() REPRESENTATION_CONTEXT('2D SPACE',''
  ) );
#247 = PCURVE('',#248,#253);
#248 = CYLINDRICAL_SURFACE('',#249,3.5);
#249 = AXIS2_PLACEMENT_3D('',#250,#251,#252);
#250 = CARTESIAN_POINT('',(359.94709942239,0.,1.261886454986E+03));
#251 = DIRECTION('',(-0.381985810927,0.,0.924168188292));
#252 = DIRECTION('',(0.924168188292,0.,0.381985810927));
#253 = DEFINITIONAL_REPRESENTATION('',(#254),#320);
#254 = B_SPLINE_CURVE_WITH_KNOTS('',8,(#255,#256,#257,#258,#259,#260,
    #261,#262,#263,#264,#265,#266,#267,#268,#269,#270,#271,#272,#273,
    #274,#275,#276,#277,#278,#279,#280,#281,#282,#283,#284,#285,#286,
    #287,#288,#289,#290,#291,#292,#293,#294,#295,#296,#297,#298,#299,
    #300,#301,#302,#303,#304,#305,#306,#307,#308,#309,#310,#311,#312,
    #313,#314,#315,#316,#317,#318,#319),.UNSPECIFIED.,.F.,.F.,(9,7,7,7,7
    ,7,7,7,7,9),(0.,0.105559012986,0.204179334104,0.282764055393,
    0.36964740667,0.472143058359,0.587145244204,0.754892976673,
    0.860798405331,1.),.UNSPECIFIED.);
#255 = CARTESIAN_POINT('',(0.,13.754618452162));
#256 = CARTESIAN_POINT('',(7.124627534928E-02,13.754618452162));
#257 = CARTESIAN_POINT('',(0.142455377983,13.749676550345));
#258 = CARTESIAN_POINT('',(0.213888939994,13.739802138817));
#259 = CARTESIAN_POINT('',(0.285799149615,13.725125396379));
#260 = CARTESIAN_POINT('',(0.358436887137,13.705904081189));
#261 = CARTESIAN_POINT('',(0.43206212263,13.682541834713));
#262 = CARTESIAN_POINT('',(0.506956575471,13.655617996946));
#263 = CARTESIAN_POINT('',(0.654893314173,13.59819141486));
#264 = CARTESIAN_POINT('',(0.727959006585,13.567952883473));
#265 = CARTESIAN_POINT('',(0.80281954084,13.535871107257));
#266 = CARTESIAN_POINT('',(0.87966504164,13.50281253707));
#267 = CARTESIAN_POINT('',(0.958709994873,13.469868467387));
#268 = CARTESIAN_POINT('',(1.040199182851,13.438369494931));
#269 = CARTESIAN_POINT('',(1.124422188475,13.409860393968));
#270 = CARTESIAN_POINT('',(1.28134926282,13.366982615739));
#271 = CARTESIAN_POINT('',(1.35311761768,13.350863651853));
#272 = CARTESIAN_POINT('',(1.426343011169,13.338759669913));
#273 = CARTESIAN_POINT('',(1.500437659214,13.331576740472));
#274 = CARTESIAN_POINT('',(1.574887190126,13.329827763736));
#275 = CARTESIAN_POINT('',(1.649195897797,13.333548255682));
#276 = CARTESIAN_POINT('',(1.72283527147,13.342308127165));
#277 = CARTESIAN_POINT('',(1.875197681476,13.369704794967));
#278 = CARTESIAN_POINT('',(1.952966987064,13.389167170827));
#279 = CARTESIAN_POINT('',(2.028672419433,13.412661229271));
#280 = CARTESIAN_POINT('',(2.102424906941,13.439055496952));
#281 = CARTESIAN_POINT('',(2.174289825127,13.467225523677));
#282 = CARTESIAN_POINT('',(2.244293794823,13.496126250017));
#283 = CARTESIAN_POINT('',(2.312426058906,13.524843600343));
#284 = CARTESIAN_POINT('',(2.456739976165,13.585399169921));
#285 = CARTESIAN_POINT('',(2.532750256428,13.617115446369));
#286 = CARTESIAN_POINT('',(2.607012415471,13.646715401816));
#287 = CARTESIAN_POINT('',(2.679829679377,13.673390506902));
#288 = CARTESIAN_POINT('',(2.751479168001,13.696536593278));
#289 = CARTESIAN_POINT('',(2.822226077783,13.715714556453));
#290 = CARTESIAN_POINT('',(2.892334242702,13.730617599915));
#291 = CARTESIAN_POINT('',(3.040321446214,13.752744796532));
#292 = CARTESIAN_POINT('',(3.118019197502,13.758797462759));
#293 = CARTESIAN_POINT('',(3.195497283238,13.758935274639));
#294 = CARTESIAN_POINT('',(3.273063997631,13.75308027253));
#295 = CARTESIAN_POINT('',(3.351018468757,13.741332057015));
#296 = CARTESIAN_POINT('',(3.429665796504,13.723974345669));
#297 = CARTESIAN_POINT('',(3.509333832795,13.701500311307));
#298 = CARTESIAN_POINT('',(3.708626377085,13.635501318653));
#299 = CARTESIAN_POINT('',(3.833399234513,13.585862364199));
#300 = CARTESIAN_POINT('',(3.964008158281,13.527795888384));
#301 = CARTESIAN_POINT('',(4.100275618466,13.465867446779));
#302 = CARTESIAN_POINT('',(4.242375439149,13.40731405039));
#303 = CARTESIAN_POINT('',(4.390922795415,13.360721446725));
#304 = CARTESIAN_POINT('',(4.546896864097,13.334813165726));
#305 = CARTESIAN_POINT('',(4.816870354034,13.334813165726));
#306 = CARTESIAN_POINT('',(4.919029559007,13.345139736747));
#307 = CARTESIAN_POINT('',(5.018881820423,13.364987869158));
#308 = CARTESIAN_POINT('',(5.116325691659,13.392670619268));
#309 = CARTESIAN_POINT('',(5.211150405575,13.42585889663));
#310 = CARTESIAN_POINT('',(5.303006572954,13.461971092895));
#311 = CARTESIAN_POINT('',(5.391347349943,13.498591035972));
#312 = CARTESIAN_POINT('',(5.58575619707,13.580061723966));
#313 = CARTESIAN_POINT('',(5.691834835163,13.625208076907));
#314 = CARTESIAN_POINT('',(5.794562383326,13.666117162009));
#315 = CARTESIAN_POINT('',(5.894713429169,13.700638010458));
#316 = CARTESIAN_POINT('',(5.992981005679,13.72738381906));
#317 = CARTESIAN_POINT('',(6.090028119336,13.745521366358));
#318 = CARTESIAN_POINT('',(6.186519488807,13.754618452162));
#319 = CARTESIAN_POINT('',(6.28318530718,13.754618452162));
#320 = ( GEOMETRIC_REPRESENTATION_CONTEXT(2) 
PARAMETRIC_REPRESENTATION_CONTEXT() REPRESENTATION_CONTEXT('2D SPACE',''
  ) );
#321 = ADVANCED_FACE('',(#322,#325),#94,.F.);
#322 = FACE_BOUND('',#323,.F.);
#323 = EDGE_LOOP('',(#324));
#324 = ORIENTED_EDGE('',*,*,#79,.T.);
#325 = FACE_BOUND('',#326,.F.);
#326 = EDGE_LOOP('',(#327));
#327 = ORIENTED_EDGE('',*,*,#328,.F.);
#328 = EDGE_CURVE('',#329,#329,#331,.T.);
#329 = VERTEX_POINT('',#330);
#330 = CARTESIAN_POINT('',(349.2,-9.,1.300187754297E+03));
#331 = SURFACE_CURVE('',#332,(#337,#344),.PCURVE_S1.);
#332 = CIRCLE('',#333,12.3);
#333 = AXIS2_PLACEMENT_3D('',#334,#335,#336);
#334 = CARTESIAN_POINT('',(349.2,-9.,1.287887754297E+03));
#335 = DIRECTION('',(0.,1.,0.));
#336 = DIRECTION('',(0.,-0.,1.));
#337 = PCURVE('',#94,#338);
#338 = DEFINITIONAL_REPRESENTATION('',(#339),#343);
#339 = CIRCLE('',#340,12.3);
#340 = AXIS2_PLACEMENT_2D('',#341,#342);
#341 = CARTESIAN_POINT('',(0.,0.));
#342 = DIRECTION('',(1.,0.));
#343 = ( GEOMETRIC_REPRESENTATION_CONTEXT(2) 
PARAMETRIC_REPRESENTATION_CONTEXT() REPRESENTATION_CONTEXT('2D SPACE',''
  ) );
#344 = PCURVE('',#345,#350);
#345 = CYLINDRICAL_SURFACE('',#346,12.3);
#346 = AXIS2_PLACEMENT_3D('',#347,#348,#349);
#347 = CARTESIAN_POINT('',(349.2,-10.,1.287887754297E+03));
#348 = DIRECTION('',(0.,1.,0.));
#349 = DIRECTION('',(0.,-0.,1.));
#350 = DEFINITIONAL_REPRESENTATION('',(#351),#355);
#351 = LINE('',#352,#353);
#352 = CARTESIAN_POINT('',(0.,1.));
#353 = VECTOR('',#354,1.);
#354 = DIRECTION('',(1.,0.));
#355 = ( GEOMETRIC_REPRESENTATION_CONTEXT(2) 
PARAMETRIC_REPRESENTATION_CONTEXT() REPRESENTATION_CONTEXT('2D SPACE',''
  ) );
#356 = ADVANCED_FACE('',(#357),#66,.T.);
#357 = FACE_BOUND('',#358,.T.);
#358 = EDGE_LOOP('',(#359));
#359 = ORIENTED_EDGE('',*,*,#51,.T.);
#360 = ADVANCED_FACE('',(#361),#248,.T.);
#361 = FACE_BOUND('',#362,.T.);
#362 = EDGE_LOOP('',(#363,#364,#387,#414));
#363 = ORIENTED_EDGE('',*,*,#108,.F.);
#364 = ORIENTED_EDGE('',*,*,#365,.F.);
#365 = EDGE_CURVE('',#366,#109,#368,.T.);
#366 = VERTEX_POINT('',#367);
#367 = CARTESIAN_POINT('',(363.18168808141,-8.572527594031E-16,
    1.263223405324E+03));
#368 = SEAM_CURVE('',#369,(#373,#380),.PCURVE_S1.);
#369 = LINE('',#370,#371);
#370 = CARTESIAN_POINT('',(363.18168808141,-8.572527594031E-16,
    1.263223405324E+03));
#371 = VECTOR('',#372,1.);
#372 = DIRECTION('',(-0.381985810927,-1.232595164408E-32,0.924168188292)
  );
#373 = PCURVE('',#248,#374);
#374 = DEFINITIONAL_REPRESENTATION('',(#375),#379);
#375 = LINE('',#376,#377);
#376 = CARTESIAN_POINT('',(6.28318530718,-0.));
#377 = VECTOR('',#378,1.);
#378 = DIRECTION('',(0.,1.));
#379 = ( GEOMETRIC_REPRESENTATION_CONTEXT(2) 
PARAMETRIC_REPRESENTATION_CONTEXT() REPRESENTATION_CONTEXT('2D SPACE',''
  ) );
#380 = PCURVE('',#248,#381);
#381 = DEFINITIONAL_REPRESENTATION('',(#382),#386);
#382 = LINE('',#383,#384);
#383 = CARTESIAN_POINT('',(0.,-0.));
#384 = VECTOR('',#385,1.);
#385 = DIRECTION('',(0.,1.));
#386 = ( GEOMETRIC_REPRESENTATION_CONTEXT(2) 
PARAMETRIC_REPRESENTATION_CONTEXT() REPRESENTATION_CONTEXT('2D SPACE',''
  ) );
#387 = ORIENTED_EDGE('',*,*,#388,.T.);
#388 = EDGE_CURVE('',#366,#366,#389,.T.);
#389 = SURFACE_CURVE('',#390,(#395,#402),.PCURVE_S1.);
#390 = CIRCLE('',#391,3.5);
#391 = AXIS2_PLACEMENT_3D('',#392,#393,#394);
#392 = CARTESIAN_POINT('',(359.94709942239,0.,1.261886454986E+03));
#393 = DIRECTION('',(-0.381985810927,0.,0.924168188292));
#394 = DIRECTION('',(0.924168188292,0.,0.381985810927));
#395 = PCURVE('',#248,#396);
#396 = DEFINITIONAL_REPRESENTATION('',(#397),#401);
#397 = LINE('',#398,#399);
#398 = CARTESIAN_POINT('',(0.,0.));
#399 = VECTOR('',#400,1.);
#400 = DIRECTION('',(1.,0.));
#401 = ( GEOMETRIC_REPRESENTATION_CONTEXT(2) 
PARAMETRIC_REPRESENTATION_CONTEXT() REPRESENTATION_CONTEXT('2D SPACE',''
  ) );
#402 = PCURVE('',#403,#408);
#403 = PLANE('',#404);
#404 = AXIS2_PLACEMENT_3D('',#405,#406,#407);
#405 = CARTESIAN_POINT('',(359.94709942239,0.,1.261886454986E+03));
#406 = DIRECTION('',(-0.381985810927,0.,0.924168188292));
#407 = DIRECTION('',(0.924168188292,0.,0.381985810927));
#408 = DEFINITIONAL_REPRESENTATION('',(#409),#413);
#409 = CIRCLE('',#410,3.5);
#410 = AXIS2_PLACEMENT_2D('',#411,#412);
#411 = CARTESIAN_POINT('',(0.,0.));
#412 = DIRECTION('',(1.,0.));
#413 = ( GEOMETRIC_REPRESENTATION_CONTEXT(2) 
PARAMETRIC_REPRESENTATION_CONTEXT() REPRESENTATION_CONTEXT('2D SPACE',''
  ) );
#414 = ORIENTED_EDGE('',*,*,#365,.T.);
#415 = ADVANCED_FACE('',(#416),#345,.T.);
#416 = FACE_BOUND('',#417,.T.);
#417 = EDGE_LOOP('',(#418,#419,#442,#469));
#418 = ORIENTED_EDGE('',*,*,#328,.F.);
#419 = ORIENTED_EDGE('',*,*,#420,.F.);
#420 = EDGE_CURVE('',#421,#329,#423,.T.);
#421 = VERTEX_POINT('',#422);
#422 = CARTESIAN_POINT('',(349.2,-10.,1.300187754297E+03));
#423 = SEAM_CURVE('',#424,(#428,#435),.PCURVE_S1.);
#424 = LINE('',#425,#426);
#425 = CARTESIAN_POINT('',(349.2,-10.,1.300187754297E+03));
#426 = VECTOR('',#427,1.);
#427 = DIRECTION('',(0.,1.,0.));
#428 = PCURVE('',#345,#429);
#429 = DEFINITIONAL_REPRESENTATION('',(#430),#434);
#430 = LINE('',#431,#432);
#431 = CARTESIAN_POINT('',(6.28318530718,-0.));
#432 = VECTOR('',#433,1.);
#433 = DIRECTION('',(0.,1.));
#434 = ( GEOMETRIC_REPRESENTATION_CONTEXT(2) 
PARAMETRIC_REPRESENTATION_CONTEXT() REPRESENTATION_CONTEXT('2D SPACE',''
  ) );
#435 = PCURVE('',#345,#436);
#436 = DEFINITIONAL_REPRESENTATION('',(#437),#441);
#437 = LINE('',#438,#439);
#438 = CARTESIAN_POINT('',(0.,-0.));
#439 = VECTOR('',#440,1.);
#440 = DIRECTION('',(0.,1.));
#441 = ( GEOMETRIC_REPRESENTATION_CONTEXT(2) 
PARAMETRIC_REPRESENTATION_CONTEXT() REPRESENTATION_CONTEXT('2D SPACE',''
  ) );
#442 = ORIENTED_EDGE('',*,*,#443,.T.);
#443 = EDGE_CURVE('',#421,#421,#444,.T.);
#444 = SURFACE_CURVE('',#445,(#450,#457),.PCURVE_S1.);
#445 = CIRCLE('',#446,12.3);
#446 = AXIS2_PLACEMENT_3D('',#447,#448,#449);
#447 = CARTESIAN_POINT('',(349.2,-10.,1.287887754297E+03));
#448 = DIRECTION('',(0.,1.,0.));
#449 = DIRECTION('',(0.,-0.,1.));
#450 = PCURVE('',#345,#451);
#451 = DEFINITIONAL_REPRESENTATION('',(#452),#456);
#452 = LINE('',#453,#454);
#453 = CARTESIAN_POINT('',(0.,0.));
#454 = VECTOR('',#455,1.);
#455 = DIRECTION('',(1.,0.));
#456 = ( GEOMETRIC_REPRESENTATION_CONTEXT(2) 
PARAMETRIC_REPRESENTATION_CONTEXT() REPRESENTATION_CONTEXT('2D SPACE',''
  ) );
#457 = PCURVE('',#458,#463);
#458 = PLANE('',#459);
#459 = AXIS2_PLACEMENT_3D('',#460,#461,#462);
#460 = CARTESIAN_POINT('',(349.2,-10.,1.287887754297E+03));
#461 = DIRECTION('',(0.,1.,0.));
#462 = DIRECTION('',(0.,-0.,1.));
#463 = DEFINITIONAL_REPRESENTATION('',(#464),#468);
#464 = CIRCLE('',#465,12.3);
#465 = AXIS2_PLACEMENT_2D('',#466,#467);
#466 = CARTESIAN_POINT('',(0.,0.));
#467 = DIRECTION('',(1.,0.));
#468 = ( GEOMETRIC_REPRESENTATION_CONTEXT(2) 
PARAMETRIC_REPRESENTATION_CONTEXT() REPRESENTATION_CONTEXT('2D SPACE',''
  ) );
#469 = ORIENTED_EDGE('',*,*,#420,.T.);
#470 = ADVANCED_FACE('',(#471),#403,.F.);
#471 = FACE_BOUND('',#472,.T.);
#472 = EDGE_LOOP('',(#473));
#473 = ORIENTED_EDGE('',*,*,#388,.F.);
#474 = ADVANCED_FACE('',(#475),#458,.F.);
#475 = FACE_BOUND('',#476,.T.);
#476 = EDGE_LOOP('',(#477));
#477 = ORIENTED_EDGE('',*,*,#443,.F.);
#478 = ( GEOMETRIC_REPRESENTATION_CONTEXT(3) 
GLOBAL_UNCERTAINTY_ASSIGNED_CONTEXT((#482)) GLOBAL_UNIT_ASSIGNED_CONTEXT
((#479,#480,#481)) REPRESENTATION_CONTEXT('Context #1',
  '3D Context with UNIT and UNCERTAINTY') );
#479 = ( LENGTH_UNIT() NAMED_UNIT(*) SI_UNIT(.MILLI.,.METRE.) );
#480 = ( NAMED_UNIT(*) PLANE_ANGLE_UNIT() SI_UNIT($,.RADIAN.) );
#481 = ( NAMED_UNIT(*) SI_UNIT($,.STERADIAN.) SOLID_ANGLE_UNIT() );
#482 = UNCERTAINTY_MEASURE_WITH_UNIT(LENGTH_MEASURE(1.E-07),#479,
  'distance_accuracy_value','confusion accuracy');
#483 = PRODUCT_RELATED_PRODUCT_CATEGORY('part',$,(#7));
ENDSEC;
END-ISO-10303-21;
