ISO-10303-21;
HEADER;
FILE_DESCRIPTION(('Open CASCADE Model'),'2;1');
FILE_NAME('Open CASCADE Shape Model','2026-09-23T09:53:38',('Author'),(
    'Open CASCADE'),'Open CASCADE STEP processor 7.9','Open CASCADE 7.9'
  ,'Unknown');
FILE_SCHEMA(('AUTOMOTIVE_DESIGN { 1 0 10303 214 1 1 1 1 }'));
ENDSEC;
DATA;
#1 = APPLICATION_PROTOCOL_DEFINITION('international standard',
  'automotive_design',2000,#2);
#2 = APPLICATION_CONTEXT(
  'core data for automotive mechanical design processes');
#3 = SHAPE_DEFINITION_REPRESENTATION(#4,#10);
#4 = PRODUCT_DEFINITION_SHAPE('','',#5);
#5 = PRODUCT_DEFINITION('design','',#6,#9);
#6 = PRODUCT_DEFINITION_FORMATION('','',#7);
#7 = PRODUCT('Open CASCADE STEP translator 7.9 6',
  'Open CASCADE STEP translator 7.9 6','',(#8));
#8 = PRODUCT_CONTEXT('',#2,'mechanical');
#9 = PRODUCT_DEFINITION_CONTEXT('part definition',#2,'design');
#10 = ADVANCED_BREP_SHAPE_REPRESENTATION('',(#11,#15),#478);
#11 = AXIS2_PLACEMENT_3D('',#12,#13,#14);
#12 = CARTESIAN_POINT('',(0.,0.,0.));
#13 = DIRECTION('',(0.,0.,1.));
#14 = DIRECTION('',(1.,0.,-0.));
#15 = MANIFOLD_SOLID_BREP('',#16);
#16 = CLOSED_SHELL('',(#17,#321,#356,#360,#415,#470,#474));
#17 = ADVANCED_FACE('',(#18,#105),#32,.T.);
#18 = FACE_BOUND('',#19,.T.);
#19 = EDGE_LOOP('',(#20,#50,#77,#78));
#20 = ORIENTED_EDGE('',*,*,#21,.T.);
#21 = EDGE_CURVE('',#22,#24,#26,.T.);
#22 = VERTEX_POINT('',#23);
#23 = CARTESIAN_POINT('',(102.4,-9.,1.302687754297E+03));
#24 = VERTEX_POINT('',#25);
#25 = CARTESIAN_POINT('',(102.4,9.,1.302687754297E+03));
#26 = SEAM_CURVE('',#27,(#31,#43),.PCURVE_S1.);
#27 = LINE('',#28,#29);
#28 = CARTESIAN_POINT('',(102.4,-9.,1.302687754297E+03));
#29 = VECTOR('',#30,1.);
#30 = DIRECTION('',(0.,1.,0.));
#31 = PCURVE('',#32,#37);
#32 = CYLINDRICAL_SURFACE('',#33,14.8);
#33 = AXIS2_PLACEMENT_3D('',#34,#35,#36);
#34 = CARTESIAN_POINT('',(102.4,-9.,1.287887754297E+03));
#35 = DIRECTION('',(0.,1.,0.));
#36 = DIRECTION('',(0.,-0.,1.));
#37 = DEFINITIONAL_REPRESENTATION('',(#38),#42);
#38 = LINE('',#39,#40);
#39 = CARTESIAN_POINT('',(6.28318530718,-0.));
#40 = VECTOR('',#41,1.);
#41 = DIRECTION('',(0.,1.));
#42 = ( GEOMETRIC_REPRESENTATION_CONTEXT(2) 
PARAMETRIC_REPRESENTATION_CONTEXT() REPRESENTATION_CONTEXT('2D SPACE',''
  ) );
#43 = PCURVE('',#32,#44);
#44 = DEFINITIONAL_REPRESENTATION('',(#45),#49);
#45 = LINE('',#46,#47);
#46 = CARTESIAN_POINT('',(0.,-0.));
#47 = VECTOR('',#48,1.);
#48 = DIRECTION('',(0.,1.));
#49 = ( GEOMETRIC_REPRESENTATION_CONTEXT(2) 
PARAMETRIC_REPRESENTATION_CONTEXT() REPRESENTATION_CONTEXT('2D SPACE',''
  ) );
#50 = ORIENTED_EDGE('',*,*,#51,.F.);
#51 = EDGE_CURVE('',#24,#24,#52,.T.);
#52 = SURFACE_CURVE('',#53,(#58,#65),.PCURVE_S1.);
#53 = CIRCLE('',#54,14.8);
#54 = AXIS2_PLACEMENT_3D('',#55,#56,#57);
#55 = CARTESIAN_POINT('',(102.4,9.,1.287887754297E+03));
#56 = DIRECTION('',(0.,1.,0.));
#57 = DIRECTION('',(0.,-0.,1.));
#58 = PCURVE('',#32,#59);
#59 = DEFINITIONAL_REPRESENTATION('',(#60),#64);
#60 = LINE('',#61,#62);
#61 = CARTESIAN_POINT('',(0.,18.));
#62 = VECTOR('',#63,1.);
#63 = DIRECTION('',(1.,0.));
#64 = ( GEOMETRIC_REPRESENTATION_CONTEXT(2) 
PARAMETRIC_REPRESENTATION_CONTEXT() REPRESENTATION_CONTEXT('2D SPACE',''
  ) );
#65 = PCURVE('',#66,#71);
#66 = PLANE('',#67);
#67 = AXIS2_PLACEMENT_3D('',#68,#69,#70);
#68 = CARTESIAN_POINT('',(102.4,9.,1.287887754297E+03));
#69 = DIRECTION('',(0.,1.,0.));
#70 = DIRECTION('',(0.,-0.,1.));
#71 = DEFINITIONAL_REPRESENTATION('',(#72),#76);
#72 = CIRCLE('',#73,14.8);
#73 = AXIS2_PLACEMENT_2D('',#74,#75);
#74 = CARTESIAN_POINT('',(0.,0.));
#75 = DIRECTION('',(1.,0.));
#76 = ( GEOMETRIC_REPRESENTATION_CONTEXT(2) 
PARAMETRIC_REPRESENTATION_CONTEXT() REPRESENTATION_CONTEXT('2D SPACE',''
  ) );
#77 = ORIENTED_EDGE('',*,*,#21,.F.);
#78 = ORIENTED_EDGE('',*,*,#79,.T.);
#79 = EDGE_CURVE('',#22,#22,#80,.T.);
#80 = SURFACE_CURVE('',#81,(#86,#93),.PCURVE_S1.);
#81 = CIRCLE('',#82,14.8);
#82 = AXIS2_PLACEMENT_3D('',#83,#84,#85);
#83 = CARTESIAN_POINT('',(102.4,-9.,1.287887754297E+03));
#84 = DIRECTION('',(0.,1.,0.));
#85 = DIRECTION('',(0.,-0.,1.));
#86 = PCURVE('',#32,#87);
#87 = DEFINITIONAL_REPRESENTATION('',(#88),#92);
#88 = LINE('',#89,#90);
#89 = CARTESIAN_POINT('',(0.,0.));
#90 = VECTOR('',#91,1.);
#91 = DIRECTION('',(1.,0.));
#92 = ( GEOMETRIC_REPRESENTATION_CONTEXT(2) 
PARAMETRIC_REPRESENTATION_CONTEXT() REPRESENTATION_CONTEXT('2D SPACE',''
  ) );
#93 = PCURVE('',#94,#99);
#94 = PLANE('',#95);
#95 = AXIS2_PLACEMENT_3D('',#96,#97,#98);
#96 = CARTESIAN_POINT('',(102.4,-9.,1.287887754297E+03));
#97 = DIRECTION('',(0.,1.,0.));
#98 = DIRECTION('',(0.,-0.,1.));
#99 = DEFINITIONAL_REPRESENTATION('',(#100),#104);
#100 = CIRCLE('',#101,14.8);
#101 = AXIS2_PLACEMENT_2D('',#102,#103);
#102 = CARTESIAN_POINT('',(0.,0.));
#103 = DIRECTION('',(1.,0.));
#104 = ( GEOMETRIC_REPRESENTATION_CONTEXT(2) 
PARAMETRIC_REPRESENTATION_CONTEXT() REPRESENTATION_CONTEXT('2D SPACE',''
  ) );
#105 = FACE_BOUND('',#106,.T.);
#106 = EDGE_LOOP('',(#107));
#107 = ORIENTED_EDGE('',*,*,#108,.T.);
#108 = EDGE_CURVE('',#109,#109,#111,.T.);
#109 = VERTEX_POINT('',#110);
#110 = CARTESIAN_POINT('',(99.553486859731,-8.572527594031E-16,
    1.273364071468E+03));
#111 = SURFACE_CURVE('',#112,(#178,#247),.PCURVE_S1.);
#112 = B_SPLINE_CURVE_WITH_KNOTS('',8,(#113,#114,#115,#116,#117,#118,
    #119,#120,#121,#122,#123,#124,#125,#126,#127,#128,#129,#130,#131,
    #132,#133,#134,#135,#136,#137,#138,#139,#140,#141,#142,#143,#144,
    #145,#146,#147,#148,#149,#150,#151,#152,#153,#154,#155,#156,#157,
    #158,#159,#160,#161,#162,#163,#164,#165,#166,#167,#168,#169,#170,
    #171,#172,#173,#174,#175,#176,#177),.UNSPECIFIED.,.T.,.F.,(9,7,7,7,7
    ,7,7,7,7,9),(0.,0.105559014739,0.204179336126,0.282764058059,
    0.369647410235,0.472143062549,0.587145248052,0.754892979247,
    0.860798407636,1.),.UNSPECIFIED.);
#113 = CARTESIAN_POINT('',(99.553486859734,-4.440892098501E-16,
    1.273364071468E+03));
#114 = CARTESIAN_POINT('',(99.553486859734,0.249361960329,
    1.273364071468E+03));
#115 = CARTESIAN_POINT('',(99.532980330119,0.498592573314,
    1.273368090432E+03));
#116 = CARTESIAN_POINT('',(99.492003911522,0.746684415428,
    1.273376121799E+03));
#117 = CARTESIAN_POINT('',(99.430467434903,0.992590499721,
    1.273388350539E+03));
#118 = CARTESIAN_POINT('',(99.348174929352,1.235163890388,
    1.273405150942E+03));
#119 = CARTESIAN_POINT('',(99.244852230385,1.473079039463,
    1.273427094039E+03));
#120 = CARTESIAN_POINT('',(99.120181188703,1.704734845618,
    1.273454964656E+03));
#121 = CARTESIAN_POINT('',(98.837119159969,2.136859007416,
    1.273522322479E+03));
#122 = CARTESIAN_POINT('',(98.681052890251,2.339033721724,
    1.273561028064E+03));
#123 = CARTESIAN_POINT('',(98.50534739627,2.532686599328,
    1.273606765026E+03));
#124 = CARTESIAN_POINT('',(98.309876715097,2.715491880056,
    1.273660545713E+03));
#125 = CARTESIAN_POINT('',(98.094742690464,2.884738614549,
    1.273723524987E+03));
#126 = CARTESIAN_POINT('',(97.860358079885,3.03727422749,
    1.273796977805E+03));
#127 = CARTESIAN_POINT('',(97.607552398659,3.169416453478,
    1.273882222708E+03));
#128 = CARTESIAN_POINT('',(97.122669855383,3.362407234967,
    1.274058721404E+03));
#129 = CARTESIAN_POINT('',(96.896196849809,3.432532465094,
    1.274145462021E+03));
#130 = CARTESIAN_POINT('',(96.661742967908,3.483693083454,
    1.274240306678E+03));
#131 = CARTESIAN_POINT('',(96.423080450406,3.51354200289,
    1.27434251276E+03));
#132 = CARTESIAN_POINT('',(96.184067673349,3.520858143438,
    1.274450864909E+03));
#133 = CARTESIAN_POINT('',(95.948456854195,3.505537059971,
    1.274563671002E+03));
#134 = CARTESIAN_POINT('',(95.719733210851,3.468603757283,
    1.274678849328E+03));
#135 = CARTESIAN_POINT('',(95.259137953264,3.349940367604,
    1.274921535973E+03));
#136 = CARTESIAN_POINT('',(95.031508314354,3.264412890465,
    1.2750479963E+03));
#137 = CARTESIAN_POINT('',(94.819043889084,3.158577570885,
    1.275171899665E+03));
#138 = CARTESIAN_POINT('',(94.622291006163,3.035204811918,
    1.275291747894E+03));
#139 = CARTESIAN_POINT('',(94.441489179603,2.896964548393,
    1.27540619211E+03));
#140 = CARTESIAN_POINT('',(94.276636585959,2.746454042805,
    1.275514082222E+03));
#141 = CARTESIAN_POINT('',(94.127526930065,2.586212038683,
    1.275614506733E+03));
#142 = CARTESIAN_POINT('',(93.835951120351,2.221129284364,
    1.275815727544E+03));
#143 = CARTESIAN_POINT('',(93.698319167749,2.01197789236,
    1.275914159092E+03));
#144 = CARTESIAN_POINT('',(93.57974221844,1.793800955099,
    1.276001468111E+03));
#145 = CARTESIAN_POINT('',(93.479202773684,1.568588420147,
    1.276077233627E+03));
#146 = CARTESIAN_POINT('',(93.395828357542,1.337919430801,
    1.276141192815E+03));
#147 = CARTESIAN_POINT('',(93.328925606198,1.103072746841,
    1.276193181997E+03));
#148 = CARTESIAN_POINT('',(93.278005548074,0.865112478235,
    1.276233088903E+03));
#149 = CARTESIAN_POINT('',(93.203298824839,0.355481021737,
    1.276291926784E+03));
#150 = CARTESIAN_POINT('',(93.183625099374,8.353800803649E-02,
    1.276307669918E+03));
#151 = CARTESIAN_POINT('',(93.183354190175,-0.189406808595,
    1.276307946686E+03));
#152 = CARTESIAN_POINT('',(93.202368072527,-0.4619743791,
    1.276292725688E+03));
#153 = CARTESIAN_POINT('',(93.240830787499,-0.732786823473,
    1.276262040927E+03));
#154 = CARTESIAN_POINT('',(93.299177133843,-1.000360672662,
    1.276216004251E+03));
#155 = CARTESIAN_POINT('',(93.378114669472,-1.262986234963,
    1.276154832337E+03));
#156 = CARTESIAN_POINT('',(93.625268689404,-1.891433562116,
    1.275968112442E+03));
#157 = CARTESIAN_POINT('',(93.822265723393,-2.260627160125,
    1.275822551982E+03));
#158 = CARTESIAN_POINT('',(94.074916887087,-2.61133874173,
    1.275642031906E+03));
#159 = CARTESIAN_POINT('',(94.386414048677,-2.927786714043,
    1.275430107612E+03));
#160 = CARTESIAN_POINT('',(94.758158745884,-3.193395992047,
    1.275194102616E+03));
#161 = CARTESIAN_POINT('',(95.188800504446,-3.390450383215,
    1.274944095587E+03));
#162 = CARTESIAN_POINT('',(95.673634165219,-3.5,1.274691864739E+03));
#163 = CARTESIAN_POINT('',(96.531619710816,-3.5,1.27429599804E+03));
#164 = CARTESIAN_POINT('',(96.860611949551,-3.456335041547,
    1.27415557677E+03));
#165 = CARTESIAN_POINT('',(97.180737050029,-3.372398915618,
    1.274029732898E+03));
#166 = CARTESIAN_POINT('',(97.486476476135,-3.252472018492,
    1.27391915478E+03));
#167 = CARTESIAN_POINT('',(97.772799938871,-3.101724246267,
    1.273823598297E+03));
#168 = CARTESIAN_POINT('',(98.035480958469,-2.926225898167,
    1.27374217036E+03));
#169 = CARTESIAN_POINT('',(98.271457266563,-2.732954070536,
    1.273673622918E+03));
#170 = CARTESIAN_POINT('',(98.752159621094,-2.262733649051,
    1.273541555642E+03));
#171 = CARTESIAN_POINT('',(98.984145770093,-1.970916383512,
    1.273484239438E+03));
#172 = CARTESIAN_POINT('',(99.17555593057,-1.661753103852,
    1.273440978079E+03));
#173 = CARTESIAN_POINT('',(99.327336809622,-1.340456493129,
    1.273408965889E+03));
#174 = CARTESIAN_POINT('',(99.440475443944,-1.010895318486,
    1.273386220158E+03));
#175 = CARTESIAN_POINT('',(99.515736621209,-0.676051015727,
    1.27337147038E+03));
#176 = CARTESIAN_POINT('',(99.553486859734,-0.338330359719,
    1.273364071468E+03));
#177 = CARTESIAN_POINT('',(99.553486859734,-4.440892098501E-16,
    1.273364071468E+03));
#178 = PCURVE('',#32,#179);
#179 = DEFINITIONAL_REPRESENTATION('',(#180),#246);
#180 = B_SPLINE_CURVE_WITH_KNOTS('',8,(#181,#182,#183,#184,#185,#186,
    #187,#188,#189,#190,#191,#192,#193,#194,#195,#196,#197,#198,#199,
    #200,#201,#202,#203,#204,#205,#206,#207,#208,#209,#210,#211,#212,
    #213,#214,#215,#216,#217,#218,#219,#220,#221,#222,#223,#224,#225,
    #226,#227,#228,#229,#230,#231,#232,#233,#234,#235,#236,#237,#238,
    #239,#240,#241,#242,#243,#244,#245),.UNSPECIFIED.,.T.,.F.,(9,7,7,7,7
    ,7,7,7,7,9),(0.,0.105559014739,0.204179336126,0.282764058059,
    0.369647410235,0.472143062549,0.587145248052,0.754892979247,
    0.860798407636,1.),.UNSPECIFIED.);
#181 = CARTESIAN_POINT('',(3.33513058454,9.));
#182 = CARTESIAN_POINT('',(3.33513058454,9.249361960329));
#183 = CARTESIAN_POINT('',(3.33654252579,9.498592573314));
#184 = CARTESIAN_POINT('',(3.339363868386,9.746684415428));
#185 = CARTESIAN_POINT('',(3.343603033403,9.992590499721));
#186 = CARTESIAN_POINT('',(3.349277869523,10.235163890388));
#187 = CARTESIAN_POINT('',(3.356414299081,10.473079039463));
#188 = CARTESIAN_POINT('',(3.365045143524,10.704734845618));
#189 = CARTESIAN_POINT('',(3.384705005524,11.136859007416));
#190 = CARTESIAN_POINT('',(3.395568999571,11.339033721724));
#191 = CARTESIAN_POINT('',(3.407835189224,11.532686599328));
#192 = CARTESIAN_POINT('',(3.421530635847,11.715491880056));
#193 = CARTESIAN_POINT('',(3.436672175604,11.884738614549));
#194 = CARTESIAN_POINT('',(3.453262480952,12.03727422749));
#195 = CARTESIAN_POINT('',(3.471283755672,12.169416453478));
#196 = CARTESIAN_POINT('',(3.506149070349,12.362407234967));
#197 = CARTESIAN_POINT('',(3.522533065512,12.432532465094));
#198 = CARTESIAN_POINT('',(3.539616482456,12.483693083454));
#199 = CARTESIAN_POINT('',(3.557151577493,12.51354200289));
#200 = CARTESIAN_POINT('',(3.574875416102,12.520858143438));
#201 = CARTESIAN_POINT('',(3.592519566905,12.505537059971));
#202 = CARTESIAN_POINT('',(3.60981986747,12.468603757283));
#203 = CARTESIAN_POINT('',(3.644996869462,12.349940367604));
#204 = CARTESIAN_POINT('',(3.662587033117,12.264412890465));
#205 = CARTESIAN_POINT('',(3.679199799782,12.158577570885));
#206 = CARTESIAN_POINT('',(3.694760916454,12.035204811918));
#207 = CARTESIAN_POINT('',(3.709215328825,11.896964548393));
#208 = CARTESIAN_POINT('',(3.722525509207,11.746454042805));
#209 = CARTESIAN_POINT('',(3.734671613831,11.586212038683));
#210 = CARTESIAN_POINT('',(3.758608683957,11.221129284364));
#211 = CARTESIAN_POINT('',(3.770040051014,11.01197789236));
#212 = CARTESIAN_POINT('',(3.779988185947,10.793800955099));
#213 = CARTESIAN_POINT('',(3.788493620087,10.568588420147));
#214 = CARTESIAN_POINT('',(3.795593422599,10.337919430801));
#215 = CARTESIAN_POINT('',(3.801318198234,10.103072746841));
#216 = CARTESIAN_POINT('',(3.805689461041,9.865112478235));
#217 = CARTESIAN_POINT('',(3.81211477462,9.355481021737));
#218 = CARTESIAN_POINT('',(3.813817236878,9.083538008036));
#219 = CARTESIAN_POINT('',(3.813843255835,8.810593191405));
#220 = CARTESIAN_POINT('',(3.812197573492,8.5380256209));
#221 = CARTESIAN_POINT('',(3.80887300349,8.267213176527));
#222 = CARTESIAN_POINT('',(3.803851474232,7.999639327338));
#223 = CARTESIAN_POINT('',(3.797104300508,7.737013765037));
#224 = CARTESIAN_POINT('',(3.776174770266,7.108566437884));
#225 = CARTESIAN_POINT('',(3.759625713918,6.739372839875));
#226 = CARTESIAN_POINT('',(3.738649327894,6.388661258271));
#227 = CARTESIAN_POINT('',(3.713207707588,6.072213285957));
#228 = CARTESIAN_POINT('',(3.68349007481,5.806604007953));
#229 = CARTESIAN_POINT('',(3.649900899771,5.609549616785));
#230 = CARTESIAN_POINT('',(3.613015399365,5.5));
#231 = CARTESIAN_POINT('',(3.549170317468,5.5));
#232 = CARTESIAN_POINT('',(3.525011005473,5.543664958453));
#233 = CARTESIAN_POINT('',(3.501785472092,5.627601084382));
#234 = CARTESIAN_POINT('',(3.479832748039,5.747527981508));
#235 = CARTESIAN_POINT('',(3.459447807631,5.898275753733));
#236 = CARTESIAN_POINT('',(3.440870919126,6.073774101833));
#237 = CARTESIAN_POINT('',(3.424269275892,6.267045929464));
#238 = CARTESIAN_POINT('',(3.390585876446,6.737266350949));
#239 = CARTESIAN_POINT('',(3.374445227407,7.029083616488));
#240 = CARTESIAN_POINT('',(3.361189166485,7.338246896148));
#241 = CARTESIAN_POINT('',(3.350709105033,7.659543506871));
#242 = CARTESIAN_POINT('',(3.34291177134,7.989104681514));
#243 = CARTESIAN_POINT('',(3.337729803301,8.323948984273));
#244 = CARTESIAN_POINT('',(3.33513058454,8.661669640281));
#245 = CARTESIAN_POINT('',(3.33513058454,9.));
#246 = ( GEOMETRIC_REPRESENTATION_CONTEXT(2) 
PARAMETRIC_REPRESENTATION_CONTEXT() REPRESENTATION_CONTEXT('2D SPACE',''
  ) );
#247 = PCURVE('',#248,#253);
#248 = CYLINDRICAL_SURFACE('',#249,3.5);
#249 = AXIS2_PLACEMENT_3D('',#250,#251,#252);
#250 = CARTESIAN_POINT('',(90.193377614692,0.,1.261431612352E+03));
#251 = DIRECTION('',(0.418947695016,0.,0.908010368245));
#252 = DIRECTION('',(0.908010368245,0.,-0.418947695016));
#253 = DEFINITIONAL_REPRESENTATION('',(#254),#320);
#254 = B_SPLINE_CURVE_WITH_KNOTS('',8,(#255,#256,#257,#258,#259,#260,
    #261,#262,#263,#264,#265,#266,#267,#268,#269,#270,#271,#272,#273,
    #274,#275,#276,#277,#278,#279,#280,#281,#282,#283,#284,#285,#286,
    #287,#288,#289,#290,#291,#292,#293,#294,#295,#296,#297,#298,#299,
    #300,#301,#302,#303,#304,#305,#306,#307,#308,#309,#310,#311,#312,
    #313,#314,#315,#316,#317,#318,#319),.UNSPECIFIED.,.F.,.F.,(9,7,7,7,7
    ,7,7,7,7,9),(0.,0.105559014739,0.204179336126,0.282764058059,
    0.369647410235,0.472143062549,0.587145248052,0.754892979247,
    0.860798407636,1.),.UNSPECIFIED.);
#255 = CARTESIAN_POINT('',(0.,14.756192789059));
#256 = CARTESIAN_POINT('',(7.124627437973E-02,14.756192789059));
#257 = CARTESIAN_POINT('',(0.142455379694,14.751250886979));
#258 = CARTESIAN_POINT('',(0.213888939958,14.741376475901));
#259 = CARTESIAN_POINT('',(0.285799148001,14.726699733615));
#260 = CARTESIAN_POINT('',(0.358436887173,14.707478417904));
#261 = CARTESIAN_POINT('',(0.43206212438,14.684116171153));
#262 = CARTESIAN_POINT('',(0.506956574422,14.657192334251));
#263 = CARTESIAN_POINT('',(0.65489331416,14.599765751762));
#264 = CARTESIAN_POINT('',(0.727959006581,14.569527220371));
#265 = CARTESIAN_POINT('',(0.802819540847,14.537445444151));
#266 = CARTESIAN_POINT('',(0.879665041651,14.504386873962));
#267 = CARTESIAN_POINT('',(0.958709994878,14.471442804283));
#268 = CARTESIAN_POINT('',(1.040199182846,14.439943831831));
#269 = CARTESIAN_POINT('',(1.124422188463,14.411434730868));
#270 = CARTESIAN_POINT('',(1.28134926321,14.368556952529));
#271 = CARTESIAN_POINT('',(1.353117616977,14.352437988825));
#272 = CARTESIAN_POINT('',(1.426343011181,14.340334006891));
#273 = CARTESIAN_POINT('',(1.500437659879,14.333151077339));
#274 = CARTESIAN_POINT('',(1.574887190123,14.33140210055));
#275 = CARTESIAN_POINT('',(1.649195897085,14.335122592567));
#276 = CARTESIAN_POINT('',(1.722835271876,14.343882464135));
#277 = CARTESIAN_POINT('',(1.875197681199,14.371279131814));
#278 = CARTESIAN_POINT('',(1.952966986944,14.390741507664));
#279 = CARTESIAN_POINT('',(2.028672419559,14.414235566191));
#280 = CARTESIAN_POINT('',(2.10242490719,14.440629833949));
#281 = CARTESIAN_POINT('',(2.174289825292,14.468799860651));
#282 = CARTESIAN_POINT('',(2.24429379474,14.497700586879));
#283 = CARTESIAN_POINT('',(2.312426058624,14.526417937122));
#284 = CARTESIAN_POINT('',(2.456739976165,14.586973506818));
#285 = CARTESIAN_POINT('',(2.532750256428,14.618689783266));
#286 = CARTESIAN_POINT('',(2.607012415471,14.648289738713));
#287 = CARTESIAN_POINT('',(2.679829679377,14.674964843799));
#288 = CARTESIAN_POINT('',(2.751479168001,14.698110930175));
#289 = CARTESIAN_POINT('',(2.822226077783,14.71728889335));
#290 = CARTESIAN_POINT('',(2.892334242702,14.732191936812));
#291 = CARTESIAN_POINT('',(3.040321445504,14.754319133322));
#292 = CARTESIAN_POINT('',(3.118019198749,14.760371799614));
#293 = CARTESIAN_POINT('',(3.195497283217,14.760509611698));
#294 = CARTESIAN_POINT('',(3.273063996455,14.754654609546));
#295 = CARTESIAN_POINT('',(3.351018468777,14.742906393752));
#296 = CARTESIAN_POINT('',(3.429665797774,14.725548682355));
#297 = CARTESIAN_POINT('',(3.509333832042,14.703074648453));
#298 = CARTESIAN_POINT('',(3.708626377637,14.637075655367));
#299 = CARTESIAN_POINT('',(3.833399231608,14.587436701919));
#300 = CARTESIAN_POINT('',(3.964008165199,14.529370223588));
#301 = CARTESIAN_POINT('',(4.100275609074,14.467441785587));
#302 = CARTESIAN_POINT('',(4.242375446806,14.408888386111));
#303 = CARTESIAN_POINT('',(4.390922791812,14.362295783945));
#304 = CARTESIAN_POINT('',(4.546896864894,14.336387502623));
#305 = CARTESIAN_POINT('',(4.816870354059,14.336387502623));
#306 = CARTESIAN_POINT('',(4.919029558993,14.346714073649));
#307 = CARTESIAN_POINT('',(5.0188818204,14.366562206047));
#308 = CARTESIAN_POINT('',(5.116325691656,14.39424495616));
#309 = CARTESIAN_POINT('',(5.211150405597,14.427433233537));
#310 = CARTESIAN_POINT('',(5.303006572973,14.4635454298));
#311 = CARTESIAN_POINT('',(5.391347349917,14.500165372858));
#312 = CARTESIAN_POINT('',(5.585756195555,14.581636060228));
#313 = CARTESIAN_POINT('',(5.691834839661,14.626782415331));
#314 = CARTESIAN_POINT('',(5.794562378569,14.667691497746));
#315 = CARTESIAN_POINT('',(5.894713429023,14.702212346906));
#316 = CARTESIAN_POINT('',(5.992981010442,14.728958157138));
#317 = CARTESIAN_POINT('',(6.090028115157,14.747095702711));
#318 = CARTESIAN_POINT('',(6.186519490117,14.756192789059));
#319 = CARTESIAN_POINT('',(6.28318530718,14.756192789059));
#320 = ( GEOMETRIC_REPRESENTATION_CONTEXT(2) 
PARAMETRIC_REPRESENTATION_CONTEXT() REPRESENTATION_CONTEXT('2D SPACE',''
  ) );
#321 = ADVANCED_FACE('',(#322,#325),#94,.F.);
#322 = FACE_BOUND('',#323,.F.);
#323 = EDGE_LOOP('',(#324));
#324 = ORIENTED_EDGE('',*,*,#79,.T.);
#325 = FACE_BOUND('',#326,.F.);
#326 = EDGE_LOOP('',(#327));
#327 = ORIENTED_EDGE('',*,*,#328,.F.);
#328 = EDGE_CURVE('',#329,#329,#331,.T.);
#329 = VERTEX_POINT('',#330);
#330 = CARTESIAN_POINT('',(102.4,-9.,1.300187754297E+03));
#331 = SURFACE_CURVE('',#332,(#337,#344),.PCURVE_S1.);
#332 = CIRCLE('',#333,12.3);
#333 = AXIS2_PLACEMENT_3D('',#334,#335,#336);
#334 = CARTESIAN_POINT('',(102.4,-9.,1.287887754297E+03));
#335 = DIRECTION('',(0.,1.,0.));
#336 = DIRECTION('',(0.,-0.,1.));
#337 = PCURVE('',#94,#338);
#338 = DEFINITIONAL_REPRESENTATION('',(#339),#343);
#339 = CIRCLE('',#340,12.3);
#340 = AXIS2_PLACEMENT_2D('',#341,#342);
#341 = CARTESIAN_POINT('',(0.,0.));
#342 = DIRECTION('',(1.,0.));
#343 = ( GEOMETRIC_REPRESENTATION_CONTEXT(2) 
PARAMETRIC_REPRESENTATION_CONTEXT() REPRESENTATION_CONTEXT('2D SPACE',''
  ) );
#344 = PCURVE('',#345,#350);
#345 = CYLINDRICAL_SURFACE('',#346,12.3);
#346 = AXIS2_PLACEMENT_3D('',#347,#348,#349);
#347 = CARTESIAN_POINT('',(102.4,-10.,1.287887754297E+03));
#348 = DIRECTION('',(0.,1.,0.));
#349 = DIRECTION('',(0.,-0.,1.));
#350 = DEFINITIONAL_REPRESENTATION('',(#351),#355);
#351 = LINE('',#352,#353);
#352 = CARTESIAN_POINT('',(0.,1.));
#353 = VECTOR('',#354,1.);
#354 = DIRECTION('',(1.,0.));
#355 = ( GEOMETRIC_REPRESENTATION_CONTEXT(2) 
PARAMETRIC_REPRESENTATION_CONTEXT() REPRESENTATION_CONTEXT('2D SPACE',''
  ) );
#356 = ADVANCED_FACE('',(#357),#66,.T.);
#357 = FACE_BOUND('',#358,.T.);
#358 = EDGE_LOOP('',(#359));
#359 = ORIENTED_EDGE('',*,*,#51,.T.);
#360 = ADVANCED_FACE('',(#361),#248,.T.);
#361 = FACE_BOUND('',#362,.T.);
#362 = EDGE_LOOP('',(#363,#364,#387,#414));
#363 = ORIENTED_EDGE('',*,*,#108,.F.);
#364 = ORIENTED_EDGE('',*,*,#365,.F.);
#365 = EDGE_CURVE('',#366,#109,#368,.T.);
#366 = VERTEX_POINT('',#367);
#367 = CARTESIAN_POINT('',(93.371413903551,-8.572527594031E-16,
    1.259965295419E+03));
#368 = SEAM_CURVE('',#369,(#373,#380),.PCURVE_S1.);
#369 = LINE('',#370,#371);
#370 = CARTESIAN_POINT('',(93.371413903551,-8.572527594031E-16,
    1.259965295419E+03));
#371 = VECTOR('',#372,1.);
#372 = DIRECTION('',(0.418947695016,1.232595164408E-32,0.908010368245));
#373 = PCURVE('',#248,#374);
#374 = DEFINITIONAL_REPRESENTATION('',(#375),#379);
#375 = LINE('',#376,#377);
#376 = CARTESIAN_POINT('',(6.28318530718,-0.));
#377 = VECTOR('',#378,1.);
#378 = DIRECTION('',(0.,1.));
#379 = ( GEOMETRIC_REPRESENTATION_CONTEXT(2) 
PARAMETRIC_REPRESENTATION_CONTEXT() REPRESENTATION_CONTEXT('2D SPACE',''
  ) );
#380 = PCURVE('',#248,#381);
#381 = DEFINITIONAL_REPRESENTATION('',(#382),#386);
#382 = LINE('',#383,#384);
#383 = CARTESIAN_POINT('',(0.,-0.));
#384 = VECTOR('',#385,1.);
#385 = DIRECTION('',(0.,1.));
#386 = ( GEOMETRIC_REPRESENTATION_CONTEXT(2) 
PARAMETRIC_REPRESENTATION_CONTEXT() REPRESENTATION_CONTEXT('2D SPACE',''
  ) );
#387 = ORIENTED_EDGE('',*,*,#388,.T.);
#388 = EDGE_CURVE('',#366,#366,#389,.T.);
#389 = SURFACE_CURVE('',#390,(#395,#402),.PCURVE_S1.);
#390 = CIRCLE('',#391,3.5);
#391 = AXIS2_PLACEMENT_3D('',#392,#393,#394);
#392 = CARTESIAN_POINT('',(90.193377614692,0.,1.261431612352E+03));
#393 = DIRECTION('',(0.418947695016,0.,0.908010368245));
#394 = DIRECTION('',(0.908010368245,0.,-0.418947695016));
#395 = PCURVE('',#248,#396);
#396 = DEFINITIONAL_REPRESENTATION('',(#397),#401);
#397 = LINE('',#398,#399);
#398 = CARTESIAN_POINT('',(0.,0.));
#399 = VECTOR('',#400,1.);
#400 = DIRECTION('',(1.,0.));
#401 = ( GEOMETRIC_REPRESENTATION_CONTEXT(2) 
PARAMETRIC_REPRESENTATION_CONTEXT() REPRESENTATION_CONTEXT('2D SPACE',''
  ) );
#402 = PCURVE('',#403,#408);
#403 = PLANE('',#404);
#404 = AXIS2_PLACEMENT_3D('',#405,#406,#407);
#405 = CARTESIAN_POINT('',(90.193377614692,0.,1.261431612352E+03));
#406 = DIRECTION('',(0.418947695016,0.,0.908010368245));
#407 = DIRECTION('',(0.908010368245,0.,-0.418947695016));
#408 = DEFINITIONAL_REPRESENTATION('',(#409),#413);
#409 = CIRCLE('',#410,3.5);
#410 = AXIS2_PLACEMENT_2D('',#411,#412);
#411 = CARTESIAN_POINT('',(0.,0.));
#412 = DIRECTION('',(1.,0.));
#413 = ( GEOMETRIC_REPRESENTATION_CONTEXT(2) 
PARAMETRIC_REPRESENTATION_CONTEXT() REPRESENTATION_CONTEXT('2D SPACE',''
  ) );
#414 = ORIENTED_EDGE('',*,*,#365,.T.);
#415 = ADVANCED_FACE('',(#416),#345,.T.);
#416 = FACE_BOUND('',#417,.T.);
#417 = EDGE_LOOP('',(#418,#419,#442,#469));
#418 = ORIENTED_EDGE('',*,*,#328,.F.);
#419 = ORIENTED_EDGE('',*,*,#420,.F.);
#420 = EDGE_CURVE('',#421,#329,#423,.T.);
#421 = VERTEX_POINT('',#422);
#422 = CARTESIAN_POINT('',(102.4,-10.,1.300187754297E+03));
#423 = SEAM_CURVE('',#424,(#428,#435),.PCURVE_S1.);
#424 = LINE('',#425,#426);
#425 = CARTESIAN_POINT('',(102.4,-10.,1.300187754297E+03));
#426 = VECTOR('',#427,1.);
#427 = DIRECTION('',(0.,1.,0.));
#428 = PCURVE('',#345,#429);
#429 = DEFINITIONAL_REPRESENTATION('',(#430),#434);
#430 = LINE('',#431,#432);
#431 = CARTESIAN_POINT('',(6.28318530718,-0.));
#432 = VECTOR('',#433,1.);
#433 = DIRECTION('',(0.,1.));
#434 = ( GEOMETRIC_REPRESENTATION_CONTEXT(2) 
PARAMETRIC_REPRESENTATION_CONTEXT() REPRESENTATION_CONTEXT('2D SPACE',''
  ) );
#435 = PCURVE('',#345,#436);
#436 = DEFINITIONAL_REPRESENTATION('',(#437),#441);
#437 = LINE('',#438,#439);
#438 = CARTESIAN_POINT('',(0.,-0.));
#439 = VECTOR('',#440,1.);
#440 = DIRECTION('',(0.,1.));
#441 = ( GEOMETRIC_REPRESENTATION_CONTEXT(2) 
PARAMETRIC_REPRESENTATION_CONTEXT() REPRESENTATION_CONTEXT('2D SPACE',''
  ) );
#442 = ORIENTED_EDGE('',*,*,#443,.T.);
#443 = EDGE_CURVE('',#421,#421,#444,.T.);
#444 = SURFACE_CURVE('',#445,(#450,#457),.PCURVE_S1.);
#445 = CIRCLE('',#446,12.3);
#446 = AXIS2_PLACEMENT_3D('',#447,#448,#449);
#447 = CARTESIAN_POINT('',(102.4,-10.,1.287887754297E+03));
#448 = DIRECTION('',(0.,1.,0.));
#449 = DIRECTION('',(0.,-0.,1.));
#450 = PCURVE('',#345,#451);
#451 = DEFINITIONAL_REPRESENTATION('',(#452),#456);
#452 = LINE('',#453,#454);
#453 = CARTESIAN_POINT('',(0.,0.));
#454 = VECTOR('',#455,1.);
#455 = DIRECTION('',(1.,0.));
#456 = ( GEOMETRIC_REPRESENTATION_CONTEXT(2) 
PARAMETRIC_REPRESENTATION_CONTEXT() REPRESENTATION_CONTEXT('2D SPACE',''
  ) );
#457 = PCURVE('',#458,#463);
#458 = PLANE('',#459);
#459 = AXIS2_PLACEMENT_3D('',#460,#461,#462);
#460 = CARTESIAN_POINT('',(102.4,-10.,1.287887754297E+03));
#461 = DIRECTION('',(0.,1.,0.));
#462 = DIRECTION('',(0.,-0.,1.));
#463 = DEFINITIONAL_REPRESENTATION('',(#464),#468);
#464 = CIRCLE('',#465,12.3);
#465 = AXIS2_PLACEMENT_2D('',#466,#467);
#466 = CARTESIAN_POINT('',(0.,0.));
#467 = DIRECTION('',(1.,0.));
#468 = ( GEOMETRIC_REPRESENTATION_CONTEXT(2) 
PARAMETRIC_REPRESENTATION_CONTEXT() REPRESENTATION_CONTEXT('2D SPACE',''
  ) );
#469 = ORIENTED_EDGE('',*,*,#420,.T.);
#470 = ADVANCED_FACE('',(#471),#403,.F.);
#471 = FACE_BOUND('',#472,.T.);
#472 = EDGE_LOOP('',(#473));
#473 = ORIENTED_EDGE('',*,*,#388,.F.);
#474 = ADVANCED_FACE('',(#475),#458,.F.);
#475 = FACE_BOUND('',#476,.T.);
#476 = EDGE_LOOP('',(#477));
#477 = ORIENTED_EDGE('',*,*,#443,.F.);
#478 = ( GEOMETRIC_REPRESENTATION_CONTEXT(3) 
GLOBAL_UNCERTAINTY_ASSIGNED_CONTEXT((#482)) GLOBAL_UNIT_ASSIGNED_CONTEXT
((#479,#480,#481)) REPRESENTATION_CONTEXT('Context #1',
  '3D Context with UNIT and UNCERTAINTY') );
#479 = ( LENGTH_UNIT() NAMED_UNIT(*) SI_UNIT(.MILLI.,.METRE.) );
#480 = ( NAMED_UNIT(*) PLANE_ANGLE_UNIT() SI_UNIT($,.RADIAN.) );
#481 = ( NAMED_UNIT(*) SI_UNIT($,.STERADIAN.) SOLID_ANGLE_UNIT() );
#482 = UNCERTAINTY_MEASURE_WITH_UNIT(LENGTH_MEASURE(1.E-07),#479,
  'distance_accuracy_value','confusion accuracy');
#483 = PRODUCT_RELATED_PRODUCT_CATEGORY('part',$,(#7));
ENDSEC;
END-ISO-10303-21;
