ISO-10303-21;
HEADER;
FILE_DESCRIPTION(('Open CASCADE Model'),'2;1');
FILE_NAME('Open CASCADE Shape Model','2026-09-23T09:53:39',('Author'),(
    'Open CASCADE'),'Open CASCADE STEP processor 7.9','Open CASCADE 7.9'
  ,'Unknown');
FILE_SCHEMA(('AUTOMOTIVE_DESIGN { 1 0 10303 214 1 1 1 1 }'));
ENDSEC;
DATA;
#1 = APPLICATION_PROTOCOL_DEFINITION('international standard',
  'automotive_design',2000,#2);
#2 = APPLICATION_CONTEXT(
  'core data for automotive mechanical design processes');
#3 = SHAPE_DEFINITION_REPRESENTATION(#4,#10);
#4 = PRODUCT_DEFINITION_SHAPE('','',#5);
#5 = PRODUCT_DEFINITION('design','',#6,#9);
#6 = PRODUCT_DEFINITION_FORMATION('','',#7);
#7 = PRODUCT('Open CASCADE STEP translator 7.9 80',
  'Open CASCADE STEP translator 7.9 80','',(#8));
#8 = PRODUCT_CONTEXT('',#2,'mechanical');
#9 = PRODUCT_DEFINITION_CONTEXT('part definition',#2,'design');
#10 = ADVANCED_BREP_SHAPE_REPRESENTATION('',(#11,#15),#1273);
#11 = AXIS2_PLACEMENT_3D('',#12,#13,#14);
#12 = CARTESIAN_POINT('',(0.,0.,0.));
#13 = DIRECTION('',(0.,0.,1.));
#14 = DIRECTION('',(1.,0.,-0.));
#15 = MANIFOLD_SOLID_BREP('',#16);
#16 = CLOSED_SHELL('',(#17,#621,#656,#686,#963,#1240));
#17 = ADVANCED_FACE('',(#18,#105,#363),#31,.T.);
#18 = FACE_BOUND('',#19,.F.);
#19 = EDGE_LOOP('',(#20,#54,#77,#104));
#20 = ORIENTED_EDGE('',*,*,#21,.F.);
#21 = EDGE_CURVE('',#22,#22,#24,.T.);
#22 = VERTEX_POINT('',#23);
#23 = CARTESIAN_POINT('',(3.2669E+03,0.,1.702638853983E+03));
#24 = SURFACE_CURVE('',#25,(#30,#42),.PCURVE_S1.);
#25 = CIRCLE('',#26,74.55);
#26 = AXIS2_PLACEMENT_3D('',#27,#28,#29);
#27 = CARTESIAN_POINT('',(3.19235E+03,0.,1.702638853983E+03));
#28 = DIRECTION('',(0.,0.,1.));
#29 = DIRECTION('',(1.,0.,0.));
#30 = PCURVE('',#31,#36);
#31 = CYLINDRICAL_SURFACE('',#32,74.55);
#32 = AXIS2_PLACEMENT_3D('',#33,#34,#35);
#33 = CARTESIAN_POINT('',(3.19235E+03,0.,1.702638853983E+03));
#34 = DIRECTION('',(-0.,-0.,-1.));
#35 = DIRECTION('',(1.,0.,0.));
#36 = DEFINITIONAL_REPRESENTATION('',(#37),#41);
#37 = LINE('',#38,#39);
#38 = CARTESIAN_POINT('',(-0.,0.));
#39 = VECTOR('',#40,1.);
#40 = DIRECTION('',(-1.,0.));
#41 = ( GEOMETRIC_REPRESENTATION_CONTEXT(2) 
PARAMETRIC_REPRESENTATION_CONTEXT() REPRESENTATION_CONTEXT('2D SPACE',''
  ) );
#42 = PCURVE('',#43,#48);
#43 = PLANE('',#44);
#44 = AXIS2_PLACEMENT_3D('',#45,#46,#47);
#45 = CARTESIAN_POINT('',(3.19235E+03,6.348159114048E-15,
    1.702638853983E+03));
#46 = DIRECTION('',(0.,0.,1.));
#47 = DIRECTION('',(1.,0.,-0.));
#48 = DEFINITIONAL_REPRESENTATION('',(#49),#53);
#49 = CIRCLE('',#50,74.55);
#50 = AXIS2_PLACEMENT_2D('',#51,#52);
#51 = CARTESIAN_POINT('',(-4.547473508865E-13,-6.348159114048E-15));
#52 = DIRECTION('',(1.,0.));
#53 = ( GEOMETRIC_REPRESENTATION_CONTEXT(2) 
PARAMETRIC_REPRESENTATION_CONTEXT() REPRESENTATION_CONTEXT('2D SPACE',''
  ) );
#54 = ORIENTED_EDGE('',*,*,#55,.T.);
#55 = EDGE_CURVE('',#22,#56,#58,.T.);
#56 = VERTEX_POINT('',#57);
#57 = CARTESIAN_POINT('',(3.2669E+03,0.,1.753706961548E+03));
#58 = SEAM_CURVE('',#59,(#63,#70),.PCURVE_S1.);
#59 = LINE('',#60,#61);
#60 = CARTESIAN_POINT('',(3.2669E+03,0.,1.702638853983E+03));
#61 = VECTOR('',#62,1.);
#62 = DIRECTION('',(0.,0.,1.));
#63 = PCURVE('',#31,#64);
#64 = DEFINITIONAL_REPRESENTATION('',(#65),#69);
#65 = LINE('',#66,#67);
#66 = CARTESIAN_POINT('',(-6.28318530718,0.));
#67 = VECTOR('',#68,1.);
#68 = DIRECTION('',(-0.,-1.));
#69 = ( GEOMETRIC_REPRESENTATION_CONTEXT(2) 
PARAMETRIC_REPRESENTATION_CONTEXT() REPRESENTATION_CONTEXT('2D SPACE',''
  ) );
#70 = PCURVE('',#31,#71);
#71 = DEFINITIONAL_REPRESENTATION('',(#72),#76);
#72 = LINE('',#73,#74);
#73 = CARTESIAN_POINT('',(-0.,0.));
#74 = VECTOR('',#75,1.);
#75 = DIRECTION('',(-0.,-1.));
#76 = ( GEOMETRIC_REPRESENTATION_CONTEXT(2) 
PARAMETRIC_REPRESENTATION_CONTEXT() REPRESENTATION_CONTEXT('2D SPACE',''
  ) );
#77 = ORIENTED_EDGE('',*,*,#78,.T.);
#78 = EDGE_CURVE('',#56,#56,#79,.T.);
#79 = SURFACE_CURVE('',#80,(#85,#92),.PCURVE_S1.);
#80 = CIRCLE('',#81,74.55);
#81 = AXIS2_PLACEMENT_3D('',#82,#83,#84);
#82 = CARTESIAN_POINT('',(3.19235E+03,0.,1.753706961548E+03));
#83 = DIRECTION('',(0.,0.,1.));
#84 = DIRECTION('',(1.,0.,0.));
#85 = PCURVE('',#31,#86);
#86 = DEFINITIONAL_REPRESENTATION('',(#87),#91);
#87 = LINE('',#88,#89);
#88 = CARTESIAN_POINT('',(-0.,-51.06810756471));
#89 = VECTOR('',#90,1.);
#90 = DIRECTION('',(-1.,0.));
#91 = ( GEOMETRIC_REPRESENTATION_CONTEXT(2) 
PARAMETRIC_REPRESENTATION_CONTEXT() REPRESENTATION_CONTEXT('2D SPACE',''
  ) );
#92 = PCURVE('',#93,#98);
#93 = PLANE('',#94);
#94 = AXIS2_PLACEMENT_3D('',#95,#96,#97);
#95 = CARTESIAN_POINT('',(3.19235E+03,6.348159114048E-15,
    1.753706961548E+03));
#96 = DIRECTION('',(0.,0.,1.));
#97 = DIRECTION('',(1.,0.,-0.));
#98 = DEFINITIONAL_REPRESENTATION('',(#99),#103);
#99 = CIRCLE('',#100,74.55);
#100 = AXIS2_PLACEMENT_2D('',#101,#102);
#101 = CARTESIAN_POINT('',(-4.547473508865E-13,-6.348159114048E-15));
#102 = DIRECTION('',(1.,0.));
#103 = ( GEOMETRIC_REPRESENTATION_CONTEXT(2) 
PARAMETRIC_REPRESENTATION_CONTEXT() REPRESENTATION_CONTEXT('2D SPACE',''
  ) );
#104 = ORIENTED_EDGE('',*,*,#55,.F.);
#105 = FACE_BOUND('',#106,.F.);
#106 = EDGE_LOOP('',(#107));
#107 = ORIENTED_EDGE('',*,*,#108,.T.);
#108 = EDGE_CURVE('',#109,#109,#111,.T.);
#109 = VERTEX_POINT('',#110);
#110 = CARTESIAN_POINT('',(3.19235E+03,74.550000000005,
    1.732372907766E+03));
#111 = SURFACE_CURVE('',#112,(#192,#275),.PCURVE_S1.);
#112 = B_SPLINE_CURVE_WITH_KNOTS('',8,(#113,#114,#115,#116,#117,#118,
    #119,#120,#121,#122,#123,#124,#125,#126,#127,#128,#129,#130,#131,
    #132,#133,#134,#135,#136,#137,#138,#139,#140,#141,#142,#143,#144,
    #145,#146,#147,#148,#149,#150,#151,#152,#153,#154,#155,#156,#157,
    #158,#159,#160,#161,#162,#163,#164,#165,#166,#167,#168,#169,#170,
    #171,#172,#173,#174,#175,#176,#177,#178,#179,#180,#181,#182,#183,
    #184,#185,#186,#187,#188,#189,#190,#191),.UNSPECIFIED.,.T.,.F.,(9,7,
    7,7,7,7,7,7,7,7,7,9),(0.,4.80911685639E-02,0.122125740532,
    0.183645989414,0.252529563525,0.421715477692,0.553810977301,
    0.684213737027,0.819573101384,0.880014976037,0.952751813097,1.),
  .UNSPECIFIED.);
#113 = CARTESIAN_POINT('',(3.19235E+03,74.55,1.732372907766E+03));
#114 = CARTESIAN_POINT('',(3.192540301406E+03,74.55,1.732372907766E+03)
  );
#115 = CARTESIAN_POINT('',(3.192730327779E+03,74.549445088934,
    1.732363053386E+03));
#116 = CARTESIAN_POINT('',(3.192919091519E+03,74.548337223648,
    1.732343394726E+03));
#117 = CARTESIAN_POINT('',(3.193105616115E+03,74.546696013959,
    1.732314138072E+03));
#118 = CARTESIAN_POINT('',(3.193288951801E+03,74.544556466901,
    1.732275643442E+03));
#119 = CARTESIAN_POINT('',(3.193468191209E+03,74.541966730972,
    1.732228422119E+03));
#120 = CARTESIAN_POINT('',(3.193642485022E+03,74.538985840375,
    1.732173134192E+03));
#121 = CARTESIAN_POINT('',(3.194070568917E+03,74.53059448701,
    1.73201429561E+03));
#122 = CARTESIAN_POINT('',(3.194316375295E+03,74.524743118937,
    1.731900853469E+03));
#123 = CARTESIAN_POINT('',(3.194547845659E+03,74.518330496234,
    1.731772426538E+03));
#124 = CARTESIAN_POINT('',(3.194764565235E+03,74.511555219888,
    1.73163102849E+03));
#125 = CARTESIAN_POINT('',(3.194966307337E+03,74.504601729897,
    1.731478536981E+03));
#126 = CARTESIAN_POINT('',(3.195153007515E+03,74.49763392906,
    1.731316709568E+03));
#127 = CARTESIAN_POINT('',(3.195324740092E+03,74.490792051349,
    1.731147198358E+03));
#128 = CARTESIAN_POINT('',(3.195612123102E+03,74.478708997176,
    1.730825616622E+03));
#129 = CARTESIAN_POINT('',(3.195732631544E+03,74.473380731462,
    1.730675122886E+03));
#130 = CARTESIAN_POINT('',(3.195843448208E+03,74.468268008889,
    1.73052072934E+03));
#131 = CARTESIAN_POINT('',(3.195944798783E+03,74.463420923561,
    1.730362995111E+03));
#132 = CARTESIAN_POINT('',(3.19603690206E+03,74.458880843437,
    1.730202401786E+03));
#133 = CARTESIAN_POINT('',(3.196119963133E+03,74.454681621276,
    1.730039363889E+03));
#134 = CARTESIAN_POINT('',(3.196194166597E+03,74.45085080557,
    1.729874239367E+03));
#135 = CARTESIAN_POINT('',(3.196333012928E+03,74.44355917117,
    1.729520464683E+03));
#136 = CARTESIAN_POINT('',(3.196395448375E+03,74.440197605624,
    1.729331364925E+03));
#137 = CARTESIAN_POINT('',(3.196447186366E+03,74.437357907259,
    1.729140506263E+03));
#138 = CARTESIAN_POINT('',(3.196488399581E+03,74.435064030905,
    1.728948297895E+03));
#139 = CARTESIAN_POINT('',(3.196519220555E+03,74.433332905001,
    1.728755105715E+03));
#140 = CARTESIAN_POINT('',(3.196539739148E+03,74.432175202785,
    1.728561265266E+03));
#141 = CARTESIAN_POINT('',(3.19655E+03,74.431596113479,
    1.728367094707E+03));
#142 = CARTESIAN_POINT('',(3.19655E+03,74.431596113479,
    1.727695962491E+03));
#143 = CARTESIAN_POINT('',(3.196488100823E+03,74.435089061635,
    1.727220318908E+03));
#144 = CARTESIAN_POINT('',(3.196364898851E+03,74.442040327075,
    1.726749448096E+03));
#145 = CARTESIAN_POINT('',(3.196178381459E+03,74.452278112602,
    1.726287392487E+03));
#146 = CARTESIAN_POINT('',(3.195924850592E+03,74.465436449,
    1.725840241323E+03));
#147 = CARTESIAN_POINT('',(3.195599564211E+03,74.480828509773,
    1.725417058394E+03));
#148 = CARTESIAN_POINT('',(3.195197590466E+03,74.497153942329,
    1.725031085748E+03));
#149 = CARTESIAN_POINT('',(3.194339888715E+03,74.524387976292,
    1.724446314595E+03));
#150 = CARTESIAN_POINT('',(3.193900427862E+03,74.536170764967,
    1.724214916679E+03));
#151 = CARTESIAN_POINT('',(3.193407953032E+03,74.546184913426,
    1.724035708073E+03));
#152 = CARTESIAN_POINT('',(3.192878633129E+03,74.552676729828,
    1.723927165401E+03));
#153 = CARTESIAN_POINT('',(3.192333397977E+03,74.554295612316,
    1.723899153075E+03));
#154 = CARTESIAN_POINT('',(3.191794460838E+03,74.551009816133,
    1.723952712677E+03));
#155 = CARTESIAN_POINT('',(3.191282860723E+03,74.543827169544,
    1.724079839024E+03));
#156 = CARTESIAN_POINT('',(3.190354262806E+03,74.524710166803,
    1.72444428685E+03));
#157 = CARTESIAN_POINT('',(3.189940324809E+03,74.512923786124,
    1.724678532071E+03));
#158 = CARTESIAN_POINT('',(3.189575317001E+03,74.500053516891,
    1.724952863409E+03));
#159 = CARTESIAN_POINT('',(3.189258677628E+03,74.487147619843,
    1.725257177954E+03));
#160 = CARTESIAN_POINT('',(3.188988857274E+03,74.474984470001,
    1.72558349361E+03));
#161 = CARTESIAN_POINT('',(3.188763877208E+03,74.464094517713,
    1.725925521277E+03));
#162 = CARTESIAN_POINT('',(3.188581640819E+03,74.454831897118,
    1.726278422021E+03));
#163 = CARTESIAN_POINT('',(3.188293648483E+03,74.43970773216,
    1.727012214526E+03));
#164 = CARTESIAN_POINT('',(3.188190600827E+03,74.433964916873,
    1.727394835982E+03));
#165 = CARTESIAN_POINT('',(3.188129473268E+03,74.43043696074,
    1.72778267689E+03));
#166 = CARTESIAN_POINT('',(3.188109221076E+03,74.42924908269,
    1.728172940992E+03));
#167 = CARTESIAN_POINT('',(3.188129486065E+03,74.430437754921,
    1.728563184518E+03));
#168 = CARTESIAN_POINT('',(3.188190608608E+03,74.43396526652,
    1.728950979288E+03));
#169 = CARTESIAN_POINT('',(3.188293636188E+03,74.439707086501,
    1.72933356968E+03));
#170 = CARTESIAN_POINT('',(3.188505833403E+03,74.45085080557,
    1.729874239367E+03));
#171 = CARTESIAN_POINT('',(3.188580036867E+03,74.454681621276,
    1.730039363889E+03));
#172 = CARTESIAN_POINT('',(3.18866309794E+03,74.458880843437,
    1.730202401786E+03));
#173 = CARTESIAN_POINT('',(3.188755201217E+03,74.463420923561,
    1.730362995111E+03));
#174 = CARTESIAN_POINT('',(3.188856551792E+03,74.468268008889,
    1.73052072934E+03));
#175 = CARTESIAN_POINT('',(3.188967368456E+03,74.473380731462,
    1.730675122886E+03));
#176 = CARTESIAN_POINT('',(3.189087876898E+03,74.478708997176,
    1.730825616622E+03));
#177 = CARTESIAN_POINT('',(3.189375259908E+03,74.490792051349,
    1.731147198358E+03));
#178 = CARTESIAN_POINT('',(3.189546992485E+03,74.49763392906,
    1.731316709568E+03));
#179 = CARTESIAN_POINT('',(3.189733692663E+03,74.504601729897,
    1.731478536981E+03));
#180 = CARTESIAN_POINT('',(3.189935434765E+03,74.511555219888,
    1.73163102849E+03));
#181 = CARTESIAN_POINT('',(3.190152154341E+03,74.518330496234,
    1.731772426538E+03));
#182 = CARTESIAN_POINT('',(3.190383624705E+03,74.524743118937,
    1.731900853469E+03));
#183 = CARTESIAN_POINT('',(3.190629431083E+03,74.53059448701,
    1.73201429561E+03));
#184 = CARTESIAN_POINT('',(3.191057514969E+03,74.538985840188,
    1.732173134188E+03));
#185 = CARTESIAN_POINT('',(3.191231808797E+03,74.54196673099,
    1.73222842212E+03));
#186 = CARTESIAN_POINT('',(3.191411048209E+03,74.544556467041,
    1.732275643445E+03));
#187 = CARTESIAN_POINT('',(3.191594383884E+03,74.546696014037,
    1.732314138074E+03));
#188 = CARTESIAN_POINT('',(3.191780908471E+03,74.548337223594,
    1.732343394725E+03));
#189 = CARTESIAN_POINT('',(3.191969672215E+03,74.549445088838,
    1.732363053385E+03));
#190 = CARTESIAN_POINT('',(3.192159698605E+03,74.55,1.732372907766E+03)
  );
#191 = CARTESIAN_POINT('',(3.19235E+03,74.55,1.732372907766E+03));
#192 = PCURVE('',#31,#193);
#193 = DEFINITIONAL_REPRESENTATION('',(#194),#274);
#194 = B_SPLINE_CURVE_WITH_KNOTS('',8,(#195,#196,#197,#198,#199,#200,
    #201,#202,#203,#204,#205,#206,#207,#208,#209,#210,#211,#212,#213,
    #214,#215,#216,#217,#218,#219,#220,#221,#222,#223,#224,#225,#226,
    #227,#228,#229,#230,#231,#232,#233,#234,#235,#236,#237,#238,#239,
    #240,#241,#242,#243,#244,#245,#246,#247,#248,#249,#250,#251,#252,
    #253,#254,#255,#256,#257,#258,#259,#260,#261,#262,#263,#264,#265,
    #266,#267,#268,#269,#270,#271,#272,#273),.UNSPECIFIED.,.T.,.F.,(9,7,
    7,7,7,7,7,7,7,7,7,9),(0.,4.80911685639E-02,0.122125740532,
    0.183645989414,0.252529563525,0.421715477692,0.553810977301,
    0.684213737027,0.819573101384,0.880014976037,0.952751813097,1.),
  .UNSPECIFIED.);
#195 = CARTESIAN_POINT('',(-1.570796326795,-29.73405378235));
#196 = CARTESIAN_POINT('',(-1.568243658702,-29.73405378235));
#197 = CARTESIAN_POINT('',(-1.565694680062,-29.72419940291));
#198 = CARTESIAN_POINT('',(-1.563162612388,-29.70454074234));
#199 = CARTESIAN_POINT('',(-1.560660529758,-29.67528408883));
#200 = CARTESIAN_POINT('',(-1.558201150645,-29.63678945889));
#201 = CARTESIAN_POINT('',(-1.555796629742,-29.58956813579));
#202 = CARTESIAN_POINT('',(-1.55345834979,-29.53428020814));
#203 = CARTESIAN_POINT('',(-1.54771500799,-29.37544162619));
#204 = CARTESIAN_POINT('',(-1.544416901516,-29.26199948556));
#205 = CARTESIAN_POINT('',(-1.541310846572,-29.13357255478));
#206 = CARTESIAN_POINT('',(-1.538402422929,-28.99217450652));
#207 = CARTESIAN_POINT('',(-1.535694708073,-28.83968299773));
#208 = CARTESIAN_POINT('',(-1.533188616124,-28.6778555849));
#209 = CARTESIAN_POINT('',(-1.53088320511,-28.5083443747));
#210 = CARTESIAN_POINT('',(-1.527024896399,-28.18676263828));
#211 = CARTESIAN_POINT('',(-1.525406842678,-28.03626890254));
#212 = CARTESIAN_POINT('',(-1.523918791468,-27.88187535619));
#213 = CARTESIAN_POINT('',(-1.522557743044,-27.72414112771));
#214 = CARTESIAN_POINT('',(-1.52132078855,-27.56354780263));
#215 = CARTESIAN_POINT('',(-1.520205200616,-27.4005099057));
#216 = CARTESIAN_POINT('',(-1.519208523957,-27.23538538312));
#217 = CARTESIAN_POINT('',(-1.517343498296,-26.88161069974));
#218 = CARTESIAN_POINT('',(-1.516504788326,-26.69251094197));
#219 = CARTESIAN_POINT('',(-1.515809740471,-26.50165227922));
#220 = CARTESIAN_POINT('',(-1.51525605859,-26.30944391154));
#221 = CARTESIAN_POINT('',(-1.514841980009,-26.11625173124));
#222 = CARTESIAN_POINT('',(-1.514566309526,-25.92241128293));
#223 = CARTESIAN_POINT('',(-1.514428453411,-25.72824072353));
#224 = CARTESIAN_POINT('',(-1.514428453411,-25.05710850787));
#225 = CARTESIAN_POINT('',(-1.515260078348,-24.58146492444));
#226 = CARTESIAN_POINT('',(-1.516915316303,-24.11059411255));
#227 = CARTESIAN_POINT('',(-1.519420986684,-23.64853850338));
#228 = CARTESIAN_POINT('',(-1.52282635111,-23.20138733914));
#229 = CARTESIAN_POINT('',(-1.527194450158,-22.77820441045));
#230 = CARTESIAN_POINT('',(-1.532590685652,-22.39223176454));
#231 = CARTESIAN_POINT('',(-1.544101537623,-21.80746061201));
#232 = CARTESIAN_POINT('',(-1.54999843041,-21.57606269608));
#233 = CARTESIAN_POINT('',(-1.556605534133,-21.39685408931));
#234 = CARTESIAN_POINT('',(-1.563705770327,-21.28831141728));
#235 = CARTESIAN_POINT('',(-1.571018862707,-21.26029909194));
#236 = CARTESIAN_POINT('',(-1.578247824211,-21.31385869364));
#237 = CARTESIAN_POINT('',(-1.585110862344,-21.44098504018));
#238 = CARTESIAN_POINT('',(-1.597569543455,-21.80543286654));
#239 = CARTESIAN_POINT('',(-1.603124109041,-22.03967808734));
#240 = CARTESIAN_POINT('',(-1.608023136342,-22.31400942551));
#241 = CARTESIAN_POINT('',(-1.612273909972,-22.61832397071));
#242 = CARTESIAN_POINT('',(-1.615896866034,-22.94463962634));
#243 = CARTESIAN_POINT('',(-1.618918223636,-23.28666729365));
#244 = CARTESIAN_POINT('',(-1.621365861644,-23.63956803746));
#245 = CARTESIAN_POINT('',(-1.625234261265,-24.37336054215));
#246 = CARTESIAN_POINT('',(-1.626618661451,-24.75598199843));
#247 = CARTESIAN_POINT('',(-1.627439979913,-25.14382290691));
#248 = CARTESIAN_POINT('',(-1.627712107607,-25.53408700844));
#249 = CARTESIAN_POINT('',(-1.627439807969,-25.92433053468));
#250 = CARTESIAN_POINT('',(-1.626618556944,-26.31212530455));
#251 = CARTESIAN_POINT('',(-1.625234426409,-26.69471569659));
#252 = CARTESIAN_POINT('',(-1.622384129633,-27.23538538312));
#253 = CARTESIAN_POINT('',(-1.621387452974,-27.4005099057));
#254 = CARTESIAN_POINT('',(-1.620271865039,-27.56354780263));
#255 = CARTESIAN_POINT('',(-1.619034910546,-27.72414112771));
#256 = CARTESIAN_POINT('',(-1.617673862121,-27.88187535619));
#257 = CARTESIAN_POINT('',(-1.616185810911,-28.03626890254));
#258 = CARTESIAN_POINT('',(-1.614567757191,-28.18676263828));
#259 = CARTESIAN_POINT('',(-1.61070944848,-28.5083443747));
#260 = CARTESIAN_POINT('',(-1.608404037465,-28.6778555849));
#261 = CARTESIAN_POINT('',(-1.605897945517,-28.83968299773));
#262 = CARTESIAN_POINT('',(-1.603190230661,-28.99217450652));
#263 = CARTESIAN_POINT('',(-1.600281807018,-29.13357255478));
#264 = CARTESIAN_POINT('',(-1.597175752074,-29.26199948556));
#265 = CARTESIAN_POINT('',(-1.5938776456,-29.37544162619));
#266 = CARTESIAN_POINT('',(-1.588134303928,-29.53428020459));
#267 = CARTESIAN_POINT('',(-1.585796023763,-29.58956813612));
#268 = CARTESIAN_POINT('',(-1.583391502809,-29.63678946151));
#269 = CARTESIAN_POINT('',(-1.58093212384,-29.67528409031));
#270 = CARTESIAN_POINT('',(-1.578430041346,-29.70454074133));
#271 = CARTESIAN_POINT('',(-1.575897973605,-29.72419940111));
#272 = CARTESIAN_POINT('',(-1.573348994741,-29.73405378235));
#273 = CARTESIAN_POINT('',(-1.570796326795,-29.73405378235));
#274 = ( GEOMETRIC_REPRESENTATION_CONTEXT(2) 
PARAMETRIC_REPRESENTATION_CONTEXT() REPRESENTATION_CONTEXT('2D SPACE',''
  ) );
#275 = PCURVE('',#276,#281);
#276 = CYLINDRICAL_SURFACE('',#277,4.2);
#277 = AXIS2_PLACEMENT_3D('',#278,#279,#280);
#278 = CARTESIAN_POINT('',(3.19235E+03,-81.55,1.728172907766E+03));
#279 = DIRECTION('',(0.,1.,0.));
#280 = DIRECTION('',(0.,-0.,1.));
#281 = DEFINITIONAL_REPRESENTATION('',(#282),#362);
#282 = B_SPLINE_CURVE_WITH_KNOTS('',8,(#283,#284,#285,#286,#287,#288,
    #289,#290,#291,#292,#293,#294,#295,#296,#297,#298,#299,#300,#301,
    #302,#303,#304,#305,#306,#307,#308,#309,#310,#311,#312,#313,#314,
    #315,#316,#317,#318,#319,#320,#321,#322,#323,#324,#325,#326,#327,
    #328,#329,#330,#331,#332,#333,#334,#335,#336,#337,#338,#339,#340,
    #341,#342,#343,#344,#345,#346,#347,#348,#349,#350,#351,#352,#353,
    #354,#355,#356,#357,#358,#359,#360,#361),.UNSPECIFIED.,.F.,.F.,(9,7,
    7,7,7,7,7,7,7,7,7,9),(0.,4.80911685639E-02,0.122125740532,
    0.183645989414,0.252529563525,0.421715477692,0.553810977301,
    0.684213737027,0.819573101384,0.880014976037,0.952751813097,1.),
  .UNSPECIFIED.);
#283 = CARTESIAN_POINT('',(0.,156.1));
#284 = CARTESIAN_POINT('',(4.530985865766E-02,156.1));
#285 = CARTESIAN_POINT('',(9.055421239891E-02,156.09944508893));
#286 = CARTESIAN_POINT('',(0.135639735437,156.09833722364));
#287 = CARTESIAN_POINT('',(0.180473874134,156.09669601395));
#288 = CARTESIAN_POINT('',(0.224961751129,156.0945564669));
#289 = CARTESIAN_POINT('',(0.269003069467,156.09196673097));
#290 = CARTESIAN_POINT('',(0.312489016729,156.08898584037));
#291 = CARTESIAN_POINT('',(0.421203812471,156.08059448701));
#292 = CARTESIAN_POINT('',(0.485469882727,156.07474311893));
#293 = CARTESIAN_POINT('',(0.548212788256,156.06833049623));
#294 = CARTESIAN_POINT('',(0.609519130602,156.06155521988));
#295 = CARTESIAN_POINT('',(0.669455775713,156.05460172989));
#296 = CARTESIAN_POINT('',(0.728074903135,156.04763392906));
#297 = CARTESIAN_POINT('',(0.785415033199,156.04079205134));
#298 = CARTESIAN_POINT('',(0.88810112541,156.02870899717));
#299 = CARTESIAN_POINT('',(0.933938179979,156.02338073146));
#300 = CARTESIAN_POINT('',(0.979083749004,156.01826800888));
#301 = CARTESIAN_POINT('',(1.023607862381,156.01342092356));
#302 = CARTESIAN_POINT('',(1.06757719031,156.00888084343));
#303 = CARTESIAN_POINT('',(1.111056206791,156.00468162127));
#304 = CARTESIAN_POINT('',(1.154108353117,156.00085080557));
#305 = CARTESIAN_POINT('',(1.244595454717,155.99355917117));
#306 = CARTESIAN_POINT('',(1.291937986864,155.99019760562));
#307 = CARTESIAN_POINT('',(1.338905996298,155.98735790725));
#308 = CARTESIAN_POINT('',(1.385577224111,155.9850640309));
#309 = CARTESIAN_POINT('',(1.43202717176,155.983332905));
#310 = CARTESIAN_POINT('',(1.478330318832,155.98217520278));
#311 = CARTESIAN_POINT('',(1.524561340801,155.98159611347));
#312 = CARTESIAN_POINT('',(1.684354725481,155.98159611347));
#313 = CARTESIAN_POINT('',(1.797603685091,155.98508906163));
#314 = CARTESIAN_POINT('',(1.911944526763,155.99204032707));
#315 = CARTESIAN_POINT('',(2.028608444701,156.0022781126));
#316 = CARTESIAN_POINT('',(2.148731203941,156.015436449));
#317 = CARTESIAN_POINT('',(2.273552969652,156.03082850977));
#318 = CARTESIAN_POINT('',(2.404399220707,156.04715394232));
#319 = CARTESIAN_POINT('',(2.651561069112,156.07438797629));
#320 = CARTESIAN_POINT('',(2.769049964316,156.08617076496));
#321 = CARTESIAN_POINT('',(2.891902776405,156.09618491342));
#322 = CARTESIAN_POINT('',(3.017792265939,156.10267672982));
#323 = CARTESIAN_POINT('',(3.144915550115,156.10429561231));
#324 = CARTESIAN_POINT('',(3.271621342577,156.10100981613));
#325 = CARTESIAN_POINT('',(3.396069400876,156.09382716954));
#326 = CARTESIAN_POINT('',(3.633582535741,156.0747101668));
#327 = CARTESIAN_POINT('',(3.74570315926,156.06292378612));
#328 = CARTESIAN_POINT('',(3.85296479273,156.05005351689));
#329 = CARTESIAN_POINT('',(3.956085683615,156.03714761984));
#330 = CARTESIAN_POINT('',(4.055661329546,156.02498447));
#331 = CARTESIAN_POINT('',(4.152229627239,156.01409451771));
#332 = CARTESIAN_POINT('',(4.246296796948,156.00483189711));
#333 = CARTESIAN_POINT('',(4.433983367089,155.98970773216));
#334 = CARTESIAN_POINT('',(4.52775000904,155.98396491687));
#335 = CARTESIAN_POINT('',(4.620357954651,155.98043696074));
#336 = CARTESIAN_POINT('',(4.712396625767,155.97924908269));
#337 = CARTESIAN_POINT('',(4.804431007935,155.98043775492));
#338 = CARTESIAN_POINT('',(4.89702855264,155.98396526652));
#339 = CARTESIAN_POINT('',(4.990786581247,155.9897070865));
#340 = CARTESIAN_POINT('',(5.129076954063,156.00085080557));
#341 = CARTESIAN_POINT('',(5.172129100388,156.00468162127));
#342 = CARTESIAN_POINT('',(5.215608116869,156.00888084343));
#343 = CARTESIAN_POINT('',(5.259577444799,156.01342092356));
#344 = CARTESIAN_POINT('',(5.304101558175,156.01826800888));
#345 = CARTESIAN_POINT('',(5.3492471272,156.02338073146));
#346 = CARTESIAN_POINT('',(5.395084181769,156.02870899717));
#347 = CARTESIAN_POINT('',(5.497770273981,156.04079205134));
#348 = CARTESIAN_POINT('',(5.555110404045,156.04763392906));
#349 = CARTESIAN_POINT('',(5.613729531466,156.05460172989));
#350 = CARTESIAN_POINT('',(5.673666176578,156.06155521988));
#351 = CARTESIAN_POINT('',(5.734972518924,156.06833049623));
#352 = CARTESIAN_POINT('',(5.797715424453,156.07474311893));
#353 = CARTESIAN_POINT('',(5.861981494709,156.08059448701));
#354 = CARTESIAN_POINT('',(5.970696288024,156.08898584018));
#355 = CARTESIAN_POINT('',(6.014182239233,156.09196673099));
#356 = CARTESIAN_POINT('',(6.05822355857,156.09455646704));
#357 = CARTESIAN_POINT('',(6.102711432968,156.09669601403));
#358 = CARTESIAN_POINT('',(6.147545569138,156.09833722359));
#359 = CARTESIAN_POINT('',(6.192631093334,156.09944508883));
#360 = CARTESIAN_POINT('',(6.23787545113,156.1));
#361 = CARTESIAN_POINT('',(6.28318530718,156.1));
#362 = ( GEOMETRIC_REPRESENTATION_CONTEXT(2) 
PARAMETRIC_REPRESENTATION_CONTEXT() REPRESENTATION_CONTEXT('2D SPACE',''
  ) );
#363 = FACE_BOUND('',#364,.F.);
#364 = EDGE_LOOP('',(#365));
#365 = ORIENTED_EDGE('',*,*,#366,.F.);
#366 = EDGE_CURVE('',#367,#367,#369,.T.);
#367 = VERTEX_POINT('',#368);
#368 = CARTESIAN_POINT('',(3.19235E+03,-74.55,1.732372907766E+03));
#369 = SURFACE_CURVE('',#370,(#450,#533),.PCURVE_S1.);
#370 = B_SPLINE_CURVE_WITH_KNOTS('',8,(#371,#372,#373,#374,#375,#376,
    #377,#378,#379,#380,#381,#382,#383,#384,#385,#386,#387,#388,#389,
    #390,#391,#392,#393,#394,#395,#396,#397,#398,#399,#400,#401,#402,
    #403,#404,#405,#406,#407,#408,#409,#410,#411,#412,#413,#414,#415,
    #416,#417,#418,#419,#420,#421,#422,#423,#424,#425,#426,#427,#428,
    #429,#430,#431,#432,#433,#434,#435,#436,#437,#438,#439,#440,#441,
    #442,#443,#444,#445,#446,#447,#448,#449),.UNSPECIFIED.,.T.,.F.,(9,7,
    7,7,7,7,7,7,7,7,7,9),(0.,4.80911657251E-02,0.122125737518,
    0.183645990616,0.252529564635,0.421715478576,0.553810977345,
    0.6842137356,0.819573097129,0.880014975172,0.952751811127,1.),
  .UNSPECIFIED.);
#371 = CARTESIAN_POINT('',(3.19235E+03,-74.55,1.732372907766E+03));
#372 = CARTESIAN_POINT('',(3.192540301395E+03,-74.55,1.732372907766E+03)
  );
#373 = CARTESIAN_POINT('',(3.192730327785E+03,-74.54944508883,
    1.732363053385E+03));
#374 = CARTESIAN_POINT('',(3.192919091529E+03,-74.54833722359,
    1.732343394725E+03));
#375 = CARTESIAN_POINT('',(3.193105616116E+03,-74.54669601403,
    1.732314138074E+03));
#376 = CARTESIAN_POINT('',(3.193288951791E+03,-74.54455646704,
    1.732275643445E+03));
#377 = CARTESIAN_POINT('',(3.193468191203E+03,-74.54196673099,
    1.73222842212E+03));
#378 = CARTESIAN_POINT('',(3.193642485031E+03,-74.53898584018,
    1.732173134188E+03));
#379 = CARTESIAN_POINT('',(3.194070568917E+03,-74.53059448701,
    1.73201429561E+03));
#380 = CARTESIAN_POINT('',(3.194316375295E+03,-74.52474311893,
    1.731900853469E+03));
#381 = CARTESIAN_POINT('',(3.194547845659E+03,-74.51833049623,
    1.731772426538E+03));
#382 = CARTESIAN_POINT('',(3.194764565235E+03,-74.51155521988,
    1.73163102849E+03));
#383 = CARTESIAN_POINT('',(3.194966307337E+03,-74.50460172989,
    1.731478536981E+03));
#384 = CARTESIAN_POINT('',(3.195153007515E+03,-74.49763392906,
    1.731316709568E+03));
#385 = CARTESIAN_POINT('',(3.195324740092E+03,-74.49079205134,
    1.731147198358E+03));
#386 = CARTESIAN_POINT('',(3.195612123111E+03,-74.47870899678,
    1.730825616611E+03));
#387 = CARTESIAN_POINT('',(3.195732631541E+03,-74.47338073161,
    1.730675122893E+03));
#388 = CARTESIAN_POINT('',(3.1958434482E+03,-74.46826800924,
    1.73052072935E+03));
#389 = CARTESIAN_POINT('',(3.195944798781E+03,-74.46342092362,
    1.730362995111E+03));
#390 = CARTESIAN_POINT('',(3.196036902066E+03,-74.45888084315,
    1.730202401775E+03));
#391 = CARTESIAN_POINT('',(3.196119963138E+03,-74.45468162106,
    1.730039363883E+03));
#392 = CARTESIAN_POINT('',(3.196194166592E+03,-74.45085080581,
    1.729874239378E+03));
#393 = CARTESIAN_POINT('',(3.196333012928E+03,-74.44355917117,
    1.729520464683E+03));
#394 = CARTESIAN_POINT('',(3.196395448375E+03,-74.44019760562,
    1.729331364925E+03));
#395 = CARTESIAN_POINT('',(3.196447186366E+03,-74.43735790725,
    1.729140506263E+03));
#396 = CARTESIAN_POINT('',(3.196488399581E+03,-74.4350640309,
    1.728948297895E+03));
#397 = CARTESIAN_POINT('',(3.196519220555E+03,-74.433332905,
    1.728755105715E+03));
#398 = CARTESIAN_POINT('',(3.196539739148E+03,-74.43217520278,
    1.728561265266E+03));
#399 = CARTESIAN_POINT('',(3.19655E+03,-74.43159611347,
    1.728367094707E+03));
#400 = CARTESIAN_POINT('',(3.19655E+03,-74.43159611347,
    1.727695962491E+03));
#401 = CARTESIAN_POINT('',(3.196488100823E+03,-74.43508906163,
    1.727220318908E+03));
#402 = CARTESIAN_POINT('',(3.196364898851E+03,-74.44204032707,
    1.726749448096E+03));
#403 = CARTESIAN_POINT('',(3.196178381459E+03,-74.4522781126,
    1.726287392487E+03));
#404 = CARTESIAN_POINT('',(3.195924850592E+03,-74.465436449,
    1.725840241323E+03));
#405 = CARTESIAN_POINT('',(3.195599564211E+03,-74.48082850977,
    1.725417058394E+03));
#406 = CARTESIAN_POINT('',(3.195197590466E+03,-74.49715394232,
    1.725031085748E+03));
#407 = CARTESIAN_POINT('',(3.194339888717E+03,-74.52438797623,
    1.724446314597E+03));
#408 = CARTESIAN_POINT('',(3.193900427852E+03,-74.53617076515,
    1.724214916675E+03));
#409 = CARTESIAN_POINT('',(3.193407953056E+03,-74.54618491316,
    1.724035708078E+03));
#410 = CARTESIAN_POINT('',(3.192878633098E+03,-74.55267672995,
    1.723927165398E+03));
#411 = CARTESIAN_POINT('',(3.192333398002E+03,-74.55429561238,
    1.723899153074E+03));
#412 = CARTESIAN_POINT('',(3.191794460827E+03,-74.55100981601,
    1.723952712679E+03));
#413 = CARTESIAN_POINT('',(3.191282860726E+03,-74.54382716959,
    1.724079839023E+03));
#414 = CARTESIAN_POINT('',(3.190354262806E+03,-74.5247101668,
    1.72444428685E+03));
#415 = CARTESIAN_POINT('',(3.189940324809E+03,-74.51292378612,
    1.724678532071E+03));
#416 = CARTESIAN_POINT('',(3.189575317001E+03,-74.50005351689,
    1.724952863409E+03));
#417 = CARTESIAN_POINT('',(3.189258677628E+03,-74.48714761984,
    1.725257177954E+03));
#418 = CARTESIAN_POINT('',(3.188988857274E+03,-74.47498447,
    1.72558349361E+03));
#419 = CARTESIAN_POINT('',(3.188763877208E+03,-74.46409451771,
    1.725925521277E+03));
#420 = CARTESIAN_POINT('',(3.188581640819E+03,-74.45483189711,
    1.726278422021E+03));
#421 = CARTESIAN_POINT('',(3.188293648484E+03,-74.43970773223,
    1.727012214522E+03));
#422 = CARTESIAN_POINT('',(3.188190600825E+03,-74.43396491676,
    1.727394835992E+03));
#423 = CARTESIAN_POINT('',(3.188129473268E+03,-74.43043696073,
    1.72778267688E+03));
#424 = CARTESIAN_POINT('',(3.188109221078E+03,-74.42924908277,
    1.728172940991E+03));
#425 = CARTESIAN_POINT('',(3.188129486065E+03,-74.43043775492,
    1.728563184529E+03));
#426 = CARTESIAN_POINT('',(3.188190608607E+03,-74.43396526643,
    1.728950979279E+03));
#427 = CARTESIAN_POINT('',(3.188293636189E+03,-74.43970708655,
    1.729333569683E+03));
#428 = CARTESIAN_POINT('',(3.188505833408E+03,-74.45085080581,
    1.729874239378E+03));
#429 = CARTESIAN_POINT('',(3.188580036862E+03,-74.45468162106,
    1.730039363883E+03));
#430 = CARTESIAN_POINT('',(3.188663097934E+03,-74.45888084315,
    1.730202401775E+03));
#431 = CARTESIAN_POINT('',(3.188755201219E+03,-74.46342092362,
    1.730362995111E+03));
#432 = CARTESIAN_POINT('',(3.1888565518E+03,-74.46826800924,
    1.73052072935E+03));
#433 = CARTESIAN_POINT('',(3.188967368459E+03,-74.47338073161,
    1.730675122893E+03));
#434 = CARTESIAN_POINT('',(3.189087876889E+03,-74.47870899678,
    1.730825616611E+03));
#435 = CARTESIAN_POINT('',(3.189375259908E+03,-74.49079205134,
    1.731147198358E+03));
#436 = CARTESIAN_POINT('',(3.189546992485E+03,-74.49763392906,
    1.731316709568E+03));
#437 = CARTESIAN_POINT('',(3.189733692663E+03,-74.50460172989,
    1.731478536981E+03));
#438 = CARTESIAN_POINT('',(3.189935434765E+03,-74.51155521989,
    1.73163102849E+03));
#439 = CARTESIAN_POINT('',(3.190152154341E+03,-74.51833049623,
    1.731772426538E+03));
#440 = CARTESIAN_POINT('',(3.190383624705E+03,-74.52474311893,
    1.731900853469E+03));
#441 = CARTESIAN_POINT('',(3.190629431083E+03,-74.530594487,
    1.73201429561E+03));
#442 = CARTESIAN_POINT('',(3.191057514978E+03,-74.53898584037,
    1.732173134192E+03));
#443 = CARTESIAN_POINT('',(3.191231808791E+03,-74.54196673097,
    1.732228422119E+03));
#444 = CARTESIAN_POINT('',(3.191411048199E+03,-74.5445564669,
    1.732275643442E+03));
#445 = CARTESIAN_POINT('',(3.191594383885E+03,-74.54669601395,
    1.732314138072E+03));
#446 = CARTESIAN_POINT('',(3.191780908481E+03,-74.54833722364,
    1.732343394726E+03));
#447 = CARTESIAN_POINT('',(3.191969672221E+03,-74.54944508893,
    1.732363053386E+03));
#448 = CARTESIAN_POINT('',(3.192159698594E+03,-74.55,1.732372907766E+03)
  );
#449 = CARTESIAN_POINT('',(3.19235E+03,-74.55,1.732372907766E+03));
#450 = PCURVE('',#31,#451);
#451 = DEFINITIONAL_REPRESENTATION('',(#452),#532);
#452 = B_SPLINE_CURVE_WITH_KNOTS('',8,(#453,#454,#455,#456,#457,#458,
    #459,#460,#461,#462,#463,#464,#465,#466,#467,#468,#469,#470,#471,
    #472,#473,#474,#475,#476,#477,#478,#479,#480,#481,#482,#483,#484,
    #485,#486,#487,#488,#489,#490,#491,#492,#493,#494,#495,#496,#497,
    #498,#499,#500,#501,#502,#503,#504,#505,#506,#507,#508,#509,#510,
    #511,#512,#513,#514,#515,#516,#517,#518,#519,#520,#521,#522,#523,
    #524,#525,#526,#527,#528,#529,#530,#531),.UNSPECIFIED.,.T.,.F.,(9,7,
    7,7,7,7,7,7,7,7,7,9),(0.,4.80911657251E-02,0.122125737518,
    0.183645990616,0.252529564635,0.421715478576,0.553810977345,
    0.6842137356,0.819573097129,0.880014975172,0.952751811127,1.),
  .UNSPECIFIED.);
#453 = CARTESIAN_POINT('',(-4.712388980385,-29.73405378235));
#454 = CARTESIAN_POINT('',(-4.714941648331,-29.73405378235));
#455 = CARTESIAN_POINT('',(-4.717490627195,-29.72419940111));
#456 = CARTESIAN_POINT('',(-4.720022694936,-29.70454074133));
#457 = CARTESIAN_POINT('',(-4.722524777429,-29.67528409031));
#458 = CARTESIAN_POINT('',(-4.724984156399,-29.63678946151));
#459 = CARTESIAN_POINT('',(-4.727388677353,-29.58956813612));
#460 = CARTESIAN_POINT('',(-4.729726957518,-29.53428020459));
#461 = CARTESIAN_POINT('',(-4.73547029919,-29.37544162619));
#462 = CARTESIAN_POINT('',(-4.738768405664,-29.26199948556));
#463 = CARTESIAN_POINT('',(-4.741874460607,-29.13357255478));
#464 = CARTESIAN_POINT('',(-4.744782884251,-28.99217450652));
#465 = CARTESIAN_POINT('',(-4.747490599106,-28.83968299773));
#466 = CARTESIAN_POINT('',(-4.749996691055,-28.6778555849));
#467 = CARTESIAN_POINT('',(-4.75230210207,-28.5083443747));
#468 = CARTESIAN_POINT('',(-4.756160410905,-28.18676262793));
#469 = CARTESIAN_POINT('',(-4.757778464461,-28.03626890919));
#470 = CARTESIAN_POINT('',(-4.759266515604,-27.88187536698));
#471 = CARTESIAN_POINT('',(-4.76062756411,-27.72414112717));
#472 = CARTESIAN_POINT('',(-4.761864518708,-27.56354779125));
#473 = CARTESIAN_POINT('',(-4.76298010663,-27.40050989961));
#474 = CARTESIAN_POINT('',(-4.763976783161,-27.23538539478));
#475 = CARTESIAN_POINT('',(-4.765841808884,-26.88161069974));
#476 = CARTESIAN_POINT('',(-4.766680518854,-26.69251094197));
#477 = CARTESIAN_POINT('',(-4.767375566709,-26.50165227922));
#478 = CARTESIAN_POINT('',(-4.76792924859,-26.30944391154));
#479 = CARTESIAN_POINT('',(-4.768343327171,-26.11625173124));
#480 = CARTESIAN_POINT('',(-4.768618997654,-25.92241128293));
#481 = CARTESIAN_POINT('',(-4.768756853768,-25.72824072353));
#482 = CARTESIAN_POINT('',(-4.768756853768,-25.05710850787));
#483 = CARTESIAN_POINT('',(-4.767925228832,-24.58146492444));
#484 = CARTESIAN_POINT('',(-4.766269990876,-24.11059411255));
#485 = CARTESIAN_POINT('',(-4.763764320496,-23.64853850337));
#486 = CARTESIAN_POINT('',(-4.76035895607,-23.20138733914));
#487 = CARTESIAN_POINT('',(-4.755990857021,-22.77820441045));
#488 = CARTESIAN_POINT('',(-4.750594621527,-22.39223176455));
#489 = CARTESIAN_POINT('',(-4.739083769582,-21.8074606133));
#490 = CARTESIAN_POINT('',(-4.733186876635,-21.57606269198));
#491 = CARTESIAN_POINT('',(-4.726579773365,-21.39685409493));
#492 = CARTESIAN_POINT('',(-4.719479536427,-21.2883114142));
#493 = CARTESIAN_POINT('',(-4.712166444808,-21.26029909104));
#494 = CARTESIAN_POINT('',(-4.704937482818,-21.31385869572));
#495 = CARTESIAN_POINT('',(-4.698074444867,-21.44098503927));
#496 = CARTESIAN_POINT('',(-4.685615763725,-21.80543286654));
#497 = CARTESIAN_POINT('',(-4.680061198139,-22.03967808734));
#498 = CARTESIAN_POINT('',(-4.675162170838,-22.31400942551));
#499 = CARTESIAN_POINT('',(-4.670911397208,-22.61832397071));
#500 = CARTESIAN_POINT('',(-4.667288441145,-22.94463962634));
#501 = CARTESIAN_POINT('',(-4.664267083544,-23.28666729365));
#502 = CARTESIAN_POINT('',(-4.661819445535,-23.63956803746));
#503 = CARTESIAN_POINT('',(-4.657951045933,-24.37336053855));
#504 = CARTESIAN_POINT('',(-4.656566645701,-24.75598200903));
#505 = CARTESIAN_POINT('',(-4.655745327265,-25.14382289621));
#506 = CARTESIAN_POINT('',(-4.655473199595,-25.53408700748));
#507 = CARTESIAN_POINT('',(-4.655745499211,-25.92433054524));
#508 = CARTESIAN_POINT('',(-4.656566750213,-26.3121252958));
#509 = CARTESIAN_POINT('',(-4.657950880784,-26.69471569926));
#510 = CARTESIAN_POINT('',(-4.660801177608,-27.23538539478));
#511 = CARTESIAN_POINT('',(-4.661797854139,-27.40050989961));
#512 = CARTESIAN_POINT('',(-4.662913442061,-27.56354779125));
#513 = CARTESIAN_POINT('',(-4.66415039666,-27.72414112717));
#514 = CARTESIAN_POINT('',(-4.665511445166,-27.88187536698));
#515 = CARTESIAN_POINT('',(-4.666999496309,-28.03626890919));
#516 = CARTESIAN_POINT('',(-4.668617549865,-28.18676262793));
#517 = CARTESIAN_POINT('',(-4.672475858699,-28.50834437463));
#518 = CARTESIAN_POINT('',(-4.674781269714,-28.67785558491));
#519 = CARTESIAN_POINT('',(-4.677287361664,-28.83968299777));
#520 = CARTESIAN_POINT('',(-4.679995076519,-28.99217450655));
#521 = CARTESIAN_POINT('',(-4.682903500162,-29.13357255477));
#522 = CARTESIAN_POINT('',(-4.686009555105,-29.26199948554));
#523 = CARTESIAN_POINT('',(-4.689307661579,-29.37544162618));
#524 = CARTESIAN_POINT('',(-4.69505100338,-29.53428020816));
#525 = CARTESIAN_POINT('',(-4.697389283332,-29.5895681358));
#526 = CARTESIAN_POINT('',(-4.699793804234,-29.63678945887));
#527 = CARTESIAN_POINT('',(-4.702253183347,-29.67528408883));
#528 = CARTESIAN_POINT('',(-4.704755265978,-29.70454074234));
#529 = CARTESIAN_POINT('',(-4.707287333653,-29.72419940291));
#530 = CARTESIAN_POINT('',(-4.709836312292,-29.73405378235));
#531 = CARTESIAN_POINT('',(-4.712388980385,-29.73405378235));
#532 = ( GEOMETRIC_REPRESENTATION_CONTEXT(2) 
PARAMETRIC_REPRESENTATION_CONTEXT() REPRESENTATION_CONTEXT('2D SPACE',''
  ) );
#533 = PCURVE('',#534,#539);
#534 = CYLINDRICAL_SURFACE('',#535,4.2);
#535 = AXIS2_PLACEMENT_3D('',#536,#537,#538);
#536 = CARTESIAN_POINT('',(3.19235E+03,-81.55,1.728172907766E+03));
#537 = DIRECTION('',(0.,1.,0.));
#538 = DIRECTION('',(0.,-0.,1.));
#539 = DEFINITIONAL_REPRESENTATION('',(#540),#620);
#540 = B_SPLINE_CURVE_WITH_KNOTS('',8,(#541,#542,#543,#544,#545,#546,
    #547,#548,#549,#550,#551,#552,#553,#554,#555,#556,#557,#558,#559,
    #560,#561,#562,#563,#564,#565,#566,#567,#568,#569,#570,#571,#572,
    #573,#574,#575,#576,#577,#578,#579,#580,#581,#582,#583,#584,#585,
    #586,#587,#588,#589,#590,#591,#592,#593,#594,#595,#596,#597,#598,
    #599,#600,#601,#602,#603,#604,#605,#606,#607,#608,#609,#610,#611,
    #612,#613,#614,#615,#616,#617,#618,#619),.UNSPECIFIED.,.F.,.F.,(9,7,
    7,7,7,7,7,7,7,7,7,9),(0.,4.80911657251E-02,0.122125737518,
    0.183645990616,0.252529564635,0.421715478576,0.553810977345,
    0.6842137356,0.819573097129,0.880014975172,0.952751811127,1.),
  .UNSPECIFIED.);
#541 = CARTESIAN_POINT('',(0.,7.));
#542 = CARTESIAN_POINT('',(4.530985604959E-02,7.));
#543 = CARTESIAN_POINT('',(9.055421384531E-02,7.000554911162));
#544 = CARTESIAN_POINT('',(0.135639738042,7.001662776406));
#545 = CARTESIAN_POINT('',(0.180473874211,7.003303985963));
#546 = CARTESIAN_POINT('',(0.224961748609,7.005443532959));
#547 = CARTESIAN_POINT('',(0.269003067947,7.00803326901));
#548 = CARTESIAN_POINT('',(0.312489019155,7.011014159812));
#549 = CARTESIAN_POINT('',(0.421203812471,7.01940551299));
#550 = CARTESIAN_POINT('',(0.485469882727,7.025256881063));
#551 = CARTESIAN_POINT('',(0.548212788256,7.031669503766));
#552 = CARTESIAN_POINT('',(0.609519130602,7.038444780112));
#553 = CARTESIAN_POINT('',(0.669455775713,7.045398270103));
#554 = CARTESIAN_POINT('',(0.728074903135,7.05236607094));
#555 = CARTESIAN_POINT('',(0.785415033199,7.059207948651));
#556 = CARTESIAN_POINT('',(0.888101128714,7.071291003213));
#557 = CARTESIAN_POINT('',(0.933938178236,7.076619268384));
#558 = CARTESIAN_POINT('',(0.979083745773,7.081731990757));
#559 = CARTESIAN_POINT('',(1.023607862246,7.086579076377));
#560 = CARTESIAN_POINT('',(1.067577193392,7.091119156848));
#561 = CARTESIAN_POINT('',(1.111056208667,7.09531837894));
#562 = CARTESIAN_POINT('',(1.154108350135,7.09914919419));
#563 = CARTESIAN_POINT('',(1.244595454717,7.10644082883));
#564 = CARTESIAN_POINT('',(1.291937986864,7.109802394376));
#565 = CARTESIAN_POINT('',(1.338905996298,7.112642092741));
#566 = CARTESIAN_POINT('',(1.385577224111,7.114935969095));
#567 = CARTESIAN_POINT('',(1.43202717176,7.116667094999));
#568 = CARTESIAN_POINT('',(1.478330318832,7.117824797215));
#569 = CARTESIAN_POINT('',(1.524561340801,7.118403886521));
#570 = CARTESIAN_POINT('',(1.684354725481,7.118403886521));
#571 = CARTESIAN_POINT('',(1.797603685091,7.114910938365));
#572 = CARTESIAN_POINT('',(1.911944526762,7.107959672925));
#573 = CARTESIAN_POINT('',(2.028608444704,7.097721887398));
#574 = CARTESIAN_POINT('',(2.148731203939,7.084563551));
#575 = CARTESIAN_POINT('',(2.273552969653,7.069171490227));
#576 = CARTESIAN_POINT('',(2.404399220707,7.052846057671));
#577 = CARTESIAN_POINT('',(2.651561068568,7.025612023768));
#578 = CARTESIAN_POINT('',(2.769049967057,7.013829234841));
#579 = CARTESIAN_POINT('',(2.89190277011,7.003815086832));
#580 = CARTESIAN_POINT('',(3.017792274169,6.997323270043));
#581 = CARTESIAN_POINT('',(3.144915543691,6.995704387619));
#582 = CARTESIAN_POINT('',(3.271621345441,6.998990183981));
#583 = CARTESIAN_POINT('',(3.396069400288,7.006172830408));
#584 = CARTESIAN_POINT('',(3.633582535741,7.025289833197));
#585 = CARTESIAN_POINT('',(3.74570315926,7.037076213876));
#586 = CARTESIAN_POINT('',(3.85296479273,7.049946483109));
#587 = CARTESIAN_POINT('',(3.956085683615,7.062852380157));
#588 = CARTESIAN_POINT('',(4.055661329546,7.075015529999));
#589 = CARTESIAN_POINT('',(4.152229627239,7.085905482287));
#590 = CARTESIAN_POINT('',(4.246296796948,7.095168102882));
#591 = CARTESIAN_POINT('',(4.433983366169,7.110292267766));
#592 = CARTESIAN_POINT('',(4.527750011719,7.116035083235));
#593 = CARTESIAN_POINT('',(4.620357951963,7.119563039265));
#594 = CARTESIAN_POINT('',(4.712396625527,7.120750917221));
#595 = CARTESIAN_POINT('',(4.80443101059,7.11956224508));
#596 = CARTESIAN_POINT('',(4.897028550428,7.116034733568));
#597 = CARTESIAN_POINT('',(4.990786581929,7.110292913444));
#598 = CARTESIAN_POINT('',(5.129076957045,7.09914919419));
#599 = CARTESIAN_POINT('',(5.172129098513,7.09531837894));
#600 = CARTESIAN_POINT('',(5.215608113788,7.091119156848));
#601 = CARTESIAN_POINT('',(5.259577444934,7.086579076377));
#602 = CARTESIAN_POINT('',(5.304101561407,7.081731990757));
#603 = CARTESIAN_POINT('',(5.349247128944,7.076619268384));
#604 = CARTESIAN_POINT('',(5.395084178466,7.071291003213));
#605 = CARTESIAN_POINT('',(5.497770273958,7.059207948654));
#606 = CARTESIAN_POINT('',(5.555110404044,7.052366070939));
#607 = CARTESIAN_POINT('',(5.613729531483,7.045398270101));
#608 = CARTESIAN_POINT('',(5.673666176591,7.03844478011));
#609 = CARTESIAN_POINT('',(5.734972518922,7.031669503766));
#610 = CARTESIAN_POINT('',(5.797715424441,7.025256881065));
#611 = CARTESIAN_POINT('',(5.861981494703,7.019405512991));
#612 = CARTESIAN_POINT('',(5.970696290464,7.011014159624));
#613 = CARTESIAN_POINT('',(6.014182237714,7.008033269028));
#614 = CARTESIAN_POINT('',(6.058223556042,7.005443533099));
#615 = CARTESIAN_POINT('',(6.102711433037,7.003303986041));
#616 = CARTESIAN_POINT('',(6.147545571741,7.001662776352));
#617 = CARTESIAN_POINT('',(6.192631094787,7.000554911066));
#618 = CARTESIAN_POINT('',(6.237875448528,7.));
#619 = CARTESIAN_POINT('',(6.28318530718,7.));
#620 = ( GEOMETRIC_REPRESENTATION_CONTEXT(2) 
PARAMETRIC_REPRESENTATION_CONTEXT() REPRESENTATION_CONTEXT('2D SPACE',''
  ) );
#621 = ADVANCED_FACE('',(#622,#625),#43,.F.);
#622 = FACE_BOUND('',#623,.F.);
#623 = EDGE_LOOP('',(#624));
#624 = ORIENTED_EDGE('',*,*,#21,.T.);
#625 = FACE_BOUND('',#626,.F.);
#626 = EDGE_LOOP('',(#627));
#627 = ORIENTED_EDGE('',*,*,#628,.F.);
#628 = EDGE_CURVE('',#629,#629,#631,.T.);
#629 = VERTEX_POINT('',#630);
#630 = CARTESIAN_POINT('',(3.2624E+03,3.812435872623E-15,
    1.702638853983E+03));
#631 = SURFACE_CURVE('',#632,(#637,#644),.PCURVE_S1.);
#632 = CIRCLE('',#633,70.05);
#633 = AXIS2_PLACEMENT_3D('',#634,#635,#636);
#634 = CARTESIAN_POINT('',(3.19235E+03,3.812435872623E-15,
    1.702638853983E+03));
#635 = DIRECTION('',(0.,0.,1.));
#636 = DIRECTION('',(1.,0.,0.));
#637 = PCURVE('',#43,#638);
#638 = DEFINITIONAL_REPRESENTATION('',(#639),#643);
#639 = CIRCLE('',#640,70.05);
#640 = AXIS2_PLACEMENT_2D('',#641,#642);
#641 = CARTESIAN_POINT('',(0.,-2.535723241425E-15));
#642 = DIRECTION('',(1.,0.));
#643 = ( GEOMETRIC_REPRESENTATION_CONTEXT(2) 
PARAMETRIC_REPRESENTATION_CONTEXT() REPRESENTATION_CONTEXT('2D SPACE',''
  ) );
#644 = PCURVE('',#645,#650);
#645 = CYLINDRICAL_SURFACE('',#646,70.05);
#646 = AXIS2_PLACEMENT_3D('',#647,#648,#649);
#647 = CARTESIAN_POINT('',(3.19235E+03,3.812435872623E-15,
    1.702638853983E+03));
#648 = DIRECTION('',(-0.,-0.,-1.));
#649 = DIRECTION('',(1.,0.,0.));
#650 = DEFINITIONAL_REPRESENTATION('',(#651),#655);
#651 = LINE('',#652,#653);
#652 = CARTESIAN_POINT('',(-0.,0.));
#653 = VECTOR('',#654,1.);
#654 = DIRECTION('',(-1.,0.));
#655 = ( GEOMETRIC_REPRESENTATION_CONTEXT(2) 
PARAMETRIC_REPRESENTATION_CONTEXT() REPRESENTATION_CONTEXT('2D SPACE',''
  ) );
#656 = ADVANCED_FACE('',(#657,#660),#93,.T.);
#657 = FACE_BOUND('',#658,.T.);
#658 = EDGE_LOOP('',(#659));
#659 = ORIENTED_EDGE('',*,*,#78,.T.);
#660 = FACE_BOUND('',#661,.T.);
#661 = EDGE_LOOP('',(#662));
#662 = ORIENTED_EDGE('',*,*,#663,.F.);
#663 = EDGE_CURVE('',#664,#664,#666,.T.);
#664 = VERTEX_POINT('',#665);
#665 = CARTESIAN_POINT('',(3.2624E+03,3.812435872623E-15,
    1.753706961548E+03));
#666 = SURFACE_CURVE('',#667,(#672,#679),.PCURVE_S1.);
#667 = CIRCLE('',#668,70.05);
#668 = AXIS2_PLACEMENT_3D('',#669,#670,#671);
#669 = CARTESIAN_POINT('',(3.19235E+03,3.812435872623E-15,
    1.753706961548E+03));
#670 = DIRECTION('',(0.,0.,1.));
#671 = DIRECTION('',(1.,0.,0.));
#672 = PCURVE('',#93,#673);
#673 = DEFINITIONAL_REPRESENTATION('',(#674),#678);
#674 = CIRCLE('',#675,70.05);
#675 = AXIS2_PLACEMENT_2D('',#676,#677);
#676 = CARTESIAN_POINT('',(0.,-2.535723241425E-15));
#677 = DIRECTION('',(1.,0.));
#678 = ( GEOMETRIC_REPRESENTATION_CONTEXT(2) 
PARAMETRIC_REPRESENTATION_CONTEXT() REPRESENTATION_CONTEXT('2D SPACE',''
  ) );
#679 = PCURVE('',#645,#680);
#680 = DEFINITIONAL_REPRESENTATION('',(#681),#685);
#681 = LINE('',#682,#683);
#682 = CARTESIAN_POINT('',(-0.,-51.06810756471));
#683 = VECTOR('',#684,1.);
#684 = DIRECTION('',(-1.,0.));
#685 = ( GEOMETRIC_REPRESENTATION_CONTEXT(2) 
PARAMETRIC_REPRESENTATION_CONTEXT() REPRESENTATION_CONTEXT('2D SPACE',''
  ) );
#686 = ADVANCED_FACE('',(#687),#276,.F.);
#687 = FACE_BOUND('',#688,.F.);
#688 = EDGE_LOOP('',(#689,#690,#713,#962));
#689 = ORIENTED_EDGE('',*,*,#108,.F.);
#690 = ORIENTED_EDGE('',*,*,#691,.F.);
#691 = EDGE_CURVE('',#692,#109,#694,.T.);
#692 = VERTEX_POINT('',#693);
#693 = CARTESIAN_POINT('',(3.19235E+03,70.049999999984,
    1.732372907766E+03));
#694 = SEAM_CURVE('',#695,(#699,#706),.PCURVE_S1.);
#695 = LINE('',#696,#697);
#696 = CARTESIAN_POINT('',(3.19235E+03,-81.55,1.732372907766E+03));
#697 = VECTOR('',#698,1.);
#698 = DIRECTION('',(0.,1.,0.));
#699 = PCURVE('',#276,#700);
#700 = DEFINITIONAL_REPRESENTATION('',(#701),#705);
#701 = LINE('',#702,#703);
#702 = CARTESIAN_POINT('',(6.28318530718,-0.));
#703 = VECTOR('',#704,1.);
#704 = DIRECTION('',(0.,1.));
#705 = ( GEOMETRIC_REPRESENTATION_CONTEXT(2) 
PARAMETRIC_REPRESENTATION_CONTEXT() REPRESENTATION_CONTEXT('2D SPACE',''
  ) );
#706 = PCURVE('',#276,#707);
#707 = DEFINITIONAL_REPRESENTATION('',(#708),#712);
#708 = LINE('',#709,#710);
#709 = CARTESIAN_POINT('',(0.,-0.));
#710 = VECTOR('',#711,1.);
#711 = DIRECTION('',(0.,1.));
#712 = ( GEOMETRIC_REPRESENTATION_CONTEXT(2) 
PARAMETRIC_REPRESENTATION_CONTEXT() REPRESENTATION_CONTEXT('2D SPACE',''
  ) );
#713 = ORIENTED_EDGE('',*,*,#714,.T.);
#714 = EDGE_CURVE('',#692,#692,#715,.T.);
#715 = SURFACE_CURVE('',#716,(#796,#879),.PCURVE_S1.);
#716 = B_SPLINE_CURVE_WITH_KNOTS('',8,(#717,#718,#719,#720,#721,#722,
    #723,#724,#725,#726,#727,#728,#729,#730,#731,#732,#733,#734,#735,
    #736,#737,#738,#739,#740,#741,#742,#743,#744,#745,#746,#747,#748,
    #749,#750,#751,#752,#753,#754,#755,#756,#757,#758,#759,#760,#761,
    #762,#763,#764,#765,#766,#767,#768,#769,#770,#771,#772,#773,#774,
    #775,#776,#777,#778,#779,#780,#781,#782,#783,#784,#785,#786,#787,
    #788,#789,#790,#791,#792,#793,#794,#795),.UNSPECIFIED.,.T.,.F.,(9,7,
    7,7,7,7,7,7,7,7,7,9),(0.,4.809148082016E-02,0.12212982158,
    0.183651887154,0.252534778482,0.421724560415,0.553819729886,
    0.684223204922,0.819575242004,0.880016242445,0.952753582206,1.),
  .UNSPECIFIED.);
#717 = CARTESIAN_POINT('',(3.19235E+03,70.05,1.732372907766E+03));
#718 = CARTESIAN_POINT('',(3.192540304341E+03,70.05,1.732372907766E+03)
  );
#719 = CARTESIAN_POINT('',(3.192730333108E+03,70.049409423171,
    1.732363053081E+03));
#720 = CARTESIAN_POINT('',(3.192919098565E+03,70.048230358487,
    1.732343393913E+03));
#721 = CARTESIAN_POINT('',(3.193105624059E+03,70.046483680284,
    1.732314136681E+03));
#722 = CARTESIAN_POINT('',(3.19328895967E+03,70.044206648939,
    1.732275641574E+03));
#723 = CARTESIAN_POINT('',(3.193468197861E+03,70.041450511541,
    1.732228420106E+03));
#724 = CARTESIAN_POINT('',(3.193642489124E+03,70.038278102571,
    1.73217313267E+03));
#725 = CARTESIAN_POINT('',(3.194070574127E+03,70.029347439456,
    1.732014293676E+03));
#726 = CARTESIAN_POINT('',(3.194316382401E+03,70.023119882116,
    1.73190084994E+03));
#727 = CARTESIAN_POINT('',(3.194547852347E+03,70.016294971936,
    1.731772422323E+03));
#728 = CARTESIAN_POINT('',(3.194764570171E+03,70.009084052047,
    1.731631024651E+03));
#729 = CARTESIAN_POINT('',(3.194966310075E+03,70.001683385783,
    1.731478534382E+03));
#730 = CARTESIAN_POINT('',(3.195153008359E+03,69.99426738229,
    1.731316708571E+03));
#731 = CARTESIAN_POINT('',(3.19532473991E+03,69.986985271275,
    1.731147198561E+03));
#732 = CARTESIAN_POINT('',(3.195612120465E+03,69.974124606144,
    1.730825619572E+03));
#733 = CARTESIAN_POINT('',(3.195732627302E+03,69.968453406668,
    1.730675128271E+03));
#734 = CARTESIAN_POINT('',(3.195843443301E+03,69.963011524734,
    1.730520736409E+03));
#735 = CARTESIAN_POINT('',(3.195944794005E+03,69.957852289248,
    1.730363002952E+03));
#736 = CARTESIAN_POINT('',(3.196036898029E+03,69.953019748058,
    1.730202409373E+03));
#737 = CARTESIAN_POINT('',(3.196119960272E+03,69.948549954248,
    1.730039370122E+03));
#738 = CARTESIAN_POINT('',(3.196194165136E+03,69.944472252426,
    1.729874243089E+03));
#739 = CARTESIAN_POINT('',(3.196333011671E+03,69.936710773917,
    1.729520467886E+03));
#740 = CARTESIAN_POINT('',(3.196395446728E+03,69.933132599934,
    1.729331370154E+03));
#741 = CARTESIAN_POINT('',(3.196447184881E+03,69.93010986978,
    1.729140512376E+03));
#742 = CARTESIAN_POINT('',(3.196488398532E+03,69.927668109215,
    1.728948303881E+03));
#743 = CARTESIAN_POINT('',(3.196519219993E+03,69.925825361437,
    1.72875511076E+03));
#744 = CARTESIAN_POINT('',(3.196539738963E+03,69.924593005472,
    1.728561268809E+03));
#745 = CARTESIAN_POINT('',(3.19655E+03,69.923976574563,
    1.728367096468E+03));
#746 = CARTESIAN_POINT('',(3.19655E+03,69.923976574563,
    1.727695942534E+03));
#747 = CARTESIAN_POINT('',(3.196488095645E+03,69.927695004894,
    1.727220281541E+03));
#748 = CARTESIAN_POINT('',(3.196364884483E+03,69.935094934351,
    1.726749399414E+03));
#749 = CARTESIAN_POINT('',(3.196178356947E+03,69.945993117104,
    1.726287341197E+03));
#750 = CARTESIAN_POINT('',(3.195924819056E+03,69.959999443585,
    1.725840196557E+03));
#751 = CARTESIAN_POINT('',(3.195599532947E+03,69.976382242421,
    1.725417027263E+03));
#752 = CARTESIAN_POINT('',(3.195197569337E+03,69.993757411043,
    1.725031071342E+03));
#753 = CARTESIAN_POINT('',(3.194339914749E+03,70.022741298522,
    1.724446332345E+03));
#754 = CARTESIAN_POINT('',(3.193900462734E+03,70.035281559524,
    1.724214931009E+03));
#755 = CARTESIAN_POINT('',(3.193407985501E+03,70.04593958556,
    1.724035714204E+03));
#756 = CARTESIAN_POINT('',(3.192878656843E+03,70.052848630857,
    1.723927165406E+03));
#757 = CARTESIAN_POINT('',(3.192333411166E+03,70.054571691782,
    1.723899150112E+03));
#758 = CARTESIAN_POINT('',(3.191794463683E+03,70.051074864342,
    1.723952710571E+03));
#759 = CARTESIAN_POINT('',(3.191282857606E+03,70.043430611251,
    1.724079840247E+03));
#760 = CARTESIAN_POINT('',(3.1903542622E+03,70.023085018815,
    1.724444287088E+03));
#761 = CARTESIAN_POINT('',(3.189940327813E+03,70.01054100549,
    1.72467853108E+03));
#762 = CARTESIAN_POINT('',(3.18957532519E+03,69.996843219366,
    1.724952858484E+03));
#763 = CARTESIAN_POINT('',(3.189258689986E+03,69.983107126062,
    1.725257167091E+03));
#764 = CARTESIAN_POINT('',(3.188988870933E+03,69.970161082707,
    1.725583476876E+03));
#765 = CARTESIAN_POINT('',(3.188763888542E+03,69.958569721293,
    1.725925501825E+03));
#766 = CARTESIAN_POINT('',(3.188581646796E+03,69.948710116027,
    1.726278406791E+03));
#767 = CARTESIAN_POINT('',(3.188293651024E+03,69.932611241164,
    1.727012208052E+03));
#768 = CARTESIAN_POINT('',(3.188190602369E+03,69.926498218024,
    1.727394827893E+03));
#769 = CARTESIAN_POINT('',(3.188129472906E+03,69.922742678165,
    1.727782671563E+03));
#770 = CARTESIAN_POINT('',(3.188109219842E+03,69.921478141249,
    1.72817294099E+03));
#771 = CARTESIAN_POINT('',(3.1881294857E+03,69.922743523411,
    1.72856318985E+03));
#772 = CARTESIAN_POINT('',(3.188190610153E+03,69.926498590352,
    1.728950987396E+03));
#773 = CARTESIAN_POINT('',(3.188293638736E+03,69.932610554298,
    1.729333576172E+03));
#774 = CARTESIAN_POINT('',(3.188505834864E+03,69.944472252426,
    1.729874243089E+03));
#775 = CARTESIAN_POINT('',(3.188580039728E+03,69.948549954248,
    1.730039370122E+03));
#776 = CARTESIAN_POINT('',(3.188663101971E+03,69.953019748058,
    1.730202409373E+03));
#777 = CARTESIAN_POINT('',(3.188755205995E+03,69.957852289248,
    1.730363002952E+03));
#778 = CARTESIAN_POINT('',(3.188856556699E+03,69.963011524734,
    1.730520736409E+03));
#779 = CARTESIAN_POINT('',(3.188967372698E+03,69.968453406668,
    1.730675128271E+03));
#780 = CARTESIAN_POINT('',(3.189087879535E+03,69.974124606144,
    1.730825619572E+03));
#781 = CARTESIAN_POINT('',(3.18937526009E+03,69.986985271275,
    1.731147198561E+03));
#782 = CARTESIAN_POINT('',(3.189546991641E+03,69.99426738229,
    1.731316708571E+03));
#783 = CARTESIAN_POINT('',(3.189733689925E+03,70.001683385783,
    1.731478534382E+03));
#784 = CARTESIAN_POINT('',(3.189935429829E+03,70.009084052047,
    1.731631024651E+03));
#785 = CARTESIAN_POINT('',(3.190152147653E+03,70.016294971936,
    1.731772422323E+03));
#786 = CARTESIAN_POINT('',(3.190383617599E+03,70.023119882115,
    1.73190084994E+03));
#787 = CARTESIAN_POINT('',(3.190629425873E+03,70.029347439456,
    1.732014293676E+03));
#788 = CARTESIAN_POINT('',(3.191057510876E+03,70.038278102571,
    1.73217313267E+03));
#789 = CARTESIAN_POINT('',(3.191231802139E+03,70.041450511541,
    1.732228420106E+03));
#790 = CARTESIAN_POINT('',(3.19141104033E+03,70.044206648939,
    1.732275641574E+03));
#791 = CARTESIAN_POINT('',(3.191594375941E+03,70.046483680284,
    1.732314136681E+03));
#792 = CARTESIAN_POINT('',(3.191780901435E+03,70.048230358487,
    1.732343393913E+03));
#793 = CARTESIAN_POINT('',(3.191969666892E+03,70.049409423171,
    1.732363053081E+03));
#794 = CARTESIAN_POINT('',(3.192159695659E+03,70.05,1.732372907766E+03)
  );
#795 = CARTESIAN_POINT('',(3.19235E+03,70.05,1.732372907766E+03));
#796 = PCURVE('',#276,#797);
#797 = DEFINITIONAL_REPRESENTATION('',(#798),#878);
#798 = B_SPLINE_CURVE_WITH_KNOTS('',8,(#799,#800,#801,#802,#803,#804,
    #805,#806,#807,#808,#809,#810,#811,#812,#813,#814,#815,#816,#817,
    #818,#819,#820,#821,#822,#823,#824,#825,#826,#827,#828,#829,#830,
    #831,#832,#833,#834,#835,#836,#837,#838,#839,#840,#841,#842,#843,
    #844,#845,#846,#847,#848,#849,#850,#851,#852,#853,#854,#855,#856,
    #857,#858,#859,#860,#861,#862,#863,#864,#865,#866,#867,#868,#869,
    #870,#871,#872,#873,#874,#875,#876,#877),.UNSPECIFIED.,.F.,.F.,(9,7,
    7,7,7,7,7,7,7,7,7,9),(0.,4.809148082016E-02,0.12212982158,
    0.183651887154,0.252534778482,0.421724560415,0.553819729886,
    0.684223204922,0.819575242004,0.880016242445,0.952753582206,1.),
  .UNSPECIFIED.);
#799 = CARTESIAN_POINT('',(0.,151.6));
#800 = CARTESIAN_POINT('',(4.531055739755E-02,151.6));
#801 = CARTESIAN_POINT('',(9.055548162976E-02,151.59940942317));
#802 = CARTESIAN_POINT('',(0.135641419798,151.59823035848));
#803 = CARTESIAN_POINT('',(0.180475788062,151.59648368028));
#804 = CARTESIAN_POINT('',(0.224963671047,151.59420664893));
#805 = CARTESIAN_POINT('',(0.269004721255,151.59145051154));
#806 = CARTESIAN_POINT('',(0.312490058468,151.58827810257));
#807 = CARTESIAN_POINT('',(0.421205135674,151.57934743945));
#808 = CARTESIAN_POINT('',(0.485471761385,151.57311988211));
#809 = CARTESIAN_POINT('',(0.548214656236,151.56629497193));
#810 = CARTESIAN_POINT('',(0.609520609056,151.55908405204));
#811 = CARTESIAN_POINT('',(0.669456670808,151.55168338578));
#812 = CARTESIAN_POINT('',(0.728075214005,151.54426738229));
#813 = CARTESIAN_POINT('',(0.785414968294,151.53698527127));
#814 = CARTESIAN_POINT('',(0.888100183213,151.52412460614));
#815 = CARTESIAN_POINT('',(0.933936550989,151.51845340666));
#816 = CARTESIAN_POINT('',(0.979081706007,151.51301152473));
#817 = CARTESIAN_POINT('',(1.023605683167,151.50785228924));
#818 = CARTESIAN_POINT('',(1.067575150283,151.50301974805));
#819 = CARTESIAN_POINT('',(1.111054576566,151.49854995424));
#820 = CARTESIAN_POINT('',(1.154107401109,151.49447225242));
#821 = CARTESIAN_POINT('',(1.24459463542,151.48671077391));
#822 = CARTESIAN_POINT('',(1.291936684801,151.48313259993));
#823 = CARTESIAN_POINT('',(1.338904503535,151.48010986978));
#824 = CARTESIAN_POINT('',(1.385575782165,151.47766810921));
#825 = CARTESIAN_POINT('',(1.432025966365,151.47582536143));
#826 = CARTESIAN_POINT('',(1.478329475545,151.47459300547));
#827 = CARTESIAN_POINT('',(1.524560921455,151.47397657456));
#828 = CARTESIAN_POINT('',(1.684359477182,151.47397657456));
#829 = CARTESIAN_POINT('',(1.797612581388,151.47769500489));
#830 = CARTESIAN_POINT('',(1.911956399984,151.48509493435));
#831 = CARTESIAN_POINT('',(2.028621667856,151.4959931171));
#832 = CARTESIAN_POINT('',(2.148743946644,151.50999944358));
#833 = CARTESIAN_POINT('',(2.273563295394,151.52638224242));
#834 = CARTESIAN_POINT('',(2.404405309499,151.54375741104));
#835 = CARTESIAN_POINT('',(2.651553567124,151.57274129852));
#836 = CARTESIAN_POINT('',(2.76904118453,151.58528155952));
#837 = CARTESIAN_POINT('',(2.891895152445,151.59593958556));
#838 = CARTESIAN_POINT('',(3.017786767556,151.60284863085));
#839 = CARTESIAN_POINT('',(3.144912429344,151.60457169178));
#840 = CARTESIAN_POINT('',(3.271620527271,151.60107486434));
#841 = CARTESIAN_POINT('',(3.396070198211,151.59343061125));
#842 = CARTESIAN_POINT('',(3.633582690732,151.57308501881));
#843 = CARTESIAN_POINT('',(3.745702407636,151.56054100549));
#844 = CARTESIAN_POINT('',(3.852962558145,151.54684321936));
#845 = CARTESIAN_POINT('',(3.956081849418,151.53310712606));
#846 = CARTESIAN_POINT('',(4.055656281363,151.5201610827));
#847 = CARTESIAN_POINT('',(4.152224330153,151.50856972129));
#848 = CARTESIAN_POINT('',(4.246292901634,151.49871011602));
#849 = CARTESIAN_POINT('',(4.433981711216,151.48261124116));
#850 = CARTESIAN_POINT('',(4.527748082002,151.47649821802));
#851 = CARTESIAN_POINT('',(4.620356736336,151.47274267816));
#852 = CARTESIAN_POINT('',(4.712396625445,151.47147814124));
#853 = CARTESIAN_POINT('',(4.804432227394,151.47274352341));
#854 = CARTESIAN_POINT('',(4.897030484086,151.47649859035));
#855 = CARTESIAN_POINT('',(4.990788241722,151.48261055429));
#856 = CARTESIAN_POINT('',(5.129077906071,151.49447225242));
#857 = CARTESIAN_POINT('',(5.172130730614,151.49854995424));
#858 = CARTESIAN_POINT('',(5.215610156897,151.50301974805));
#859 = CARTESIAN_POINT('',(5.259579624012,151.50785228924));
#860 = CARTESIAN_POINT('',(5.304103601172,151.51301152473));
#861 = CARTESIAN_POINT('',(5.349248756191,151.51845340666));
#862 = CARTESIAN_POINT('',(5.395085123967,151.52412460614));
#863 = CARTESIAN_POINT('',(5.497770338886,151.53698527127));
#864 = CARTESIAN_POINT('',(5.555110093175,151.54426738229));
#865 = CARTESIAN_POINT('',(5.613728636372,151.55168338578));
#866 = CARTESIAN_POINT('',(5.673664698124,151.55908405204));
#867 = CARTESIAN_POINT('',(5.734970650944,151.56629497193));
#868 = CARTESIAN_POINT('',(5.797713545794,151.57311988211));
#869 = CARTESIAN_POINT('',(5.861980171506,151.57934743945));
#870 = CARTESIAN_POINT('',(5.970695248714,151.58827810257));
#871 = CARTESIAN_POINT('',(6.014180585922,151.59145051154));
#872 = CARTESIAN_POINT('',(6.05822163613,151.59420664893));
#873 = CARTESIAN_POINT('',(6.102709519118,151.59648368028));
#874 = CARTESIAN_POINT('',(6.147543887385,151.59823035848));
#875 = CARTESIAN_POINT('',(6.192629825551,151.59940942317));
#876 = CARTESIAN_POINT('',(6.237874749779,151.6));
#877 = CARTESIAN_POINT('',(6.28318530718,151.6));
#878 = ( GEOMETRIC_REPRESENTATION_CONTEXT(2) 
PARAMETRIC_REPRESENTATION_CONTEXT() REPRESENTATION_CONTEXT('2D SPACE',''
  ) );
#879 = PCURVE('',#645,#880);
#880 = DEFINITIONAL_REPRESENTATION('',(#881),#961);
#881 = B_SPLINE_CURVE_WITH_KNOTS('',8,(#882,#883,#884,#885,#886,#887,
    #888,#889,#890,#891,#892,#893,#894,#895,#896,#897,#898,#899,#900,
    #901,#902,#903,#904,#905,#906,#907,#908,#909,#910,#911,#912,#913,
    #914,#915,#916,#917,#918,#919,#920,#921,#922,#923,#924,#925,#926,
    #927,#928,#929,#930,#931,#932,#933,#934,#935,#936,#937,#938,#939,
    #940,#941,#942,#943,#944,#945,#946,#947,#948,#949,#950,#951,#952,
    #953,#954,#955,#956,#957,#958,#959,#960),.UNSPECIFIED.,.T.,.F.,(9,7,
    7,7,7,7,7,7,7,7,7,9),(0.,4.809148082016E-02,0.12212982158,
    0.183651887154,0.252534778482,0.421724560415,0.553819729886,
    0.684223204922,0.819575242004,0.880016242445,0.952753582206,1.),
  .UNSPECIFIED.);
#882 = CARTESIAN_POINT('',(-1.570796326795,-29.73405378235));
#883 = CARTESIAN_POINT('',(-1.568079633846,-29.73405378235));
#884 = CARTESIAN_POINT('',(-1.565366875096,-29.72419909722));
#885 = CARTESIAN_POINT('',(-1.562672119705,-29.70453992947));
#886 = CARTESIAN_POINT('',(-1.560009280181,-29.67528269763));
#887 = CARTESIAN_POINT('',(-1.55739189117,-29.6367875907));
#888 = CARTESIAN_POINT('',(-1.554832888256,-29.58956612249));
#889 = CARTESIAN_POINT('',(-1.552344386746,-29.5342786861));
#890 = CARTESIAN_POINT('',(-1.546231922102,-29.37543969291));
#891 = CARTESIAN_POINT('',(-1.542721791,-29.2619959564));
#892 = CARTESIAN_POINT('',(-1.539416046618,-29.13356833945));
#893 = CARTESIAN_POINT('',(-1.536320615467,-28.99217066776));
#894 = CARTESIAN_POINT('',(-1.533438765198,-28.83968039845));
#895 = CARTESIAN_POINT('',(-1.530771464946,-28.67785458746));
#896 = CARTESIAN_POINT('',(-1.528317711944,-28.50834457796));
#897 = CARTESIAN_POINT('',(-1.524211099857,-28.18676558896));
#898 = CARTESIAN_POINT('',(-1.52248890286,-28.03627428723));
#899 = CARTESIAN_POINT('',(-1.520905046083,-27.88188242538));
#900 = CARTESIAN_POINT('',(-1.519456343067,-27.72414896809));
#901 = CARTESIAN_POINT('',(-1.518139704316,-27.56355538948));
#902 = CARTESIAN_POINT('',(-1.516952233381,-27.40051613864));
#903 = CARTESIAN_POINT('',(-1.51589132294,-27.23538910515));
#904 = CARTESIAN_POINT('',(-1.513906122395,-26.88161390292));
#905 = CARTESIAN_POINT('',(-1.5130133679,-26.69251617054));
#906 = CARTESIAN_POINT('',(-1.512273520277,-26.50165839284));
#907 = CARTESIAN_POINT('',(-1.511684142692,-26.30944989773));
#908 = CARTESIAN_POINT('',(-1.511243364597,-26.11625677661));
#909 = CARTESIAN_POINT('',(-1.510949917736,-25.92241482527));
#910 = CARTESIAN_POINT('',(-1.510803172143,-25.72824248478));
#911 = CARTESIAN_POINT('',(-1.510803172143,-25.05708855073));
#912 = CARTESIAN_POINT('',(-1.511688481471,-24.58142755784));
#913 = CARTESIAN_POINT('',(-1.51345055513,-24.11054543098));
#914 = CARTESIAN_POINT('',(-1.516117866402,-23.64848721359));
#915 = CARTESIAN_POINT('',(-1.519742734398,-23.20134257399));
#916 = CARTESIAN_POINT('',(-1.52439210916,-22.77817328006));
#917 = CARTESIAN_POINT('',(-1.530135451146,-22.3922173588));
#918 = CARTESIAN_POINT('',(-1.542385903604,-21.80747836129));
#919 = CARTESIAN_POINT('',(-1.548661774503,-21.57607702531));
#920 = CARTESIAN_POINT('',(-1.555693512308,-21.39686022019));
#921 = CARTESIAN_POINT('',(-1.563249996525,-21.2883114226));
#922 = CARTESIAN_POINT('',(-1.571032947465,-21.26029612882));
#923 = CARTESIAN_POINT('',(-1.578726409639,-21.31385658788));
#924 = CARTESIAN_POINT('',(-1.586030487841,-21.44098626363));
#925 = CARTESIAN_POINT('',(-1.599289849238,-21.80543310436));
#926 = CARTESIAN_POINT('',(-1.605201480945,-22.03967709702));
#927 = CARTESIAN_POINT('',(-1.610415553553,-22.31400450012));
#928 = CARTESIAN_POINT('',(-1.614939821365,-22.61831310713));
#929 = CARTESIAN_POINT('',(-1.618796010706,-22.94462289282));
#930 = CARTESIAN_POINT('',(-1.622011990203,-23.2866478418));
#931 = CARTESIAN_POINT('',(-1.624617386511,-23.63955280806));
#932 = CARTESIAN_POINT('',(-1.628735093611,-24.37335406823));
#933 = CARTESIAN_POINT('',(-1.630208744187,-24.75597390922));
#934 = CARTESIAN_POINT('',(-1.631083044369,-25.14381757962));
#935 = CARTESIAN_POINT('',(-1.631372732301,-25.53408700692));
#936 = CARTESIAN_POINT('',(-1.63108286138,-25.92433586697));
#937 = CARTESIAN_POINT('',(-1.63020863291,-26.3121334127));
#938 = CARTESIAN_POINT('',(-1.628735269295,-26.6947221885));
#939 = CARTESIAN_POINT('',(-1.62570133065,-27.23538910515));
#940 = CARTESIAN_POINT('',(-1.624640420209,-27.40051613864));
#941 = CARTESIAN_POINT('',(-1.623452949273,-27.56355538948));
#942 = CARTESIAN_POINT('',(-1.622136310523,-27.72414896809));
#943 = CARTESIAN_POINT('',(-1.620687607507,-27.88188242538));
#944 = CARTESIAN_POINT('',(-1.61910375073,-28.03627428723));
#945 = CARTESIAN_POINT('',(-1.617381553732,-28.18676558896));
#946 = CARTESIAN_POINT('',(-1.613274941646,-28.50834457796));
#947 = CARTESIAN_POINT('',(-1.610821188644,-28.67785458746));
#948 = CARTESIAN_POINT('',(-1.608153888392,-28.83968039845));
#949 = CARTESIAN_POINT('',(-1.605272038123,-28.99217066776));
#950 = CARTESIAN_POINT('',(-1.602176606972,-29.13356833945));
#951 = CARTESIAN_POINT('',(-1.59887086259,-29.2619959564));
#952 = CARTESIAN_POINT('',(-1.595360731488,-29.37543969291));
#953 = CARTESIAN_POINT('',(-1.589248266843,-29.5342786861));
#954 = CARTESIAN_POINT('',(-1.586759765334,-29.58956612249));
#955 = CARTESIAN_POINT('',(-1.58420076242,-29.6367875907));
#956 = CARTESIAN_POINT('',(-1.581583373409,-29.67528269763));
#957 = CARTESIAN_POINT('',(-1.578920533885,-29.70453992947));
#958 = CARTESIAN_POINT('',(-1.576225778494,-29.72419909722));
#959 = CARTESIAN_POINT('',(-1.573513019744,-29.73405378235));
#960 = CARTESIAN_POINT('',(-1.570796326795,-29.73405378235));
#961 = ( GEOMETRIC_REPRESENTATION_CONTEXT(2) 
PARAMETRIC_REPRESENTATION_CONTEXT() REPRESENTATION_CONTEXT('2D SPACE',''
  ) );
#962 = ORIENTED_EDGE('',*,*,#691,.T.);
#963 = ADVANCED_FACE('',(#964),#534,.F.);
#964 = FACE_BOUND('',#965,.F.);
#965 = EDGE_LOOP('',(#966,#1217,#1238,#1239));
#966 = ORIENTED_EDGE('',*,*,#967,.F.);
#967 = EDGE_CURVE('',#968,#968,#970,.T.);
#968 = VERTEX_POINT('',#969);
#969 = CARTESIAN_POINT('',(3.19235E+03,-70.04999999998,
    1.732372907766E+03));
#970 = SURFACE_CURVE('',#971,(#1051,#1134),.PCURVE_S1.);
#971 = B_SPLINE_CURVE_WITH_KNOTS('',8,(#972,#973,#974,#975,#976,#977,
    #978,#979,#980,#981,#982,#983,#984,#985,#986,#987,#988,#989,#990,
    #991,#992,#993,#994,#995,#996,#997,#998,#999,#1000,#1001,#1002,#1003
    ,#1004,#1005,#1006,#1007,#1008,#1009,#1010,#1011,#1012,#1013,#1014,
    #1015,#1016,#1017,#1018,#1019,#1020,#1021,#1022,#1023,#1024,#1025,
    #1026,#1027,#1028,#1029,#1030,#1031,#1032,#1033,#1034,#1035,#1036,
    #1037,#1038,#1039,#1040,#1041,#1042,#1043,#1044,#1045,#1046,#1047,
    #1048,#1049,#1050),.UNSPECIFIED.,.T.,.F.,(9,7,7,7,7,7,7,7,7,7,7,9),(
    0.,4.809148108132E-02,0.122129822214,0.183651883744,0.252534775359,
    0.421724557999,0.553819728019,0.684223203597,0.819575241242,
    0.880016241934,0.952753581999,1.),.UNSPECIFIED.);
#972 = CARTESIAN_POINT('',(3.19235E+03,-70.05,1.732372907766E+03));
#973 = CARTESIAN_POINT('',(3.192540304341E+03,-70.05,1.732372907766E+03)
  );
#974 = CARTESIAN_POINT('',(3.192730333108E+03,-70.04940942317,
    1.732363053081E+03));
#975 = CARTESIAN_POINT('',(3.192919098565E+03,-70.04823035848,
    1.732343393913E+03));
#976 = CARTESIAN_POINT('',(3.193105624059E+03,-70.04648368028,
    1.732314136681E+03));
#977 = CARTESIAN_POINT('',(3.19328895967E+03,-70.04420664893,
    1.732275641574E+03));
#978 = CARTESIAN_POINT('',(3.193468197861E+03,-70.04145051154,
    1.732228420106E+03));
#979 = CARTESIAN_POINT('',(3.193642489124E+03,-70.03827810257,
    1.73217313267E+03));
#980 = CARTESIAN_POINT('',(3.194070574127E+03,-70.02934743945,
    1.732014293676E+03));
#981 = CARTESIAN_POINT('',(3.194316382401E+03,-70.02311988211,
    1.73190084994E+03));
#982 = CARTESIAN_POINT('',(3.194547852347E+03,-70.01629497193,
    1.731772422323E+03));
#983 = CARTESIAN_POINT('',(3.194764570171E+03,-70.00908405204,
    1.731631024651E+03));
#984 = CARTESIAN_POINT('',(3.194966310075E+03,-70.00168338578,
    1.731478534382E+03));
#985 = CARTESIAN_POINT('',(3.195153008359E+03,-69.99426738229,
    1.731316708571E+03));
#986 = CARTESIAN_POINT('',(3.19532473991E+03,-69.98698527127,
    1.731147198561E+03));
#987 = CARTESIAN_POINT('',(3.195612120455E+03,-69.97412460655,
    1.730825619583E+03));
#988 = CARTESIAN_POINT('',(3.195732627305E+03,-69.9684534065,
    1.730675128264E+03));
#989 = CARTESIAN_POINT('',(3.195843443309E+03,-69.96301152435,
    1.730520736398E+03));
#990 = CARTESIAN_POINT('',(3.195944794007E+03,-69.95785228918,
    1.730363002952E+03));
#991 = CARTESIAN_POINT('',(3.196036898023E+03,-69.95301974836,
    1.730202409384E+03));
#992 = CARTESIAN_POINT('',(3.196119960267E+03,-69.94854995447,
    1.730039370128E+03));
#993 = CARTESIAN_POINT('',(3.19619416514E+03,-69.94447225217,
    1.729874243077E+03));
#994 = CARTESIAN_POINT('',(3.196333011671E+03,-69.93671077391,
    1.729520467886E+03));
#995 = CARTESIAN_POINT('',(3.196395446728E+03,-69.93313259993,
    1.729331370154E+03));
#996 = CARTESIAN_POINT('',(3.196447184881E+03,-69.93010986978,
    1.729140512376E+03));
#997 = CARTESIAN_POINT('',(3.196488398532E+03,-69.92766810921,
    1.728948303881E+03));
#998 = CARTESIAN_POINT('',(3.196519219993E+03,-69.92582536143,
    1.72875511076E+03));
#999 = CARTESIAN_POINT('',(3.196539738963E+03,-69.92459300547,
    1.728561268809E+03));
#1000 = CARTESIAN_POINT('',(3.19655E+03,-69.92397657456,
    1.728367096468E+03));
#1001 = CARTESIAN_POINT('',(3.19655E+03,-69.92397657456,
    1.727695942534E+03));
#1002 = CARTESIAN_POINT('',(3.196488095645E+03,-69.92769500489,
    1.727220281541E+03));
#1003 = CARTESIAN_POINT('',(3.196364884483E+03,-69.93509493435,
    1.726749399414E+03));
#1004 = CARTESIAN_POINT('',(3.196178356947E+03,-69.9459931171,
    1.726287341197E+03));
#1005 = CARTESIAN_POINT('',(3.195924819056E+03,-69.95999944358,
    1.725840196557E+03));
#1006 = CARTESIAN_POINT('',(3.195599532947E+03,-69.97638224242,
    1.725417027263E+03));
#1007 = CARTESIAN_POINT('',(3.195197569337E+03,-69.99375741104,
    1.725031071342E+03));
#1008 = CARTESIAN_POINT('',(3.194339914749E+03,-70.02274129852,
    1.724446332345E+03));
#1009 = CARTESIAN_POINT('',(3.193900462734E+03,-70.03528155952,
    1.724214931009E+03));
#1010 = CARTESIAN_POINT('',(3.193407985501E+03,-70.04593958556,
    1.724035714204E+03));
#1011 = CARTESIAN_POINT('',(3.192878656843E+03,-70.05284863085,
    1.723927165406E+03));
#1012 = CARTESIAN_POINT('',(3.192333411166E+03,-70.05457169178,
    1.723899150112E+03));
#1013 = CARTESIAN_POINT('',(3.191794463683E+03,-70.05107486434,
    1.723952710571E+03));
#1014 = CARTESIAN_POINT('',(3.191282857606E+03,-70.04343061125,
    1.724079840247E+03));
#1015 = CARTESIAN_POINT('',(3.1903542622E+03,-70.02308501881,
    1.724444287088E+03));
#1016 = CARTESIAN_POINT('',(3.189940327813E+03,-70.01054100549,
    1.72467853108E+03));
#1017 = CARTESIAN_POINT('',(3.18957532519E+03,-69.99684321936,
    1.724952858484E+03));
#1018 = CARTESIAN_POINT('',(3.189258689986E+03,-69.98310712606,
    1.725257167091E+03));
#1019 = CARTESIAN_POINT('',(3.188988870933E+03,-69.9701610827,
    1.725583476876E+03));
#1020 = CARTESIAN_POINT('',(3.188763888542E+03,-69.95856972129,
    1.725925501825E+03));
#1021 = CARTESIAN_POINT('',(3.188581646796E+03,-69.94871011602,
    1.726278406791E+03));
#1022 = CARTESIAN_POINT('',(3.188293651024E+03,-69.93261124116,
    1.727012208052E+03));
#1023 = CARTESIAN_POINT('',(3.188190602369E+03,-69.92649821802,
    1.727394827893E+03));
#1024 = CARTESIAN_POINT('',(3.188129472906E+03,-69.92274267816,
    1.727782671563E+03));
#1025 = CARTESIAN_POINT('',(3.188109219842E+03,-69.92147814124,
    1.72817294099E+03));
#1026 = CARTESIAN_POINT('',(3.1881294857E+03,-69.92274352341,
    1.72856318985E+03));
#1027 = CARTESIAN_POINT('',(3.188190610153E+03,-69.92649859035,
    1.728950987396E+03));
#1028 = CARTESIAN_POINT('',(3.188293638736E+03,-69.93261055429,
    1.729333576172E+03));
#1029 = CARTESIAN_POINT('',(3.188505834864E+03,-69.94447225242,
    1.729874243089E+03));
#1030 = CARTESIAN_POINT('',(3.188580039728E+03,-69.94854995424,
    1.730039370122E+03));
#1031 = CARTESIAN_POINT('',(3.188663101971E+03,-69.95301974805,
    1.730202409373E+03));
#1032 = CARTESIAN_POINT('',(3.188755205995E+03,-69.95785228924,
    1.730363002952E+03));
#1033 = CARTESIAN_POINT('',(3.188856556699E+03,-69.96301152473,
    1.730520736409E+03));
#1034 = CARTESIAN_POINT('',(3.188967372698E+03,-69.96845340666,
    1.730675128271E+03));
#1035 = CARTESIAN_POINT('',(3.189087879535E+03,-69.97412460614,
    1.730825619572E+03));
#1036 = CARTESIAN_POINT('',(3.18937526009E+03,-69.98698527127,
    1.731147198561E+03));
#1037 = CARTESIAN_POINT('',(3.189546991641E+03,-69.99426738229,
    1.731316708571E+03));
#1038 = CARTESIAN_POINT('',(3.189733689925E+03,-70.00168338578,
    1.731478534382E+03));
#1039 = CARTESIAN_POINT('',(3.189935429829E+03,-70.00908405204,
    1.731631024651E+03));
#1040 = CARTESIAN_POINT('',(3.190152147653E+03,-70.01629497193,
    1.731772422323E+03));
#1041 = CARTESIAN_POINT('',(3.190383617599E+03,-70.02311988211,
    1.73190084994E+03));
#1042 = CARTESIAN_POINT('',(3.190629425873E+03,-70.02934743945,
    1.732014293676E+03));
#1043 = CARTESIAN_POINT('',(3.191057510876E+03,-70.03827810257,
    1.73217313267E+03));
#1044 = CARTESIAN_POINT('',(3.191231802139E+03,-70.04145051154,
    1.732228420106E+03));
#1045 = CARTESIAN_POINT('',(3.19141104033E+03,-70.04420664893,
    1.732275641574E+03));
#1046 = CARTESIAN_POINT('',(3.191594375941E+03,-70.04648368028,
    1.732314136681E+03));
#1047 = CARTESIAN_POINT('',(3.191780901435E+03,-70.04823035848,
    1.732343393913E+03));
#1048 = CARTESIAN_POINT('',(3.191969666892E+03,-70.04940942317,
    1.732363053081E+03));
#1049 = CARTESIAN_POINT('',(3.192159695659E+03,-70.05,1.732372907766E+03
    ));
#1050 = CARTESIAN_POINT('',(3.19235E+03,-70.05,1.732372907766E+03));
#1051 = PCURVE('',#534,#1052);
#1052 = DEFINITIONAL_REPRESENTATION('',(#1053),#1133);
#1053 = B_SPLINE_CURVE_WITH_KNOTS('',8,(#1054,#1055,#1056,#1057,#1058,
    #1059,#1060,#1061,#1062,#1063,#1064,#1065,#1066,#1067,#1068,#1069,
    #1070,#1071,#1072,#1073,#1074,#1075,#1076,#1077,#1078,#1079,#1080,
    #1081,#1082,#1083,#1084,#1085,#1086,#1087,#1088,#1089,#1090,#1091,
    #1092,#1093,#1094,#1095,#1096,#1097,#1098,#1099,#1100,#1101,#1102,
    #1103,#1104,#1105,#1106,#1107,#1108,#1109,#1110,#1111,#1112,#1113,
    #1114,#1115,#1116,#1117,#1118,#1119,#1120,#1121,#1122,#1123,#1124,
    #1125,#1126,#1127,#1128,#1129,#1130,#1131,#1132),.UNSPECIFIED.,.F.,
  .F.,(9,7,7,7,7,7,7,7,7,7,7,9),(0.,4.809148108132E-02,0.122129822214,
    0.183651883744,0.252534775359,0.421724557999,0.553819728019,
    0.684223203597,0.819575241242,0.880016241934,0.952753581999,1.),
  .UNSPECIFIED.);
#1054 = CARTESIAN_POINT('',(0.,11.5));
#1055 = CARTESIAN_POINT('',(4.531055738879E-02,11.5));
#1056 = CARTESIAN_POINT('',(9.055548162511E-02,11.500590576829));
#1057 = CARTESIAN_POINT('',(0.135641419802,11.501769641513));
#1058 = CARTESIAN_POINT('',(0.180475788071,11.503516319716));
#1059 = CARTESIAN_POINT('',(0.224963671054,11.505793351062));
#1060 = CARTESIAN_POINT('',(0.269004721253,11.508549488459));
#1061 = CARTESIAN_POINT('',(0.312490058457,11.511721897429));
#1062 = CARTESIAN_POINT('',(0.421205135665,11.520652560543));
#1063 = CARTESIAN_POINT('',(0.485471761391,11.526880117885));
#1064 = CARTESIAN_POINT('',(0.548214656244,11.533705028065));
#1065 = CARTESIAN_POINT('',(0.609520609055,11.540915947953));
#1066 = CARTESIAN_POINT('',(0.6694566708,11.548316614216));
#1067 = CARTESIAN_POINT('',(0.728075214001,11.55573261771));
#1068 = CARTESIAN_POINT('',(0.785414968301,11.563014728725));
#1069 = CARTESIAN_POINT('',(0.888100179908,11.575875393442));
#1070 = CARTESIAN_POINT('',(0.933936552733,11.581546593496));
#1071 = CARTESIAN_POINT('',(0.979081709239,11.586988475642));
#1072 = CARTESIAN_POINT('',(1.023605683303,11.592147710818));
#1073 = CARTESIAN_POINT('',(1.0675751472,11.596980251638));
#1074 = CARTESIAN_POINT('',(1.11105457469,11.601450045523));
#1075 = CARTESIAN_POINT('',(1.154107404092,11.60552774783));
#1076 = CARTESIAN_POINT('',(1.24459463542,11.613289226083));
#1077 = CARTESIAN_POINT('',(1.291936684801,11.616867400066));
#1078 = CARTESIAN_POINT('',(1.338904503535,11.61989013022));
#1079 = CARTESIAN_POINT('',(1.385575782165,11.622331890785));
#1080 = CARTESIAN_POINT('',(1.432025966365,11.624174638563));
#1081 = CARTESIAN_POINT('',(1.478329475545,11.625406994528));
#1082 = CARTESIAN_POINT('',(1.524560921455,11.626023425437));
#1083 = CARTESIAN_POINT('',(1.684359477185,11.626023425437));
#1084 = CARTESIAN_POINT('',(1.79761258138,11.622304995106));
#1085 = CARTESIAN_POINT('',(1.911956399993,11.614905065649));
#1086 = CARTESIAN_POINT('',(2.028621667855,11.604006882895));
#1087 = CARTESIAN_POINT('',(2.148743946635,11.590000556416));
#1088 = CARTESIAN_POINT('',(2.273563295403,11.573617757578));
#1089 = CARTESIAN_POINT('',(2.404405309496,11.556242588957));
#1090 = CARTESIAN_POINT('',(2.651553567125,11.527258701478));
#1091 = CARTESIAN_POINT('',(2.769041184529,11.514718440476));
#1092 = CARTESIAN_POINT('',(2.891895152446,11.504060414439));
#1093 = CARTESIAN_POINT('',(3.017786767556,11.497151369143));
#1094 = CARTESIAN_POINT('',(3.144912429343,11.495428308218));
#1095 = CARTESIAN_POINT('',(3.271620527272,11.498925135658));
#1096 = CARTESIAN_POINT('',(3.39607019821,11.506569388749));
#1097 = CARTESIAN_POINT('',(3.633582690732,11.526914981185));
#1098 = CARTESIAN_POINT('',(3.745702407636,11.53945899451));
#1099 = CARTESIAN_POINT('',(3.852962558144,11.553156780634));
#1100 = CARTESIAN_POINT('',(3.956081849418,11.566892873938));
#1101 = CARTESIAN_POINT('',(4.055656281363,11.579838917293));
#1102 = CARTESIAN_POINT('',(4.152224330152,11.591430278707));
#1103 = CARTESIAN_POINT('',(4.246292901634,11.601289883973));
#1104 = CARTESIAN_POINT('',(4.433981711216,11.617388758836));
#1105 = CARTESIAN_POINT('',(4.527748082001,11.623501781976));
#1106 = CARTESIAN_POINT('',(4.620356736337,11.627257321835));
#1107 = CARTESIAN_POINT('',(4.712396625445,11.628521858751));
#1108 = CARTESIAN_POINT('',(4.804432227393,11.627256476589));
#1109 = CARTESIAN_POINT('',(4.897030484086,11.623501409648));
#1110 = CARTESIAN_POINT('',(4.990788241721,11.617389445702));
#1111 = CARTESIAN_POINT('',(5.129077906071,11.605527747574));
#1112 = CARTESIAN_POINT('',(5.172130730614,11.601450045752));
#1113 = CARTESIAN_POINT('',(5.215610156897,11.596980251942));
#1114 = CARTESIAN_POINT('',(5.259579624012,11.592147710752));
#1115 = CARTESIAN_POINT('',(5.304103601172,11.586988475266));
#1116 = CARTESIAN_POINT('',(5.349248756191,11.581546593332));
#1117 = CARTESIAN_POINT('',(5.395085123967,11.575875393856));
#1118 = CARTESIAN_POINT('',(5.497770338886,11.563014728725));
#1119 = CARTESIAN_POINT('',(5.555110093175,11.55573261771));
#1120 = CARTESIAN_POINT('',(5.613728636372,11.548316614217));
#1121 = CARTESIAN_POINT('',(5.673664698124,11.540915947953));
#1122 = CARTESIAN_POINT('',(5.734970650944,11.533705028064));
#1123 = CARTESIAN_POINT('',(5.797713545794,11.526880117885));
#1124 = CARTESIAN_POINT('',(5.861980171505,11.520652560544));
#1125 = CARTESIAN_POINT('',(5.970695248725,11.511721897428));
#1126 = CARTESIAN_POINT('',(6.014180585926,11.508549488459));
#1127 = CARTESIAN_POINT('',(6.058221636124,11.505793351062));
#1128 = CARTESIAN_POINT('',(6.102709519109,11.503516319716));
#1129 = CARTESIAN_POINT('',(6.14754388738,11.501769641513));
#1130 = CARTESIAN_POINT('',(6.192629825556,11.500590576828));
#1131 = CARTESIAN_POINT('',(6.237874749789,11.5));
#1132 = CARTESIAN_POINT('',(6.28318530718,11.5));
#1133 = ( GEOMETRIC_REPRESENTATION_CONTEXT(2) 
PARAMETRIC_REPRESENTATION_CONTEXT() REPRESENTATION_CONTEXT('2D SPACE',''
  ) );
#1134 = PCURVE('',#645,#1135);
#1135 = DEFINITIONAL_REPRESENTATION('',(#1136),#1216);
#1136 = B_SPLINE_CURVE_WITH_KNOTS('',8,(#1137,#1138,#1139,#1140,#1141,
    #1142,#1143,#1144,#1145,#1146,#1147,#1148,#1149,#1150,#1151,#1152,
    #1153,#1154,#1155,#1156,#1157,#1158,#1159,#1160,#1161,#1162,#1163,
    #1164,#1165,#1166,#1167,#1168,#1169,#1170,#1171,#1172,#1173,#1174,
    #1175,#1176,#1177,#1178,#1179,#1180,#1181,#1182,#1183,#1184,#1185,
    #1186,#1187,#1188,#1189,#1190,#1191,#1192,#1193,#1194,#1195,#1196,
    #1197,#1198,#1199,#1200,#1201,#1202,#1203,#1204,#1205,#1206,#1207,
    #1208,#1209,#1210,#1211,#1212,#1213,#1214,#1215),.UNSPECIFIED.,.T.,
  .F.,(9,7,7,7,7,7,7,7,7,7,7,9),(0.,4.809148108132E-02,0.122129822214,
    0.183651883744,0.252534775359,0.421724557999,0.553819728019,
    0.684223203597,0.819575241242,0.880016241934,0.952753581999,1.),
  .UNSPECIFIED.);
#1137 = CARTESIAN_POINT('',(-4.712388980385,-29.73405378235));
#1138 = CARTESIAN_POINT('',(-4.715105673333,-29.73405378235));
#1139 = CARTESIAN_POINT('',(-4.717818432084,-29.72419909723));
#1140 = CARTESIAN_POINT('',(-4.720513187475,-29.70453992947));
#1141 = CARTESIAN_POINT('',(-4.723176027,-29.67528269762));
#1142 = CARTESIAN_POINT('',(-4.72579341601,-29.63678759069));
#1143 = CARTESIAN_POINT('',(-4.728352418924,-29.5895661225));
#1144 = CARTESIAN_POINT('',(-4.730840920433,-29.53427868611));
#1145 = CARTESIAN_POINT('',(-4.736953385077,-29.37543969292));
#1146 = CARTESIAN_POINT('',(-4.74046351618,-29.2619959564));
#1147 = CARTESIAN_POINT('',(-4.743769260562,-29.13356833944));
#1148 = CARTESIAN_POINT('',(-4.746864691712,-28.99217066776));
#1149 = CARTESIAN_POINT('',(-4.749746541981,-28.83968039847));
#1150 = CARTESIAN_POINT('',(-4.752413842234,-28.67785458747));
#1151 = CARTESIAN_POINT('',(-4.754867595236,-28.50834457794));
#1152 = CARTESIAN_POINT('',(-4.75897420719,-28.1867655993));
#1153 = CARTESIAN_POINT('',(-4.760696404363,-28.03627428058));
#1154 = CARTESIAN_POINT('',(-4.762280261211,-27.88188241458));
#1155 = CARTESIAN_POINT('',(-4.76372896414,-27.72414896863));
#1156 = CARTESIAN_POINT('',(-4.765045602779,-27.56355540087));
#1157 = CARTESIAN_POINT('',(-4.766233073728,-27.40051614473));
#1158 = CARTESIAN_POINT('',(-4.767293984305,-27.23538909349));
#1159 = CARTESIAN_POINT('',(-4.769279184785,-26.88161390292));
#1160 = CARTESIAN_POINT('',(-4.77017193928,-26.69251617054));
#1161 = CARTESIAN_POINT('',(-4.770911786902,-26.50165839284));
#1162 = CARTESIAN_POINT('',(-4.771501164488,-26.30944989773));
#1163 = CARTESIAN_POINT('',(-4.771941942583,-26.11625677661));
#1164 = CARTESIAN_POINT('',(-4.772235389443,-25.92241482527));
#1165 = CARTESIAN_POINT('',(-4.772382135036,-25.72824248478));
#1166 = CARTESIAN_POINT('',(-4.772382135036,-25.05708855072));
#1167 = CARTESIAN_POINT('',(-4.771496825708,-24.58142755787));
#1168 = CARTESIAN_POINT('',(-4.76973475205,-24.11054543093));
#1169 = CARTESIAN_POINT('',(-4.767067440777,-23.64848721361));
#1170 = CARTESIAN_POINT('',(-4.763442572782,-23.20134257401));
#1171 = CARTESIAN_POINT('',(-4.75879319802,-22.77817328004));
#1172 = CARTESIAN_POINT('',(-4.753049856034,-22.39221735881));
#1173 = CARTESIAN_POINT('',(-4.740799403575,-21.80747836129));
#1174 = CARTESIAN_POINT('',(-4.734523532677,-21.57607702531));
#1175 = CARTESIAN_POINT('',(-4.727491794871,-21.39686022018));
#1176 = CARTESIAN_POINT('',(-4.719935310654,-21.28831142261));
#1177 = CARTESIAN_POINT('',(-4.712152359715,-21.26029612881));
#1178 = CARTESIAN_POINT('',(-4.70445889754,-21.31385658788));
#1179 = CARTESIAN_POINT('',(-4.697154819339,-21.44098626363));
#1180 = CARTESIAN_POINT('',(-4.683895457942,-21.80543310436));
#1181 = CARTESIAN_POINT('',(-4.677983826234,-22.03967709702));
#1182 = CARTESIAN_POINT('',(-4.672769753626,-22.31400450012));
#1183 = CARTESIAN_POINT('',(-4.668245485814,-22.61831310713));
#1184 = CARTESIAN_POINT('',(-4.664389296474,-22.94462289282));
#1185 = CARTESIAN_POINT('',(-4.661173316976,-23.2866478418));
#1186 = CARTESIAN_POINT('',(-4.658567920668,-23.63955280806));
#1187 = CARTESIAN_POINT('',(-4.654450213569,-24.37335406823));
#1188 = CARTESIAN_POINT('',(-4.652976562993,-24.75597390921));
#1189 = CARTESIAN_POINT('',(-4.652102262811,-25.14381757962));
#1190 = CARTESIAN_POINT('',(-4.651812574879,-25.53408700692));
#1191 = CARTESIAN_POINT('',(-4.6521024458,-25.92433586697));
#1192 = CARTESIAN_POINT('',(-4.65297667427,-26.3121334127));
#1193 = CARTESIAN_POINT('',(-4.654450037885,-26.6947221885));
#1194 = CARTESIAN_POINT('',(-4.65748397653,-27.23538910515));
#1195 = CARTESIAN_POINT('',(-4.658544886971,-27.40051613864));
#1196 = CARTESIAN_POINT('',(-4.659732357906,-27.56355538948));
#1197 = CARTESIAN_POINT('',(-4.661048996657,-27.72414896809));
#1198 = CARTESIAN_POINT('',(-4.662497699673,-27.88188242538));
#1199 = CARTESIAN_POINT('',(-4.66408155645,-28.03627428723));
#1200 = CARTESIAN_POINT('',(-4.665803753447,-28.18676558896));
#1201 = CARTESIAN_POINT('',(-4.669910365534,-28.50834457796));
#1202 = CARTESIAN_POINT('',(-4.672364118535,-28.67785458746));
#1203 = CARTESIAN_POINT('',(-4.675031418788,-28.83968039845));
#1204 = CARTESIAN_POINT('',(-4.677913269057,-28.99217066776));
#1205 = CARTESIAN_POINT('',(-4.681008700208,-29.13356833945));
#1206 = CARTESIAN_POINT('',(-4.68431444459,-29.2619959564));
#1207 = CARTESIAN_POINT('',(-4.687824575692,-29.37543969291));
#1208 = CARTESIAN_POINT('',(-4.693937040337,-29.53427868611));
#1209 = CARTESIAN_POINT('',(-4.696425541846,-29.5895661225));
#1210 = CARTESIAN_POINT('',(-4.69898454476,-29.63678759069));
#1211 = CARTESIAN_POINT('',(-4.70160193377,-29.67528269762));
#1212 = CARTESIAN_POINT('',(-4.704264773294,-29.70453992947));
#1213 = CARTESIAN_POINT('',(-4.706959528686,-29.72419909723));
#1214 = CARTESIAN_POINT('',(-4.709672287436,-29.73405378235));
#1215 = CARTESIAN_POINT('',(-4.712388980385,-29.73405378235));
#1216 = ( GEOMETRIC_REPRESENTATION_CONTEXT(2) 
PARAMETRIC_REPRESENTATION_CONTEXT() REPRESENTATION_CONTEXT('2D SPACE',''
  ) );
#1217 = ORIENTED_EDGE('',*,*,#1218,.F.);
#1218 = EDGE_CURVE('',#367,#968,#1219,.T.);
#1219 = SEAM_CURVE('',#1220,(#1224,#1231),.PCURVE_S1.);
#1220 = LINE('',#1221,#1222);
#1221 = CARTESIAN_POINT('',(3.19235E+03,-81.55,1.732372907766E+03));
#1222 = VECTOR('',#1223,1.);
#1223 = DIRECTION('',(0.,1.,0.));
#1224 = PCURVE('',#534,#1225);
#1225 = DEFINITIONAL_REPRESENTATION('',(#1226),#1230);
#1226 = LINE('',#1227,#1228);
#1227 = CARTESIAN_POINT('',(6.28318530718,-0.));
#1228 = VECTOR('',#1229,1.);
#1229 = DIRECTION('',(0.,1.));
#1230 = ( GEOMETRIC_REPRESENTATION_CONTEXT(2) 
PARAMETRIC_REPRESENTATION_CONTEXT() REPRESENTATION_CONTEXT('2D SPACE',''
  ) );
#1231 = PCURVE('',#534,#1232);
#1232 = DEFINITIONAL_REPRESENTATION('',(#1233),#1237);
#1233 = LINE('',#1234,#1235);
#1234 = CARTESIAN_POINT('',(0.,-0.));
#1235 = VECTOR('',#1236,1.);
#1236 = DIRECTION('',(0.,1.));
#1237 = ( GEOMETRIC_REPRESENTATION_CONTEXT(2) 
PARAMETRIC_REPRESENTATION_CONTEXT() REPRESENTATION_CONTEXT('2D SPACE',''
  ) );
#1238 = ORIENTED_EDGE('',*,*,#366,.T.);
#1239 = ORIENTED_EDGE('',*,*,#1218,.T.);
#1240 = ADVANCED_FACE('',(#1241,#1267,#1270),#645,.F.);
#1241 = FACE_BOUND('',#1242,.T.);
#1242 = EDGE_LOOP('',(#1243,#1244,#1265,#1266));
#1243 = ORIENTED_EDGE('',*,*,#628,.F.);
#1244 = ORIENTED_EDGE('',*,*,#1245,.T.);
#1245 = EDGE_CURVE('',#629,#664,#1246,.T.);
#1246 = SEAM_CURVE('',#1247,(#1251,#1258),.PCURVE_S1.);
#1247 = LINE('',#1248,#1249);
#1248 = CARTESIAN_POINT('',(3.2624E+03,3.812435872623E-15,
    1.702638853983E+03));
#1249 = VECTOR('',#1250,1.);
#1250 = DIRECTION('',(0.,0.,1.));
#1251 = PCURVE('',#645,#1252);
#1252 = DEFINITIONAL_REPRESENTATION('',(#1253),#1257);
#1253 = LINE('',#1254,#1255);
#1254 = CARTESIAN_POINT('',(-6.28318530718,0.));
#1255 = VECTOR('',#1256,1.);
#1256 = DIRECTION('',(-0.,-1.));
#1257 = ( GEOMETRIC_REPRESENTATION_CONTEXT(2) 
PARAMETRIC_REPRESENTATION_CONTEXT() REPRESENTATION_CONTEXT('2D SPACE',''
  ) );
#1258 = PCURVE('',#645,#1259);
#1259 = DEFINITIONAL_REPRESENTATION('',(#1260),#1264);
#1260 = LINE('',#1261,#1262);
#1261 = CARTESIAN_POINT('',(-0.,0.));
#1262 = VECTOR('',#1263,1.);
#1263 = DIRECTION('',(-0.,-1.));
#1264 = ( GEOMETRIC_REPRESENTATION_CONTEXT(2) 
PARAMETRIC_REPRESENTATION_CONTEXT() REPRESENTATION_CONTEXT('2D SPACE',''
  ) );
#1265 = ORIENTED_EDGE('',*,*,#663,.T.);
#1266 = ORIENTED_EDGE('',*,*,#1245,.F.);
#1267 = FACE_BOUND('',#1268,.T.);
#1268 = EDGE_LOOP('',(#1269));
#1269 = ORIENTED_EDGE('',*,*,#714,.T.);
#1270 = FACE_BOUND('',#1271,.T.);
#1271 = EDGE_LOOP('',(#1272));
#1272 = ORIENTED_EDGE('',*,*,#967,.F.);
#1273 = ( GEOMETRIC_REPRESENTATION_CONTEXT(3) 
GLOBAL_UNCERTAINTY_ASSIGNED_CONTEXT((#1277)) 
GLOBAL_UNIT_ASSIGNED_CONTEXT((#1274,#1275,#1276)) REPRESENTATION_CONTEXT
('Context #1','3D Context with UNIT and UNCERTAINTY') );
#1274 = ( LENGTH_UNIT() NAMED_UNIT(*) SI_UNIT(.MILLI.,.METRE.) );
#1275 = ( NAMED_UNIT(*) PLANE_ANGLE_UNIT() SI_UNIT($,.RADIAN.) );
#1276 = ( NAMED_UNIT(*) SI_UNIT($,.STERADIAN.) SOLID_ANGLE_UNIT() );
#1277 = UNCERTAINTY_MEASURE_WITH_UNIT(LENGTH_MEASURE(2.E-07),#1274,
  'distance_accuracy_value','confusion accuracy');
#1278 = PRODUCT_RELATED_PRODUCT_CATEGORY('part',$,(#7));
ENDSEC;
END-ISO-10303-21;
