ISO-10303-21;
HEADER;
FILE_DESCRIPTION(('Open CASCADE Model'),'2;1');
FILE_NAME('Open CASCADE Shape Model','2026-09-23T09:53:21',('Author'),(
    'Open CASCADE'),'Open CASCADE STEP processor 7.9','Open CASCADE 7.9'
  ,'Unknown');
FILE_SCHEMA(('AUTOMOTIVE_DESIGN { 1 0 10303 214 1 1 1 1 }'));
ENDSEC;
DATA;
#1 = APPLICATION_PROTOCOL_DEFINITION('international standard',
  'automotive_design',2000,#2);
#2 = APPLICATION_CONTEXT(
  'core data for automotive mechanical design processes');
#3 = SHAPE_DEFINITION_REPRESENTATION(#4,#10);
#4 = PRODUCT_DEFINITION_SHAPE('','',#5);
#5 = PRODUCT_DEFINITION('design','',#6,#9);
#6 = PRODUCT_DEFINITION_FORMATION('','',#7);
#7 = PRODUCT('Open CASCADE STEP translator 7.9 62',
  'Open CASCADE STEP translator 7.9 62','',(#8));
#8 = PRODUCT_CONTEXT('',#2,'mechanical');
#9 = PRODUCT_DEFINITION_CONTEXT('part definition',#2,'design');
#10 = ADVANCED_BREP_SHAPE_REPRESENTATION('',(#11,#15),#730);
#11 = AXIS2_PLACEMENT_3D('',#12,#13,#14);
#12 = CARTESIAN_POINT('',(0.,0.,0.));
#13 = DIRECTION('',(0.,0.,1.));
#14 = DIRECTION('',(1.,0.,-0.));
#15 = MANIFOLD_SOLID_BREP('',#16);
#16 = CLOSED_SHELL('',(#17,#147,#403,#452,#578,#606,#633,#660,#667,#671,
    #726));
#17 = ADVANCED_FACE('',(#18),#33,.F.);
#18 = FACE_BOUND('',#19,.F.);
#19 = EDGE_LOOP('',(#20,#65,#93,#121));
#20 = ORIENTED_EDGE('',*,*,#21,.F.);
#21 = EDGE_CURVE('',#22,#24,#26,.T.);
#22 = VERTEX_POINT('',#23);
#23 = CARTESIAN_POINT('',(-41.,2.886751345948,274.21747392401));
#24 = VERTEX_POINT('',#25);
#25 = CARTESIAN_POINT('',(-46.,5.773502691896,274.21747392401));
#26 = SURFACE_CURVE('',#27,(#32,#44),.PCURVE_S1.);
#27 = HYPERBOLA('',#28,2.201429131403,5.);
#28 = AXIS2_PLACEMENT_3D('',#29,#30,#31);
#29 = CARTESIAN_POINT('',(-43.5,4.330127018922,271.67548252078));
#30 = DIRECTION('',(-0.5,-0.866025403784,0.));
#31 = DIRECTION('',(0.,0.,1.));
#32 = PCURVE('',#33,#38);
#33 = PLANE('',#34);
#34 = AXIS2_PLACEMENT_3D('',#35,#36,#37);
#35 = CARTESIAN_POINT('',(-41.,2.886751345948,273.76684019561));
#36 = DIRECTION('',(-0.5,-0.866025403784,0.));
#37 = DIRECTION('',(-0.866025403784,0.5,0.));
#38 = DEFINITIONAL_REPRESENTATION('',(#39),#43);
#39 = HYPERBOLA('',#40,2.201429131403,5.);
#40 = AXIS2_PLACEMENT_2D('',#41,#42);
#41 = CARTESIAN_POINT('',(2.886751345948,2.091357674833));
#42 = DIRECTION('',(0.,-1.));
#43 = ( GEOMETRIC_REPRESENTATION_CONTEXT(2) 
PARAMETRIC_REPRESENTATION_CONTEXT() REPRESENTATION_CONTEXT('2D SPACE',''
  ) );
#44 = PCURVE('',#45,#50);
#45 = CONICAL_SURFACE('',#46,4.75,1.156050011726);
#46 = AXIS2_PLACEMENT_3D('',#47,#48,#49);
#47 = CARTESIAN_POINT('',(-46.,0.,273.76684019561));
#48 = DIRECTION('',(0.,0.,1.));
#49 = DIRECTION('',(1.,0.,-0.));
#50 = DEFINITIONAL_REPRESENTATION('',(#51),#64);
#51 = B_SPLINE_CURVE_WITH_KNOTS('',6,(#52,#53,#54,#55,#56,#57,#58,#59,
    #60,#61,#62,#63),.UNSPECIFIED.,.F.,.F.,(7,5,7),(-0.646774826402,
    -1.110223024625E-16,0.646774826402),.UNSPECIFIED.);
#52 = CARTESIAN_POINT('',(0.441306432357,0.586796451888));
#53 = CARTESIAN_POINT('',(0.529914037753,0.422386847034));
#54 = CARTESIAN_POINT('',(0.625048940848,0.29532117251));
#55 = CARTESIAN_POINT('',(0.726060228551,0.202160984376));
#56 = CARTESIAN_POINT('',(0.831606765515,0.140768049749));
#57 = CARTESIAN_POINT('',(0.939401746796,0.11007145657));
#58 = CARTESIAN_POINT('',(1.154993355597,0.11007145657));
#59 = CARTESIAN_POINT('',(1.262788336878,0.140768049749));
#60 = CARTESIAN_POINT('',(1.368334873842,0.202160984376));
#61 = CARTESIAN_POINT('',(1.469346161545,0.29532117251));
#62 = CARTESIAN_POINT('',(1.56448106464,0.422386847034));
#63 = CARTESIAN_POINT('',(1.653088670036,0.586796451888));
#64 = ( GEOMETRIC_REPRESENTATION_CONTEXT(2) 
PARAMETRIC_REPRESENTATION_CONTEXT() REPRESENTATION_CONTEXT('2D SPACE',''
  ) );
#65 = ORIENTED_EDGE('',*,*,#66,.T.);
#66 = EDGE_CURVE('',#22,#67,#69,.T.);
#67 = VERTEX_POINT('',#68);
#68 = CARTESIAN_POINT('',(-41.,2.886751345948,277.76684019561));
#69 = SURFACE_CURVE('',#70,(#74,#81),.PCURVE_S1.);
#70 = LINE('',#71,#72);
#71 = CARTESIAN_POINT('',(-41.,2.886751345948,273.76684019561));
#72 = VECTOR('',#73,1.);
#73 = DIRECTION('',(0.,0.,1.));
#74 = PCURVE('',#33,#75);
#75 = DEFINITIONAL_REPRESENTATION('',(#76),#80);
#76 = LINE('',#77,#78);
#77 = CARTESIAN_POINT('',(0.,0.));
#78 = VECTOR('',#79,1.);
#79 = DIRECTION('',(0.,-1.));
#80 = ( GEOMETRIC_REPRESENTATION_CONTEXT(2) 
PARAMETRIC_REPRESENTATION_CONTEXT() REPRESENTATION_CONTEXT('2D SPACE',''
  ) );
#81 = PCURVE('',#82,#87);
#82 = PLANE('',#83);
#83 = AXIS2_PLACEMENT_3D('',#84,#85,#86);
#84 = CARTESIAN_POINT('',(-41.,-2.886751345948,273.76684019561));
#85 = DIRECTION('',(-1.,4.440892098501E-16,0.));
#86 = DIRECTION('',(4.440892098501E-16,1.,0.));
#87 = DEFINITIONAL_REPRESENTATION('',(#88),#92);
#88 = LINE('',#89,#90);
#89 = CARTESIAN_POINT('',(5.773502691896,0.));
#90 = VECTOR('',#91,1.);
#91 = DIRECTION('',(0.,-1.));
#92 = ( GEOMETRIC_REPRESENTATION_CONTEXT(2) 
PARAMETRIC_REPRESENTATION_CONTEXT() REPRESENTATION_CONTEXT('2D SPACE',''
  ) );
#93 = ORIENTED_EDGE('',*,*,#94,.T.);
#94 = EDGE_CURVE('',#67,#95,#97,.T.);
#95 = VERTEX_POINT('',#96);
#96 = CARTESIAN_POINT('',(-46.,5.773502691896,277.76684019561));
#97 = SURFACE_CURVE('',#98,(#102,#109),.PCURVE_S1.);
#98 = LINE('',#99,#100);
#99 = CARTESIAN_POINT('',(-41.,2.886751345948,277.76684019561));
#100 = VECTOR('',#101,1.);
#101 = DIRECTION('',(-0.866025403784,0.5,0.));
#102 = PCURVE('',#33,#103);
#103 = DEFINITIONAL_REPRESENTATION('',(#104),#108);
#104 = LINE('',#105,#106);
#105 = CARTESIAN_POINT('',(0.,-4.));
#106 = VECTOR('',#107,1.);
#107 = DIRECTION('',(1.,0.));
#108 = ( GEOMETRIC_REPRESENTATION_CONTEXT(2) 
PARAMETRIC_REPRESENTATION_CONTEXT() REPRESENTATION_CONTEXT('2D SPACE',''
  ) );
#109 = PCURVE('',#110,#115);
#110 = PLANE('',#111);
#111 = AXIS2_PLACEMENT_3D('',#112,#113,#114);
#112 = CARTESIAN_POINT('',(-46.,-5.022382988055E-16,277.76684019561));
#113 = DIRECTION('',(0.,0.,1.));
#114 = DIRECTION('',(0.866025403784,0.5,0.));
#115 = DEFINITIONAL_REPRESENTATION('',(#116),#120);
#116 = LINE('',#117,#118);
#117 = CARTESIAN_POINT('',(5.773502691896,4.440892098501E-16));
#118 = VECTOR('',#119,1.);
#119 = DIRECTION('',(-0.5,0.866025403784));
#120 = ( GEOMETRIC_REPRESENTATION_CONTEXT(2) 
PARAMETRIC_REPRESENTATION_CONTEXT() REPRESENTATION_CONTEXT('2D SPACE',''
  ) );
#121 = ORIENTED_EDGE('',*,*,#122,.F.);
#122 = EDGE_CURVE('',#24,#95,#123,.T.);
#123 = SURFACE_CURVE('',#124,(#128,#135),.PCURVE_S1.);
#124 = LINE('',#125,#126);
#125 = CARTESIAN_POINT('',(-46.,5.773502691896,273.76684019561));
#126 = VECTOR('',#127,1.);
#127 = DIRECTION('',(0.,0.,1.));
#128 = PCURVE('',#33,#129);
#129 = DEFINITIONAL_REPRESENTATION('',(#130),#134);
#130 = LINE('',#131,#132);
#131 = CARTESIAN_POINT('',(5.773502691896,0.));
#132 = VECTOR('',#133,1.);
#133 = DIRECTION('',(0.,-1.));
#134 = ( GEOMETRIC_REPRESENTATION_CONTEXT(2) 
PARAMETRIC_REPRESENTATION_CONTEXT() REPRESENTATION_CONTEXT('2D SPACE',''
  ) );
#135 = PCURVE('',#136,#141);
#136 = PLANE('',#137);
#137 = AXIS2_PLACEMENT_3D('',#138,#139,#140);
#138 = CARTESIAN_POINT('',(-46.,5.773502691896,273.76684019561));
#139 = DIRECTION('',(0.5,-0.866025403784,0.));
#140 = DIRECTION('',(-0.866025403784,-0.5,0.));
#141 = DEFINITIONAL_REPRESENTATION('',(#142),#146);
#142 = LINE('',#143,#144);
#143 = CARTESIAN_POINT('',(0.,0.));
#144 = VECTOR('',#145,1.);
#145 = DIRECTION('',(0.,-1.));
#146 = ( GEOMETRIC_REPRESENTATION_CONTEXT(2) 
PARAMETRIC_REPRESENTATION_CONTEXT() REPRESENTATION_CONTEXT('2D SPACE',''
  ) );
#147 = ADVANCED_FACE('',(#148),#45,.T.);
#148 = FACE_BOUND('',#149,.T.);
#149 = EDGE_LOOP('',(#150,#175,#202,#203,#231,#269,#307,#345,#376,#377)
  );
#150 = ORIENTED_EDGE('',*,*,#151,.F.);
#151 = EDGE_CURVE('',#152,#154,#156,.T.);
#152 = VERTEX_POINT('',#153);
#153 = CARTESIAN_POINT('',(-41.25,0.,273.76684019561));
#154 = VERTEX_POINT('',#155);
#155 = CARTESIAN_POINT('',(-41.,0.,273.87691165218));
#156 = SEAM_CURVE('',#157,(#161,#168),.PCURVE_S1.);
#157 = LINE('',#158,#159);
#158 = CARTESIAN_POINT('',(-41.25,0.,273.76684019561));
#159 = VECTOR('',#160,1.);
#160 = DIRECTION('',(0.915218574256,0.,0.402957766194));
#161 = PCURVE('',#45,#162);
#162 = DEFINITIONAL_REPRESENTATION('',(#163),#167);
#163 = LINE('',#164,#165);
#164 = CARTESIAN_POINT('',(0.,0.));
#165 = VECTOR('',#166,1.);
#166 = DIRECTION('',(0.,1.));
#167 = ( GEOMETRIC_REPRESENTATION_CONTEXT(2) 
PARAMETRIC_REPRESENTATION_CONTEXT() REPRESENTATION_CONTEXT('2D SPACE',''
  ) );
#168 = PCURVE('',#45,#169);
#169 = DEFINITIONAL_REPRESENTATION('',(#170),#174);
#170 = LINE('',#171,#172);
#171 = CARTESIAN_POINT('',(6.28318530718,0.));
#172 = VECTOR('',#173,1.);
#173 = DIRECTION('',(0.,1.));
#174 = ( GEOMETRIC_REPRESENTATION_CONTEXT(2) 
PARAMETRIC_REPRESENTATION_CONTEXT() REPRESENTATION_CONTEXT('2D SPACE',''
  ) );
#175 = ORIENTED_EDGE('',*,*,#176,.T.);
#176 = EDGE_CURVE('',#152,#152,#177,.T.);
#177 = SURFACE_CURVE('',#178,(#183,#190),.PCURVE_S1.);
#178 = CIRCLE('',#179,4.75);
#179 = AXIS2_PLACEMENT_3D('',#180,#181,#182);
#180 = CARTESIAN_POINT('',(-46.,0.,273.76684019561));
#181 = DIRECTION('',(0.,0.,1.));
#182 = DIRECTION('',(1.,0.,-0.));
#183 = PCURVE('',#45,#184);
#184 = DEFINITIONAL_REPRESENTATION('',(#185),#189);
#185 = LINE('',#186,#187);
#186 = CARTESIAN_POINT('',(0.,0.));
#187 = VECTOR('',#188,1.);
#188 = DIRECTION('',(1.,0.));
#189 = ( GEOMETRIC_REPRESENTATION_CONTEXT(2) 
PARAMETRIC_REPRESENTATION_CONTEXT() REPRESENTATION_CONTEXT('2D SPACE',''
  ) );
#190 = PCURVE('',#191,#196);
#191 = PLANE('',#192);
#192 = AXIS2_PLACEMENT_3D('',#193,#194,#195);
#193 = CARTESIAN_POINT('',(-46.,0.,273.76684019561));
#194 = DIRECTION('',(0.,0.,1.));
#195 = DIRECTION('',(1.,0.,-0.));
#196 = DEFINITIONAL_REPRESENTATION('',(#197),#201);
#197 = CIRCLE('',#198,4.75);
#198 = AXIS2_PLACEMENT_2D('',#199,#200);
#199 = CARTESIAN_POINT('',(0.,0.));
#200 = DIRECTION('',(1.,-0.));
#201 = ( GEOMETRIC_REPRESENTATION_CONTEXT(2) 
PARAMETRIC_REPRESENTATION_CONTEXT() REPRESENTATION_CONTEXT('2D SPACE',''
  ) );
#202 = ORIENTED_EDGE('',*,*,#151,.T.);
#203 = ORIENTED_EDGE('',*,*,#204,.F.);
#204 = EDGE_CURVE('',#205,#154,#207,.T.);
#205 = VERTEX_POINT('',#206);
#206 = CARTESIAN_POINT('',(-41.,-2.886751345948,274.21747392401));
#207 = SURFACE_CURVE('',#208,(#213,#224),.PCURVE_S1.);
#208 = HYPERBOLA('',#209,2.201429131403,5.);
#209 = AXIS2_PLACEMENT_3D('',#210,#211,#212);
#210 = CARTESIAN_POINT('',(-41.,-2.22044604925E-15,271.67548252078));
#211 = DIRECTION('',(-1.,4.440892098501E-16,0.));
#212 = DIRECTION('',(0.,0.,1.));
#213 = PCURVE('',#45,#214);
#214 = DEFINITIONAL_REPRESENTATION('',(#215),#223);
#215 = B_SPLINE_CURVE_WITH_KNOTS('',6,(#216,#217,#218,#219,#220,#221,
    #222),.UNSPECIFIED.,.F.,.F.,(7,7),(-0.646774826402,
    1.991598500206E-16),.PIECEWISE_BEZIER_KNOTS.);
#216 = CARTESIAN_POINT('',(5.67729418834,0.586796451888));
#217 = CARTESIAN_POINT('',(5.765901793736,0.422386847034));
#218 = CARTESIAN_POINT('',(5.861036696831,0.29532117251));
#219 = CARTESIAN_POINT('',(5.962047984534,0.202160984376));
#220 = CARTESIAN_POINT('',(6.067594521498,0.140768049749));
#221 = CARTESIAN_POINT('',(6.175389502779,0.11007145657));
#222 = CARTESIAN_POINT('',(6.28318530718,0.11007145657));
#223 = ( GEOMETRIC_REPRESENTATION_CONTEXT(2) 
PARAMETRIC_REPRESENTATION_CONTEXT() REPRESENTATION_CONTEXT('2D SPACE',''
  ) );
#224 = PCURVE('',#82,#225);
#225 = DEFINITIONAL_REPRESENTATION('',(#226),#230);
#226 = HYPERBOLA('',#227,2.201429131403,5.);
#227 = AXIS2_PLACEMENT_2D('',#228,#229);
#228 = CARTESIAN_POINT('',(2.886751345948,2.091357674833));
#229 = DIRECTION('',(0.,-1.));
#230 = ( GEOMETRIC_REPRESENTATION_CONTEXT(2) 
PARAMETRIC_REPRESENTATION_CONTEXT() REPRESENTATION_CONTEXT('2D SPACE',''
  ) );
#231 = ORIENTED_EDGE('',*,*,#232,.F.);
#232 = EDGE_CURVE('',#233,#205,#235,.T.);
#233 = VERTEX_POINT('',#234);
#234 = CARTESIAN_POINT('',(-46.,-5.773502691896,274.21747392401));
#235 = SURFACE_CURVE('',#236,(#241,#257),.PCURVE_S1.);
#236 = HYPERBOLA('',#237,2.201429131403,5.);
#237 = AXIS2_PLACEMENT_3D('',#238,#239,#240);
#238 = CARTESIAN_POINT('',(-43.5,-4.330127018922,271.67548252078));
#239 = DIRECTION('',(-0.5,0.866025403784,0.));
#240 = DIRECTION('',(0.,0.,1.));
#241 = PCURVE('',#45,#242);
#242 = DEFINITIONAL_REPRESENTATION('',(#243),#256);
#243 = B_SPLINE_CURVE_WITH_KNOTS('',6,(#244,#245,#246,#247,#248,#249,
    #250,#251,#252,#253,#254,#255),.UNSPECIFIED.,.F.,.F.,(7,5,7),(
    -0.646774826402,0.,0.646774826402),.UNSPECIFIED.);
#244 = CARTESIAN_POINT('',(4.630096637144,0.586796451888));
#245 = CARTESIAN_POINT('',(4.71870424254,0.422386847034));
#246 = CARTESIAN_POINT('',(4.813839145634,0.29532117251));
#247 = CARTESIAN_POINT('',(4.914850433338,0.202160984376));
#248 = CARTESIAN_POINT('',(5.020396970302,0.140768049749));
#249 = CARTESIAN_POINT('',(5.128191951583,0.11007145657));
#250 = CARTESIAN_POINT('',(5.343783560383,0.11007145657));
#251 = CARTESIAN_POINT('',(5.451578541664,0.140768049749));
#252 = CARTESIAN_POINT('',(5.557125078628,0.202160984376));
#253 = CARTESIAN_POINT('',(5.658136366332,0.29532117251));
#254 = CARTESIAN_POINT('',(5.753271269426,0.422386847034));
#255 = CARTESIAN_POINT('',(5.841878874822,0.586796451888));
#256 = ( GEOMETRIC_REPRESENTATION_CONTEXT(2) 
PARAMETRIC_REPRESENTATION_CONTEXT() REPRESENTATION_CONTEXT('2D SPACE',''
  ) );
#257 = PCURVE('',#258,#263);
#258 = PLANE('',#259);
#259 = AXIS2_PLACEMENT_3D('',#260,#261,#262);
#260 = CARTESIAN_POINT('',(-46.,-5.773502691896,273.76684019561));
#261 = DIRECTION('',(-0.5,0.866025403784,0.));
#262 = DIRECTION('',(0.866025403784,0.5,0.));
#263 = DEFINITIONAL_REPRESENTATION('',(#264),#268);
#264 = HYPERBOLA('',#265,2.201429131403,5.);
#265 = AXIS2_PLACEMENT_2D('',#266,#267);
#266 = CARTESIAN_POINT('',(2.886751345948,2.091357674833));
#267 = DIRECTION('',(0.,-1.));
#268 = ( GEOMETRIC_REPRESENTATION_CONTEXT(2) 
PARAMETRIC_REPRESENTATION_CONTEXT() REPRESENTATION_CONTEXT('2D SPACE',''
  ) );
#269 = ORIENTED_EDGE('',*,*,#270,.F.);
#270 = EDGE_CURVE('',#271,#233,#273,.T.);
#271 = VERTEX_POINT('',#272);
#272 = CARTESIAN_POINT('',(-51.,-2.886751345948,274.21747392401));
#273 = SURFACE_CURVE('',#274,(#279,#295),.PCURVE_S1.);
#274 = HYPERBOLA('',#275,2.201429131403,5.);
#275 = AXIS2_PLACEMENT_3D('',#276,#277,#278);
#276 = CARTESIAN_POINT('',(-48.5,-4.330127018922,271.67548252078));
#277 = DIRECTION('',(0.5,0.866025403784,0.));
#278 = DIRECTION('',(-0.,0.,1.));
#279 = PCURVE('',#45,#280);
#280 = DEFINITIONAL_REPRESENTATION('',(#281),#294);
#281 = B_SPLINE_CURVE_WITH_KNOTS('',6,(#282,#283,#284,#285,#286,#287,
    #288,#289,#290,#291,#292,#293),.UNSPECIFIED.,.F.,.F.,(7,5,7),(
    -0.646774826402,2.22044604925E-16,0.646774826402),.UNSPECIFIED.);
#282 = CARTESIAN_POINT('',(3.582899085947,0.586796451888));
#283 = CARTESIAN_POINT('',(3.671506691343,0.422386847034));
#284 = CARTESIAN_POINT('',(3.766641594438,0.29532117251));
#285 = CARTESIAN_POINT('',(3.867652882141,0.202160984376));
#286 = CARTESIAN_POINT('',(3.973199419105,0.140768049749));
#287 = CARTESIAN_POINT('',(4.080994400386,0.11007145657));
#288 = CARTESIAN_POINT('',(4.296586009187,0.11007145657));
#289 = CARTESIAN_POINT('',(4.404380990468,0.140768049749));
#290 = CARTESIAN_POINT('',(4.509927527432,0.202160984376));
#291 = CARTESIAN_POINT('',(4.610938815135,0.29532117251));
#292 = CARTESIAN_POINT('',(4.70607371823,0.422386847034));
#293 = CARTESIAN_POINT('',(4.794681323626,0.586796451888));
#294 = ( GEOMETRIC_REPRESENTATION_CONTEXT(2) 
PARAMETRIC_REPRESENTATION_CONTEXT() REPRESENTATION_CONTEXT('2D SPACE',''
  ) );
#295 = PCURVE('',#296,#301);
#296 = PLANE('',#297);
#297 = AXIS2_PLACEMENT_3D('',#298,#299,#300);
#298 = CARTESIAN_POINT('',(-51.,-2.886751345948,273.76684019561));
#299 = DIRECTION('',(0.5,0.866025403784,0.));
#300 = DIRECTION('',(0.866025403784,-0.5,0.));
#301 = DEFINITIONAL_REPRESENTATION('',(#302),#306);
#302 = HYPERBOLA('',#303,2.201429131403,5.);
#303 = AXIS2_PLACEMENT_2D('',#304,#305);
#304 = CARTESIAN_POINT('',(2.886751345948,2.091357674833));
#305 = DIRECTION('',(0.,-1.));
#306 = ( GEOMETRIC_REPRESENTATION_CONTEXT(2) 
PARAMETRIC_REPRESENTATION_CONTEXT() REPRESENTATION_CONTEXT('2D SPACE',''
  ) );
#307 = ORIENTED_EDGE('',*,*,#308,.F.);
#308 = EDGE_CURVE('',#309,#271,#311,.T.);
#309 = VERTEX_POINT('',#310);
#310 = CARTESIAN_POINT('',(-51.,2.886751345948,274.21747392401));
#311 = SURFACE_CURVE('',#312,(#317,#333),.PCURVE_S1.);
#312 = HYPERBOLA('',#313,2.201429131403,5.);
#313 = AXIS2_PLACEMENT_3D('',#314,#315,#316);
#314 = CARTESIAN_POINT('',(-51.,1.387778780781E-15,271.67548252078));
#315 = DIRECTION('',(1.,-2.775557561563E-16,0.));
#316 = DIRECTION('',(0.,0.,1.));
#317 = PCURVE('',#45,#318);
#318 = DEFINITIONAL_REPRESENTATION('',(#319),#332);
#319 = B_SPLINE_CURVE_WITH_KNOTS('',6,(#320,#321,#322,#323,#324,#325,
    #326,#327,#328,#329,#330,#331),.UNSPECIFIED.,.F.,.F.,(7,5,7),(
    -0.646774826402,1.110223024625E-16,0.646774826402),.UNSPECIFIED.);
#320 = CARTESIAN_POINT('',(2.535701534751,0.586796451888));
#321 = CARTESIAN_POINT('',(2.624309140146,0.422386847034));
#322 = CARTESIAN_POINT('',(2.719444043241,0.29532117251));
#323 = CARTESIAN_POINT('',(2.820455330944,0.202160984376));
#324 = CARTESIAN_POINT('',(2.926001867908,0.140768049749));
#325 = CARTESIAN_POINT('',(3.03379684919,0.11007145657));
#326 = CARTESIAN_POINT('',(3.24938845799,0.11007145657));
#327 = CARTESIAN_POINT('',(3.357183439271,0.140768049749));
#328 = CARTESIAN_POINT('',(3.462729976235,0.202160984376));
#329 = CARTESIAN_POINT('',(3.563741263939,0.29532117251));
#330 = CARTESIAN_POINT('',(3.658876167033,0.422386847034));
#331 = CARTESIAN_POINT('',(3.747483772429,0.586796451888));
#332 = ( GEOMETRIC_REPRESENTATION_CONTEXT(2) 
PARAMETRIC_REPRESENTATION_CONTEXT() REPRESENTATION_CONTEXT('2D SPACE',''
  ) );
#333 = PCURVE('',#334,#339);
#334 = PLANE('',#335);
#335 = AXIS2_PLACEMENT_3D('',#336,#337,#338);
#336 = CARTESIAN_POINT('',(-51.,2.886751345948,273.76684019561));
#337 = DIRECTION('',(1.,-2.775557561563E-16,0.));
#338 = DIRECTION('',(-2.775557561563E-16,-1.,0.));
#339 = DEFINITIONAL_REPRESENTATION('',(#340),#344);
#340 = HYPERBOLA('',#341,2.201429131403,5.);
#341 = AXIS2_PLACEMENT_2D('',#342,#343);
#342 = CARTESIAN_POINT('',(2.886751345948,2.091357674833));
#343 = DIRECTION('',(0.,-1.));
#344 = ( GEOMETRIC_REPRESENTATION_CONTEXT(2) 
PARAMETRIC_REPRESENTATION_CONTEXT() REPRESENTATION_CONTEXT('2D SPACE',''
  ) );
#345 = ORIENTED_EDGE('',*,*,#346,.F.);
#346 = EDGE_CURVE('',#24,#309,#347,.T.);
#347 = SURFACE_CURVE('',#348,(#353,#369),.PCURVE_S1.);
#348 = HYPERBOLA('',#349,2.201429131403,5.);
#349 = AXIS2_PLACEMENT_3D('',#350,#351,#352);
#350 = CARTESIAN_POINT('',(-48.5,4.330127018922,271.67548252078));
#351 = DIRECTION('',(0.5,-0.866025403784,0.));
#352 = DIRECTION('',(0.,0.,1.));
#353 = PCURVE('',#45,#354);
#354 = DEFINITIONAL_REPRESENTATION('',(#355),#368);
#355 = B_SPLINE_CURVE_WITH_KNOTS('',6,(#356,#357,#358,#359,#360,#361,
    #362,#363,#364,#365,#366,#367),.UNSPECIFIED.,.F.,.F.,(7,5,7),(
    -0.646774826402,-4.440892098501E-16,0.646774826402),.UNSPECIFIED.);
#356 = CARTESIAN_POINT('',(1.488503983554,0.586796451888));
#357 = CARTESIAN_POINT('',(1.57711158895,0.422386847034));
#358 = CARTESIAN_POINT('',(1.672246492044,0.29532117251));
#359 = CARTESIAN_POINT('',(1.773257779748,0.202160984376));
#360 = CARTESIAN_POINT('',(1.878804316712,0.140768049749));
#361 = CARTESIAN_POINT('',(1.986599297993,0.11007145657));
#362 = CARTESIAN_POINT('',(2.202190906793,0.11007145657));
#363 = CARTESIAN_POINT('',(2.309985888075,0.140768049749));
#364 = CARTESIAN_POINT('',(2.415532425039,0.202160984376));
#365 = CARTESIAN_POINT('',(2.516543712742,0.29532117251));
#366 = CARTESIAN_POINT('',(2.611678615837,0.422386847034));
#367 = CARTESIAN_POINT('',(2.700286221232,0.586796451888));
#368 = ( GEOMETRIC_REPRESENTATION_CONTEXT(2) 
PARAMETRIC_REPRESENTATION_CONTEXT() REPRESENTATION_CONTEXT('2D SPACE',''
  ) );
#369 = PCURVE('',#136,#370);
#370 = DEFINITIONAL_REPRESENTATION('',(#371),#375);
#371 = HYPERBOLA('',#372,2.201429131403,5.);
#372 = AXIS2_PLACEMENT_2D('',#373,#374);
#373 = CARTESIAN_POINT('',(2.886751345948,2.091357674833));
#374 = DIRECTION('',(0.,-1.));
#375 = ( GEOMETRIC_REPRESENTATION_CONTEXT(2) 
PARAMETRIC_REPRESENTATION_CONTEXT() REPRESENTATION_CONTEXT('2D SPACE',''
  ) );
#376 = ORIENTED_EDGE('',*,*,#21,.F.);
#377 = ORIENTED_EDGE('',*,*,#378,.F.);
#378 = EDGE_CURVE('',#154,#22,#379,.T.);
#379 = SURFACE_CURVE('',#380,(#385,#396),.PCURVE_S1.);
#380 = HYPERBOLA('',#381,2.201429131403,5.);
#381 = AXIS2_PLACEMENT_3D('',#382,#383,#384);
#382 = CARTESIAN_POINT('',(-41.,-2.22044604925E-15,271.67548252078));
#383 = DIRECTION('',(-1.,4.440892098501E-16,0.));
#384 = DIRECTION('',(0.,0.,1.));
#385 = PCURVE('',#45,#386);
#386 = DEFINITIONAL_REPRESENTATION('',(#387),#395);
#387 = B_SPLINE_CURVE_WITH_KNOTS('',6,(#388,#389,#390,#391,#392,#393,
    #394),.UNSPECIFIED.,.F.,.F.,(7,7),(4.440892098501E-16,0.646774826402
    ),.PIECEWISE_BEZIER_KNOTS.);
#388 = CARTESIAN_POINT('',(0.,0.11007145657));
#389 = CARTESIAN_POINT('',(0.1077958044,0.11007145657));
#390 = CARTESIAN_POINT('',(0.215590785681,0.140768049749));
#391 = CARTESIAN_POINT('',(0.321137322645,0.202160984376));
#392 = CARTESIAN_POINT('',(0.422148610349,0.29532117251));
#393 = CARTESIAN_POINT('',(0.517283513443,0.422386847034));
#394 = CARTESIAN_POINT('',(0.605891118839,0.586796451888));
#395 = ( GEOMETRIC_REPRESENTATION_CONTEXT(2) 
PARAMETRIC_REPRESENTATION_CONTEXT() REPRESENTATION_CONTEXT('2D SPACE',''
  ) );
#396 = PCURVE('',#82,#397);
#397 = DEFINITIONAL_REPRESENTATION('',(#398),#402);
#398 = HYPERBOLA('',#399,2.201429131403,5.);
#399 = AXIS2_PLACEMENT_2D('',#400,#401);
#400 = CARTESIAN_POINT('',(2.886751345948,2.091357674833));
#401 = DIRECTION('',(0.,-1.));
#402 = ( GEOMETRIC_REPRESENTATION_CONTEXT(2) 
PARAMETRIC_REPRESENTATION_CONTEXT() REPRESENTATION_CONTEXT('2D SPACE',''
  ) );
#403 = ADVANCED_FACE('',(#404),#136,.F.);
#404 = FACE_BOUND('',#405,.F.);
#405 = EDGE_LOOP('',(#406,#407,#408,#431));
#406 = ORIENTED_EDGE('',*,*,#346,.F.);
#407 = ORIENTED_EDGE('',*,*,#122,.T.);
#408 = ORIENTED_EDGE('',*,*,#409,.T.);
#409 = EDGE_CURVE('',#95,#410,#412,.T.);
#410 = VERTEX_POINT('',#411);
#411 = CARTESIAN_POINT('',(-51.,2.886751345948,277.76684019561));
#412 = SURFACE_CURVE('',#413,(#417,#424),.PCURVE_S1.);
#413 = LINE('',#414,#415);
#414 = CARTESIAN_POINT('',(-46.,5.773502691896,277.76684019561));
#415 = VECTOR('',#416,1.);
#416 = DIRECTION('',(-0.866025403784,-0.5,0.));
#417 = PCURVE('',#136,#418);
#418 = DEFINITIONAL_REPRESENTATION('',(#419),#423);
#419 = LINE('',#420,#421);
#420 = CARTESIAN_POINT('',(0.,-4.));
#421 = VECTOR('',#422,1.);
#422 = DIRECTION('',(1.,0.));
#423 = ( GEOMETRIC_REPRESENTATION_CONTEXT(2) 
PARAMETRIC_REPRESENTATION_CONTEXT() REPRESENTATION_CONTEXT('2D SPACE',''
  ) );
#424 = PCURVE('',#110,#425);
#425 = DEFINITIONAL_REPRESENTATION('',(#426),#430);
#426 = LINE('',#427,#428);
#427 = CARTESIAN_POINT('',(2.886751345948,5.));
#428 = VECTOR('',#429,1.);
#429 = DIRECTION('',(-1.,1.665334536938E-16));
#430 = ( GEOMETRIC_REPRESENTATION_CONTEXT(2) 
PARAMETRIC_REPRESENTATION_CONTEXT() REPRESENTATION_CONTEXT('2D SPACE',''
  ) );
#431 = ORIENTED_EDGE('',*,*,#432,.F.);
#432 = EDGE_CURVE('',#309,#410,#433,.T.);
#433 = SURFACE_CURVE('',#434,(#438,#445),.PCURVE_S1.);
#434 = LINE('',#435,#436);
#435 = CARTESIAN_POINT('',(-51.,2.886751345948,273.76684019561));
#436 = VECTOR('',#437,1.);
#437 = DIRECTION('',(0.,0.,1.));
#438 = PCURVE('',#136,#439);
#439 = DEFINITIONAL_REPRESENTATION('',(#440),#444);
#440 = LINE('',#441,#442);
#441 = CARTESIAN_POINT('',(5.773502691896,0.));
#442 = VECTOR('',#443,1.);
#443 = DIRECTION('',(0.,-1.));
#444 = ( GEOMETRIC_REPRESENTATION_CONTEXT(2) 
PARAMETRIC_REPRESENTATION_CONTEXT() REPRESENTATION_CONTEXT('2D SPACE',''
  ) );
#445 = PCURVE('',#334,#446);
#446 = DEFINITIONAL_REPRESENTATION('',(#447),#451);
#447 = LINE('',#448,#449);
#448 = CARTESIAN_POINT('',(0.,0.));
#449 = VECTOR('',#450,1.);
#450 = DIRECTION('',(0.,-1.));
#451 = ( GEOMETRIC_REPRESENTATION_CONTEXT(2) 
PARAMETRIC_REPRESENTATION_CONTEXT() REPRESENTATION_CONTEXT('2D SPACE',''
  ) );
#452 = ADVANCED_FACE('',(#453,#547),#110,.T.);
#453 = FACE_BOUND('',#454,.T.);
#454 = EDGE_LOOP('',(#455,#456,#457,#480,#503,#526));
#455 = ORIENTED_EDGE('',*,*,#94,.T.);
#456 = ORIENTED_EDGE('',*,*,#409,.T.);
#457 = ORIENTED_EDGE('',*,*,#458,.T.);
#458 = EDGE_CURVE('',#410,#459,#461,.T.);
#459 = VERTEX_POINT('',#460);
#460 = CARTESIAN_POINT('',(-51.,-2.886751345948,277.76684019561));
#461 = SURFACE_CURVE('',#462,(#466,#473),.PCURVE_S1.);
#462 = LINE('',#463,#464);
#463 = CARTESIAN_POINT('',(-51.,2.886751345948,277.76684019561));
#464 = VECTOR('',#465,1.);
#465 = DIRECTION('',(-2.775557561563E-16,-1.,0.));
#466 = PCURVE('',#110,#467);
#467 = DEFINITIONAL_REPRESENTATION('',(#468),#472);
#468 = LINE('',#469,#470);
#469 = CARTESIAN_POINT('',(-2.886751345948,5.));
#470 = VECTOR('',#471,1.);
#471 = DIRECTION('',(-0.5,-0.866025403784));
#472 = ( GEOMETRIC_REPRESENTATION_CONTEXT(2) 
PARAMETRIC_REPRESENTATION_CONTEXT() REPRESENTATION_CONTEXT('2D SPACE',''
  ) );
#473 = PCURVE('',#334,#474);
#474 = DEFINITIONAL_REPRESENTATION('',(#475),#479);
#475 = LINE('',#476,#477);
#476 = CARTESIAN_POINT('',(0.,-4.));
#477 = VECTOR('',#478,1.);
#478 = DIRECTION('',(1.,-0.));
#479 = ( GEOMETRIC_REPRESENTATION_CONTEXT(2) 
PARAMETRIC_REPRESENTATION_CONTEXT() REPRESENTATION_CONTEXT('2D SPACE',''
  ) );
#480 = ORIENTED_EDGE('',*,*,#481,.T.);
#481 = EDGE_CURVE('',#459,#482,#484,.T.);
#482 = VERTEX_POINT('',#483);
#483 = CARTESIAN_POINT('',(-46.,-5.773502691896,277.76684019561));
#484 = SURFACE_CURVE('',#485,(#489,#496),.PCURVE_S1.);
#485 = LINE('',#486,#487);
#486 = CARTESIAN_POINT('',(-51.,-2.886751345948,277.76684019561));
#487 = VECTOR('',#488,1.);
#488 = DIRECTION('',(0.866025403784,-0.5,0.));
#489 = PCURVE('',#110,#490);
#490 = DEFINITIONAL_REPRESENTATION('',(#491),#495);
#491 = LINE('',#492,#493);
#492 = CARTESIAN_POINT('',(-5.773502691896,8.881784197001E-16));
#493 = VECTOR('',#494,1.);
#494 = DIRECTION('',(0.5,-0.866025403784));
#495 = ( GEOMETRIC_REPRESENTATION_CONTEXT(2) 
PARAMETRIC_REPRESENTATION_CONTEXT() REPRESENTATION_CONTEXT('2D SPACE',''
  ) );
#496 = PCURVE('',#296,#497);
#497 = DEFINITIONAL_REPRESENTATION('',(#498),#502);
#498 = LINE('',#499,#500);
#499 = CARTESIAN_POINT('',(0.,-4.));
#500 = VECTOR('',#501,1.);
#501 = DIRECTION('',(1.,0.));
#502 = ( GEOMETRIC_REPRESENTATION_CONTEXT(2) 
PARAMETRIC_REPRESENTATION_CONTEXT() REPRESENTATION_CONTEXT('2D SPACE',''
  ) );
#503 = ORIENTED_EDGE('',*,*,#504,.T.);
#504 = EDGE_CURVE('',#482,#505,#507,.T.);
#505 = VERTEX_POINT('',#506);
#506 = CARTESIAN_POINT('',(-41.,-2.886751345948,277.76684019561));
#507 = SURFACE_CURVE('',#508,(#512,#519),.PCURVE_S1.);
#508 = LINE('',#509,#510);
#509 = CARTESIAN_POINT('',(-46.,-5.773502691896,277.76684019561));
#510 = VECTOR('',#511,1.);
#511 = DIRECTION('',(0.866025403784,0.5,0.));
#512 = PCURVE('',#110,#513);
#513 = DEFINITIONAL_REPRESENTATION('',(#514),#518);
#514 = LINE('',#515,#516);
#515 = CARTESIAN_POINT('',(-2.886751345948,-5.));
#516 = VECTOR('',#517,1.);
#517 = DIRECTION('',(1.,-6.661338147751E-16));
#518 = ( GEOMETRIC_REPRESENTATION_CONTEXT(2) 
PARAMETRIC_REPRESENTATION_CONTEXT() REPRESENTATION_CONTEXT('2D SPACE',''
  ) );
#519 = PCURVE('',#258,#520);
#520 = DEFINITIONAL_REPRESENTATION('',(#521),#525);
#521 = LINE('',#522,#523);
#522 = CARTESIAN_POINT('',(0.,-4.));
#523 = VECTOR('',#524,1.);
#524 = DIRECTION('',(1.,0.));
#525 = ( GEOMETRIC_REPRESENTATION_CONTEXT(2) 
PARAMETRIC_REPRESENTATION_CONTEXT() REPRESENTATION_CONTEXT('2D SPACE',''
  ) );
#526 = ORIENTED_EDGE('',*,*,#527,.T.);
#527 = EDGE_CURVE('',#505,#67,#528,.T.);
#528 = SURFACE_CURVE('',#529,(#533,#540),.PCURVE_S1.);
#529 = LINE('',#530,#531);
#530 = CARTESIAN_POINT('',(-41.,-2.886751345948,277.76684019561));
#531 = VECTOR('',#532,1.);
#532 = DIRECTION('',(4.440892098501E-16,1.,0.));
#533 = PCURVE('',#110,#534);
#534 = DEFINITIONAL_REPRESENTATION('',(#535),#539);
#535 = LINE('',#536,#537);
#536 = CARTESIAN_POINT('',(2.886751345948,-5.));
#537 = VECTOR('',#538,1.);
#538 = DIRECTION('',(0.5,0.866025403784));
#539 = ( GEOMETRIC_REPRESENTATION_CONTEXT(2) 
PARAMETRIC_REPRESENTATION_CONTEXT() REPRESENTATION_CONTEXT('2D SPACE',''
  ) );
#540 = PCURVE('',#82,#541);
#541 = DEFINITIONAL_REPRESENTATION('',(#542),#546);
#542 = LINE('',#543,#544);
#543 = CARTESIAN_POINT('',(0.,-4.));
#544 = VECTOR('',#545,1.);
#545 = DIRECTION('',(1.,0.));
#546 = ( GEOMETRIC_REPRESENTATION_CONTEXT(2) 
PARAMETRIC_REPRESENTATION_CONTEXT() REPRESENTATION_CONTEXT('2D SPACE',''
  ) );
#547 = FACE_BOUND('',#548,.T.);
#548 = EDGE_LOOP('',(#549));
#549 = ORIENTED_EDGE('',*,*,#550,.F.);
#550 = EDGE_CURVE('',#551,#551,#553,.T.);
#551 = VERTEX_POINT('',#552);
#552 = CARTESIAN_POINT('',(-43.,-7.347880794884E-16,277.76684019561));
#553 = SURFACE_CURVE('',#554,(#559,#566),.PCURVE_S1.);
#554 = CIRCLE('',#555,3.);
#555 = AXIS2_PLACEMENT_3D('',#556,#557,#558);
#556 = CARTESIAN_POINT('',(-46.,0.,277.76684019561));
#557 = DIRECTION('',(0.,0.,1.));
#558 = DIRECTION('',(1.,0.,-0.));
#559 = PCURVE('',#110,#560);
#560 = DEFINITIONAL_REPRESENTATION('',(#561),#565);
#561 = CIRCLE('',#562,3.);
#562 = AXIS2_PLACEMENT_2D('',#563,#564);
#563 = CARTESIAN_POINT('',(2.511191494028E-16,4.349511255191E-16));
#564 = DIRECTION('',(0.866025403784,-0.5));
#565 = ( GEOMETRIC_REPRESENTATION_CONTEXT(2) 
PARAMETRIC_REPRESENTATION_CONTEXT() REPRESENTATION_CONTEXT('2D SPACE',''
  ) );
#566 = PCURVE('',#567,#572);
#567 = CYLINDRICAL_SURFACE('',#568,3.);
#568 = AXIS2_PLACEMENT_3D('',#569,#570,#571);
#569 = CARTESIAN_POINT('',(-46.,0.,277.75684019561));
#570 = DIRECTION('',(0.,0.,1.));
#571 = DIRECTION('',(1.,0.,-0.));
#572 = DEFINITIONAL_REPRESENTATION('',(#573),#577);
#573 = LINE('',#574,#575);
#574 = CARTESIAN_POINT('',(0.,9.999999999991E-03));
#575 = VECTOR('',#576,1.);
#576 = DIRECTION('',(1.,0.));
#577 = ( GEOMETRIC_REPRESENTATION_CONTEXT(2) 
PARAMETRIC_REPRESENTATION_CONTEXT() REPRESENTATION_CONTEXT('2D SPACE',''
  ) );
#578 = ADVANCED_FACE('',(#579),#82,.F.);
#579 = FACE_BOUND('',#580,.F.);
#580 = EDGE_LOOP('',(#581,#582,#603,#604,#605));
#581 = ORIENTED_EDGE('',*,*,#204,.F.);
#582 = ORIENTED_EDGE('',*,*,#583,.T.);
#583 = EDGE_CURVE('',#205,#505,#584,.T.);
#584 = SURFACE_CURVE('',#585,(#589,#596),.PCURVE_S1.);
#585 = LINE('',#586,#587);
#586 = CARTESIAN_POINT('',(-41.,-2.886751345948,273.76684019561));
#587 = VECTOR('',#588,1.);
#588 = DIRECTION('',(0.,0.,1.));
#589 = PCURVE('',#82,#590);
#590 = DEFINITIONAL_REPRESENTATION('',(#591),#595);
#591 = LINE('',#592,#593);
#592 = CARTESIAN_POINT('',(0.,0.));
#593 = VECTOR('',#594,1.);
#594 = DIRECTION('',(0.,-1.));
#595 = ( GEOMETRIC_REPRESENTATION_CONTEXT(2) 
PARAMETRIC_REPRESENTATION_CONTEXT() REPRESENTATION_CONTEXT('2D SPACE',''
  ) );
#596 = PCURVE('',#258,#597);
#597 = DEFINITIONAL_REPRESENTATION('',(#598),#602);
#598 = LINE('',#599,#600);
#599 = CARTESIAN_POINT('',(5.773502691896,0.));
#600 = VECTOR('',#601,1.);
#601 = DIRECTION('',(0.,-1.));
#602 = ( GEOMETRIC_REPRESENTATION_CONTEXT(2) 
PARAMETRIC_REPRESENTATION_CONTEXT() REPRESENTATION_CONTEXT('2D SPACE',''
  ) );
#603 = ORIENTED_EDGE('',*,*,#527,.T.);
#604 = ORIENTED_EDGE('',*,*,#66,.F.);
#605 = ORIENTED_EDGE('',*,*,#378,.F.);
#606 = ADVANCED_FACE('',(#607),#334,.F.);
#607 = FACE_BOUND('',#608,.F.);
#608 = EDGE_LOOP('',(#609,#610,#611,#612));
#609 = ORIENTED_EDGE('',*,*,#308,.F.);
#610 = ORIENTED_EDGE('',*,*,#432,.T.);
#611 = ORIENTED_EDGE('',*,*,#458,.T.);
#612 = ORIENTED_EDGE('',*,*,#613,.F.);
#613 = EDGE_CURVE('',#271,#459,#614,.T.);
#614 = SURFACE_CURVE('',#615,(#619,#626),.PCURVE_S1.);
#615 = LINE('',#616,#617);
#616 = CARTESIAN_POINT('',(-51.,-2.886751345948,273.76684019561));
#617 = VECTOR('',#618,1.);
#618 = DIRECTION('',(0.,0.,1.));
#619 = PCURVE('',#334,#620);
#620 = DEFINITIONAL_REPRESENTATION('',(#621),#625);
#621 = LINE('',#622,#623);
#622 = CARTESIAN_POINT('',(5.773502691896,0.));
#623 = VECTOR('',#624,1.);
#624 = DIRECTION('',(0.,-1.));
#625 = ( GEOMETRIC_REPRESENTATION_CONTEXT(2) 
PARAMETRIC_REPRESENTATION_CONTEXT() REPRESENTATION_CONTEXT('2D SPACE',''
  ) );
#626 = PCURVE('',#296,#627);
#627 = DEFINITIONAL_REPRESENTATION('',(#628),#632);
#628 = LINE('',#629,#630);
#629 = CARTESIAN_POINT('',(0.,0.));
#630 = VECTOR('',#631,1.);
#631 = DIRECTION('',(0.,-1.));
#632 = ( GEOMETRIC_REPRESENTATION_CONTEXT(2) 
PARAMETRIC_REPRESENTATION_CONTEXT() REPRESENTATION_CONTEXT('2D SPACE',''
  ) );
#633 = ADVANCED_FACE('',(#634),#296,.F.);
#634 = FACE_BOUND('',#635,.F.);
#635 = EDGE_LOOP('',(#636,#637,#638,#639));
#636 = ORIENTED_EDGE('',*,*,#270,.F.);
#637 = ORIENTED_EDGE('',*,*,#613,.T.);
#638 = ORIENTED_EDGE('',*,*,#481,.T.);
#639 = ORIENTED_EDGE('',*,*,#640,.F.);
#640 = EDGE_CURVE('',#233,#482,#641,.T.);
#641 = SURFACE_CURVE('',#642,(#646,#653),.PCURVE_S1.);
#642 = LINE('',#643,#644);
#643 = CARTESIAN_POINT('',(-46.,-5.773502691896,273.76684019561));
#644 = VECTOR('',#645,1.);
#645 = DIRECTION('',(0.,0.,1.));
#646 = PCURVE('',#296,#647);
#647 = DEFINITIONAL_REPRESENTATION('',(#648),#652);
#648 = LINE('',#649,#650);
#649 = CARTESIAN_POINT('',(5.773502691896,0.));
#650 = VECTOR('',#651,1.);
#651 = DIRECTION('',(0.,-1.));
#652 = ( GEOMETRIC_REPRESENTATION_CONTEXT(2) 
PARAMETRIC_REPRESENTATION_CONTEXT() REPRESENTATION_CONTEXT('2D SPACE',''
  ) );
#653 = PCURVE('',#258,#654);
#654 = DEFINITIONAL_REPRESENTATION('',(#655),#659);
#655 = LINE('',#656,#657);
#656 = CARTESIAN_POINT('',(0.,0.));
#657 = VECTOR('',#658,1.);
#658 = DIRECTION('',(0.,-1.));
#659 = ( GEOMETRIC_REPRESENTATION_CONTEXT(2) 
PARAMETRIC_REPRESENTATION_CONTEXT() REPRESENTATION_CONTEXT('2D SPACE',''
  ) );
#660 = ADVANCED_FACE('',(#661),#258,.F.);
#661 = FACE_BOUND('',#662,.F.);
#662 = EDGE_LOOP('',(#663,#664,#665,#666));
#663 = ORIENTED_EDGE('',*,*,#232,.F.);
#664 = ORIENTED_EDGE('',*,*,#640,.T.);
#665 = ORIENTED_EDGE('',*,*,#504,.T.);
#666 = ORIENTED_EDGE('',*,*,#583,.F.);
#667 = ADVANCED_FACE('',(#668),#191,.F.);
#668 = FACE_BOUND('',#669,.T.);
#669 = EDGE_LOOP('',(#670));
#670 = ORIENTED_EDGE('',*,*,#176,.F.);
#671 = ADVANCED_FACE('',(#672),#567,.T.);
#672 = FACE_BOUND('',#673,.T.);
#673 = EDGE_LOOP('',(#674,#697,#724,#725));
#674 = ORIENTED_EDGE('',*,*,#675,.T.);
#675 = EDGE_CURVE('',#551,#676,#678,.T.);
#676 = VERTEX_POINT('',#677);
#677 = CARTESIAN_POINT('',(-43.,-7.347880794884E-16,289.76684019561));
#678 = SEAM_CURVE('',#679,(#683,#690),.PCURVE_S1.);
#679 = LINE('',#680,#681);
#680 = CARTESIAN_POINT('',(-43.,-7.347880794884E-16,277.75684019561));
#681 = VECTOR('',#682,1.);
#682 = DIRECTION('',(0.,0.,1.));
#683 = PCURVE('',#567,#684);
#684 = DEFINITIONAL_REPRESENTATION('',(#685),#689);
#685 = LINE('',#686,#687);
#686 = CARTESIAN_POINT('',(6.28318530718,-0.));
#687 = VECTOR('',#688,1.);
#688 = DIRECTION('',(0.,1.));
#689 = ( GEOMETRIC_REPRESENTATION_CONTEXT(2) 
PARAMETRIC_REPRESENTATION_CONTEXT() REPRESENTATION_CONTEXT('2D SPACE',''
  ) );
#690 = PCURVE('',#567,#691);
#691 = DEFINITIONAL_REPRESENTATION('',(#692),#696);
#692 = LINE('',#693,#694);
#693 = CARTESIAN_POINT('',(0.,-0.));
#694 = VECTOR('',#695,1.);
#695 = DIRECTION('',(0.,1.));
#696 = ( GEOMETRIC_REPRESENTATION_CONTEXT(2) 
PARAMETRIC_REPRESENTATION_CONTEXT() REPRESENTATION_CONTEXT('2D SPACE',''
  ) );
#697 = ORIENTED_EDGE('',*,*,#698,.F.);
#698 = EDGE_CURVE('',#676,#676,#699,.T.);
#699 = SURFACE_CURVE('',#700,(#705,#712),.PCURVE_S1.);
#700 = CIRCLE('',#701,3.);
#701 = AXIS2_PLACEMENT_3D('',#702,#703,#704);
#702 = CARTESIAN_POINT('',(-46.,0.,289.76684019561));
#703 = DIRECTION('',(0.,0.,1.));
#704 = DIRECTION('',(1.,0.,-0.));
#705 = PCURVE('',#567,#706);
#706 = DEFINITIONAL_REPRESENTATION('',(#707),#711);
#707 = LINE('',#708,#709);
#708 = CARTESIAN_POINT('',(0.,12.01));
#709 = VECTOR('',#710,1.);
#710 = DIRECTION('',(1.,0.));
#711 = ( GEOMETRIC_REPRESENTATION_CONTEXT(2) 
PARAMETRIC_REPRESENTATION_CONTEXT() REPRESENTATION_CONTEXT('2D SPACE',''
  ) );
#712 = PCURVE('',#713,#718);
#713 = PLANE('',#714);
#714 = AXIS2_PLACEMENT_3D('',#715,#716,#717);
#715 = CARTESIAN_POINT('',(-46.,0.,289.76684019561));
#716 = DIRECTION('',(0.,0.,1.));
#717 = DIRECTION('',(1.,0.,-0.));
#718 = DEFINITIONAL_REPRESENTATION('',(#719),#723);
#719 = CIRCLE('',#720,3.);
#720 = AXIS2_PLACEMENT_2D('',#721,#722);
#721 = CARTESIAN_POINT('',(0.,0.));
#722 = DIRECTION('',(1.,0.));
#723 = ( GEOMETRIC_REPRESENTATION_CONTEXT(2) 
PARAMETRIC_REPRESENTATION_CONTEXT() REPRESENTATION_CONTEXT('2D SPACE',''
  ) );
#724 = ORIENTED_EDGE('',*,*,#675,.F.);
#725 = ORIENTED_EDGE('',*,*,#550,.T.);
#726 = ADVANCED_FACE('',(#727),#713,.T.);
#727 = FACE_BOUND('',#728,.T.);
#728 = EDGE_LOOP('',(#729));
#729 = ORIENTED_EDGE('',*,*,#698,.T.);
#730 = ( GEOMETRIC_REPRESENTATION_CONTEXT(3) 
GLOBAL_UNCERTAINTY_ASSIGNED_CONTEXT((#734)) GLOBAL_UNIT_ASSIGNED_CONTEXT
((#731,#732,#733)) REPRESENTATION_CONTEXT('Context #1',
  '3D Context with UNIT and UNCERTAINTY') );
#731 = ( LENGTH_UNIT() NAMED_UNIT(*) SI_UNIT(.MILLI.,.METRE.) );
#732 = ( NAMED_UNIT(*) PLANE_ANGLE_UNIT() SI_UNIT($,.RADIAN.) );
#733 = ( NAMED_UNIT(*) SI_UNIT($,.STERADIAN.) SOLID_ANGLE_UNIT() );
#734 = UNCERTAINTY_MEASURE_WITH_UNIT(LENGTH_MEASURE(2.E-07),#731,
  'distance_accuracy_value','confusion accuracy');
#735 = PRODUCT_RELATED_PRODUCT_CATEGORY('part',$,(#7));
ENDSEC;
END-ISO-10303-21;
