ISO-10303-21;
HEADER;
FILE_DESCRIPTION(('Open CASCADE Model'),'2;1');
FILE_NAME('Open CASCADE Shape Model','2026-09-23T09:53:22',('Author'),(
    'Open CASCADE'),'Open CASCADE STEP processor 7.9','Open CASCADE 7.9'
  ,'Unknown');
FILE_SCHEMA(('AUTOMOTIVE_DESIGN { 1 0 10303 214 1 1 1 1 }'));
ENDSEC;
DATA;
#1 = APPLICATION_PROTOCOL_DEFINITION('international standard',
  'automotive_design',2000,#2);
#2 = APPLICATION_CONTEXT(
  'core data for automotive mechanical design processes');
#3 = SHAPE_DEFINITION_REPRESENTATION(#4,#10);
#4 = PRODUCT_DEFINITION_SHAPE('','',#5);
#5 = PRODUCT_DEFINITION('design','',#6,#9);
#6 = PRODUCT_DEFINITION_FORMATION('','',#7);
#7 = PRODUCT('Open CASCADE STEP translator 7.9 69',
  'Open CASCADE STEP translator 7.9 69','',(#8));
#8 = PRODUCT_CONTEXT('',#2,'mechanical');
#9 = PRODUCT_DEFINITION_CONTEXT('part definition',#2,'design');
#10 = ADVANCED_BREP_SHAPE_REPRESENTATION('',(#11,#15),#742);
#11 = AXIS2_PLACEMENT_3D('',#12,#13,#14);
#12 = CARTESIAN_POINT('',(0.,0.,0.));
#13 = DIRECTION('',(0.,0.,1.));
#14 = DIRECTION('',(1.,0.,-0.));
#15 = MANIFOLD_SOLID_BREP('',#16);
#16 = CLOSED_SHELL('',(#17,#147,#407,#456,#586,#614,#641,#668,#675,#679,
    #738));
#17 = ADVANCED_FACE('',(#18),#33,.F.);
#18 = FACE_BOUND('',#19,.T.);
#19 = EDGE_LOOP('',(#20,#65,#93,#121));
#20 = ORIENTED_EDGE('',*,*,#21,.F.);
#21 = EDGE_CURVE('',#22,#24,#26,.T.);
#22 = VERTEX_POINT('',#23);
#23 = CARTESIAN_POINT('',(41.,2.886751345948,274.21747392401));
#24 = VERTEX_POINT('',#25);
#25 = CARTESIAN_POINT('',(46.,5.773502691896,274.21747392401));
#26 = SURFACE_CURVE('',#27,(#32,#44),.PCURVE_S1.);
#27 = HYPERBOLA('',#28,2.201429131403,5.);
#28 = AXIS2_PLACEMENT_3D('',#29,#30,#31);
#29 = CARTESIAN_POINT('',(43.5,4.330127018922,271.67548252078));
#30 = DIRECTION('',(-0.5,0.866025403784,0.));
#31 = DIRECTION('',(-0.,-0.,1.));
#32 = PCURVE('',#33,#38);
#33 = PLANE('',#34);
#34 = AXIS2_PLACEMENT_3D('',#35,#36,#37);
#35 = CARTESIAN_POINT('',(41.,2.886751345948,273.76684019561));
#36 = DIRECTION('',(0.5,-0.866025403784,0.));
#37 = DIRECTION('',(-0.866025403784,-0.5,0.));
#38 = DEFINITIONAL_REPRESENTATION('',(#39),#43);
#39 = HYPERBOLA('',#40,2.201429131403,5.);
#40 = AXIS2_PLACEMENT_2D('',#41,#42);
#41 = CARTESIAN_POINT('',(-2.886751345948,2.091357674833));
#42 = DIRECTION('',(-0.,-1.));
#43 = ( GEOMETRIC_REPRESENTATION_CONTEXT(2) 
PARAMETRIC_REPRESENTATION_CONTEXT() REPRESENTATION_CONTEXT('2D SPACE',''
  ) );
#44 = PCURVE('',#45,#50);
#45 = CONICAL_SURFACE('',#46,4.75,1.156050011726);
#46 = AXIS2_PLACEMENT_3D('',#47,#48,#49);
#47 = CARTESIAN_POINT('',(46.,0.,273.76684019561));
#48 = DIRECTION('',(-0.,-0.,1.));
#49 = DIRECTION('',(-1.,-0.,-0.));
#50 = DEFINITIONAL_REPRESENTATION('',(#51),#64);
#51 = B_SPLINE_CURVE_WITH_KNOTS('',6,(#52,#53,#54,#55,#56,#57,#58,#59,
    #60,#61,#62,#63),.UNSPECIFIED.,.F.,.F.,(7,5,7),(-0.646774826402,
    -1.110223024625E-16,0.646774826402),.UNSPECIFIED.);
#52 = CARTESIAN_POINT('',(-0.441306432357,0.586796451888));
#53 = CARTESIAN_POINT('',(-0.529914037753,0.422386847034));
#54 = CARTESIAN_POINT('',(-0.625048940848,0.29532117251));
#55 = CARTESIAN_POINT('',(-0.726060228551,0.202160984376));
#56 = CARTESIAN_POINT('',(-0.831606765515,0.140768049749));
#57 = CARTESIAN_POINT('',(-0.939401746796,0.11007145657));
#58 = CARTESIAN_POINT('',(-1.154993355597,0.11007145657));
#59 = CARTESIAN_POINT('',(-1.262788336878,0.140768049749));
#60 = CARTESIAN_POINT('',(-1.368334873842,0.202160984376));
#61 = CARTESIAN_POINT('',(-1.469346161545,0.29532117251));
#62 = CARTESIAN_POINT('',(-1.56448106464,0.422386847034));
#63 = CARTESIAN_POINT('',(-1.653088670036,0.586796451888));
#64 = ( GEOMETRIC_REPRESENTATION_CONTEXT(2) 
PARAMETRIC_REPRESENTATION_CONTEXT() REPRESENTATION_CONTEXT('2D SPACE',''
  ) );
#65 = ORIENTED_EDGE('',*,*,#66,.T.);
#66 = EDGE_CURVE('',#22,#67,#69,.T.);
#67 = VERTEX_POINT('',#68);
#68 = CARTESIAN_POINT('',(41.,2.886751345948,277.76684019561));
#69 = SURFACE_CURVE('',#70,(#74,#81),.PCURVE_S1.);
#70 = LINE('',#71,#72);
#71 = CARTESIAN_POINT('',(41.,2.886751345948,273.76684019561));
#72 = VECTOR('',#73,1.);
#73 = DIRECTION('',(-0.,-0.,1.));
#74 = PCURVE('',#33,#75);
#75 = DEFINITIONAL_REPRESENTATION('',(#76),#80);
#76 = LINE('',#77,#78);
#77 = CARTESIAN_POINT('',(-0.,0.));
#78 = VECTOR('',#79,1.);
#79 = DIRECTION('',(-0.,-1.));
#80 = ( GEOMETRIC_REPRESENTATION_CONTEXT(2) 
PARAMETRIC_REPRESENTATION_CONTEXT() REPRESENTATION_CONTEXT('2D SPACE',''
  ) );
#81 = PCURVE('',#82,#87);
#82 = PLANE('',#83);
#83 = AXIS2_PLACEMENT_3D('',#84,#85,#86);
#84 = CARTESIAN_POINT('',(41.,-2.886751345948,273.76684019561));
#85 = DIRECTION('',(1.,4.440892098501E-16,-0.));
#86 = DIRECTION('',(4.440892098501E-16,-1.,0.));
#87 = DEFINITIONAL_REPRESENTATION('',(#88),#92);
#88 = LINE('',#89,#90);
#89 = CARTESIAN_POINT('',(-5.773502691896,-0.));
#90 = VECTOR('',#91,1.);
#91 = DIRECTION('',(-0.,-1.));
#92 = ( GEOMETRIC_REPRESENTATION_CONTEXT(2) 
PARAMETRIC_REPRESENTATION_CONTEXT() REPRESENTATION_CONTEXT('2D SPACE',''
  ) );
#93 = ORIENTED_EDGE('',*,*,#94,.T.);
#94 = EDGE_CURVE('',#67,#95,#97,.T.);
#95 = VERTEX_POINT('',#96);
#96 = CARTESIAN_POINT('',(46.,5.773502691896,277.76684019561));
#97 = SURFACE_CURVE('',#98,(#102,#109),.PCURVE_S1.);
#98 = LINE('',#99,#100);
#99 = CARTESIAN_POINT('',(41.,2.886751345948,277.76684019561));
#100 = VECTOR('',#101,1.);
#101 = DIRECTION('',(0.866025403784,0.5,-0.));
#102 = PCURVE('',#33,#103);
#103 = DEFINITIONAL_REPRESENTATION('',(#104),#108);
#104 = LINE('',#105,#106);
#105 = CARTESIAN_POINT('',(-0.,-4.));
#106 = VECTOR('',#107,1.);
#107 = DIRECTION('',(-1.,0.));
#108 = ( GEOMETRIC_REPRESENTATION_CONTEXT(2) 
PARAMETRIC_REPRESENTATION_CONTEXT() REPRESENTATION_CONTEXT('2D SPACE',''
  ) );
#109 = PCURVE('',#110,#115);
#110 = PLANE('',#111);
#111 = AXIS2_PLACEMENT_3D('',#112,#113,#114);
#112 = CARTESIAN_POINT('',(46.,-5.022382988055E-16,277.76684019561));
#113 = DIRECTION('',(-0.,-0.,1.));
#114 = DIRECTION('',(0.866025403784,-0.5,0.));
#115 = DEFINITIONAL_REPRESENTATION('',(#116),#120);
#116 = LINE('',#117,#118);
#117 = CARTESIAN_POINT('',(-5.773502691896,4.440892098501E-16));
#118 = VECTOR('',#119,1.);
#119 = DIRECTION('',(0.5,0.866025403784));
#120 = ( GEOMETRIC_REPRESENTATION_CONTEXT(2) 
PARAMETRIC_REPRESENTATION_CONTEXT() REPRESENTATION_CONTEXT('2D SPACE',''
  ) );
#121 = ORIENTED_EDGE('',*,*,#122,.F.);
#122 = EDGE_CURVE('',#24,#95,#123,.T.);
#123 = SURFACE_CURVE('',#124,(#128,#135),.PCURVE_S1.);
#124 = LINE('',#125,#126);
#125 = CARTESIAN_POINT('',(46.,5.773502691896,273.76684019561));
#126 = VECTOR('',#127,1.);
#127 = DIRECTION('',(-0.,-0.,1.));
#128 = PCURVE('',#33,#129);
#129 = DEFINITIONAL_REPRESENTATION('',(#130),#134);
#130 = LINE('',#131,#132);
#131 = CARTESIAN_POINT('',(-5.773502691896,0.));
#132 = VECTOR('',#133,1.);
#133 = DIRECTION('',(-0.,-1.));
#134 = ( GEOMETRIC_REPRESENTATION_CONTEXT(2) 
PARAMETRIC_REPRESENTATION_CONTEXT() REPRESENTATION_CONTEXT('2D SPACE',''
  ) );
#135 = PCURVE('',#136,#141);
#136 = PLANE('',#137);
#137 = AXIS2_PLACEMENT_3D('',#138,#139,#140);
#138 = CARTESIAN_POINT('',(46.,5.773502691896,273.76684019561));
#139 = DIRECTION('',(-0.5,-0.866025403784,-0.));
#140 = DIRECTION('',(-0.866025403784,0.5,-0.));
#141 = DEFINITIONAL_REPRESENTATION('',(#142),#146);
#142 = LINE('',#143,#144);
#143 = CARTESIAN_POINT('',(-0.,0.));
#144 = VECTOR('',#145,1.);
#145 = DIRECTION('',(-0.,-1.));
#146 = ( GEOMETRIC_REPRESENTATION_CONTEXT(2) 
PARAMETRIC_REPRESENTATION_CONTEXT() REPRESENTATION_CONTEXT('2D SPACE',''
  ) );
#147 = ADVANCED_FACE('',(#148),#45,.T.);
#148 = FACE_BOUND('',#149,.F.);
#149 = EDGE_LOOP('',(#150,#175,#206,#207,#235,#273,#311,#349,#380,#381)
  );
#150 = ORIENTED_EDGE('',*,*,#151,.F.);
#151 = EDGE_CURVE('',#152,#154,#156,.T.);
#152 = VERTEX_POINT('',#153);
#153 = CARTESIAN_POINT('',(41.25,0.,273.76684019561));
#154 = VERTEX_POINT('',#155);
#155 = CARTESIAN_POINT('',(41.,0.,273.87691165218));
#156 = SEAM_CURVE('',#157,(#161,#168),.PCURVE_S1.);
#157 = LINE('',#158,#159);
#158 = CARTESIAN_POINT('',(41.25,0.,273.76684019561));
#159 = VECTOR('',#160,1.);
#160 = DIRECTION('',(-0.915218574256,-0.,0.402957766194));
#161 = PCURVE('',#45,#162);
#162 = DEFINITIONAL_REPRESENTATION('',(#163),#167);
#163 = LINE('',#164,#165);
#164 = CARTESIAN_POINT('',(-0.,0.));
#165 = VECTOR('',#166,1.);
#166 = DIRECTION('',(-0.,1.));
#167 = ( GEOMETRIC_REPRESENTATION_CONTEXT(2) 
PARAMETRIC_REPRESENTATION_CONTEXT() REPRESENTATION_CONTEXT('2D SPACE',''
  ) );
#168 = PCURVE('',#45,#169);
#169 = DEFINITIONAL_REPRESENTATION('',(#170),#174);
#170 = LINE('',#171,#172);
#171 = CARTESIAN_POINT('',(-6.28318530718,0.));
#172 = VECTOR('',#173,1.);
#173 = DIRECTION('',(-0.,1.));
#174 = ( GEOMETRIC_REPRESENTATION_CONTEXT(2) 
PARAMETRIC_REPRESENTATION_CONTEXT() REPRESENTATION_CONTEXT('2D SPACE',''
  ) );
#175 = ORIENTED_EDGE('',*,*,#176,.T.);
#176 = EDGE_CURVE('',#152,#152,#177,.T.);
#177 = SURFACE_CURVE('',#178,(#183,#190),.PCURVE_S1.);
#178 = CIRCLE('',#179,4.75);
#179 = AXIS2_PLACEMENT_3D('',#180,#181,#182);
#180 = CARTESIAN_POINT('',(46.,0.,273.76684019561));
#181 = DIRECTION('',(0.,0.,-1.));
#182 = DIRECTION('',(-1.,-0.,-0.));
#183 = PCURVE('',#45,#184);
#184 = DEFINITIONAL_REPRESENTATION('',(#185),#189);
#185 = LINE('',#186,#187);
#186 = CARTESIAN_POINT('',(-0.,0.));
#187 = VECTOR('',#188,1.);
#188 = DIRECTION('',(-1.,0.));
#189 = ( GEOMETRIC_REPRESENTATION_CONTEXT(2) 
PARAMETRIC_REPRESENTATION_CONTEXT() REPRESENTATION_CONTEXT('2D SPACE',''
  ) );
#190 = PCURVE('',#191,#196);
#191 = PLANE('',#192);
#192 = AXIS2_PLACEMENT_3D('',#193,#194,#195);
#193 = CARTESIAN_POINT('',(46.,0.,273.76684019561));
#194 = DIRECTION('',(-0.,-0.,1.));
#195 = DIRECTION('',(1.,-0.,0.));
#196 = DEFINITIONAL_REPRESENTATION('',(#197),#205);
#197 = ( BOUNDED_CURVE() B_SPLINE_CURVE(2,(#198,#199,#200,#201,#202,#203
,#204),.UNSPECIFIED.,.T.,.F.) B_SPLINE_CURVE_WITH_KNOTS((1,2,2,2,2,1),(
    -2.094395102393,0.,2.094395102393,4.188790204786,6.28318530718,
8.377580409573),.UNSPECIFIED.) CURVE() GEOMETRIC_REPRESENTATION_ITEM() 
RATIONAL_B_SPLINE_CURVE((1.,0.5,1.,0.5,1.,0.5,1.)) REPRESENTATION_ITEM(
  '') );
#198 = CARTESIAN_POINT('',(-4.75,0.));
#199 = CARTESIAN_POINT('',(-4.75,8.227241335952));
#200 = CARTESIAN_POINT('',(2.375,4.113620667976));
#201 = CARTESIAN_POINT('',(9.5,1.16341445919E-15));
#202 = CARTESIAN_POINT('',(2.375,-4.113620667976));
#203 = CARTESIAN_POINT('',(-4.75,-8.227241335952));
#204 = CARTESIAN_POINT('',(-4.75,0.));
#205 = ( GEOMETRIC_REPRESENTATION_CONTEXT(2) 
PARAMETRIC_REPRESENTATION_CONTEXT() REPRESENTATION_CONTEXT('2D SPACE',''
  ) );
#206 = ORIENTED_EDGE('',*,*,#151,.T.);
#207 = ORIENTED_EDGE('',*,*,#208,.F.);
#208 = EDGE_CURVE('',#209,#154,#211,.T.);
#209 = VERTEX_POINT('',#210);
#210 = CARTESIAN_POINT('',(41.,-2.886751345948,274.21747392401));
#211 = SURFACE_CURVE('',#212,(#217,#228),.PCURVE_S1.);
#212 = HYPERBOLA('',#213,2.201429131403,5.);
#213 = AXIS2_PLACEMENT_3D('',#214,#215,#216);
#214 = CARTESIAN_POINT('',(41.,-2.22044604925E-15,271.67548252078));
#215 = DIRECTION('',(-1.,-4.440892098501E-16,-0.));
#216 = DIRECTION('',(-0.,-0.,1.));
#217 = PCURVE('',#45,#218);
#218 = DEFINITIONAL_REPRESENTATION('',(#219),#227);
#219 = B_SPLINE_CURVE_WITH_KNOTS('',6,(#220,#221,#222,#223,#224,#225,
    #226),.UNSPECIFIED.,.F.,.F.,(7,7),(-0.646774826402,
    1.991598500206E-16),.PIECEWISE_BEZIER_KNOTS.);
#220 = CARTESIAN_POINT('',(-5.67729418834,0.586796451888));
#221 = CARTESIAN_POINT('',(-5.765901793736,0.422386847034));
#222 = CARTESIAN_POINT('',(-5.861036696831,0.29532117251));
#223 = CARTESIAN_POINT('',(-5.962047984534,0.202160984376));
#224 = CARTESIAN_POINT('',(-6.067594521498,0.140768049749));
#225 = CARTESIAN_POINT('',(-6.175389502779,0.11007145657));
#226 = CARTESIAN_POINT('',(-6.28318530718,0.11007145657));
#227 = ( GEOMETRIC_REPRESENTATION_CONTEXT(2) 
PARAMETRIC_REPRESENTATION_CONTEXT() REPRESENTATION_CONTEXT('2D SPACE',''
  ) );
#228 = PCURVE('',#82,#229);
#229 = DEFINITIONAL_REPRESENTATION('',(#230),#234);
#230 = HYPERBOLA('',#231,2.201429131403,5.);
#231 = AXIS2_PLACEMENT_2D('',#232,#233);
#232 = CARTESIAN_POINT('',(-2.886751345948,2.091357674833));
#233 = DIRECTION('',(-0.,-1.));
#234 = ( GEOMETRIC_REPRESENTATION_CONTEXT(2) 
PARAMETRIC_REPRESENTATION_CONTEXT() REPRESENTATION_CONTEXT('2D SPACE',''
  ) );
#235 = ORIENTED_EDGE('',*,*,#236,.F.);
#236 = EDGE_CURVE('',#237,#209,#239,.T.);
#237 = VERTEX_POINT('',#238);
#238 = CARTESIAN_POINT('',(46.,-5.773502691896,274.21747392401));
#239 = SURFACE_CURVE('',#240,(#245,#261),.PCURVE_S1.);
#240 = HYPERBOLA('',#241,2.201429131403,5.);
#241 = AXIS2_PLACEMENT_3D('',#242,#243,#244);
#242 = CARTESIAN_POINT('',(43.5,-4.330127018922,271.67548252078));
#243 = DIRECTION('',(-0.5,-0.866025403784,-0.));
#244 = DIRECTION('',(-0.,-0.,1.));
#245 = PCURVE('',#45,#246);
#246 = DEFINITIONAL_REPRESENTATION('',(#247),#260);
#247 = B_SPLINE_CURVE_WITH_KNOTS('',6,(#248,#249,#250,#251,#252,#253,
    #254,#255,#256,#257,#258,#259),.UNSPECIFIED.,.F.,.F.,(7,5,7),(
    -0.646774826402,0.,0.646774826402),.UNSPECIFIED.);
#248 = CARTESIAN_POINT('',(-4.630096637144,0.586796451888));
#249 = CARTESIAN_POINT('',(-4.71870424254,0.422386847034));
#250 = CARTESIAN_POINT('',(-4.813839145634,0.29532117251));
#251 = CARTESIAN_POINT('',(-4.914850433338,0.202160984376));
#252 = CARTESIAN_POINT('',(-5.020396970302,0.140768049749));
#253 = CARTESIAN_POINT('',(-5.128191951583,0.11007145657));
#254 = CARTESIAN_POINT('',(-5.343783560383,0.11007145657));
#255 = CARTESIAN_POINT('',(-5.451578541664,0.140768049749));
#256 = CARTESIAN_POINT('',(-5.557125078628,0.202160984376));
#257 = CARTESIAN_POINT('',(-5.658136366332,0.29532117251));
#258 = CARTESIAN_POINT('',(-5.753271269426,0.422386847034));
#259 = CARTESIAN_POINT('',(-5.841878874822,0.586796451888));
#260 = ( GEOMETRIC_REPRESENTATION_CONTEXT(2) 
PARAMETRIC_REPRESENTATION_CONTEXT() REPRESENTATION_CONTEXT('2D SPACE',''
  ) );
#261 = PCURVE('',#262,#267);
#262 = PLANE('',#263);
#263 = AXIS2_PLACEMENT_3D('',#264,#265,#266);
#264 = CARTESIAN_POINT('',(46.,-5.773502691896,273.76684019561));
#265 = DIRECTION('',(0.5,0.866025403784,-0.));
#266 = DIRECTION('',(0.866025403784,-0.5,0.));
#267 = DEFINITIONAL_REPRESENTATION('',(#268),#272);
#268 = HYPERBOLA('',#269,2.201429131403,5.);
#269 = AXIS2_PLACEMENT_2D('',#270,#271);
#270 = CARTESIAN_POINT('',(-2.886751345948,2.091357674833));
#271 = DIRECTION('',(-0.,-1.));
#272 = ( GEOMETRIC_REPRESENTATION_CONTEXT(2) 
PARAMETRIC_REPRESENTATION_CONTEXT() REPRESENTATION_CONTEXT('2D SPACE',''
  ) );
#273 = ORIENTED_EDGE('',*,*,#274,.F.);
#274 = EDGE_CURVE('',#275,#237,#277,.T.);
#275 = VERTEX_POINT('',#276);
#276 = CARTESIAN_POINT('',(51.,-2.886751345948,274.21747392401));
#277 = SURFACE_CURVE('',#278,(#283,#299),.PCURVE_S1.);
#278 = HYPERBOLA('',#279,2.201429131403,5.);
#279 = AXIS2_PLACEMENT_3D('',#280,#281,#282);
#280 = CARTESIAN_POINT('',(48.5,-4.330127018922,271.67548252078));
#281 = DIRECTION('',(0.5,-0.866025403784,0.));
#282 = DIRECTION('',(-0.,-0.,1.));
#283 = PCURVE('',#45,#284);
#284 = DEFINITIONAL_REPRESENTATION('',(#285),#298);
#285 = B_SPLINE_CURVE_WITH_KNOTS('',6,(#286,#287,#288,#289,#290,#291,
    #292,#293,#294,#295,#296,#297),.UNSPECIFIED.,.F.,.F.,(7,5,7),(
    -0.646774826402,2.22044604925E-16,0.646774826402),.UNSPECIFIED.);
#286 = CARTESIAN_POINT('',(-3.582899085947,0.586796451888));
#287 = CARTESIAN_POINT('',(-3.671506691343,0.422386847034));
#288 = CARTESIAN_POINT('',(-3.766641594438,0.29532117251));
#289 = CARTESIAN_POINT('',(-3.867652882141,0.202160984376));
#290 = CARTESIAN_POINT('',(-3.973199419105,0.140768049749));
#291 = CARTESIAN_POINT('',(-4.080994400386,0.11007145657));
#292 = CARTESIAN_POINT('',(-4.296586009187,0.11007145657));
#293 = CARTESIAN_POINT('',(-4.404380990468,0.140768049749));
#294 = CARTESIAN_POINT('',(-4.509927527432,0.202160984376));
#295 = CARTESIAN_POINT('',(-4.610938815135,0.29532117251));
#296 = CARTESIAN_POINT('',(-4.70607371823,0.422386847034));
#297 = CARTESIAN_POINT('',(-4.794681323626,0.586796451888));
#298 = ( GEOMETRIC_REPRESENTATION_CONTEXT(2) 
PARAMETRIC_REPRESENTATION_CONTEXT() REPRESENTATION_CONTEXT('2D SPACE',''
  ) );
#299 = PCURVE('',#300,#305);
#300 = PLANE('',#301);
#301 = AXIS2_PLACEMENT_3D('',#302,#303,#304);
#302 = CARTESIAN_POINT('',(51.,-2.886751345948,273.76684019561));
#303 = DIRECTION('',(-0.5,0.866025403784,-0.));
#304 = DIRECTION('',(0.866025403784,0.5,0.));
#305 = DEFINITIONAL_REPRESENTATION('',(#306),#310);
#306 = HYPERBOLA('',#307,2.201429131403,5.);
#307 = AXIS2_PLACEMENT_2D('',#308,#309);
#308 = CARTESIAN_POINT('',(-2.886751345948,2.091357674833));
#309 = DIRECTION('',(-0.,-1.));
#310 = ( GEOMETRIC_REPRESENTATION_CONTEXT(2) 
PARAMETRIC_REPRESENTATION_CONTEXT() REPRESENTATION_CONTEXT('2D SPACE',''
  ) );
#311 = ORIENTED_EDGE('',*,*,#312,.F.);
#312 = EDGE_CURVE('',#313,#275,#315,.T.);
#313 = VERTEX_POINT('',#314);
#314 = CARTESIAN_POINT('',(51.,2.886751345948,274.21747392401));
#315 = SURFACE_CURVE('',#316,(#321,#337),.PCURVE_S1.);
#316 = HYPERBOLA('',#317,2.201429131403,5.);
#317 = AXIS2_PLACEMENT_3D('',#318,#319,#320);
#318 = CARTESIAN_POINT('',(51.,1.387778780781E-15,271.67548252078));
#319 = DIRECTION('',(1.,2.775557561563E-16,0.));
#320 = DIRECTION('',(-0.,-0.,1.));
#321 = PCURVE('',#45,#322);
#322 = DEFINITIONAL_REPRESENTATION('',(#323),#336);
#323 = B_SPLINE_CURVE_WITH_KNOTS('',6,(#324,#325,#326,#327,#328,#329,
    #330,#331,#332,#333,#334,#335),.UNSPECIFIED.,.F.,.F.,(7,5,7),(
    -0.646774826402,1.110223024625E-16,0.646774826402),.UNSPECIFIED.);
#324 = CARTESIAN_POINT('',(-2.535701534751,0.586796451888));
#325 = CARTESIAN_POINT('',(-2.624309140146,0.422386847034));
#326 = CARTESIAN_POINT('',(-2.719444043241,0.29532117251));
#327 = CARTESIAN_POINT('',(-2.820455330944,0.202160984376));
#328 = CARTESIAN_POINT('',(-2.926001867908,0.140768049749));
#329 = CARTESIAN_POINT('',(-3.03379684919,0.11007145657));
#330 = CARTESIAN_POINT('',(-3.24938845799,0.11007145657));
#331 = CARTESIAN_POINT('',(-3.357183439271,0.140768049749));
#332 = CARTESIAN_POINT('',(-3.462729976235,0.202160984376));
#333 = CARTESIAN_POINT('',(-3.563741263939,0.29532117251));
#334 = CARTESIAN_POINT('',(-3.658876167033,0.422386847034));
#335 = CARTESIAN_POINT('',(-3.747483772429,0.586796451888));
#336 = ( GEOMETRIC_REPRESENTATION_CONTEXT(2) 
PARAMETRIC_REPRESENTATION_CONTEXT() REPRESENTATION_CONTEXT('2D SPACE',''
  ) );
#337 = PCURVE('',#338,#343);
#338 = PLANE('',#339);
#339 = AXIS2_PLACEMENT_3D('',#340,#341,#342);
#340 = CARTESIAN_POINT('',(51.,2.886751345948,273.76684019561));
#341 = DIRECTION('',(-1.,-2.775557561563E-16,-0.));
#342 = DIRECTION('',(-2.775557561563E-16,1.,-0.));
#343 = DEFINITIONAL_REPRESENTATION('',(#344),#348);
#344 = HYPERBOLA('',#345,2.201429131403,5.);
#345 = AXIS2_PLACEMENT_2D('',#346,#347);
#346 = CARTESIAN_POINT('',(-2.886751345948,2.091357674833));
#347 = DIRECTION('',(-0.,-1.));
#348 = ( GEOMETRIC_REPRESENTATION_CONTEXT(2) 
PARAMETRIC_REPRESENTATION_CONTEXT() REPRESENTATION_CONTEXT('2D SPACE',''
  ) );
#349 = ORIENTED_EDGE('',*,*,#350,.F.);
#350 = EDGE_CURVE('',#24,#313,#351,.T.);
#351 = SURFACE_CURVE('',#352,(#357,#373),.PCURVE_S1.);
#352 = HYPERBOLA('',#353,2.201429131403,5.);
#353 = AXIS2_PLACEMENT_3D('',#354,#355,#356);
#354 = CARTESIAN_POINT('',(48.5,4.330127018922,271.67548252078));
#355 = DIRECTION('',(0.5,0.866025403784,0.));
#356 = DIRECTION('',(-0.,-0.,1.));
#357 = PCURVE('',#45,#358);
#358 = DEFINITIONAL_REPRESENTATION('',(#359),#372);
#359 = B_SPLINE_CURVE_WITH_KNOTS('',6,(#360,#361,#362,#363,#364,#365,
    #366,#367,#368,#369,#370,#371),.UNSPECIFIED.,.F.,.F.,(7,5,7),(
    -0.646774826402,-4.440892098501E-16,0.646774826402),.UNSPECIFIED.);
#360 = CARTESIAN_POINT('',(-1.488503983554,0.586796451888));
#361 = CARTESIAN_POINT('',(-1.57711158895,0.422386847034));
#362 = CARTESIAN_POINT('',(-1.672246492044,0.29532117251));
#363 = CARTESIAN_POINT('',(-1.773257779748,0.202160984376));
#364 = CARTESIAN_POINT('',(-1.878804316712,0.140768049749));
#365 = CARTESIAN_POINT('',(-1.986599297993,0.11007145657));
#366 = CARTESIAN_POINT('',(-2.202190906793,0.11007145657));
#367 = CARTESIAN_POINT('',(-2.309985888075,0.140768049749));
#368 = CARTESIAN_POINT('',(-2.415532425039,0.202160984376));
#369 = CARTESIAN_POINT('',(-2.516543712742,0.29532117251));
#370 = CARTESIAN_POINT('',(-2.611678615837,0.422386847034));
#371 = CARTESIAN_POINT('',(-2.700286221232,0.586796451888));
#372 = ( GEOMETRIC_REPRESENTATION_CONTEXT(2) 
PARAMETRIC_REPRESENTATION_CONTEXT() REPRESENTATION_CONTEXT('2D SPACE',''
  ) );
#373 = PCURVE('',#136,#374);
#374 = DEFINITIONAL_REPRESENTATION('',(#375),#379);
#375 = HYPERBOLA('',#376,2.201429131403,5.);
#376 = AXIS2_PLACEMENT_2D('',#377,#378);
#377 = CARTESIAN_POINT('',(-2.886751345948,2.091357674833));
#378 = DIRECTION('',(-0.,-1.));
#379 = ( GEOMETRIC_REPRESENTATION_CONTEXT(2) 
PARAMETRIC_REPRESENTATION_CONTEXT() REPRESENTATION_CONTEXT('2D SPACE',''
  ) );
#380 = ORIENTED_EDGE('',*,*,#21,.F.);
#381 = ORIENTED_EDGE('',*,*,#382,.F.);
#382 = EDGE_CURVE('',#154,#22,#383,.T.);
#383 = SURFACE_CURVE('',#384,(#389,#400),.PCURVE_S1.);
#384 = HYPERBOLA('',#385,2.201429131403,5.);
#385 = AXIS2_PLACEMENT_3D('',#386,#387,#388);
#386 = CARTESIAN_POINT('',(41.,-2.22044604925E-15,271.67548252078));
#387 = DIRECTION('',(-1.,-4.440892098501E-16,-0.));
#388 = DIRECTION('',(-0.,-0.,1.));
#389 = PCURVE('',#45,#390);
#390 = DEFINITIONAL_REPRESENTATION('',(#391),#399);
#391 = B_SPLINE_CURVE_WITH_KNOTS('',6,(#392,#393,#394,#395,#396,#397,
    #398),.UNSPECIFIED.,.F.,.F.,(7,7),(4.440892098501E-16,0.646774826402
    ),.PIECEWISE_BEZIER_KNOTS.);
#392 = CARTESIAN_POINT('',(0.,0.11007145657));
#393 = CARTESIAN_POINT('',(-0.1077958044,0.11007145657));
#394 = CARTESIAN_POINT('',(-0.215590785681,0.140768049749));
#395 = CARTESIAN_POINT('',(-0.321137322645,0.202160984376));
#396 = CARTESIAN_POINT('',(-0.422148610349,0.29532117251));
#397 = CARTESIAN_POINT('',(-0.517283513443,0.422386847034));
#398 = CARTESIAN_POINT('',(-0.605891118839,0.586796451888));
#399 = ( GEOMETRIC_REPRESENTATION_CONTEXT(2) 
PARAMETRIC_REPRESENTATION_CONTEXT() REPRESENTATION_CONTEXT('2D SPACE',''
  ) );
#400 = PCURVE('',#82,#401);
#401 = DEFINITIONAL_REPRESENTATION('',(#402),#406);
#402 = HYPERBOLA('',#403,2.201429131403,5.);
#403 = AXIS2_PLACEMENT_2D('',#404,#405);
#404 = CARTESIAN_POINT('',(-2.886751345948,2.091357674833));
#405 = DIRECTION('',(-0.,-1.));
#406 = ( GEOMETRIC_REPRESENTATION_CONTEXT(2) 
PARAMETRIC_REPRESENTATION_CONTEXT() REPRESENTATION_CONTEXT('2D SPACE',''
  ) );
#407 = ADVANCED_FACE('',(#408),#136,.F.);
#408 = FACE_BOUND('',#409,.T.);
#409 = EDGE_LOOP('',(#410,#411,#412,#435));
#410 = ORIENTED_EDGE('',*,*,#350,.F.);
#411 = ORIENTED_EDGE('',*,*,#122,.T.);
#412 = ORIENTED_EDGE('',*,*,#413,.T.);
#413 = EDGE_CURVE('',#95,#414,#416,.T.);
#414 = VERTEX_POINT('',#415);
#415 = CARTESIAN_POINT('',(51.,2.886751345948,277.76684019561));
#416 = SURFACE_CURVE('',#417,(#421,#428),.PCURVE_S1.);
#417 = LINE('',#418,#419);
#418 = CARTESIAN_POINT('',(46.,5.773502691896,277.76684019561));
#419 = VECTOR('',#420,1.);
#420 = DIRECTION('',(0.866025403784,-0.5,0.));
#421 = PCURVE('',#136,#422);
#422 = DEFINITIONAL_REPRESENTATION('',(#423),#427);
#423 = LINE('',#424,#425);
#424 = CARTESIAN_POINT('',(-0.,-4.));
#425 = VECTOR('',#426,1.);
#426 = DIRECTION('',(-1.,-0.));
#427 = ( GEOMETRIC_REPRESENTATION_CONTEXT(2) 
PARAMETRIC_REPRESENTATION_CONTEXT() REPRESENTATION_CONTEXT('2D SPACE',''
  ) );
#428 = PCURVE('',#110,#429);
#429 = DEFINITIONAL_REPRESENTATION('',(#430),#434);
#430 = LINE('',#431,#432);
#431 = CARTESIAN_POINT('',(-2.886751345948,5.));
#432 = VECTOR('',#433,1.);
#433 = DIRECTION('',(1.,1.665334536938E-16));
#434 = ( GEOMETRIC_REPRESENTATION_CONTEXT(2) 
PARAMETRIC_REPRESENTATION_CONTEXT() REPRESENTATION_CONTEXT('2D SPACE',''
  ) );
#435 = ORIENTED_EDGE('',*,*,#436,.F.);
#436 = EDGE_CURVE('',#313,#414,#437,.T.);
#437 = SURFACE_CURVE('',#438,(#442,#449),.PCURVE_S1.);
#438 = LINE('',#439,#440);
#439 = CARTESIAN_POINT('',(51.,2.886751345948,273.76684019561));
#440 = VECTOR('',#441,1.);
#441 = DIRECTION('',(-0.,-0.,1.));
#442 = PCURVE('',#136,#443);
#443 = DEFINITIONAL_REPRESENTATION('',(#444),#448);
#444 = LINE('',#445,#446);
#445 = CARTESIAN_POINT('',(-5.773502691896,-0.));
#446 = VECTOR('',#447,1.);
#447 = DIRECTION('',(-0.,-1.));
#448 = ( GEOMETRIC_REPRESENTATION_CONTEXT(2) 
PARAMETRIC_REPRESENTATION_CONTEXT() REPRESENTATION_CONTEXT('2D SPACE',''
  ) );
#449 = PCURVE('',#338,#450);
#450 = DEFINITIONAL_REPRESENTATION('',(#451),#455);
#451 = LINE('',#452,#453);
#452 = CARTESIAN_POINT('',(-0.,-0.));
#453 = VECTOR('',#454,1.);
#454 = DIRECTION('',(-0.,-1.));
#455 = ( GEOMETRIC_REPRESENTATION_CONTEXT(2) 
PARAMETRIC_REPRESENTATION_CONTEXT() REPRESENTATION_CONTEXT('2D SPACE',''
  ) );
#456 = ADVANCED_FACE('',(#457,#551),#110,.T.);
#457 = FACE_BOUND('',#458,.F.);
#458 = EDGE_LOOP('',(#459,#460,#461,#484,#507,#530));
#459 = ORIENTED_EDGE('',*,*,#94,.T.);
#460 = ORIENTED_EDGE('',*,*,#413,.T.);
#461 = ORIENTED_EDGE('',*,*,#462,.T.);
#462 = EDGE_CURVE('',#414,#463,#465,.T.);
#463 = VERTEX_POINT('',#464);
#464 = CARTESIAN_POINT('',(51.,-2.886751345948,277.76684019561));
#465 = SURFACE_CURVE('',#466,(#470,#477),.PCURVE_S1.);
#466 = LINE('',#467,#468);
#467 = CARTESIAN_POINT('',(51.,2.886751345948,277.76684019561));
#468 = VECTOR('',#469,1.);
#469 = DIRECTION('',(2.775557561563E-16,-1.,0.));
#470 = PCURVE('',#110,#471);
#471 = DEFINITIONAL_REPRESENTATION('',(#472),#476);
#472 = LINE('',#473,#474);
#473 = CARTESIAN_POINT('',(2.886751345948,5.));
#474 = VECTOR('',#475,1.);
#475 = DIRECTION('',(0.5,-0.866025403784));
#476 = ( GEOMETRIC_REPRESENTATION_CONTEXT(2) 
PARAMETRIC_REPRESENTATION_CONTEXT() REPRESENTATION_CONTEXT('2D SPACE',''
  ) );
#477 = PCURVE('',#338,#478);
#478 = DEFINITIONAL_REPRESENTATION('',(#479),#483);
#479 = LINE('',#480,#481);
#480 = CARTESIAN_POINT('',(-0.,-4.));
#481 = VECTOR('',#482,1.);
#482 = DIRECTION('',(-1.,0.));
#483 = ( GEOMETRIC_REPRESENTATION_CONTEXT(2) 
PARAMETRIC_REPRESENTATION_CONTEXT() REPRESENTATION_CONTEXT('2D SPACE',''
  ) );
#484 = ORIENTED_EDGE('',*,*,#485,.T.);
#485 = EDGE_CURVE('',#463,#486,#488,.T.);
#486 = VERTEX_POINT('',#487);
#487 = CARTESIAN_POINT('',(46.,-5.773502691896,277.76684019561));
#488 = SURFACE_CURVE('',#489,(#493,#500),.PCURVE_S1.);
#489 = LINE('',#490,#491);
#490 = CARTESIAN_POINT('',(51.,-2.886751345948,277.76684019561));
#491 = VECTOR('',#492,1.);
#492 = DIRECTION('',(-0.866025403784,-0.5,-0.));
#493 = PCURVE('',#110,#494);
#494 = DEFINITIONAL_REPRESENTATION('',(#495),#499);
#495 = LINE('',#496,#497);
#496 = CARTESIAN_POINT('',(5.773502691896,8.881784197001E-16));
#497 = VECTOR('',#498,1.);
#498 = DIRECTION('',(-0.5,-0.866025403784));
#499 = ( GEOMETRIC_REPRESENTATION_CONTEXT(2) 
PARAMETRIC_REPRESENTATION_CONTEXT() REPRESENTATION_CONTEXT('2D SPACE',''
  ) );
#500 = PCURVE('',#300,#501);
#501 = DEFINITIONAL_REPRESENTATION('',(#502),#506);
#502 = LINE('',#503,#504);
#503 = CARTESIAN_POINT('',(-0.,-4.));
#504 = VECTOR('',#505,1.);
#505 = DIRECTION('',(-1.,0.));
#506 = ( GEOMETRIC_REPRESENTATION_CONTEXT(2) 
PARAMETRIC_REPRESENTATION_CONTEXT() REPRESENTATION_CONTEXT('2D SPACE',''
  ) );
#507 = ORIENTED_EDGE('',*,*,#508,.T.);
#508 = EDGE_CURVE('',#486,#509,#511,.T.);
#509 = VERTEX_POINT('',#510);
#510 = CARTESIAN_POINT('',(41.,-2.886751345948,277.76684019561));
#511 = SURFACE_CURVE('',#512,(#516,#523),.PCURVE_S1.);
#512 = LINE('',#513,#514);
#513 = CARTESIAN_POINT('',(46.,-5.773502691896,277.76684019561));
#514 = VECTOR('',#515,1.);
#515 = DIRECTION('',(-0.866025403784,0.5,-0.));
#516 = PCURVE('',#110,#517);
#517 = DEFINITIONAL_REPRESENTATION('',(#518),#522);
#518 = LINE('',#519,#520);
#519 = CARTESIAN_POINT('',(2.886751345948,-5.));
#520 = VECTOR('',#521,1.);
#521 = DIRECTION('',(-1.,-6.661338147751E-16));
#522 = ( GEOMETRIC_REPRESENTATION_CONTEXT(2) 
PARAMETRIC_REPRESENTATION_CONTEXT() REPRESENTATION_CONTEXT('2D SPACE',''
  ) );
#523 = PCURVE('',#262,#524);
#524 = DEFINITIONAL_REPRESENTATION('',(#525),#529);
#525 = LINE('',#526,#527);
#526 = CARTESIAN_POINT('',(-0.,-4.));
#527 = VECTOR('',#528,1.);
#528 = DIRECTION('',(-1.,0.));
#529 = ( GEOMETRIC_REPRESENTATION_CONTEXT(2) 
PARAMETRIC_REPRESENTATION_CONTEXT() REPRESENTATION_CONTEXT('2D SPACE',''
  ) );
#530 = ORIENTED_EDGE('',*,*,#531,.T.);
#531 = EDGE_CURVE('',#509,#67,#532,.T.);
#532 = SURFACE_CURVE('',#533,(#537,#544),.PCURVE_S1.);
#533 = LINE('',#534,#535);
#534 = CARTESIAN_POINT('',(41.,-2.886751345948,277.76684019561));
#535 = VECTOR('',#536,1.);
#536 = DIRECTION('',(-4.440892098501E-16,1.,-0.));
#537 = PCURVE('',#110,#538);
#538 = DEFINITIONAL_REPRESENTATION('',(#539),#543);
#539 = LINE('',#540,#541);
#540 = CARTESIAN_POINT('',(-2.886751345948,-5.));
#541 = VECTOR('',#542,1.);
#542 = DIRECTION('',(-0.5,0.866025403784));
#543 = ( GEOMETRIC_REPRESENTATION_CONTEXT(2) 
PARAMETRIC_REPRESENTATION_CONTEXT() REPRESENTATION_CONTEXT('2D SPACE',''
  ) );
#544 = PCURVE('',#82,#545);
#545 = DEFINITIONAL_REPRESENTATION('',(#546),#550);
#546 = LINE('',#547,#548);
#547 = CARTESIAN_POINT('',(-0.,-4.));
#548 = VECTOR('',#549,1.);
#549 = DIRECTION('',(-1.,0.));
#550 = ( GEOMETRIC_REPRESENTATION_CONTEXT(2) 
PARAMETRIC_REPRESENTATION_CONTEXT() REPRESENTATION_CONTEXT('2D SPACE',''
  ) );
#551 = FACE_BOUND('',#552,.F.);
#552 = EDGE_LOOP('',(#553));
#553 = ORIENTED_EDGE('',*,*,#554,.F.);
#554 = EDGE_CURVE('',#555,#555,#557,.T.);
#555 = VERTEX_POINT('',#556);
#556 = CARTESIAN_POINT('',(43.,-7.347880794884E-16,277.76684019561));
#557 = SURFACE_CURVE('',#558,(#563,#574),.PCURVE_S1.);
#558 = CIRCLE('',#559,3.);
#559 = AXIS2_PLACEMENT_3D('',#560,#561,#562);
#560 = CARTESIAN_POINT('',(46.,0.,277.76684019561));
#561 = DIRECTION('',(0.,0.,-1.));
#562 = DIRECTION('',(-1.,-0.,-0.));
#563 = PCURVE('',#110,#564);
#564 = DEFINITIONAL_REPRESENTATION('',(#565),#573);
#565 = ( BOUNDED_CURVE() B_SPLINE_CURVE(2,(#566,#567,#568,#569,#570,#571
,#572),.UNSPECIFIED.,.T.,.F.) B_SPLINE_CURVE_WITH_KNOTS((1,2,2,2,2,1),(
    -2.094395102393,0.,2.094395102393,4.188790204786,6.28318530718,
8.377580409573),.UNSPECIFIED.) CURVE() GEOMETRIC_REPRESENTATION_ITEM() 
RATIONAL_B_SPLINE_CURVE((1.,0.5,1.,0.5,1.,0.5,1.)) REPRESENTATION_ITEM(
  '') );
#566 = CARTESIAN_POINT('',(-2.598076211353,-1.5));
#567 = CARTESIAN_POINT('',(-5.196152422707,3.));
#568 = CARTESIAN_POINT('',(-4.731637543278E-16,3.));
#569 = CARTESIAN_POINT('',(5.196152422707,3.));
#570 = CARTESIAN_POINT('',(2.598076211353,-1.5));
#571 = CARTESIAN_POINT('',(3.301594529398E-15,-6.));
#572 = CARTESIAN_POINT('',(-2.598076211353,-1.5));
#573 = ( GEOMETRIC_REPRESENTATION_CONTEXT(2) 
PARAMETRIC_REPRESENTATION_CONTEXT() REPRESENTATION_CONTEXT('2D SPACE',''
  ) );
#574 = PCURVE('',#575,#580);
#575 = CYLINDRICAL_SURFACE('',#576,3.);
#576 = AXIS2_PLACEMENT_3D('',#577,#578,#579);
#577 = CARTESIAN_POINT('',(46.,0.,277.75684019561));
#578 = DIRECTION('',(-0.,-0.,1.));
#579 = DIRECTION('',(-1.,-0.,-0.));
#580 = DEFINITIONAL_REPRESENTATION('',(#581),#585);
#581 = LINE('',#582,#583);
#582 = CARTESIAN_POINT('',(-0.,9.999999999991E-03));
#583 = VECTOR('',#584,1.);
#584 = DIRECTION('',(-1.,0.));
#585 = ( GEOMETRIC_REPRESENTATION_CONTEXT(2) 
PARAMETRIC_REPRESENTATION_CONTEXT() REPRESENTATION_CONTEXT('2D SPACE',''
  ) );
#586 = ADVANCED_FACE('',(#587),#82,.F.);
#587 = FACE_BOUND('',#588,.T.);
#588 = EDGE_LOOP('',(#589,#590,#611,#612,#613));
#589 = ORIENTED_EDGE('',*,*,#208,.F.);
#590 = ORIENTED_EDGE('',*,*,#591,.T.);
#591 = EDGE_CURVE('',#209,#509,#592,.T.);
#592 = SURFACE_CURVE('',#593,(#597,#604),.PCURVE_S1.);
#593 = LINE('',#594,#595);
#594 = CARTESIAN_POINT('',(41.,-2.886751345948,273.76684019561));
#595 = VECTOR('',#596,1.);
#596 = DIRECTION('',(-0.,-0.,1.));
#597 = PCURVE('',#82,#598);
#598 = DEFINITIONAL_REPRESENTATION('',(#599),#603);
#599 = LINE('',#600,#601);
#600 = CARTESIAN_POINT('',(-0.,-0.));
#601 = VECTOR('',#602,1.);
#602 = DIRECTION('',(-0.,-1.));
#603 = ( GEOMETRIC_REPRESENTATION_CONTEXT(2) 
PARAMETRIC_REPRESENTATION_CONTEXT() REPRESENTATION_CONTEXT('2D SPACE',''
  ) );
#604 = PCURVE('',#262,#605);
#605 = DEFINITIONAL_REPRESENTATION('',(#606),#610);
#606 = LINE('',#607,#608);
#607 = CARTESIAN_POINT('',(-5.773502691896,0.));
#608 = VECTOR('',#609,1.);
#609 = DIRECTION('',(-0.,-1.));
#610 = ( GEOMETRIC_REPRESENTATION_CONTEXT(2) 
PARAMETRIC_REPRESENTATION_CONTEXT() REPRESENTATION_CONTEXT('2D SPACE',''
  ) );
#611 = ORIENTED_EDGE('',*,*,#531,.T.);
#612 = ORIENTED_EDGE('',*,*,#66,.F.);
#613 = ORIENTED_EDGE('',*,*,#382,.F.);
#614 = ADVANCED_FACE('',(#615),#338,.F.);
#615 = FACE_BOUND('',#616,.T.);
#616 = EDGE_LOOP('',(#617,#618,#619,#620));
#617 = ORIENTED_EDGE('',*,*,#312,.F.);
#618 = ORIENTED_EDGE('',*,*,#436,.T.);
#619 = ORIENTED_EDGE('',*,*,#462,.T.);
#620 = ORIENTED_EDGE('',*,*,#621,.F.);
#621 = EDGE_CURVE('',#275,#463,#622,.T.);
#622 = SURFACE_CURVE('',#623,(#627,#634),.PCURVE_S1.);
#623 = LINE('',#624,#625);
#624 = CARTESIAN_POINT('',(51.,-2.886751345948,273.76684019561));
#625 = VECTOR('',#626,1.);
#626 = DIRECTION('',(-0.,-0.,1.));
#627 = PCURVE('',#338,#628);
#628 = DEFINITIONAL_REPRESENTATION('',(#629),#633);
#629 = LINE('',#630,#631);
#630 = CARTESIAN_POINT('',(-5.773502691896,0.));
#631 = VECTOR('',#632,1.);
#632 = DIRECTION('',(-0.,-1.));
#633 = ( GEOMETRIC_REPRESENTATION_CONTEXT(2) 
PARAMETRIC_REPRESENTATION_CONTEXT() REPRESENTATION_CONTEXT('2D SPACE',''
  ) );
#634 = PCURVE('',#300,#635);
#635 = DEFINITIONAL_REPRESENTATION('',(#636),#640);
#636 = LINE('',#637,#638);
#637 = CARTESIAN_POINT('',(-0.,-0.));
#638 = VECTOR('',#639,1.);
#639 = DIRECTION('',(-0.,-1.));
#640 = ( GEOMETRIC_REPRESENTATION_CONTEXT(2) 
PARAMETRIC_REPRESENTATION_CONTEXT() REPRESENTATION_CONTEXT('2D SPACE',''
  ) );
#641 = ADVANCED_FACE('',(#642),#300,.F.);
#642 = FACE_BOUND('',#643,.T.);
#643 = EDGE_LOOP('',(#644,#645,#646,#647));
#644 = ORIENTED_EDGE('',*,*,#274,.F.);
#645 = ORIENTED_EDGE('',*,*,#621,.T.);
#646 = ORIENTED_EDGE('',*,*,#485,.T.);
#647 = ORIENTED_EDGE('',*,*,#648,.F.);
#648 = EDGE_CURVE('',#237,#486,#649,.T.);
#649 = SURFACE_CURVE('',#650,(#654,#661),.PCURVE_S1.);
#650 = LINE('',#651,#652);
#651 = CARTESIAN_POINT('',(46.,-5.773502691896,273.76684019561));
#652 = VECTOR('',#653,1.);
#653 = DIRECTION('',(-0.,-0.,1.));
#654 = PCURVE('',#300,#655);
#655 = DEFINITIONAL_REPRESENTATION('',(#656),#660);
#656 = LINE('',#657,#658);
#657 = CARTESIAN_POINT('',(-5.773502691896,0.));
#658 = VECTOR('',#659,1.);
#659 = DIRECTION('',(-0.,-1.));
#660 = ( GEOMETRIC_REPRESENTATION_CONTEXT(2) 
PARAMETRIC_REPRESENTATION_CONTEXT() REPRESENTATION_CONTEXT('2D SPACE',''
  ) );
#661 = PCURVE('',#262,#662);
#662 = DEFINITIONAL_REPRESENTATION('',(#663),#667);
#663 = LINE('',#664,#665);
#664 = CARTESIAN_POINT('',(-0.,-0.));
#665 = VECTOR('',#666,1.);
#666 = DIRECTION('',(-0.,-1.));
#667 = ( GEOMETRIC_REPRESENTATION_CONTEXT(2) 
PARAMETRIC_REPRESENTATION_CONTEXT() REPRESENTATION_CONTEXT('2D SPACE',''
  ) );
#668 = ADVANCED_FACE('',(#669),#262,.F.);
#669 = FACE_BOUND('',#670,.T.);
#670 = EDGE_LOOP('',(#671,#672,#673,#674));
#671 = ORIENTED_EDGE('',*,*,#236,.F.);
#672 = ORIENTED_EDGE('',*,*,#648,.T.);
#673 = ORIENTED_EDGE('',*,*,#508,.T.);
#674 = ORIENTED_EDGE('',*,*,#591,.F.);
#675 = ADVANCED_FACE('',(#676),#191,.F.);
#676 = FACE_BOUND('',#677,.F.);
#677 = EDGE_LOOP('',(#678));
#678 = ORIENTED_EDGE('',*,*,#176,.F.);
#679 = ADVANCED_FACE('',(#680),#575,.T.);
#680 = FACE_BOUND('',#681,.F.);
#681 = EDGE_LOOP('',(#682,#705,#736,#737));
#682 = ORIENTED_EDGE('',*,*,#683,.T.);
#683 = EDGE_CURVE('',#555,#684,#686,.T.);
#684 = VERTEX_POINT('',#685);
#685 = CARTESIAN_POINT('',(43.,-7.347880794884E-16,289.76684019561));
#686 = SEAM_CURVE('',#687,(#691,#698),.PCURVE_S1.);
#687 = LINE('',#688,#689);
#688 = CARTESIAN_POINT('',(43.,-7.347880794884E-16,277.75684019561));
#689 = VECTOR('',#690,1.);
#690 = DIRECTION('',(-0.,-0.,1.));
#691 = PCURVE('',#575,#692);
#692 = DEFINITIONAL_REPRESENTATION('',(#693),#697);
#693 = LINE('',#694,#695);
#694 = CARTESIAN_POINT('',(-6.28318530718,-0.));
#695 = VECTOR('',#696,1.);
#696 = DIRECTION('',(-0.,1.));
#697 = ( GEOMETRIC_REPRESENTATION_CONTEXT(2) 
PARAMETRIC_REPRESENTATION_CONTEXT() REPRESENTATION_CONTEXT('2D SPACE',''
  ) );
#698 = PCURVE('',#575,#699);
#699 = DEFINITIONAL_REPRESENTATION('',(#700),#704);
#700 = LINE('',#701,#702);
#701 = CARTESIAN_POINT('',(-0.,-0.));
#702 = VECTOR('',#703,1.);
#703 = DIRECTION('',(-0.,1.));
#704 = ( GEOMETRIC_REPRESENTATION_CONTEXT(2) 
PARAMETRIC_REPRESENTATION_CONTEXT() REPRESENTATION_CONTEXT('2D SPACE',''
  ) );
#705 = ORIENTED_EDGE('',*,*,#706,.F.);
#706 = EDGE_CURVE('',#684,#684,#707,.T.);
#707 = SURFACE_CURVE('',#708,(#713,#720),.PCURVE_S1.);
#708 = CIRCLE('',#709,3.);
#709 = AXIS2_PLACEMENT_3D('',#710,#711,#712);
#710 = CARTESIAN_POINT('',(46.,0.,289.76684019561));
#711 = DIRECTION('',(0.,0.,-1.));
#712 = DIRECTION('',(-1.,-0.,-0.));
#713 = PCURVE('',#575,#714);
#714 = DEFINITIONAL_REPRESENTATION('',(#715),#719);
#715 = LINE('',#716,#717);
#716 = CARTESIAN_POINT('',(-0.,12.01));
#717 = VECTOR('',#718,1.);
#718 = DIRECTION('',(-1.,0.));
#719 = ( GEOMETRIC_REPRESENTATION_CONTEXT(2) 
PARAMETRIC_REPRESENTATION_CONTEXT() REPRESENTATION_CONTEXT('2D SPACE',''
  ) );
#720 = PCURVE('',#721,#726);
#721 = PLANE('',#722);
#722 = AXIS2_PLACEMENT_3D('',#723,#724,#725);
#723 = CARTESIAN_POINT('',(46.,0.,289.76684019561));
#724 = DIRECTION('',(-0.,-0.,1.));
#725 = DIRECTION('',(1.,0.,0.));
#726 = DEFINITIONAL_REPRESENTATION('',(#727),#735);
#727 = ( BOUNDED_CURVE() B_SPLINE_CURVE(2,(#728,#729,#730,#731,#732,#733
,#734),.UNSPECIFIED.,.T.,.F.) B_SPLINE_CURVE_WITH_KNOTS((1,2,2,2,2,1),(
    -2.094395102393,0.,2.094395102393,4.188790204786,6.28318530718,
8.377580409573),.UNSPECIFIED.) CURVE() GEOMETRIC_REPRESENTATION_ITEM() 
RATIONAL_B_SPLINE_CURVE((1.,0.5,1.,0.5,1.,0.5,1.)) REPRESENTATION_ITEM(
  '') );
#728 = CARTESIAN_POINT('',(-3.,0.));
#729 = CARTESIAN_POINT('',(-3.,5.196152422707));
#730 = CARTESIAN_POINT('',(1.5,2.598076211353));
#731 = CARTESIAN_POINT('',(6.,7.347880794884E-16));
#732 = CARTESIAN_POINT('',(1.5,-2.598076211353));
#733 = CARTESIAN_POINT('',(-3.,-5.196152422707));
#734 = CARTESIAN_POINT('',(-3.,0.));
#735 = ( GEOMETRIC_REPRESENTATION_CONTEXT(2) 
PARAMETRIC_REPRESENTATION_CONTEXT() REPRESENTATION_CONTEXT('2D SPACE',''
  ) );
#736 = ORIENTED_EDGE('',*,*,#683,.F.);
#737 = ORIENTED_EDGE('',*,*,#554,.T.);
#738 = ADVANCED_FACE('',(#739),#721,.T.);
#739 = FACE_BOUND('',#740,.F.);
#740 = EDGE_LOOP('',(#741));
#741 = ORIENTED_EDGE('',*,*,#706,.T.);
#742 = ( GEOMETRIC_REPRESENTATION_CONTEXT(3) 
GLOBAL_UNCERTAINTY_ASSIGNED_CONTEXT((#746)) GLOBAL_UNIT_ASSIGNED_CONTEXT
((#743,#744,#745)) REPRESENTATION_CONTEXT('Context #1',
  '3D Context with UNIT and UNCERTAINTY') );
#743 = ( LENGTH_UNIT() NAMED_UNIT(*) SI_UNIT(.MILLI.,.METRE.) );
#744 = ( NAMED_UNIT(*) PLANE_ANGLE_UNIT() SI_UNIT($,.RADIAN.) );
#745 = ( NAMED_UNIT(*) SI_UNIT($,.STERADIAN.) SOLID_ANGLE_UNIT() );
#746 = UNCERTAINTY_MEASURE_WITH_UNIT(LENGTH_MEASURE(2.E-07),#743,
  'distance_accuracy_value','confusion accuracy');
#747 = PRODUCT_RELATED_PRODUCT_CATEGORY('part',$,(#7));
ENDSEC;
END-ISO-10303-21;
