ISO-10303-21;
HEADER;
FILE_DESCRIPTION(('Open CASCADE Model'),'2;1');
FILE_NAME('Open CASCADE Shape Model','2026-09-23T01:58:46',('Author'),(
    'Open CASCADE'),'Open CASCADE STEP processor 7.9','Open CASCADE 7.9'
  ,'Unknown');
FILE_SCHEMA(('AUTOMOTIVE_DESIGN { 1 0 10303 214 1 1 1 1 }'));
ENDSEC;
DATA;
#1 = APPLICATION_PROTOCOL_DEFINITION('international standard',
  'automotive_design',2000,#2);
#2 = APPLICATION_CONTEXT(
  'core data for automotive mechanical design processes');
#3 = SHAPE_DEFINITION_REPRESENTATION(#4,#10);
#4 = PRODUCT_DEFINITION_SHAPE('','',#5);
#5 = PRODUCT_DEFINITION('design','',#6,#9);
#6 = PRODUCT_DEFINITION_FORMATION('','',#7);
#7 = PRODUCT('Open CASCADE STEP translator 7.9 27',
  'Open CASCADE STEP translator 7.9 27','',(#8));
#8 = PRODUCT_CONTEXT('',#2,'mechanical');
#9 = PRODUCT_DEFINITION_CONTEXT('part definition',#2,'design');
#10 = ADVANCED_BREP_SHAPE_REPRESENTATION('',(#11,#15),#1653);
#11 = AXIS2_PLACEMENT_3D('',#12,#13,#14);
#12 = CARTESIAN_POINT('',(0.,0.,0.));
#13 = DIRECTION('',(0.,0.,1.));
#14 = DIRECTION('',(1.,0.,-0.));
#15 = MANIFOLD_SOLID_BREP('',#16);
#16 = CLOSED_SHELL('',(#17,#269,#323,#627,#658,#797,#824,#1081,#1112,
    #1197,#1228,#1338,#1369,#1479,#1510,#1596,#1602,#1629,#1635,#1641,
    #1647));
#17 = ADVANCED_FACE('',(#18),#33,.F.);
#18 = FACE_BOUND('',#19,.F.);
#19 = EDGE_LOOP('',(#20,#60,#88,#121,#149,#182,#210,#243));
#20 = ORIENTED_EDGE('',*,*,#21,.F.);
#21 = EDGE_CURVE('',#22,#24,#26,.T.);
#22 = VERTEX_POINT('',#23);
#23 = CARTESIAN_POINT('',(8.99800394532,5.195,117.64));
#24 = VERTEX_POINT('',#25);
#25 = CARTESIAN_POINT('',(4.663147487372,7.697730542895,116.25));
#26 = SURFACE_CURVE('',#27,(#32,#44),.PCURVE_S1.);
#27 = HYPERBOLA('',#28,8.99800394532,8.99800394532);
#28 = AXIS2_PLACEMENT_3D('',#29,#30,#31);
#29 = CARTESIAN_POINT('',(4.49900197266,7.7925,107.25));
#30 = DIRECTION('',(-0.5,-0.866025403784,0.));
#31 = DIRECTION('',(0.,0.,1.));
#32 = PCURVE('',#33,#38);
#33 = PLANE('',#34);
#34 = AXIS2_PLACEMENT_3D('',#35,#36,#37);
#35 = CARTESIAN_POINT('',(8.99800394532,5.195,116.25));
#36 = DIRECTION('',(-0.5,-0.866025403784,0.));
#37 = DIRECTION('',(-0.866025403784,0.5,0.));
#38 = DEFINITIONAL_REPRESENTATION('',(#39),#43);
#39 = ( BOUNDED_CURVE() B_SPLINE_CURVE(2,(#40,#41,#42),.UNSPECIFIED.,.F.
,.F.) B_SPLINE_CURVE_WITH_KNOTS((3,3),(-0.570048598052,
-2.106299366765E-02),.PIECEWISE_BEZIER_KNOTS.) CURVE() 
GEOMETRIC_REPRESENTATION_ITEM() RATIONAL_B_SPLINE_CURVE((1.,
1.037910288481,1.)) REPRESENTATION_ITEM('') );
#40 = CARTESIAN_POINT('',(-0.216647161447,-1.5));
#41 = CARTESIAN_POINT('',(2.595257279373,-5.07586013882E-02));
#42 = CARTESIAN_POINT('',(5.00546108579,-1.7763568394E-15));
#43 = ( GEOMETRIC_REPRESENTATION_CONTEXT(2) 
PARAMETRIC_REPRESENTATION_CONTEXT() REPRESENTATION_CONTEXT('2D SPACE',''
  ) );
#44 = PCURVE('',#45,#50);
#45 = CONICAL_SURFACE('',#46,9.,0.785398163397);
#46 = AXIS2_PLACEMENT_3D('',#47,#48,#49);
#47 = CARTESIAN_POINT('',(0.,0.,116.25));
#48 = DIRECTION('',(0.,0.,1.));
#49 = DIRECTION('',(1.,0.,-0.));
#50 = DEFINITIONAL_REPRESENTATION('',(#51),#59);
#51 = B_SPLINE_CURVE_WITH_KNOTS('',6,(#52,#53,#54,#55,#56,#57,#58),
  .UNSPECIFIED.,.F.,.F.,(7,7),(-0.570048598052,-2.106299366765E-02),
  .PIECEWISE_BEZIER_KNOTS.);
#52 = CARTESIAN_POINT('',(0.505729067857,1.5));
#53 = CARTESIAN_POINT('',(0.584138189034,1.004847268726));
#54 = CARTESIAN_POINT('',(0.666984235582,0.615179304433));
#55 = CARTESIAN_POINT('',(0.753714262306,0.323534906139));
#56 = CARTESIAN_POINT('',(0.843393370416,0.125100312668));
#57 = CARTESIAN_POINT('',(0.934658806748,1.734235589535E-02));
#58 = CARTESIAN_POINT('',(1.026136114788,0.));
#59 = ( GEOMETRIC_REPRESENTATION_CONTEXT(2) 
PARAMETRIC_REPRESENTATION_CONTEXT() REPRESENTATION_CONTEXT('2D SPACE',''
  ) );
#60 = ORIENTED_EDGE('',*,*,#61,.T.);
#61 = EDGE_CURVE('',#22,#62,#64,.T.);
#62 = VERTEX_POINT('',#63);
#63 = CARTESIAN_POINT('',(8.99800394532,5.195,120.86));
#64 = SURFACE_CURVE('',#65,(#69,#76),.PCURVE_S1.);
#65 = LINE('',#66,#67);
#66 = CARTESIAN_POINT('',(8.99800394532,5.195,116.25));
#67 = VECTOR('',#68,1.);
#68 = DIRECTION('',(0.,0.,1.));
#69 = PCURVE('',#33,#70);
#70 = DEFINITIONAL_REPRESENTATION('',(#71),#75);
#71 = LINE('',#72,#73);
#72 = CARTESIAN_POINT('',(0.,0.));
#73 = VECTOR('',#74,1.);
#74 = DIRECTION('',(0.,-1.));
#75 = ( GEOMETRIC_REPRESENTATION_CONTEXT(2) 
PARAMETRIC_REPRESENTATION_CONTEXT() REPRESENTATION_CONTEXT('2D SPACE',''
  ) );
#76 = PCURVE('',#77,#82);
#77 = PLANE('',#78);
#78 = AXIS2_PLACEMENT_3D('',#79,#80,#81);
#79 = CARTESIAN_POINT('',(8.99800394532,-5.195,116.25));
#80 = DIRECTION('',(-1.,4.440892098501E-16,0.));
#81 = DIRECTION('',(4.440892098501E-16,1.,0.));
#82 = DEFINITIONAL_REPRESENTATION('',(#83),#87);
#83 = LINE('',#84,#85);
#84 = CARTESIAN_POINT('',(10.39,0.));
#85 = VECTOR('',#86,1.);
#86 = DIRECTION('',(0.,-1.));
#87 = ( GEOMETRIC_REPRESENTATION_CONTEXT(2) 
PARAMETRIC_REPRESENTATION_CONTEXT() REPRESENTATION_CONTEXT('2D SPACE',''
  ) );
#88 = ORIENTED_EDGE('',*,*,#89,.F.);
#89 = EDGE_CURVE('',#90,#62,#92,.T.);
#90 = VERTEX_POINT('',#91);
#91 = CARTESIAN_POINT('',(4.663147487372,7.697730542895,122.25));
#92 = SURFACE_CURVE('',#93,(#98,#105),.PCURVE_S1.);
#93 = HYPERBOLA('',#94,8.99800394532,8.99800394532);
#94 = AXIS2_PLACEMENT_3D('',#95,#96,#97);
#95 = CARTESIAN_POINT('',(4.49900197266,7.7925,131.25));
#96 = DIRECTION('',(-0.5,-0.866025403784,0.));
#97 = DIRECTION('',(-0.,0.,-1.));
#98 = PCURVE('',#33,#99);
#99 = DEFINITIONAL_REPRESENTATION('',(#100),#104);
#100 = ( BOUNDED_CURVE() B_SPLINE_CURVE(2,(#101,#102,#103),
.UNSPECIFIED.,.F.,.F.) B_SPLINE_CURVE_WITH_KNOTS((3,3),(
2.106299366765E-02,0.570048598052),.PIECEWISE_BEZIER_KNOTS.) CURVE() 
GEOMETRIC_REPRESENTATION_ITEM() RATIONAL_B_SPLINE_CURVE((1.,
1.037910288481,1.)) REPRESENTATION_ITEM('') );
#101 = CARTESIAN_POINT('',(5.00546108579,-6.));
#102 = CARTESIAN_POINT('',(2.595257279373,-5.949241398612));
#103 = CARTESIAN_POINT('',(-0.216647161447,-4.5));
#104 = ( GEOMETRIC_REPRESENTATION_CONTEXT(2) 
PARAMETRIC_REPRESENTATION_CONTEXT() REPRESENTATION_CONTEXT('2D SPACE',''
  ) );
#105 = PCURVE('',#106,#111);
#106 = CONICAL_SURFACE('',#107,10.5,0.785398163397);
#107 = AXIS2_PLACEMENT_3D('',#108,#109,#110);
#108 = CARTESIAN_POINT('',(0.,0.,120.75));
#109 = DIRECTION('',(-0.,-0.,-1.));
#110 = DIRECTION('',(1.,0.,-0.));
#111 = DEFINITIONAL_REPRESENTATION('',(#112),#120);
#112 = B_SPLINE_CURVE_WITH_KNOTS('',6,(#113,#114,#115,#116,#117,#118,
    #119),.UNSPECIFIED.,.F.,.F.,(7,7),(2.106299366765E-02,0.570048598052
    ),.PIECEWISE_BEZIER_KNOTS.);
#113 = CARTESIAN_POINT('',(-1.026136114788,-1.5));
#114 = CARTESIAN_POINT('',(-0.934658806748,-1.482657644105));
#115 = CARTESIAN_POINT('',(-0.843393370416,-1.374899687332));
#116 = CARTESIAN_POINT('',(-0.753714262306,-1.176465093861));
#117 = CARTESIAN_POINT('',(-0.666984235582,-0.884820695567));
#118 = CARTESIAN_POINT('',(-0.584138189034,-0.495152731274));
#119 = CARTESIAN_POINT('',(-0.505729067857,-8.881784197001E-16));
#120 = ( GEOMETRIC_REPRESENTATION_CONTEXT(2) 
PARAMETRIC_REPRESENTATION_CONTEXT() REPRESENTATION_CONTEXT('2D SPACE',''
  ) );
#121 = ORIENTED_EDGE('',*,*,#122,.T.);
#122 = EDGE_CURVE('',#90,#123,#125,.T.);
#123 = VERTEX_POINT('',#124);
#124 = CARTESIAN_POINT('',(4.334856457949,7.887269457105,122.25));
#125 = SURFACE_CURVE('',#126,(#130,#137),.PCURVE_S1.);
#126 = LINE('',#127,#128);
#127 = CARTESIAN_POINT('',(8.99800394532,5.195,122.25));
#128 = VECTOR('',#129,1.);
#129 = DIRECTION('',(-0.866025403784,0.5,0.));
#130 = PCURVE('',#33,#131);
#131 = DEFINITIONAL_REPRESENTATION('',(#132),#136);
#132 = LINE('',#133,#134);
#133 = CARTESIAN_POINT('',(0.,-6.));
#134 = VECTOR('',#135,1.);
#135 = DIRECTION('',(1.,0.));
#136 = ( GEOMETRIC_REPRESENTATION_CONTEXT(2) 
PARAMETRIC_REPRESENTATION_CONTEXT() REPRESENTATION_CONTEXT('2D SPACE',''
  ) );
#137 = PCURVE('',#138,#143);
#138 = PLANE('',#139);
#139 = AXIS2_PLACEMENT_3D('',#140,#141,#142);
#140 = CARTESIAN_POINT('',(-1.516060460272E-16,-8.771968555112E-16,
    122.25));
#141 = DIRECTION('',(0.,0.,1.));
#142 = DIRECTION('',(0.866025403784,0.5,0.));
#143 = DEFINITIONAL_REPRESENTATION('',(#144),#148);
#144 = LINE('',#145,#146);
#145 = CARTESIAN_POINT('',(10.39,8.881784197001E-16));
#146 = VECTOR('',#147,1.);
#147 = DIRECTION('',(-0.5,0.866025403784));
#148 = ( GEOMETRIC_REPRESENTATION_CONTEXT(2) 
PARAMETRIC_REPRESENTATION_CONTEXT() REPRESENTATION_CONTEXT('2D SPACE',''
  ) );
#149 = ORIENTED_EDGE('',*,*,#150,.F.);
#150 = EDGE_CURVE('',#151,#123,#153,.T.);
#151 = VERTEX_POINT('',#152);
#152 = CARTESIAN_POINT('',(2.6645352591E-15,10.39,120.86));
#153 = SURFACE_CURVE('',#154,(#159,#166),.PCURVE_S1.);
#154 = HYPERBOLA('',#155,8.99800394532,8.99800394532);
#155 = AXIS2_PLACEMENT_3D('',#156,#157,#158);
#156 = CARTESIAN_POINT('',(4.49900197266,7.7925,131.25));
#157 = DIRECTION('',(-0.5,-0.866025403784,0.));
#158 = DIRECTION('',(-0.,0.,-1.));
#159 = PCURVE('',#33,#160);
#160 = DEFINITIONAL_REPRESENTATION('',(#161),#165);
#161 = ( BOUNDED_CURVE() B_SPLINE_CURVE(2,(#162,#163,#164),
.UNSPECIFIED.,.F.,.F.) B_SPLINE_CURVE_WITH_KNOTS((3,3),(-0.570048598052,
-2.106299366765E-02),.PIECEWISE_BEZIER_KNOTS.) CURVE() 
GEOMETRIC_REPRESENTATION_ITEM() RATIONAL_B_SPLINE_CURVE((1.,
1.037910288481,1.)) REPRESENTATION_ITEM('') );
#162 = CARTESIAN_POINT('',(10.606647161447,-4.5));
#163 = CARTESIAN_POINT('',(7.794742720627,-5.949241398612));
#164 = CARTESIAN_POINT('',(5.38453891421,-6.));
#165 = ( GEOMETRIC_REPRESENTATION_CONTEXT(2) 
PARAMETRIC_REPRESENTATION_CONTEXT() REPRESENTATION_CONTEXT('2D SPACE',''
  ) );
#166 = PCURVE('',#167,#172);
#167 = CONICAL_SURFACE('',#168,10.5,0.785398163397);
#168 = AXIS2_PLACEMENT_3D('',#169,#170,#171);
#169 = CARTESIAN_POINT('',(0.,0.,120.75));
#170 = DIRECTION('',(-0.,-0.,-1.));
#171 = DIRECTION('',(1.,0.,-0.));
#172 = DEFINITIONAL_REPRESENTATION('',(#173),#181);
#173 = B_SPLINE_CURVE_WITH_KNOTS('',6,(#174,#175,#176,#177,#178,#179,
    #180),.UNSPECIFIED.,.F.,.F.,(7,7),(-0.570048598052,
    -2.106299366765E-02),.PIECEWISE_BEZIER_KNOTS.);
#174 = CARTESIAN_POINT('',(-1.588666034536,-8.881784197001E-16));
#175 = CARTESIAN_POINT('',(-1.510256913359,-0.495152731274));
#176 = CARTESIAN_POINT('',(-1.427410866811,-0.884820695567));
#177 = CARTESIAN_POINT('',(-1.340680840087,-1.176465093861));
#178 = CARTESIAN_POINT('',(-1.251001731977,-1.374899687332));
#179 = CARTESIAN_POINT('',(-1.159736295645,-1.482657644105));
#180 = CARTESIAN_POINT('',(-1.068258987605,-1.5));
#181 = ( GEOMETRIC_REPRESENTATION_CONTEXT(2) 
PARAMETRIC_REPRESENTATION_CONTEXT() REPRESENTATION_CONTEXT('2D SPACE',''
  ) );
#182 = ORIENTED_EDGE('',*,*,#183,.F.);
#183 = EDGE_CURVE('',#184,#151,#186,.T.);
#184 = VERTEX_POINT('',#185);
#185 = CARTESIAN_POINT('',(2.6645352591E-15,10.39,117.64));
#186 = SURFACE_CURVE('',#187,(#191,#198),.PCURVE_S1.);
#187 = LINE('',#188,#189);
#188 = CARTESIAN_POINT('',(2.6645352591E-15,10.39,116.25));
#189 = VECTOR('',#190,1.);
#190 = DIRECTION('',(0.,0.,1.));
#191 = PCURVE('',#33,#192);
#192 = DEFINITIONAL_REPRESENTATION('',(#193),#197);
#193 = LINE('',#194,#195);
#194 = CARTESIAN_POINT('',(10.39,0.));
#195 = VECTOR('',#196,1.);
#196 = DIRECTION('',(0.,-1.));
#197 = ( GEOMETRIC_REPRESENTATION_CONTEXT(2) 
PARAMETRIC_REPRESENTATION_CONTEXT() REPRESENTATION_CONTEXT('2D SPACE',''
  ) );
#198 = PCURVE('',#199,#204);
#199 = PLANE('',#200);
#200 = AXIS2_PLACEMENT_3D('',#201,#202,#203);
#201 = CARTESIAN_POINT('',(2.6645352591E-15,10.39,116.25));
#202 = DIRECTION('',(0.5,-0.866025403784,0.));
#203 = DIRECTION('',(-0.866025403784,-0.5,0.));
#204 = DEFINITIONAL_REPRESENTATION('',(#205),#209);
#205 = LINE('',#206,#207);
#206 = CARTESIAN_POINT('',(0.,0.));
#207 = VECTOR('',#208,1.);
#208 = DIRECTION('',(0.,-1.));
#209 = ( GEOMETRIC_REPRESENTATION_CONTEXT(2) 
PARAMETRIC_REPRESENTATION_CONTEXT() REPRESENTATION_CONTEXT('2D SPACE',''
  ) );
#210 = ORIENTED_EDGE('',*,*,#211,.F.);
#211 = EDGE_CURVE('',#212,#184,#214,.T.);
#212 = VERTEX_POINT('',#213);
#213 = CARTESIAN_POINT('',(4.334856457949,7.887269457105,116.25));
#214 = SURFACE_CURVE('',#215,(#220,#227),.PCURVE_S1.);
#215 = HYPERBOLA('',#216,8.99800394532,8.99800394532);
#216 = AXIS2_PLACEMENT_3D('',#217,#218,#219);
#217 = CARTESIAN_POINT('',(4.49900197266,7.7925,107.25));
#218 = DIRECTION('',(-0.5,-0.866025403784,0.));
#219 = DIRECTION('',(0.,0.,1.));
#220 = PCURVE('',#33,#221);
#221 = DEFINITIONAL_REPRESENTATION('',(#222),#226);
#222 = ( BOUNDED_CURVE() B_SPLINE_CURVE(2,(#223,#224,#225),
.UNSPECIFIED.,.F.,.F.) B_SPLINE_CURVE_WITH_KNOTS((3,3),(
2.106299366765E-02,0.570048598052),.PIECEWISE_BEZIER_KNOTS.) CURVE() 
GEOMETRIC_REPRESENTATION_ITEM() RATIONAL_B_SPLINE_CURVE((1.,
1.037910288481,1.)) REPRESENTATION_ITEM('') );
#223 = CARTESIAN_POINT('',(5.38453891421,-1.7763568394E-15));
#224 = CARTESIAN_POINT('',(7.794742720627,-5.075860138819E-02));
#225 = CARTESIAN_POINT('',(10.606647161447,-1.5));
#226 = ( GEOMETRIC_REPRESENTATION_CONTEXT(2) 
PARAMETRIC_REPRESENTATION_CONTEXT() REPRESENTATION_CONTEXT('2D SPACE',''
  ) );
#227 = PCURVE('',#228,#233);
#228 = CONICAL_SURFACE('',#229,9.,0.785398163397);
#229 = AXIS2_PLACEMENT_3D('',#230,#231,#232);
#230 = CARTESIAN_POINT('',(0.,0.,116.25));
#231 = DIRECTION('',(0.,0.,1.));
#232 = DIRECTION('',(1.,0.,-0.));
#233 = DEFINITIONAL_REPRESENTATION('',(#234),#242);
#234 = B_SPLINE_CURVE_WITH_KNOTS('',6,(#235,#236,#237,#238,#239,#240,
    #241),.UNSPECIFIED.,.F.,.F.,(7,7),(2.106299366765E-02,0.570048598052
    ),.PIECEWISE_BEZIER_KNOTS.);
#235 = CARTESIAN_POINT('',(1.068258987605,0.));
#236 = CARTESIAN_POINT('',(1.159736295645,1.734235589535E-02));
#237 = CARTESIAN_POINT('',(1.251001731977,0.125100312668));
#238 = CARTESIAN_POINT('',(1.340680840087,0.323534906139));
#239 = CARTESIAN_POINT('',(1.427410866811,0.615179304433));
#240 = CARTESIAN_POINT('',(1.510256913359,1.004847268726));
#241 = CARTESIAN_POINT('',(1.588666034536,1.5));
#242 = ( GEOMETRIC_REPRESENTATION_CONTEXT(2) 
PARAMETRIC_REPRESENTATION_CONTEXT() REPRESENTATION_CONTEXT('2D SPACE',''
  ) );
#243 = ORIENTED_EDGE('',*,*,#244,.F.);
#244 = EDGE_CURVE('',#24,#212,#245,.T.);
#245 = SURFACE_CURVE('',#246,(#250,#257),.PCURVE_S1.);
#246 = LINE('',#247,#248);
#247 = CARTESIAN_POINT('',(8.99800394532,5.195,116.25));
#248 = VECTOR('',#249,1.);
#249 = DIRECTION('',(-0.866025403784,0.5,0.));
#250 = PCURVE('',#33,#251);
#251 = DEFINITIONAL_REPRESENTATION('',(#252),#256);
#252 = LINE('',#253,#254);
#253 = CARTESIAN_POINT('',(0.,0.));
#254 = VECTOR('',#255,1.);
#255 = DIRECTION('',(1.,0.));
#256 = ( GEOMETRIC_REPRESENTATION_CONTEXT(2) 
PARAMETRIC_REPRESENTATION_CONTEXT() REPRESENTATION_CONTEXT('2D SPACE',''
  ) );
#257 = PCURVE('',#258,#263);
#258 = PLANE('',#259);
#259 = AXIS2_PLACEMENT_3D('',#260,#261,#262);
#260 = CARTESIAN_POINT('',(-1.516060460272E-16,-8.771968555112E-16,
    116.25));
#261 = DIRECTION('',(0.,0.,1.));
#262 = DIRECTION('',(0.866025403784,0.5,0.));
#263 = DEFINITIONAL_REPRESENTATION('',(#264),#268);
#264 = LINE('',#265,#266);
#265 = CARTESIAN_POINT('',(10.39,8.881784197001E-16));
#266 = VECTOR('',#267,1.);
#267 = DIRECTION('',(-0.5,0.866025403784));
#268 = ( GEOMETRIC_REPRESENTATION_CONTEXT(2) 
PARAMETRIC_REPRESENTATION_CONTEXT() REPRESENTATION_CONTEXT('2D SPACE',''
  ) );
#269 = ADVANCED_FACE('',(#270),#45,.T.);
#270 = FACE_BOUND('',#271,.T.);
#271 = EDGE_LOOP('',(#272,#300,#322));
#272 = ORIENTED_EDGE('',*,*,#273,.F.);
#273 = EDGE_CURVE('',#274,#22,#276,.T.);
#274 = VERTEX_POINT('',#275);
#275 = CARTESIAN_POINT('',(8.99800394532,0.18953891421,116.25));
#276 = SURFACE_CURVE('',#277,(#282,#293),.PCURVE_S1.);
#277 = HYPERBOLA('',#278,8.99800394532,8.99800394532);
#278 = AXIS2_PLACEMENT_3D('',#279,#280,#281);
#279 = CARTESIAN_POINT('',(8.99800394532,-3.995916462305E-15,107.25));
#280 = DIRECTION('',(-1.,4.440892098501E-16,0.));
#281 = DIRECTION('',(0.,0.,1.));
#282 = PCURVE('',#45,#283);
#283 = DEFINITIONAL_REPRESENTATION('',(#284),#292);
#284 = B_SPLINE_CURVE_WITH_KNOTS('',6,(#285,#286,#287,#288,#289,#290,
    #291),.UNSPECIFIED.,.F.,.F.,(7,7),(2.106299366767E-02,0.570048598052
    ),.PIECEWISE_BEZIER_KNOTS.);
#285 = CARTESIAN_POINT('',(2.106143640857E-02,0.));
#286 = CARTESIAN_POINT('',(0.112538744449,1.734235589536E-02));
#287 = CARTESIAN_POINT('',(0.20380418078,0.125100312668));
#288 = CARTESIAN_POINT('',(0.293483288891,0.323534906139));
#289 = CARTESIAN_POINT('',(0.380213315615,0.615179304433));
#290 = CARTESIAN_POINT('',(0.463059362162,1.004847268726));
#291 = CARTESIAN_POINT('',(0.54146848334,1.5));
#292 = ( GEOMETRIC_REPRESENTATION_CONTEXT(2) 
PARAMETRIC_REPRESENTATION_CONTEXT() REPRESENTATION_CONTEXT('2D SPACE',''
  ) );
#293 = PCURVE('',#77,#294);
#294 = DEFINITIONAL_REPRESENTATION('',(#295),#299);
#295 = ( BOUNDED_CURVE() B_SPLINE_CURVE(2,(#296,#297,#298),
.UNSPECIFIED.,.F.,.F.) B_SPLINE_CURVE_WITH_KNOTS((3,3),(
2.106299366767E-02,0.570048598052),.PIECEWISE_BEZIER_KNOTS.) CURVE() 
GEOMETRIC_REPRESENTATION_ITEM() RATIONAL_B_SPLINE_CURVE((1.,
1.037910288481,1.)) REPRESENTATION_ITEM('') );
#296 = CARTESIAN_POINT('',(5.38453891421,-1.7763568394E-15));
#297 = CARTESIAN_POINT('',(7.794742720627,-5.075860138823E-02));
#298 = CARTESIAN_POINT('',(10.606647161447,-1.5));
#299 = ( GEOMETRIC_REPRESENTATION_CONTEXT(2) 
PARAMETRIC_REPRESENTATION_CONTEXT() REPRESENTATION_CONTEXT('2D SPACE',''
  ) );
#300 = ORIENTED_EDGE('',*,*,#301,.T.);
#301 = EDGE_CURVE('',#274,#24,#302,.T.);
#302 = SURFACE_CURVE('',#303,(#308,#315),.PCURVE_S1.);
#303 = CIRCLE('',#304,9.);
#304 = AXIS2_PLACEMENT_3D('',#305,#306,#307);
#305 = CARTESIAN_POINT('',(0.,0.,116.25));
#306 = DIRECTION('',(0.,0.,1.));
#307 = DIRECTION('',(1.,0.,-0.));
#308 = PCURVE('',#45,#309);
#309 = DEFINITIONAL_REPRESENTATION('',(#310),#314);
#310 = LINE('',#311,#312);
#311 = CARTESIAN_POINT('',(0.,0.));
#312 = VECTOR('',#313,1.);
#313 = DIRECTION('',(1.,0.));
#314 = ( GEOMETRIC_REPRESENTATION_CONTEXT(2) 
PARAMETRIC_REPRESENTATION_CONTEXT() REPRESENTATION_CONTEXT('2D SPACE',''
  ) );
#315 = PCURVE('',#258,#316);
#316 = DEFINITIONAL_REPRESENTATION('',(#317),#321);
#317 = CIRCLE('',#318,9.);
#318 = AXIS2_PLACEMENT_2D('',#319,#320);
#319 = CARTESIAN_POINT('',(5.698931149824E-16,6.838717379789E-16));
#320 = DIRECTION('',(0.866025403784,-0.5));
#321 = ( GEOMETRIC_REPRESENTATION_CONTEXT(2) 
PARAMETRIC_REPRESENTATION_CONTEXT() REPRESENTATION_CONTEXT('2D SPACE',''
  ) );
#322 = ORIENTED_EDGE('',*,*,#21,.F.);
#323 = ADVANCED_FACE('',(#324,#596),#258,.F.);
#324 = FACE_BOUND('',#325,.F.);
#325 = EDGE_LOOP('',(#326,#327,#328,#352,#375,#404,#432,#461,#489,#518,
    #546,#575));
#326 = ORIENTED_EDGE('',*,*,#301,.T.);
#327 = ORIENTED_EDGE('',*,*,#244,.T.);
#328 = ORIENTED_EDGE('',*,*,#329,.T.);
#329 = EDGE_CURVE('',#212,#330,#332,.T.);
#330 = VERTEX_POINT('',#331);
#331 = CARTESIAN_POINT('',(-4.334856457948,7.887269457105,116.25));
#332 = SURFACE_CURVE('',#333,(#338,#345),.PCURVE_S1.);
#333 = CIRCLE('',#334,9.);
#334 = AXIS2_PLACEMENT_3D('',#335,#336,#337);
#335 = CARTESIAN_POINT('',(0.,0.,116.25));
#336 = DIRECTION('',(0.,0.,1.));
#337 = DIRECTION('',(1.,0.,-0.));
#338 = PCURVE('',#258,#339);
#339 = DEFINITIONAL_REPRESENTATION('',(#340),#344);
#340 = CIRCLE('',#341,9.);
#341 = AXIS2_PLACEMENT_2D('',#342,#343);
#342 = CARTESIAN_POINT('',(5.698931149824E-16,6.838717379789E-16));
#343 = DIRECTION('',(0.866025403784,-0.5));
#344 = ( GEOMETRIC_REPRESENTATION_CONTEXT(2) 
PARAMETRIC_REPRESENTATION_CONTEXT() REPRESENTATION_CONTEXT('2D SPACE',''
  ) );
#345 = PCURVE('',#228,#346);
#346 = DEFINITIONAL_REPRESENTATION('',(#347),#351);
#347 = LINE('',#348,#349);
#348 = CARTESIAN_POINT('',(0.,0.));
#349 = VECTOR('',#350,1.);
#350 = DIRECTION('',(1.,0.));
#351 = ( GEOMETRIC_REPRESENTATION_CONTEXT(2) 
PARAMETRIC_REPRESENTATION_CONTEXT() REPRESENTATION_CONTEXT('2D SPACE',''
  ) );
#352 = ORIENTED_EDGE('',*,*,#353,.T.);
#353 = EDGE_CURVE('',#330,#354,#356,.T.);
#354 = VERTEX_POINT('',#355);
#355 = CARTESIAN_POINT('',(-4.663147487372,7.697730542895,116.25));
#356 = SURFACE_CURVE('',#357,(#361,#368),.PCURVE_S1.);
#357 = LINE('',#358,#359);
#358 = CARTESIAN_POINT('',(2.6645352591E-15,10.39,116.25));
#359 = VECTOR('',#360,1.);
#360 = DIRECTION('',(-0.866025403784,-0.5,0.));
#361 = PCURVE('',#258,#362);
#362 = DEFINITIONAL_REPRESENTATION('',(#363),#367);
#363 = LINE('',#364,#365);
#364 = CARTESIAN_POINT('',(5.195,8.99800394532));
#365 = VECTOR('',#366,1.);
#366 = DIRECTION('',(-1.,1.665334536938E-16));
#367 = ( GEOMETRIC_REPRESENTATION_CONTEXT(2) 
PARAMETRIC_REPRESENTATION_CONTEXT() REPRESENTATION_CONTEXT('2D SPACE',''
  ) );
#368 = PCURVE('',#199,#369);
#369 = DEFINITIONAL_REPRESENTATION('',(#370),#374);
#370 = LINE('',#371,#372);
#371 = CARTESIAN_POINT('',(0.,0.));
#372 = VECTOR('',#373,1.);
#373 = DIRECTION('',(1.,0.));
#374 = ( GEOMETRIC_REPRESENTATION_CONTEXT(2) 
PARAMETRIC_REPRESENTATION_CONTEXT() REPRESENTATION_CONTEXT('2D SPACE',''
  ) );
#375 = ORIENTED_EDGE('',*,*,#376,.T.);
#376 = EDGE_CURVE('',#354,#377,#379,.T.);
#377 = VERTEX_POINT('',#378);
#378 = CARTESIAN_POINT('',(-8.99800394532,0.18953891421,116.25));
#379 = SURFACE_CURVE('',#380,(#385,#392),.PCURVE_S1.);
#380 = CIRCLE('',#381,9.);
#381 = AXIS2_PLACEMENT_3D('',#382,#383,#384);
#382 = CARTESIAN_POINT('',(0.,0.,116.25));
#383 = DIRECTION('',(0.,0.,1.));
#384 = DIRECTION('',(1.,0.,-0.));
#385 = PCURVE('',#258,#386);
#386 = DEFINITIONAL_REPRESENTATION('',(#387),#391);
#387 = CIRCLE('',#388,9.);
#388 = AXIS2_PLACEMENT_2D('',#389,#390);
#389 = CARTESIAN_POINT('',(5.698931149824E-16,6.838717379789E-16));
#390 = DIRECTION('',(0.866025403784,-0.5));
#391 = ( GEOMETRIC_REPRESENTATION_CONTEXT(2) 
PARAMETRIC_REPRESENTATION_CONTEXT() REPRESENTATION_CONTEXT('2D SPACE',''
  ) );
#392 = PCURVE('',#393,#398);
#393 = CONICAL_SURFACE('',#394,9.,0.785398163397);
#394 = AXIS2_PLACEMENT_3D('',#395,#396,#397);
#395 = CARTESIAN_POINT('',(0.,0.,116.25));
#396 = DIRECTION('',(0.,0.,1.));
#397 = DIRECTION('',(1.,0.,-0.));
#398 = DEFINITIONAL_REPRESENTATION('',(#399),#403);
#399 = LINE('',#400,#401);
#400 = CARTESIAN_POINT('',(0.,0.));
#401 = VECTOR('',#402,1.);
#402 = DIRECTION('',(1.,0.));
#403 = ( GEOMETRIC_REPRESENTATION_CONTEXT(2) 
PARAMETRIC_REPRESENTATION_CONTEXT() REPRESENTATION_CONTEXT('2D SPACE',''
  ) );
#404 = ORIENTED_EDGE('',*,*,#405,.T.);
#405 = EDGE_CURVE('',#377,#406,#408,.T.);
#406 = VERTEX_POINT('',#407);
#407 = CARTESIAN_POINT('',(-8.99800394532,-0.18953891421,116.25));
#408 = SURFACE_CURVE('',#409,(#413,#420),.PCURVE_S1.);
#409 = LINE('',#410,#411);
#410 = CARTESIAN_POINT('',(-8.99800394532,5.195,116.25));
#411 = VECTOR('',#412,1.);
#412 = DIRECTION('',(-3.885780586188E-16,-1.,0.));
#413 = PCURVE('',#258,#414);
#414 = DEFINITIONAL_REPRESENTATION('',(#415),#419);
#415 = LINE('',#416,#417);
#416 = CARTESIAN_POINT('',(-5.195,8.99800394532));
#417 = VECTOR('',#418,1.);
#418 = DIRECTION('',(-0.5,-0.866025403784));
#419 = ( GEOMETRIC_REPRESENTATION_CONTEXT(2) 
PARAMETRIC_REPRESENTATION_CONTEXT() REPRESENTATION_CONTEXT('2D SPACE',''
  ) );
#420 = PCURVE('',#421,#426);
#421 = PLANE('',#422);
#422 = AXIS2_PLACEMENT_3D('',#423,#424,#425);
#423 = CARTESIAN_POINT('',(-8.99800394532,5.195,116.25));
#424 = DIRECTION('',(1.,-3.885780586188E-16,0.));
#425 = DIRECTION('',(-3.330669073875E-16,-1.,0.));
#426 = DEFINITIONAL_REPRESENTATION('',(#427),#431);
#427 = LINE('',#428,#429);
#428 = CARTESIAN_POINT('',(0.,0.));
#429 = VECTOR('',#430,1.);
#430 = DIRECTION('',(1.,-0.));
#431 = ( GEOMETRIC_REPRESENTATION_CONTEXT(2) 
PARAMETRIC_REPRESENTATION_CONTEXT() REPRESENTATION_CONTEXT('2D SPACE',''
  ) );
#432 = ORIENTED_EDGE('',*,*,#433,.T.);
#433 = EDGE_CURVE('',#406,#434,#436,.T.);
#434 = VERTEX_POINT('',#435);
#435 = CARTESIAN_POINT('',(-4.663147487372,-7.697730542895,116.25));
#436 = SURFACE_CURVE('',#437,(#442,#449),.PCURVE_S1.);
#437 = CIRCLE('',#438,9.);
#438 = AXIS2_PLACEMENT_3D('',#439,#440,#441);
#439 = CARTESIAN_POINT('',(0.,0.,116.25));
#440 = DIRECTION('',(0.,0.,1.));
#441 = DIRECTION('',(1.,0.,-0.));
#442 = PCURVE('',#258,#443);
#443 = DEFINITIONAL_REPRESENTATION('',(#444),#448);
#444 = CIRCLE('',#445,9.);
#445 = AXIS2_PLACEMENT_2D('',#446,#447);
#446 = CARTESIAN_POINT('',(5.698931149824E-16,6.838717379789E-16));
#447 = DIRECTION('',(0.866025403784,-0.5));
#448 = ( GEOMETRIC_REPRESENTATION_CONTEXT(2) 
PARAMETRIC_REPRESENTATION_CONTEXT() REPRESENTATION_CONTEXT('2D SPACE',''
  ) );
#449 = PCURVE('',#450,#455);
#450 = CONICAL_SURFACE('',#451,9.,0.785398163397);
#451 = AXIS2_PLACEMENT_3D('',#452,#453,#454);
#452 = CARTESIAN_POINT('',(0.,0.,116.25));
#453 = DIRECTION('',(0.,0.,1.));
#454 = DIRECTION('',(1.,0.,-0.));
#455 = DEFINITIONAL_REPRESENTATION('',(#456),#460);
#456 = LINE('',#457,#458);
#457 = CARTESIAN_POINT('',(0.,0.));
#458 = VECTOR('',#459,1.);
#459 = DIRECTION('',(1.,0.));
#460 = ( GEOMETRIC_REPRESENTATION_CONTEXT(2) 
PARAMETRIC_REPRESENTATION_CONTEXT() REPRESENTATION_CONTEXT('2D SPACE',''
  ) );
#461 = ORIENTED_EDGE('',*,*,#462,.T.);
#462 = EDGE_CURVE('',#434,#463,#465,.T.);
#463 = VERTEX_POINT('',#464);
#464 = CARTESIAN_POINT('',(-4.334856457949,-7.887269457105,116.25));
#465 = SURFACE_CURVE('',#466,(#470,#477),.PCURVE_S1.);
#466 = LINE('',#467,#468);
#467 = CARTESIAN_POINT('',(-8.99800394532,-5.195,116.25));
#468 = VECTOR('',#469,1.);
#469 = DIRECTION('',(0.866025403784,-0.5,0.));
#470 = PCURVE('',#258,#471);
#471 = DEFINITIONAL_REPRESENTATION('',(#472),#476);
#472 = LINE('',#473,#474);
#473 = CARTESIAN_POINT('',(-10.39,1.7763568394E-15));
#474 = VECTOR('',#475,1.);
#475 = DIRECTION('',(0.5,-0.866025403784));
#476 = ( GEOMETRIC_REPRESENTATION_CONTEXT(2) 
PARAMETRIC_REPRESENTATION_CONTEXT() REPRESENTATION_CONTEXT('2D SPACE',''
  ) );
#477 = PCURVE('',#478,#483);
#478 = PLANE('',#479);
#479 = AXIS2_PLACEMENT_3D('',#480,#481,#482);
#480 = CARTESIAN_POINT('',(-8.99800394532,-5.195,116.25));
#481 = DIRECTION('',(0.5,0.866025403784,0.));
#482 = DIRECTION('',(0.866025403784,-0.5,0.));
#483 = DEFINITIONAL_REPRESENTATION('',(#484),#488);
#484 = LINE('',#485,#486);
#485 = CARTESIAN_POINT('',(0.,0.));
#486 = VECTOR('',#487,1.);
#487 = DIRECTION('',(1.,0.));
#488 = ( GEOMETRIC_REPRESENTATION_CONTEXT(2) 
PARAMETRIC_REPRESENTATION_CONTEXT() REPRESENTATION_CONTEXT('2D SPACE',''
  ) );
#489 = ORIENTED_EDGE('',*,*,#490,.T.);
#490 = EDGE_CURVE('',#463,#491,#493,.T.);
#491 = VERTEX_POINT('',#492);
#492 = CARTESIAN_POINT('',(4.334856457949,-7.887269457105,116.25));
#493 = SURFACE_CURVE('',#494,(#499,#506),.PCURVE_S1.);
#494 = CIRCLE('',#495,9.);
#495 = AXIS2_PLACEMENT_3D('',#496,#497,#498);
#496 = CARTESIAN_POINT('',(0.,0.,116.25));
#497 = DIRECTION('',(0.,0.,1.));
#498 = DIRECTION('',(1.,0.,-0.));
#499 = PCURVE('',#258,#500);
#500 = DEFINITIONAL_REPRESENTATION('',(#501),#505);
#501 = CIRCLE('',#502,9.);
#502 = AXIS2_PLACEMENT_2D('',#503,#504);
#503 = CARTESIAN_POINT('',(5.698931149824E-16,6.838717379789E-16));
#504 = DIRECTION('',(0.866025403784,-0.5));
#505 = ( GEOMETRIC_REPRESENTATION_CONTEXT(2) 
PARAMETRIC_REPRESENTATION_CONTEXT() REPRESENTATION_CONTEXT('2D SPACE',''
  ) );
#506 = PCURVE('',#507,#512);
#507 = CONICAL_SURFACE('',#508,9.,0.785398163397);
#508 = AXIS2_PLACEMENT_3D('',#509,#510,#511);
#509 = CARTESIAN_POINT('',(0.,0.,116.25));
#510 = DIRECTION('',(0.,0.,1.));
#511 = DIRECTION('',(1.,0.,-0.));
#512 = DEFINITIONAL_REPRESENTATION('',(#513),#517);
#513 = LINE('',#514,#515);
#514 = CARTESIAN_POINT('',(0.,0.));
#515 = VECTOR('',#516,1.);
#516 = DIRECTION('',(1.,0.));
#517 = ( GEOMETRIC_REPRESENTATION_CONTEXT(2) 
PARAMETRIC_REPRESENTATION_CONTEXT() REPRESENTATION_CONTEXT('2D SPACE',''
  ) );
#518 = ORIENTED_EDGE('',*,*,#519,.T.);
#519 = EDGE_CURVE('',#491,#520,#522,.T.);
#520 = VERTEX_POINT('',#521);
#521 = CARTESIAN_POINT('',(4.663147487372,-7.697730542895,116.25));
#522 = SURFACE_CURVE('',#523,(#527,#534),.PCURVE_S1.);
#523 = LINE('',#524,#525);
#524 = CARTESIAN_POINT('',(-6.217248937901E-15,-10.39,116.25));
#525 = VECTOR('',#526,1.);
#526 = DIRECTION('',(0.866025403784,0.5,0.));
#527 = PCURVE('',#258,#528);
#528 = DEFINITIONAL_REPRESENTATION('',(#529),#533);
#529 = LINE('',#530,#531);
#530 = CARTESIAN_POINT('',(-5.195,-8.99800394532));
#531 = VECTOR('',#532,1.);
#532 = DIRECTION('',(1.,-6.661338147751E-16));
#533 = ( GEOMETRIC_REPRESENTATION_CONTEXT(2) 
PARAMETRIC_REPRESENTATION_CONTEXT() REPRESENTATION_CONTEXT('2D SPACE',''
  ) );
#534 = PCURVE('',#535,#540);
#535 = PLANE('',#536);
#536 = AXIS2_PLACEMENT_3D('',#537,#538,#539);
#537 = CARTESIAN_POINT('',(-6.217248937901E-15,-10.39,116.25));
#538 = DIRECTION('',(-0.5,0.866025403784,0.));
#539 = DIRECTION('',(0.866025403784,0.5,0.));
#540 = DEFINITIONAL_REPRESENTATION('',(#541),#545);
#541 = LINE('',#542,#543);
#542 = CARTESIAN_POINT('',(0.,0.));
#543 = VECTOR('',#544,1.);
#544 = DIRECTION('',(1.,0.));
#545 = ( GEOMETRIC_REPRESENTATION_CONTEXT(2) 
PARAMETRIC_REPRESENTATION_CONTEXT() REPRESENTATION_CONTEXT('2D SPACE',''
  ) );
#546 = ORIENTED_EDGE('',*,*,#547,.T.);
#547 = EDGE_CURVE('',#520,#548,#550,.T.);
#548 = VERTEX_POINT('',#549);
#549 = CARTESIAN_POINT('',(8.99800394532,-0.18953891421,116.25));
#550 = SURFACE_CURVE('',#551,(#556,#563),.PCURVE_S1.);
#551 = CIRCLE('',#552,9.);
#552 = AXIS2_PLACEMENT_3D('',#553,#554,#555);
#553 = CARTESIAN_POINT('',(0.,0.,116.25));
#554 = DIRECTION('',(0.,0.,1.));
#555 = DIRECTION('',(1.,0.,-0.));
#556 = PCURVE('',#258,#557);
#557 = DEFINITIONAL_REPRESENTATION('',(#558),#562);
#558 = CIRCLE('',#559,9.);
#559 = AXIS2_PLACEMENT_2D('',#560,#561);
#560 = CARTESIAN_POINT('',(5.698931149824E-16,6.838717379789E-16));
#561 = DIRECTION('',(0.866025403784,-0.5));
#562 = ( GEOMETRIC_REPRESENTATION_CONTEXT(2) 
PARAMETRIC_REPRESENTATION_CONTEXT() REPRESENTATION_CONTEXT('2D SPACE',''
  ) );
#563 = PCURVE('',#564,#569);
#564 = CONICAL_SURFACE('',#565,9.,0.785398163397);
#565 = AXIS2_PLACEMENT_3D('',#566,#567,#568);
#566 = CARTESIAN_POINT('',(0.,0.,116.25));
#567 = DIRECTION('',(0.,0.,1.));
#568 = DIRECTION('',(1.,0.,-0.));
#569 = DEFINITIONAL_REPRESENTATION('',(#570),#574);
#570 = LINE('',#571,#572);
#571 = CARTESIAN_POINT('',(0.,0.));
#572 = VECTOR('',#573,1.);
#573 = DIRECTION('',(1.,0.));
#574 = ( GEOMETRIC_REPRESENTATION_CONTEXT(2) 
PARAMETRIC_REPRESENTATION_CONTEXT() REPRESENTATION_CONTEXT('2D SPACE',''
  ) );
#575 = ORIENTED_EDGE('',*,*,#576,.T.);
#576 = EDGE_CURVE('',#548,#274,#577,.T.);
#577 = SURFACE_CURVE('',#578,(#582,#589),.PCURVE_S1.);
#578 = LINE('',#579,#580);
#579 = CARTESIAN_POINT('',(8.99800394532,-5.195,116.25));
#580 = VECTOR('',#581,1.);
#581 = DIRECTION('',(4.440892098501E-16,1.,0.));
#582 = PCURVE('',#258,#583);
#583 = DEFINITIONAL_REPRESENTATION('',(#584),#588);
#584 = LINE('',#585,#586);
#585 = CARTESIAN_POINT('',(5.195,-8.99800394532));
#586 = VECTOR('',#587,1.);
#587 = DIRECTION('',(0.5,0.866025403784));
#588 = ( GEOMETRIC_REPRESENTATION_CONTEXT(2) 
PARAMETRIC_REPRESENTATION_CONTEXT() REPRESENTATION_CONTEXT('2D SPACE',''
  ) );
#589 = PCURVE('',#77,#590);
#590 = DEFINITIONAL_REPRESENTATION('',(#591),#595);
#591 = LINE('',#592,#593);
#592 = CARTESIAN_POINT('',(0.,0.));
#593 = VECTOR('',#594,1.);
#594 = DIRECTION('',(1.,0.));
#595 = ( GEOMETRIC_REPRESENTATION_CONTEXT(2) 
PARAMETRIC_REPRESENTATION_CONTEXT() REPRESENTATION_CONTEXT('2D SPACE',''
  ) );
#596 = FACE_BOUND('',#597,.F.);
#597 = EDGE_LOOP('',(#598));
#598 = ORIENTED_EDGE('',*,*,#599,.F.);
#599 = EDGE_CURVE('',#600,#600,#602,.T.);
#600 = VERTEX_POINT('',#601);
#601 = CARTESIAN_POINT('',(6.,-1.469576158977E-15,116.25));
#602 = SURFACE_CURVE('',#603,(#608,#615),.PCURVE_S1.);
#603 = CIRCLE('',#604,6.);
#604 = AXIS2_PLACEMENT_3D('',#605,#606,#607);
#605 = CARTESIAN_POINT('',(0.,0.,116.25));
#606 = DIRECTION('',(0.,0.,1.));
#607 = DIRECTION('',(1.,0.,-0.));
#608 = PCURVE('',#258,#609);
#609 = DEFINITIONAL_REPRESENTATION('',(#610),#614);
#610 = CIRCLE('',#611,6.);
#611 = AXIS2_PLACEMENT_2D('',#612,#613);
#612 = CARTESIAN_POINT('',(5.698931149824E-16,6.838717379789E-16));
#613 = DIRECTION('',(0.866025403784,-0.5));
#614 = ( GEOMETRIC_REPRESENTATION_CONTEXT(2) 
PARAMETRIC_REPRESENTATION_CONTEXT() REPRESENTATION_CONTEXT('2D SPACE',''
  ) );
#615 = PCURVE('',#616,#621);
#616 = CYLINDRICAL_SURFACE('',#617,6.);
#617 = AXIS2_PLACEMENT_3D('',#618,#619,#620);
#618 = CARTESIAN_POINT('',(0.,0.,115.25));
#619 = DIRECTION('',(0.,0.,1.));
#620 = DIRECTION('',(1.,0.,-0.));
#621 = DEFINITIONAL_REPRESENTATION('',(#622),#626);
#622 = LINE('',#623,#624);
#623 = CARTESIAN_POINT('',(0.,1.));
#624 = VECTOR('',#625,1.);
#625 = DIRECTION('',(1.,0.));
#626 = ( GEOMETRIC_REPRESENTATION_CONTEXT(2) 
PARAMETRIC_REPRESENTATION_CONTEXT() REPRESENTATION_CONTEXT('2D SPACE',''
  ) );
#627 = ADVANCED_FACE('',(#628),#228,.T.);
#628 = FACE_BOUND('',#629,.T.);
#629 = EDGE_LOOP('',(#630,#631,#632));
#630 = ORIENTED_EDGE('',*,*,#211,.F.);
#631 = ORIENTED_EDGE('',*,*,#329,.T.);
#632 = ORIENTED_EDGE('',*,*,#633,.F.);
#633 = EDGE_CURVE('',#184,#330,#634,.T.);
#634 = SURFACE_CURVE('',#635,(#640,#651),.PCURVE_S1.);
#635 = HYPERBOLA('',#636,8.99800394532,8.99800394532);
#636 = AXIS2_PLACEMENT_3D('',#637,#638,#639);
#637 = CARTESIAN_POINT('',(-4.49900197266,7.7925,107.25));
#638 = DIRECTION('',(0.5,-0.866025403784,0.));
#639 = DIRECTION('',(0.,0.,1.));
#640 = PCURVE('',#228,#641);
#641 = DEFINITIONAL_REPRESENTATION('',(#642),#650);
#642 = B_SPLINE_CURVE_WITH_KNOTS('',6,(#643,#644,#645,#646,#647,#648,
    #649),.UNSPECIFIED.,.F.,.F.,(7,7),(-0.570048598052,
    -2.106299366764E-02),.PIECEWISE_BEZIER_KNOTS.);
#643 = CARTESIAN_POINT('',(1.552926619053,1.5));
#644 = CARTESIAN_POINT('',(1.631335740231,1.004847268726));
#645 = CARTESIAN_POINT('',(1.714181786779,0.615179304433));
#646 = CARTESIAN_POINT('',(1.800911813502,0.323534906139));
#647 = CARTESIAN_POINT('',(1.890590921613,0.125100312668));
#648 = CARTESIAN_POINT('',(1.981856357944,1.734235589533E-02));
#649 = CARTESIAN_POINT('',(2.073333665985,-8.881784197001E-16));
#650 = ( GEOMETRIC_REPRESENTATION_CONTEXT(2) 
PARAMETRIC_REPRESENTATION_CONTEXT() REPRESENTATION_CONTEXT('2D SPACE',''
  ) );
#651 = PCURVE('',#199,#652);
#652 = DEFINITIONAL_REPRESENTATION('',(#653),#657);
#653 = ( BOUNDED_CURVE() B_SPLINE_CURVE(2,(#654,#655,#656),
.UNSPECIFIED.,.F.,.F.) B_SPLINE_CURVE_WITH_KNOTS((3,3),(-0.570048598052,
-2.106299366764E-02),.PIECEWISE_BEZIER_KNOTS.) CURVE() 
GEOMETRIC_REPRESENTATION_ITEM() RATIONAL_B_SPLINE_CURVE((1.,
1.037910288481,1.)) REPRESENTATION_ITEM('') );
#654 = CARTESIAN_POINT('',(-0.216647161447,-1.5));
#655 = CARTESIAN_POINT('',(2.595257279373,-5.075860138815E-02));
#656 = CARTESIAN_POINT('',(5.00546108579,-1.7763568394E-15));
#657 = ( GEOMETRIC_REPRESENTATION_CONTEXT(2) 
PARAMETRIC_REPRESENTATION_CONTEXT() REPRESENTATION_CONTEXT('2D SPACE',''
  ) );
#658 = ADVANCED_FACE('',(#659),#199,.F.);
#659 = FACE_BOUND('',#660,.F.);
#660 = EDGE_LOOP('',(#661,#662,#663,#691,#714,#747,#770,#796));
#661 = ORIENTED_EDGE('',*,*,#633,.F.);
#662 = ORIENTED_EDGE('',*,*,#183,.T.);
#663 = ORIENTED_EDGE('',*,*,#664,.F.);
#664 = EDGE_CURVE('',#665,#151,#667,.T.);
#665 = VERTEX_POINT('',#666);
#666 = CARTESIAN_POINT('',(-4.334856457948,7.887269457105,122.25));
#667 = SURFACE_CURVE('',#668,(#673,#680),.PCURVE_S1.);
#668 = HYPERBOLA('',#669,8.99800394532,8.99800394532);
#669 = AXIS2_PLACEMENT_3D('',#670,#671,#672);
#670 = CARTESIAN_POINT('',(-4.49900197266,7.7925,131.25));
#671 = DIRECTION('',(0.5,-0.866025403784,0.));
#672 = DIRECTION('',(0.,-0.,-1.));
#673 = PCURVE('',#199,#674);
#674 = DEFINITIONAL_REPRESENTATION('',(#675),#679);
#675 = ( BOUNDED_CURVE() B_SPLINE_CURVE(2,(#676,#677,#678),
.UNSPECIFIED.,.F.,.F.) B_SPLINE_CURVE_WITH_KNOTS((3,3),(
2.106299366764E-02,0.570048598052),.PIECEWISE_BEZIER_KNOTS.) CURVE() 
GEOMETRIC_REPRESENTATION_ITEM() RATIONAL_B_SPLINE_CURVE((1.,
1.037910288481,1.)) REPRESENTATION_ITEM('') );
#676 = CARTESIAN_POINT('',(5.00546108579,-6.));
#677 = CARTESIAN_POINT('',(2.595257279373,-5.949241398612));
#678 = CARTESIAN_POINT('',(-0.216647161447,-4.5));
#679 = ( GEOMETRIC_REPRESENTATION_CONTEXT(2) 
PARAMETRIC_REPRESENTATION_CONTEXT() REPRESENTATION_CONTEXT('2D SPACE',''
  ) );
#680 = PCURVE('',#167,#681);
#681 = DEFINITIONAL_REPRESENTATION('',(#682),#690);
#682 = B_SPLINE_CURVE_WITH_KNOTS('',6,(#683,#684,#685,#686,#687,#688,
    #689),.UNSPECIFIED.,.F.,.F.,(7,7),(2.106299366764E-02,0.570048598052
    ),.PIECEWISE_BEZIER_KNOTS.);
#683 = CARTESIAN_POINT('',(-2.073333665985,-1.5));
#684 = CARTESIAN_POINT('',(-1.981856357944,-1.482657644105));
#685 = CARTESIAN_POINT('',(-1.890590921613,-1.374899687332));
#686 = CARTESIAN_POINT('',(-1.800911813502,-1.176465093861));
#687 = CARTESIAN_POINT('',(-1.714181786779,-0.884820695567));
#688 = CARTESIAN_POINT('',(-1.631335740231,-0.495152731274));
#689 = CARTESIAN_POINT('',(-1.552926619053,-8.881784197001E-16));
#690 = ( GEOMETRIC_REPRESENTATION_CONTEXT(2) 
PARAMETRIC_REPRESENTATION_CONTEXT() REPRESENTATION_CONTEXT('2D SPACE',''
  ) );
#691 = ORIENTED_EDGE('',*,*,#692,.T.);
#692 = EDGE_CURVE('',#665,#693,#695,.T.);
#693 = VERTEX_POINT('',#694);
#694 = CARTESIAN_POINT('',(-4.663147487372,7.697730542895,122.25));
#695 = SURFACE_CURVE('',#696,(#700,#707),.PCURVE_S1.);
#696 = LINE('',#697,#698);
#697 = CARTESIAN_POINT('',(2.6645352591E-15,10.39,122.25));
#698 = VECTOR('',#699,1.);
#699 = DIRECTION('',(-0.866025403784,-0.5,0.));
#700 = PCURVE('',#199,#701);
#701 = DEFINITIONAL_REPRESENTATION('',(#702),#706);
#702 = LINE('',#703,#704);
#703 = CARTESIAN_POINT('',(0.,-6.));
#704 = VECTOR('',#705,1.);
#705 = DIRECTION('',(1.,0.));
#706 = ( GEOMETRIC_REPRESENTATION_CONTEXT(2) 
PARAMETRIC_REPRESENTATION_CONTEXT() REPRESENTATION_CONTEXT('2D SPACE',''
  ) );
#707 = PCURVE('',#138,#708);
#708 = DEFINITIONAL_REPRESENTATION('',(#709),#713);
#709 = LINE('',#710,#711);
#710 = CARTESIAN_POINT('',(5.195,8.99800394532));
#711 = VECTOR('',#712,1.);
#712 = DIRECTION('',(-1.,1.665334536938E-16));
#713 = ( GEOMETRIC_REPRESENTATION_CONTEXT(2) 
PARAMETRIC_REPRESENTATION_CONTEXT() REPRESENTATION_CONTEXT('2D SPACE',''
  ) );
#714 = ORIENTED_EDGE('',*,*,#715,.F.);
#715 = EDGE_CURVE('',#716,#693,#718,.T.);
#716 = VERTEX_POINT('',#717);
#717 = CARTESIAN_POINT('',(-8.99800394532,5.195,120.86));
#718 = SURFACE_CURVE('',#719,(#724,#731),.PCURVE_S1.);
#719 = HYPERBOLA('',#720,8.99800394532,8.99800394532);
#720 = AXIS2_PLACEMENT_3D('',#721,#722,#723);
#721 = CARTESIAN_POINT('',(-4.49900197266,7.7925,131.25));
#722 = DIRECTION('',(0.5,-0.866025403784,0.));
#723 = DIRECTION('',(0.,-0.,-1.));
#724 = PCURVE('',#199,#725);
#725 = DEFINITIONAL_REPRESENTATION('',(#726),#730);
#726 = ( BOUNDED_CURVE() B_SPLINE_CURVE(2,(#727,#728,#729),
.UNSPECIFIED.,.F.,.F.) B_SPLINE_CURVE_WITH_KNOTS((3,3),(-0.570048598052,
-2.106299366764E-02),.PIECEWISE_BEZIER_KNOTS.) CURVE() 
GEOMETRIC_REPRESENTATION_ITEM() RATIONAL_B_SPLINE_CURVE((1.,
1.037910288481,1.)) REPRESENTATION_ITEM('') );
#727 = CARTESIAN_POINT('',(10.606647161447,-4.5));
#728 = CARTESIAN_POINT('',(7.794742720627,-5.949241398612));
#729 = CARTESIAN_POINT('',(5.38453891421,-6.));
#730 = ( GEOMETRIC_REPRESENTATION_CONTEXT(2) 
PARAMETRIC_REPRESENTATION_CONTEXT() REPRESENTATION_CONTEXT('2D SPACE',''
  ) );
#731 = PCURVE('',#732,#737);
#732 = CONICAL_SURFACE('',#733,10.5,0.785398163397);
#733 = AXIS2_PLACEMENT_3D('',#734,#735,#736);
#734 = CARTESIAN_POINT('',(0.,0.,120.75));
#735 = DIRECTION('',(-0.,-0.,-1.));
#736 = DIRECTION('',(1.,0.,-0.));
#737 = DEFINITIONAL_REPRESENTATION('',(#738),#746);
#738 = B_SPLINE_CURVE_WITH_KNOTS('',6,(#739,#740,#741,#742,#743,#744,
    #745),.UNSPECIFIED.,.F.,.F.,(7,7),(-0.570048598052,
    -2.106299366764E-02),.PIECEWISE_BEZIER_KNOTS.);
#739 = CARTESIAN_POINT('',(-2.635863585733,-8.881784197001E-16));
#740 = CARTESIAN_POINT('',(-2.557454464556,-0.495152731274));
#741 = CARTESIAN_POINT('',(-2.474608418008,-0.884820695567));
#742 = CARTESIAN_POINT('',(-2.387878391284,-1.176465093861));
#743 = CARTESIAN_POINT('',(-2.298199283173,-1.374899687332));
#744 = CARTESIAN_POINT('',(-2.206933846842,-1.482657644105));
#745 = CARTESIAN_POINT('',(-2.115456538802,-1.5));
#746 = ( GEOMETRIC_REPRESENTATION_CONTEXT(2) 
PARAMETRIC_REPRESENTATION_CONTEXT() REPRESENTATION_CONTEXT('2D SPACE',''
  ) );
#747 = ORIENTED_EDGE('',*,*,#748,.F.);
#748 = EDGE_CURVE('',#749,#716,#751,.T.);
#749 = VERTEX_POINT('',#750);
#750 = CARTESIAN_POINT('',(-8.99800394532,5.195,117.64));
#751 = SURFACE_CURVE('',#752,(#756,#763),.PCURVE_S1.);
#752 = LINE('',#753,#754);
#753 = CARTESIAN_POINT('',(-8.99800394532,5.195,116.25));
#754 = VECTOR('',#755,1.);
#755 = DIRECTION('',(0.,0.,1.));
#756 = PCURVE('',#199,#757);
#757 = DEFINITIONAL_REPRESENTATION('',(#758),#762);
#758 = LINE('',#759,#760);
#759 = CARTESIAN_POINT('',(10.39,0.));
#760 = VECTOR('',#761,1.);
#761 = DIRECTION('',(0.,-1.));
#762 = ( GEOMETRIC_REPRESENTATION_CONTEXT(2) 
PARAMETRIC_REPRESENTATION_CONTEXT() REPRESENTATION_CONTEXT('2D SPACE',''
  ) );
#763 = PCURVE('',#421,#764);
#764 = DEFINITIONAL_REPRESENTATION('',(#765),#769);
#765 = LINE('',#766,#767);
#766 = CARTESIAN_POINT('',(0.,0.));
#767 = VECTOR('',#768,1.);
#768 = DIRECTION('',(0.,-1.));
#769 = ( GEOMETRIC_REPRESENTATION_CONTEXT(2) 
PARAMETRIC_REPRESENTATION_CONTEXT() REPRESENTATION_CONTEXT('2D SPACE',''
  ) );
#770 = ORIENTED_EDGE('',*,*,#771,.F.);
#771 = EDGE_CURVE('',#354,#749,#772,.T.);
#772 = SURFACE_CURVE('',#773,(#778,#785),.PCURVE_S1.);
#773 = HYPERBOLA('',#774,8.99800394532,8.99800394532);
#774 = AXIS2_PLACEMENT_3D('',#775,#776,#777);
#775 = CARTESIAN_POINT('',(-4.49900197266,7.7925,107.25));
#776 = DIRECTION('',(0.5,-0.866025403784,0.));
#777 = DIRECTION('',(0.,0.,1.));
#778 = PCURVE('',#199,#779);
#779 = DEFINITIONAL_REPRESENTATION('',(#780),#784);
#780 = ( BOUNDED_CURVE() B_SPLINE_CURVE(2,(#781,#782,#783),
.UNSPECIFIED.,.F.,.F.) B_SPLINE_CURVE_WITH_KNOTS((3,3),(
2.106299366764E-02,0.570048598052),.PIECEWISE_BEZIER_KNOTS.) CURVE() 
GEOMETRIC_REPRESENTATION_ITEM() RATIONAL_B_SPLINE_CURVE((1.,
1.037910288481,1.)) REPRESENTATION_ITEM('') );
#781 = CARTESIAN_POINT('',(5.38453891421,-1.7763568394E-15));
#782 = CARTESIAN_POINT('',(7.794742720627,-5.075860138815E-02));
#783 = CARTESIAN_POINT('',(10.606647161447,-1.5));
#784 = ( GEOMETRIC_REPRESENTATION_CONTEXT(2) 
PARAMETRIC_REPRESENTATION_CONTEXT() REPRESENTATION_CONTEXT('2D SPACE',''
  ) );
#785 = PCURVE('',#393,#786);
#786 = DEFINITIONAL_REPRESENTATION('',(#787),#795);
#787 = B_SPLINE_CURVE_WITH_KNOTS('',6,(#788,#789,#790,#791,#792,#793,
    #794),.UNSPECIFIED.,.F.,.F.,(7,7),(2.106299366764E-02,0.570048598052
    ),.PIECEWISE_BEZIER_KNOTS.);
#788 = CARTESIAN_POINT('',(2.115456538802,0.));
#789 = CARTESIAN_POINT('',(2.206933846842,1.734235589533E-02));
#790 = CARTESIAN_POINT('',(2.298199283173,0.125100312668));
#791 = CARTESIAN_POINT('',(2.387878391284,0.323534906139));
#792 = CARTESIAN_POINT('',(2.474608418008,0.615179304433));
#793 = CARTESIAN_POINT('',(2.557454464556,1.004847268726));
#794 = CARTESIAN_POINT('',(2.635863585733,1.5));
#795 = ( GEOMETRIC_REPRESENTATION_CONTEXT(2) 
PARAMETRIC_REPRESENTATION_CONTEXT() REPRESENTATION_CONTEXT('2D SPACE',''
  ) );
#796 = ORIENTED_EDGE('',*,*,#353,.F.);
#797 = ADVANCED_FACE('',(#798),#167,.T.);
#798 = FACE_BOUND('',#799,.T.);
#799 = EDGE_LOOP('',(#800,#822,#823));
#800 = ORIENTED_EDGE('',*,*,#801,.F.);
#801 = EDGE_CURVE('',#123,#665,#802,.T.);
#802 = SURFACE_CURVE('',#803,(#808,#815),.PCURVE_S1.);
#803 = CIRCLE('',#804,9.);
#804 = AXIS2_PLACEMENT_3D('',#805,#806,#807);
#805 = CARTESIAN_POINT('',(0.,0.,122.25));
#806 = DIRECTION('',(0.,0.,1.));
#807 = DIRECTION('',(1.,0.,-0.));
#808 = PCURVE('',#167,#809);
#809 = DEFINITIONAL_REPRESENTATION('',(#810),#814);
#810 = LINE('',#811,#812);
#811 = CARTESIAN_POINT('',(-0.,-1.5));
#812 = VECTOR('',#813,1.);
#813 = DIRECTION('',(-1.,-0.));
#814 = ( GEOMETRIC_REPRESENTATION_CONTEXT(2) 
PARAMETRIC_REPRESENTATION_CONTEXT() REPRESENTATION_CONTEXT('2D SPACE',''
  ) );
#815 = PCURVE('',#138,#816);
#816 = DEFINITIONAL_REPRESENTATION('',(#817),#821);
#817 = CIRCLE('',#818,9.);
#818 = AXIS2_PLACEMENT_2D('',#819,#820);
#819 = CARTESIAN_POINT('',(5.698931149824E-16,6.838717379789E-16));
#820 = DIRECTION('',(0.866025403784,-0.5));
#821 = ( GEOMETRIC_REPRESENTATION_CONTEXT(2) 
PARAMETRIC_REPRESENTATION_CONTEXT() REPRESENTATION_CONTEXT('2D SPACE',''
  ) );
#822 = ORIENTED_EDGE('',*,*,#150,.F.);
#823 = ORIENTED_EDGE('',*,*,#664,.F.);
#824 = ADVANCED_FACE('',(#825,#1055),#138,.T.);
#825 = FACE_BOUND('',#826,.T.);
#826 = EDGE_LOOP('',(#827,#851,#852,#853,#854,#878,#901,#930,#953,#982,
    #1005,#1034));
#827 = ORIENTED_EDGE('',*,*,#828,.T.);
#828 = EDGE_CURVE('',#829,#90,#831,.T.);
#829 = VERTEX_POINT('',#830);
#830 = CARTESIAN_POINT('',(8.99800394532,0.18953891421,122.25));
#831 = SURFACE_CURVE('',#832,(#837,#844),.PCURVE_S1.);
#832 = CIRCLE('',#833,9.);
#833 = AXIS2_PLACEMENT_3D('',#834,#835,#836);
#834 = CARTESIAN_POINT('',(0.,0.,122.25));
#835 = DIRECTION('',(0.,0.,1.));
#836 = DIRECTION('',(1.,0.,-0.));
#837 = PCURVE('',#138,#838);
#838 = DEFINITIONAL_REPRESENTATION('',(#839),#843);
#839 = CIRCLE('',#840,9.);
#840 = AXIS2_PLACEMENT_2D('',#841,#842);
#841 = CARTESIAN_POINT('',(5.698931149824E-16,6.838717379789E-16));
#842 = DIRECTION('',(0.866025403784,-0.5));
#843 = ( GEOMETRIC_REPRESENTATION_CONTEXT(2) 
PARAMETRIC_REPRESENTATION_CONTEXT() REPRESENTATION_CONTEXT('2D SPACE',''
  ) );
#844 = PCURVE('',#106,#845);
#845 = DEFINITIONAL_REPRESENTATION('',(#846),#850);
#846 = LINE('',#847,#848);
#847 = CARTESIAN_POINT('',(-0.,-1.5));
#848 = VECTOR('',#849,1.);
#849 = DIRECTION('',(-1.,-0.));
#850 = ( GEOMETRIC_REPRESENTATION_CONTEXT(2) 
PARAMETRIC_REPRESENTATION_CONTEXT() REPRESENTATION_CONTEXT('2D SPACE',''
  ) );
#851 = ORIENTED_EDGE('',*,*,#122,.T.);
#852 = ORIENTED_EDGE('',*,*,#801,.T.);
#853 = ORIENTED_EDGE('',*,*,#692,.T.);
#854 = ORIENTED_EDGE('',*,*,#855,.T.);
#855 = EDGE_CURVE('',#693,#856,#858,.T.);
#856 = VERTEX_POINT('',#857);
#857 = CARTESIAN_POINT('',(-8.99800394532,0.18953891421,122.25));
#858 = SURFACE_CURVE('',#859,(#864,#871),.PCURVE_S1.);
#859 = CIRCLE('',#860,9.);
#860 = AXIS2_PLACEMENT_3D('',#861,#862,#863);
#861 = CARTESIAN_POINT('',(0.,0.,122.25));
#862 = DIRECTION('',(0.,0.,1.));
#863 = DIRECTION('',(1.,0.,-0.));
#864 = PCURVE('',#138,#865);
#865 = DEFINITIONAL_REPRESENTATION('',(#866),#870);
#866 = CIRCLE('',#867,9.);
#867 = AXIS2_PLACEMENT_2D('',#868,#869);
#868 = CARTESIAN_POINT('',(5.698931149824E-16,6.838717379789E-16));
#869 = DIRECTION('',(0.866025403784,-0.5));
#870 = ( GEOMETRIC_REPRESENTATION_CONTEXT(2) 
PARAMETRIC_REPRESENTATION_CONTEXT() REPRESENTATION_CONTEXT('2D SPACE',''
  ) );
#871 = PCURVE('',#732,#872);
#872 = DEFINITIONAL_REPRESENTATION('',(#873),#877);
#873 = LINE('',#874,#875);
#874 = CARTESIAN_POINT('',(-0.,-1.5));
#875 = VECTOR('',#876,1.);
#876 = DIRECTION('',(-1.,-0.));
#877 = ( GEOMETRIC_REPRESENTATION_CONTEXT(2) 
PARAMETRIC_REPRESENTATION_CONTEXT() REPRESENTATION_CONTEXT('2D SPACE',''
  ) );
#878 = ORIENTED_EDGE('',*,*,#879,.T.);
#879 = EDGE_CURVE('',#856,#880,#882,.T.);
#880 = VERTEX_POINT('',#881);
#881 = CARTESIAN_POINT('',(-8.99800394532,-0.18953891421,122.25));
#882 = SURFACE_CURVE('',#883,(#887,#894),.PCURVE_S1.);
#883 = LINE('',#884,#885);
#884 = CARTESIAN_POINT('',(-8.99800394532,5.195,122.25));
#885 = VECTOR('',#886,1.);
#886 = DIRECTION('',(-3.885780586188E-16,-1.,0.));
#887 = PCURVE('',#138,#888);
#888 = DEFINITIONAL_REPRESENTATION('',(#889),#893);
#889 = LINE('',#890,#891);
#890 = CARTESIAN_POINT('',(-5.195,8.99800394532));
#891 = VECTOR('',#892,1.);
#892 = DIRECTION('',(-0.5,-0.866025403784));
#893 = ( GEOMETRIC_REPRESENTATION_CONTEXT(2) 
PARAMETRIC_REPRESENTATION_CONTEXT() REPRESENTATION_CONTEXT('2D SPACE',''
  ) );
#894 = PCURVE('',#421,#895);
#895 = DEFINITIONAL_REPRESENTATION('',(#896),#900);
#896 = LINE('',#897,#898);
#897 = CARTESIAN_POINT('',(0.,-6.));
#898 = VECTOR('',#899,1.);
#899 = DIRECTION('',(1.,-0.));
#900 = ( GEOMETRIC_REPRESENTATION_CONTEXT(2) 
PARAMETRIC_REPRESENTATION_CONTEXT() REPRESENTATION_CONTEXT('2D SPACE',''
  ) );
#901 = ORIENTED_EDGE('',*,*,#902,.T.);
#902 = EDGE_CURVE('',#880,#903,#905,.T.);
#903 = VERTEX_POINT('',#904);
#904 = CARTESIAN_POINT('',(-4.663147487372,-7.697730542895,122.25));
#905 = SURFACE_CURVE('',#906,(#911,#918),.PCURVE_S1.);
#906 = CIRCLE('',#907,9.);
#907 = AXIS2_PLACEMENT_3D('',#908,#909,#910);
#908 = CARTESIAN_POINT('',(0.,0.,122.25));
#909 = DIRECTION('',(0.,0.,1.));
#910 = DIRECTION('',(1.,0.,-0.));
#911 = PCURVE('',#138,#912);
#912 = DEFINITIONAL_REPRESENTATION('',(#913),#917);
#913 = CIRCLE('',#914,9.);
#914 = AXIS2_PLACEMENT_2D('',#915,#916);
#915 = CARTESIAN_POINT('',(5.698931149824E-16,6.838717379789E-16));
#916 = DIRECTION('',(0.866025403784,-0.5));
#917 = ( GEOMETRIC_REPRESENTATION_CONTEXT(2) 
PARAMETRIC_REPRESENTATION_CONTEXT() REPRESENTATION_CONTEXT('2D SPACE',''
  ) );
#918 = PCURVE('',#919,#924);
#919 = CONICAL_SURFACE('',#920,10.5,0.785398163397);
#920 = AXIS2_PLACEMENT_3D('',#921,#922,#923);
#921 = CARTESIAN_POINT('',(0.,0.,120.75));
#922 = DIRECTION('',(-0.,-0.,-1.));
#923 = DIRECTION('',(1.,0.,-0.));
#924 = DEFINITIONAL_REPRESENTATION('',(#925),#929);
#925 = LINE('',#926,#927);
#926 = CARTESIAN_POINT('',(-0.,-1.5));
#927 = VECTOR('',#928,1.);
#928 = DIRECTION('',(-1.,-0.));
#929 = ( GEOMETRIC_REPRESENTATION_CONTEXT(2) 
PARAMETRIC_REPRESENTATION_CONTEXT() REPRESENTATION_CONTEXT('2D SPACE',''
  ) );
#930 = ORIENTED_EDGE('',*,*,#931,.T.);
#931 = EDGE_CURVE('',#903,#932,#934,.T.);
#932 = VERTEX_POINT('',#933);
#933 = CARTESIAN_POINT('',(-4.334856457949,-7.887269457105,122.25));
#934 = SURFACE_CURVE('',#935,(#939,#946),.PCURVE_S1.);
#935 = LINE('',#936,#937);
#936 = CARTESIAN_POINT('',(-8.99800394532,-5.195,122.25));
#937 = VECTOR('',#938,1.);
#938 = DIRECTION('',(0.866025403784,-0.5,0.));
#939 = PCURVE('',#138,#940);
#940 = DEFINITIONAL_REPRESENTATION('',(#941),#945);
#941 = LINE('',#942,#943);
#942 = CARTESIAN_POINT('',(-10.39,1.7763568394E-15));
#943 = VECTOR('',#944,1.);
#944 = DIRECTION('',(0.5,-0.866025403784));
#945 = ( GEOMETRIC_REPRESENTATION_CONTEXT(2) 
PARAMETRIC_REPRESENTATION_CONTEXT() REPRESENTATION_CONTEXT('2D SPACE',''
  ) );
#946 = PCURVE('',#478,#947);
#947 = DEFINITIONAL_REPRESENTATION('',(#948),#952);
#948 = LINE('',#949,#950);
#949 = CARTESIAN_POINT('',(0.,-6.));
#950 = VECTOR('',#951,1.);
#951 = DIRECTION('',(1.,0.));
#952 = ( GEOMETRIC_REPRESENTATION_CONTEXT(2) 
PARAMETRIC_REPRESENTATION_CONTEXT() REPRESENTATION_CONTEXT('2D SPACE',''
  ) );
#953 = ORIENTED_EDGE('',*,*,#954,.T.);
#954 = EDGE_CURVE('',#932,#955,#957,.T.);
#955 = VERTEX_POINT('',#956);
#956 = CARTESIAN_POINT('',(4.334856457949,-7.887269457105,122.25));
#957 = SURFACE_CURVE('',#958,(#963,#970),.PCURVE_S1.);
#958 = CIRCLE('',#959,9.);
#959 = AXIS2_PLACEMENT_3D('',#960,#961,#962);
#960 = CARTESIAN_POINT('',(0.,0.,122.25));
#961 = DIRECTION('',(0.,0.,1.));
#962 = DIRECTION('',(1.,0.,-0.));
#963 = PCURVE('',#138,#964);
#964 = DEFINITIONAL_REPRESENTATION('',(#965),#969);
#965 = CIRCLE('',#966,9.);
#966 = AXIS2_PLACEMENT_2D('',#967,#968);
#967 = CARTESIAN_POINT('',(5.698931149824E-16,6.838717379789E-16));
#968 = DIRECTION('',(0.866025403784,-0.5));
#969 = ( GEOMETRIC_REPRESENTATION_CONTEXT(2) 
PARAMETRIC_REPRESENTATION_CONTEXT() REPRESENTATION_CONTEXT('2D SPACE',''
  ) );
#970 = PCURVE('',#971,#976);
#971 = CONICAL_SURFACE('',#972,10.5,0.785398163397);
#972 = AXIS2_PLACEMENT_3D('',#973,#974,#975);
#973 = CARTESIAN_POINT('',(0.,0.,120.75));
#974 = DIRECTION('',(-0.,-0.,-1.));
#975 = DIRECTION('',(1.,0.,-0.));
#976 = DEFINITIONAL_REPRESENTATION('',(#977),#981);
#977 = LINE('',#978,#979);
#978 = CARTESIAN_POINT('',(-0.,-1.5));
#979 = VECTOR('',#980,1.);
#980 = DIRECTION('',(-1.,-0.));
#981 = ( GEOMETRIC_REPRESENTATION_CONTEXT(2) 
PARAMETRIC_REPRESENTATION_CONTEXT() REPRESENTATION_CONTEXT('2D SPACE',''
  ) );
#982 = ORIENTED_EDGE('',*,*,#983,.T.);
#983 = EDGE_CURVE('',#955,#984,#986,.T.);
#984 = VERTEX_POINT('',#985);
#985 = CARTESIAN_POINT('',(4.663147487372,-7.697730542895,122.25));
#986 = SURFACE_CURVE('',#987,(#991,#998),.PCURVE_S1.);
#987 = LINE('',#988,#989);
#988 = CARTESIAN_POINT('',(-6.217248937901E-15,-10.39,122.25));
#989 = VECTOR('',#990,1.);
#990 = DIRECTION('',(0.866025403784,0.5,0.));
#991 = PCURVE('',#138,#992);
#992 = DEFINITIONAL_REPRESENTATION('',(#993),#997);
#993 = LINE('',#994,#995);
#994 = CARTESIAN_POINT('',(-5.195,-8.99800394532));
#995 = VECTOR('',#996,1.);
#996 = DIRECTION('',(1.,-6.661338147751E-16));
#997 = ( GEOMETRIC_REPRESENTATION_CONTEXT(2) 
PARAMETRIC_REPRESENTATION_CONTEXT() REPRESENTATION_CONTEXT('2D SPACE',''
  ) );
#998 = PCURVE('',#535,#999);
#999 = DEFINITIONAL_REPRESENTATION('',(#1000),#1004);
#1000 = LINE('',#1001,#1002);
#1001 = CARTESIAN_POINT('',(0.,-6.));
#1002 = VECTOR('',#1003,1.);
#1003 = DIRECTION('',(1.,0.));
#1004 = ( GEOMETRIC_REPRESENTATION_CONTEXT(2) 
PARAMETRIC_REPRESENTATION_CONTEXT() REPRESENTATION_CONTEXT('2D SPACE',''
  ) );
#1005 = ORIENTED_EDGE('',*,*,#1006,.T.);
#1006 = EDGE_CURVE('',#984,#1007,#1009,.T.);
#1007 = VERTEX_POINT('',#1008);
#1008 = CARTESIAN_POINT('',(8.99800394532,-0.18953891421,122.25));
#1009 = SURFACE_CURVE('',#1010,(#1015,#1022),.PCURVE_S1.);
#1010 = CIRCLE('',#1011,9.);
#1011 = AXIS2_PLACEMENT_3D('',#1012,#1013,#1014);
#1012 = CARTESIAN_POINT('',(0.,0.,122.25));
#1013 = DIRECTION('',(0.,0.,1.));
#1014 = DIRECTION('',(1.,0.,-0.));
#1015 = PCURVE('',#138,#1016);
#1016 = DEFINITIONAL_REPRESENTATION('',(#1017),#1021);
#1017 = CIRCLE('',#1018,9.);
#1018 = AXIS2_PLACEMENT_2D('',#1019,#1020);
#1019 = CARTESIAN_POINT('',(5.698931149824E-16,6.838717379789E-16));
#1020 = DIRECTION('',(0.866025403784,-0.5));
#1021 = ( GEOMETRIC_REPRESENTATION_CONTEXT(2) 
PARAMETRIC_REPRESENTATION_CONTEXT() REPRESENTATION_CONTEXT('2D SPACE',''
  ) );
#1022 = PCURVE('',#1023,#1028);
#1023 = CONICAL_SURFACE('',#1024,10.5,0.785398163397);
#1024 = AXIS2_PLACEMENT_3D('',#1025,#1026,#1027);
#1025 = CARTESIAN_POINT('',(0.,0.,120.75));
#1026 = DIRECTION('',(-0.,-0.,-1.));
#1027 = DIRECTION('',(1.,0.,-0.));
#1028 = DEFINITIONAL_REPRESENTATION('',(#1029),#1033);
#1029 = LINE('',#1030,#1031);
#1030 = CARTESIAN_POINT('',(-0.,-1.5));
#1031 = VECTOR('',#1032,1.);
#1032 = DIRECTION('',(-1.,-0.));
#1033 = ( GEOMETRIC_REPRESENTATION_CONTEXT(2) 
PARAMETRIC_REPRESENTATION_CONTEXT() REPRESENTATION_CONTEXT('2D SPACE',''
  ) );
#1034 = ORIENTED_EDGE('',*,*,#1035,.T.);
#1035 = EDGE_CURVE('',#1007,#829,#1036,.T.);
#1036 = SURFACE_CURVE('',#1037,(#1041,#1048),.PCURVE_S1.);
#1037 = LINE('',#1038,#1039);
#1038 = CARTESIAN_POINT('',(8.99800394532,-5.195,122.25));
#1039 = VECTOR('',#1040,1.);
#1040 = DIRECTION('',(4.440892098501E-16,1.,0.));
#1041 = PCURVE('',#138,#1042);
#1042 = DEFINITIONAL_REPRESENTATION('',(#1043),#1047);
#1043 = LINE('',#1044,#1045);
#1044 = CARTESIAN_POINT('',(5.195,-8.99800394532));
#1045 = VECTOR('',#1046,1.);
#1046 = DIRECTION('',(0.5,0.866025403784));
#1047 = ( GEOMETRIC_REPRESENTATION_CONTEXT(2) 
PARAMETRIC_REPRESENTATION_CONTEXT() REPRESENTATION_CONTEXT('2D SPACE',''
  ) );
#1048 = PCURVE('',#77,#1049);
#1049 = DEFINITIONAL_REPRESENTATION('',(#1050),#1054);
#1050 = LINE('',#1051,#1052);
#1051 = CARTESIAN_POINT('',(0.,-6.));
#1052 = VECTOR('',#1053,1.);
#1053 = DIRECTION('',(1.,0.));
#1054 = ( GEOMETRIC_REPRESENTATION_CONTEXT(2) 
PARAMETRIC_REPRESENTATION_CONTEXT() REPRESENTATION_CONTEXT('2D SPACE',''
  ) );
#1055 = FACE_BOUND('',#1056,.T.);
#1056 = EDGE_LOOP('',(#1057));
#1057 = ORIENTED_EDGE('',*,*,#1058,.F.);
#1058 = EDGE_CURVE('',#1059,#1059,#1061,.T.);
#1059 = VERTEX_POINT('',#1060);
#1060 = CARTESIAN_POINT('',(6.,-1.469576158977E-15,122.25));
#1061 = SURFACE_CURVE('',#1062,(#1067,#1074),.PCURVE_S1.);
#1062 = CIRCLE('',#1063,6.);
#1063 = AXIS2_PLACEMENT_3D('',#1064,#1065,#1066);
#1064 = CARTESIAN_POINT('',(0.,0.,122.25));
#1065 = DIRECTION('',(0.,0.,1.));
#1066 = DIRECTION('',(1.,0.,-0.));
#1067 = PCURVE('',#138,#1068);
#1068 = DEFINITIONAL_REPRESENTATION('',(#1069),#1073);
#1069 = CIRCLE('',#1070,6.);
#1070 = AXIS2_PLACEMENT_2D('',#1071,#1072);
#1071 = CARTESIAN_POINT('',(5.698931149824E-16,6.838717379789E-16));
#1072 = DIRECTION('',(0.866025403784,-0.5));
#1073 = ( GEOMETRIC_REPRESENTATION_CONTEXT(2) 
PARAMETRIC_REPRESENTATION_CONTEXT() REPRESENTATION_CONTEXT('2D SPACE',''
  ) );
#1074 = PCURVE('',#616,#1075);
#1075 = DEFINITIONAL_REPRESENTATION('',(#1076),#1080);
#1076 = LINE('',#1077,#1078);
#1077 = CARTESIAN_POINT('',(0.,7.));
#1078 = VECTOR('',#1079,1.);
#1079 = DIRECTION('',(1.,0.));
#1080 = ( GEOMETRIC_REPRESENTATION_CONTEXT(2) 
PARAMETRIC_REPRESENTATION_CONTEXT() REPRESENTATION_CONTEXT('2D SPACE',''
  ) );
#1081 = ADVANCED_FACE('',(#1082),#106,.T.);
#1082 = FACE_BOUND('',#1083,.T.);
#1083 = EDGE_LOOP('',(#1084,#1085,#1111));
#1084 = ORIENTED_EDGE('',*,*,#828,.F.);
#1085 = ORIENTED_EDGE('',*,*,#1086,.F.);
#1086 = EDGE_CURVE('',#62,#829,#1087,.T.);
#1087 = SURFACE_CURVE('',#1088,(#1093,#1104),.PCURVE_S1.);
#1088 = HYPERBOLA('',#1089,8.99800394532,8.99800394532);
#1089 = AXIS2_PLACEMENT_3D('',#1090,#1091,#1092);
#1090 = CARTESIAN_POINT('',(8.99800394532,-3.995916462305E-15,131.25));
#1091 = DIRECTION('',(-1.,4.440892098501E-16,0.));
#1092 = DIRECTION('',(-0.,0.,-1.));
#1093 = PCURVE('',#106,#1094);
#1094 = DEFINITIONAL_REPRESENTATION('',(#1095),#1103);
#1095 = B_SPLINE_CURVE_WITH_KNOTS('',6,(#1096,#1097,#1098,#1099,#1100,
    #1101,#1102),.UNSPECIFIED.,.F.,.F.,(7,7),(-0.570048598052,
    -2.106299366767E-02),.PIECEWISE_BEZIER_KNOTS.);
#1096 = CARTESIAN_POINT('',(-0.54146848334,0.));
#1097 = CARTESIAN_POINT('',(-0.463059362162,-0.495152731274));
#1098 = CARTESIAN_POINT('',(-0.380213315615,-0.884820695567));
#1099 = CARTESIAN_POINT('',(-0.293483288891,-1.176465093861));
#1100 = CARTESIAN_POINT('',(-0.20380418078,-1.374899687332));
#1101 = CARTESIAN_POINT('',(-0.112538744449,-1.482657644105));
#1102 = CARTESIAN_POINT('',(-2.106143640857E-02,-1.5));
#1103 = ( GEOMETRIC_REPRESENTATION_CONTEXT(2) 
PARAMETRIC_REPRESENTATION_CONTEXT() REPRESENTATION_CONTEXT('2D SPACE',''
  ) );
#1104 = PCURVE('',#77,#1105);
#1105 = DEFINITIONAL_REPRESENTATION('',(#1106),#1110);
#1106 = ( BOUNDED_CURVE() B_SPLINE_CURVE(2,(#1107,#1108,#1109),
.UNSPECIFIED.,.F.,.F.) B_SPLINE_CURVE_WITH_KNOTS((3,3),(-0.570048598052,
-2.106299366767E-02),.PIECEWISE_BEZIER_KNOTS.) CURVE() 
GEOMETRIC_REPRESENTATION_ITEM() RATIONAL_B_SPLINE_CURVE((1.,
1.037910288481,1.)) REPRESENTATION_ITEM('') );
#1107 = CARTESIAN_POINT('',(10.606647161447,-4.5));
#1108 = CARTESIAN_POINT('',(7.794742720627,-5.949241398612));
#1109 = CARTESIAN_POINT('',(5.38453891421,-6.));
#1110 = ( GEOMETRIC_REPRESENTATION_CONTEXT(2) 
PARAMETRIC_REPRESENTATION_CONTEXT() REPRESENTATION_CONTEXT('2D SPACE',''
  ) );
#1111 = ORIENTED_EDGE('',*,*,#89,.F.);
#1112 = ADVANCED_FACE('',(#1113),#77,.F.);
#1113 = FACE_BOUND('',#1114,.F.);
#1114 = EDGE_LOOP('',(#1115,#1143,#1166,#1192,#1193,#1194,#1195,#1196));
#1115 = ORIENTED_EDGE('',*,*,#1116,.F.);
#1116 = EDGE_CURVE('',#1117,#548,#1119,.T.);
#1117 = VERTEX_POINT('',#1118);
#1118 = CARTESIAN_POINT('',(8.99800394532,-5.195,117.64));
#1119 = SURFACE_CURVE('',#1120,(#1125,#1132),.PCURVE_S1.);
#1120 = HYPERBOLA('',#1121,8.99800394532,8.99800394532);
#1121 = AXIS2_PLACEMENT_3D('',#1122,#1123,#1124);
#1122 = CARTESIAN_POINT('',(8.99800394532,-3.995916462305E-15,107.25));
#1123 = DIRECTION('',(-1.,4.440892098501E-16,0.));
#1124 = DIRECTION('',(0.,0.,1.));
#1125 = PCURVE('',#77,#1126);
#1126 = DEFINITIONAL_REPRESENTATION('',(#1127),#1131);
#1127 = ( BOUNDED_CURVE() B_SPLINE_CURVE(2,(#1128,#1129,#1130),
.UNSPECIFIED.,.F.,.F.) B_SPLINE_CURVE_WITH_KNOTS((3,3),(-0.570048598052,
-2.106299366767E-02),.PIECEWISE_BEZIER_KNOTS.) CURVE() 
GEOMETRIC_REPRESENTATION_ITEM() RATIONAL_B_SPLINE_CURVE((1.,
1.037910288481,1.)) REPRESENTATION_ITEM('') );
#1128 = CARTESIAN_POINT('',(-0.216647161447,-1.5));
#1129 = CARTESIAN_POINT('',(2.595257279373,-5.075860138823E-02));
#1130 = CARTESIAN_POINT('',(5.00546108579,-1.7763568394E-15));
#1131 = ( GEOMETRIC_REPRESENTATION_CONTEXT(2) 
PARAMETRIC_REPRESENTATION_CONTEXT() REPRESENTATION_CONTEXT('2D SPACE',''
  ) );
#1132 = PCURVE('',#564,#1133);
#1133 = DEFINITIONAL_REPRESENTATION('',(#1134),#1142);
#1134 = B_SPLINE_CURVE_WITH_KNOTS('',6,(#1135,#1136,#1137,#1138,#1139,
    #1140,#1141),.UNSPECIFIED.,.F.,.F.,(7,7),(-0.570048598052,
    -2.106299366767E-02),.PIECEWISE_BEZIER_KNOTS.);
#1135 = CARTESIAN_POINT('',(5.74171682384,1.5));
#1136 = CARTESIAN_POINT('',(5.820125945017,1.004847268726));
#1137 = CARTESIAN_POINT('',(5.902971991565,0.615179304433));
#1138 = CARTESIAN_POINT('',(5.989702018289,0.323534906139));
#1139 = CARTESIAN_POINT('',(6.079381126399,0.125100312668));
#1140 = CARTESIAN_POINT('',(6.170646562731,1.734235589536E-02));
#1141 = CARTESIAN_POINT('',(6.262123870771,0.));
#1142 = ( GEOMETRIC_REPRESENTATION_CONTEXT(2) 
PARAMETRIC_REPRESENTATION_CONTEXT() REPRESENTATION_CONTEXT('2D SPACE',''
  ) );
#1143 = ORIENTED_EDGE('',*,*,#1144,.T.);
#1144 = EDGE_CURVE('',#1117,#1145,#1147,.T.);
#1145 = VERTEX_POINT('',#1146);
#1146 = CARTESIAN_POINT('',(8.99800394532,-5.195,120.86));
#1147 = SURFACE_CURVE('',#1148,(#1152,#1159),.PCURVE_S1.);
#1148 = LINE('',#1149,#1150);
#1149 = CARTESIAN_POINT('',(8.99800394532,-5.195,116.25));
#1150 = VECTOR('',#1151,1.);
#1151 = DIRECTION('',(0.,0.,1.));
#1152 = PCURVE('',#77,#1153);
#1153 = DEFINITIONAL_REPRESENTATION('',(#1154),#1158);
#1154 = LINE('',#1155,#1156);
#1155 = CARTESIAN_POINT('',(0.,0.));
#1156 = VECTOR('',#1157,1.);
#1157 = DIRECTION('',(0.,-1.));
#1158 = ( GEOMETRIC_REPRESENTATION_CONTEXT(2) 
PARAMETRIC_REPRESENTATION_CONTEXT() REPRESENTATION_CONTEXT('2D SPACE',''
  ) );
#1159 = PCURVE('',#535,#1160);
#1160 = DEFINITIONAL_REPRESENTATION('',(#1161),#1165);
#1161 = LINE('',#1162,#1163);
#1162 = CARTESIAN_POINT('',(10.39,0.));
#1163 = VECTOR('',#1164,1.);
#1164 = DIRECTION('',(0.,-1.));
#1165 = ( GEOMETRIC_REPRESENTATION_CONTEXT(2) 
PARAMETRIC_REPRESENTATION_CONTEXT() REPRESENTATION_CONTEXT('2D SPACE',''
  ) );
#1166 = ORIENTED_EDGE('',*,*,#1167,.F.);
#1167 = EDGE_CURVE('',#1007,#1145,#1168,.T.);
#1168 = SURFACE_CURVE('',#1169,(#1174,#1181),.PCURVE_S1.);
#1169 = HYPERBOLA('',#1170,8.99800394532,8.99800394532);
#1170 = AXIS2_PLACEMENT_3D('',#1171,#1172,#1173);
#1171 = CARTESIAN_POINT('',(8.99800394532,-3.995916462305E-15,131.25));
#1172 = DIRECTION('',(-1.,4.440892098501E-16,0.));
#1173 = DIRECTION('',(-0.,0.,-1.));
#1174 = PCURVE('',#77,#1175);
#1175 = DEFINITIONAL_REPRESENTATION('',(#1176),#1180);
#1176 = ( BOUNDED_CURVE() B_SPLINE_CURVE(2,(#1177,#1178,#1179),
.UNSPECIFIED.,.F.,.F.) B_SPLINE_CURVE_WITH_KNOTS((3,3),(
2.106299366767E-02,0.570048598052),.PIECEWISE_BEZIER_KNOTS.) CURVE() 
GEOMETRIC_REPRESENTATION_ITEM() RATIONAL_B_SPLINE_CURVE((1.,
1.037910288481,1.)) REPRESENTATION_ITEM('') );
#1177 = CARTESIAN_POINT('',(5.00546108579,-6.));
#1178 = CARTESIAN_POINT('',(2.595257279373,-5.949241398612));
#1179 = CARTESIAN_POINT('',(-0.216647161447,-4.5));
#1180 = ( GEOMETRIC_REPRESENTATION_CONTEXT(2) 
PARAMETRIC_REPRESENTATION_CONTEXT() REPRESENTATION_CONTEXT('2D SPACE',''
  ) );
#1181 = PCURVE('',#1023,#1182);
#1182 = DEFINITIONAL_REPRESENTATION('',(#1183),#1191);
#1183 = B_SPLINE_CURVE_WITH_KNOTS('',6,(#1184,#1185,#1186,#1187,#1188,
    #1189,#1190),.UNSPECIFIED.,.F.,.F.,(7,7),(2.106299366767E-02,
    0.570048598052),.PIECEWISE_BEZIER_KNOTS.);
#1184 = CARTESIAN_POINT('',(-6.262123870771,-1.5));
#1185 = CARTESIAN_POINT('',(-6.170646562731,-1.482657644105));
#1186 = CARTESIAN_POINT('',(-6.0793811264,-1.374899687332));
#1187 = CARTESIAN_POINT('',(-5.989702018289,-1.176465093861));
#1188 = CARTESIAN_POINT('',(-5.902971991565,-0.884820695567));
#1189 = CARTESIAN_POINT('',(-5.820125945017,-0.495152731274));
#1190 = CARTESIAN_POINT('',(-5.74171682384,0.));
#1191 = ( GEOMETRIC_REPRESENTATION_CONTEXT(2) 
PARAMETRIC_REPRESENTATION_CONTEXT() REPRESENTATION_CONTEXT('2D SPACE',''
  ) );
#1192 = ORIENTED_EDGE('',*,*,#1035,.T.);
#1193 = ORIENTED_EDGE('',*,*,#1086,.F.);
#1194 = ORIENTED_EDGE('',*,*,#61,.F.);
#1195 = ORIENTED_EDGE('',*,*,#273,.F.);
#1196 = ORIENTED_EDGE('',*,*,#576,.F.);
#1197 = ADVANCED_FACE('',(#1198),#564,.T.);
#1198 = FACE_BOUND('',#1199,.T.);
#1199 = EDGE_LOOP('',(#1200,#1201,#1202));
#1200 = ORIENTED_EDGE('',*,*,#547,.T.);
#1201 = ORIENTED_EDGE('',*,*,#1116,.F.);
#1202 = ORIENTED_EDGE('',*,*,#1203,.F.);
#1203 = EDGE_CURVE('',#520,#1117,#1204,.T.);
#1204 = SURFACE_CURVE('',#1205,(#1210,#1221),.PCURVE_S1.);
#1205 = HYPERBOLA('',#1206,8.99800394532,8.99800394532);
#1206 = AXIS2_PLACEMENT_3D('',#1207,#1208,#1209);
#1207 = CARTESIAN_POINT('',(4.49900197266,-7.7925,107.25));
#1208 = DIRECTION('',(-0.5,0.866025403784,0.));
#1209 = DIRECTION('',(0.,0.,1.));
#1210 = PCURVE('',#564,#1211);
#1211 = DEFINITIONAL_REPRESENTATION('',(#1212),#1220);
#1212 = B_SPLINE_CURVE_WITH_KNOTS('',6,(#1213,#1214,#1215,#1216,#1217,
    #1218,#1219),.UNSPECIFIED.,.F.,.F.,(7,7),(2.106299366765E-02,
    0.570048598052),.PIECEWISE_BEZIER_KNOTS.);
#1213 = CARTESIAN_POINT('',(5.257049192392,0.));
#1214 = CARTESIAN_POINT('',(5.348526500432,1.734235589534E-02));
#1215 = CARTESIAN_POINT('',(5.439791936763,0.125100312668));
#1216 = CARTESIAN_POINT('',(5.529471044873,0.323534906139));
#1217 = CARTESIAN_POINT('',(5.616201071598,0.615179304433));
#1218 = CARTESIAN_POINT('',(5.699047118145,1.004847268726));
#1219 = CARTESIAN_POINT('',(5.777456239323,1.5));
#1220 = ( GEOMETRIC_REPRESENTATION_CONTEXT(2) 
PARAMETRIC_REPRESENTATION_CONTEXT() REPRESENTATION_CONTEXT('2D SPACE',''
  ) );
#1221 = PCURVE('',#535,#1222);
#1222 = DEFINITIONAL_REPRESENTATION('',(#1223),#1227);
#1223 = ( BOUNDED_CURVE() B_SPLINE_CURVE(2,(#1224,#1225,#1226),
.UNSPECIFIED.,.F.,.F.) B_SPLINE_CURVE_WITH_KNOTS((3,3),(
2.106299366765E-02,0.570048598052),.PIECEWISE_BEZIER_KNOTS.) CURVE() 
GEOMETRIC_REPRESENTATION_ITEM() RATIONAL_B_SPLINE_CURVE((1.,
1.037910288481,1.)) REPRESENTATION_ITEM('') );
#1224 = CARTESIAN_POINT('',(5.38453891421,-1.7763568394E-15));
#1225 = CARTESIAN_POINT('',(7.794742720627,-5.075860138817E-02));
#1226 = CARTESIAN_POINT('',(10.606647161447,-1.5));
#1227 = ( GEOMETRIC_REPRESENTATION_CONTEXT(2) 
PARAMETRIC_REPRESENTATION_CONTEXT() REPRESENTATION_CONTEXT('2D SPACE',''
  ) );
#1228 = ADVANCED_FACE('',(#1229),#535,.F.);
#1229 = FACE_BOUND('',#1230,.F.);
#1230 = EDGE_LOOP('',(#1231,#1259,#1282,#1308,#1309,#1335,#1336,#1337));
#1231 = ORIENTED_EDGE('',*,*,#1232,.F.);
#1232 = EDGE_CURVE('',#1233,#491,#1235,.T.);
#1233 = VERTEX_POINT('',#1234);
#1234 = CARTESIAN_POINT('',(-6.217248937901E-15,-10.39,117.64));
#1235 = SURFACE_CURVE('',#1236,(#1241,#1248),.PCURVE_S1.);
#1236 = HYPERBOLA('',#1237,8.99800394532,8.99800394532);
#1237 = AXIS2_PLACEMENT_3D('',#1238,#1239,#1240);
#1238 = CARTESIAN_POINT('',(4.49900197266,-7.7925,107.25));
#1239 = DIRECTION('',(-0.5,0.866025403784,0.));
#1240 = DIRECTION('',(0.,0.,1.));
#1241 = PCURVE('',#535,#1242);
#1242 = DEFINITIONAL_REPRESENTATION('',(#1243),#1247);
#1243 = ( BOUNDED_CURVE() B_SPLINE_CURVE(2,(#1244,#1245,#1246),
.UNSPECIFIED.,.F.,.F.) B_SPLINE_CURVE_WITH_KNOTS((3,3),(-0.570048598052,
-2.106299366765E-02),.PIECEWISE_BEZIER_KNOTS.) CURVE() 
GEOMETRIC_REPRESENTATION_ITEM() RATIONAL_B_SPLINE_CURVE((1.,
1.037910288481,1.)) REPRESENTATION_ITEM('') );
#1244 = CARTESIAN_POINT('',(-0.216647161447,-1.5));
#1245 = CARTESIAN_POINT('',(2.595257279373,-5.075860138817E-02));
#1246 = CARTESIAN_POINT('',(5.00546108579,-1.7763568394E-15));
#1247 = ( GEOMETRIC_REPRESENTATION_CONTEXT(2) 
PARAMETRIC_REPRESENTATION_CONTEXT() REPRESENTATION_CONTEXT('2D SPACE',''
  ) );
#1248 = PCURVE('',#507,#1249);
#1249 = DEFINITIONAL_REPRESENTATION('',(#1250),#1258);
#1250 = B_SPLINE_CURVE_WITH_KNOTS('',6,(#1251,#1252,#1253,#1254,#1255,
    #1256,#1257),.UNSPECIFIED.,.F.,.F.,(7,7),(-0.570048598052,
    -2.106299366765E-02),.PIECEWISE_BEZIER_KNOTS.);
#1251 = CARTESIAN_POINT('',(4.694519272643,1.5));
#1252 = CARTESIAN_POINT('',(4.772928393821,1.004847268726));
#1253 = CARTESIAN_POINT('',(4.855774440368,0.615179304433));
#1254 = CARTESIAN_POINT('',(4.942504467092,0.323534906139));
#1255 = CARTESIAN_POINT('',(5.032183575203,0.125100312668));
#1256 = CARTESIAN_POINT('',(5.123449011534,1.734235589534E-02));
#1257 = CARTESIAN_POINT('',(5.214926319574,0.));
#1258 = ( GEOMETRIC_REPRESENTATION_CONTEXT(2) 
PARAMETRIC_REPRESENTATION_CONTEXT() REPRESENTATION_CONTEXT('2D SPACE',''
  ) );
#1259 = ORIENTED_EDGE('',*,*,#1260,.T.);
#1260 = EDGE_CURVE('',#1233,#1261,#1263,.T.);
#1261 = VERTEX_POINT('',#1262);
#1262 = CARTESIAN_POINT('',(-6.217248937901E-15,-10.39,120.86));
#1263 = SURFACE_CURVE('',#1264,(#1268,#1275),.PCURVE_S1.);
#1264 = LINE('',#1265,#1266);
#1265 = CARTESIAN_POINT('',(-6.217248937901E-15,-10.39,116.25));
#1266 = VECTOR('',#1267,1.);
#1267 = DIRECTION('',(0.,0.,1.));
#1268 = PCURVE('',#535,#1269);
#1269 = DEFINITIONAL_REPRESENTATION('',(#1270),#1274);
#1270 = LINE('',#1271,#1272);
#1271 = CARTESIAN_POINT('',(0.,0.));
#1272 = VECTOR('',#1273,1.);
#1273 = DIRECTION('',(0.,-1.));
#1274 = ( GEOMETRIC_REPRESENTATION_CONTEXT(2) 
PARAMETRIC_REPRESENTATION_CONTEXT() REPRESENTATION_CONTEXT('2D SPACE',''
  ) );
#1275 = PCURVE('',#478,#1276);
#1276 = DEFINITIONAL_REPRESENTATION('',(#1277),#1281);
#1277 = LINE('',#1278,#1279);
#1278 = CARTESIAN_POINT('',(10.39,0.));
#1279 = VECTOR('',#1280,1.);
#1280 = DIRECTION('',(0.,-1.));
#1281 = ( GEOMETRIC_REPRESENTATION_CONTEXT(2) 
PARAMETRIC_REPRESENTATION_CONTEXT() REPRESENTATION_CONTEXT('2D SPACE',''
  ) );
#1282 = ORIENTED_EDGE('',*,*,#1283,.F.);
#1283 = EDGE_CURVE('',#955,#1261,#1284,.T.);
#1284 = SURFACE_CURVE('',#1285,(#1290,#1297),.PCURVE_S1.);
#1285 = HYPERBOLA('',#1286,8.99800394532,8.99800394532);
#1286 = AXIS2_PLACEMENT_3D('',#1287,#1288,#1289);
#1287 = CARTESIAN_POINT('',(4.49900197266,-7.7925,131.25));
#1288 = DIRECTION('',(-0.5,0.866025403784,0.));
#1289 = DIRECTION('',(-0.,0.,-1.));
#1290 = PCURVE('',#535,#1291);
#1291 = DEFINITIONAL_REPRESENTATION('',(#1292),#1296);
#1292 = ( BOUNDED_CURVE() B_SPLINE_CURVE(2,(#1293,#1294,#1295),
.UNSPECIFIED.,.F.,.F.) B_SPLINE_CURVE_WITH_KNOTS((3,3),(
2.106299366765E-02,0.570048598052),.PIECEWISE_BEZIER_KNOTS.) CURVE() 
GEOMETRIC_REPRESENTATION_ITEM() RATIONAL_B_SPLINE_CURVE((1.,
1.037910288481,1.)) REPRESENTATION_ITEM('') );
#1293 = CARTESIAN_POINT('',(5.00546108579,-6.));
#1294 = CARTESIAN_POINT('',(2.595257279373,-5.949241398612));
#1295 = CARTESIAN_POINT('',(-0.216647161447,-4.5));
#1296 = ( GEOMETRIC_REPRESENTATION_CONTEXT(2) 
PARAMETRIC_REPRESENTATION_CONTEXT() REPRESENTATION_CONTEXT('2D SPACE',''
  ) );
#1297 = PCURVE('',#971,#1298);
#1298 = DEFINITIONAL_REPRESENTATION('',(#1299),#1307);
#1299 = B_SPLINE_CURVE_WITH_KNOTS('',6,(#1300,#1301,#1302,#1303,#1304,
    #1305,#1306),.UNSPECIFIED.,.F.,.F.,(7,7),(2.106299366765E-02,
    0.570048598052),.PIECEWISE_BEZIER_KNOTS.);
#1300 = CARTESIAN_POINT('',(-5.214926319574,-1.5));
#1301 = CARTESIAN_POINT('',(-5.123449011534,-1.482657644105));
#1302 = CARTESIAN_POINT('',(-5.032183575203,-1.374899687332));
#1303 = CARTESIAN_POINT('',(-4.942504467092,-1.176465093861));
#1304 = CARTESIAN_POINT('',(-4.855774440368,-0.884820695567));
#1305 = CARTESIAN_POINT('',(-4.772928393821,-0.495152731274));
#1306 = CARTESIAN_POINT('',(-4.694519272643,0.));
#1307 = ( GEOMETRIC_REPRESENTATION_CONTEXT(2) 
PARAMETRIC_REPRESENTATION_CONTEXT() REPRESENTATION_CONTEXT('2D SPACE',''
  ) );
#1308 = ORIENTED_EDGE('',*,*,#983,.T.);
#1309 = ORIENTED_EDGE('',*,*,#1310,.F.);
#1310 = EDGE_CURVE('',#1145,#984,#1311,.T.);
#1311 = SURFACE_CURVE('',#1312,(#1317,#1324),.PCURVE_S1.);
#1312 = HYPERBOLA('',#1313,8.99800394532,8.99800394532);
#1313 = AXIS2_PLACEMENT_3D('',#1314,#1315,#1316);
#1314 = CARTESIAN_POINT('',(4.49900197266,-7.7925,131.25));
#1315 = DIRECTION('',(-0.5,0.866025403784,0.));
#1316 = DIRECTION('',(-0.,0.,-1.));
#1317 = PCURVE('',#535,#1318);
#1318 = DEFINITIONAL_REPRESENTATION('',(#1319),#1323);
#1319 = ( BOUNDED_CURVE() B_SPLINE_CURVE(2,(#1320,#1321,#1322),
.UNSPECIFIED.,.F.,.F.) B_SPLINE_CURVE_WITH_KNOTS((3,3),(-0.570048598052,
-2.106299366765E-02),.PIECEWISE_BEZIER_KNOTS.) CURVE() 
GEOMETRIC_REPRESENTATION_ITEM() RATIONAL_B_SPLINE_CURVE((1.,
1.037910288481,1.)) REPRESENTATION_ITEM('') );
#1320 = CARTESIAN_POINT('',(10.606647161447,-4.5));
#1321 = CARTESIAN_POINT('',(7.794742720627,-5.949241398612));
#1322 = CARTESIAN_POINT('',(5.38453891421,-6.));
#1323 = ( GEOMETRIC_REPRESENTATION_CONTEXT(2) 
PARAMETRIC_REPRESENTATION_CONTEXT() REPRESENTATION_CONTEXT('2D SPACE',''
  ) );
#1324 = PCURVE('',#1023,#1325);
#1325 = DEFINITIONAL_REPRESENTATION('',(#1326),#1334);
#1326 = B_SPLINE_CURVE_WITH_KNOTS('',6,(#1327,#1328,#1329,#1330,#1331,
    #1332,#1333),.UNSPECIFIED.,.F.,.F.,(7,7),(-0.570048598052,
    -2.106299366765E-02),.PIECEWISE_BEZIER_KNOTS.);
#1327 = CARTESIAN_POINT('',(-5.777456239323,0.));
#1328 = CARTESIAN_POINT('',(-5.699047118145,-0.495152731274));
#1329 = CARTESIAN_POINT('',(-5.616201071598,-0.884820695567));
#1330 = CARTESIAN_POINT('',(-5.529471044873,-1.176465093861));
#1331 = CARTESIAN_POINT('',(-5.439791936763,-1.374899687332));
#1332 = CARTESIAN_POINT('',(-5.348526500432,-1.482657644105));
#1333 = CARTESIAN_POINT('',(-5.257049192392,-1.5));
#1334 = ( GEOMETRIC_REPRESENTATION_CONTEXT(2) 
PARAMETRIC_REPRESENTATION_CONTEXT() REPRESENTATION_CONTEXT('2D SPACE',''
  ) );
#1335 = ORIENTED_EDGE('',*,*,#1144,.F.);
#1336 = ORIENTED_EDGE('',*,*,#1203,.F.);
#1337 = ORIENTED_EDGE('',*,*,#519,.F.);
#1338 = ADVANCED_FACE('',(#1339),#507,.T.);
#1339 = FACE_BOUND('',#1340,.T.);
#1340 = EDGE_LOOP('',(#1341,#1342,#1343));
#1341 = ORIENTED_EDGE('',*,*,#490,.T.);
#1342 = ORIENTED_EDGE('',*,*,#1232,.F.);
#1343 = ORIENTED_EDGE('',*,*,#1344,.F.);
#1344 = EDGE_CURVE('',#463,#1233,#1345,.T.);
#1345 = SURFACE_CURVE('',#1346,(#1351,#1362),.PCURVE_S1.);
#1346 = HYPERBOLA('',#1347,8.99800394532,8.99800394532);
#1347 = AXIS2_PLACEMENT_3D('',#1348,#1349,#1350);
#1348 = CARTESIAN_POINT('',(-4.49900197266,-7.7925,107.25));
#1349 = DIRECTION('',(0.5,0.866025403784,0.));
#1350 = DIRECTION('',(-0.,0.,1.));
#1351 = PCURVE('',#507,#1352);
#1352 = DEFINITIONAL_REPRESENTATION('',(#1353),#1361);
#1353 = B_SPLINE_CURVE_WITH_KNOTS('',6,(#1354,#1355,#1356,#1357,#1358,
    #1359,#1360),.UNSPECIFIED.,.F.,.F.,(7,7),(2.106299366764E-02,
    0.570048598052),.PIECEWISE_BEZIER_KNOTS.);
#1354 = CARTESIAN_POINT('',(4.209851641195,0.));
#1355 = CARTESIAN_POINT('',(4.301328949235,1.734235589533E-02));
#1356 = CARTESIAN_POINT('',(4.392594385566,0.125100312668));
#1357 = CARTESIAN_POINT('',(4.482273493677,0.323534906139));
#1358 = CARTESIAN_POINT('',(4.569003520401,0.615179304433));
#1359 = CARTESIAN_POINT('',(4.651849566949,1.004847268726));
#1360 = CARTESIAN_POINT('',(4.730258688126,1.5));
#1361 = ( GEOMETRIC_REPRESENTATION_CONTEXT(2) 
PARAMETRIC_REPRESENTATION_CONTEXT() REPRESENTATION_CONTEXT('2D SPACE',''
  ) );
#1362 = PCURVE('',#478,#1363);
#1363 = DEFINITIONAL_REPRESENTATION('',(#1364),#1368);
#1364 = ( BOUNDED_CURVE() B_SPLINE_CURVE(2,(#1365,#1366,#1367),
.UNSPECIFIED.,.F.,.F.) B_SPLINE_CURVE_WITH_KNOTS((3,3),(
2.106299366764E-02,0.570048598052),.PIECEWISE_BEZIER_KNOTS.) CURVE() 
GEOMETRIC_REPRESENTATION_ITEM() RATIONAL_B_SPLINE_CURVE((1.,
1.037910288481,1.)) REPRESENTATION_ITEM('') );
#1365 = CARTESIAN_POINT('',(5.38453891421,-3.552713678801E-15));
#1366 = CARTESIAN_POINT('',(7.794742720627,-5.075860138816E-02));
#1367 = CARTESIAN_POINT('',(10.606647161447,-1.5));
#1368 = ( GEOMETRIC_REPRESENTATION_CONTEXT(2) 
PARAMETRIC_REPRESENTATION_CONTEXT() REPRESENTATION_CONTEXT('2D SPACE',''
  ) );
#1369 = ADVANCED_FACE('',(#1370),#478,.F.);
#1370 = FACE_BOUND('',#1371,.F.);
#1371 = EDGE_LOOP('',(#1372,#1400,#1423,#1449,#1450,#1476,#1477,#1478));
#1372 = ORIENTED_EDGE('',*,*,#1373,.F.);
#1373 = EDGE_CURVE('',#1374,#434,#1376,.T.);
#1374 = VERTEX_POINT('',#1375);
#1375 = CARTESIAN_POINT('',(-8.99800394532,-5.195,117.64));
#1376 = SURFACE_CURVE('',#1377,(#1382,#1389),.PCURVE_S1.);
#1377 = HYPERBOLA('',#1378,8.99800394532,8.99800394532);
#1378 = AXIS2_PLACEMENT_3D('',#1379,#1380,#1381);
#1379 = CARTESIAN_POINT('',(-4.49900197266,-7.7925,107.25));
#1380 = DIRECTION('',(0.5,0.866025403784,0.));
#1381 = DIRECTION('',(-0.,0.,1.));
#1382 = PCURVE('',#478,#1383);
#1383 = DEFINITIONAL_REPRESENTATION('',(#1384),#1388);
#1384 = ( BOUNDED_CURVE() B_SPLINE_CURVE(2,(#1385,#1386,#1387),
.UNSPECIFIED.,.F.,.F.) B_SPLINE_CURVE_WITH_KNOTS((3,3),(-0.570048598052,
-2.106299366764E-02),.PIECEWISE_BEZIER_KNOTS.) CURVE() 
GEOMETRIC_REPRESENTATION_ITEM() RATIONAL_B_SPLINE_CURVE((1.,
1.037910288481,1.)) REPRESENTATION_ITEM('') );
#1385 = CARTESIAN_POINT('',(-0.216647161447,-1.5));
#1386 = CARTESIAN_POINT('',(2.595257279373,-5.075860138816E-02));
#1387 = CARTESIAN_POINT('',(5.00546108579,-3.552713678801E-15));
#1388 = ( GEOMETRIC_REPRESENTATION_CONTEXT(2) 
PARAMETRIC_REPRESENTATION_CONTEXT() REPRESENTATION_CONTEXT('2D SPACE',''
  ) );
#1389 = PCURVE('',#450,#1390);
#1390 = DEFINITIONAL_REPRESENTATION('',(#1391),#1399);
#1391 = B_SPLINE_CURVE_WITH_KNOTS('',6,(#1392,#1393,#1394,#1395,#1396,
    #1397,#1398),.UNSPECIFIED.,.F.,.F.,(7,7),(-0.570048598052,
    -2.106299366764E-02),.PIECEWISE_BEZIER_KNOTS.);
#1392 = CARTESIAN_POINT('',(3.647321721447,1.5));
#1393 = CARTESIAN_POINT('',(3.725730842624,1.004847268726));
#1394 = CARTESIAN_POINT('',(3.808576889172,0.615179304433));
#1395 = CARTESIAN_POINT('',(3.895306915896,0.323534906139));
#1396 = CARTESIAN_POINT('',(3.984986024006,0.125100312668));
#1397 = CARTESIAN_POINT('',(4.076251460338,1.734235589533E-02));
#1398 = CARTESIAN_POINT('',(4.167728768378,0.));
#1399 = ( GEOMETRIC_REPRESENTATION_CONTEXT(2) 
PARAMETRIC_REPRESENTATION_CONTEXT() REPRESENTATION_CONTEXT('2D SPACE',''
  ) );
#1400 = ORIENTED_EDGE('',*,*,#1401,.T.);
#1401 = EDGE_CURVE('',#1374,#1402,#1404,.T.);
#1402 = VERTEX_POINT('',#1403);
#1403 = CARTESIAN_POINT('',(-8.99800394532,-5.195,120.86));
#1404 = SURFACE_CURVE('',#1405,(#1409,#1416),.PCURVE_S1.);
#1405 = LINE('',#1406,#1407);
#1406 = CARTESIAN_POINT('',(-8.99800394532,-5.195,116.25));
#1407 = VECTOR('',#1408,1.);
#1408 = DIRECTION('',(0.,0.,1.));
#1409 = PCURVE('',#478,#1410);
#1410 = DEFINITIONAL_REPRESENTATION('',(#1411),#1415);
#1411 = LINE('',#1412,#1413);
#1412 = CARTESIAN_POINT('',(0.,0.));
#1413 = VECTOR('',#1414,1.);
#1414 = DIRECTION('',(0.,-1.));
#1415 = ( GEOMETRIC_REPRESENTATION_CONTEXT(2) 
PARAMETRIC_REPRESENTATION_CONTEXT() REPRESENTATION_CONTEXT('2D SPACE',''
  ) );
#1416 = PCURVE('',#421,#1417);
#1417 = DEFINITIONAL_REPRESENTATION('',(#1418),#1422);
#1418 = LINE('',#1419,#1420);
#1419 = CARTESIAN_POINT('',(10.39,-0.));
#1420 = VECTOR('',#1421,1.);
#1421 = DIRECTION('',(0.,-1.));
#1422 = ( GEOMETRIC_REPRESENTATION_CONTEXT(2) 
PARAMETRIC_REPRESENTATION_CONTEXT() REPRESENTATION_CONTEXT('2D SPACE',''
  ) );
#1423 = ORIENTED_EDGE('',*,*,#1424,.F.);
#1424 = EDGE_CURVE('',#903,#1402,#1425,.T.);
#1425 = SURFACE_CURVE('',#1426,(#1431,#1438),.PCURVE_S1.);
#1426 = HYPERBOLA('',#1427,8.99800394532,8.99800394532);
#1427 = AXIS2_PLACEMENT_3D('',#1428,#1429,#1430);
#1428 = CARTESIAN_POINT('',(-4.49900197266,-7.7925,131.25));
#1429 = DIRECTION('',(0.5,0.866025403784,0.));
#1430 = DIRECTION('',(0.,0.,-1.));
#1431 = PCURVE('',#478,#1432);
#1432 = DEFINITIONAL_REPRESENTATION('',(#1433),#1437);
#1433 = ( BOUNDED_CURVE() B_SPLINE_CURVE(2,(#1434,#1435,#1436),
.UNSPECIFIED.,.F.,.F.) B_SPLINE_CURVE_WITH_KNOTS((3,3),(
2.106299366764E-02,0.570048598052),.PIECEWISE_BEZIER_KNOTS.) CURVE() 
GEOMETRIC_REPRESENTATION_ITEM() RATIONAL_B_SPLINE_CURVE((1.,
1.037910288481,1.)) REPRESENTATION_ITEM('') );
#1434 = CARTESIAN_POINT('',(5.00546108579,-6.));
#1435 = CARTESIAN_POINT('',(2.595257279373,-5.949241398612));
#1436 = CARTESIAN_POINT('',(-0.216647161447,-4.5));
#1437 = ( GEOMETRIC_REPRESENTATION_CONTEXT(2) 
PARAMETRIC_REPRESENTATION_CONTEXT() REPRESENTATION_CONTEXT('2D SPACE',''
  ) );
#1438 = PCURVE('',#919,#1439);
#1439 = DEFINITIONAL_REPRESENTATION('',(#1440),#1448);
#1440 = B_SPLINE_CURVE_WITH_KNOTS('',6,(#1441,#1442,#1443,#1444,#1445,
    #1446,#1447),.UNSPECIFIED.,.F.,.F.,(7,7),(2.106299366764E-02,
    0.570048598052),.PIECEWISE_BEZIER_KNOTS.);
#1441 = CARTESIAN_POINT('',(-4.167728768378,-1.5));
#1442 = CARTESIAN_POINT('',(-4.076251460338,-1.482657644105));
#1443 = CARTESIAN_POINT('',(-3.984986024006,-1.374899687332));
#1444 = CARTESIAN_POINT('',(-3.895306915896,-1.176465093861));
#1445 = CARTESIAN_POINT('',(-3.808576889172,-0.884820695567));
#1446 = CARTESIAN_POINT('',(-3.725730842624,-0.495152731274));
#1447 = CARTESIAN_POINT('',(-3.647321721447,1.7763568394E-15));
#1448 = ( GEOMETRIC_REPRESENTATION_CONTEXT(2) 
PARAMETRIC_REPRESENTATION_CONTEXT() REPRESENTATION_CONTEXT('2D SPACE',''
  ) );
#1449 = ORIENTED_EDGE('',*,*,#931,.T.);
#1450 = ORIENTED_EDGE('',*,*,#1451,.F.);
#1451 = EDGE_CURVE('',#1261,#932,#1452,.T.);
#1452 = SURFACE_CURVE('',#1453,(#1458,#1465),.PCURVE_S1.);
#1453 = HYPERBOLA('',#1454,8.99800394532,8.99800394532);
#1454 = AXIS2_PLACEMENT_3D('',#1455,#1456,#1457);
#1455 = CARTESIAN_POINT('',(-4.49900197266,-7.7925,131.25));
#1456 = DIRECTION('',(0.5,0.866025403784,0.));
#1457 = DIRECTION('',(0.,0.,-1.));
#1458 = PCURVE('',#478,#1459);
#1459 = DEFINITIONAL_REPRESENTATION('',(#1460),#1464);
#1460 = ( BOUNDED_CURVE() B_SPLINE_CURVE(2,(#1461,#1462,#1463),
.UNSPECIFIED.,.F.,.F.) B_SPLINE_CURVE_WITH_KNOTS((3,3),(-0.570048598052,
-2.106299366764E-02),.PIECEWISE_BEZIER_KNOTS.) CURVE() 
GEOMETRIC_REPRESENTATION_ITEM() RATIONAL_B_SPLINE_CURVE((1.,
1.037910288481,1.)) REPRESENTATION_ITEM('') );
#1461 = CARTESIAN_POINT('',(10.606647161447,-4.5));
#1462 = CARTESIAN_POINT('',(7.794742720627,-5.949241398612));
#1463 = CARTESIAN_POINT('',(5.38453891421,-6.));
#1464 = ( GEOMETRIC_REPRESENTATION_CONTEXT(2) 
PARAMETRIC_REPRESENTATION_CONTEXT() REPRESENTATION_CONTEXT('2D SPACE',''
  ) );
#1465 = PCURVE('',#971,#1466);
#1466 = DEFINITIONAL_REPRESENTATION('',(#1467),#1475);
#1467 = B_SPLINE_CURVE_WITH_KNOTS('',6,(#1468,#1469,#1470,#1471,#1472,
    #1473,#1474),.UNSPECIFIED.,.F.,.F.,(7,7),(-0.570048598052,
    -2.106299366764E-02),.PIECEWISE_BEZIER_KNOTS.);
#1468 = CARTESIAN_POINT('',(-4.730258688126,-1.7763568394E-15));
#1469 = CARTESIAN_POINT('',(-4.651849566949,-0.495152731274));
#1470 = CARTESIAN_POINT('',(-4.569003520401,-0.884820695567));
#1471 = CARTESIAN_POINT('',(-4.482273493677,-1.176465093861));
#1472 = CARTESIAN_POINT('',(-4.392594385567,-1.374899687332));
#1473 = CARTESIAN_POINT('',(-4.301328949235,-1.482657644105));
#1474 = CARTESIAN_POINT('',(-4.209851641195,-1.5));
#1475 = ( GEOMETRIC_REPRESENTATION_CONTEXT(2) 
PARAMETRIC_REPRESENTATION_CONTEXT() REPRESENTATION_CONTEXT('2D SPACE',''
  ) );
#1476 = ORIENTED_EDGE('',*,*,#1260,.F.);
#1477 = ORIENTED_EDGE('',*,*,#1344,.F.);
#1478 = ORIENTED_EDGE('',*,*,#462,.F.);
#1479 = ADVANCED_FACE('',(#1480),#450,.T.);
#1480 = FACE_BOUND('',#1481,.T.);
#1481 = EDGE_LOOP('',(#1482,#1483,#1484));
#1482 = ORIENTED_EDGE('',*,*,#433,.T.);
#1483 = ORIENTED_EDGE('',*,*,#1373,.F.);
#1484 = ORIENTED_EDGE('',*,*,#1485,.F.);
#1485 = EDGE_CURVE('',#406,#1374,#1486,.T.);
#1486 = SURFACE_CURVE('',#1487,(#1492,#1503),.PCURVE_S1.);
#1487 = HYPERBOLA('',#1488,8.99800394532,8.99800394532);
#1488 = AXIS2_PLACEMENT_3D('',#1489,#1490,#1491);
#1489 = CARTESIAN_POINT('',(-8.99800394532,3.496426904517E-15,107.25));
#1490 = DIRECTION('',(1.,-3.885780586188E-16,0.));
#1491 = DIRECTION('',(0.,0.,1.));
#1492 = PCURVE('',#450,#1493);
#1493 = DEFINITIONAL_REPRESENTATION('',(#1494),#1502);
#1494 = B_SPLINE_CURVE_WITH_KNOTS('',6,(#1495,#1496,#1497,#1498,#1499,
    #1500,#1501),.UNSPECIFIED.,.F.,.F.,(7,7),(2.106299366765E-02,
    0.570048598052),.PIECEWISE_BEZIER_KNOTS.);
#1495 = CARTESIAN_POINT('',(3.162654089998,-8.881784197001E-16));
#1496 = CARTESIAN_POINT('',(3.254131398039,1.734235589534E-02));
#1497 = CARTESIAN_POINT('',(3.34539683437,0.125100312668));
#1498 = CARTESIAN_POINT('',(3.43507594248,0.323534906139));
#1499 = CARTESIAN_POINT('',(3.521805969204,0.615179304433));
#1500 = CARTESIAN_POINT('',(3.604652015752,1.004847268726));
#1501 = CARTESIAN_POINT('',(3.68306113693,1.5));
#1502 = ( GEOMETRIC_REPRESENTATION_CONTEXT(2) 
PARAMETRIC_REPRESENTATION_CONTEXT() REPRESENTATION_CONTEXT('2D SPACE',''
  ) );
#1503 = PCURVE('',#421,#1504);
#1504 = DEFINITIONAL_REPRESENTATION('',(#1505),#1509);
#1505 = ( BOUNDED_CURVE() B_SPLINE_CURVE(2,(#1506,#1507,#1508),
.UNSPECIFIED.,.F.,.F.) B_SPLINE_CURVE_WITH_KNOTS((3,3),(
2.106299366765E-02,0.570048598052),.PIECEWISE_BEZIER_KNOTS.) CURVE() 
GEOMETRIC_REPRESENTATION_ITEM() RATIONAL_B_SPLINE_CURVE((1.,
1.037910288481,1.)) REPRESENTATION_ITEM('') );
#1506 = CARTESIAN_POINT('',(5.38453891421,0.));
#1507 = CARTESIAN_POINT('',(7.794742720627,-5.075860138817E-02));
#1508 = CARTESIAN_POINT('',(10.606647161447,-1.5));
#1509 = ( GEOMETRIC_REPRESENTATION_CONTEXT(2) 
PARAMETRIC_REPRESENTATION_CONTEXT() REPRESENTATION_CONTEXT('2D SPACE',''
  ) );
#1510 = ADVANCED_FACE('',(#1511),#421,.F.);
#1511 = FACE_BOUND('',#1512,.F.);
#1512 = EDGE_LOOP('',(#1513,#1539,#1540,#1566,#1567,#1593,#1594,#1595));
#1513 = ORIENTED_EDGE('',*,*,#1514,.F.);
#1514 = EDGE_CURVE('',#749,#377,#1515,.T.);
#1515 = SURFACE_CURVE('',#1516,(#1521,#1528),.PCURVE_S1.);
#1516 = HYPERBOLA('',#1517,8.99800394532,8.99800394532);
#1517 = AXIS2_PLACEMENT_3D('',#1518,#1519,#1520);
#1518 = CARTESIAN_POINT('',(-8.99800394532,3.496426904517E-15,107.25));
#1519 = DIRECTION('',(1.,-3.885780586188E-16,0.));
#1520 = DIRECTION('',(0.,0.,1.));
#1521 = PCURVE('',#421,#1522);
#1522 = DEFINITIONAL_REPRESENTATION('',(#1523),#1527);
#1523 = ( BOUNDED_CURVE() B_SPLINE_CURVE(2,(#1524,#1525,#1526),
.UNSPECIFIED.,.F.,.F.) B_SPLINE_CURVE_WITH_KNOTS((3,3),(-0.570048598052,
-2.106299366765E-02),.PIECEWISE_BEZIER_KNOTS.) CURVE() 
GEOMETRIC_REPRESENTATION_ITEM() RATIONAL_B_SPLINE_CURVE((1.,
1.037910288481,1.)) REPRESENTATION_ITEM('') );
#1524 = CARTESIAN_POINT('',(-0.216647161447,-1.5));
#1525 = CARTESIAN_POINT('',(2.595257279373,-5.075860138817E-02));
#1526 = CARTESIAN_POINT('',(5.00546108579,0.));
#1527 = ( GEOMETRIC_REPRESENTATION_CONTEXT(2) 
PARAMETRIC_REPRESENTATION_CONTEXT() REPRESENTATION_CONTEXT('2D SPACE',''
  ) );
#1528 = PCURVE('',#393,#1529);
#1529 = DEFINITIONAL_REPRESENTATION('',(#1530),#1538);
#1530 = B_SPLINE_CURVE_WITH_KNOTS('',6,(#1531,#1532,#1533,#1534,#1535,
    #1536,#1537),.UNSPECIFIED.,.F.,.F.,(7,7),(-0.570048598052,
    -2.106299366765E-02),.PIECEWISE_BEZIER_KNOTS.);
#1531 = CARTESIAN_POINT('',(2.60012417025,1.5));
#1532 = CARTESIAN_POINT('',(2.678533291427,1.004847268726));
#1533 = CARTESIAN_POINT('',(2.761379337975,0.615179304433));
#1534 = CARTESIAN_POINT('',(2.848109364699,0.323534906139));
#1535 = CARTESIAN_POINT('',(2.93778847281,0.125100312668));
#1536 = CARTESIAN_POINT('',(3.029053909141,1.734235589534E-02));
#1537 = CARTESIAN_POINT('',(3.120531217181,-8.881784197001E-16));
#1538 = ( GEOMETRIC_REPRESENTATION_CONTEXT(2) 
PARAMETRIC_REPRESENTATION_CONTEXT() REPRESENTATION_CONTEXT('2D SPACE',''
  ) );
#1539 = ORIENTED_EDGE('',*,*,#748,.T.);
#1540 = ORIENTED_EDGE('',*,*,#1541,.F.);
#1541 = EDGE_CURVE('',#856,#716,#1542,.T.);
#1542 = SURFACE_CURVE('',#1543,(#1548,#1555),.PCURVE_S1.);
#1543 = HYPERBOLA('',#1544,8.99800394532,8.99800394532);
#1544 = AXIS2_PLACEMENT_3D('',#1545,#1546,#1547);
#1545 = CARTESIAN_POINT('',(-8.99800394532,3.496426904517E-15,131.25));
#1546 = DIRECTION('',(1.,-3.885780586188E-16,0.));
#1547 = DIRECTION('',(0.,-0.,-1.));
#1548 = PCURVE('',#421,#1549);
#1549 = DEFINITIONAL_REPRESENTATION('',(#1550),#1554);
#1550 = ( BOUNDED_CURVE() B_SPLINE_CURVE(2,(#1551,#1552,#1553),
.UNSPECIFIED.,.F.,.F.) B_SPLINE_CURVE_WITH_KNOTS((3,3),(
2.106299366765E-02,0.570048598052),.PIECEWISE_BEZIER_KNOTS.) CURVE() 
GEOMETRIC_REPRESENTATION_ITEM() RATIONAL_B_SPLINE_CURVE((1.,
1.037910288481,1.)) REPRESENTATION_ITEM('') );
#1551 = CARTESIAN_POINT('',(5.00546108579,-6.));
#1552 = CARTESIAN_POINT('',(2.595257279373,-5.949241398612));
#1553 = CARTESIAN_POINT('',(-0.216647161447,-4.5));
#1554 = ( GEOMETRIC_REPRESENTATION_CONTEXT(2) 
PARAMETRIC_REPRESENTATION_CONTEXT() REPRESENTATION_CONTEXT('2D SPACE',''
  ) );
#1555 = PCURVE('',#732,#1556);
#1556 = DEFINITIONAL_REPRESENTATION('',(#1557),#1565);
#1557 = B_SPLINE_CURVE_WITH_KNOTS('',6,(#1558,#1559,#1560,#1561,#1562,
    #1563,#1564),.UNSPECIFIED.,.F.,.F.,(7,7),(2.106299366765E-02,
    0.570048598052),.PIECEWISE_BEZIER_KNOTS.);
#1558 = CARTESIAN_POINT('',(-3.120531217181,-1.5));
#1559 = CARTESIAN_POINT('',(-3.029053909141,-1.482657644105));
#1560 = CARTESIAN_POINT('',(-2.93778847281,-1.374899687332));
#1561 = CARTESIAN_POINT('',(-2.848109364699,-1.176465093861));
#1562 = CARTESIAN_POINT('',(-2.761379337975,-0.884820695567));
#1563 = CARTESIAN_POINT('',(-2.678533291427,-0.495152731274));
#1564 = CARTESIAN_POINT('',(-2.60012417025,-8.881784197001E-16));
#1565 = ( GEOMETRIC_REPRESENTATION_CONTEXT(2) 
PARAMETRIC_REPRESENTATION_CONTEXT() REPRESENTATION_CONTEXT('2D SPACE',''
  ) );
#1566 = ORIENTED_EDGE('',*,*,#879,.T.);
#1567 = ORIENTED_EDGE('',*,*,#1568,.F.);
#1568 = EDGE_CURVE('',#1402,#880,#1569,.T.);
#1569 = SURFACE_CURVE('',#1570,(#1575,#1582),.PCURVE_S1.);
#1570 = HYPERBOLA('',#1571,8.99800394532,8.99800394532);
#1571 = AXIS2_PLACEMENT_3D('',#1572,#1573,#1574);
#1572 = CARTESIAN_POINT('',(-8.99800394532,3.496426904517E-15,131.25));
#1573 = DIRECTION('',(1.,-3.885780586188E-16,0.));
#1574 = DIRECTION('',(0.,-0.,-1.));
#1575 = PCURVE('',#421,#1576);
#1576 = DEFINITIONAL_REPRESENTATION('',(#1577),#1581);
#1577 = ( BOUNDED_CURVE() B_SPLINE_CURVE(2,(#1578,#1579,#1580),
.UNSPECIFIED.,.F.,.F.) B_SPLINE_CURVE_WITH_KNOTS((3,3),(-0.570048598052,
-2.106299366765E-02),.PIECEWISE_BEZIER_KNOTS.) CURVE() 
GEOMETRIC_REPRESENTATION_ITEM() RATIONAL_B_SPLINE_CURVE((1.,
1.037910288481,1.)) REPRESENTATION_ITEM('') );
#1578 = CARTESIAN_POINT('',(10.606647161447,-4.5));
#1579 = CARTESIAN_POINT('',(7.794742720627,-5.949241398612));
#1580 = CARTESIAN_POINT('',(5.38453891421,-6.));
#1581 = ( GEOMETRIC_REPRESENTATION_CONTEXT(2) 
PARAMETRIC_REPRESENTATION_CONTEXT() REPRESENTATION_CONTEXT('2D SPACE',''
  ) );
#1582 = PCURVE('',#919,#1583);
#1583 = DEFINITIONAL_REPRESENTATION('',(#1584),#1592);
#1584 = B_SPLINE_CURVE_WITH_KNOTS('',6,(#1585,#1586,#1587,#1588,#1589,
    #1590,#1591),.UNSPECIFIED.,.F.,.F.,(7,7),(-0.570048598052,
    -2.106299366765E-02),.PIECEWISE_BEZIER_KNOTS.);
#1585 = CARTESIAN_POINT('',(-3.68306113693,-1.7763568394E-15));
#1586 = CARTESIAN_POINT('',(-3.604652015752,-0.495152731274));
#1587 = CARTESIAN_POINT('',(-3.521805969204,-0.884820695567));
#1588 = CARTESIAN_POINT('',(-3.43507594248,-1.176465093861));
#1589 = CARTESIAN_POINT('',(-3.34539683437,-1.374899687332));
#1590 = CARTESIAN_POINT('',(-3.254131398039,-1.482657644105));
#1591 = CARTESIAN_POINT('',(-3.162654089998,-1.5));
#1592 = ( GEOMETRIC_REPRESENTATION_CONTEXT(2) 
PARAMETRIC_REPRESENTATION_CONTEXT() REPRESENTATION_CONTEXT('2D SPACE',''
  ) );
#1593 = ORIENTED_EDGE('',*,*,#1401,.F.);
#1594 = ORIENTED_EDGE('',*,*,#1485,.F.);
#1595 = ORIENTED_EDGE('',*,*,#405,.F.);
#1596 = ADVANCED_FACE('',(#1597),#393,.T.);
#1597 = FACE_BOUND('',#1598,.T.);
#1598 = EDGE_LOOP('',(#1599,#1600,#1601));
#1599 = ORIENTED_EDGE('',*,*,#771,.F.);
#1600 = ORIENTED_EDGE('',*,*,#376,.T.);
#1601 = ORIENTED_EDGE('',*,*,#1514,.F.);
#1602 = ADVANCED_FACE('',(#1603),#616,.F.);
#1603 = FACE_BOUND('',#1604,.F.);
#1604 = EDGE_LOOP('',(#1605,#1606,#1627,#1628));
#1605 = ORIENTED_EDGE('',*,*,#1058,.F.);
#1606 = ORIENTED_EDGE('',*,*,#1607,.F.);
#1607 = EDGE_CURVE('',#600,#1059,#1608,.T.);
#1608 = SEAM_CURVE('',#1609,(#1613,#1620),.PCURVE_S1.);
#1609 = LINE('',#1610,#1611);
#1610 = CARTESIAN_POINT('',(6.,-1.469576158977E-15,115.25));
#1611 = VECTOR('',#1612,1.);
#1612 = DIRECTION('',(0.,0.,1.));
#1613 = PCURVE('',#616,#1614);
#1614 = DEFINITIONAL_REPRESENTATION('',(#1615),#1619);
#1615 = LINE('',#1616,#1617);
#1616 = CARTESIAN_POINT('',(6.28318530718,-0.));
#1617 = VECTOR('',#1618,1.);
#1618 = DIRECTION('',(0.,1.));
#1619 = ( GEOMETRIC_REPRESENTATION_CONTEXT(2) 
PARAMETRIC_REPRESENTATION_CONTEXT() REPRESENTATION_CONTEXT('2D SPACE',''
  ) );
#1620 = PCURVE('',#616,#1621);
#1621 = DEFINITIONAL_REPRESENTATION('',(#1622),#1626);
#1622 = LINE('',#1623,#1624);
#1623 = CARTESIAN_POINT('',(0.,-0.));
#1624 = VECTOR('',#1625,1.);
#1625 = DIRECTION('',(0.,1.));
#1626 = ( GEOMETRIC_REPRESENTATION_CONTEXT(2) 
PARAMETRIC_REPRESENTATION_CONTEXT() REPRESENTATION_CONTEXT('2D SPACE',''
  ) );
#1627 = ORIENTED_EDGE('',*,*,#599,.T.);
#1628 = ORIENTED_EDGE('',*,*,#1607,.T.);
#1629 = ADVANCED_FACE('',(#1630),#732,.T.);
#1630 = FACE_BOUND('',#1631,.T.);
#1631 = EDGE_LOOP('',(#1632,#1633,#1634));
#1632 = ORIENTED_EDGE('',*,*,#855,.F.);
#1633 = ORIENTED_EDGE('',*,*,#715,.F.);
#1634 = ORIENTED_EDGE('',*,*,#1541,.F.);
#1635 = ADVANCED_FACE('',(#1636),#1023,.T.);
#1636 = FACE_BOUND('',#1637,.T.);
#1637 = EDGE_LOOP('',(#1638,#1639,#1640));
#1638 = ORIENTED_EDGE('',*,*,#1167,.F.);
#1639 = ORIENTED_EDGE('',*,*,#1006,.F.);
#1640 = ORIENTED_EDGE('',*,*,#1310,.F.);
#1641 = ADVANCED_FACE('',(#1642),#971,.T.);
#1642 = FACE_BOUND('',#1643,.T.);
#1643 = EDGE_LOOP('',(#1644,#1645,#1646));
#1644 = ORIENTED_EDGE('',*,*,#1283,.F.);
#1645 = ORIENTED_EDGE('',*,*,#954,.F.);
#1646 = ORIENTED_EDGE('',*,*,#1451,.F.);
#1647 = ADVANCED_FACE('',(#1648),#919,.T.);
#1648 = FACE_BOUND('',#1649,.T.);
#1649 = EDGE_LOOP('',(#1650,#1651,#1652));
#1650 = ORIENTED_EDGE('',*,*,#1424,.F.);
#1651 = ORIENTED_EDGE('',*,*,#902,.F.);
#1652 = ORIENTED_EDGE('',*,*,#1568,.F.);
#1653 = ( GEOMETRIC_REPRESENTATION_CONTEXT(3) 
GLOBAL_UNCERTAINTY_ASSIGNED_CONTEXT((#1657)) 
GLOBAL_UNIT_ASSIGNED_CONTEXT((#1654,#1655,#1656)) REPRESENTATION_CONTEXT
('Context #1','3D Context with UNIT and UNCERTAINTY') );
#1654 = ( LENGTH_UNIT() NAMED_UNIT(*) SI_UNIT(.MILLI.,.METRE.) );
#1655 = ( NAMED_UNIT(*) PLANE_ANGLE_UNIT() SI_UNIT($,.RADIAN.) );
#1656 = ( NAMED_UNIT(*) SI_UNIT($,.STERADIAN.) SOLID_ANGLE_UNIT() );
#1657 = UNCERTAINTY_MEASURE_WITH_UNIT(LENGTH_MEASURE(2.E-07),#1654,
  'distance_accuracy_value','confusion accuracy');
#1658 = PRODUCT_RELATED_PRODUCT_CATEGORY('part',$,(#7));
ENDSEC;
END-ISO-10303-21;
