ISO-10303-21;
HEADER;
FILE_DESCRIPTION(('Open CASCADE Model'),'2;1');
FILE_NAME('Open CASCADE Shape Model','2026-09-23T01:58:48',('Author'),(
    'Open CASCADE'),'Open CASCADE STEP processor 7.9','Open CASCADE 7.9'
  ,'Unknown');
FILE_SCHEMA(('AUTOMOTIVE_DESIGN { 1 0 10303 214 1 1 1 1 }'));
ENDSEC;
DATA;
#1 = APPLICATION_PROTOCOL_DEFINITION('international standard',
  'automotive_design',2000,#2);
#2 = APPLICATION_CONTEXT(
  'core data for automotive mechanical design processes');
#3 = SHAPE_DEFINITION_REPRESENTATION(#4,#10);
#4 = PRODUCT_DEFINITION_SHAPE('','',#5);
#5 = PRODUCT_DEFINITION('design','',#6,#9);
#6 = PRODUCT_DEFINITION_FORMATION('','',#7);
#7 = PRODUCT('Open CASCADE STEP translator 7.9 57',
  'Open CASCADE STEP translator 7.9 57','',(#8));
#8 = PRODUCT_CONTEXT('',#2,'mechanical');
#9 = PRODUCT_DEFINITION_CONTEXT('part definition',#2,'design');
#10 = ADVANCED_BREP_SHAPE_REPRESENTATION('',(#11,#15),#1518);
#11 = AXIS2_PLACEMENT_3D('',#12,#13,#14);
#12 = CARTESIAN_POINT('',(0.,0.,0.));
#13 = DIRECTION('',(0.,0.,1.));
#14 = DIRECTION('',(1.,0.,-0.));
#15 = MANIFOLD_SOLID_BREP('',#16);
#16 = CLOSED_SHELL('',(#17,#168,#244,#324,#404,#431,#1404,#1414,#1442,
    #1491));
#17 = ADVANCED_FACE('',(#18,#137),#32,.F.);
#18 = FACE_BOUND('',#19,.F.);
#19 = EDGE_LOOP('',(#20,#55,#83,#111));
#20 = ORIENTED_EDGE('',*,*,#21,.F.);
#21 = EDGE_CURVE('',#22,#24,#26,.T.);
#22 = VERTEX_POINT('',#23);
#23 = CARTESIAN_POINT('',(-53.34,-10.2,279.71430036283));
#24 = VERTEX_POINT('',#25);
#25 = CARTESIAN_POINT('',(-53.34,-10.2,308.15554503865));
#26 = SURFACE_CURVE('',#27,(#31,#43),.PCURVE_S1.);
#27 = LINE('',#28,#29);
#28 = CARTESIAN_POINT('',(-53.34,-10.2,279.71430036283));
#29 = VECTOR('',#30,1.);
#30 = DIRECTION('',(0.,0.,1.));
#31 = PCURVE('',#32,#37);
#32 = PLANE('',#33);
#33 = AXIS2_PLACEMENT_3D('',#34,#35,#36);
#34 = CARTESIAN_POINT('',(-53.34,-10.2,279.71430036283));
#35 = DIRECTION('',(1.,0.,-0.));
#36 = DIRECTION('',(0.,0.,1.));
#37 = DEFINITIONAL_REPRESENTATION('',(#38),#42);
#38 = LINE('',#39,#40);
#39 = CARTESIAN_POINT('',(0.,0.));
#40 = VECTOR('',#41,1.);
#41 = DIRECTION('',(1.,0.));
#42 = ( GEOMETRIC_REPRESENTATION_CONTEXT(2) 
PARAMETRIC_REPRESENTATION_CONTEXT() REPRESENTATION_CONTEXT('2D SPACE',''
  ) );
#43 = PCURVE('',#44,#49);
#44 = PLANE('',#45);
#45 = AXIS2_PLACEMENT_3D('',#46,#47,#48);
#46 = CARTESIAN_POINT('',(-53.34,-10.2,279.71430036283));
#47 = DIRECTION('',(-0.,1.,0.));
#48 = DIRECTION('',(0.,0.,1.));
#49 = DEFINITIONAL_REPRESENTATION('',(#50),#54);
#50 = LINE('',#51,#52);
#51 = CARTESIAN_POINT('',(0.,0.));
#52 = VECTOR('',#53,1.);
#53 = DIRECTION('',(1.,0.));
#54 = ( GEOMETRIC_REPRESENTATION_CONTEXT(2) 
PARAMETRIC_REPRESENTATION_CONTEXT() REPRESENTATION_CONTEXT('2D SPACE',''
  ) );
#55 = ORIENTED_EDGE('',*,*,#56,.T.);
#56 = EDGE_CURVE('',#22,#57,#59,.T.);
#57 = VERTEX_POINT('',#58);
#58 = CARTESIAN_POINT('',(-53.34,10.2,279.71430036283));
#59 = SURFACE_CURVE('',#60,(#64,#71),.PCURVE_S1.);
#60 = LINE('',#61,#62);
#61 = CARTESIAN_POINT('',(-53.34,-10.2,279.71430036283));
#62 = VECTOR('',#63,1.);
#63 = DIRECTION('',(-0.,1.,0.));
#64 = PCURVE('',#32,#65);
#65 = DEFINITIONAL_REPRESENTATION('',(#66),#70);
#66 = LINE('',#67,#68);
#67 = CARTESIAN_POINT('',(0.,0.));
#68 = VECTOR('',#69,1.);
#69 = DIRECTION('',(0.,-1.));
#70 = ( GEOMETRIC_REPRESENTATION_CONTEXT(2) 
PARAMETRIC_REPRESENTATION_CONTEXT() REPRESENTATION_CONTEXT('2D SPACE',''
  ) );
#71 = PCURVE('',#72,#77);
#72 = PLANE('',#73);
#73 = AXIS2_PLACEMENT_3D('',#74,#75,#76);
#74 = CARTESIAN_POINT('',(-53.34,-10.2,279.71430036283));
#75 = DIRECTION('',(0.,0.,1.));
#76 = DIRECTION('',(1.,0.,-0.));
#77 = DEFINITIONAL_REPRESENTATION('',(#78),#82);
#78 = LINE('',#79,#80);
#79 = CARTESIAN_POINT('',(0.,0.));
#80 = VECTOR('',#81,1.);
#81 = DIRECTION('',(0.,1.));
#82 = ( GEOMETRIC_REPRESENTATION_CONTEXT(2) 
PARAMETRIC_REPRESENTATION_CONTEXT() REPRESENTATION_CONTEXT('2D SPACE',''
  ) );
#83 = ORIENTED_EDGE('',*,*,#84,.T.);
#84 = EDGE_CURVE('',#57,#85,#87,.T.);
#85 = VERTEX_POINT('',#86);
#86 = CARTESIAN_POINT('',(-53.34,10.2,308.15554503865));
#87 = SURFACE_CURVE('',#88,(#92,#99),.PCURVE_S1.);
#88 = LINE('',#89,#90);
#89 = CARTESIAN_POINT('',(-53.34,10.2,279.71430036283));
#90 = VECTOR('',#91,1.);
#91 = DIRECTION('',(0.,0.,1.));
#92 = PCURVE('',#32,#93);
#93 = DEFINITIONAL_REPRESENTATION('',(#94),#98);
#94 = LINE('',#95,#96);
#95 = CARTESIAN_POINT('',(0.,-20.4));
#96 = VECTOR('',#97,1.);
#97 = DIRECTION('',(1.,0.));
#98 = ( GEOMETRIC_REPRESENTATION_CONTEXT(2) 
PARAMETRIC_REPRESENTATION_CONTEXT() REPRESENTATION_CONTEXT('2D SPACE',''
  ) );
#99 = PCURVE('',#100,#105);
#100 = PLANE('',#101);
#101 = AXIS2_PLACEMENT_3D('',#102,#103,#104);
#102 = CARTESIAN_POINT('',(-53.34,10.2,279.71430036283));
#103 = DIRECTION('',(-0.,1.,0.));
#104 = DIRECTION('',(0.,0.,1.));
#105 = DEFINITIONAL_REPRESENTATION('',(#106),#110);
#106 = LINE('',#107,#108);
#107 = CARTESIAN_POINT('',(0.,0.));
#108 = VECTOR('',#109,1.);
#109 = DIRECTION('',(1.,0.));
#110 = ( GEOMETRIC_REPRESENTATION_CONTEXT(2) 
PARAMETRIC_REPRESENTATION_CONTEXT() REPRESENTATION_CONTEXT('2D SPACE',''
  ) );
#111 = ORIENTED_EDGE('',*,*,#112,.F.);
#112 = EDGE_CURVE('',#24,#85,#113,.T.);
#113 = SURFACE_CURVE('',#114,(#118,#125),.PCURVE_S1.);
#114 = LINE('',#115,#116);
#115 = CARTESIAN_POINT('',(-53.34,-10.2,308.15554503865));
#116 = VECTOR('',#117,1.);
#117 = DIRECTION('',(-0.,1.,0.));
#118 = PCURVE('',#32,#119);
#119 = DEFINITIONAL_REPRESENTATION('',(#120),#124);
#120 = LINE('',#121,#122);
#121 = CARTESIAN_POINT('',(28.441244675816,0.));
#122 = VECTOR('',#123,1.);
#123 = DIRECTION('',(0.,-1.));
#124 = ( GEOMETRIC_REPRESENTATION_CONTEXT(2) 
PARAMETRIC_REPRESENTATION_CONTEXT() REPRESENTATION_CONTEXT('2D SPACE',''
  ) );
#125 = PCURVE('',#126,#131);
#126 = PLANE('',#127);
#127 = AXIS2_PLACEMENT_3D('',#128,#129,#130);
#128 = CARTESIAN_POINT('',(-53.34,-10.2,308.15554503865));
#129 = DIRECTION('',(0.,0.,1.));
#130 = DIRECTION('',(1.,0.,-0.));
#131 = DEFINITIONAL_REPRESENTATION('',(#132),#136);
#132 = LINE('',#133,#134);
#133 = CARTESIAN_POINT('',(0.,0.));
#134 = VECTOR('',#135,1.);
#135 = DIRECTION('',(0.,1.));
#136 = ( GEOMETRIC_REPRESENTATION_CONTEXT(2) 
PARAMETRIC_REPRESENTATION_CONTEXT() REPRESENTATION_CONTEXT('2D SPACE',''
  ) );
#137 = FACE_BOUND('',#138,.F.);
#138 = EDGE_LOOP('',(#139));
#139 = ORIENTED_EDGE('',*,*,#140,.F.);
#140 = EDGE_CURVE('',#141,#141,#143,.T.);
#141 = VERTEX_POINT('',#142);
#142 = CARTESIAN_POINT('',(-53.34,1.461003631383E-15,303.23460088342));
#143 = SURFACE_CURVE('',#144,(#149,#156),.PCURVE_S1.);
#144 = CIRCLE('',#145,5.965);
#145 = AXIS2_PLACEMENT_3D('',#146,#147,#148);
#146 = CARTESIAN_POINT('',(-53.34,0.,297.26960088342));
#147 = DIRECTION('',(1.,0.,0.));
#148 = DIRECTION('',(-0.,0.,1.));
#149 = PCURVE('',#32,#150);
#150 = DEFINITIONAL_REPRESENTATION('',(#151),#155);
#151 = CIRCLE('',#152,5.965);
#152 = AXIS2_PLACEMENT_2D('',#153,#154);
#153 = CARTESIAN_POINT('',(17.555300520587,-10.2));
#154 = DIRECTION('',(1.,0.));
#155 = ( GEOMETRIC_REPRESENTATION_CONTEXT(2) 
PARAMETRIC_REPRESENTATION_CONTEXT() REPRESENTATION_CONTEXT('2D SPACE',''
  ) );
#156 = PCURVE('',#157,#162);
#157 = CYLINDRICAL_SURFACE('',#158,5.965);
#158 = AXIS2_PLACEMENT_3D('',#159,#160,#161);
#159 = CARTESIAN_POINT('',(-60.,0.,297.26960088342));
#160 = DIRECTION('',(1.,0.,0.));
#161 = DIRECTION('',(-0.,0.,1.));
#162 = DEFINITIONAL_REPRESENTATION('',(#163),#167);
#163 = LINE('',#164,#165);
#164 = CARTESIAN_POINT('',(0.,6.66));
#165 = VECTOR('',#166,1.);
#166 = DIRECTION('',(1.,0.));
#167 = ( GEOMETRIC_REPRESENTATION_CONTEXT(2) 
PARAMETRIC_REPRESENTATION_CONTEXT() REPRESENTATION_CONTEXT('2D SPACE',''
  ) );
#168 = ADVANCED_FACE('',(#169),#44,.F.);
#169 = FACE_BOUND('',#170,.F.);
#170 = EDGE_LOOP('',(#171,#194,#195,#218));
#171 = ORIENTED_EDGE('',*,*,#172,.F.);
#172 = EDGE_CURVE('',#22,#173,#175,.T.);
#173 = VERTEX_POINT('',#174);
#174 = CARTESIAN_POINT('',(-37.05,-10.2,279.71430036283));
#175 = SURFACE_CURVE('',#176,(#180,#187),.PCURVE_S1.);
#176 = LINE('',#177,#178);
#177 = CARTESIAN_POINT('',(-53.34,-10.2,279.71430036283));
#178 = VECTOR('',#179,1.);
#179 = DIRECTION('',(1.,0.,-0.));
#180 = PCURVE('',#44,#181);
#181 = DEFINITIONAL_REPRESENTATION('',(#182),#186);
#182 = LINE('',#183,#184);
#183 = CARTESIAN_POINT('',(0.,0.));
#184 = VECTOR('',#185,1.);
#185 = DIRECTION('',(0.,1.));
#186 = ( GEOMETRIC_REPRESENTATION_CONTEXT(2) 
PARAMETRIC_REPRESENTATION_CONTEXT() REPRESENTATION_CONTEXT('2D SPACE',''
  ) );
#187 = PCURVE('',#72,#188);
#188 = DEFINITIONAL_REPRESENTATION('',(#189),#193);
#189 = LINE('',#190,#191);
#190 = CARTESIAN_POINT('',(0.,0.));
#191 = VECTOR('',#192,1.);
#192 = DIRECTION('',(1.,0.));
#193 = ( GEOMETRIC_REPRESENTATION_CONTEXT(2) 
PARAMETRIC_REPRESENTATION_CONTEXT() REPRESENTATION_CONTEXT('2D SPACE',''
  ) );
#194 = ORIENTED_EDGE('',*,*,#21,.T.);
#195 = ORIENTED_EDGE('',*,*,#196,.T.);
#196 = EDGE_CURVE('',#24,#197,#199,.T.);
#197 = VERTEX_POINT('',#198);
#198 = CARTESIAN_POINT('',(-37.05,-10.2,308.15554503865));
#199 = SURFACE_CURVE('',#200,(#204,#211),.PCURVE_S1.);
#200 = LINE('',#201,#202);
#201 = CARTESIAN_POINT('',(-53.34,-10.2,308.15554503865));
#202 = VECTOR('',#203,1.);
#203 = DIRECTION('',(1.,0.,-0.));
#204 = PCURVE('',#44,#205);
#205 = DEFINITIONAL_REPRESENTATION('',(#206),#210);
#206 = LINE('',#207,#208);
#207 = CARTESIAN_POINT('',(28.441244675816,0.));
#208 = VECTOR('',#209,1.);
#209 = DIRECTION('',(0.,1.));
#210 = ( GEOMETRIC_REPRESENTATION_CONTEXT(2) 
PARAMETRIC_REPRESENTATION_CONTEXT() REPRESENTATION_CONTEXT('2D SPACE',''
  ) );
#211 = PCURVE('',#126,#212);
#212 = DEFINITIONAL_REPRESENTATION('',(#213),#217);
#213 = LINE('',#214,#215);
#214 = CARTESIAN_POINT('',(0.,0.));
#215 = VECTOR('',#216,1.);
#216 = DIRECTION('',(1.,0.));
#217 = ( GEOMETRIC_REPRESENTATION_CONTEXT(2) 
PARAMETRIC_REPRESENTATION_CONTEXT() REPRESENTATION_CONTEXT('2D SPACE',''
  ) );
#218 = ORIENTED_EDGE('',*,*,#219,.F.);
#219 = EDGE_CURVE('',#173,#197,#220,.T.);
#220 = SURFACE_CURVE('',#221,(#225,#232),.PCURVE_S1.);
#221 = LINE('',#222,#223);
#222 = CARTESIAN_POINT('',(-37.05,-10.2,279.71430036283));
#223 = VECTOR('',#224,1.);
#224 = DIRECTION('',(0.,0.,1.));
#225 = PCURVE('',#44,#226);
#226 = DEFINITIONAL_REPRESENTATION('',(#227),#231);
#227 = LINE('',#228,#229);
#228 = CARTESIAN_POINT('',(0.,16.29));
#229 = VECTOR('',#230,1.);
#230 = DIRECTION('',(1.,0.));
#231 = ( GEOMETRIC_REPRESENTATION_CONTEXT(2) 
PARAMETRIC_REPRESENTATION_CONTEXT() REPRESENTATION_CONTEXT('2D SPACE',''
  ) );
#232 = PCURVE('',#233,#238);
#233 = PLANE('',#234);
#234 = AXIS2_PLACEMENT_3D('',#235,#236,#237);
#235 = CARTESIAN_POINT('',(-37.05,-10.2,279.71430036283));
#236 = DIRECTION('',(1.,0.,-0.));
#237 = DIRECTION('',(0.,0.,1.));
#238 = DEFINITIONAL_REPRESENTATION('',(#239),#243);
#239 = LINE('',#240,#241);
#240 = CARTESIAN_POINT('',(0.,0.));
#241 = VECTOR('',#242,1.);
#242 = DIRECTION('',(1.,0.));
#243 = ( GEOMETRIC_REPRESENTATION_CONTEXT(2) 
PARAMETRIC_REPRESENTATION_CONTEXT() REPRESENTATION_CONTEXT('2D SPACE',''
  ) );
#244 = ADVANCED_FACE('',(#245,#293),#126,.T.);
#245 = FACE_BOUND('',#246,.T.);
#246 = EDGE_LOOP('',(#247,#248,#249,#272));
#247 = ORIENTED_EDGE('',*,*,#112,.F.);
#248 = ORIENTED_EDGE('',*,*,#196,.T.);
#249 = ORIENTED_EDGE('',*,*,#250,.T.);
#250 = EDGE_CURVE('',#197,#251,#253,.T.);
#251 = VERTEX_POINT('',#252);
#252 = CARTESIAN_POINT('',(-37.05,10.2,308.15554503865));
#253 = SURFACE_CURVE('',#254,(#258,#265),.PCURVE_S1.);
#254 = LINE('',#255,#256);
#255 = CARTESIAN_POINT('',(-37.05,-10.2,308.15554503865));
#256 = VECTOR('',#257,1.);
#257 = DIRECTION('',(-0.,1.,0.));
#258 = PCURVE('',#126,#259);
#259 = DEFINITIONAL_REPRESENTATION('',(#260),#264);
#260 = LINE('',#261,#262);
#261 = CARTESIAN_POINT('',(16.29,0.));
#262 = VECTOR('',#263,1.);
#263 = DIRECTION('',(0.,1.));
#264 = ( GEOMETRIC_REPRESENTATION_CONTEXT(2) 
PARAMETRIC_REPRESENTATION_CONTEXT() REPRESENTATION_CONTEXT('2D SPACE',''
  ) );
#265 = PCURVE('',#233,#266);
#266 = DEFINITIONAL_REPRESENTATION('',(#267),#271);
#267 = LINE('',#268,#269);
#268 = CARTESIAN_POINT('',(28.441244675816,0.));
#269 = VECTOR('',#270,1.);
#270 = DIRECTION('',(0.,-1.));
#271 = ( GEOMETRIC_REPRESENTATION_CONTEXT(2) 
PARAMETRIC_REPRESENTATION_CONTEXT() REPRESENTATION_CONTEXT('2D SPACE',''
  ) );
#272 = ORIENTED_EDGE('',*,*,#273,.F.);
#273 = EDGE_CURVE('',#85,#251,#274,.T.);
#274 = SURFACE_CURVE('',#275,(#279,#286),.PCURVE_S1.);
#275 = LINE('',#276,#277);
#276 = CARTESIAN_POINT('',(-53.34,10.2,308.15554503865));
#277 = VECTOR('',#278,1.);
#278 = DIRECTION('',(1.,0.,-0.));
#279 = PCURVE('',#126,#280);
#280 = DEFINITIONAL_REPRESENTATION('',(#281),#285);
#281 = LINE('',#282,#283);
#282 = CARTESIAN_POINT('',(0.,20.4));
#283 = VECTOR('',#284,1.);
#284 = DIRECTION('',(1.,0.));
#285 = ( GEOMETRIC_REPRESENTATION_CONTEXT(2) 
PARAMETRIC_REPRESENTATION_CONTEXT() REPRESENTATION_CONTEXT('2D SPACE',''
  ) );
#286 = PCURVE('',#100,#287);
#287 = DEFINITIONAL_REPRESENTATION('',(#288),#292);
#288 = LINE('',#289,#290);
#289 = CARTESIAN_POINT('',(28.441244675816,0.));
#290 = VECTOR('',#291,1.);
#291 = DIRECTION('',(0.,1.));
#292 = ( GEOMETRIC_REPRESENTATION_CONTEXT(2) 
PARAMETRIC_REPRESENTATION_CONTEXT() REPRESENTATION_CONTEXT('2D SPACE',''
  ) );
#293 = FACE_BOUND('',#294,.T.);
#294 = EDGE_LOOP('',(#295));
#295 = ORIENTED_EDGE('',*,*,#296,.F.);
#296 = EDGE_CURVE('',#297,#297,#299,.T.);
#297 = VERTEX_POINT('',#298);
#298 = CARTESIAN_POINT('',(-43.,-7.347880794884E-16,308.15554503865));
#299 = SURFACE_CURVE('',#300,(#305,#312),.PCURVE_S1.);
#300 = CIRCLE('',#301,3.);
#301 = AXIS2_PLACEMENT_3D('',#302,#303,#304);
#302 = CARTESIAN_POINT('',(-46.,0.,308.15554503865));
#303 = DIRECTION('',(0.,0.,1.));
#304 = DIRECTION('',(1.,0.,-0.));
#305 = PCURVE('',#126,#306);
#306 = DEFINITIONAL_REPRESENTATION('',(#307),#311);
#307 = CIRCLE('',#308,3.);
#308 = AXIS2_PLACEMENT_2D('',#309,#310);
#309 = CARTESIAN_POINT('',(7.34,10.2));
#310 = DIRECTION('',(1.,0.));
#311 = ( GEOMETRIC_REPRESENTATION_CONTEXT(2) 
PARAMETRIC_REPRESENTATION_CONTEXT() REPRESENTATION_CONTEXT('2D SPACE',''
  ) );
#312 = PCURVE('',#313,#318);
#313 = CYLINDRICAL_SURFACE('',#314,3.);
#314 = AXIS2_PLACEMENT_3D('',#315,#316,#317);
#315 = CARTESIAN_POINT('',(-46.,0.,297.26960088342));
#316 = DIRECTION('',(0.,0.,1.));
#317 = DIRECTION('',(1.,0.,-0.));
#318 = DEFINITIONAL_REPRESENTATION('',(#319),#323);
#319 = LINE('',#320,#321);
#320 = CARTESIAN_POINT('',(0.,10.88594415523));
#321 = VECTOR('',#322,1.);
#322 = DIRECTION('',(1.,0.));
#323 = ( GEOMETRIC_REPRESENTATION_CONTEXT(2) 
PARAMETRIC_REPRESENTATION_CONTEXT() REPRESENTATION_CONTEXT('2D SPACE',''
  ) );
#324 = ADVANCED_FACE('',(#325,#373),#72,.F.);
#325 = FACE_BOUND('',#326,.F.);
#326 = EDGE_LOOP('',(#327,#328,#329,#352));
#327 = ORIENTED_EDGE('',*,*,#56,.F.);
#328 = ORIENTED_EDGE('',*,*,#172,.T.);
#329 = ORIENTED_EDGE('',*,*,#330,.T.);
#330 = EDGE_CURVE('',#173,#331,#333,.T.);
#331 = VERTEX_POINT('',#332);
#332 = CARTESIAN_POINT('',(-37.05,10.2,279.71430036283));
#333 = SURFACE_CURVE('',#334,(#338,#345),.PCURVE_S1.);
#334 = LINE('',#335,#336);
#335 = CARTESIAN_POINT('',(-37.05,-10.2,279.71430036283));
#336 = VECTOR('',#337,1.);
#337 = DIRECTION('',(-0.,1.,0.));
#338 = PCURVE('',#72,#339);
#339 = DEFINITIONAL_REPRESENTATION('',(#340),#344);
#340 = LINE('',#341,#342);
#341 = CARTESIAN_POINT('',(16.29,0.));
#342 = VECTOR('',#343,1.);
#343 = DIRECTION('',(0.,1.));
#344 = ( GEOMETRIC_REPRESENTATION_CONTEXT(2) 
PARAMETRIC_REPRESENTATION_CONTEXT() REPRESENTATION_CONTEXT('2D SPACE',''
  ) );
#345 = PCURVE('',#233,#346);
#346 = DEFINITIONAL_REPRESENTATION('',(#347),#351);
#347 = LINE('',#348,#349);
#348 = CARTESIAN_POINT('',(0.,0.));
#349 = VECTOR('',#350,1.);
#350 = DIRECTION('',(0.,-1.));
#351 = ( GEOMETRIC_REPRESENTATION_CONTEXT(2) 
PARAMETRIC_REPRESENTATION_CONTEXT() REPRESENTATION_CONTEXT('2D SPACE',''
  ) );
#352 = ORIENTED_EDGE('',*,*,#353,.F.);
#353 = EDGE_CURVE('',#57,#331,#354,.T.);
#354 = SURFACE_CURVE('',#355,(#359,#366),.PCURVE_S1.);
#355 = LINE('',#356,#357);
#356 = CARTESIAN_POINT('',(-53.34,10.2,279.71430036283));
#357 = VECTOR('',#358,1.);
#358 = DIRECTION('',(1.,0.,-0.));
#359 = PCURVE('',#72,#360);
#360 = DEFINITIONAL_REPRESENTATION('',(#361),#365);
#361 = LINE('',#362,#363);
#362 = CARTESIAN_POINT('',(0.,20.4));
#363 = VECTOR('',#364,1.);
#364 = DIRECTION('',(1.,0.));
#365 = ( GEOMETRIC_REPRESENTATION_CONTEXT(2) 
PARAMETRIC_REPRESENTATION_CONTEXT() REPRESENTATION_CONTEXT('2D SPACE',''
  ) );
#366 = PCURVE('',#100,#367);
#367 = DEFINITIONAL_REPRESENTATION('',(#368),#372);
#368 = LINE('',#369,#370);
#369 = CARTESIAN_POINT('',(0.,0.));
#370 = VECTOR('',#371,1.);
#371 = DIRECTION('',(0.,1.));
#372 = ( GEOMETRIC_REPRESENTATION_CONTEXT(2) 
PARAMETRIC_REPRESENTATION_CONTEXT() REPRESENTATION_CONTEXT('2D SPACE',''
  ) );
#373 = FACE_BOUND('',#374,.F.);
#374 = EDGE_LOOP('',(#375));
#375 = ORIENTED_EDGE('',*,*,#376,.F.);
#376 = EDGE_CURVE('',#377,#377,#379,.T.);
#377 = VERTEX_POINT('',#378);
#378 = CARTESIAN_POINT('',(-43.,-7.347880794884E-16,279.71430036283));
#379 = SURFACE_CURVE('',#380,(#385,#392),.PCURVE_S1.);
#380 = CIRCLE('',#381,3.);
#381 = AXIS2_PLACEMENT_3D('',#382,#383,#384);
#382 = CARTESIAN_POINT('',(-46.,0.,279.71430036283));
#383 = DIRECTION('',(0.,0.,1.));
#384 = DIRECTION('',(1.,0.,-0.));
#385 = PCURVE('',#72,#386);
#386 = DEFINITIONAL_REPRESENTATION('',(#387),#391);
#387 = CIRCLE('',#388,3.);
#388 = AXIS2_PLACEMENT_2D('',#389,#390);
#389 = CARTESIAN_POINT('',(7.34,10.2));
#390 = DIRECTION('',(1.,0.));
#391 = ( GEOMETRIC_REPRESENTATION_CONTEXT(2) 
PARAMETRIC_REPRESENTATION_CONTEXT() REPRESENTATION_CONTEXT('2D SPACE',''
  ) );
#392 = PCURVE('',#393,#398);
#393 = CYLINDRICAL_SURFACE('',#394,3.);
#394 = AXIS2_PLACEMENT_3D('',#395,#396,#397);
#395 = CARTESIAN_POINT('',(-46.,0.,278.71430036283));
#396 = DIRECTION('',(0.,0.,1.));
#397 = DIRECTION('',(1.,0.,-0.));
#398 = DEFINITIONAL_REPRESENTATION('',(#399),#403);
#399 = LINE('',#400,#401);
#400 = CARTESIAN_POINT('',(0.,1.));
#401 = VECTOR('',#402,1.);
#402 = DIRECTION('',(1.,0.));
#403 = ( GEOMETRIC_REPRESENTATION_CONTEXT(2) 
PARAMETRIC_REPRESENTATION_CONTEXT() REPRESENTATION_CONTEXT('2D SPACE',''
  ) );
#404 = ADVANCED_FACE('',(#405),#100,.T.);
#405 = FACE_BOUND('',#406,.T.);
#406 = EDGE_LOOP('',(#407,#408,#409,#410));
#407 = ORIENTED_EDGE('',*,*,#353,.F.);
#408 = ORIENTED_EDGE('',*,*,#84,.T.);
#409 = ORIENTED_EDGE('',*,*,#273,.T.);
#410 = ORIENTED_EDGE('',*,*,#411,.F.);
#411 = EDGE_CURVE('',#331,#251,#412,.T.);
#412 = SURFACE_CURVE('',#413,(#417,#424),.PCURVE_S1.);
#413 = LINE('',#414,#415);
#414 = CARTESIAN_POINT('',(-37.05,10.2,279.71430036283));
#415 = VECTOR('',#416,1.);
#416 = DIRECTION('',(0.,0.,1.));
#417 = PCURVE('',#100,#418);
#418 = DEFINITIONAL_REPRESENTATION('',(#419),#423);
#419 = LINE('',#420,#421);
#420 = CARTESIAN_POINT('',(0.,16.29));
#421 = VECTOR('',#422,1.);
#422 = DIRECTION('',(1.,0.));
#423 = ( GEOMETRIC_REPRESENTATION_CONTEXT(2) 
PARAMETRIC_REPRESENTATION_CONTEXT() REPRESENTATION_CONTEXT('2D SPACE',''
  ) );
#424 = PCURVE('',#233,#425);
#425 = DEFINITIONAL_REPRESENTATION('',(#426),#430);
#426 = LINE('',#427,#428);
#427 = CARTESIAN_POINT('',(0.,-20.4));
#428 = VECTOR('',#429,1.);
#429 = DIRECTION('',(1.,0.));
#430 = ( GEOMETRIC_REPRESENTATION_CONTEXT(2) 
PARAMETRIC_REPRESENTATION_CONTEXT() REPRESENTATION_CONTEXT('2D SPACE',''
  ) );
#431 = ADVANCED_FACE('',(#432,#873),#157,.F.);
#432 = FACE_BOUND('',#433,.F.);
#433 = EDGE_LOOP('',(#434,#621,#644,#666,#667,#850,#871,#872));
#434 = ORIENTED_EDGE('',*,*,#435,.F.);
#435 = EDGE_CURVE('',#436,#438,#440,.T.);
#436 = VERTEX_POINT('',#437);
#437 = CARTESIAN_POINT('',(-43.,3.631077759472E-16,303.23460088342));
#438 = VERTEX_POINT('',#439);
#439 = CARTESIAN_POINT('',(-49.,1.461003631383E-15,303.23460088342));
#440 = SURFACE_CURVE('',#441,(#499,#560),.PCURVE_S1.);
#441 = B_SPLINE_CURVE_WITH_KNOTS('',6,(#442,#443,#444,#445,#446,#447,
    #448,#449,#450,#451,#452,#453,#454,#455,#456,#457,#458,#459,#460,
    #461,#462,#463,#464,#465,#466,#467,#468,#469,#470,#471,#472,#473,
    #474,#475,#476,#477,#478,#479,#480,#481,#482,#483,#484,#485,#486,
    #487,#488,#489,#490,#491,#492,#493,#494,#495,#496,#497,#498),
  .UNSPECIFIED.,.F.,.F.,(7,5,5,5,5,5,5,5,5,5,5,7),(0.,0.119213919767,
    0.17264768027,0.24305219222,0.332762600964,0.412176912318,
    0.499810519537,0.587975744698,0.667094866716,0.825565710437,
    0.924284984615,1.),.UNSPECIFIED.);
#442 = CARTESIAN_POINT('',(-43.,3.631077759472E-16,303.23460088342));
#443 = CARTESIAN_POINT('',(-43.,0.229174040304,303.23460088342));
#444 = CARTESIAN_POINT('',(-43.0210084475,0.456449158025,303.22403495853
    ));
#445 = CARTESIAN_POINT('',(-43.06237158602,0.678210503982,
    303.20323238864));
#446 = CARTESIAN_POINT('',(-43.12234294065,0.890962551821,
    303.17348433605));
#447 = CARTESIAN_POINT('',(-43.19809171152,1.091545763882,
    303.13696234281));
#448 = CARTESIAN_POINT('',(-43.32470520936,1.360613142985,
    303.07797629526));
#449 = CARTESIAN_POINT('',(-43.36641250795,1.441288243817,
    303.05879350927));
#450 = CARTESIAN_POINT('',(-43.41044036381,1.519351798108,303.038840537)
  );
#451 = CARTESIAN_POINT('',(-43.45660239656,1.594801386094,
    303.01826749211));
#452 = CARTESIAN_POINT('',(-43.50472571557,1.667643097426,
    302.99721679367));
#453 = CARTESIAN_POINT('',(-43.62043137718,1.83045007341,302.94763217628
    ));
#454 = CARTESIAN_POINT('',(-43.68935332926,1.918525633722,302.9188390783
    ));
#455 = CARTESIAN_POINT('',(-43.76109681014,2.002206070032,
    302.88972954742));
#456 = CARTESIAN_POINT('',(-43.83538993292,2.081581533732,
    302.86056321973));
#457 = CARTESIAN_POINT('',(-43.91200818689,2.15674309548,302.83157433942
    ));
#458 = CARTESIAN_POINT('',(-44.09113903862,2.318300353238,
    302.76653004491));
#459 = CARTESIAN_POINT('',(-44.19500635158,2.40213904037,302.73071109799
    ));
#460 = CARTESIAN_POINT('',(-44.30197676321,2.479445761528,
    302.69596670954));
#461 = CARTESIAN_POINT('',(-44.41171773675,2.550342700884,
    302.66270273902));
#462 = CARTESIAN_POINT('',(-44.52396218978,2.614925658638,
    302.63128414629));
#463 = CARTESIAN_POINT('',(-44.73990559239,2.72490562543,302.57614886818
    ));
#464 = CARTESIAN_POINT('',(-44.84310187744,2.771651074617,
    302.55196338939));
#465 = CARTESIAN_POINT('',(-44.9478800011,2.813508240767,302.52972817105
    ));
#466 = CARTESIAN_POINT('',(-45.05404111459,2.850483173308,
    302.50966187131));
#467 = CARTESIAN_POINT('',(-45.16140296442,2.882576059508,
    302.49195200648));
#468 = CARTESIAN_POINT('',(-45.38941477535,2.939794983888,
    302.45997782913));
#469 = CARTESIAN_POINT('',(-45.51028205716,2.963854119661,
    302.44626080275));
#470 = CARTESIAN_POINT('',(-45.63208088999,2.981919830137,
    302.43582004656));
#471 = CARTESIAN_POINT('',(-45.75450020676,2.993971791146,
    302.42880668445));
#472 = CARTESIAN_POINT('',(-45.8772378198,3.,302.42529918723));
#473 = CARTESIAN_POINT('',(-46.12350690108,3.,302.42529918723));
#474 = CARTESIAN_POINT('',(-46.24698849037,2.993898431007,
    302.42884936434));
#475 = CARTESIAN_POINT('',(-46.37014597025,2.981699912082,
    302.43594802514));
#476 = CARTESIAN_POINT('',(-46.49267183378,2.963414647093,
    302.44651478343));
#477 = CARTESIAN_POINT('',(-46.61424942656,2.939063368487,
    302.46039489426));
#478 = CARTESIAN_POINT('',(-46.84251201539,2.881418414159,
    302.49259122631));
#479 = CARTESIAN_POINT('',(-46.94943932919,2.849300149073,
    302.51030546423));
#480 = CARTESIAN_POINT('',(-47.05517028965,2.812336275501,
    302.53035435246));
#481 = CARTESIAN_POINT('',(-47.15952479927,2.770526431785,
    302.55255199611));
#482 = CARTESIAN_POINT('',(-47.26230635042,2.723864409782,
    302.57668189666));
#483 = CARTESIAN_POINT('',(-47.56558886855,2.569144089047,
    302.65421299109));
#484 = CARTESIAN_POINT('',(-47.76050137552,2.446551412405,
    302.71264699029));
#485 = CARTESIAN_POINT('',(-47.94708535148,2.304194379074,
    302.77600254072));
#486 = CARTESIAN_POINT('',(-48.12383715114,2.141229017381,
    302.84221927715));
#487 = CARTESIAN_POINT('',(-48.28837486972,1.956618801272,
    302.90873309113));
#488 = CARTESIAN_POINT('',(-48.52970151232,1.620444690768,
    303.01186536967));
#489 = CARTESIAN_POINT('',(-48.61642553333,1.482329690287,
    303.05040291676));
#490 = CARTESIAN_POINT('',(-48.69603595444,1.335212259462,
    303.08697809766));
#491 = CARTESIAN_POINT('',(-48.76728184907,1.17928042339,303.1205939054)
  );
#492 = CARTESIAN_POINT('',(-48.82884066477,1.014858206529,
    303.15021517401));
#493 = CARTESIAN_POINT('',(-48.91798358895,0.710181987871,
    303.19367988211));
#494 = CARTESIAN_POINT('',(-48.9501406356,0.573228837311,303.20959107036
    ));
#495 = CARTESIAN_POINT('',(-48.97488031357,0.432608070439,
    303.22196734279));
#496 = CARTESIAN_POINT('',(-48.99160859459,0.289428447525,
    303.23038056272));
#497 = CARTESIAN_POINT('',(-49.,0.144839476245,303.23460088342));
#498 = CARTESIAN_POINT('',(-49.,1.281592875308E-15,303.23460088342));
#499 = PCURVE('',#157,#500);
#500 = DEFINITIONAL_REPRESENTATION('',(#501),#559);
#501 = B_SPLINE_CURVE_WITH_KNOTS('',6,(#502,#503,#504,#505,#506,#507,
    #508,#509,#510,#511,#512,#513,#514,#515,#516,#517,#518,#519,#520,
    #521,#522,#523,#524,#525,#526,#527,#528,#529,#530,#531,#532,#533,
    #534,#535,#536,#537,#538,#539,#540,#541,#542,#543,#544,#545,#546,
    #547,#548,#549,#550,#551,#552,#553,#554,#555,#556,#557,#558),
  .UNSPECIFIED.,.F.,.F.,(7,5,5,5,5,5,5,5,5,5,5,7),(0.,0.119213919767,
    0.17264768027,0.24305219222,0.332762600964,0.412176912318,
    0.499810519537,0.587975744698,0.667094866716,0.825565710437,
    0.924284984615,1.),.UNSPECIFIED.);
#502 = CARTESIAN_POINT('',(6.28318530718,17.));
#503 = CARTESIAN_POINT('',(6.244765518361,17.));
#504 = CARTESIAN_POINT('',(6.206664008745,16.978991552499));
#505 = CARTESIAN_POINT('',(6.169385159898,16.937628413976));
#506 = CARTESIAN_POINT('',(6.133419764971,16.877657059345));
#507 = CARTESIAN_POINT('',(6.099261936793,16.801908288478));
#508 = CARTESIAN_POINT('',(6.053083044963,16.675294790633));
#509 = CARTESIAN_POINT('',(6.039183383998,16.633587492047));
#510 = CARTESIAN_POINT('',(6.025678474096,16.589559636182));
#511 = CARTESIAN_POINT('',(6.012570290703,16.543397603436));
#512 = CARTESIAN_POINT('',(5.999860364624,16.495274284426));
#513 = CARTESIAN_POINT('',(5.971328877276,16.379568622813));
#514 = CARTESIAN_POINT('',(5.955797706787,16.31064667074));
#515 = CARTESIAN_POINT('',(5.940948271075,16.238903189853));
#516 = CARTESIAN_POINT('',(5.926774329496,16.164610067075));
#517 = CARTESIAN_POINT('',(5.913270643945,16.087991813101));
#518 = CARTESIAN_POINT('',(5.884073756756,15.908860961378));
#519 = CARTESIAN_POINT('',(5.86879300363,15.804993648411));
#520 = CARTESIAN_POINT('',(5.854587506796,15.698023236783));
#521 = CARTESIAN_POINT('',(5.841460868805,15.588282263248));
#522 = CARTESIAN_POINT('',(5.829421532819,15.476037810213));
#523 = CARTESIAN_POINT('',(5.808796824124,15.260094407603));
#524 = CARTESIAN_POINT('',(5.799974153166,15.156898122557));
#525 = CARTESIAN_POINT('',(5.792028974232,15.052119998891));
#526 = CARTESIAN_POINT('',(5.784976603375,14.94595888541));
#527 = CARTESIAN_POINT('',(5.778831673074,14.838597035573));
#528 = CARTESIAN_POINT('',(5.767843144373,14.610585224642));
#529 = CARTESIAN_POINT('',(5.763200430204,14.489717942836));
#530 = CARTESIAN_POINT('',(5.759702453139,14.367919110006));
#531 = CARTESIAN_POINT('',(5.757364771423,14.245499793239));
#532 = CARTESIAN_POINT('',(5.756195567925,14.122762180195));
#533 = CARTESIAN_POINT('',(5.756195567925,13.876493098919));
#534 = CARTESIAN_POINT('',(5.757378999355,13.753011509625));
#535 = CARTESIAN_POINT('',(5.759745110334,13.629854029743));
#536 = CARTESIAN_POINT('',(5.76328552313,13.507328166213));
#537 = CARTESIAN_POINT('',(5.767984319781,13.385750573434));
#538 = CARTESIAN_POINT('',(5.779053363744,13.157487984601));
#539 = CARTESIAN_POINT('',(5.785202372889,13.050560670804));
#540 = CARTESIAN_POINT('',(5.792251721385,12.94482971035));
#541 = CARTESIAN_POINT('',(5.800186941512,12.840475200729));
#542 = CARTESIAN_POINT('',(5.808992914551,12.73769364958));
#543 = CARTESIAN_POINT('',(5.838005335155,12.434411131445));
#544 = CARTESIAN_POINT('',(5.860768197366,12.239498624479));
#545 = CARTESIAN_POINT('',(5.886875924247,12.052914648519));
#546 = CARTESIAN_POINT('',(5.916336676463,11.876162848853));
#547 = CARTESIAN_POINT('',(5.949194963918,11.711625130273));
#548 = CARTESIAN_POINT('',(6.008145177385,11.470298487675));
#549 = CARTESIAN_POINT('',(6.032176051513,11.383574466664));
#550 = CARTESIAN_POINT('',(6.057573939061,11.303964045553));
#551 = CARTESIAN_POINT('',(6.084293925797,11.232718150926));
#552 = CARTESIAN_POINT('',(6.112283403876,11.171159335226));
#553 = CARTESIAN_POINT('',(6.163877856882,11.082016411047));
#554 = CARTESIAN_POINT('',(6.186983911251,11.049859364397));
#555 = CARTESIAN_POINT('',(6.210635154067,11.025119686421));
#556 = CARTESIAN_POINT('',(6.234664187597,11.008391405401));
#557 = CARTESIAN_POINT('',(6.258903752067,11.));
#558 = CARTESIAN_POINT('',(6.28318530718,11.));
#559 = ( GEOMETRIC_REPRESENTATION_CONTEXT(2) 
PARAMETRIC_REPRESENTATION_CONTEXT() REPRESENTATION_CONTEXT('2D SPACE',''
  ) );
#560 = PCURVE('',#313,#561);
#561 = DEFINITIONAL_REPRESENTATION('',(#562),#620);
#562 = B_SPLINE_CURVE_WITH_KNOTS('',6,(#563,#564,#565,#566,#567,#568,
    #569,#570,#571,#572,#573,#574,#575,#576,#577,#578,#579,#580,#581,
    #582,#583,#584,#585,#586,#587,#588,#589,#590,#591,#592,#593,#594,
    #595,#596,#597,#598,#599,#600,#601,#602,#603,#604,#605,#606,#607,
    #608,#609,#610,#611,#612,#613,#614,#615,#616,#617,#618,#619),
  .UNSPECIFIED.,.F.,.F.,(7,5,5,5,5,5,5,5,5,5,5,7),(0.,0.119213919767,
    0.17264768027,0.24305219222,0.332762600964,0.412176912318,
    0.499810519537,0.587975744698,0.667094866716,0.825565710437,
    0.924284984615,1.),.UNSPECIFIED.);
#563 = CARTESIAN_POINT('',(0.,5.965));
#564 = CARTESIAN_POINT('',(7.639134676807E-02,5.965));
#565 = CARTESIAN_POINT('',(0.152149647636,5.954434075119));
#566 = CARTESIAN_POINT('',(0.226872914875,5.933631505221));
#567 = CARTESIAN_POINT('',(0.300129777828,5.903883452629));
#568 = CARTESIAN_POINT('',(0.371378174858,5.867361459391));
#569 = CARTESIAN_POINT('',(0.470501124513,5.808375411845));
#570 = CARTESIAN_POINT('',(0.500752837787,5.789192625859));
#571 = CARTESIAN_POINT('',(0.530598175139,5.769239653585));
#572 = CARTESIAN_POINT('',(0.560054779688,5.748666608693));
#573 = CARTESIAN_POINT('',(0.589138831623,5.727615910258));
#574 = CARTESIAN_POINT('',(0.655717032559,5.678031292862));
#575 = CARTESIAN_POINT('',(0.692956431185,5.649238194881));
#576 = CARTESIAN_POINT('',(0.729644002892,5.620128664));
#577 = CARTESIAN_POINT('',(0.765833855219,5.590962336313));
#578 = CARTESIAN_POINT('',(0.801578863458,5.561973456004));
#579 = CARTESIAN_POINT('',(0.881986581145,5.496929161499));
#580 = CARTESIAN_POINT('',(0.926413792188,5.461110214573));
#581 = CARTESIAN_POINT('',(0.970315292252,5.42636582612));
#582 = CARTESIAN_POINT('',(1.013778373548,5.393101855609));
#583 = CARTESIAN_POINT('',(1.05688812397,5.361683262874));
#584 = CARTESIAN_POINT('',(1.137667072154,5.306547984766));
#585 = CARTESIAN_POINT('',(1.175390894353,5.282362505971));
#586 = CARTESIAN_POINT('',(1.212943330026,5.260127287639));
#587 = CARTESIAN_POINT('',(1.250359079414,5.240060987897));
#588 = CARTESIAN_POINT('',(1.287673902621,5.222351123066));
#589 = CARTESIAN_POINT('',(1.366034459048,5.190376945712));
#590 = CARTESIAN_POINT('',(1.407063880534,5.176659919332));
#591 = CARTESIAN_POINT('',(1.448033313234,5.166219163142));
#592 = CARTESIAN_POINT('',(1.488963046643,5.159205801038));
#593 = CARTESIAN_POINT('',(1.529875600063,5.155698303819));
#594 = CARTESIAN_POINT('',(1.611965293822,5.155698303819));
#595 = CARTESIAN_POINT('',(1.653125839971,5.159248480921));
#596 = CARTESIAN_POINT('',(1.694303884215,5.166347141722));
#597 = CARTESIAN_POINT('',(1.735522426931,5.176913900011));
#598 = CARTESIAN_POINT('',(1.776802175443,5.190794010848));
#599 = CARTESIAN_POINT('',(1.855278463596,5.222990342893));
#600 = CARTESIAN_POINT('',(1.892457370952,5.240704580814));
#601 = CARTESIAN_POINT('',(1.929737137802,5.260753469045));
#602 = CARTESIAN_POINT('',(1.967153234043,5.282951112691));
#603 = CARTESIAN_POINT('',(2.004740096551,5.307081013245));
#604 = CARTESIAN_POINT('',(2.118229529957,5.384612107671));
#605 = CARTESIAN_POINT('',(2.194674650214,5.443046106875));
#606 = CARTESIAN_POINT('',(2.272419806525,5.506401657301));
#607 = CARTESIAN_POINT('',(2.352010434127,5.572618393738));
#608 = CARTESIAN_POINT('',(2.433984483499,5.63913220771));
#609 = CARTESIAN_POINT('',(2.571926331553,5.742264486253));
#610 = CARTESIAN_POINT('',(2.62618361588,5.780802033345));
#611 = CARTESIAN_POINT('',(2.681764100586,5.81737721424));
#612 = CARTESIAN_POINT('',(2.738704409011,5.850993021983));
#613 = CARTESIAN_POINT('',(2.797069025585,5.880614290592));
#614 = CARTESIAN_POINT('',(2.902885459483,5.924078998699));
#615 = CARTESIAN_POINT('',(2.949709667525,5.939990186949));
#616 = CARTESIAN_POINT('',(2.997187374925,5.952366459371));
#617 = CARTESIAN_POINT('',(3.045116509345,5.960779679307));
#618 = CARTESIAN_POINT('',(3.093312828175,5.965));
#619 = CARTESIAN_POINT('',(3.14159265359,5.965));
#620 = ( GEOMETRIC_REPRESENTATION_CONTEXT(2) 
PARAMETRIC_REPRESENTATION_CONTEXT() REPRESENTATION_CONTEXT('2D SPACE',''
  ) );
#621 = ORIENTED_EDGE('',*,*,#622,.T.);
#622 = EDGE_CURVE('',#436,#623,#625,.T.);
#623 = VERTEX_POINT('',#624);
#624 = CARTESIAN_POINT('',(-37.05,1.461003631383E-15,303.23460088342));
#625 = SEAM_CURVE('',#626,(#630,#637),.PCURVE_S1.);
#626 = LINE('',#627,#628);
#627 = CARTESIAN_POINT('',(-60.,1.461003631383E-15,303.23460088342));
#628 = VECTOR('',#629,1.);
#629 = DIRECTION('',(1.,0.,0.));
#630 = PCURVE('',#157,#631);
#631 = DEFINITIONAL_REPRESENTATION('',(#632),#636);
#632 = LINE('',#633,#634);
#633 = CARTESIAN_POINT('',(0.,-0.));
#634 = VECTOR('',#635,1.);
#635 = DIRECTION('',(0.,1.));
#636 = ( GEOMETRIC_REPRESENTATION_CONTEXT(2) 
PARAMETRIC_REPRESENTATION_CONTEXT() REPRESENTATION_CONTEXT('2D SPACE',''
  ) );
#637 = PCURVE('',#157,#638);
#638 = DEFINITIONAL_REPRESENTATION('',(#639),#643);
#639 = LINE('',#640,#641);
#640 = CARTESIAN_POINT('',(6.28318530718,-0.));
#641 = VECTOR('',#642,1.);
#642 = DIRECTION('',(0.,1.));
#643 = ( GEOMETRIC_REPRESENTATION_CONTEXT(2) 
PARAMETRIC_REPRESENTATION_CONTEXT() REPRESENTATION_CONTEXT('2D SPACE',''
  ) );
#644 = ORIENTED_EDGE('',*,*,#645,.F.);
#645 = EDGE_CURVE('',#623,#623,#646,.T.);
#646 = SURFACE_CURVE('',#647,(#652,#659),.PCURVE_S1.);
#647 = CIRCLE('',#648,5.965);
#648 = AXIS2_PLACEMENT_3D('',#649,#650,#651);
#649 = CARTESIAN_POINT('',(-37.05,0.,297.26960088342));
#650 = DIRECTION('',(1.,0.,0.));
#651 = DIRECTION('',(-0.,0.,1.));
#652 = PCURVE('',#157,#653);
#653 = DEFINITIONAL_REPRESENTATION('',(#654),#658);
#654 = LINE('',#655,#656);
#655 = CARTESIAN_POINT('',(0.,22.95));
#656 = VECTOR('',#657,1.);
#657 = DIRECTION('',(1.,0.));
#658 = ( GEOMETRIC_REPRESENTATION_CONTEXT(2) 
PARAMETRIC_REPRESENTATION_CONTEXT() REPRESENTATION_CONTEXT('2D SPACE',''
  ) );
#659 = PCURVE('',#233,#660);
#660 = DEFINITIONAL_REPRESENTATION('',(#661),#665);
#661 = CIRCLE('',#662,5.965);
#662 = AXIS2_PLACEMENT_2D('',#663,#664);
#663 = CARTESIAN_POINT('',(17.555300520587,-10.2));
#664 = DIRECTION('',(1.,0.));
#665 = ( GEOMETRIC_REPRESENTATION_CONTEXT(2) 
PARAMETRIC_REPRESENTATION_CONTEXT() REPRESENTATION_CONTEXT('2D SPACE',''
  ) );
#666 = ORIENTED_EDGE('',*,*,#622,.F.);
#667 = ORIENTED_EDGE('',*,*,#668,.F.);
#668 = EDGE_CURVE('',#438,#436,#669,.T.);
#669 = SURFACE_CURVE('',#670,(#728,#789),.PCURVE_S1.);
#670 = B_SPLINE_CURVE_WITH_KNOTS('',6,(#671,#672,#673,#674,#675,#676,
    #677,#678,#679,#680,#681,#682,#683,#684,#685,#686,#687,#688,#689,
    #690,#691,#692,#693,#694,#695,#696,#697,#698,#699,#700,#701,#702,
    #703,#704,#705,#706,#707,#708,#709,#710,#711,#712,#713,#714,#715,
    #716,#717,#718,#719,#720,#721,#722,#723,#724,#725,#726,#727),
  .UNSPECIFIED.,.F.,.F.,(7,5,5,5,5,5,5,5,5,5,5,7),(0.,0.119213919767,
    0.172647680269,0.243052192219,0.332762600963,0.412176912317,
    0.499810519537,0.587975744698,0.667094866716,0.825565710437,
    0.924284984616,1.),.UNSPECIFIED.);
#671 = CARTESIAN_POINT('',(-49.,4.440892098501E-16,303.23460088342));
#672 = CARTESIAN_POINT('',(-49.,-0.229174040304,303.23460088342));
#673 = CARTESIAN_POINT('',(-48.97899155249,-0.456449158025,
    303.22403495853));
#674 = CARTESIAN_POINT('',(-48.93762841397,-0.678210503982,
    303.20323238864));
#675 = CARTESIAN_POINT('',(-48.87765705934,-0.890962551821,
    303.17348433605));
#676 = CARTESIAN_POINT('',(-48.80190828847,-1.091545763882,
    303.13696234281));
#677 = CARTESIAN_POINT('',(-48.67529479063,-1.360613142985,
    303.07797629526));
#678 = CARTESIAN_POINT('',(-48.63358749204,-1.441288243817,
    303.05879350927));
#679 = CARTESIAN_POINT('',(-48.58955963618,-1.519351798108,303.038840537
    ));
#680 = CARTESIAN_POINT('',(-48.54339760343,-1.594801386094,
    303.01826749211));
#681 = CARTESIAN_POINT('',(-48.49527428442,-1.667643097426,
    302.99721679367));
#682 = CARTESIAN_POINT('',(-48.37956862281,-1.83045007341,
    302.94763217628));
#683 = CARTESIAN_POINT('',(-48.31064667074,-1.918525633722,
    302.9188390783));
#684 = CARTESIAN_POINT('',(-48.23890318985,-2.002206070032,
    302.88972954742));
#685 = CARTESIAN_POINT('',(-48.16461006707,-2.081581533732,
    302.86056321973));
#686 = CARTESIAN_POINT('',(-48.0879918131,-2.15674309548,302.83157433942
    ));
#687 = CARTESIAN_POINT('',(-47.90886096137,-2.318300353238,
    302.76653004491));
#688 = CARTESIAN_POINT('',(-47.80499364841,-2.40213904037,
    302.73071109799));
#689 = CARTESIAN_POINT('',(-47.69802323678,-2.479445761528,
    302.69596670954));
#690 = CARTESIAN_POINT('',(-47.58828226324,-2.550342700884,
    302.66270273902));
#691 = CARTESIAN_POINT('',(-47.47603781021,-2.614925658638,
    302.63128414629));
#692 = CARTESIAN_POINT('',(-47.2600944076,-2.72490562543,302.57614886818
    ));
#693 = CARTESIAN_POINT('',(-47.15689812255,-2.771651074617,
    302.55196338939));
#694 = CARTESIAN_POINT('',(-47.05211999889,-2.813508240767,
    302.52972817106));
#695 = CARTESIAN_POINT('',(-46.94595888541,-2.850483173308,
    302.50966187131));
#696 = CARTESIAN_POINT('',(-46.83859703557,-2.882576059508,
    302.49195200648));
#697 = CARTESIAN_POINT('',(-46.61058522464,-2.939794983888,
    302.45997782913));
#698 = CARTESIAN_POINT('',(-46.48971794283,-2.963854119661,
    302.44626080275));
#699 = CARTESIAN_POINT('',(-46.36791911,-2.981919830137,302.43582004656)
  );
#700 = CARTESIAN_POINT('',(-46.24549979323,-2.993971791146,
    302.42880668445));
#701 = CARTESIAN_POINT('',(-46.12276218019,-3.,302.42529918723));
#702 = CARTESIAN_POINT('',(-45.87649309891,-3.,302.42529918723));
#703 = CARTESIAN_POINT('',(-45.75301150962,-2.993898431007,
    302.42884936434));
#704 = CARTESIAN_POINT('',(-45.62985402974,-2.981699912082,
    302.43594802514));
#705 = CARTESIAN_POINT('',(-45.50732816621,-2.963414647093,
    302.44651478343));
#706 = CARTESIAN_POINT('',(-45.38575057343,-2.939063368487,
    302.46039489426));
#707 = CARTESIAN_POINT('',(-45.1574879846,-2.881418414159,
    302.49259122631));
#708 = CARTESIAN_POINT('',(-45.0505606708,-2.849300149073,
    302.51030546423));
#709 = CARTESIAN_POINT('',(-44.94482971035,-2.812336275501,
    302.53035435246));
#710 = CARTESIAN_POINT('',(-44.84047520072,-2.770526431785,
    302.55255199611));
#711 = CARTESIAN_POINT('',(-44.73769364958,-2.723864409782,
    302.57668189666));
#712 = CARTESIAN_POINT('',(-44.43441113144,-2.569144089047,
    302.65421299109));
#713 = CARTESIAN_POINT('',(-44.23949862447,-2.446551412405,
    302.71264699029));
#714 = CARTESIAN_POINT('',(-44.05291464851,-2.304194379074,
    302.77600254072));
#715 = CARTESIAN_POINT('',(-43.87616284885,-2.141229017381,
    302.84221927715));
#716 = CARTESIAN_POINT('',(-43.71162513027,-1.956618801272,
    302.90873309113));
#717 = CARTESIAN_POINT('',(-43.47029848767,-1.620444690768,
    303.01186536967));
#718 = CARTESIAN_POINT('',(-43.38357446666,-1.482329690287,
    303.05040291676));
#719 = CARTESIAN_POINT('',(-43.30396404555,-1.335212259461,
    303.08697809766));
#720 = CARTESIAN_POINT('',(-43.23271815092,-1.17928042339,303.1205939054
    ));
#721 = CARTESIAN_POINT('',(-43.17115933522,-1.014858206529,
    303.15021517401));
#722 = CARTESIAN_POINT('',(-43.08201641104,-0.710181987871,
    303.19367988211));
#723 = CARTESIAN_POINT('',(-43.04985936439,-0.573228837311,
    303.20959107036));
#724 = CARTESIAN_POINT('',(-43.02511968642,-0.43260807044,
    303.22196734279));
#725 = CARTESIAN_POINT('',(-43.0083914054,-0.289428447525,
    303.23038056272));
#726 = CARTESIAN_POINT('',(-43.,-0.144839476245,303.23460088342));
#727 = CARTESIAN_POINT('',(-43.,-4.440892098501E-16,303.23460088342));
#728 = PCURVE('',#157,#729);
#729 = DEFINITIONAL_REPRESENTATION('',(#730),#788);
#730 = B_SPLINE_CURVE_WITH_KNOTS('',6,(#731,#732,#733,#734,#735,#736,
    #737,#738,#739,#740,#741,#742,#743,#744,#745,#746,#747,#748,#749,
    #750,#751,#752,#753,#754,#755,#756,#757,#758,#759,#760,#761,#762,
    #763,#764,#765,#766,#767,#768,#769,#770,#771,#772,#773,#774,#775,
    #776,#777,#778,#779,#780,#781,#782,#783,#784,#785,#786,#787),
  .UNSPECIFIED.,.F.,.F.,(7,5,5,5,5,5,5,5,5,5,5,7),(0.,0.119213919767,
    0.172647680269,0.243052192219,0.332762600963,0.412176912317,
    0.499810519537,0.587975744698,0.667094866716,0.825565710437,
    0.924284984616,1.),.UNSPECIFIED.);
#731 = CARTESIAN_POINT('',(0.,11.));
#732 = CARTESIAN_POINT('',(3.841978881881E-02,11.));
#733 = CARTESIAN_POINT('',(7.652129843406E-02,11.021008447501));
#734 = CARTESIAN_POINT('',(0.113800147282,11.062371586024));
#735 = CARTESIAN_POINT('',(0.149765542208,11.122342940655));
#736 = CARTESIAN_POINT('',(0.183923370387,11.198091711522));
#737 = CARTESIAN_POINT('',(0.230102262217,11.324705209367));
#738 = CARTESIAN_POINT('',(0.244001923181,11.366412507953));
#739 = CARTESIAN_POINT('',(0.257506833084,11.410440363818));
#740 = CARTESIAN_POINT('',(0.270615016476,11.456602396564));
#741 = CARTESIAN_POINT('',(0.283324942556,11.504725715574));
#742 = CARTESIAN_POINT('',(0.311856429903,11.620431377187));
#743 = CARTESIAN_POINT('',(0.327387600393,11.689353329259));
#744 = CARTESIAN_POINT('',(0.342237036104,11.761096810147));
#745 = CARTESIAN_POINT('',(0.356410977684,11.835389932925));
#746 = CARTESIAN_POINT('',(0.369914663235,11.912008186899));
#747 = CARTESIAN_POINT('',(0.399111550423,12.091139038623));
#748 = CARTESIAN_POINT('',(0.414392303549,12.195006351589));
#749 = CARTESIAN_POINT('',(0.428597800384,12.301976763217));
#750 = CARTESIAN_POINT('',(0.441724438375,12.411717736753));
#751 = CARTESIAN_POINT('',(0.453763774361,12.523962189787));
#752 = CARTESIAN_POINT('',(0.474388483055,12.739905592397));
#753 = CARTESIAN_POINT('',(0.483211154014,12.843101877443));
#754 = CARTESIAN_POINT('',(0.491156332948,12.947880001109));
#755 = CARTESIAN_POINT('',(0.498208703805,13.05404111459));
#756 = CARTESIAN_POINT('',(0.504353634105,13.161402964427));
#757 = CARTESIAN_POINT('',(0.515342162807,13.389414775358));
#758 = CARTESIAN_POINT('',(0.519984876975,13.510282057164));
#759 = CARTESIAN_POINT('',(0.523482854041,13.632080889994));
#760 = CARTESIAN_POINT('',(0.525820535757,13.754500206761));
#761 = CARTESIAN_POINT('',(0.526989739254,13.877237819805));
#762 = CARTESIAN_POINT('',(0.526989739254,14.123506901081));
#763 = CARTESIAN_POINT('',(0.525806307824,14.246988490375));
#764 = CARTESIAN_POINT('',(0.523440196845,14.370145970257));
#765 = CARTESIAN_POINT('',(0.51989978405,14.492671833787));
#766 = CARTESIAN_POINT('',(0.515200987399,14.614249426566));
#767 = CARTESIAN_POINT('',(0.504131943435,14.842512015399));
#768 = CARTESIAN_POINT('',(0.497982934291,14.949439329196));
#769 = CARTESIAN_POINT('',(0.490933585795,15.05517028965));
#770 = CARTESIAN_POINT('',(0.482998365668,15.159524799271));
#771 = CARTESIAN_POINT('',(0.474192392628,15.26230635042));
#772 = CARTESIAN_POINT('',(0.445179972025,15.565588868555));
#773 = CARTESIAN_POINT('',(0.422417109814,15.760501375521));
#774 = CARTESIAN_POINT('',(0.396309382933,15.947085351481));
#775 = CARTESIAN_POINT('',(0.366848630717,16.123837151147));
#776 = CARTESIAN_POINT('',(0.333990343261,16.288374869727));
#777 = CARTESIAN_POINT('',(0.275040129795,16.529701512325));
#778 = CARTESIAN_POINT('',(0.251009255667,16.616425533336));
#779 = CARTESIAN_POINT('',(0.225611368119,16.696035954447));
#780 = CARTESIAN_POINT('',(0.198891381383,16.767281849074));
#781 = CARTESIAN_POINT('',(0.170901903304,16.828840664774));
#782 = CARTESIAN_POINT('',(0.119307450298,16.917983588953));
#783 = CARTESIAN_POINT('',(9.620139592824E-02,16.950140635603));
#784 = CARTESIAN_POINT('',(7.255015311296E-02,16.974880313579));
#785 = CARTESIAN_POINT('',(4.852111958298E-02,16.991608594599));
#786 = CARTESIAN_POINT('',(2.42815551124E-02,17.));
#787 = CARTESIAN_POINT('',(0.,17.));
#788 = ( GEOMETRIC_REPRESENTATION_CONTEXT(2) 
PARAMETRIC_REPRESENTATION_CONTEXT() REPRESENTATION_CONTEXT('2D SPACE',''
  ) );
#789 = PCURVE('',#313,#790);
#790 = DEFINITIONAL_REPRESENTATION('',(#791),#849);
#791 = B_SPLINE_CURVE_WITH_KNOTS('',6,(#792,#793,#794,#795,#796,#797,
    #798,#799,#800,#801,#802,#803,#804,#805,#806,#807,#808,#809,#810,
    #811,#812,#813,#814,#815,#816,#817,#818,#819,#820,#821,#822,#823,
    #824,#825,#826,#827,#828,#829,#830,#831,#832,#833,#834,#835,#836,
    #837,#838,#839,#840,#841,#842,#843,#844,#845,#846,#847,#848),
  .UNSPECIFIED.,.F.,.F.,(7,5,5,5,5,5,5,5,5,5,5,7),(0.,0.119213919767,
    0.172647680269,0.243052192219,0.332762600963,0.412176912317,
    0.499810519537,0.587975744698,0.667094866716,0.825565710437,
    0.924284984616,1.),.UNSPECIFIED.);
#792 = CARTESIAN_POINT('',(3.14159265359,5.965));
#793 = CARTESIAN_POINT('',(3.217984000358,5.965));
#794 = CARTESIAN_POINT('',(3.293742301226,5.954434075119));
#795 = CARTESIAN_POINT('',(3.368465568465,5.933631505221));
#796 = CARTESIAN_POINT('',(3.441722431418,5.903883452629));
#797 = CARTESIAN_POINT('',(3.512970828448,5.867361459391));
#798 = CARTESIAN_POINT('',(3.612093778102,5.808375411845));
#799 = CARTESIAN_POINT('',(3.642345491377,5.789192625859));
#800 = CARTESIAN_POINT('',(3.672190828729,5.769239653585));
#801 = CARTESIAN_POINT('',(3.701647433278,5.748666608693));
#802 = CARTESIAN_POINT('',(3.730731485213,5.727615910258));
#803 = CARTESIAN_POINT('',(3.797309686149,5.678031292862));
#804 = CARTESIAN_POINT('',(3.834549084775,5.649238194881));
#805 = CARTESIAN_POINT('',(3.871236656482,5.620128664));
#806 = CARTESIAN_POINT('',(3.907426508809,5.590962336313));
#807 = CARTESIAN_POINT('',(3.943171517048,5.561973456004));
#808 = CARTESIAN_POINT('',(4.023579234735,5.496929161499));
#809 = CARTESIAN_POINT('',(4.068006445778,5.461110214573));
#810 = CARTESIAN_POINT('',(4.111907945841,5.42636582612));
#811 = CARTESIAN_POINT('',(4.155371027138,5.393101855609));
#812 = CARTESIAN_POINT('',(4.19848077756,5.361683262874));
#813 = CARTESIAN_POINT('',(4.279259725743,5.306547984766));
#814 = CARTESIAN_POINT('',(4.316983547943,5.282362505971));
#815 = CARTESIAN_POINT('',(4.354535983616,5.260127287639));
#816 = CARTESIAN_POINT('',(4.391951733004,5.240060987897));
#817 = CARTESIAN_POINT('',(4.429266556211,5.222351123066));
#818 = CARTESIAN_POINT('',(4.507627112638,5.190376945712));
#819 = CARTESIAN_POINT('',(4.548656534123,5.176659919332));
#820 = CARTESIAN_POINT('',(4.589625966824,5.166219163142));
#821 = CARTESIAN_POINT('',(4.630555700233,5.159205801038));
#822 = CARTESIAN_POINT('',(4.671468253653,5.155698303819));
#823 = CARTESIAN_POINT('',(4.753557947412,5.155698303819));
#824 = CARTESIAN_POINT('',(4.79471849356,5.159248480921));
#825 = CARTESIAN_POINT('',(4.835896537804,5.166347141722));
#826 = CARTESIAN_POINT('',(4.877115080521,5.176913900011));
#827 = CARTESIAN_POINT('',(4.918394829033,5.190794010848));
#828 = CARTESIAN_POINT('',(4.996871117186,5.222990342893));
#829 = CARTESIAN_POINT('',(5.034050024542,5.240704580814));
#830 = CARTESIAN_POINT('',(5.071329791392,5.260753469045));
#831 = CARTESIAN_POINT('',(5.108745887632,5.282951112691));
#832 = CARTESIAN_POINT('',(5.14633275014,5.307081013245));
#833 = CARTESIAN_POINT('',(5.259822183547,5.384612107671));
#834 = CARTESIAN_POINT('',(5.336267303803,5.443046106875));
#835 = CARTESIAN_POINT('',(5.414012460115,5.506401657301));
#836 = CARTESIAN_POINT('',(5.493603087717,5.572618393738));
#837 = CARTESIAN_POINT('',(5.575577137089,5.63913220771));
#838 = CARTESIAN_POINT('',(5.713518985143,5.742264486253));
#839 = CARTESIAN_POINT('',(5.76777626947,5.780802033345));
#840 = CARTESIAN_POINT('',(5.823356754175,5.81737721424));
#841 = CARTESIAN_POINT('',(5.8802970626,5.850993021983));
#842 = CARTESIAN_POINT('',(5.938661679175,5.880614290592));
#843 = CARTESIAN_POINT('',(6.044478113073,5.924078998699));
#844 = CARTESIAN_POINT('',(6.091302321115,5.939990186949));
#845 = CARTESIAN_POINT('',(6.138780028515,5.952366459371));
#846 = CARTESIAN_POINT('',(6.186709162935,5.960779679307));
#847 = CARTESIAN_POINT('',(6.234905481764,5.965));
#848 = CARTESIAN_POINT('',(6.28318530718,5.965));
#849 = ( GEOMETRIC_REPRESENTATION_CONTEXT(2) 
PARAMETRIC_REPRESENTATION_CONTEXT() REPRESENTATION_CONTEXT('2D SPACE',''
  ) );
#850 = ORIENTED_EDGE('',*,*,#851,.F.);
#851 = EDGE_CURVE('',#141,#438,#852,.T.);
#852 = SEAM_CURVE('',#853,(#857,#864),.PCURVE_S1.);
#853 = LINE('',#854,#855);
#854 = CARTESIAN_POINT('',(-60.,1.461003631383E-15,303.23460088342));
#855 = VECTOR('',#856,1.);
#856 = DIRECTION('',(1.,0.,0.));
#857 = PCURVE('',#157,#858);
#858 = DEFINITIONAL_REPRESENTATION('',(#859),#863);
#859 = LINE('',#860,#861);
#860 = CARTESIAN_POINT('',(6.28318530718,-0.));
#861 = VECTOR('',#862,1.);
#862 = DIRECTION('',(0.,1.));
#863 = ( GEOMETRIC_REPRESENTATION_CONTEXT(2) 
PARAMETRIC_REPRESENTATION_CONTEXT() REPRESENTATION_CONTEXT('2D SPACE',''
  ) );
#864 = PCURVE('',#157,#865);
#865 = DEFINITIONAL_REPRESENTATION('',(#866),#870);
#866 = LINE('',#867,#868);
#867 = CARTESIAN_POINT('',(0.,-0.));
#868 = VECTOR('',#869,1.);
#869 = DIRECTION('',(0.,1.));
#870 = ( GEOMETRIC_REPRESENTATION_CONTEXT(2) 
PARAMETRIC_REPRESENTATION_CONTEXT() REPRESENTATION_CONTEXT('2D SPACE',''
  ) );
#871 = ORIENTED_EDGE('',*,*,#140,.T.);
#872 = ORIENTED_EDGE('',*,*,#851,.T.);
#873 = FACE_BOUND('',#874,.F.);
#874 = EDGE_LOOP('',(#875));
#875 = ORIENTED_EDGE('',*,*,#876,.F.);
#876 = EDGE_CURVE('',#877,#877,#879,.T.);
#877 = VERTEX_POINT('',#878);
#878 = CARTESIAN_POINT('',(-44.45079409082,-3.794460115775E-16,
    291.30460088342));
#879 = SURFACE_CURVE('',#880,(#1051,#1225),.PCURVE_S1.);
#880 = B_SPLINE_CURVE_WITH_KNOTS('',7,(#881,#882,#883,#884,#885,#886,
    #887,#888,#889,#890,#891,#892,#893,#894,#895,#896,#897,#898,#899,
    #900,#901,#902,#903,#904,#905,#906,#907,#908,#909,#910,#911,#912,
    #913,#914,#915,#916,#917,#918,#919,#920,#921,#922,#923,#924,#925,
    #926,#927,#928,#929,#930,#931,#932,#933,#934,#935,#936,#937,#938,
    #939,#940,#941,#942,#943,#944,#945,#946,#947,#948,#949,#950,#951,
    #952,#953,#954,#955,#956,#957,#958,#959,#960,#961,#962,#963,#964,
    #965,#966,#967,#968,#969,#970,#971,#972,#973,#974,#975,#976,#977,
    #978,#979,#980,#981,#982,#983,#984,#985,#986,#987,#988,#989,#990,
    #991,#992,#993,#994,#995,#996,#997,#998,#999,#1000,#1001,#1002,#1003
    ,#1004,#1005,#1006,#1007,#1008,#1009,#1010,#1011,#1012,#1013,#1014,
    #1015,#1016,#1017,#1018,#1019,#1020,#1021,#1022,#1023,#1024,#1025,
    #1026,#1027,#1028,#1029,#1030,#1031,#1032,#1033,#1034,#1035,#1036,
    #1037,#1038,#1039,#1040,#1041,#1042,#1043,#1044,#1045,#1046,#1047,
    #1048,#1049,#1050),.UNSPECIFIED.,.T.,.F.,(8,6,6,6,6,6,6,6,6,6,6,6,6,
    6,6,6,6,6,6,6,6,6,6,6,6,6,6,6,8),(0.,3.537654639425E-02,
    5.861052340448E-02,9.147359704718E-02,0.121193971823,0.148270415983,
    0.244864009536,0.328084255733,0.351928554167,0.378825471806,
    0.40863662272,0.441396794166,0.464680189217,0.476589773371,
    0.500112647438,0.523389152428,0.535298724953,0.558582097271,
    0.59134223673,0.621153358537,0.648050249914,0.671894525067,
    0.749984462346,0.851933555375,0.87883284388,0.908646622539,
    0.941409681675,0.964695129073,1.),.UNSPECIFIED.);
#881 = CARTESIAN_POINT('',(-44.45079409082,-4.440892098501E-16,
    291.30460088342));
#882 = CARTESIAN_POINT('',(-44.45079409082,-5.436069716845E-02,
    291.30460088342));
#883 = CARTESIAN_POINT('',(-44.4539813933,-0.108739118548,
    291.30517883114));
#884 = CARTESIAN_POINT('',(-44.46035975243,-0.162682358509,
    291.30633553882));
#885 = CARTESIAN_POINT('',(-44.46981166157,-0.21580944286,
    291.30804281496));
#886 = CARTESIAN_POINT('',(-44.48214082822,-0.267810405105,
    291.3102523444));
#887 = CARTESIAN_POINT('',(-44.49710538669,-0.31844228166,
    291.31290402075));
#888 = CARTESIAN_POINT('',(-44.52582778024,-0.399755744952,
    291.31792353024));
#889 = CARTESIAN_POINT('',(-44.53824084276,-0.431331184591,
    291.32007709565));
#890 = CARTESIAN_POINT('',(-44.55161167851,-0.462207894992,
    291.32237709932));
#891 = CARTESIAN_POINT('',(-44.5658709725,-0.492358411057,
    291.32480613487));
#892 = CARTESIAN_POINT('',(-44.58095165785,-0.52176637557,
    291.32734723664));
#893 = CARTESIAN_POINT('',(-44.59679112167,-0.550424662217,
    291.32998439869));
#894 = CARTESIAN_POINT('',(-44.63673149149,-0.617808881808,
    291.33654852575));
#895 = CARTESIAN_POINT('',(-44.66153240773,-0.655779539185,
    291.34055655062));
#896 = CARTESIAN_POINT('',(-44.68757901598,-0.692251944897,
    291.34468605201));
#897 = CARTESIAN_POINT('',(-44.71473102984,-0.727245772732,
    291.34890012601));
#898 = CARTESIAN_POINT('',(-44.74286605853,-0.76079108597,
    291.35316614754));
#899 = CARTESIAN_POINT('',(-44.77188064534,-0.792925527239,
    291.35745583669));
#900 = CARTESIAN_POINT('',(-44.82865117057,-0.851515335796,
    291.36562460915));
#901 = CARTESIAN_POINT('',(-44.85625915968,-0.878216958699,
    291.36950328029));
#902 = CARTESIAN_POINT('',(-44.88445143513,-0.90382628238,291.3733633225
    ));
#903 = CARTESIAN_POINT('',(-44.91317168826,-0.928371832755,
    291.37718874168));
#904 = CARTESIAN_POINT('',(-44.94237070898,-0.951880923781,
    291.38096538175));
#905 = CARTESIAN_POINT('',(-44.97200595465,-0.974379824894,
    291.38468074077));
#906 = CARTESIAN_POINT('',(-45.02940434904,-1.015494132927,
    291.39164274734));
#907 = CARTESIAN_POINT('',(-45.05709861318,-1.03427630647,291.3949015778
    ));
#908 = CARTESIAN_POINT('',(-45.08509592033,-1.052259218069,
    291.39809187422));
#909 = CARTESIAN_POINT('',(-45.11337103674,-1.069460005581,
    291.40120605839));
#910 = CARTESIAN_POINT('',(-45.14190129448,-1.085894383871,
    291.40423730468));
#911 = CARTESIAN_POINT('',(-45.17066639991,-1.101576852967,
    291.40717946644));
#912 = CARTESIAN_POINT('',(-45.30303922918,-1.169832921531,
    291.42018541689));
#913 = CARTESIAN_POINT('',(-45.40915863198,-1.213732008082,
    291.42913661504));
#914 = CARTESIAN_POINT('',(-45.51722732295,-1.248860005144,
    291.43663482819));
#915 = CARTESIAN_POINT('',(-45.62665889252,-1.275573529528,
    291.44251253183));
#916 = CARTESIAN_POINT('',(-45.73696858433,-1.294131998693,
    291.44666241038));
#917 = CARTESIAN_POINT('',(-45.84776180747,-1.304678864197,
    291.44903004403));
#918 = CARTESIAN_POINT('',(-46.05428192743,-1.309427362098,
    291.45009660412));
#919 = CARTESIAN_POINT('',(-46.14998880512,-1.305689292176,
    291.44925825768));
#920 = CARTESIAN_POINT('',(-46.2455209231,-1.296021426089,
    291.44707841814));
#921 = CARTESIAN_POINT('',(-46.34059238298,-1.280380193009,
    291.44357896698));
#922 = CARTESIAN_POINT('',(-46.43492713339,-1.258678516818,
    291.4388094718));
#923 = CARTESIAN_POINT('',(-46.52824234915,-1.230752872749,
    291.43284581508));
#924 = CARTESIAN_POINT('',(-46.6465745186,-1.186417476128,
    291.42376987729));
#925 = CARTESIAN_POINT('',(-46.67281392233,-1.176008649687,
    291.42165937577));
#926 = CARTESIAN_POINT('',(-46.69892987489,-1.16505864482,
    291.41946226895));
#927 = CARTESIAN_POINT('',(-46.72491239467,-1.153560499767,
    291.41718145088));
#928 = CARTESIAN_POINT('',(-46.75075066713,-1.141506560002,
    291.41482011172));
#929 = CARTESIAN_POINT('',(-46.77643304478,-1.128888478232,
    291.41238173766));
#930 = CARTESIAN_POINT('',(-46.83072742928,-1.100817165072,
    291.40703693819));
#931 = CARTESIAN_POINT('',(-46.85929321088,-1.08520789814,
    291.40411060121));
#932 = CARTESIAN_POINT('',(-46.88762657846,-1.068856148787,
    291.40109655017));
#933 = CARTESIAN_POINT('',(-46.91570758502,-1.051747669863,
    291.39800082671));
#934 = CARTESIAN_POINT('',(-46.94351396435,-1.033867030321,
    291.3948301353));
#935 = CARTESIAN_POINT('',(-46.97102094531,-1.015197413673,
    291.39159191454));
#936 = CARTESIAN_POINT('',(-47.02832610485,-0.974133121111,
    291.38463962346));
#937 = CARTESIAN_POINT('',(-47.05804849041,-0.951554836507,
    291.3809121496));
#938 = CARTESIAN_POINT('',(-47.08733160043,-0.927959898097,
    291.37712312189));
#939 = CARTESIAN_POINT('',(-47.11613247248,-0.903321764048,
    291.37328516708));
#940 = CARTESIAN_POINT('',(-47.1444013672,-0.877612850876,
    291.36941259066));
#941 = CARTESIAN_POINT('',(-47.17208133139,-0.850804369106,
    291.36552156392));
#942 = CARTESIAN_POINT('',(-47.22880773738,-0.7921642059,291.35735412211
    ));
#943 = CARTESIAN_POINT('',(-47.257714836,-0.7601015959,291.35307821191)
  );
#944 = CARTESIAN_POINT('',(-47.2857461912,-0.726636284151,
    291.34882626917));
#945 = CARTESIAN_POINT('',(-47.31279912991,-0.691730990597,
    291.34462635628));
#946 = CARTESIAN_POINT('',(-47.33875222138,-0.655355995081,
    291.3405108379));
#947 = CARTESIAN_POINT('',(-47.36346632674,-0.617491932515,
    291.33651630948));
#948 = CARTESIAN_POINT('',(-47.40335921818,-0.550159011412,
    291.3299594798));
#949 = CARTESIAN_POINT('',(-47.41922663763,-0.521432756535,
    291.32731739457));
#950 = CARTESIAN_POINT('',(-47.43433157371,-0.49195361854,
    291.32477189534));
#951 = CARTESIAN_POINT('',(-47.4486109722,-0.461728818793,291.3223390997
    ));
#952 = CARTESIAN_POINT('',(-47.46199729361,-0.430774903938,
    291.32003609146));
#953 = CARTESIAN_POINT('',(-47.47442074888,-0.39911964493,
    291.31788039452));
#954 = CARTESIAN_POINT('',(-47.49163798468,-0.350274273921,
    291.31487106588));
#955 = CARTESIAN_POINT('',(-47.49719425742,-0.333572105935,
    291.31389578031));
#956 = CARTESIAN_POINT('',(-47.50247078266,-0.316703126991,
    291.31296597176));
#957 = CARTESIAN_POINT('',(-47.50745826971,-0.299674113006,
    291.31208394632));
#958 = CARTESIAN_POINT('',(-47.51214770786,-0.282492920935,
    291.31125193439));
#959 = CARTESIAN_POINT('',(-47.5165303664,-0.265168488777,
    291.31047209066));
#960 = CARTESIAN_POINT('',(-47.52863145898,-0.213229851805,
    291.30831335282));
#961 = CARTESIAN_POINT('',(-47.53543676039,-0.178224617762,
    291.30709155476));
#962 = CARTESIAN_POINT('',(-47.54094800572,-0.142779552928,
    291.30609716685));
#963 = CARTESIAN_POINT('',(-47.54511062193,-0.106990242139,
    291.30534354555));
#964 = CARTESIAN_POINT('',(-47.54788483846,-7.096318793844E-02,
    291.30484042455));
#965 = CARTESIAN_POINT('',(-47.54924936973,-3.481556292493E-02,
    291.30459300248));
#966 = CARTESIAN_POINT('',(-47.54916128913,3.708711666222E-02,
    291.30460897461));
#967 = CARTESIAN_POINT('',(-47.54773802435,7.284979750227E-02,
    291.30486704825));
#968 = CARTESIAN_POINT('',(-47.54493532028,0.108489642826,
    291.30537528003));
#969 = CARTESIAN_POINT('',(-47.54077437661,0.143893339136,
    291.30612849261));
#970 = CARTESIAN_POINT('',(-47.53529404952,0.178957914893,
    291.30711717614));
#971 = CARTESIAN_POINT('',(-47.52854732539,0.213590958379,
    291.30832836158));
#972 = CARTESIAN_POINT('',(-47.5165303664,0.265168488776,291.31047209066
    ));
#973 = CARTESIAN_POINT('',(-47.51214770786,0.282492920934,
    291.31125193439));
#974 = CARTESIAN_POINT('',(-47.50745826971,0.299674113005,
    291.31208394632));
#975 = CARTESIAN_POINT('',(-47.50247078266,0.31670312699,291.31296597176
    ));
#976 = CARTESIAN_POINT('',(-47.49719425742,0.333572105934,
    291.31389578031));
#977 = CARTESIAN_POINT('',(-47.49163798468,0.35027427392,291.31487106588
    ));
#978 = CARTESIAN_POINT('',(-47.47442074888,0.399119644929,
    291.31788039452));
#979 = CARTESIAN_POINT('',(-47.46199729361,0.430774903937,
    291.32003609146));
#980 = CARTESIAN_POINT('',(-47.4486109722,0.461728818792,291.3223390997)
  );
#981 = CARTESIAN_POINT('',(-47.43433157371,0.491953618538,
    291.32477189534));
#982 = CARTESIAN_POINT('',(-47.41922663763,0.521432756534,
    291.32731739457));
#983 = CARTESIAN_POINT('',(-47.40335921818,0.550159011411,291.3299594798
    ));
#984 = CARTESIAN_POINT('',(-47.36346632674,0.617491932513,
    291.33651630948));
#985 = CARTESIAN_POINT('',(-47.33875222139,0.65535599508,291.3405108379)
  );
#986 = CARTESIAN_POINT('',(-47.31279912991,0.691730990595,
    291.34462635628));
#987 = CARTESIAN_POINT('',(-47.2857461912,0.726636284149,291.34882626917
    ));
#988 = CARTESIAN_POINT('',(-47.257714836,0.760101595899,291.35307821191)
  );
#989 = CARTESIAN_POINT('',(-47.22880773738,0.792164205899,
    291.35735412211));
#990 = CARTESIAN_POINT('',(-47.17208133139,0.850804369105,
    291.36552156392));
#991 = CARTESIAN_POINT('',(-47.1444013672,0.877612850875,291.36941259066
    ));
#992 = CARTESIAN_POINT('',(-47.11613247249,0.903321764047,
    291.37328516708));
#993 = CARTESIAN_POINT('',(-47.08733160043,0.927959898095,
    291.37712312189));
#994 = CARTESIAN_POINT('',(-47.05804849041,0.951554836506,291.3809121496
    ));
#995 = CARTESIAN_POINT('',(-47.02832610486,0.97413312111,291.38463962346
    ));
#996 = CARTESIAN_POINT('',(-46.97102094531,1.015197413672,
    291.39159191453));
#997 = CARTESIAN_POINT('',(-46.94351396435,1.03386703032,291.3948301353)
  );
#998 = CARTESIAN_POINT('',(-46.91570758502,1.051747669862,
    291.39800082671));
#999 = CARTESIAN_POINT('',(-46.88762657846,1.068856148786,
    291.40109655017));
#1000 = CARTESIAN_POINT('',(-46.85929321088,1.085207898139,
    291.40411060121));
#1001 = CARTESIAN_POINT('',(-46.83072742928,1.100817165071,
    291.40703693819));
#1002 = CARTESIAN_POINT('',(-46.77643304478,1.128888478231,
    291.41238173766));
#1003 = CARTESIAN_POINT('',(-46.75075066714,1.141506560001,
    291.41482011172));
#1004 = CARTESIAN_POINT('',(-46.72491239467,1.153560499766,
    291.41718145088));
#1005 = CARTESIAN_POINT('',(-46.69892987489,1.165058644819,
    291.41946226895));
#1006 = CARTESIAN_POINT('',(-46.67281392234,1.176008649686,
    291.42165937577));
#1007 = CARTESIAN_POINT('',(-46.6465745186,1.186417476126,
    291.42376987729));
#1008 = CARTESIAN_POINT('',(-46.5339124948,1.228628444899,291.4324109216
    ));
#1009 = CARTESIAN_POINT('',(-46.44638447235,1.255226597472,
    291.43807332936));
#1010 = CARTESIAN_POINT('',(-46.35795213496,1.27631286385,
    291.44268714897));
#1011 = CARTESIAN_POINT('',(-46.2688795838,1.292032266684,
    291.44618810341));
#1012 = CARTESIAN_POINT('',(-46.17939621878,1.302478838518,
    291.44853550785));
#1013 = CARTESIAN_POINT('',(-46.08970780871,1.307704297665,
    291.44970960695));
#1014 = CARTESIAN_POINT('',(-45.88288808965,1.30770453295,
    291.44970965982));
#1015 = CARTESIAN_POINT('',(-45.76583524032,1.298799040217,
    291.44770852513));
#1016 = CARTESIAN_POINT('',(-45.64922840555,1.281002385867,
    291.44371018974));
#1017 = CARTESIAN_POINT('',(-45.53351688492,1.254165447637,
    291.43776906479));
#1018 = CARTESIAN_POINT('',(-45.41925883156,1.217996825111,
    291.43000415296));
#1019 = CARTESIAN_POINT('',(-45.30713144592,1.172093038135,
    291.42060791886));
#1020 = CARTESIAN_POINT('',(-45.16927257071,1.100817165073,
    291.40703693819));
#1021 = CARTESIAN_POINT('',(-45.14070678912,1.085207898141,
    291.40411060121));
#1022 = CARTESIAN_POINT('',(-45.11237342154,1.068856148789,
    291.40109655017));
#1023 = CARTESIAN_POINT('',(-45.08429241497,1.051747669864,
    291.39800082671));
#1024 = CARTESIAN_POINT('',(-45.05648603564,1.033867030323,
    291.3948301353));
#1025 = CARTESIAN_POINT('',(-45.02897905468,1.015197413674,
    291.39159191454));
#1026 = CARTESIAN_POINT('',(-44.97167389514,0.974133121112,
    291.38463962346));
#1027 = CARTESIAN_POINT('',(-44.94195150958,0.951554836508,
    291.3809121496));
#1028 = CARTESIAN_POINT('',(-44.91266839956,0.927959898098,
    291.37712312189));
#1029 = CARTESIAN_POINT('',(-44.88386752751,0.903321764049,
    291.37328516708));
#1030 = CARTESIAN_POINT('',(-44.85559863279,0.877612850877,
    291.36941259066));
#1031 = CARTESIAN_POINT('',(-44.8279186686,0.850804369107,
    291.36552156392));
#1032 = CARTESIAN_POINT('',(-44.77119226261,0.792164205901,
    291.35735412211));
#1033 = CARTESIAN_POINT('',(-44.74228516399,0.760101595902,
    291.35307821191));
#1034 = CARTESIAN_POINT('',(-44.7142538088,0.726636284152,
    291.34882626917));
#1035 = CARTESIAN_POINT('',(-44.68720087008,0.691730990598,
    291.34462635628));
#1036 = CARTESIAN_POINT('',(-44.66124777861,0.655355995083,
    291.3405108379));
#1037 = CARTESIAN_POINT('',(-44.63653367325,0.617491932516,
    291.33651630948));
#1038 = CARTESIAN_POINT('',(-44.59664078181,0.550159011413,
    291.3299594798));
#1039 = CARTESIAN_POINT('',(-44.58077336236,0.521432756536,
    291.32731739457));
#1040 = CARTESIAN_POINT('',(-44.56566842628,0.491953618541,
    291.32477189534));
#1041 = CARTESIAN_POINT('',(-44.55138902779,0.461728818794,
    291.3223390997));
#1042 = CARTESIAN_POINT('',(-44.53800270638,0.430774903939,
    291.32003609146));
#1043 = CARTESIAN_POINT('',(-44.52557925111,0.399119644931,
    291.31788039452));
#1044 = CARTESIAN_POINT('',(-44.49691801134,0.31780758611,
    291.31287081629));
#1045 = CARTESIAN_POINT('',(-44.4820121889,0.267267260324,
    291.31022929072));
#1046 = CARTESIAN_POINT('',(-44.46973275075,0.215365483307,
    291.30802856131));
#1047 = CARTESIAN_POINT('',(-44.46031980667,0.162344217836,
    291.30632829435));
#1048 = CARTESIAN_POINT('',(-44.45396808832,0.108511849555,
    291.30517641881));
#1049 = CARTESIAN_POINT('',(-44.45079409082,5.424711886361E-02,
    291.30460088342));
#1050 = CARTESIAN_POINT('',(-44.45079409082,-4.440892098501E-16,
    291.30460088342));
#1051 = PCURVE('',#157,#1052);
#1052 = DEFINITIONAL_REPRESENTATION('',(#1053),#1224);
#1053 = B_SPLINE_CURVE_WITH_KNOTS('',7,(#1054,#1055,#1056,#1057,#1058,
    #1059,#1060,#1061,#1062,#1063,#1064,#1065,#1066,#1067,#1068,#1069,
    #1070,#1071,#1072,#1073,#1074,#1075,#1076,#1077,#1078,#1079,#1080,
    #1081,#1082,#1083,#1084,#1085,#1086,#1087,#1088,#1089,#1090,#1091,
    #1092,#1093,#1094,#1095,#1096,#1097,#1098,#1099,#1100,#1101,#1102,
    #1103,#1104,#1105,#1106,#1107,#1108,#1109,#1110,#1111,#1112,#1113,
    #1114,#1115,#1116,#1117,#1118,#1119,#1120,#1121,#1122,#1123,#1124,
    #1125,#1126,#1127,#1128,#1129,#1130,#1131,#1132,#1133,#1134,#1135,
    #1136,#1137,#1138,#1139,#1140,#1141,#1142,#1143,#1144,#1145,#1146,
    #1147,#1148,#1149,#1150,#1151,#1152,#1153,#1154,#1155,#1156,#1157,
    #1158,#1159,#1160,#1161,#1162,#1163,#1164,#1165,#1166,#1167,#1168,
    #1169,#1170,#1171,#1172,#1173,#1174,#1175,#1176,#1177,#1178,#1179,
    #1180,#1181,#1182,#1183,#1184,#1185,#1186,#1187,#1188,#1189,#1190,
    #1191,#1192,#1193,#1194,#1195,#1196,#1197,#1198,#1199,#1200,#1201,
    #1202,#1203,#1204,#1205,#1206,#1207,#1208,#1209,#1210,#1211,#1212,
    #1213,#1214,#1215,#1216,#1217,#1218,#1219,#1220,#1221,#1222,#1223),
  .UNSPECIFIED.,.T.,.F.,(8,6,6,6,6,6,6,6,6,6,6,6,6,6,6,6,6,6,6,6,6,6,6,6
    ,6,6,6,6,8),(0.,3.537654639425E-02,5.861052340448E-02,
    9.147359704718E-02,0.121193971823,0.148270415983,0.244864009536,
    0.328084255733,0.351928554167,0.378825471806,0.40863662272,
    0.441396794166,0.464680189217,0.476589773371,0.500112647438,
    0.523389152428,0.535298724953,0.558582097271,0.59134223673,
    0.621153358537,0.648050249914,0.671894525067,0.749984462346,
    0.851933555375,0.87883284388,0.908646622539,0.941409681675,
    0.964695129073,1.),.UNSPECIFIED.);
#1054 = CARTESIAN_POINT('',(3.14159265359,15.549205909172));
#1055 = CARTESIAN_POINT('',(3.132479376613,15.549205909172));
#1056 = CARTESIAN_POINT('',(3.123363128357,15.546018606696));
#1057 = CARTESIAN_POINT('',(3.114318599459,15.539640247563));
#1058 = CARTESIAN_POINT('',(3.10540841812,15.530188338429));
#1059 = CARTESIAN_POINT('',(3.096683562841,15.517859171777));
#1060 = CARTESIAN_POINT('',(3.088184139659,15.502894613304));
#1061 = CARTESIAN_POINT('',(3.074526429006,15.47417221976));
#1062 = CARTESIAN_POINT('',(3.069220790289,15.46175915724));
#1063 = CARTESIAN_POINT('',(3.064030294094,15.448388321481));
#1064 = CARTESIAN_POINT('',(3.058959505799,15.434129027494));
#1065 = CARTESIAN_POINT('',(3.054011174455,15.419048342145));
#1066 = CARTESIAN_POINT('',(3.049186537425,15.403208878329));
#1067 = CARTESIAN_POINT('',(3.037836465051,15.363268508505));
#1068 = CARTESIAN_POINT('',(3.031435732839,15.338467592268));
#1069 = CARTESIAN_POINT('',(3.025282536827,15.312420984013));
#1070 = CARTESIAN_POINT('',(3.019373875399,15.285268970152));
#1071 = CARTESIAN_POINT('',(3.013705072124,15.257133941468));
#1072 = CARTESIAN_POINT('',(3.008270210989,15.228119354659));
#1073 = CARTESIAN_POINT('',(2.99835293932,15.171348829425));
#1074 = CARTESIAN_POINT('',(2.993829650131,15.143740840318));
#1075 = CARTESIAN_POINT('',(2.989487986232,15.115548564866));
#1076 = CARTESIAN_POINT('',(2.985323470129,15.086828311731));
#1077 = CARTESIAN_POINT('',(2.981331829178,15.057629291014));
#1078 = CARTESIAN_POINT('',(2.977508960093,15.027994045343));
#1079 = CARTESIAN_POINT('',(2.970518249171,14.970595650952));
#1080 = CARTESIAN_POINT('',(2.967322501406,14.942901386813));
#1081 = CARTESIAN_POINT('',(2.964260722987,14.914904079666));
#1082 = CARTESIAN_POINT('',(2.961330254635,14.88662896326));
#1083 = CARTESIAN_POINT('',(2.958528668281,14.858098705517));
#1084 = CARTESIAN_POINT('',(2.955853730373,14.829333600083));
#1085 = CARTESIAN_POINT('',(2.944205090054,14.696960770814));
#1086 = CARTESIAN_POINT('',(2.936694832223,14.590841368016));
#1087 = CARTESIAN_POINT('',(2.930673382201,14.482772677041));
#1088 = CARTESIAN_POINT('',(2.926087937588,14.37334110748));
#1089 = CARTESIAN_POINT('',(2.92289987013,14.263031415663));
#1090 = CARTESIAN_POINT('',(2.921087742434,14.152238192523));
#1091 = CARTESIAN_POINT('',(2.92027184903,13.945718072561));
#1092 = CARTESIAN_POINT('',(2.92091408683,13.850011194872));
#1093 = CARTESIAN_POINT('',(2.922575531755,13.754479076896));
#1094 = CARTESIAN_POINT('',(2.925262530915,13.65940761702));
#1095 = CARTESIAN_POINT('',(2.928987471165,13.565072866609));
#1096 = CARTESIAN_POINT('',(2.933774446602,13.471757650841));
#1097 = CARTESIAN_POINT('',(2.941361174924,13.3534254814));
#1098 = CARTESIAN_POINT('',(2.943141664541,13.327186077662));
#1099 = CARTESIAN_POINT('',(2.945013955238,13.301070125107));
#1100 = CARTESIAN_POINT('',(2.946979105107,13.275087605325));
#1101 = CARTESIAN_POINT('',(2.949038281879,13.249249332862));
#1102 = CARTESIAN_POINT('',(2.951192762928,13.223566955218));
#1103 = CARTESIAN_POINT('',(2.955983309499,13.169272570715));
#1104 = CARTESIAN_POINT('',(2.95864569687,13.14070678912));
#1105 = CARTESIAN_POINT('',(2.961433138149,13.112373421539));
#1106 = CARTESIAN_POINT('',(2.964347828161,13.084292414974));
#1107 = CARTESIAN_POINT('',(2.967392151315,13.056486035646));
#1108 = CARTESIAN_POINT('',(2.97056871714,13.028979054687));
#1109 = CARTESIAN_POINT('',(2.977550888999,12.971673895141));
#1110 = CARTESIAN_POINT('',(2.981387219044,12.941951509586));
#1111 = CARTESIAN_POINT('',(2.9853933984,12.912668399564));
#1112 = CARTESIAN_POINT('',(2.989573573186,12.883867527512));
#1113 = CARTESIAN_POINT('',(2.993932058313,12.855598632796));
#1114 = CARTESIAN_POINT('',(2.99847337262,12.827918668604));
#1115 = CARTESIAN_POINT('',(3.008398974396,12.771192262612));
#1116 = CARTESIAN_POINT('',(3.013821594255,12.742285163998));
#1117 = CARTESIAN_POINT('',(3.019476796361,12.714253808799));
#1118 = CARTESIAN_POINT('',(3.025370440021,12.687200870085));
#1119 = CARTESIAN_POINT('',(3.031507147954,12.661247778611));
#1120 = CARTESIAN_POINT('',(3.037889873194,12.636533673253));
#1121 = CARTESIAN_POINT('',(3.049231267566,12.596640781817));
#1122 = CARTESIAN_POINT('',(3.054067326329,12.580773362365));
#1123 = CARTESIAN_POINT('',(3.059027607792,12.565668426289));
#1124 = CARTESIAN_POINT('',(3.064110858579,12.551389027798));
#1125 = CARTESIAN_POINT('',(3.069314298165,12.538002706388));
#1126 = CARTESIAN_POINT('',(3.074633310648,12.525579251118));
#1127 = CARTESIAN_POINT('',(3.082837499166,12.508362015316));
#1128 = CARTESIAN_POINT('',(3.085642282341,12.502805742572));
#1129 = CARTESIAN_POINT('',(3.08847454389,12.497529217335));
#1130 = CARTESIAN_POINT('',(3.091333164392,12.49254173029));
#1131 = CARTESIAN_POINT('',(3.094216847144,12.487852292139));
#1132 = CARTESIAN_POINT('',(3.097124118159,12.483469633592));
#1133 = CARTESIAN_POINT('',(3.105838867477,12.471368541014));
#1134 = CARTESIAN_POINT('',(3.111710750204,12.464563239607));
#1135 = CARTESIAN_POINT('',(3.117655035255,12.459051994271));
#1136 = CARTESIAN_POINT('',(3.123655982094,12.454889378066));
#1137 = CARTESIAN_POINT('',(3.129696068872,12.452115161539));
#1138 = CARTESIAN_POINT('',(3.135756012549,12.450750630269));
#1139 = CARTESIAN_POINT('',(3.147810108335,12.450838710864));
#1140 = CARTESIAN_POINT('',(3.153805537075,12.452261975644));
#1141 = CARTESIAN_POINT('',(3.159780736667,12.455064679718));
#1142 = CARTESIAN_POINT('',(3.165717058968,12.459225623381));
#1143 = CARTESIAN_POINT('',(3.171597562644,12.464705950474));
#1144 = CARTESIAN_POINT('',(3.177407029534,12.471452674606));
#1145 = CARTESIAN_POINT('',(3.18606118902,12.483469633592));
#1146 = CARTESIAN_POINT('',(3.188968460035,12.487852292139));
#1147 = CARTESIAN_POINT('',(3.191852142787,12.49254173029));
#1148 = CARTESIAN_POINT('',(3.194710763289,12.497529217334));
#1149 = CARTESIAN_POINT('',(3.197543024838,12.502805742572));
#1150 = CARTESIAN_POINT('',(3.200347808014,12.508362015316));
#1151 = CARTESIAN_POINT('',(3.208551996532,12.525579251117));
#1152 = CARTESIAN_POINT('',(3.213871009014,12.538002706387));
#1153 = CARTESIAN_POINT('',(3.219074448601,12.551389027797));
#1154 = CARTESIAN_POINT('',(3.224157699387,12.565668426288));
#1155 = CARTESIAN_POINT('',(3.229117980851,12.580773362365));
#1156 = CARTESIAN_POINT('',(3.233954039614,12.596640781816));
#1157 = CARTESIAN_POINT('',(3.245295433985,12.636533673252));
#1158 = CARTESIAN_POINT('',(3.251678159225,12.66124777861));
#1159 = CARTESIAN_POINT('',(3.257814867159,12.687200870084));
#1160 = CARTESIAN_POINT('',(3.263708510818,12.714253808798));
#1161 = CARTESIAN_POINT('',(3.269363712924,12.742285163997));
#1162 = CARTESIAN_POINT('',(3.274786332783,12.771192262611));
#1163 = CARTESIAN_POINT('',(3.284711934559,12.827918668603));
#1164 = CARTESIAN_POINT('',(3.289253248866,12.855598632795));
#1165 = CARTESIAN_POINT('',(3.293611733994,12.88386752751));
#1166 = CARTESIAN_POINT('',(3.297791908779,12.912668399563));
#1167 = CARTESIAN_POINT('',(3.301798088136,12.941951509585));
#1168 = CARTESIAN_POINT('',(3.30563441818,12.97167389514));
#1169 = CARTESIAN_POINT('',(3.312616590039,13.028979054685));
#1170 = CARTESIAN_POINT('',(3.315793155865,13.056486035644));
#1171 = CARTESIAN_POINT('',(3.318837479019,13.084292414972));
#1172 = CARTESIAN_POINT('',(3.32175216903,13.112373421537));
#1173 = CARTESIAN_POINT('',(3.324539610309,13.140706789118));
#1174 = CARTESIAN_POINT('',(3.327201997681,13.169272570713));
#1175 = CARTESIAN_POINT('',(3.331992544252,13.223566955215));
#1176 = CARTESIAN_POINT('',(3.3341470253,13.24924933286));
#1177 = CARTESIAN_POINT('',(3.336206202072,13.275087605323));
#1178 = CARTESIAN_POINT('',(3.338171351941,13.301070125104));
#1179 = CARTESIAN_POINT('',(3.340043642639,13.327186077659));
#1180 = CARTESIAN_POINT('',(3.341824132255,13.353425481397));
#1181 = CARTESIAN_POINT('',(3.349047325837,13.466087505191));
#1182 = CARTESIAN_POINT('',(3.353606147587,13.55361552765));
#1183 = CARTESIAN_POINT('',(3.357224722271,13.642047865037));
#1184 = CARTESIAN_POINT('',(3.359924560202,13.731120416193));
#1185 = CARTESIAN_POINT('',(3.361719537876,13.820603781215));
#1186 = CARTESIAN_POINT('',(3.362617399609,13.910292191287));
#1187 = CARTESIAN_POINT('',(3.362617440037,14.117111910347));
#1188 = CARTESIAN_POINT('',(3.361087256291,14.234164759674));
#1189 = CARTESIAN_POINT('',(3.358029362835,14.35077159445));
#1190 = CARTESIAN_POINT('',(3.353421414272,14.466483115076));
#1191 = CARTESIAN_POINT('',(3.34722002019,14.580741168439));
#1192 = CARTESIAN_POINT('',(3.33936567479,14.692868554076));
#1193 = CARTESIAN_POINT('',(3.327201997681,14.830727429283));
#1194 = CARTESIAN_POINT('',(3.32453961031,14.859293210878));
#1195 = CARTESIAN_POINT('',(3.32175216903,14.887626578459));
#1196 = CARTESIAN_POINT('',(3.318837479019,14.915707585024));
#1197 = CARTESIAN_POINT('',(3.315793155865,14.943513964352));
#1198 = CARTESIAN_POINT('',(3.312616590039,14.971020945311));
#1199 = CARTESIAN_POINT('',(3.305634418181,15.028326104857));
#1200 = CARTESIAN_POINT('',(3.301798088136,15.058048490412));
#1201 = CARTESIAN_POINT('',(3.29779190878,15.087331600434));
#1202 = CARTESIAN_POINT('',(3.293611733994,15.116132472487));
#1203 = CARTESIAN_POINT('',(3.289253248866,15.144401367202));
#1204 = CARTESIAN_POINT('',(3.284711934559,15.172081331395));
#1205 = CARTESIAN_POINT('',(3.274786332783,15.228807737387));
#1206 = CARTESIAN_POINT('',(3.269363712924,15.257714836001));
#1207 = CARTESIAN_POINT('',(3.263708510818,15.2857461912));
#1208 = CARTESIAN_POINT('',(3.257814867159,15.312799129915));
#1209 = CARTESIAN_POINT('',(3.251678159226,15.338752221388));
#1210 = CARTESIAN_POINT('',(3.245295433985,15.363466326746));
#1211 = CARTESIAN_POINT('',(3.233954039614,15.403359218183));
#1212 = CARTESIAN_POINT('',(3.229117980851,15.419226637634));
#1213 = CARTESIAN_POINT('',(3.224157699387,15.434331573711));
#1214 = CARTESIAN_POINT('',(3.219074448601,15.448610972202));
#1215 = CARTESIAN_POINT('',(3.213871009015,15.461997293612));
#1216 = CARTESIAN_POINT('',(3.208551996532,15.474420748882));
#1217 = CARTESIAN_POINT('',(3.194894623365,15.503081988655));
#1218 = CARTESIAN_POINT('',(3.186410614269,15.517987811092));
#1219 = CARTESIAN_POINT('',(3.177702430669,15.530267249245));
#1220 = CARTESIAN_POINT('',(3.168810012525,15.539680193324));
#1221 = CARTESIAN_POINT('',(3.159784078409,15.546031911679));
#1222 = CARTESIAN_POINT('',(3.150686889778,15.549205909172));
#1223 = CARTESIAN_POINT('',(3.14159265359,15.549205909172));
#1224 = ( GEOMETRIC_REPRESENTATION_CONTEXT(2) 
PARAMETRIC_REPRESENTATION_CONTEXT() REPRESENTATION_CONTEXT('2D SPACE',''
  ) );
#1225 = PCURVE('',#1226,#1231);
#1226 = CONICAL_SURFACE('',#1227,3.,1.029744258677);
#1227 = AXIS2_PLACEMENT_3D('',#1228,#1229,#1230);
#1228 = CARTESIAN_POINT('',(-46.,0.,290.43287584792));
#1229 = DIRECTION('',(-0.,-0.,-1.));
#1230 = DIRECTION('',(1.,0.,-0.));
#1231 = DEFINITIONAL_REPRESENTATION('',(#1232),#1403);
#1232 = B_SPLINE_CURVE_WITH_KNOTS('',7,(#1233,#1234,#1235,#1236,#1237,
    #1238,#1239,#1240,#1241,#1242,#1243,#1244,#1245,#1246,#1247,#1248,
    #1249,#1250,#1251,#1252,#1253,#1254,#1255,#1256,#1257,#1258,#1259,
    #1260,#1261,#1262,#1263,#1264,#1265,#1266,#1267,#1268,#1269,#1270,
    #1271,#1272,#1273,#1274,#1275,#1276,#1277,#1278,#1279,#1280,#1281,
    #1282,#1283,#1284,#1285,#1286,#1287,#1288,#1289,#1290,#1291,#1292,
    #1293,#1294,#1295,#1296,#1297,#1298,#1299,#1300,#1301,#1302,#1303,
    #1304,#1305,#1306,#1307,#1308,#1309,#1310,#1311,#1312,#1313,#1314,
    #1315,#1316,#1317,#1318,#1319,#1320,#1321,#1322,#1323,#1324,#1325,
    #1326,#1327,#1328,#1329,#1330,#1331,#1332,#1333,#1334,#1335,#1336,
    #1337,#1338,#1339,#1340,#1341,#1342,#1343,#1344,#1345,#1346,#1347,
    #1348,#1349,#1350,#1351,#1352,#1353,#1354,#1355,#1356,#1357,#1358,
    #1359,#1360,#1361,#1362,#1363,#1364,#1365,#1366,#1367,#1368,#1369,
    #1370,#1371,#1372,#1373,#1374,#1375,#1376,#1377,#1378,#1379,#1380,
    #1381,#1382,#1383,#1384,#1385,#1386,#1387,#1388,#1389,#1390,#1391,
    #1392,#1393,#1394,#1395,#1396,#1397,#1398,#1399,#1400,#1401,#1402),
  .UNSPECIFIED.,.F.,.F.,(8,6,6,6,6,6,6,6,6,6,6,6,6,6,6,6,6,6,6,6,6,6,6,6
    ,6,6,6,6,8),(0.,3.537654639425E-02,5.861052340448E-02,
    9.147359704718E-02,0.121193971823,0.148270415983,0.244864009536,
    0.328084255733,0.351928554167,0.378825471806,0.40863662272,
    0.441396794166,0.464680189217,0.476589773371,0.500112647438,
    0.523389152428,0.535298724953,0.558582097271,0.59134223673,
    0.621153358537,0.648050249914,0.671894525067,0.749984462346,
    0.851933555375,0.87883284388,0.908646622539,0.941409681675,
    0.964695129073,1.),.UNSPECIFIED.);
#1233 = CARTESIAN_POINT('',(-6.28318530718,-0.871725035497));
#1234 = CARTESIAN_POINT('',(-6.24809591277,-0.871725035497));
#1235 = CARTESIAN_POINT('',(-6.212995119583,-0.872302983221));
#1236 = CARTESIAN_POINT('',(-6.17801297007,-0.873459690901));
#1237 = CARTESIAN_POINT('',(-6.143233373385,-0.875166967039));
#1238 = CARTESIAN_POINT('',(-6.108716541079,-0.877376496482));
#1239 = CARTESIAN_POINT('',(-6.074511460519,-0.880028172829));
#1240 = CARTESIAN_POINT('',(-6.01842500087,-0.885047682319));
#1241 = CARTESIAN_POINT('',(-5.996335745558,-0.887201247734));
#1242 = CARTESIAN_POINT('',(-5.974393770065,-0.889501251397));
#1243 = CARTESIAN_POINT('',(-5.952598906869,-0.891930286945));
#1244 = CARTESIAN_POINT('',(-5.930948018891,-0.894471388717));
#1245 = CARTESIAN_POINT('',(-5.909435327423,-0.897108550766));
#1246 = CARTESIAN_POINT('',(-5.85780834654,-0.903672677831));
#1247 = CARTESIAN_POINT('',(-5.827828294048,-0.907680702702));
#1248 = CARTESIAN_POINT('',(-5.798085507395,-0.91181020409));
#1249 = CARTESIAN_POINT('',(-5.768554857082,-0.916024278089));
#1250 = CARTESIAN_POINT('',(-5.73921158432,-0.920290299623));
#1251 = CARTESIAN_POINT('',(-5.710029726068,-0.924579988767));
#1252 = CARTESIAN_POINT('',(-5.654709330498,-0.932748761227));
#1253 = CARTESIAN_POINT('',(-5.628549445225,-0.936627432369));
#1254 = CARTESIAN_POINT('',(-5.602481396998,-0.940487474578));
#1255 = CARTESIAN_POINT('',(-5.576488652147,-0.944312893763));
#1256 = CARTESIAN_POINT('',(-5.550556754295,-0.948089533833));
#1257 = CARTESIAN_POINT('',(-5.524672448083,-0.951804892853));
#1258 = CARTESIAN_POINT('',(-5.47527274739,-0.958766899416));
#1259 = CARTESIAN_POINT('',(-5.451752245493,-0.962025729878));
#1260 = CARTESIAN_POINT('',(-5.428252091103,-0.965216026297));
#1261 = CARTESIAN_POINT('',(-5.404764653106,-0.968330210474));
#1262 = CARTESIAN_POINT('',(-5.381283537143,-0.971361456762));
#1263 = CARTESIAN_POINT('',(-5.3578032474,-0.974303618522));
#1264 = CARTESIAN_POINT('',(-5.250539660919,-0.987309568967));
#1265 = CARTESIAN_POINT('',(-5.166732394361,-0.996260767122));
#1266 = CARTESIAN_POINT('',(-5.082639141395,-1.003758980274));
#1267 = CARTESIAN_POINT('',(-4.9982382834,-1.009636683909));
#1268 = CARTESIAN_POINT('',(-4.913593905232,-1.013786562461));
#1269 = CARTESIAN_POINT('',(-4.828814083475,-1.01615419611));
#1270 = CARTESIAN_POINT('',(-4.670873921219,-1.017220756195));
#1271 = CARTESIAN_POINT('',(-4.597715847852,-1.016382409761));
#1272 = CARTESIAN_POINT('',(-4.524611657473,-1.014202570218));
#1273 = CARTESIAN_POINT('',(-4.45166496591,-1.010703119059));
#1274 = CARTESIAN_POINT('',(-4.378945929851,-1.005933623883));
#1275 = CARTESIAN_POINT('',(-4.306457265201,-0.99996996716));
#1276 = CARTESIAN_POINT('',(-4.213353010194,-0.990894029366));
#1277 = CARTESIAN_POINT('',(-4.192631118325,-0.988783527853));
#1278 = CARTESIAN_POINT('',(-4.171921472845,-0.986586421026));
#1279 = CARTESIAN_POINT('',(-4.151222496529,-0.984305602963));
#1280 = CARTESIAN_POINT('',(-4.130532105039,-0.981944263801));
#1281 = CARTESIAN_POINT('',(-4.109847706924,-0.979505889738));
#1282 = CARTESIAN_POINT('',(-4.065836991705,-0.974161090274));
#1283 = CARTESIAN_POINT('',(-4.042511653484,-0.971234753292));
#1284 = CARTESIAN_POINT('',(-4.019185324368,-0.968220702247));
#1285 = CARTESIAN_POINT('',(-3.995852590941,-0.96512497879));
#1286 = CARTESIAN_POINT('',(-3.972507163027,-0.961954287381));
#1287 = CARTESIAN_POINT('',(-3.949141545751,-0.958716066615));
#1288 = CARTESIAN_POINT('',(-3.899817088704,-0.951763775544));
#1289 = CARTESIAN_POINT('',(-3.873852563442,-0.948036301679));
#1290 = CARTESIAN_POINT('',(-3.847840038631,-0.944247273973));
#1291 = CARTESIAN_POINT('',(-3.82176610856,-0.940409319161));
#1292 = CARTESIAN_POINT('',(-3.79561616769,-0.936536742737));
#1293 = CARTESIAN_POINT('',(-3.769373519352,-0.932645715996));
#1294 = CARTESIAN_POINT('',(-3.714056319768,-0.924478274187));
#1295 = CARTESIAN_POINT('',(-3.684961888242,-0.920202363993));
#1296 = CARTESIAN_POINT('',(-3.655706641629,-0.915950421246));
#1297 = CARTESIAN_POINT('',(-3.626264810687,-0.911750508358));
#1298 = CARTESIAN_POINT('',(-3.596611857404,-0.907634989977));
#1299 = CARTESIAN_POINT('',(-3.566722927224,-0.903640461557));
#1300 = CARTESIAN_POINT('',(-3.515141858528,-0.897083631877));
#1301 = CARTESIAN_POINT('',(-3.493581711951,-0.894441546654));
#1302 = CARTESIAN_POINT('',(-3.471882722532,-0.891896047424));
#1303 = CARTESIAN_POINT('',(-3.450039087184,-0.889463251777));
#1304 = CARTESIAN_POINT('',(-3.428047672083,-0.887160243541));
#1305 = CARTESIAN_POINT('',(-3.405908346001,-0.8850045466));
#1306 = CARTESIAN_POINT('',(-3.372225908985,-0.881995217959));
#1307 = CARTESIAN_POINT('',(-3.36078984723,-0.881019932393));
#1308 = CARTESIAN_POINT('',(-3.349316730872,-0.880090123836));
#1309 = CARTESIAN_POINT('',(-3.337807504345,-0.879208098395));
#1310 = CARTESIAN_POINT('',(-3.326263454026,-0.878376086467));
#1311 = CARTESIAN_POINT('',(-3.314686208233,-0.877596242735));
#1312 = CARTESIAN_POINT('',(-3.280149598167,-0.8754375049));
#1313 = CARTESIAN_POINT('',(-3.257096552466,-0.874215706836));
#1314 = CARTESIAN_POINT('',(-3.233938951495,-0.873221318927));
#1315 = CARTESIAN_POINT('',(-3.210698001047,-0.872467697632));
#1316 = CARTESIAN_POINT('',(-3.187397543472,-0.871964576635));
#1317 = CARTESIAN_POINT('',(-3.164065839826,-0.871717154556));
#1318 = CARTESIAN_POINT('',(-3.117653197346,-0.87173312669));
#1319 = CARTESIAN_POINT('',(-3.09456750005,-0.87199120033));
#1320 = CARTESIAN_POINT('',(-3.071513532848,-0.87249943211));
#1321 = CARTESIAN_POINT('',(-3.048518615989,-0.873252644691));
#1322 = CARTESIAN_POINT('',(-3.025605807112,-0.874241328215));
#1323 = CARTESIAN_POINT('',(-3.002795591102,-0.875452513658));
#1324 = CARTESIAN_POINT('',(-2.968499098947,-0.877596242735));
#1325 = CARTESIAN_POINT('',(-2.956921853154,-0.878376086467));
#1326 = CARTESIAN_POINT('',(-2.945377802835,-0.879208098395));
#1327 = CARTESIAN_POINT('',(-2.933868576309,-0.880090123836));
#1328 = CARTESIAN_POINT('',(-2.922395459951,-0.881019932393));
#1329 = CARTESIAN_POINT('',(-2.910959398196,-0.881995217959));
#1330 = CARTESIAN_POINT('',(-2.877276961179,-0.8850045466));
#1331 = CARTESIAN_POINT('',(-2.855137635098,-0.887160243541));
#1332 = CARTESIAN_POINT('',(-2.833146219997,-0.889463251777));
#1333 = CARTESIAN_POINT('',(-2.811302584648,-0.891896047424));
#1334 = CARTESIAN_POINT('',(-2.789603595229,-0.894441546654));
#1335 = CARTESIAN_POINT('',(-2.768043448652,-0.897083631877));
#1336 = CARTESIAN_POINT('',(-2.716462379957,-0.903640461557));
#1337 = CARTESIAN_POINT('',(-2.686573449776,-0.907634989977));
#1338 = CARTESIAN_POINT('',(-2.656920496494,-0.911750508357));
#1339 = CARTESIAN_POINT('',(-2.627478665552,-0.915950421246));
#1340 = CARTESIAN_POINT('',(-2.598223418938,-0.920202363993));
#1341 = CARTESIAN_POINT('',(-2.569128987412,-0.924478274187));
#1342 = CARTESIAN_POINT('',(-2.513811787829,-0.932645715996));
#1343 = CARTESIAN_POINT('',(-2.487569139491,-0.936536742737));
#1344 = CARTESIAN_POINT('',(-2.461419198621,-0.940409319161));
#1345 = CARTESIAN_POINT('',(-2.43534526855,-0.944247273973));
#1346 = CARTESIAN_POINT('',(-2.409332743739,-0.948036301679));
#1347 = CARTESIAN_POINT('',(-2.383368218477,-0.951763775544));
#1348 = CARTESIAN_POINT('',(-2.33404376143,-0.958716066615));
#1349 = CARTESIAN_POINT('',(-2.310678144154,-0.961954287381));
#1350 = CARTESIAN_POINT('',(-2.28733271624,-0.96512497879));
#1351 = CARTESIAN_POINT('',(-2.263999982814,-0.968220702247));
#1352 = CARTESIAN_POINT('',(-2.240673653697,-0.971234753292));
#1353 = CARTESIAN_POINT('',(-2.217348315477,-0.974161090273));
#1354 = CARTESIAN_POINT('',(-2.173337600257,-0.979505889738));
#1355 = CARTESIAN_POINT('',(-2.152653202142,-0.981944263801));
#1356 = CARTESIAN_POINT('',(-2.131962810653,-0.984305602963));
#1357 = CARTESIAN_POINT('',(-2.111263834337,-0.986586421026));
#1358 = CARTESIAN_POINT('',(-2.090554188857,-0.988783527853));
#1359 = CARTESIAN_POINT('',(-2.069832296988,-0.990894029366));
#1360 = CARTESIAN_POINT('',(-1.981189336731,-0.999535073678));
#1361 = CARTESIAN_POINT('',(-1.913142684534,-1.005197481438));
#1362 = CARTESIAN_POINT('',(-1.84490888481,-1.009811301054));
#1363 = CARTESIAN_POINT('',(-1.776504638287,-1.01331225549));
#1364 = CARTESIAN_POINT('',(-1.707980574235,-1.01565965993));
#1365 = CARTESIAN_POINT('',(-1.639395781482,-1.016833759031));
#1366 = CARTESIAN_POINT('',(-1.481240988163,-1.016833811899));
#1367 = CARTESIAN_POINT('',(-1.391731098636,-1.014832677209));
#1368 = CARTESIAN_POINT('',(-1.302345494076,-1.010834341824));
#1369 = CARTESIAN_POINT('',(-1.213219035671,-1.004893216869));
#1370 = CARTESIAN_POINT('',(-1.124438742616,-0.997128305037));
#1371 = CARTESIAN_POINT('',(-1.035991947981,-0.987732070941));
#1372 = CARTESIAN_POINT('',(-0.924244338117,-0.974161090274));
#1373 = CARTESIAN_POINT('',(-0.900918999896,-0.971234753292));
#1374 = CARTESIAN_POINT('',(-0.87759267078,-0.968220702247));
#1375 = CARTESIAN_POINT('',(-0.854259937353,-0.96512497879));
#1376 = CARTESIAN_POINT('',(-0.830914509439,-0.961954287381));
#1377 = CARTESIAN_POINT('',(-0.807548892162,-0.958716066615));
#1378 = CARTESIAN_POINT('',(-0.758224435116,-0.951763775545));
#1379 = CARTESIAN_POINT('',(-0.732259909854,-0.94803630168));
#1380 = CARTESIAN_POINT('',(-0.706247385042,-0.944247273973));
#1381 = CARTESIAN_POINT('',(-0.680173454971,-0.940409319162));
#1382 = CARTESIAN_POINT('',(-0.654023514101,-0.936536742737));
#1383 = CARTESIAN_POINT('',(-0.627780865763,-0.932645715996));
#1384 = CARTESIAN_POINT('',(-0.57246366618,-0.924478274187));
#1385 = CARTESIAN_POINT('',(-0.543369234654,-0.920202363993));
#1386 = CARTESIAN_POINT('',(-0.51411398804,-0.915950421246));
#1387 = CARTESIAN_POINT('',(-0.484672157098,-0.911750508358));
#1388 = CARTESIAN_POINT('',(-0.455019203815,-0.907634989977));
#1389 = CARTESIAN_POINT('',(-0.425130273635,-0.903640461557));
#1390 = CARTESIAN_POINT('',(-0.373549204939,-0.897083631877));
#1391 = CARTESIAN_POINT('',(-0.351989058362,-0.894441546654));
#1392 = CARTESIAN_POINT('',(-0.330290068943,-0.891896047425));
#1393 = CARTESIAN_POINT('',(-0.308446433595,-0.889463251777));
#1394 = CARTESIAN_POINT('',(-0.286455018494,-0.887160243541));
#1395 = CARTESIAN_POINT('',(-0.264315692412,-0.8850045466));
#1396 = CARTESIAN_POINT('',(-0.208245112061,-0.879994968366));
#1397 = CARTESIAN_POINT('',(-0.174108262691,-0.877353442806));
#1398 = CARTESIAN_POINT('',(-0.139661303233,-0.875152713387));
#1399 = CARTESIAN_POINT('',(-0.104953054438,-0.873452446433));
#1400 = CARTESIAN_POINT('',(-7.004348799942E-02,-0.872300570889));
#1401 = CARTESIAN_POINT('',(-3.501608052387E-02,-0.871725035497));
#1402 = CARTESIAN_POINT('',(0.,-0.871725035497));
#1403 = ( GEOMETRIC_REPRESENTATION_CONTEXT(2) 
PARAMETRIC_REPRESENTATION_CONTEXT() REPRESENTATION_CONTEXT('2D SPACE',''
  ) );
#1404 = ADVANCED_FACE('',(#1405,#1411),#233,.T.);
#1405 = FACE_BOUND('',#1406,.T.);
#1406 = EDGE_LOOP('',(#1407,#1408,#1409,#1410));
#1407 = ORIENTED_EDGE('',*,*,#219,.F.);
#1408 = ORIENTED_EDGE('',*,*,#330,.T.);
#1409 = ORIENTED_EDGE('',*,*,#411,.T.);
#1410 = ORIENTED_EDGE('',*,*,#250,.F.);
#1411 = FACE_BOUND('',#1412,.T.);
#1412 = EDGE_LOOP('',(#1413));
#1413 = ORIENTED_EDGE('',*,*,#645,.F.);
#1414 = ADVANCED_FACE('',(#1415),#313,.F.);
#1415 = FACE_BOUND('',#1416,.F.);
#1416 = EDGE_LOOP('',(#1417,#1418,#1439,#1440,#1441));
#1417 = ORIENTED_EDGE('',*,*,#296,.F.);
#1418 = ORIENTED_EDGE('',*,*,#1419,.F.);
#1419 = EDGE_CURVE('',#436,#297,#1420,.T.);
#1420 = SEAM_CURVE('',#1421,(#1425,#1432),.PCURVE_S1.);
#1421 = LINE('',#1422,#1423);
#1422 = CARTESIAN_POINT('',(-43.,-7.347880794884E-16,297.26960088342));
#1423 = VECTOR('',#1424,1.);
#1424 = DIRECTION('',(0.,0.,1.));
#1425 = PCURVE('',#313,#1426);
#1426 = DEFINITIONAL_REPRESENTATION('',(#1427),#1431);
#1427 = LINE('',#1428,#1429);
#1428 = CARTESIAN_POINT('',(6.28318530718,-0.));
#1429 = VECTOR('',#1430,1.);
#1430 = DIRECTION('',(0.,1.));
#1431 = ( GEOMETRIC_REPRESENTATION_CONTEXT(2) 
PARAMETRIC_REPRESENTATION_CONTEXT() REPRESENTATION_CONTEXT('2D SPACE',''
  ) );
#1432 = PCURVE('',#313,#1433);
#1433 = DEFINITIONAL_REPRESENTATION('',(#1434),#1438);
#1434 = LINE('',#1435,#1436);
#1435 = CARTESIAN_POINT('',(0.,-0.));
#1436 = VECTOR('',#1437,1.);
#1437 = DIRECTION('',(0.,1.));
#1438 = ( GEOMETRIC_REPRESENTATION_CONTEXT(2) 
PARAMETRIC_REPRESENTATION_CONTEXT() REPRESENTATION_CONTEXT('2D SPACE',''
  ) );
#1439 = ORIENTED_EDGE('',*,*,#435,.T.);
#1440 = ORIENTED_EDGE('',*,*,#668,.T.);
#1441 = ORIENTED_EDGE('',*,*,#1419,.T.);
#1442 = ADVANCED_FACE('',(#1443),#393,.F.);
#1443 = FACE_BOUND('',#1444,.F.);
#1444 = EDGE_LOOP('',(#1445,#1468,#1489,#1490));
#1445 = ORIENTED_EDGE('',*,*,#1446,.T.);
#1446 = EDGE_CURVE('',#377,#1447,#1449,.T.);
#1447 = VERTEX_POINT('',#1448);
#1448 = CARTESIAN_POINT('',(-43.,-7.347880794884E-16,290.43287584792));
#1449 = SEAM_CURVE('',#1450,(#1454,#1461),.PCURVE_S1.);
#1450 = LINE('',#1451,#1452);
#1451 = CARTESIAN_POINT('',(-43.,-7.347880794884E-16,278.71430036283));
#1452 = VECTOR('',#1453,1.);
#1453 = DIRECTION('',(0.,0.,1.));
#1454 = PCURVE('',#393,#1455);
#1455 = DEFINITIONAL_REPRESENTATION('',(#1456),#1460);
#1456 = LINE('',#1457,#1458);
#1457 = CARTESIAN_POINT('',(6.28318530718,-0.));
#1458 = VECTOR('',#1459,1.);
#1459 = DIRECTION('',(0.,1.));
#1460 = ( GEOMETRIC_REPRESENTATION_CONTEXT(2) 
PARAMETRIC_REPRESENTATION_CONTEXT() REPRESENTATION_CONTEXT('2D SPACE',''
  ) );
#1461 = PCURVE('',#393,#1462);
#1462 = DEFINITIONAL_REPRESENTATION('',(#1463),#1467);
#1463 = LINE('',#1464,#1465);
#1464 = CARTESIAN_POINT('',(0.,-0.));
#1465 = VECTOR('',#1466,1.);
#1466 = DIRECTION('',(0.,1.));
#1467 = ( GEOMETRIC_REPRESENTATION_CONTEXT(2) 
PARAMETRIC_REPRESENTATION_CONTEXT() REPRESENTATION_CONTEXT('2D SPACE',''
  ) );
#1468 = ORIENTED_EDGE('',*,*,#1469,.F.);
#1469 = EDGE_CURVE('',#1447,#1447,#1470,.T.);
#1470 = SURFACE_CURVE('',#1471,(#1476,#1483),.PCURVE_S1.);
#1471 = CIRCLE('',#1472,3.);
#1472 = AXIS2_PLACEMENT_3D('',#1473,#1474,#1475);
#1473 = CARTESIAN_POINT('',(-46.,0.,290.43287584792));
#1474 = DIRECTION('',(0.,0.,1.));
#1475 = DIRECTION('',(1.,0.,-0.));
#1476 = PCURVE('',#393,#1477);
#1477 = DEFINITIONAL_REPRESENTATION('',(#1478),#1482);
#1478 = LINE('',#1479,#1480);
#1479 = CARTESIAN_POINT('',(0.,11.718575485092));
#1480 = VECTOR('',#1481,1.);
#1481 = DIRECTION('',(1.,0.));
#1482 = ( GEOMETRIC_REPRESENTATION_CONTEXT(2) 
PARAMETRIC_REPRESENTATION_CONTEXT() REPRESENTATION_CONTEXT('2D SPACE',''
  ) );
#1483 = PCURVE('',#1226,#1484);
#1484 = DEFINITIONAL_REPRESENTATION('',(#1485),#1488);
#1485 = B_SPLINE_CURVE_WITH_KNOTS('',1,(#1486,#1487),.UNSPECIFIED.,.F.,
  .F.,(2,2),(0.,6.28318530718),.PIECEWISE_BEZIER_KNOTS.);
#1486 = CARTESIAN_POINT('',(0.,0.));
#1487 = CARTESIAN_POINT('',(-6.28318530718,0.));
#1488 = ( GEOMETRIC_REPRESENTATION_CONTEXT(2) 
PARAMETRIC_REPRESENTATION_CONTEXT() REPRESENTATION_CONTEXT('2D SPACE',''
  ) );
#1489 = ORIENTED_EDGE('',*,*,#1446,.F.);
#1490 = ORIENTED_EDGE('',*,*,#376,.T.);
#1491 = ADVANCED_FACE('',(#1492),#1226,.F.);
#1492 = FACE_BOUND('',#1493,.F.);
#1493 = EDGE_LOOP('',(#1494,#1495,#1516,#1517));
#1494 = ORIENTED_EDGE('',*,*,#876,.T.);
#1495 = ORIENTED_EDGE('',*,*,#1496,.F.);
#1496 = EDGE_CURVE('',#1447,#877,#1497,.T.);
#1497 = SEAM_CURVE('',#1498,(#1502,#1509),.PCURVE_S1.);
#1498 = LINE('',#1499,#1500);
#1499 = CARTESIAN_POINT('',(-43.,-7.347880794884E-16,290.43287584792));
#1500 = VECTOR('',#1501,1.);
#1501 = DIRECTION('',(-0.857167300702,2.099454382277E-16,0.51503807491)
  );
#1502 = PCURVE('',#1226,#1503);
#1503 = DEFINITIONAL_REPRESENTATION('',(#1504),#1508);
#1504 = LINE('',#1505,#1506);
#1505 = CARTESIAN_POINT('',(-6.28318530718,0.));
#1506 = VECTOR('',#1507,1.);
#1507 = DIRECTION('',(-0.,-1.));
#1508 = ( GEOMETRIC_REPRESENTATION_CONTEXT(2) 
PARAMETRIC_REPRESENTATION_CONTEXT() REPRESENTATION_CONTEXT('2D SPACE',''
  ) );
#1509 = PCURVE('',#1226,#1510);
#1510 = DEFINITIONAL_REPRESENTATION('',(#1511),#1515);
#1511 = LINE('',#1512,#1513);
#1512 = CARTESIAN_POINT('',(0.,-0.));
#1513 = VECTOR('',#1514,1.);
#1514 = DIRECTION('',(-0.,-1.));
#1515 = ( GEOMETRIC_REPRESENTATION_CONTEXT(2) 
PARAMETRIC_REPRESENTATION_CONTEXT() REPRESENTATION_CONTEXT('2D SPACE',''
  ) );
#1516 = ORIENTED_EDGE('',*,*,#1469,.T.);
#1517 = ORIENTED_EDGE('',*,*,#1496,.T.);
#1518 = ( GEOMETRIC_REPRESENTATION_CONTEXT(3) 
GLOBAL_UNCERTAINTY_ASSIGNED_CONTEXT((#1522)) 
GLOBAL_UNIT_ASSIGNED_CONTEXT((#1519,#1520,#1521)) REPRESENTATION_CONTEXT
('Context #1','3D Context with UNIT and UNCERTAINTY') );
#1519 = ( LENGTH_UNIT() NAMED_UNIT(*) SI_UNIT(.MILLI.,.METRE.) );
#1520 = ( NAMED_UNIT(*) PLANE_ANGLE_UNIT() SI_UNIT($,.RADIAN.) );
#1521 = ( NAMED_UNIT(*) SI_UNIT($,.STERADIAN.) SOLID_ANGLE_UNIT() );
#1522 = UNCERTAINTY_MEASURE_WITH_UNIT(LENGTH_MEASURE(1.E-07),#1519,
  'distance_accuracy_value','confusion accuracy');
#1523 = PRODUCT_RELATED_PRODUCT_CATEGORY('part',$,(#7));
ENDSEC;
END-ISO-10303-21;
