ISO-10303-21;
HEADER;
FILE_DESCRIPTION(('Open CASCADE Model'),'2;1');
FILE_NAME('Open CASCADE Shape Model','2026-09-23T01:58:50',('Author'),(
    'Open CASCADE'),'Open CASCADE STEP processor 7.9','Open CASCADE 7.9'
  ,'Unknown');
FILE_SCHEMA(('AUTOMOTIVE_DESIGN { 1 0 10303 214 1 1 1 1 }'));
ENDSEC;
DATA;
#1 = APPLICATION_PROTOCOL_DEFINITION('international standard',
  'automotive_design',2000,#2);
#2 = APPLICATION_CONTEXT(
  'core data for automotive mechanical design processes');
#3 = SHAPE_DEFINITION_REPRESENTATION(#4,#10);
#4 = PRODUCT_DEFINITION_SHAPE('','',#5);
#5 = PRODUCT_DEFINITION('design','',#6,#9);
#6 = PRODUCT_DEFINITION_FORMATION('','',#7);
#7 = PRODUCT('Open CASCADE STEP translator 7.9 63',
  'Open CASCADE STEP translator 7.9 63','',(#8));
#8 = PRODUCT_CONTEXT('',#2,'mechanical');
#9 = PRODUCT_DEFINITION_CONTEXT('part definition',#2,'design');
#10 = ADVANCED_BREP_SHAPE_REPRESENTATION('',(#11,#15),#1535);
#11 = AXIS2_PLACEMENT_3D('',#12,#13,#14);
#12 = CARTESIAN_POINT('',(0.,0.,0.));
#13 = DIRECTION('',(0.,0.,1.));
#14 = DIRECTION('',(1.,0.,-0.));
#15 = MANIFOLD_SOLID_BREP('',#16);
#16 = CLOSED_SHELL('',(#17,#172,#248,#332,#416,#443,#1420,#1430,#1458,
    #1508));
#17 = ADVANCED_FACE('',(#18,#137),#32,.F.);
#18 = FACE_BOUND('',#19,.T.);
#19 = EDGE_LOOP('',(#20,#55,#83,#111));
#20 = ORIENTED_EDGE('',*,*,#21,.F.);
#21 = EDGE_CURVE('',#22,#24,#26,.T.);
#22 = VERTEX_POINT('',#23);
#23 = CARTESIAN_POINT('',(53.34,-10.2,279.71430036283));
#24 = VERTEX_POINT('',#25);
#25 = CARTESIAN_POINT('',(53.34,-10.2,308.15554503865));
#26 = SURFACE_CURVE('',#27,(#31,#43),.PCURVE_S1.);
#27 = LINE('',#28,#29);
#28 = CARTESIAN_POINT('',(53.34,-10.2,279.71430036283));
#29 = VECTOR('',#30,1.);
#30 = DIRECTION('',(-0.,-0.,1.));
#31 = PCURVE('',#32,#37);
#32 = PLANE('',#33);
#33 = AXIS2_PLACEMENT_3D('',#34,#35,#36);
#34 = CARTESIAN_POINT('',(53.34,-10.2,279.71430036283));
#35 = DIRECTION('',(-1.,-0.,-0.));
#36 = DIRECTION('',(0.,0.,-1.));
#37 = DEFINITIONAL_REPRESENTATION('',(#38),#42);
#38 = LINE('',#39,#40);
#39 = CARTESIAN_POINT('',(-0.,-0.));
#40 = VECTOR('',#41,1.);
#41 = DIRECTION('',(-1.,-0.));
#42 = ( GEOMETRIC_REPRESENTATION_CONTEXT(2) 
PARAMETRIC_REPRESENTATION_CONTEXT() REPRESENTATION_CONTEXT('2D SPACE',''
  ) );
#43 = PCURVE('',#44,#49);
#44 = PLANE('',#45);
#45 = AXIS2_PLACEMENT_3D('',#46,#47,#48);
#46 = CARTESIAN_POINT('',(53.34,-10.2,279.71430036283));
#47 = DIRECTION('',(-0.,1.,-0.));
#48 = DIRECTION('',(0.,0.,-1.));
#49 = DEFINITIONAL_REPRESENTATION('',(#50),#54);
#50 = LINE('',#51,#52);
#51 = CARTESIAN_POINT('',(-0.,-0.));
#52 = VECTOR('',#53,1.);
#53 = DIRECTION('',(-1.,0.));
#54 = ( GEOMETRIC_REPRESENTATION_CONTEXT(2) 
PARAMETRIC_REPRESENTATION_CONTEXT() REPRESENTATION_CONTEXT('2D SPACE',''
  ) );
#55 = ORIENTED_EDGE('',*,*,#56,.T.);
#56 = EDGE_CURVE('',#22,#57,#59,.T.);
#57 = VERTEX_POINT('',#58);
#58 = CARTESIAN_POINT('',(53.34,10.2,279.71430036283));
#59 = SURFACE_CURVE('',#60,(#64,#71),.PCURVE_S1.);
#60 = LINE('',#61,#62);
#61 = CARTESIAN_POINT('',(53.34,-10.2,279.71430036283));
#62 = VECTOR('',#63,1.);
#63 = DIRECTION('',(-0.,1.,-0.));
#64 = PCURVE('',#32,#65);
#65 = DEFINITIONAL_REPRESENTATION('',(#66),#70);
#66 = LINE('',#67,#68);
#67 = CARTESIAN_POINT('',(-0.,-0.));
#68 = VECTOR('',#69,1.);
#69 = DIRECTION('',(-0.,-1.));
#70 = ( GEOMETRIC_REPRESENTATION_CONTEXT(2) 
PARAMETRIC_REPRESENTATION_CONTEXT() REPRESENTATION_CONTEXT('2D SPACE',''
  ) );
#71 = PCURVE('',#72,#77);
#72 = PLANE('',#73);
#73 = AXIS2_PLACEMENT_3D('',#74,#75,#76);
#74 = CARTESIAN_POINT('',(53.34,-10.2,279.71430036283));
#75 = DIRECTION('',(-0.,-0.,1.));
#76 = DIRECTION('',(1.,0.,0.));
#77 = DEFINITIONAL_REPRESENTATION('',(#78),#82);
#78 = LINE('',#79,#80);
#79 = CARTESIAN_POINT('',(0.,-0.));
#80 = VECTOR('',#81,1.);
#81 = DIRECTION('',(-0.,1.));
#82 = ( GEOMETRIC_REPRESENTATION_CONTEXT(2) 
PARAMETRIC_REPRESENTATION_CONTEXT() REPRESENTATION_CONTEXT('2D SPACE',''
  ) );
#83 = ORIENTED_EDGE('',*,*,#84,.T.);
#84 = EDGE_CURVE('',#57,#85,#87,.T.);
#85 = VERTEX_POINT('',#86);
#86 = CARTESIAN_POINT('',(53.34,10.2,308.15554503865));
#87 = SURFACE_CURVE('',#88,(#92,#99),.PCURVE_S1.);
#88 = LINE('',#89,#90);
#89 = CARTESIAN_POINT('',(53.34,10.2,279.71430036283));
#90 = VECTOR('',#91,1.);
#91 = DIRECTION('',(-0.,-0.,1.));
#92 = PCURVE('',#32,#93);
#93 = DEFINITIONAL_REPRESENTATION('',(#94),#98);
#94 = LINE('',#95,#96);
#95 = CARTESIAN_POINT('',(-0.,-20.4));
#96 = VECTOR('',#97,1.);
#97 = DIRECTION('',(-1.,-0.));
#98 = ( GEOMETRIC_REPRESENTATION_CONTEXT(2) 
PARAMETRIC_REPRESENTATION_CONTEXT() REPRESENTATION_CONTEXT('2D SPACE',''
  ) );
#99 = PCURVE('',#100,#105);
#100 = PLANE('',#101);
#101 = AXIS2_PLACEMENT_3D('',#102,#103,#104);
#102 = CARTESIAN_POINT('',(53.34,10.2,279.71430036283));
#103 = DIRECTION('',(-0.,1.,-0.));
#104 = DIRECTION('',(0.,0.,-1.));
#105 = DEFINITIONAL_REPRESENTATION('',(#106),#110);
#106 = LINE('',#107,#108);
#107 = CARTESIAN_POINT('',(-0.,-0.));
#108 = VECTOR('',#109,1.);
#109 = DIRECTION('',(-1.,0.));
#110 = ( GEOMETRIC_REPRESENTATION_CONTEXT(2) 
PARAMETRIC_REPRESENTATION_CONTEXT() REPRESENTATION_CONTEXT('2D SPACE',''
  ) );
#111 = ORIENTED_EDGE('',*,*,#112,.F.);
#112 = EDGE_CURVE('',#24,#85,#113,.T.);
#113 = SURFACE_CURVE('',#114,(#118,#125),.PCURVE_S1.);
#114 = LINE('',#115,#116);
#115 = CARTESIAN_POINT('',(53.34,-10.2,308.15554503865));
#116 = VECTOR('',#117,1.);
#117 = DIRECTION('',(-0.,1.,-0.));
#118 = PCURVE('',#32,#119);
#119 = DEFINITIONAL_REPRESENTATION('',(#120),#124);
#120 = LINE('',#121,#122);
#121 = CARTESIAN_POINT('',(-28.44124467581,-0.));
#122 = VECTOR('',#123,1.);
#123 = DIRECTION('',(-0.,-1.));
#124 = ( GEOMETRIC_REPRESENTATION_CONTEXT(2) 
PARAMETRIC_REPRESENTATION_CONTEXT() REPRESENTATION_CONTEXT('2D SPACE',''
  ) );
#125 = PCURVE('',#126,#131);
#126 = PLANE('',#127);
#127 = AXIS2_PLACEMENT_3D('',#128,#129,#130);
#128 = CARTESIAN_POINT('',(53.34,-10.2,308.15554503865));
#129 = DIRECTION('',(-0.,-0.,1.));
#130 = DIRECTION('',(1.,0.,0.));
#131 = DEFINITIONAL_REPRESENTATION('',(#132),#136);
#132 = LINE('',#133,#134);
#133 = CARTESIAN_POINT('',(0.,-0.));
#134 = VECTOR('',#135,1.);
#135 = DIRECTION('',(-0.,1.));
#136 = ( GEOMETRIC_REPRESENTATION_CONTEXT(2) 
PARAMETRIC_REPRESENTATION_CONTEXT() REPRESENTATION_CONTEXT('2D SPACE',''
  ) );
#137 = FACE_BOUND('',#138,.T.);
#138 = EDGE_LOOP('',(#139));
#139 = ORIENTED_EDGE('',*,*,#140,.F.);
#140 = EDGE_CURVE('',#141,#141,#143,.T.);
#141 = VERTEX_POINT('',#142);
#142 = CARTESIAN_POINT('',(53.34,1.461003631383E-15,303.23460088342));
#143 = SURFACE_CURVE('',#144,(#149,#160),.PCURVE_S1.);
#144 = CIRCLE('',#145,5.965);
#145 = AXIS2_PLACEMENT_3D('',#146,#147,#148);
#146 = CARTESIAN_POINT('',(53.34,0.,297.26960088342));
#147 = DIRECTION('',(1.,-0.,0.));
#148 = DIRECTION('',(-0.,-0.,1.));
#149 = PCURVE('',#32,#150);
#150 = DEFINITIONAL_REPRESENTATION('',(#151),#159);
#151 = ( BOUNDED_CURVE() B_SPLINE_CURVE(2,(#152,#153,#154,#155,#156,#157
,#158),.UNSPECIFIED.,.T.,.F.) B_SPLINE_CURVE_WITH_KNOTS((1,2,2,2,2,1),(
    -2.094395102393,0.,2.094395102393,4.188790204786,6.28318530718,
8.377580409573),.UNSPECIFIED.) CURVE() GEOMETRIC_REPRESENTATION_ITEM() 
RATIONAL_B_SPLINE_CURVE((1.,0.5,1.,0.5,1.,0.5,1.)) REPRESENTATION_ITEM(
  '') );
#152 = CARTESIAN_POINT('',(-23.52030052058,-10.2));
#153 = CARTESIAN_POINT('',(-23.52030052058,0.131683067148));
#154 = CARTESIAN_POINT('',(-14.57280052058,-5.034158466426));
#155 = CARTESIAN_POINT('',(-5.625300520587,-10.2));
#156 = CARTESIAN_POINT('',(-14.57280052058,-15.36584153357));
#157 = CARTESIAN_POINT('',(-23.52030052058,-20.53168306714));
#158 = CARTESIAN_POINT('',(-23.52030052058,-10.2));
#159 = ( GEOMETRIC_REPRESENTATION_CONTEXT(2) 
PARAMETRIC_REPRESENTATION_CONTEXT() REPRESENTATION_CONTEXT('2D SPACE',''
  ) );
#160 = PCURVE('',#161,#166);
#161 = CYLINDRICAL_SURFACE('',#162,5.965);
#162 = AXIS2_PLACEMENT_3D('',#163,#164,#165);
#163 = CARTESIAN_POINT('',(60.,0.,297.26960088342));
#164 = DIRECTION('',(-1.,-0.,-0.));
#165 = DIRECTION('',(-0.,-0.,1.));
#166 = DEFINITIONAL_REPRESENTATION('',(#167),#171);
#167 = LINE('',#168,#169);
#168 = CARTESIAN_POINT('',(-0.,6.66));
#169 = VECTOR('',#170,1.);
#170 = DIRECTION('',(-1.,0.));
#171 = ( GEOMETRIC_REPRESENTATION_CONTEXT(2) 
PARAMETRIC_REPRESENTATION_CONTEXT() REPRESENTATION_CONTEXT('2D SPACE',''
  ) );
#172 = ADVANCED_FACE('',(#173),#44,.F.);
#173 = FACE_BOUND('',#174,.T.);
#174 = EDGE_LOOP('',(#175,#198,#199,#222));
#175 = ORIENTED_EDGE('',*,*,#176,.F.);
#176 = EDGE_CURVE('',#22,#177,#179,.T.);
#177 = VERTEX_POINT('',#178);
#178 = CARTESIAN_POINT('',(37.05,-10.2,279.71430036283));
#179 = SURFACE_CURVE('',#180,(#184,#191),.PCURVE_S1.);
#180 = LINE('',#181,#182);
#181 = CARTESIAN_POINT('',(53.34,-10.2,279.71430036283));
#182 = VECTOR('',#183,1.);
#183 = DIRECTION('',(-1.,-0.,-0.));
#184 = PCURVE('',#44,#185);
#185 = DEFINITIONAL_REPRESENTATION('',(#186),#190);
#186 = LINE('',#187,#188);
#187 = CARTESIAN_POINT('',(-0.,-0.));
#188 = VECTOR('',#189,1.);
#189 = DIRECTION('',(-0.,1.));
#190 = ( GEOMETRIC_REPRESENTATION_CONTEXT(2) 
PARAMETRIC_REPRESENTATION_CONTEXT() REPRESENTATION_CONTEXT('2D SPACE',''
  ) );
#191 = PCURVE('',#72,#192);
#192 = DEFINITIONAL_REPRESENTATION('',(#193),#197);
#193 = LINE('',#194,#195);
#194 = CARTESIAN_POINT('',(0.,-0.));
#195 = VECTOR('',#196,1.);
#196 = DIRECTION('',(-1.,0.));
#197 = ( GEOMETRIC_REPRESENTATION_CONTEXT(2) 
PARAMETRIC_REPRESENTATION_CONTEXT() REPRESENTATION_CONTEXT('2D SPACE',''
  ) );
#198 = ORIENTED_EDGE('',*,*,#21,.T.);
#199 = ORIENTED_EDGE('',*,*,#200,.T.);
#200 = EDGE_CURVE('',#24,#201,#203,.T.);
#201 = VERTEX_POINT('',#202);
#202 = CARTESIAN_POINT('',(37.05,-10.2,308.15554503865));
#203 = SURFACE_CURVE('',#204,(#208,#215),.PCURVE_S1.);
#204 = LINE('',#205,#206);
#205 = CARTESIAN_POINT('',(53.34,-10.2,308.15554503865));
#206 = VECTOR('',#207,1.);
#207 = DIRECTION('',(-1.,-0.,-0.));
#208 = PCURVE('',#44,#209);
#209 = DEFINITIONAL_REPRESENTATION('',(#210),#214);
#210 = LINE('',#211,#212);
#211 = CARTESIAN_POINT('',(-28.44124467581,-0.));
#212 = VECTOR('',#213,1.);
#213 = DIRECTION('',(-0.,1.));
#214 = ( GEOMETRIC_REPRESENTATION_CONTEXT(2) 
PARAMETRIC_REPRESENTATION_CONTEXT() REPRESENTATION_CONTEXT('2D SPACE',''
  ) );
#215 = PCURVE('',#126,#216);
#216 = DEFINITIONAL_REPRESENTATION('',(#217),#221);
#217 = LINE('',#218,#219);
#218 = CARTESIAN_POINT('',(0.,-0.));
#219 = VECTOR('',#220,1.);
#220 = DIRECTION('',(-1.,0.));
#221 = ( GEOMETRIC_REPRESENTATION_CONTEXT(2) 
PARAMETRIC_REPRESENTATION_CONTEXT() REPRESENTATION_CONTEXT('2D SPACE',''
  ) );
#222 = ORIENTED_EDGE('',*,*,#223,.F.);
#223 = EDGE_CURVE('',#177,#201,#224,.T.);
#224 = SURFACE_CURVE('',#225,(#229,#236),.PCURVE_S1.);
#225 = LINE('',#226,#227);
#226 = CARTESIAN_POINT('',(37.05,-10.2,279.71430036283));
#227 = VECTOR('',#228,1.);
#228 = DIRECTION('',(-0.,-0.,1.));
#229 = PCURVE('',#44,#230);
#230 = DEFINITIONAL_REPRESENTATION('',(#231),#235);
#231 = LINE('',#232,#233);
#232 = CARTESIAN_POINT('',(-0.,16.29));
#233 = VECTOR('',#234,1.);
#234 = DIRECTION('',(-1.,0.));
#235 = ( GEOMETRIC_REPRESENTATION_CONTEXT(2) 
PARAMETRIC_REPRESENTATION_CONTEXT() REPRESENTATION_CONTEXT('2D SPACE',''
  ) );
#236 = PCURVE('',#237,#242);
#237 = PLANE('',#238);
#238 = AXIS2_PLACEMENT_3D('',#239,#240,#241);
#239 = CARTESIAN_POINT('',(37.05,-10.2,279.71430036283));
#240 = DIRECTION('',(-1.,-0.,-0.));
#241 = DIRECTION('',(0.,0.,-1.));
#242 = DEFINITIONAL_REPRESENTATION('',(#243),#247);
#243 = LINE('',#244,#245);
#244 = CARTESIAN_POINT('',(-0.,-0.));
#245 = VECTOR('',#246,1.);
#246 = DIRECTION('',(-1.,-0.));
#247 = ( GEOMETRIC_REPRESENTATION_CONTEXT(2) 
PARAMETRIC_REPRESENTATION_CONTEXT() REPRESENTATION_CONTEXT('2D SPACE',''
  ) );
#248 = ADVANCED_FACE('',(#249,#297),#126,.T.);
#249 = FACE_BOUND('',#250,.F.);
#250 = EDGE_LOOP('',(#251,#252,#253,#276));
#251 = ORIENTED_EDGE('',*,*,#112,.F.);
#252 = ORIENTED_EDGE('',*,*,#200,.T.);
#253 = ORIENTED_EDGE('',*,*,#254,.T.);
#254 = EDGE_CURVE('',#201,#255,#257,.T.);
#255 = VERTEX_POINT('',#256);
#256 = CARTESIAN_POINT('',(37.05,10.2,308.15554503865));
#257 = SURFACE_CURVE('',#258,(#262,#269),.PCURVE_S1.);
#258 = LINE('',#259,#260);
#259 = CARTESIAN_POINT('',(37.05,-10.2,308.15554503865));
#260 = VECTOR('',#261,1.);
#261 = DIRECTION('',(-0.,1.,-0.));
#262 = PCURVE('',#126,#263);
#263 = DEFINITIONAL_REPRESENTATION('',(#264),#268);
#264 = LINE('',#265,#266);
#265 = CARTESIAN_POINT('',(-16.29,0.));
#266 = VECTOR('',#267,1.);
#267 = DIRECTION('',(-0.,1.));
#268 = ( GEOMETRIC_REPRESENTATION_CONTEXT(2) 
PARAMETRIC_REPRESENTATION_CONTEXT() REPRESENTATION_CONTEXT('2D SPACE',''
  ) );
#269 = PCURVE('',#237,#270);
#270 = DEFINITIONAL_REPRESENTATION('',(#271),#275);
#271 = LINE('',#272,#273);
#272 = CARTESIAN_POINT('',(-28.44124467581,-0.));
#273 = VECTOR('',#274,1.);
#274 = DIRECTION('',(-0.,-1.));
#275 = ( GEOMETRIC_REPRESENTATION_CONTEXT(2) 
PARAMETRIC_REPRESENTATION_CONTEXT() REPRESENTATION_CONTEXT('2D SPACE',''
  ) );
#276 = ORIENTED_EDGE('',*,*,#277,.F.);
#277 = EDGE_CURVE('',#85,#255,#278,.T.);
#278 = SURFACE_CURVE('',#279,(#283,#290),.PCURVE_S1.);
#279 = LINE('',#280,#281);
#280 = CARTESIAN_POINT('',(53.34,10.2,308.15554503865));
#281 = VECTOR('',#282,1.);
#282 = DIRECTION('',(-1.,-0.,-0.));
#283 = PCURVE('',#126,#284);
#284 = DEFINITIONAL_REPRESENTATION('',(#285),#289);
#285 = LINE('',#286,#287);
#286 = CARTESIAN_POINT('',(0.,20.4));
#287 = VECTOR('',#288,1.);
#288 = DIRECTION('',(-1.,0.));
#289 = ( GEOMETRIC_REPRESENTATION_CONTEXT(2) 
PARAMETRIC_REPRESENTATION_CONTEXT() REPRESENTATION_CONTEXT('2D SPACE',''
  ) );
#290 = PCURVE('',#100,#291);
#291 = DEFINITIONAL_REPRESENTATION('',(#292),#296);
#292 = LINE('',#293,#294);
#293 = CARTESIAN_POINT('',(-28.44124467581,-0.));
#294 = VECTOR('',#295,1.);
#295 = DIRECTION('',(-0.,1.));
#296 = ( GEOMETRIC_REPRESENTATION_CONTEXT(2) 
PARAMETRIC_REPRESENTATION_CONTEXT() REPRESENTATION_CONTEXT('2D SPACE',''
  ) );
#297 = FACE_BOUND('',#298,.F.);
#298 = EDGE_LOOP('',(#299));
#299 = ORIENTED_EDGE('',*,*,#300,.F.);
#300 = EDGE_CURVE('',#301,#301,#303,.T.);
#301 = VERTEX_POINT('',#302);
#302 = CARTESIAN_POINT('',(43.,-7.347880794884E-16,308.15554503865));
#303 = SURFACE_CURVE('',#304,(#309,#320),.PCURVE_S1.);
#304 = CIRCLE('',#305,3.);
#305 = AXIS2_PLACEMENT_3D('',#306,#307,#308);
#306 = CARTESIAN_POINT('',(46.,0.,308.15554503865));
#307 = DIRECTION('',(0.,0.,-1.));
#308 = DIRECTION('',(-1.,-0.,-0.));
#309 = PCURVE('',#126,#310);
#310 = DEFINITIONAL_REPRESENTATION('',(#311),#319);
#311 = ( BOUNDED_CURVE() B_SPLINE_CURVE(2,(#312,#313,#314,#315,#316,#317
,#318),.UNSPECIFIED.,.T.,.F.) B_SPLINE_CURVE_WITH_KNOTS((1,2,2,2,2,1),(
    -2.094395102393,0.,2.094395102393,4.188790204786,6.28318530718,
8.377580409573),.UNSPECIFIED.) CURVE() GEOMETRIC_REPRESENTATION_ITEM() 
RATIONAL_B_SPLINE_CURVE((1.,0.5,1.,0.5,1.,0.5,1.)) REPRESENTATION_ITEM(
  '') );
#312 = CARTESIAN_POINT('',(-10.34,10.2));
#313 = CARTESIAN_POINT('',(-10.34,15.396152422707));
#314 = CARTESIAN_POINT('',(-5.84,12.798076211353));
#315 = CARTESIAN_POINT('',(-1.34,10.2));
#316 = CARTESIAN_POINT('',(-5.84,7.601923788647));
#317 = CARTESIAN_POINT('',(-10.34,5.003847577293));
#318 = CARTESIAN_POINT('',(-10.34,10.2));
#319 = ( GEOMETRIC_REPRESENTATION_CONTEXT(2) 
PARAMETRIC_REPRESENTATION_CONTEXT() REPRESENTATION_CONTEXT('2D SPACE',''
  ) );
#320 = PCURVE('',#321,#326);
#321 = CYLINDRICAL_SURFACE('',#322,3.);
#322 = AXIS2_PLACEMENT_3D('',#323,#324,#325);
#323 = CARTESIAN_POINT('',(46.,0.,297.26960088342));
#324 = DIRECTION('',(-0.,-0.,1.));
#325 = DIRECTION('',(-1.,-0.,-0.));
#326 = DEFINITIONAL_REPRESENTATION('',(#327),#331);
#327 = LINE('',#328,#329);
#328 = CARTESIAN_POINT('',(-0.,10.88594415523));
#329 = VECTOR('',#330,1.);
#330 = DIRECTION('',(-1.,0.));
#331 = ( GEOMETRIC_REPRESENTATION_CONTEXT(2) 
PARAMETRIC_REPRESENTATION_CONTEXT() REPRESENTATION_CONTEXT('2D SPACE',''
  ) );
#332 = ADVANCED_FACE('',(#333,#381),#72,.F.);
#333 = FACE_BOUND('',#334,.T.);
#334 = EDGE_LOOP('',(#335,#336,#337,#360));
#335 = ORIENTED_EDGE('',*,*,#56,.F.);
#336 = ORIENTED_EDGE('',*,*,#176,.T.);
#337 = ORIENTED_EDGE('',*,*,#338,.T.);
#338 = EDGE_CURVE('',#177,#339,#341,.T.);
#339 = VERTEX_POINT('',#340);
#340 = CARTESIAN_POINT('',(37.05,10.2,279.71430036283));
#341 = SURFACE_CURVE('',#342,(#346,#353),.PCURVE_S1.);
#342 = LINE('',#343,#344);
#343 = CARTESIAN_POINT('',(37.05,-10.2,279.71430036283));
#344 = VECTOR('',#345,1.);
#345 = DIRECTION('',(-0.,1.,-0.));
#346 = PCURVE('',#72,#347);
#347 = DEFINITIONAL_REPRESENTATION('',(#348),#352);
#348 = LINE('',#349,#350);
#349 = CARTESIAN_POINT('',(-16.29,0.));
#350 = VECTOR('',#351,1.);
#351 = DIRECTION('',(-0.,1.));
#352 = ( GEOMETRIC_REPRESENTATION_CONTEXT(2) 
PARAMETRIC_REPRESENTATION_CONTEXT() REPRESENTATION_CONTEXT('2D SPACE',''
  ) );
#353 = PCURVE('',#237,#354);
#354 = DEFINITIONAL_REPRESENTATION('',(#355),#359);
#355 = LINE('',#356,#357);
#356 = CARTESIAN_POINT('',(-0.,-0.));
#357 = VECTOR('',#358,1.);
#358 = DIRECTION('',(-0.,-1.));
#359 = ( GEOMETRIC_REPRESENTATION_CONTEXT(2) 
PARAMETRIC_REPRESENTATION_CONTEXT() REPRESENTATION_CONTEXT('2D SPACE',''
  ) );
#360 = ORIENTED_EDGE('',*,*,#361,.F.);
#361 = EDGE_CURVE('',#57,#339,#362,.T.);
#362 = SURFACE_CURVE('',#363,(#367,#374),.PCURVE_S1.);
#363 = LINE('',#364,#365);
#364 = CARTESIAN_POINT('',(53.34,10.2,279.71430036283));
#365 = VECTOR('',#366,1.);
#366 = DIRECTION('',(-1.,-0.,-0.));
#367 = PCURVE('',#72,#368);
#368 = DEFINITIONAL_REPRESENTATION('',(#369),#373);
#369 = LINE('',#370,#371);
#370 = CARTESIAN_POINT('',(0.,20.4));
#371 = VECTOR('',#372,1.);
#372 = DIRECTION('',(-1.,0.));
#373 = ( GEOMETRIC_REPRESENTATION_CONTEXT(2) 
PARAMETRIC_REPRESENTATION_CONTEXT() REPRESENTATION_CONTEXT('2D SPACE',''
  ) );
#374 = PCURVE('',#100,#375);
#375 = DEFINITIONAL_REPRESENTATION('',(#376),#380);
#376 = LINE('',#377,#378);
#377 = CARTESIAN_POINT('',(-0.,-0.));
#378 = VECTOR('',#379,1.);
#379 = DIRECTION('',(-0.,1.));
#380 = ( GEOMETRIC_REPRESENTATION_CONTEXT(2) 
PARAMETRIC_REPRESENTATION_CONTEXT() REPRESENTATION_CONTEXT('2D SPACE',''
  ) );
#381 = FACE_BOUND('',#382,.T.);
#382 = EDGE_LOOP('',(#383));
#383 = ORIENTED_EDGE('',*,*,#384,.F.);
#384 = EDGE_CURVE('',#385,#385,#387,.T.);
#385 = VERTEX_POINT('',#386);
#386 = CARTESIAN_POINT('',(43.,-7.347880794884E-16,279.71430036283));
#387 = SURFACE_CURVE('',#388,(#393,#404),.PCURVE_S1.);
#388 = CIRCLE('',#389,3.);
#389 = AXIS2_PLACEMENT_3D('',#390,#391,#392);
#390 = CARTESIAN_POINT('',(46.,0.,279.71430036283));
#391 = DIRECTION('',(0.,0.,-1.));
#392 = DIRECTION('',(-1.,-0.,-0.));
#393 = PCURVE('',#72,#394);
#394 = DEFINITIONAL_REPRESENTATION('',(#395),#403);
#395 = ( BOUNDED_CURVE() B_SPLINE_CURVE(2,(#396,#397,#398,#399,#400,#401
,#402),.UNSPECIFIED.,.T.,.F.) B_SPLINE_CURVE_WITH_KNOTS((1,2,2,2,2,1),(
    -2.094395102393,0.,2.094395102393,4.188790204786,6.28318530718,
8.377580409573),.UNSPECIFIED.) CURVE() GEOMETRIC_REPRESENTATION_ITEM() 
RATIONAL_B_SPLINE_CURVE((1.,0.5,1.,0.5,1.,0.5,1.)) REPRESENTATION_ITEM(
  '') );
#396 = CARTESIAN_POINT('',(-10.34,10.2));
#397 = CARTESIAN_POINT('',(-10.34,15.396152422707));
#398 = CARTESIAN_POINT('',(-5.84,12.798076211353));
#399 = CARTESIAN_POINT('',(-1.34,10.2));
#400 = CARTESIAN_POINT('',(-5.84,7.601923788647));
#401 = CARTESIAN_POINT('',(-10.34,5.003847577293));
#402 = CARTESIAN_POINT('',(-10.34,10.2));
#403 = ( GEOMETRIC_REPRESENTATION_CONTEXT(2) 
PARAMETRIC_REPRESENTATION_CONTEXT() REPRESENTATION_CONTEXT('2D SPACE',''
  ) );
#404 = PCURVE('',#405,#410);
#405 = CYLINDRICAL_SURFACE('',#406,3.);
#406 = AXIS2_PLACEMENT_3D('',#407,#408,#409);
#407 = CARTESIAN_POINT('',(46.,0.,278.71430036283));
#408 = DIRECTION('',(-0.,-0.,1.));
#409 = DIRECTION('',(-1.,-0.,-0.));
#410 = DEFINITIONAL_REPRESENTATION('',(#411),#415);
#411 = LINE('',#412,#413);
#412 = CARTESIAN_POINT('',(-0.,1.));
#413 = VECTOR('',#414,1.);
#414 = DIRECTION('',(-1.,0.));
#415 = ( GEOMETRIC_REPRESENTATION_CONTEXT(2) 
PARAMETRIC_REPRESENTATION_CONTEXT() REPRESENTATION_CONTEXT('2D SPACE',''
  ) );
#416 = ADVANCED_FACE('',(#417),#100,.T.);
#417 = FACE_BOUND('',#418,.F.);
#418 = EDGE_LOOP('',(#419,#420,#421,#422));
#419 = ORIENTED_EDGE('',*,*,#361,.F.);
#420 = ORIENTED_EDGE('',*,*,#84,.T.);
#421 = ORIENTED_EDGE('',*,*,#277,.T.);
#422 = ORIENTED_EDGE('',*,*,#423,.F.);
#423 = EDGE_CURVE('',#339,#255,#424,.T.);
#424 = SURFACE_CURVE('',#425,(#429,#436),.PCURVE_S1.);
#425 = LINE('',#426,#427);
#426 = CARTESIAN_POINT('',(37.05,10.2,279.71430036283));
#427 = VECTOR('',#428,1.);
#428 = DIRECTION('',(-0.,-0.,1.));
#429 = PCURVE('',#100,#430);
#430 = DEFINITIONAL_REPRESENTATION('',(#431),#435);
#431 = LINE('',#432,#433);
#432 = CARTESIAN_POINT('',(-0.,16.29));
#433 = VECTOR('',#434,1.);
#434 = DIRECTION('',(-1.,0.));
#435 = ( GEOMETRIC_REPRESENTATION_CONTEXT(2) 
PARAMETRIC_REPRESENTATION_CONTEXT() REPRESENTATION_CONTEXT('2D SPACE',''
  ) );
#436 = PCURVE('',#237,#437);
#437 = DEFINITIONAL_REPRESENTATION('',(#438),#442);
#438 = LINE('',#439,#440);
#439 = CARTESIAN_POINT('',(-0.,-20.4));
#440 = VECTOR('',#441,1.);
#441 = DIRECTION('',(-1.,-0.));
#442 = ( GEOMETRIC_REPRESENTATION_CONTEXT(2) 
PARAMETRIC_REPRESENTATION_CONTEXT() REPRESENTATION_CONTEXT('2D SPACE',''
  ) );
#443 = ADVANCED_FACE('',(#444,#889),#161,.F.);
#444 = FACE_BOUND('',#445,.T.);
#445 = EDGE_LOOP('',(#446,#633,#656,#682,#683,#866,#887,#888));
#446 = ORIENTED_EDGE('',*,*,#447,.F.);
#447 = EDGE_CURVE('',#448,#450,#452,.T.);
#448 = VERTEX_POINT('',#449);
#449 = CARTESIAN_POINT('',(43.,3.631077759472E-16,303.23460088342));
#450 = VERTEX_POINT('',#451);
#451 = CARTESIAN_POINT('',(49.,1.461003631383E-15,303.23460088342));
#452 = SURFACE_CURVE('',#453,(#511,#572),.PCURVE_S1.);
#453 = B_SPLINE_CURVE_WITH_KNOTS('',6,(#454,#455,#456,#457,#458,#459,
    #460,#461,#462,#463,#464,#465,#466,#467,#468,#469,#470,#471,#472,
    #473,#474,#475,#476,#477,#478,#479,#480,#481,#482,#483,#484,#485,
    #486,#487,#488,#489,#490,#491,#492,#493,#494,#495,#496,#497,#498,
    #499,#500,#501,#502,#503,#504,#505,#506,#507,#508,#509,#510),
  .UNSPECIFIED.,.F.,.F.,(7,5,5,5,5,5,5,5,5,5,5,7),(0.,0.119213919767,
    0.17264768027,0.24305219222,0.332762600964,0.412176912318,
    0.499810519537,0.587975744698,0.667094866716,0.825565710437,
    0.924284984615,1.),.UNSPECIFIED.);
#454 = CARTESIAN_POINT('',(43.,3.631077759472E-16,303.23460088342));
#455 = CARTESIAN_POINT('',(43.,0.229174040304,303.23460088342));
#456 = CARTESIAN_POINT('',(43.021008447501,0.456449158025,
    303.22403495853));
#457 = CARTESIAN_POINT('',(43.062371586024,0.678210503982,
    303.20323238864));
#458 = CARTESIAN_POINT('',(43.122342940655,0.890962551821,
    303.17348433605));
#459 = CARTESIAN_POINT('',(43.198091711522,1.091545763882,
    303.13696234281));
#460 = CARTESIAN_POINT('',(43.324705209367,1.360613142985,
    303.07797629526));
#461 = CARTESIAN_POINT('',(43.366412507953,1.441288243817,
    303.05879350927));
#462 = CARTESIAN_POINT('',(43.410440363818,1.519351798108,303.038840537)
  );
#463 = CARTESIAN_POINT('',(43.456602396564,1.594801386094,
    303.01826749211));
#464 = CARTESIAN_POINT('',(43.504725715574,1.667643097426,
    302.99721679367));
#465 = CARTESIAN_POINT('',(43.620431377187,1.83045007341,302.94763217628
    ));
#466 = CARTESIAN_POINT('',(43.68935332926,1.918525633722,302.9188390783)
  );
#467 = CARTESIAN_POINT('',(43.761096810147,2.002206070032,
    302.88972954742));
#468 = CARTESIAN_POINT('',(43.835389932925,2.081581533732,
    302.86056321973));
#469 = CARTESIAN_POINT('',(43.912008186899,2.15674309548,302.83157433942
    ));
#470 = CARTESIAN_POINT('',(44.091139038622,2.318300353238,
    302.76653004491));
#471 = CARTESIAN_POINT('',(44.195006351589,2.40213904037,302.73071109799
    ));
#472 = CARTESIAN_POINT('',(44.301976763217,2.479445761528,
    302.69596670954));
#473 = CARTESIAN_POINT('',(44.411717736752,2.550342700884,
    302.66270273902));
#474 = CARTESIAN_POINT('',(44.523962189787,2.614925658638,
    302.63128414629));
#475 = CARTESIAN_POINT('',(44.739905592397,2.72490562543,302.57614886818
    ));
#476 = CARTESIAN_POINT('',(44.843101877443,2.771651074617,
    302.55196338939));
#477 = CARTESIAN_POINT('',(44.947880001109,2.813508240767,
    302.52972817105));
#478 = CARTESIAN_POINT('',(45.05404111459,2.850483173308,302.50966187131
    ));
#479 = CARTESIAN_POINT('',(45.161402964427,2.882576059508,
    302.49195200648));
#480 = CARTESIAN_POINT('',(45.389414775358,2.939794983888,
    302.45997782913));
#481 = CARTESIAN_POINT('',(45.510282057164,2.963854119661,
    302.44626080275));
#482 = CARTESIAN_POINT('',(45.632080889994,2.981919830137,
    302.43582004656));
#483 = CARTESIAN_POINT('',(45.754500206761,2.993971791146,
    302.42880668445));
#484 = CARTESIAN_POINT('',(45.877237819805,3.,302.42529918723));
#485 = CARTESIAN_POINT('',(46.123506901081,3.,302.42529918723));
#486 = CARTESIAN_POINT('',(46.246988490375,2.993898431007,
    302.42884936434));
#487 = CARTESIAN_POINT('',(46.370145970257,2.981699912082,
    302.43594802514));
#488 = CARTESIAN_POINT('',(46.492671833787,2.963414647093,
    302.44651478343));
#489 = CARTESIAN_POINT('',(46.614249426566,2.939063368487,
    302.46039489426));
#490 = CARTESIAN_POINT('',(46.842512015399,2.881418414159,
    302.49259122631));
#491 = CARTESIAN_POINT('',(46.949439329196,2.849300149073,
    302.51030546423));
#492 = CARTESIAN_POINT('',(47.05517028965,2.812336275501,302.53035435246
    ));
#493 = CARTESIAN_POINT('',(47.159524799271,2.770526431785,
    302.55255199611));
#494 = CARTESIAN_POINT('',(47.26230635042,2.723864409782,302.57668189666
    ));
#495 = CARTESIAN_POINT('',(47.565588868555,2.569144089047,
    302.65421299109));
#496 = CARTESIAN_POINT('',(47.760501375521,2.446551412405,
    302.71264699029));
#497 = CARTESIAN_POINT('',(47.947085351481,2.304194379074,
    302.77600254072));
#498 = CARTESIAN_POINT('',(48.123837151147,2.141229017381,
    302.84221927715));
#499 = CARTESIAN_POINT('',(48.288374869727,1.956618801272,
    302.90873309113));
#500 = CARTESIAN_POINT('',(48.529701512325,1.620444690768,
    303.01186536967));
#501 = CARTESIAN_POINT('',(48.616425533336,1.482329690287,
    303.05040291676));
#502 = CARTESIAN_POINT('',(48.696035954447,1.335212259462,
    303.08697809766));
#503 = CARTESIAN_POINT('',(48.767281849074,1.17928042339,303.1205939054)
  );
#504 = CARTESIAN_POINT('',(48.828840664774,1.014858206529,
    303.15021517401));
#505 = CARTESIAN_POINT('',(48.917983588953,0.710181987871,
    303.19367988211));
#506 = CARTESIAN_POINT('',(48.950140635603,0.573228837311,
    303.20959107036));
#507 = CARTESIAN_POINT('',(48.974880313579,0.432608070439,
    303.22196734279));
#508 = CARTESIAN_POINT('',(48.991608594599,0.289428447525,
    303.23038056272));
#509 = CARTESIAN_POINT('',(49.,0.144839476245,303.23460088342));
#510 = CARTESIAN_POINT('',(49.,1.281592875308E-15,303.23460088342));
#511 = PCURVE('',#161,#512);
#512 = DEFINITIONAL_REPRESENTATION('',(#513),#571);
#513 = B_SPLINE_CURVE_WITH_KNOTS('',6,(#514,#515,#516,#517,#518,#519,
    #520,#521,#522,#523,#524,#525,#526,#527,#528,#529,#530,#531,#532,
    #533,#534,#535,#536,#537,#538,#539,#540,#541,#542,#543,#544,#545,
    #546,#547,#548,#549,#550,#551,#552,#553,#554,#555,#556,#557,#558,
    #559,#560,#561,#562,#563,#564,#565,#566,#567,#568,#569,#570),
  .UNSPECIFIED.,.F.,.F.,(7,5,5,5,5,5,5,5,5,5,5,7),(0.,0.119213919767,
    0.17264768027,0.24305219222,0.332762600964,0.412176912318,
    0.499810519537,0.587975744698,0.667094866716,0.825565710437,
    0.924284984615,1.),.UNSPECIFIED.);
#514 = CARTESIAN_POINT('',(-6.28318530718,17.));
#515 = CARTESIAN_POINT('',(-6.244765518361,17.));
#516 = CARTESIAN_POINT('',(-6.206664008745,16.978991552499));
#517 = CARTESIAN_POINT('',(-6.169385159898,16.937628413976));
#518 = CARTESIAN_POINT('',(-6.133419764971,16.877657059345));
#519 = CARTESIAN_POINT('',(-6.099261936793,16.801908288478));
#520 = CARTESIAN_POINT('',(-6.053083044963,16.675294790633));
#521 = CARTESIAN_POINT('',(-6.039183383998,16.633587492047));
#522 = CARTESIAN_POINT('',(-6.025678474096,16.589559636182));
#523 = CARTESIAN_POINT('',(-6.012570290703,16.543397603436));
#524 = CARTESIAN_POINT('',(-5.999860364624,16.495274284426));
#525 = CARTESIAN_POINT('',(-5.971328877276,16.379568622813));
#526 = CARTESIAN_POINT('',(-5.955797706787,16.31064667074));
#527 = CARTESIAN_POINT('',(-5.940948271075,16.238903189853));
#528 = CARTESIAN_POINT('',(-5.926774329496,16.164610067075));
#529 = CARTESIAN_POINT('',(-5.913270643945,16.087991813101));
#530 = CARTESIAN_POINT('',(-5.884073756756,15.908860961378));
#531 = CARTESIAN_POINT('',(-5.86879300363,15.804993648411));
#532 = CARTESIAN_POINT('',(-5.854587506796,15.698023236783));
#533 = CARTESIAN_POINT('',(-5.841460868805,15.588282263248));
#534 = CARTESIAN_POINT('',(-5.829421532819,15.476037810213));
#535 = CARTESIAN_POINT('',(-5.808796824124,15.260094407603));
#536 = CARTESIAN_POINT('',(-5.799974153166,15.156898122557));
#537 = CARTESIAN_POINT('',(-5.792028974232,15.052119998891));
#538 = CARTESIAN_POINT('',(-5.784976603375,14.94595888541));
#539 = CARTESIAN_POINT('',(-5.778831673074,14.838597035573));
#540 = CARTESIAN_POINT('',(-5.767843144373,14.610585224642));
#541 = CARTESIAN_POINT('',(-5.763200430204,14.489717942836));
#542 = CARTESIAN_POINT('',(-5.759702453139,14.367919110006));
#543 = CARTESIAN_POINT('',(-5.757364771423,14.245499793239));
#544 = CARTESIAN_POINT('',(-5.756195567925,14.122762180195));
#545 = CARTESIAN_POINT('',(-5.756195567925,13.876493098919));
#546 = CARTESIAN_POINT('',(-5.757378999355,13.753011509625));
#547 = CARTESIAN_POINT('',(-5.759745110334,13.629854029743));
#548 = CARTESIAN_POINT('',(-5.76328552313,13.507328166213));
#549 = CARTESIAN_POINT('',(-5.767984319781,13.385750573434));
#550 = CARTESIAN_POINT('',(-5.779053363744,13.157487984601));
#551 = CARTESIAN_POINT('',(-5.785202372889,13.050560670804));
#552 = CARTESIAN_POINT('',(-5.792251721385,12.94482971035));
#553 = CARTESIAN_POINT('',(-5.800186941512,12.840475200729));
#554 = CARTESIAN_POINT('',(-5.808992914551,12.73769364958));
#555 = CARTESIAN_POINT('',(-5.838005335155,12.434411131445));
#556 = CARTESIAN_POINT('',(-5.860768197366,12.239498624479));
#557 = CARTESIAN_POINT('',(-5.886875924247,12.052914648519));
#558 = CARTESIAN_POINT('',(-5.916336676463,11.876162848853));
#559 = CARTESIAN_POINT('',(-5.949194963918,11.711625130273));
#560 = CARTESIAN_POINT('',(-6.008145177385,11.470298487675));
#561 = CARTESIAN_POINT('',(-6.032176051513,11.383574466664));
#562 = CARTESIAN_POINT('',(-6.057573939061,11.303964045553));
#563 = CARTESIAN_POINT('',(-6.084293925797,11.232718150926));
#564 = CARTESIAN_POINT('',(-6.112283403876,11.171159335226));
#565 = CARTESIAN_POINT('',(-6.163877856882,11.082016411047));
#566 = CARTESIAN_POINT('',(-6.186983911251,11.049859364397));
#567 = CARTESIAN_POINT('',(-6.210635154067,11.025119686421));
#568 = CARTESIAN_POINT('',(-6.234664187597,11.008391405401));
#569 = CARTESIAN_POINT('',(-6.258903752067,11.));
#570 = CARTESIAN_POINT('',(-6.28318530718,11.));
#571 = ( GEOMETRIC_REPRESENTATION_CONTEXT(2) 
PARAMETRIC_REPRESENTATION_CONTEXT() REPRESENTATION_CONTEXT('2D SPACE',''
  ) );
#572 = PCURVE('',#321,#573);
#573 = DEFINITIONAL_REPRESENTATION('',(#574),#632);
#574 = B_SPLINE_CURVE_WITH_KNOTS('',6,(#575,#576,#577,#578,#579,#580,
    #581,#582,#583,#584,#585,#586,#587,#588,#589,#590,#591,#592,#593,
    #594,#595,#596,#597,#598,#599,#600,#601,#602,#603,#604,#605,#606,
    #607,#608,#609,#610,#611,#612,#613,#614,#615,#616,#617,#618,#619,
    #620,#621,#622,#623,#624,#625,#626,#627,#628,#629,#630,#631),
  .UNSPECIFIED.,.F.,.F.,(7,5,5,5,5,5,5,5,5,5,5,7),(0.,0.119213919767,
    0.17264768027,0.24305219222,0.332762600964,0.412176912318,
    0.499810519537,0.587975744698,0.667094866716,0.825565710437,
    0.924284984615,1.),.UNSPECIFIED.);
#575 = CARTESIAN_POINT('',(0.,5.965));
#576 = CARTESIAN_POINT('',(-7.639134676807E-02,5.965));
#577 = CARTESIAN_POINT('',(-0.152149647636,5.954434075119));
#578 = CARTESIAN_POINT('',(-0.226872914875,5.933631505221));
#579 = CARTESIAN_POINT('',(-0.300129777828,5.903883452629));
#580 = CARTESIAN_POINT('',(-0.371378174858,5.867361459391));
#581 = CARTESIAN_POINT('',(-0.470501124513,5.808375411845));
#582 = CARTESIAN_POINT('',(-0.500752837787,5.789192625859));
#583 = CARTESIAN_POINT('',(-0.530598175139,5.769239653585));
#584 = CARTESIAN_POINT('',(-0.560054779688,5.748666608693));
#585 = CARTESIAN_POINT('',(-0.589138831623,5.727615910258));
#586 = CARTESIAN_POINT('',(-0.655717032559,5.678031292862));
#587 = CARTESIAN_POINT('',(-0.692956431185,5.649238194881));
#588 = CARTESIAN_POINT('',(-0.729644002892,5.620128664));
#589 = CARTESIAN_POINT('',(-0.765833855219,5.590962336313));
#590 = CARTESIAN_POINT('',(-0.801578863458,5.561973456004));
#591 = CARTESIAN_POINT('',(-0.881986581145,5.496929161499));
#592 = CARTESIAN_POINT('',(-0.926413792188,5.461110214573));
#593 = CARTESIAN_POINT('',(-0.970315292252,5.42636582612));
#594 = CARTESIAN_POINT('',(-1.013778373548,5.393101855609));
#595 = CARTESIAN_POINT('',(-1.05688812397,5.361683262874));
#596 = CARTESIAN_POINT('',(-1.137667072154,5.306547984766));
#597 = CARTESIAN_POINT('',(-1.175390894353,5.282362505971));
#598 = CARTESIAN_POINT('',(-1.212943330026,5.260127287639));
#599 = CARTESIAN_POINT('',(-1.250359079414,5.240060987897));
#600 = CARTESIAN_POINT('',(-1.287673902621,5.222351123066));
#601 = CARTESIAN_POINT('',(-1.366034459048,5.190376945712));
#602 = CARTESIAN_POINT('',(-1.407063880534,5.176659919332));
#603 = CARTESIAN_POINT('',(-1.448033313234,5.166219163142));
#604 = CARTESIAN_POINT('',(-1.488963046643,5.159205801038));
#605 = CARTESIAN_POINT('',(-1.529875600063,5.155698303819));
#606 = CARTESIAN_POINT('',(-1.611965293822,5.155698303819));
#607 = CARTESIAN_POINT('',(-1.653125839971,5.159248480921));
#608 = CARTESIAN_POINT('',(-1.694303884215,5.166347141722));
#609 = CARTESIAN_POINT('',(-1.735522426931,5.176913900011));
#610 = CARTESIAN_POINT('',(-1.776802175443,5.190794010848));
#611 = CARTESIAN_POINT('',(-1.855278463596,5.222990342893));
#612 = CARTESIAN_POINT('',(-1.892457370952,5.240704580814));
#613 = CARTESIAN_POINT('',(-1.929737137802,5.260753469045));
#614 = CARTESIAN_POINT('',(-1.967153234043,5.282951112691));
#615 = CARTESIAN_POINT('',(-2.004740096551,5.307081013245));
#616 = CARTESIAN_POINT('',(-2.118229529957,5.384612107671));
#617 = CARTESIAN_POINT('',(-2.194674650214,5.443046106875));
#618 = CARTESIAN_POINT('',(-2.272419806525,5.506401657301));
#619 = CARTESIAN_POINT('',(-2.352010434127,5.572618393738));
#620 = CARTESIAN_POINT('',(-2.433984483499,5.63913220771));
#621 = CARTESIAN_POINT('',(-2.571926331553,5.742264486253));
#622 = CARTESIAN_POINT('',(-2.62618361588,5.780802033345));
#623 = CARTESIAN_POINT('',(-2.681764100586,5.81737721424));
#624 = CARTESIAN_POINT('',(-2.738704409011,5.850993021983));
#625 = CARTESIAN_POINT('',(-2.797069025585,5.880614290592));
#626 = CARTESIAN_POINT('',(-2.902885459483,5.924078998699));
#627 = CARTESIAN_POINT('',(-2.949709667525,5.939990186949));
#628 = CARTESIAN_POINT('',(-2.997187374925,5.952366459371));
#629 = CARTESIAN_POINT('',(-3.045116509345,5.960779679307));
#630 = CARTESIAN_POINT('',(-3.093312828175,5.965));
#631 = CARTESIAN_POINT('',(-3.14159265359,5.965));
#632 = ( GEOMETRIC_REPRESENTATION_CONTEXT(2) 
PARAMETRIC_REPRESENTATION_CONTEXT() REPRESENTATION_CONTEXT('2D SPACE',''
  ) );
#633 = ORIENTED_EDGE('',*,*,#634,.T.);
#634 = EDGE_CURVE('',#448,#635,#637,.T.);
#635 = VERTEX_POINT('',#636);
#636 = CARTESIAN_POINT('',(37.05,1.461003631383E-15,303.23460088342));
#637 = SEAM_CURVE('',#638,(#642,#649),.PCURVE_S1.);
#638 = LINE('',#639,#640);
#639 = CARTESIAN_POINT('',(60.,1.461003631383E-15,303.23460088342));
#640 = VECTOR('',#641,1.);
#641 = DIRECTION('',(-1.,-0.,-0.));
#642 = PCURVE('',#161,#643);
#643 = DEFINITIONAL_REPRESENTATION('',(#644),#648);
#644 = LINE('',#645,#646);
#645 = CARTESIAN_POINT('',(-0.,-0.));
#646 = VECTOR('',#647,1.);
#647 = DIRECTION('',(-0.,1.));
#648 = ( GEOMETRIC_REPRESENTATION_CONTEXT(2) 
PARAMETRIC_REPRESENTATION_CONTEXT() REPRESENTATION_CONTEXT('2D SPACE',''
  ) );
#649 = PCURVE('',#161,#650);
#650 = DEFINITIONAL_REPRESENTATION('',(#651),#655);
#651 = LINE('',#652,#653);
#652 = CARTESIAN_POINT('',(-6.28318530718,-0.));
#653 = VECTOR('',#654,1.);
#654 = DIRECTION('',(-0.,1.));
#655 = ( GEOMETRIC_REPRESENTATION_CONTEXT(2) 
PARAMETRIC_REPRESENTATION_CONTEXT() REPRESENTATION_CONTEXT('2D SPACE',''
  ) );
#656 = ORIENTED_EDGE('',*,*,#657,.F.);
#657 = EDGE_CURVE('',#635,#635,#658,.T.);
#658 = SURFACE_CURVE('',#659,(#664,#671),.PCURVE_S1.);
#659 = CIRCLE('',#660,5.965);
#660 = AXIS2_PLACEMENT_3D('',#661,#662,#663);
#661 = CARTESIAN_POINT('',(37.05,0.,297.26960088342));
#662 = DIRECTION('',(1.,-0.,0.));
#663 = DIRECTION('',(-0.,-0.,1.));
#664 = PCURVE('',#161,#665);
#665 = DEFINITIONAL_REPRESENTATION('',(#666),#670);
#666 = LINE('',#667,#668);
#667 = CARTESIAN_POINT('',(-0.,22.95));
#668 = VECTOR('',#669,1.);
#669 = DIRECTION('',(-1.,0.));
#670 = ( GEOMETRIC_REPRESENTATION_CONTEXT(2) 
PARAMETRIC_REPRESENTATION_CONTEXT() REPRESENTATION_CONTEXT('2D SPACE',''
  ) );
#671 = PCURVE('',#237,#672);
#672 = DEFINITIONAL_REPRESENTATION('',(#673),#681);
#673 = ( BOUNDED_CURVE() B_SPLINE_CURVE(2,(#674,#675,#676,#677,#678,#679
,#680),.UNSPECIFIED.,.T.,.F.) B_SPLINE_CURVE_WITH_KNOTS((1,2,2,2,2,1),(
    -2.094395102393,0.,2.094395102393,4.188790204786,6.28318530718,
8.377580409573),.UNSPECIFIED.) CURVE() GEOMETRIC_REPRESENTATION_ITEM() 
RATIONAL_B_SPLINE_CURVE((1.,0.5,1.,0.5,1.,0.5,1.)) REPRESENTATION_ITEM(
  '') );
#674 = CARTESIAN_POINT('',(-23.52030052058,-10.2));
#675 = CARTESIAN_POINT('',(-23.52030052058,0.131683067148));
#676 = CARTESIAN_POINT('',(-14.57280052058,-5.034158466426));
#677 = CARTESIAN_POINT('',(-5.625300520587,-10.2));
#678 = CARTESIAN_POINT('',(-14.57280052058,-15.36584153357));
#679 = CARTESIAN_POINT('',(-23.52030052058,-20.53168306714));
#680 = CARTESIAN_POINT('',(-23.52030052058,-10.2));
#681 = ( GEOMETRIC_REPRESENTATION_CONTEXT(2) 
PARAMETRIC_REPRESENTATION_CONTEXT() REPRESENTATION_CONTEXT('2D SPACE',''
  ) );
#682 = ORIENTED_EDGE('',*,*,#634,.F.);
#683 = ORIENTED_EDGE('',*,*,#684,.F.);
#684 = EDGE_CURVE('',#450,#448,#685,.T.);
#685 = SURFACE_CURVE('',#686,(#744,#805),.PCURVE_S1.);
#686 = B_SPLINE_CURVE_WITH_KNOTS('',6,(#687,#688,#689,#690,#691,#692,
    #693,#694,#695,#696,#697,#698,#699,#700,#701,#702,#703,#704,#705,
    #706,#707,#708,#709,#710,#711,#712,#713,#714,#715,#716,#717,#718,
    #719,#720,#721,#722,#723,#724,#725,#726,#727,#728,#729,#730,#731,
    #732,#733,#734,#735,#736,#737,#738,#739,#740,#741,#742,#743),
  .UNSPECIFIED.,.F.,.F.,(7,5,5,5,5,5,5,5,5,5,5,7),(0.,0.119213919767,
    0.172647680269,0.243052192219,0.332762600963,0.412176912317,
    0.499810519537,0.587975744698,0.667094866716,0.825565710437,
    0.924284984616,1.),.UNSPECIFIED.);
#687 = CARTESIAN_POINT('',(49.,4.440892098501E-16,303.23460088342));
#688 = CARTESIAN_POINT('',(49.,-0.229174040304,303.23460088342));
#689 = CARTESIAN_POINT('',(48.978991552499,-0.456449158025,
    303.22403495853));
#690 = CARTESIAN_POINT('',(48.937628413976,-0.678210503982,
    303.20323238864));
#691 = CARTESIAN_POINT('',(48.877657059345,-0.890962551821,
    303.17348433605));
#692 = CARTESIAN_POINT('',(48.801908288478,-1.091545763882,
    303.13696234281));
#693 = CARTESIAN_POINT('',(48.675294790633,-1.360613142985,
    303.07797629526));
#694 = CARTESIAN_POINT('',(48.633587492047,-1.441288243817,
    303.05879350927));
#695 = CARTESIAN_POINT('',(48.589559636182,-1.519351798108,303.038840537
    ));
#696 = CARTESIAN_POINT('',(48.543397603436,-1.594801386094,
    303.01826749211));
#697 = CARTESIAN_POINT('',(48.495274284426,-1.667643097426,
    302.99721679367));
#698 = CARTESIAN_POINT('',(48.379568622813,-1.83045007341,
    302.94763217628));
#699 = CARTESIAN_POINT('',(48.310646670741,-1.918525633722,
    302.9188390783));
#700 = CARTESIAN_POINT('',(48.238903189853,-2.002206070032,
    302.88972954742));
#701 = CARTESIAN_POINT('',(48.164610067075,-2.081581533732,
    302.86056321973));
#702 = CARTESIAN_POINT('',(48.087991813101,-2.15674309548,
    302.83157433942));
#703 = CARTESIAN_POINT('',(47.908860961377,-2.318300353238,
    302.76653004491));
#704 = CARTESIAN_POINT('',(47.804993648411,-2.40213904037,
    302.73071109799));
#705 = CARTESIAN_POINT('',(47.698023236783,-2.479445761528,
    302.69596670954));
#706 = CARTESIAN_POINT('',(47.588282263247,-2.550342700884,
    302.66270273902));
#707 = CARTESIAN_POINT('',(47.476037810213,-2.614925658638,
    302.63128414629));
#708 = CARTESIAN_POINT('',(47.260094407603,-2.72490562543,
    302.57614886818));
#709 = CARTESIAN_POINT('',(47.156898122557,-2.771651074617,
    302.55196338939));
#710 = CARTESIAN_POINT('',(47.052119998891,-2.813508240767,
    302.52972817106));
#711 = CARTESIAN_POINT('',(46.94595888541,-2.850483173308,
    302.50966187131));
#712 = CARTESIAN_POINT('',(46.838597035573,-2.882576059508,
    302.49195200648));
#713 = CARTESIAN_POINT('',(46.610585224642,-2.939794983888,
    302.45997782913));
#714 = CARTESIAN_POINT('',(46.489717942836,-2.963854119661,
    302.44626080275));
#715 = CARTESIAN_POINT('',(46.367919110006,-2.981919830137,
    302.43582004656));
#716 = CARTESIAN_POINT('',(46.245499793239,-2.993971791146,
    302.42880668445));
#717 = CARTESIAN_POINT('',(46.122762180195,-3.,302.42529918723));
#718 = CARTESIAN_POINT('',(45.876493098919,-3.,302.42529918723));
#719 = CARTESIAN_POINT('',(45.753011509625,-2.993898431007,
    302.42884936434));
#720 = CARTESIAN_POINT('',(45.629854029743,-2.981699912082,
    302.43594802514));
#721 = CARTESIAN_POINT('',(45.507328166213,-2.963414647093,
    302.44651478343));
#722 = CARTESIAN_POINT('',(45.385750573434,-2.939063368487,
    302.46039489426));
#723 = CARTESIAN_POINT('',(45.157487984601,-2.881418414159,
    302.49259122631));
#724 = CARTESIAN_POINT('',(45.050560670804,-2.849300149073,
    302.51030546423));
#725 = CARTESIAN_POINT('',(44.94482971035,-2.812336275501,
    302.53035435246));
#726 = CARTESIAN_POINT('',(44.840475200729,-2.770526431785,
    302.55255199611));
#727 = CARTESIAN_POINT('',(44.73769364958,-2.723864409782,
    302.57668189666));
#728 = CARTESIAN_POINT('',(44.434411131445,-2.569144089047,
    302.65421299109));
#729 = CARTESIAN_POINT('',(44.239498624479,-2.446551412405,
    302.71264699029));
#730 = CARTESIAN_POINT('',(44.052914648519,-2.304194379074,
    302.77600254072));
#731 = CARTESIAN_POINT('',(43.876162848853,-2.141229017381,
    302.84221927715));
#732 = CARTESIAN_POINT('',(43.711625130273,-1.956618801272,
    302.90873309113));
#733 = CARTESIAN_POINT('',(43.470298487675,-1.620444690768,
    303.01186536967));
#734 = CARTESIAN_POINT('',(43.383574466664,-1.482329690287,
    303.05040291676));
#735 = CARTESIAN_POINT('',(43.303964045553,-1.335212259461,
    303.08697809766));
#736 = CARTESIAN_POINT('',(43.232718150926,-1.17928042339,303.1205939054
    ));
#737 = CARTESIAN_POINT('',(43.171159335226,-1.014858206529,
    303.15021517401));
#738 = CARTESIAN_POINT('',(43.082016411047,-0.710181987871,
    303.19367988211));
#739 = CARTESIAN_POINT('',(43.049859364397,-0.573228837311,
    303.20959107036));
#740 = CARTESIAN_POINT('',(43.025119686421,-0.43260807044,
    303.22196734279));
#741 = CARTESIAN_POINT('',(43.008391405401,-0.289428447525,
    303.23038056272));
#742 = CARTESIAN_POINT('',(43.,-0.144839476245,303.23460088342));
#743 = CARTESIAN_POINT('',(43.,-4.440892098501E-16,303.23460088342));
#744 = PCURVE('',#161,#745);
#745 = DEFINITIONAL_REPRESENTATION('',(#746),#804);
#746 = B_SPLINE_CURVE_WITH_KNOTS('',6,(#747,#748,#749,#750,#751,#752,
    #753,#754,#755,#756,#757,#758,#759,#760,#761,#762,#763,#764,#765,
    #766,#767,#768,#769,#770,#771,#772,#773,#774,#775,#776,#777,#778,
    #779,#780,#781,#782,#783,#784,#785,#786,#787,#788,#789,#790,#791,
    #792,#793,#794,#795,#796,#797,#798,#799,#800,#801,#802,#803),
  .UNSPECIFIED.,.F.,.F.,(7,5,5,5,5,5,5,5,5,5,5,7),(0.,0.119213919767,
    0.172647680269,0.243052192219,0.332762600963,0.412176912317,
    0.499810519537,0.587975744698,0.667094866716,0.825565710437,
    0.924284984616,1.),.UNSPECIFIED.);
#747 = CARTESIAN_POINT('',(0.,11.));
#748 = CARTESIAN_POINT('',(-3.841978881881E-02,11.));
#749 = CARTESIAN_POINT('',(-7.652129843406E-02,11.021008447501));
#750 = CARTESIAN_POINT('',(-0.113800147282,11.062371586024));
#751 = CARTESIAN_POINT('',(-0.149765542208,11.122342940655));
#752 = CARTESIAN_POINT('',(-0.183923370387,11.198091711522));
#753 = CARTESIAN_POINT('',(-0.230102262217,11.324705209367));
#754 = CARTESIAN_POINT('',(-0.244001923181,11.366412507953));
#755 = CARTESIAN_POINT('',(-0.257506833084,11.410440363818));
#756 = CARTESIAN_POINT('',(-0.270615016476,11.456602396564));
#757 = CARTESIAN_POINT('',(-0.283324942556,11.504725715574));
#758 = CARTESIAN_POINT('',(-0.311856429903,11.620431377187));
#759 = CARTESIAN_POINT('',(-0.327387600393,11.689353329259));
#760 = CARTESIAN_POINT('',(-0.342237036104,11.761096810147));
#761 = CARTESIAN_POINT('',(-0.356410977684,11.835389932925));
#762 = CARTESIAN_POINT('',(-0.369914663235,11.912008186899));
#763 = CARTESIAN_POINT('',(-0.399111550423,12.091139038623));
#764 = CARTESIAN_POINT('',(-0.414392303549,12.195006351589));
#765 = CARTESIAN_POINT('',(-0.428597800384,12.301976763217));
#766 = CARTESIAN_POINT('',(-0.441724438375,12.411717736753));
#767 = CARTESIAN_POINT('',(-0.453763774361,12.523962189787));
#768 = CARTESIAN_POINT('',(-0.474388483055,12.739905592397));
#769 = CARTESIAN_POINT('',(-0.483211154014,12.843101877443));
#770 = CARTESIAN_POINT('',(-0.491156332948,12.947880001109));
#771 = CARTESIAN_POINT('',(-0.498208703805,13.05404111459));
#772 = CARTESIAN_POINT('',(-0.504353634105,13.161402964427));
#773 = CARTESIAN_POINT('',(-0.515342162807,13.389414775358));
#774 = CARTESIAN_POINT('',(-0.519984876975,13.510282057164));
#775 = CARTESIAN_POINT('',(-0.523482854041,13.632080889994));
#776 = CARTESIAN_POINT('',(-0.525820535757,13.754500206761));
#777 = CARTESIAN_POINT('',(-0.526989739254,13.877237819805));
#778 = CARTESIAN_POINT('',(-0.526989739254,14.123506901081));
#779 = CARTESIAN_POINT('',(-0.525806307824,14.246988490375));
#780 = CARTESIAN_POINT('',(-0.523440196845,14.370145970257));
#781 = CARTESIAN_POINT('',(-0.51989978405,14.492671833787));
#782 = CARTESIAN_POINT('',(-0.515200987399,14.614249426566));
#783 = CARTESIAN_POINT('',(-0.504131943435,14.842512015399));
#784 = CARTESIAN_POINT('',(-0.497982934291,14.949439329196));
#785 = CARTESIAN_POINT('',(-0.490933585795,15.05517028965));
#786 = CARTESIAN_POINT('',(-0.482998365668,15.159524799271));
#787 = CARTESIAN_POINT('',(-0.474192392628,15.26230635042));
#788 = CARTESIAN_POINT('',(-0.445179972025,15.565588868555));
#789 = CARTESIAN_POINT('',(-0.422417109814,15.760501375521));
#790 = CARTESIAN_POINT('',(-0.396309382933,15.947085351481));
#791 = CARTESIAN_POINT('',(-0.366848630717,16.123837151147));
#792 = CARTESIAN_POINT('',(-0.333990343261,16.288374869727));
#793 = CARTESIAN_POINT('',(-0.275040129795,16.529701512325));
#794 = CARTESIAN_POINT('',(-0.251009255667,16.616425533336));
#795 = CARTESIAN_POINT('',(-0.225611368119,16.696035954447));
#796 = CARTESIAN_POINT('',(-0.198891381383,16.767281849074));
#797 = CARTESIAN_POINT('',(-0.170901903304,16.828840664774));
#798 = CARTESIAN_POINT('',(-0.119307450298,16.917983588953));
#799 = CARTESIAN_POINT('',(-9.620139592824E-02,16.950140635603));
#800 = CARTESIAN_POINT('',(-7.255015311296E-02,16.974880313579));
#801 = CARTESIAN_POINT('',(-4.852111958298E-02,16.991608594599));
#802 = CARTESIAN_POINT('',(-2.42815551124E-02,17.));
#803 = CARTESIAN_POINT('',(0.,17.));
#804 = ( GEOMETRIC_REPRESENTATION_CONTEXT(2) 
PARAMETRIC_REPRESENTATION_CONTEXT() REPRESENTATION_CONTEXT('2D SPACE',''
  ) );
#805 = PCURVE('',#321,#806);
#806 = DEFINITIONAL_REPRESENTATION('',(#807),#865);
#807 = B_SPLINE_CURVE_WITH_KNOTS('',6,(#808,#809,#810,#811,#812,#813,
    #814,#815,#816,#817,#818,#819,#820,#821,#822,#823,#824,#825,#826,
    #827,#828,#829,#830,#831,#832,#833,#834,#835,#836,#837,#838,#839,
    #840,#841,#842,#843,#844,#845,#846,#847,#848,#849,#850,#851,#852,
    #853,#854,#855,#856,#857,#858,#859,#860,#861,#862,#863,#864),
  .UNSPECIFIED.,.F.,.F.,(7,5,5,5,5,5,5,5,5,5,5,7),(0.,0.119213919767,
    0.172647680269,0.243052192219,0.332762600963,0.412176912317,
    0.499810519537,0.587975744698,0.667094866716,0.825565710437,
    0.924284984616,1.),.UNSPECIFIED.);
#808 = CARTESIAN_POINT('',(-3.14159265359,5.965));
#809 = CARTESIAN_POINT('',(-3.217984000358,5.965));
#810 = CARTESIAN_POINT('',(-3.293742301226,5.954434075119));
#811 = CARTESIAN_POINT('',(-3.368465568465,5.933631505221));
#812 = CARTESIAN_POINT('',(-3.441722431418,5.903883452629));
#813 = CARTESIAN_POINT('',(-3.512970828448,5.867361459391));
#814 = CARTESIAN_POINT('',(-3.612093778102,5.808375411845));
#815 = CARTESIAN_POINT('',(-3.642345491377,5.789192625859));
#816 = CARTESIAN_POINT('',(-3.672190828729,5.769239653585));
#817 = CARTESIAN_POINT('',(-3.701647433278,5.748666608693));
#818 = CARTESIAN_POINT('',(-3.730731485213,5.727615910258));
#819 = CARTESIAN_POINT('',(-3.797309686149,5.678031292862));
#820 = CARTESIAN_POINT('',(-3.834549084775,5.649238194881));
#821 = CARTESIAN_POINT('',(-3.871236656482,5.620128664));
#822 = CARTESIAN_POINT('',(-3.907426508809,5.590962336313));
#823 = CARTESIAN_POINT('',(-3.943171517048,5.561973456004));
#824 = CARTESIAN_POINT('',(-4.023579234735,5.496929161499));
#825 = CARTESIAN_POINT('',(-4.068006445778,5.461110214573));
#826 = CARTESIAN_POINT('',(-4.111907945841,5.42636582612));
#827 = CARTESIAN_POINT('',(-4.155371027138,5.393101855609));
#828 = CARTESIAN_POINT('',(-4.19848077756,5.361683262874));
#829 = CARTESIAN_POINT('',(-4.279259725743,5.306547984766));
#830 = CARTESIAN_POINT('',(-4.316983547943,5.282362505971));
#831 = CARTESIAN_POINT('',(-4.354535983616,5.260127287639));
#832 = CARTESIAN_POINT('',(-4.391951733004,5.240060987897));
#833 = CARTESIAN_POINT('',(-4.429266556211,5.222351123066));
#834 = CARTESIAN_POINT('',(-4.507627112638,5.190376945712));
#835 = CARTESIAN_POINT('',(-4.548656534123,5.176659919332));
#836 = CARTESIAN_POINT('',(-4.589625966824,5.166219163142));
#837 = CARTESIAN_POINT('',(-4.630555700233,5.159205801038));
#838 = CARTESIAN_POINT('',(-4.671468253653,5.155698303819));
#839 = CARTESIAN_POINT('',(-4.753557947412,5.155698303819));
#840 = CARTESIAN_POINT('',(-4.79471849356,5.159248480921));
#841 = CARTESIAN_POINT('',(-4.835896537804,5.166347141722));
#842 = CARTESIAN_POINT('',(-4.877115080521,5.176913900011));
#843 = CARTESIAN_POINT('',(-4.918394829033,5.190794010848));
#844 = CARTESIAN_POINT('',(-4.996871117186,5.222990342893));
#845 = CARTESIAN_POINT('',(-5.034050024542,5.240704580814));
#846 = CARTESIAN_POINT('',(-5.071329791392,5.260753469045));
#847 = CARTESIAN_POINT('',(-5.108745887632,5.282951112691));
#848 = CARTESIAN_POINT('',(-5.14633275014,5.307081013245));
#849 = CARTESIAN_POINT('',(-5.259822183547,5.384612107671));
#850 = CARTESIAN_POINT('',(-5.336267303803,5.443046106875));
#851 = CARTESIAN_POINT('',(-5.414012460115,5.506401657301));
#852 = CARTESIAN_POINT('',(-5.493603087717,5.572618393738));
#853 = CARTESIAN_POINT('',(-5.575577137089,5.63913220771));
#854 = CARTESIAN_POINT('',(-5.713518985143,5.742264486253));
#855 = CARTESIAN_POINT('',(-5.76777626947,5.780802033345));
#856 = CARTESIAN_POINT('',(-5.823356754175,5.81737721424));
#857 = CARTESIAN_POINT('',(-5.8802970626,5.850993021983));
#858 = CARTESIAN_POINT('',(-5.938661679175,5.880614290592));
#859 = CARTESIAN_POINT('',(-6.044478113073,5.924078998699));
#860 = CARTESIAN_POINT('',(-6.091302321115,5.939990186949));
#861 = CARTESIAN_POINT('',(-6.138780028515,5.952366459371));
#862 = CARTESIAN_POINT('',(-6.186709162935,5.960779679307));
#863 = CARTESIAN_POINT('',(-6.234905481764,5.965));
#864 = CARTESIAN_POINT('',(-6.28318530718,5.965));
#865 = ( GEOMETRIC_REPRESENTATION_CONTEXT(2) 
PARAMETRIC_REPRESENTATION_CONTEXT() REPRESENTATION_CONTEXT('2D SPACE',''
  ) );
#866 = ORIENTED_EDGE('',*,*,#867,.F.);
#867 = EDGE_CURVE('',#141,#450,#868,.T.);
#868 = SEAM_CURVE('',#869,(#873,#880),.PCURVE_S1.);
#869 = LINE('',#870,#871);
#870 = CARTESIAN_POINT('',(60.,1.461003631383E-15,303.23460088342));
#871 = VECTOR('',#872,1.);
#872 = DIRECTION('',(-1.,-0.,-0.));
#873 = PCURVE('',#161,#874);
#874 = DEFINITIONAL_REPRESENTATION('',(#875),#879);
#875 = LINE('',#876,#877);
#876 = CARTESIAN_POINT('',(-6.28318530718,-0.));
#877 = VECTOR('',#878,1.);
#878 = DIRECTION('',(-0.,1.));
#879 = ( GEOMETRIC_REPRESENTATION_CONTEXT(2) 
PARAMETRIC_REPRESENTATION_CONTEXT() REPRESENTATION_CONTEXT('2D SPACE',''
  ) );
#880 = PCURVE('',#161,#881);
#881 = DEFINITIONAL_REPRESENTATION('',(#882),#886);
#882 = LINE('',#883,#884);
#883 = CARTESIAN_POINT('',(-0.,-0.));
#884 = VECTOR('',#885,1.);
#885 = DIRECTION('',(-0.,1.));
#886 = ( GEOMETRIC_REPRESENTATION_CONTEXT(2) 
PARAMETRIC_REPRESENTATION_CONTEXT() REPRESENTATION_CONTEXT('2D SPACE',''
  ) );
#887 = ORIENTED_EDGE('',*,*,#140,.T.);
#888 = ORIENTED_EDGE('',*,*,#867,.T.);
#889 = FACE_BOUND('',#890,.T.);
#890 = EDGE_LOOP('',(#891));
#891 = ORIENTED_EDGE('',*,*,#892,.F.);
#892 = EDGE_CURVE('',#893,#893,#895,.T.);
#893 = VERTEX_POINT('',#894);
#894 = CARTESIAN_POINT('',(44.450794090828,-3.794460115775E-16,
    291.30460088342));
#895 = SURFACE_CURVE('',#896,(#1067,#1241),.PCURVE_S1.);
#896 = B_SPLINE_CURVE_WITH_KNOTS('',7,(#897,#898,#899,#900,#901,#902,
    #903,#904,#905,#906,#907,#908,#909,#910,#911,#912,#913,#914,#915,
    #916,#917,#918,#919,#920,#921,#922,#923,#924,#925,#926,#927,#928,
    #929,#930,#931,#932,#933,#934,#935,#936,#937,#938,#939,#940,#941,
    #942,#943,#944,#945,#946,#947,#948,#949,#950,#951,#952,#953,#954,
    #955,#956,#957,#958,#959,#960,#961,#962,#963,#964,#965,#966,#967,
    #968,#969,#970,#971,#972,#973,#974,#975,#976,#977,#978,#979,#980,
    #981,#982,#983,#984,#985,#986,#987,#988,#989,#990,#991,#992,#993,
    #994,#995,#996,#997,#998,#999,#1000,#1001,#1002,#1003,#1004,#1005,
    #1006,#1007,#1008,#1009,#1010,#1011,#1012,#1013,#1014,#1015,#1016,
    #1017,#1018,#1019,#1020,#1021,#1022,#1023,#1024,#1025,#1026,#1027,
    #1028,#1029,#1030,#1031,#1032,#1033,#1034,#1035,#1036,#1037,#1038,
    #1039,#1040,#1041,#1042,#1043,#1044,#1045,#1046,#1047,#1048,#1049,
    #1050,#1051,#1052,#1053,#1054,#1055,#1056,#1057,#1058,#1059,#1060,
    #1061,#1062,#1063,#1064,#1065,#1066),.UNSPECIFIED.,.T.,.F.,(8,6,6,6,
    6,6,6,6,6,6,6,6,6,6,6,6,6,6,6,6,6,6,6,6,6,6,6,6,8),(0.,
    3.537654639425E-02,5.861052340448E-02,9.147359704718E-02,
    0.121193971823,0.148270415983,0.244864009536,0.328084255733,
    0.351928554167,0.378825471806,0.40863662272,0.441396794166,
    0.464680189217,0.476589773371,0.500112647438,0.523389152428,
    0.535298724953,0.558582097271,0.59134223673,0.621153358537,
    0.648050249914,0.671894525067,0.749984462346,0.851933555375,
    0.87883284388,0.908646622539,0.941409681675,0.964695129073,1.),
  .UNSPECIFIED.);
#897 = CARTESIAN_POINT('',(44.450794090828,-4.440892098501E-16,
    291.30460088342));
#898 = CARTESIAN_POINT('',(44.450794090828,-5.436069716845E-02,
    291.30460088342));
#899 = CARTESIAN_POINT('',(44.453981393304,-0.108739118548,
    291.30517883114));
#900 = CARTESIAN_POINT('',(44.460359752437,-0.162682358509,
    291.30633553882));
#901 = CARTESIAN_POINT('',(44.469811661571,-0.21580944286,
    291.30804281496));
#902 = CARTESIAN_POINT('',(44.482140828223,-0.267810405105,
    291.3102523444));
#903 = CARTESIAN_POINT('',(44.497105386696,-0.31844228166,
    291.31290402075));
#904 = CARTESIAN_POINT('',(44.52582778024,-0.399755744952,
    291.31792353024));
#905 = CARTESIAN_POINT('',(44.53824084276,-0.431331184591,
    291.32007709565));
#906 = CARTESIAN_POINT('',(44.551611678519,-0.462207894992,
    291.32237709932));
#907 = CARTESIAN_POINT('',(44.565870972506,-0.492358411057,
    291.32480613487));
#908 = CARTESIAN_POINT('',(44.580951657855,-0.52176637557,
    291.32734723664));
#909 = CARTESIAN_POINT('',(44.596791121671,-0.550424662217,
    291.32998439869));
#910 = CARTESIAN_POINT('',(44.636731491495,-0.617808881808,
    291.33654852575));
#911 = CARTESIAN_POINT('',(44.661532407732,-0.655779539185,
    291.34055655062));
#912 = CARTESIAN_POINT('',(44.687579015987,-0.692251944897,
    291.34468605201));
#913 = CARTESIAN_POINT('',(44.714731029848,-0.727245772732,
    291.34890012601));
#914 = CARTESIAN_POINT('',(44.742866058532,-0.76079108597,
    291.35316614754));
#915 = CARTESIAN_POINT('',(44.771880645341,-0.792925527239,
    291.35745583669));
#916 = CARTESIAN_POINT('',(44.828651170575,-0.851515335796,
    291.36562460915));
#917 = CARTESIAN_POINT('',(44.856259159682,-0.878216958699,
    291.36950328029));
#918 = CARTESIAN_POINT('',(44.884451435134,-0.90382628238,291.3733633225
    ));
#919 = CARTESIAN_POINT('',(44.913171688269,-0.928371832755,
    291.37718874168));
#920 = CARTESIAN_POINT('',(44.942370708986,-0.951880923781,
    291.38096538175));
#921 = CARTESIAN_POINT('',(44.972005954657,-0.974379824894,
    291.38468074077));
#922 = CARTESIAN_POINT('',(45.029404349048,-1.015494132927,
    291.39164274734));
#923 = CARTESIAN_POINT('',(45.057098613187,-1.03427630647,291.3949015778
    ));
#924 = CARTESIAN_POINT('',(45.085095920334,-1.052259218069,
    291.39809187422));
#925 = CARTESIAN_POINT('',(45.11337103674,-1.069460005581,
    291.40120605839));
#926 = CARTESIAN_POINT('',(45.141901294483,-1.085894383871,
    291.40423730468));
#927 = CARTESIAN_POINT('',(45.170666399917,-1.101576852967,
    291.40717946644));
#928 = CARTESIAN_POINT('',(45.303039229186,-1.169832921531,
    291.42018541689));
#929 = CARTESIAN_POINT('',(45.409158631984,-1.213732008082,
    291.42913661504));
#930 = CARTESIAN_POINT('',(45.517227322959,-1.248860005144,
    291.43663482819));
#931 = CARTESIAN_POINT('',(45.62665889252,-1.275573529528,
    291.44251253183));
#932 = CARTESIAN_POINT('',(45.736968584337,-1.294131998693,
    291.44666241038));
#933 = CARTESIAN_POINT('',(45.847761807477,-1.304678864197,
    291.44903004403));
#934 = CARTESIAN_POINT('',(46.054281927439,-1.309427362098,
    291.45009660412));
#935 = CARTESIAN_POINT('',(46.149988805128,-1.305689292176,
    291.44925825768));
#936 = CARTESIAN_POINT('',(46.245520923104,-1.296021426089,
    291.44707841814));
#937 = CARTESIAN_POINT('',(46.34059238298,-1.280380193009,
    291.44357896698));
#938 = CARTESIAN_POINT('',(46.434927133391,-1.258678516818,
    291.4388094718));
#939 = CARTESIAN_POINT('',(46.528242349159,-1.230752872749,
    291.43284581508));
#940 = CARTESIAN_POINT('',(46.6465745186,-1.186417476128,291.42376987729
    ));
#941 = CARTESIAN_POINT('',(46.672813922338,-1.176008649687,
    291.42165937577));
#942 = CARTESIAN_POINT('',(46.698929874893,-1.16505864482,
    291.41946226895));
#943 = CARTESIAN_POINT('',(46.724912394675,-1.153560499767,
    291.41718145088));
#944 = CARTESIAN_POINT('',(46.750750667138,-1.141506560002,
    291.41482011172));
#945 = CARTESIAN_POINT('',(46.776433044782,-1.128888478232,
    291.41238173766));
#946 = CARTESIAN_POINT('',(46.830727429285,-1.100817165072,
    291.40703693819));
#947 = CARTESIAN_POINT('',(46.85929321088,-1.08520789814,291.40411060121
    ));
#948 = CARTESIAN_POINT('',(46.887626578461,-1.068856148787,
    291.40109655017));
#949 = CARTESIAN_POINT('',(46.915707585026,-1.051747669863,
    291.39800082671));
#950 = CARTESIAN_POINT('',(46.943513964354,-1.033867030321,
    291.3948301353));
#951 = CARTESIAN_POINT('',(46.971020945313,-1.015197413673,
    291.39159191454));
#952 = CARTESIAN_POINT('',(47.028326104859,-0.974133121111,
    291.38463962346));
#953 = CARTESIAN_POINT('',(47.058048490414,-0.951554836507,
    291.3809121496));
#954 = CARTESIAN_POINT('',(47.087331600436,-0.927959898097,
    291.37712312189));
#955 = CARTESIAN_POINT('',(47.116132472488,-0.903321764048,
    291.37328516708));
#956 = CARTESIAN_POINT('',(47.144401367204,-0.877612850876,
    291.36941259066));
#957 = CARTESIAN_POINT('',(47.172081331396,-0.850804369106,
    291.36552156392));
#958 = CARTESIAN_POINT('',(47.228807737388,-0.7921642059,291.35735412211
    ));
#959 = CARTESIAN_POINT('',(47.257714836002,-0.7601015959,291.35307821191
    ));
#960 = CARTESIAN_POINT('',(47.285746191201,-0.726636284151,
    291.34882626917));
#961 = CARTESIAN_POINT('',(47.312799129915,-0.691730990597,
    291.34462635628));
#962 = CARTESIAN_POINT('',(47.338752221389,-0.655355995081,
    291.3405108379));
#963 = CARTESIAN_POINT('',(47.363466326747,-0.617491932515,
    291.33651630948));
#964 = CARTESIAN_POINT('',(47.403359218183,-0.550159011412,
    291.3299594798));
#965 = CARTESIAN_POINT('',(47.419226637635,-0.521432756535,
    291.32731739457));
#966 = CARTESIAN_POINT('',(47.434331573711,-0.49195361854,
    291.32477189534));
#967 = CARTESIAN_POINT('',(47.448610972202,-0.461728818793,
    291.3223390997));
#968 = CARTESIAN_POINT('',(47.461997293612,-0.430774903938,
    291.32003609146));
#969 = CARTESIAN_POINT('',(47.474420748882,-0.39911964493,
    291.31788039452));
#970 = CARTESIAN_POINT('',(47.491637984684,-0.350274273921,
    291.31487106588));
#971 = CARTESIAN_POINT('',(47.497194257428,-0.333572105935,
    291.31389578031));
#972 = CARTESIAN_POINT('',(47.502470782665,-0.316703126991,
    291.31296597176));
#973 = CARTESIAN_POINT('',(47.50745826971,-0.299674113006,
    291.31208394632));
#974 = CARTESIAN_POINT('',(47.512147707861,-0.282492920935,
    291.31125193439));
#975 = CARTESIAN_POINT('',(47.516530366408,-0.265168488777,
    291.31047209066));
#976 = CARTESIAN_POINT('',(47.528631458986,-0.213229851805,
    291.30831335282));
#977 = CARTESIAN_POINT('',(47.535436760393,-0.178224617762,
    291.30709155476));
#978 = CARTESIAN_POINT('',(47.540948005729,-0.142779552928,
    291.30609716685));
#979 = CARTESIAN_POINT('',(47.545110621934,-0.106990242139,
    291.30534354555));
#980 = CARTESIAN_POINT('',(47.547884838461,-7.096318793844E-02,
    291.30484042455));
#981 = CARTESIAN_POINT('',(47.549249369731,-3.481556292493E-02,
    291.30459300248));
#982 = CARTESIAN_POINT('',(47.549161289136,3.708711666222E-02,
    291.30460897461));
#983 = CARTESIAN_POINT('',(47.547738024356,7.284979750227E-02,
    291.30486704825));
#984 = CARTESIAN_POINT('',(47.544935320282,0.108489642826,
    291.30537528003));
#985 = CARTESIAN_POINT('',(47.540774376619,0.143893339136,
    291.30612849261));
#986 = CARTESIAN_POINT('',(47.535294049526,0.178957914893,
    291.30711717614));
#987 = CARTESIAN_POINT('',(47.528547325394,0.213590958379,
    291.30832836158));
#988 = CARTESIAN_POINT('',(47.516530366408,0.265168488776,
    291.31047209066));
#989 = CARTESIAN_POINT('',(47.512147707861,0.282492920934,
    291.31125193439));
#990 = CARTESIAN_POINT('',(47.50745826971,0.299674113005,291.31208394632
    ));
#991 = CARTESIAN_POINT('',(47.502470782666,0.31670312699,291.31296597176
    ));
#992 = CARTESIAN_POINT('',(47.497194257428,0.333572105934,
    291.31389578031));
#993 = CARTESIAN_POINT('',(47.491637984684,0.35027427392,291.31487106588
    ));
#994 = CARTESIAN_POINT('',(47.474420748883,0.399119644929,
    291.31788039452));
#995 = CARTESIAN_POINT('',(47.461997293613,0.430774903937,
    291.32003609146));
#996 = CARTESIAN_POINT('',(47.448610972203,0.461728818792,291.3223390997
    ));
#997 = CARTESIAN_POINT('',(47.434331573712,0.491953618538,
    291.32477189534));
#998 = CARTESIAN_POINT('',(47.419226637635,0.521432756534,
    291.32731739457));
#999 = CARTESIAN_POINT('',(47.403359218184,0.550159011411,291.3299594798
    ));
#1000 = CARTESIAN_POINT('',(47.363466326748,0.617491932513,
    291.33651630948));
#1001 = CARTESIAN_POINT('',(47.33875222139,0.65535599508,291.3405108379)
  );
#1002 = CARTESIAN_POINT('',(47.312799129916,0.691730990595,
    291.34462635628));
#1003 = CARTESIAN_POINT('',(47.285746191202,0.726636284149,
    291.34882626917));
#1004 = CARTESIAN_POINT('',(47.257714836003,0.760101595899,
    291.35307821191));
#1005 = CARTESIAN_POINT('',(47.228807737389,0.792164205899,
    291.35735412211));
#1006 = CARTESIAN_POINT('',(47.172081331397,0.850804369105,
    291.36552156392));
#1007 = CARTESIAN_POINT('',(47.144401367205,0.877612850875,
    291.36941259066));
#1008 = CARTESIAN_POINT('',(47.11613247249,0.903321764047,
    291.37328516708));
#1009 = CARTESIAN_POINT('',(47.087331600437,0.927959898095,
    291.37712312189));
#1010 = CARTESIAN_POINT('',(47.058048490415,0.951554836506,
    291.3809121496));
#1011 = CARTESIAN_POINT('',(47.02832610486,0.97413312111,291.38463962346
    ));
#1012 = CARTESIAN_POINT('',(46.971020945315,1.015197413672,
    291.39159191453));
#1013 = CARTESIAN_POINT('',(46.943513964356,1.03386703032,291.3948301353
    ));
#1014 = CARTESIAN_POINT('',(46.915707585028,1.051747669862,
    291.39800082671));
#1015 = CARTESIAN_POINT('',(46.887626578463,1.068856148786,
    291.40109655017));
#1016 = CARTESIAN_POINT('',(46.859293210882,1.085207898139,
    291.40411060121));
#1017 = CARTESIAN_POINT('',(46.830727429287,1.100817165071,
    291.40703693819));
#1018 = CARTESIAN_POINT('',(46.776433044785,1.128888478231,
    291.41238173766));
#1019 = CARTESIAN_POINT('',(46.75075066714,1.141506560001,
    291.41482011172));
#1020 = CARTESIAN_POINT('',(46.724912394677,1.153560499766,
    291.41718145088));
#1021 = CARTESIAN_POINT('',(46.698929874896,1.165058644819,
    291.41946226895));
#1022 = CARTESIAN_POINT('',(46.672813922341,1.176008649686,
    291.42165937577));
#1023 = CARTESIAN_POINT('',(46.646574518603,1.186417476126,
    291.42376987729));
#1024 = CARTESIAN_POINT('',(46.533912494809,1.228628444899,
    291.4324109216));
#1025 = CARTESIAN_POINT('',(46.44638447235,1.255226597472,
    291.43807332936));
#1026 = CARTESIAN_POINT('',(46.357952134963,1.27631286385,
    291.44268714897));
#1027 = CARTESIAN_POINT('',(46.268879583807,1.292032266684,
    291.44618810341));
#1028 = CARTESIAN_POINT('',(46.179396218785,1.302478838518,
    291.44853550785));
#1029 = CARTESIAN_POINT('',(46.089707808713,1.307704297665,
    291.44970960695));
#1030 = CARTESIAN_POINT('',(45.882888089653,1.30770453295,
    291.44970965982));
#1031 = CARTESIAN_POINT('',(45.765835240326,1.298799040217,
    291.44770852513));
#1032 = CARTESIAN_POINT('',(45.64922840555,1.281002385867,
    291.44371018974));
#1033 = CARTESIAN_POINT('',(45.533516884924,1.254165447637,
    291.43776906479));
#1034 = CARTESIAN_POINT('',(45.419258831561,1.217996825111,
    291.43000415296));
#1035 = CARTESIAN_POINT('',(45.307131445924,1.172093038135,
    291.42060791886));
#1036 = CARTESIAN_POINT('',(45.169272570717,1.100817165073,
    291.40703693819));
#1037 = CARTESIAN_POINT('',(45.140706789122,1.085207898141,
    291.40411060121));
#1038 = CARTESIAN_POINT('',(45.112373421541,1.068856148789,
    291.40109655017));
#1039 = CARTESIAN_POINT('',(45.084292414976,1.051747669864,
    291.39800082671));
#1040 = CARTESIAN_POINT('',(45.056486035648,1.033867030323,
    291.3948301353));
#1041 = CARTESIAN_POINT('',(45.028979054689,1.015197413674,
    291.39159191454));
#1042 = CARTESIAN_POINT('',(44.971673895143,0.974133121112,
    291.38463962346));
#1043 = CARTESIAN_POINT('',(44.941951509588,0.951554836508,
    291.3809121496));
#1044 = CARTESIAN_POINT('',(44.912668399566,0.927959898098,
    291.37712312189));
#1045 = CARTESIAN_POINT('',(44.883867527513,0.903321764049,
    291.37328516708));
#1046 = CARTESIAN_POINT('',(44.855598632798,0.877612850877,
    291.36941259066));
#1047 = CARTESIAN_POINT('',(44.827918668605,0.850804369107,
    291.36552156392));
#1048 = CARTESIAN_POINT('',(44.771192262613,0.792164205901,
    291.35735412211));
#1049 = CARTESIAN_POINT('',(44.742285163999,0.760101595902,
    291.35307821191));
#1050 = CARTESIAN_POINT('',(44.7142538088,0.726636284152,291.34882626917
    ));
#1051 = CARTESIAN_POINT('',(44.687200870085,0.691730990598,
    291.34462635628));
#1052 = CARTESIAN_POINT('',(44.661247778612,0.655355995083,
    291.3405108379));
#1053 = CARTESIAN_POINT('',(44.636533673254,0.617491932516,
    291.33651630948));
#1054 = CARTESIAN_POINT('',(44.596640781817,0.550159011413,
    291.3299594798));
#1055 = CARTESIAN_POINT('',(44.580773362366,0.521432756536,
    291.32731739457));
#1056 = CARTESIAN_POINT('',(44.565668426289,0.491953618541,
    291.32477189534));
#1057 = CARTESIAN_POINT('',(44.551389027798,0.461728818794,
    291.3223390997));
#1058 = CARTESIAN_POINT('',(44.538002706388,0.430774903939,
    291.32003609146));
#1059 = CARTESIAN_POINT('',(44.525579251118,0.399119644931,
    291.31788039452));
#1060 = CARTESIAN_POINT('',(44.496918011345,0.31780758611,
    291.31287081629));
#1061 = CARTESIAN_POINT('',(44.482012188908,0.267267260324,
    291.31022929072));
#1062 = CARTESIAN_POINT('',(44.469732750755,0.215365483307,
    291.30802856131));
#1063 = CARTESIAN_POINT('',(44.460319806676,0.162344217836,
    291.30632829435));
#1064 = CARTESIAN_POINT('',(44.453968088321,0.108511849555,
    291.30517641881));
#1065 = CARTESIAN_POINT('',(44.450794090828,5.424711886361E-02,
    291.30460088342));
#1066 = CARTESIAN_POINT('',(44.450794090828,-4.440892098501E-16,
    291.30460088342));
#1067 = PCURVE('',#161,#1068);
#1068 = DEFINITIONAL_REPRESENTATION('',(#1069),#1240);
#1069 = B_SPLINE_CURVE_WITH_KNOTS('',7,(#1070,#1071,#1072,#1073,#1074,
    #1075,#1076,#1077,#1078,#1079,#1080,#1081,#1082,#1083,#1084,#1085,
    #1086,#1087,#1088,#1089,#1090,#1091,#1092,#1093,#1094,#1095,#1096,
    #1097,#1098,#1099,#1100,#1101,#1102,#1103,#1104,#1105,#1106,#1107,
    #1108,#1109,#1110,#1111,#1112,#1113,#1114,#1115,#1116,#1117,#1118,
    #1119,#1120,#1121,#1122,#1123,#1124,#1125,#1126,#1127,#1128,#1129,
    #1130,#1131,#1132,#1133,#1134,#1135,#1136,#1137,#1138,#1139,#1140,
    #1141,#1142,#1143,#1144,#1145,#1146,#1147,#1148,#1149,#1150,#1151,
    #1152,#1153,#1154,#1155,#1156,#1157,#1158,#1159,#1160,#1161,#1162,
    #1163,#1164,#1165,#1166,#1167,#1168,#1169,#1170,#1171,#1172,#1173,
    #1174,#1175,#1176,#1177,#1178,#1179,#1180,#1181,#1182,#1183,#1184,
    #1185,#1186,#1187,#1188,#1189,#1190,#1191,#1192,#1193,#1194,#1195,
    #1196,#1197,#1198,#1199,#1200,#1201,#1202,#1203,#1204,#1205,#1206,
    #1207,#1208,#1209,#1210,#1211,#1212,#1213,#1214,#1215,#1216,#1217,
    #1218,#1219,#1220,#1221,#1222,#1223,#1224,#1225,#1226,#1227,#1228,
    #1229,#1230,#1231,#1232,#1233,#1234,#1235,#1236,#1237,#1238,#1239),
  .UNSPECIFIED.,.T.,.F.,(8,6,6,6,6,6,6,6,6,6,6,6,6,6,6,6,6,6,6,6,6,6,6,6
    ,6,6,6,6,8),(0.,3.537654639425E-02,5.861052340448E-02,
    9.147359704718E-02,0.121193971823,0.148270415983,0.244864009536,
    0.328084255733,0.351928554167,0.378825471806,0.40863662272,
    0.441396794166,0.464680189217,0.476589773371,0.500112647438,
    0.523389152428,0.535298724953,0.558582097271,0.59134223673,
    0.621153358537,0.648050249914,0.671894525067,0.749984462346,
    0.851933555375,0.87883284388,0.908646622539,0.941409681675,
    0.964695129073,1.),.UNSPECIFIED.);
#1070 = CARTESIAN_POINT('',(-3.14159265359,15.549205909172));
#1071 = CARTESIAN_POINT('',(-3.132479376613,15.549205909172));
#1072 = CARTESIAN_POINT('',(-3.123363128357,15.546018606696));
#1073 = CARTESIAN_POINT('',(-3.114318599459,15.539640247563));
#1074 = CARTESIAN_POINT('',(-3.10540841812,15.530188338429));
#1075 = CARTESIAN_POINT('',(-3.096683562841,15.517859171777));
#1076 = CARTESIAN_POINT('',(-3.088184139659,15.502894613304));
#1077 = CARTESIAN_POINT('',(-3.074526429006,15.47417221976));
#1078 = CARTESIAN_POINT('',(-3.069220790289,15.46175915724));
#1079 = CARTESIAN_POINT('',(-3.064030294094,15.448388321481));
#1080 = CARTESIAN_POINT('',(-3.058959505799,15.434129027494));
#1081 = CARTESIAN_POINT('',(-3.054011174455,15.419048342145));
#1082 = CARTESIAN_POINT('',(-3.049186537425,15.403208878329));
#1083 = CARTESIAN_POINT('',(-3.037836465051,15.363268508505));
#1084 = CARTESIAN_POINT('',(-3.031435732839,15.338467592268));
#1085 = CARTESIAN_POINT('',(-3.025282536827,15.312420984013));
#1086 = CARTESIAN_POINT('',(-3.019373875399,15.285268970152));
#1087 = CARTESIAN_POINT('',(-3.013705072124,15.257133941468));
#1088 = CARTESIAN_POINT('',(-3.008270210989,15.228119354659));
#1089 = CARTESIAN_POINT('',(-2.99835293932,15.171348829425));
#1090 = CARTESIAN_POINT('',(-2.993829650131,15.143740840318));
#1091 = CARTESIAN_POINT('',(-2.989487986232,15.115548564866));
#1092 = CARTESIAN_POINT('',(-2.985323470129,15.086828311731));
#1093 = CARTESIAN_POINT('',(-2.981331829178,15.057629291014));
#1094 = CARTESIAN_POINT('',(-2.977508960093,15.027994045343));
#1095 = CARTESIAN_POINT('',(-2.970518249171,14.970595650952));
#1096 = CARTESIAN_POINT('',(-2.967322501406,14.942901386813));
#1097 = CARTESIAN_POINT('',(-2.964260722987,14.914904079666));
#1098 = CARTESIAN_POINT('',(-2.961330254635,14.88662896326));
#1099 = CARTESIAN_POINT('',(-2.958528668281,14.858098705517));
#1100 = CARTESIAN_POINT('',(-2.955853730373,14.829333600083));
#1101 = CARTESIAN_POINT('',(-2.944205090054,14.696960770814));
#1102 = CARTESIAN_POINT('',(-2.936694832223,14.590841368016));
#1103 = CARTESIAN_POINT('',(-2.930673382201,14.482772677041));
#1104 = CARTESIAN_POINT('',(-2.926087937588,14.37334110748));
#1105 = CARTESIAN_POINT('',(-2.92289987013,14.263031415663));
#1106 = CARTESIAN_POINT('',(-2.921087742434,14.152238192523));
#1107 = CARTESIAN_POINT('',(-2.92027184903,13.945718072561));
#1108 = CARTESIAN_POINT('',(-2.92091408683,13.850011194872));
#1109 = CARTESIAN_POINT('',(-2.922575531755,13.754479076896));
#1110 = CARTESIAN_POINT('',(-2.925262530915,13.65940761702));
#1111 = CARTESIAN_POINT('',(-2.928987471165,13.565072866609));
#1112 = CARTESIAN_POINT('',(-2.933774446602,13.471757650841));
#1113 = CARTESIAN_POINT('',(-2.941361174924,13.3534254814));
#1114 = CARTESIAN_POINT('',(-2.943141664541,13.327186077662));
#1115 = CARTESIAN_POINT('',(-2.945013955238,13.301070125107));
#1116 = CARTESIAN_POINT('',(-2.946979105107,13.275087605325));
#1117 = CARTESIAN_POINT('',(-2.949038281879,13.249249332862));
#1118 = CARTESIAN_POINT('',(-2.951192762928,13.223566955218));
#1119 = CARTESIAN_POINT('',(-2.955983309499,13.169272570715));
#1120 = CARTESIAN_POINT('',(-2.95864569687,13.14070678912));
#1121 = CARTESIAN_POINT('',(-2.961433138149,13.112373421539));
#1122 = CARTESIAN_POINT('',(-2.964347828161,13.084292414974));
#1123 = CARTESIAN_POINT('',(-2.967392151315,13.056486035646));
#1124 = CARTESIAN_POINT('',(-2.97056871714,13.028979054687));
#1125 = CARTESIAN_POINT('',(-2.977550888999,12.971673895141));
#1126 = CARTESIAN_POINT('',(-2.981387219044,12.941951509586));
#1127 = CARTESIAN_POINT('',(-2.9853933984,12.912668399564));
#1128 = CARTESIAN_POINT('',(-2.989573573186,12.883867527512));
#1129 = CARTESIAN_POINT('',(-2.993932058313,12.855598632796));
#1130 = CARTESIAN_POINT('',(-2.99847337262,12.827918668604));
#1131 = CARTESIAN_POINT('',(-3.008398974396,12.771192262612));
#1132 = CARTESIAN_POINT('',(-3.013821594255,12.742285163998));
#1133 = CARTESIAN_POINT('',(-3.019476796361,12.714253808799));
#1134 = CARTESIAN_POINT('',(-3.025370440021,12.687200870085));
#1135 = CARTESIAN_POINT('',(-3.031507147954,12.661247778611));
#1136 = CARTESIAN_POINT('',(-3.037889873194,12.636533673253));
#1137 = CARTESIAN_POINT('',(-3.049231267566,12.596640781817));
#1138 = CARTESIAN_POINT('',(-3.054067326329,12.580773362365));
#1139 = CARTESIAN_POINT('',(-3.059027607792,12.565668426289));
#1140 = CARTESIAN_POINT('',(-3.064110858579,12.551389027798));
#1141 = CARTESIAN_POINT('',(-3.069314298165,12.538002706388));
#1142 = CARTESIAN_POINT('',(-3.074633310648,12.525579251118));
#1143 = CARTESIAN_POINT('',(-3.082837499166,12.508362015316));
#1144 = CARTESIAN_POINT('',(-3.085642282341,12.502805742572));
#1145 = CARTESIAN_POINT('',(-3.08847454389,12.497529217335));
#1146 = CARTESIAN_POINT('',(-3.091333164392,12.49254173029));
#1147 = CARTESIAN_POINT('',(-3.094216847144,12.487852292139));
#1148 = CARTESIAN_POINT('',(-3.097124118159,12.483469633592));
#1149 = CARTESIAN_POINT('',(-3.105838867477,12.471368541014));
#1150 = CARTESIAN_POINT('',(-3.111710750204,12.464563239607));
#1151 = CARTESIAN_POINT('',(-3.117655035255,12.459051994271));
#1152 = CARTESIAN_POINT('',(-3.123655982094,12.454889378066));
#1153 = CARTESIAN_POINT('',(-3.129696068872,12.452115161539));
#1154 = CARTESIAN_POINT('',(-3.135756012549,12.450750630269));
#1155 = CARTESIAN_POINT('',(-3.147810108335,12.450838710864));
#1156 = CARTESIAN_POINT('',(-3.153805537075,12.452261975644));
#1157 = CARTESIAN_POINT('',(-3.159780736667,12.455064679718));
#1158 = CARTESIAN_POINT('',(-3.165717058968,12.459225623381));
#1159 = CARTESIAN_POINT('',(-3.171597562644,12.464705950474));
#1160 = CARTESIAN_POINT('',(-3.177407029534,12.471452674606));
#1161 = CARTESIAN_POINT('',(-3.18606118902,12.483469633592));
#1162 = CARTESIAN_POINT('',(-3.188968460035,12.487852292139));
#1163 = CARTESIAN_POINT('',(-3.191852142787,12.49254173029));
#1164 = CARTESIAN_POINT('',(-3.194710763289,12.497529217334));
#1165 = CARTESIAN_POINT('',(-3.197543024838,12.502805742572));
#1166 = CARTESIAN_POINT('',(-3.200347808014,12.508362015316));
#1167 = CARTESIAN_POINT('',(-3.208551996532,12.525579251117));
#1168 = CARTESIAN_POINT('',(-3.213871009014,12.538002706387));
#1169 = CARTESIAN_POINT('',(-3.219074448601,12.551389027797));
#1170 = CARTESIAN_POINT('',(-3.224157699387,12.565668426288));
#1171 = CARTESIAN_POINT('',(-3.229117980851,12.580773362365));
#1172 = CARTESIAN_POINT('',(-3.233954039614,12.596640781816));
#1173 = CARTESIAN_POINT('',(-3.245295433985,12.636533673252));
#1174 = CARTESIAN_POINT('',(-3.251678159225,12.66124777861));
#1175 = CARTESIAN_POINT('',(-3.257814867159,12.687200870084));
#1176 = CARTESIAN_POINT('',(-3.263708510818,12.714253808798));
#1177 = CARTESIAN_POINT('',(-3.269363712924,12.742285163997));
#1178 = CARTESIAN_POINT('',(-3.274786332783,12.771192262611));
#1179 = CARTESIAN_POINT('',(-3.284711934559,12.827918668603));
#1180 = CARTESIAN_POINT('',(-3.289253248866,12.855598632795));
#1181 = CARTESIAN_POINT('',(-3.293611733994,12.88386752751));
#1182 = CARTESIAN_POINT('',(-3.297791908779,12.912668399563));
#1183 = CARTESIAN_POINT('',(-3.301798088136,12.941951509585));
#1184 = CARTESIAN_POINT('',(-3.30563441818,12.97167389514));
#1185 = CARTESIAN_POINT('',(-3.312616590039,13.028979054685));
#1186 = CARTESIAN_POINT('',(-3.315793155865,13.056486035644));
#1187 = CARTESIAN_POINT('',(-3.318837479019,13.084292414972));
#1188 = CARTESIAN_POINT('',(-3.32175216903,13.112373421537));
#1189 = CARTESIAN_POINT('',(-3.324539610309,13.140706789118));
#1190 = CARTESIAN_POINT('',(-3.327201997681,13.169272570713));
#1191 = CARTESIAN_POINT('',(-3.331992544252,13.223566955215));
#1192 = CARTESIAN_POINT('',(-3.3341470253,13.24924933286));
#1193 = CARTESIAN_POINT('',(-3.336206202072,13.275087605323));
#1194 = CARTESIAN_POINT('',(-3.338171351941,13.301070125104));
#1195 = CARTESIAN_POINT('',(-3.340043642639,13.327186077659));
#1196 = CARTESIAN_POINT('',(-3.341824132255,13.353425481397));
#1197 = CARTESIAN_POINT('',(-3.349047325837,13.466087505191));
#1198 = CARTESIAN_POINT('',(-3.353606147587,13.55361552765));
#1199 = CARTESIAN_POINT('',(-3.357224722271,13.642047865037));
#1200 = CARTESIAN_POINT('',(-3.359924560202,13.731120416193));
#1201 = CARTESIAN_POINT('',(-3.361719537876,13.820603781215));
#1202 = CARTESIAN_POINT('',(-3.362617399609,13.910292191287));
#1203 = CARTESIAN_POINT('',(-3.362617440037,14.117111910347));
#1204 = CARTESIAN_POINT('',(-3.361087256291,14.234164759674));
#1205 = CARTESIAN_POINT('',(-3.358029362835,14.35077159445));
#1206 = CARTESIAN_POINT('',(-3.353421414272,14.466483115076));
#1207 = CARTESIAN_POINT('',(-3.34722002019,14.580741168439));
#1208 = CARTESIAN_POINT('',(-3.33936567479,14.692868554076));
#1209 = CARTESIAN_POINT('',(-3.327201997681,14.830727429283));
#1210 = CARTESIAN_POINT('',(-3.32453961031,14.859293210878));
#1211 = CARTESIAN_POINT('',(-3.32175216903,14.887626578459));
#1212 = CARTESIAN_POINT('',(-3.318837479019,14.915707585024));
#1213 = CARTESIAN_POINT('',(-3.315793155865,14.943513964352));
#1214 = CARTESIAN_POINT('',(-3.312616590039,14.971020945311));
#1215 = CARTESIAN_POINT('',(-3.305634418181,15.028326104857));
#1216 = CARTESIAN_POINT('',(-3.301798088136,15.058048490412));
#1217 = CARTESIAN_POINT('',(-3.29779190878,15.087331600434));
#1218 = CARTESIAN_POINT('',(-3.293611733994,15.116132472487));
#1219 = CARTESIAN_POINT('',(-3.289253248866,15.144401367202));
#1220 = CARTESIAN_POINT('',(-3.284711934559,15.172081331395));
#1221 = CARTESIAN_POINT('',(-3.274786332783,15.228807737387));
#1222 = CARTESIAN_POINT('',(-3.269363712924,15.257714836001));
#1223 = CARTESIAN_POINT('',(-3.263708510818,15.2857461912));
#1224 = CARTESIAN_POINT('',(-3.257814867159,15.312799129915));
#1225 = CARTESIAN_POINT('',(-3.251678159226,15.338752221388));
#1226 = CARTESIAN_POINT('',(-3.245295433985,15.363466326746));
#1227 = CARTESIAN_POINT('',(-3.233954039614,15.403359218183));
#1228 = CARTESIAN_POINT('',(-3.229117980851,15.419226637634));
#1229 = CARTESIAN_POINT('',(-3.224157699387,15.434331573711));
#1230 = CARTESIAN_POINT('',(-3.219074448601,15.448610972202));
#1231 = CARTESIAN_POINT('',(-3.213871009015,15.461997293612));
#1232 = CARTESIAN_POINT('',(-3.208551996532,15.474420748882));
#1233 = CARTESIAN_POINT('',(-3.194894623365,15.503081988655));
#1234 = CARTESIAN_POINT('',(-3.186410614269,15.517987811092));
#1235 = CARTESIAN_POINT('',(-3.177702430669,15.530267249245));
#1236 = CARTESIAN_POINT('',(-3.168810012525,15.539680193324));
#1237 = CARTESIAN_POINT('',(-3.159784078409,15.546031911679));
#1238 = CARTESIAN_POINT('',(-3.150686889778,15.549205909172));
#1239 = CARTESIAN_POINT('',(-3.14159265359,15.549205909172));
#1240 = ( GEOMETRIC_REPRESENTATION_CONTEXT(2) 
PARAMETRIC_REPRESENTATION_CONTEXT() REPRESENTATION_CONTEXT('2D SPACE',''
  ) );
#1241 = PCURVE('',#1242,#1247);
#1242 = CONICAL_SURFACE('',#1243,3.,1.029744258677);
#1243 = AXIS2_PLACEMENT_3D('',#1244,#1245,#1246);
#1244 = CARTESIAN_POINT('',(46.,0.,290.43287584792));
#1245 = DIRECTION('',(0.,0.,-1.));
#1246 = DIRECTION('',(-1.,-0.,-0.));
#1247 = DEFINITIONAL_REPRESENTATION('',(#1248),#1419);
#1248 = B_SPLINE_CURVE_WITH_KNOTS('',7,(#1249,#1250,#1251,#1252,#1253,
    #1254,#1255,#1256,#1257,#1258,#1259,#1260,#1261,#1262,#1263,#1264,
    #1265,#1266,#1267,#1268,#1269,#1270,#1271,#1272,#1273,#1274,#1275,
    #1276,#1277,#1278,#1279,#1280,#1281,#1282,#1283,#1284,#1285,#1286,
    #1287,#1288,#1289,#1290,#1291,#1292,#1293,#1294,#1295,#1296,#1297,
    #1298,#1299,#1300,#1301,#1302,#1303,#1304,#1305,#1306,#1307,#1308,
    #1309,#1310,#1311,#1312,#1313,#1314,#1315,#1316,#1317,#1318,#1319,
    #1320,#1321,#1322,#1323,#1324,#1325,#1326,#1327,#1328,#1329,#1330,
    #1331,#1332,#1333,#1334,#1335,#1336,#1337,#1338,#1339,#1340,#1341,
    #1342,#1343,#1344,#1345,#1346,#1347,#1348,#1349,#1350,#1351,#1352,
    #1353,#1354,#1355,#1356,#1357,#1358,#1359,#1360,#1361,#1362,#1363,
    #1364,#1365,#1366,#1367,#1368,#1369,#1370,#1371,#1372,#1373,#1374,
    #1375,#1376,#1377,#1378,#1379,#1380,#1381,#1382,#1383,#1384,#1385,
    #1386,#1387,#1388,#1389,#1390,#1391,#1392,#1393,#1394,#1395,#1396,
    #1397,#1398,#1399,#1400,#1401,#1402,#1403,#1404,#1405,#1406,#1407,
    #1408,#1409,#1410,#1411,#1412,#1413,#1414,#1415,#1416,#1417,#1418),
  .UNSPECIFIED.,.F.,.F.,(8,6,6,6,6,6,6,6,6,6,6,6,6,6,6,6,6,6,6,6,6,6,6,6
    ,6,6,6,6,8),(0.,3.537654639425E-02,5.861052340448E-02,
    9.147359704718E-02,0.121193971823,0.148270415983,0.244864009536,
    0.328084255733,0.351928554167,0.378825471806,0.40863662272,
    0.441396794166,0.464680189217,0.476589773371,0.500112647438,
    0.523389152428,0.535298724953,0.558582097271,0.59134223673,
    0.621153358537,0.648050249914,0.671894525067,0.749984462346,
    0.851933555375,0.87883284388,0.908646622539,0.941409681675,
    0.964695129073,1.),.UNSPECIFIED.);
#1249 = CARTESIAN_POINT('',(6.28318530718,-0.871725035497));
#1250 = CARTESIAN_POINT('',(6.24809591277,-0.871725035497));
#1251 = CARTESIAN_POINT('',(6.212995119583,-0.872302983221));
#1252 = CARTESIAN_POINT('',(6.17801297007,-0.873459690901));
#1253 = CARTESIAN_POINT('',(6.143233373385,-0.875166967039));
#1254 = CARTESIAN_POINT('',(6.108716541079,-0.877376496482));
#1255 = CARTESIAN_POINT('',(6.074511460519,-0.880028172829));
#1256 = CARTESIAN_POINT('',(6.01842500087,-0.885047682319));
#1257 = CARTESIAN_POINT('',(5.996335745558,-0.887201247734));
#1258 = CARTESIAN_POINT('',(5.974393770065,-0.889501251397));
#1259 = CARTESIAN_POINT('',(5.952598906869,-0.891930286945));
#1260 = CARTESIAN_POINT('',(5.930948018891,-0.894471388717));
#1261 = CARTESIAN_POINT('',(5.909435327423,-0.897108550766));
#1262 = CARTESIAN_POINT('',(5.85780834654,-0.903672677831));
#1263 = CARTESIAN_POINT('',(5.827828294048,-0.907680702702));
#1264 = CARTESIAN_POINT('',(5.798085507395,-0.91181020409));
#1265 = CARTESIAN_POINT('',(5.768554857082,-0.916024278089));
#1266 = CARTESIAN_POINT('',(5.73921158432,-0.920290299623));
#1267 = CARTESIAN_POINT('',(5.710029726068,-0.924579988767));
#1268 = CARTESIAN_POINT('',(5.654709330498,-0.932748761227));
#1269 = CARTESIAN_POINT('',(5.628549445225,-0.936627432369));
#1270 = CARTESIAN_POINT('',(5.602481396998,-0.940487474578));
#1271 = CARTESIAN_POINT('',(5.576488652147,-0.944312893763));
#1272 = CARTESIAN_POINT('',(5.550556754295,-0.948089533833));
#1273 = CARTESIAN_POINT('',(5.524672448083,-0.951804892853));
#1274 = CARTESIAN_POINT('',(5.47527274739,-0.958766899416));
#1275 = CARTESIAN_POINT('',(5.451752245493,-0.962025729878));
#1276 = CARTESIAN_POINT('',(5.428252091103,-0.965216026297));
#1277 = CARTESIAN_POINT('',(5.404764653106,-0.968330210474));
#1278 = CARTESIAN_POINT('',(5.381283537143,-0.971361456762));
#1279 = CARTESIAN_POINT('',(5.3578032474,-0.974303618522));
#1280 = CARTESIAN_POINT('',(5.250539660919,-0.987309568967));
#1281 = CARTESIAN_POINT('',(5.166732394361,-0.996260767122));
#1282 = CARTESIAN_POINT('',(5.082639141395,-1.003758980274));
#1283 = CARTESIAN_POINT('',(4.9982382834,-1.009636683909));
#1284 = CARTESIAN_POINT('',(4.913593905232,-1.013786562461));
#1285 = CARTESIAN_POINT('',(4.828814083475,-1.01615419611));
#1286 = CARTESIAN_POINT('',(4.670873921219,-1.017220756195));
#1287 = CARTESIAN_POINT('',(4.597715847852,-1.016382409761));
#1288 = CARTESIAN_POINT('',(4.524611657473,-1.014202570218));
#1289 = CARTESIAN_POINT('',(4.45166496591,-1.010703119059));
#1290 = CARTESIAN_POINT('',(4.378945929851,-1.005933623883));
#1291 = CARTESIAN_POINT('',(4.306457265201,-0.99996996716));
#1292 = CARTESIAN_POINT('',(4.213353010194,-0.990894029366));
#1293 = CARTESIAN_POINT('',(4.192631118325,-0.988783527853));
#1294 = CARTESIAN_POINT('',(4.171921472845,-0.986586421026));
#1295 = CARTESIAN_POINT('',(4.151222496529,-0.984305602963));
#1296 = CARTESIAN_POINT('',(4.130532105039,-0.981944263801));
#1297 = CARTESIAN_POINT('',(4.109847706924,-0.979505889738));
#1298 = CARTESIAN_POINT('',(4.065836991705,-0.974161090274));
#1299 = CARTESIAN_POINT('',(4.042511653484,-0.971234753292));
#1300 = CARTESIAN_POINT('',(4.019185324368,-0.968220702247));
#1301 = CARTESIAN_POINT('',(3.995852590941,-0.96512497879));
#1302 = CARTESIAN_POINT('',(3.972507163027,-0.961954287381));
#1303 = CARTESIAN_POINT('',(3.949141545751,-0.958716066615));
#1304 = CARTESIAN_POINT('',(3.899817088704,-0.951763775544));
#1305 = CARTESIAN_POINT('',(3.873852563442,-0.948036301679));
#1306 = CARTESIAN_POINT('',(3.847840038631,-0.944247273973));
#1307 = CARTESIAN_POINT('',(3.82176610856,-0.940409319161));
#1308 = CARTESIAN_POINT('',(3.79561616769,-0.936536742737));
#1309 = CARTESIAN_POINT('',(3.769373519352,-0.932645715996));
#1310 = CARTESIAN_POINT('',(3.714056319768,-0.924478274187));
#1311 = CARTESIAN_POINT('',(3.684961888242,-0.920202363993));
#1312 = CARTESIAN_POINT('',(3.655706641629,-0.915950421246));
#1313 = CARTESIAN_POINT('',(3.626264810687,-0.911750508358));
#1314 = CARTESIAN_POINT('',(3.596611857404,-0.907634989977));
#1315 = CARTESIAN_POINT('',(3.566722927224,-0.903640461557));
#1316 = CARTESIAN_POINT('',(3.515141858528,-0.897083631877));
#1317 = CARTESIAN_POINT('',(3.493581711951,-0.894441546654));
#1318 = CARTESIAN_POINT('',(3.471882722532,-0.891896047424));
#1319 = CARTESIAN_POINT('',(3.450039087184,-0.889463251777));
#1320 = CARTESIAN_POINT('',(3.428047672083,-0.887160243541));
#1321 = CARTESIAN_POINT('',(3.405908346001,-0.8850045466));
#1322 = CARTESIAN_POINT('',(3.372225908985,-0.881995217959));
#1323 = CARTESIAN_POINT('',(3.36078984723,-0.881019932393));
#1324 = CARTESIAN_POINT('',(3.349316730872,-0.880090123836));
#1325 = CARTESIAN_POINT('',(3.337807504345,-0.879208098395));
#1326 = CARTESIAN_POINT('',(3.326263454026,-0.878376086467));
#1327 = CARTESIAN_POINT('',(3.314686208233,-0.877596242735));
#1328 = CARTESIAN_POINT('',(3.280149598167,-0.8754375049));
#1329 = CARTESIAN_POINT('',(3.257096552466,-0.874215706836));
#1330 = CARTESIAN_POINT('',(3.233938951495,-0.873221318927));
#1331 = CARTESIAN_POINT('',(3.210698001047,-0.872467697632));
#1332 = CARTESIAN_POINT('',(3.187397543472,-0.871964576635));
#1333 = CARTESIAN_POINT('',(3.164065839826,-0.871717154556));
#1334 = CARTESIAN_POINT('',(3.117653197346,-0.87173312669));
#1335 = CARTESIAN_POINT('',(3.09456750005,-0.87199120033));
#1336 = CARTESIAN_POINT('',(3.071513532848,-0.87249943211));
#1337 = CARTESIAN_POINT('',(3.048518615989,-0.873252644691));
#1338 = CARTESIAN_POINT('',(3.025605807112,-0.874241328215));
#1339 = CARTESIAN_POINT('',(3.002795591102,-0.875452513658));
#1340 = CARTESIAN_POINT('',(2.968499098947,-0.877596242735));
#1341 = CARTESIAN_POINT('',(2.956921853154,-0.878376086467));
#1342 = CARTESIAN_POINT('',(2.945377802835,-0.879208098395));
#1343 = CARTESIAN_POINT('',(2.933868576309,-0.880090123836));
#1344 = CARTESIAN_POINT('',(2.922395459951,-0.881019932393));
#1345 = CARTESIAN_POINT('',(2.910959398196,-0.881995217959));
#1346 = CARTESIAN_POINT('',(2.877276961179,-0.8850045466));
#1347 = CARTESIAN_POINT('',(2.855137635098,-0.887160243541));
#1348 = CARTESIAN_POINT('',(2.833146219997,-0.889463251777));
#1349 = CARTESIAN_POINT('',(2.811302584648,-0.891896047424));
#1350 = CARTESIAN_POINT('',(2.789603595229,-0.894441546654));
#1351 = CARTESIAN_POINT('',(2.768043448652,-0.897083631877));
#1352 = CARTESIAN_POINT('',(2.716462379957,-0.903640461557));
#1353 = CARTESIAN_POINT('',(2.686573449776,-0.907634989977));
#1354 = CARTESIAN_POINT('',(2.656920496494,-0.911750508357));
#1355 = CARTESIAN_POINT('',(2.627478665552,-0.915950421246));
#1356 = CARTESIAN_POINT('',(2.598223418938,-0.920202363993));
#1357 = CARTESIAN_POINT('',(2.569128987412,-0.924478274187));
#1358 = CARTESIAN_POINT('',(2.513811787829,-0.932645715996));
#1359 = CARTESIAN_POINT('',(2.487569139491,-0.936536742737));
#1360 = CARTESIAN_POINT('',(2.461419198621,-0.940409319161));
#1361 = CARTESIAN_POINT('',(2.43534526855,-0.944247273973));
#1362 = CARTESIAN_POINT('',(2.409332743739,-0.948036301679));
#1363 = CARTESIAN_POINT('',(2.383368218477,-0.951763775544));
#1364 = CARTESIAN_POINT('',(2.33404376143,-0.958716066615));
#1365 = CARTESIAN_POINT('',(2.310678144154,-0.961954287381));
#1366 = CARTESIAN_POINT('',(2.28733271624,-0.96512497879));
#1367 = CARTESIAN_POINT('',(2.263999982814,-0.968220702247));
#1368 = CARTESIAN_POINT('',(2.240673653697,-0.971234753292));
#1369 = CARTESIAN_POINT('',(2.217348315477,-0.974161090273));
#1370 = CARTESIAN_POINT('',(2.173337600257,-0.979505889738));
#1371 = CARTESIAN_POINT('',(2.152653202142,-0.981944263801));
#1372 = CARTESIAN_POINT('',(2.131962810653,-0.984305602963));
#1373 = CARTESIAN_POINT('',(2.111263834337,-0.986586421026));
#1374 = CARTESIAN_POINT('',(2.090554188857,-0.988783527853));
#1375 = CARTESIAN_POINT('',(2.069832296988,-0.990894029366));
#1376 = CARTESIAN_POINT('',(1.981189336731,-0.999535073678));
#1377 = CARTESIAN_POINT('',(1.913142684534,-1.005197481438));
#1378 = CARTESIAN_POINT('',(1.84490888481,-1.009811301054));
#1379 = CARTESIAN_POINT('',(1.776504638287,-1.01331225549));
#1380 = CARTESIAN_POINT('',(1.707980574235,-1.01565965993));
#1381 = CARTESIAN_POINT('',(1.639395781482,-1.016833759031));
#1382 = CARTESIAN_POINT('',(1.481240988163,-1.016833811899));
#1383 = CARTESIAN_POINT('',(1.391731098636,-1.014832677209));
#1384 = CARTESIAN_POINT('',(1.302345494076,-1.010834341824));
#1385 = CARTESIAN_POINT('',(1.213219035671,-1.004893216869));
#1386 = CARTESIAN_POINT('',(1.124438742616,-0.997128305037));
#1387 = CARTESIAN_POINT('',(1.035991947981,-0.987732070941));
#1388 = CARTESIAN_POINT('',(0.924244338117,-0.974161090274));
#1389 = CARTESIAN_POINT('',(0.900918999896,-0.971234753292));
#1390 = CARTESIAN_POINT('',(0.87759267078,-0.968220702247));
#1391 = CARTESIAN_POINT('',(0.854259937353,-0.96512497879));
#1392 = CARTESIAN_POINT('',(0.830914509439,-0.961954287381));
#1393 = CARTESIAN_POINT('',(0.807548892162,-0.958716066615));
#1394 = CARTESIAN_POINT('',(0.758224435116,-0.951763775545));
#1395 = CARTESIAN_POINT('',(0.732259909854,-0.94803630168));
#1396 = CARTESIAN_POINT('',(0.706247385042,-0.944247273973));
#1397 = CARTESIAN_POINT('',(0.680173454971,-0.940409319162));
#1398 = CARTESIAN_POINT('',(0.654023514101,-0.936536742737));
#1399 = CARTESIAN_POINT('',(0.627780865763,-0.932645715996));
#1400 = CARTESIAN_POINT('',(0.57246366618,-0.924478274187));
#1401 = CARTESIAN_POINT('',(0.543369234654,-0.920202363993));
#1402 = CARTESIAN_POINT('',(0.51411398804,-0.915950421246));
#1403 = CARTESIAN_POINT('',(0.484672157098,-0.911750508358));
#1404 = CARTESIAN_POINT('',(0.455019203815,-0.907634989977));
#1405 = CARTESIAN_POINT('',(0.425130273635,-0.903640461557));
#1406 = CARTESIAN_POINT('',(0.373549204939,-0.897083631877));
#1407 = CARTESIAN_POINT('',(0.351989058362,-0.894441546654));
#1408 = CARTESIAN_POINT('',(0.330290068943,-0.891896047425));
#1409 = CARTESIAN_POINT('',(0.308446433595,-0.889463251777));
#1410 = CARTESIAN_POINT('',(0.286455018494,-0.887160243541));
#1411 = CARTESIAN_POINT('',(0.264315692412,-0.8850045466));
#1412 = CARTESIAN_POINT('',(0.208245112061,-0.879994968366));
#1413 = CARTESIAN_POINT('',(0.174108262691,-0.877353442806));
#1414 = CARTESIAN_POINT('',(0.139661303233,-0.875152713387));
#1415 = CARTESIAN_POINT('',(0.104953054438,-0.873452446433));
#1416 = CARTESIAN_POINT('',(7.004348799942E-02,-0.872300570889));
#1417 = CARTESIAN_POINT('',(3.501608052387E-02,-0.871725035497));
#1418 = CARTESIAN_POINT('',(0.,-0.871725035497));
#1419 = ( GEOMETRIC_REPRESENTATION_CONTEXT(2) 
PARAMETRIC_REPRESENTATION_CONTEXT() REPRESENTATION_CONTEXT('2D SPACE',''
  ) );
#1420 = ADVANCED_FACE('',(#1421,#1427),#237,.T.);
#1421 = FACE_BOUND('',#1422,.F.);
#1422 = EDGE_LOOP('',(#1423,#1424,#1425,#1426));
#1423 = ORIENTED_EDGE('',*,*,#223,.F.);
#1424 = ORIENTED_EDGE('',*,*,#338,.T.);
#1425 = ORIENTED_EDGE('',*,*,#423,.T.);
#1426 = ORIENTED_EDGE('',*,*,#254,.F.);
#1427 = FACE_BOUND('',#1428,.F.);
#1428 = EDGE_LOOP('',(#1429));
#1429 = ORIENTED_EDGE('',*,*,#657,.F.);
#1430 = ADVANCED_FACE('',(#1431),#321,.F.);
#1431 = FACE_BOUND('',#1432,.T.);
#1432 = EDGE_LOOP('',(#1433,#1434,#1455,#1456,#1457));
#1433 = ORIENTED_EDGE('',*,*,#300,.F.);
#1434 = ORIENTED_EDGE('',*,*,#1435,.F.);
#1435 = EDGE_CURVE('',#448,#301,#1436,.T.);
#1436 = SEAM_CURVE('',#1437,(#1441,#1448),.PCURVE_S1.);
#1437 = LINE('',#1438,#1439);
#1438 = CARTESIAN_POINT('',(43.,-7.347880794884E-16,297.26960088342));
#1439 = VECTOR('',#1440,1.);
#1440 = DIRECTION('',(-0.,-0.,1.));
#1441 = PCURVE('',#321,#1442);
#1442 = DEFINITIONAL_REPRESENTATION('',(#1443),#1447);
#1443 = LINE('',#1444,#1445);
#1444 = CARTESIAN_POINT('',(-6.28318530718,-0.));
#1445 = VECTOR('',#1446,1.);
#1446 = DIRECTION('',(-0.,1.));
#1447 = ( GEOMETRIC_REPRESENTATION_CONTEXT(2) 
PARAMETRIC_REPRESENTATION_CONTEXT() REPRESENTATION_CONTEXT('2D SPACE',''
  ) );
#1448 = PCURVE('',#321,#1449);
#1449 = DEFINITIONAL_REPRESENTATION('',(#1450),#1454);
#1450 = LINE('',#1451,#1452);
#1451 = CARTESIAN_POINT('',(-0.,-0.));
#1452 = VECTOR('',#1453,1.);
#1453 = DIRECTION('',(-0.,1.));
#1454 = ( GEOMETRIC_REPRESENTATION_CONTEXT(2) 
PARAMETRIC_REPRESENTATION_CONTEXT() REPRESENTATION_CONTEXT('2D SPACE',''
  ) );
#1455 = ORIENTED_EDGE('',*,*,#447,.T.);
#1456 = ORIENTED_EDGE('',*,*,#684,.T.);
#1457 = ORIENTED_EDGE('',*,*,#1435,.T.);
#1458 = ADVANCED_FACE('',(#1459),#405,.F.);
#1459 = FACE_BOUND('',#1460,.T.);
#1460 = EDGE_LOOP('',(#1461,#1484,#1506,#1507));
#1461 = ORIENTED_EDGE('',*,*,#1462,.T.);
#1462 = EDGE_CURVE('',#385,#1463,#1465,.T.);
#1463 = VERTEX_POINT('',#1464);
#1464 = CARTESIAN_POINT('',(43.,-7.347880794884E-16,290.43287584792));
#1465 = SEAM_CURVE('',#1466,(#1470,#1477),.PCURVE_S1.);
#1466 = LINE('',#1467,#1468);
#1467 = CARTESIAN_POINT('',(43.,-7.347880794884E-16,278.71430036283));
#1468 = VECTOR('',#1469,1.);
#1469 = DIRECTION('',(-0.,-0.,1.));
#1470 = PCURVE('',#405,#1471);
#1471 = DEFINITIONAL_REPRESENTATION('',(#1472),#1476);
#1472 = LINE('',#1473,#1474);
#1473 = CARTESIAN_POINT('',(-6.28318530718,-0.));
#1474 = VECTOR('',#1475,1.);
#1475 = DIRECTION('',(-0.,1.));
#1476 = ( GEOMETRIC_REPRESENTATION_CONTEXT(2) 
PARAMETRIC_REPRESENTATION_CONTEXT() REPRESENTATION_CONTEXT('2D SPACE',''
  ) );
#1477 = PCURVE('',#405,#1478);
#1478 = DEFINITIONAL_REPRESENTATION('',(#1479),#1483);
#1479 = LINE('',#1480,#1481);
#1480 = CARTESIAN_POINT('',(-0.,-0.));
#1481 = VECTOR('',#1482,1.);
#1482 = DIRECTION('',(-0.,1.));
#1483 = ( GEOMETRIC_REPRESENTATION_CONTEXT(2) 
PARAMETRIC_REPRESENTATION_CONTEXT() REPRESENTATION_CONTEXT('2D SPACE',''
  ) );
#1484 = ORIENTED_EDGE('',*,*,#1485,.F.);
#1485 = EDGE_CURVE('',#1463,#1463,#1486,.T.);
#1486 = SURFACE_CURVE('',#1487,(#1492,#1499),.PCURVE_S1.);
#1487 = CIRCLE('',#1488,3.);
#1488 = AXIS2_PLACEMENT_3D('',#1489,#1490,#1491);
#1489 = CARTESIAN_POINT('',(46.,0.,290.43287584792));
#1490 = DIRECTION('',(0.,0.,-1.));
#1491 = DIRECTION('',(-1.,-0.,-0.));
#1492 = PCURVE('',#405,#1493);
#1493 = DEFINITIONAL_REPRESENTATION('',(#1494),#1498);
#1494 = LINE('',#1495,#1496);
#1495 = CARTESIAN_POINT('',(-0.,11.718575485092));
#1496 = VECTOR('',#1497,1.);
#1497 = DIRECTION('',(-1.,0.));
#1498 = ( GEOMETRIC_REPRESENTATION_CONTEXT(2) 
PARAMETRIC_REPRESENTATION_CONTEXT() REPRESENTATION_CONTEXT('2D SPACE',''
  ) );
#1499 = PCURVE('',#1242,#1500);
#1500 = DEFINITIONAL_REPRESENTATION('',(#1501),#1505);
#1501 = LINE('',#1502,#1503);
#1502 = CARTESIAN_POINT('',(0.,-0.));
#1503 = VECTOR('',#1504,1.);
#1504 = DIRECTION('',(1.,-0.));
#1505 = ( GEOMETRIC_REPRESENTATION_CONTEXT(2) 
PARAMETRIC_REPRESENTATION_CONTEXT() REPRESENTATION_CONTEXT('2D SPACE',''
  ) );
#1506 = ORIENTED_EDGE('',*,*,#1462,.F.);
#1507 = ORIENTED_EDGE('',*,*,#384,.T.);
#1508 = ADVANCED_FACE('',(#1509),#1242,.F.);
#1509 = FACE_BOUND('',#1510,.T.);
#1510 = EDGE_LOOP('',(#1511,#1512,#1533,#1534));
#1511 = ORIENTED_EDGE('',*,*,#892,.T.);
#1512 = ORIENTED_EDGE('',*,*,#1513,.F.);
#1513 = EDGE_CURVE('',#1463,#893,#1514,.T.);
#1514 = SEAM_CURVE('',#1515,(#1519,#1526),.PCURVE_S1.);
#1515 = LINE('',#1516,#1517);
#1516 = CARTESIAN_POINT('',(43.,-7.347880794884E-16,290.43287584792));
#1517 = VECTOR('',#1518,1.);
#1518 = DIRECTION('',(0.857167300702,2.099454382277E-16,0.51503807491));
#1519 = PCURVE('',#1242,#1520);
#1520 = DEFINITIONAL_REPRESENTATION('',(#1521),#1525);
#1521 = LINE('',#1522,#1523);
#1522 = CARTESIAN_POINT('',(6.28318530718,0.));
#1523 = VECTOR('',#1524,1.);
#1524 = DIRECTION('',(0.,-1.));
#1525 = ( GEOMETRIC_REPRESENTATION_CONTEXT(2) 
PARAMETRIC_REPRESENTATION_CONTEXT() REPRESENTATION_CONTEXT('2D SPACE',''
  ) );
#1526 = PCURVE('',#1242,#1527);
#1527 = DEFINITIONAL_REPRESENTATION('',(#1528),#1532);
#1528 = LINE('',#1529,#1530);
#1529 = CARTESIAN_POINT('',(-0.,0.));
#1530 = VECTOR('',#1531,1.);
#1531 = DIRECTION('',(0.,-1.));
#1532 = ( GEOMETRIC_REPRESENTATION_CONTEXT(2) 
PARAMETRIC_REPRESENTATION_CONTEXT() REPRESENTATION_CONTEXT('2D SPACE',''
  ) );
#1533 = ORIENTED_EDGE('',*,*,#1485,.T.);
#1534 = ORIENTED_EDGE('',*,*,#1513,.T.);
#1535 = ( GEOMETRIC_REPRESENTATION_CONTEXT(3) 
GLOBAL_UNCERTAINTY_ASSIGNED_CONTEXT((#1539)) 
GLOBAL_UNIT_ASSIGNED_CONTEXT((#1536,#1537,#1538)) REPRESENTATION_CONTEXT
('Context #1','3D Context with UNIT and UNCERTAINTY') );
#1536 = ( LENGTH_UNIT() NAMED_UNIT(*) SI_UNIT(.MILLI.,.METRE.) );
#1537 = ( NAMED_UNIT(*) PLANE_ANGLE_UNIT() SI_UNIT($,.RADIAN.) );
#1538 = ( NAMED_UNIT(*) SI_UNIT($,.STERADIAN.) SOLID_ANGLE_UNIT() );
#1539 = UNCERTAINTY_MEASURE_WITH_UNIT(LENGTH_MEASURE(1.E-07),#1536,
  'distance_accuracy_value','confusion accuracy');
#1540 = PRODUCT_RELATED_PRODUCT_CATEGORY('part',$,(#7));
ENDSEC;
END-ISO-10303-21;
