ISO-10303-21;
HEADER;
FILE_DESCRIPTION(('Open CASCADE Model'),'2;1');
FILE_NAME('Open CASCADE Shape Model','2026-09-23T09:53:17',('Author'),(
    'Open CASCADE'),'Open CASCADE STEP processor 7.9','Open CASCADE 7.9'
  ,'Unknown');
FILE_SCHEMA(('AUTOMOTIVE_DESIGN { 1 0 10303 214 1 1 1 1 }'));
ENDSEC;
DATA;
#1 = APPLICATION_PROTOCOL_DEFINITION('international standard',
  'automotive_design',2000,#2);
#2 = APPLICATION_CONTEXT(
  'core data for automotive mechanical design processes');
#3 = SHAPE_DEFINITION_REPRESENTATION(#4,#10);
#4 = PRODUCT_DEFINITION_SHAPE('','',#5);
#5 = PRODUCT_DEFINITION('design','',#6,#9);
#6 = PRODUCT_DEFINITION_FORMATION('','',#7);
#7 = PRODUCT('Open CASCADE STEP translator 7.9 3',
  'Open CASCADE STEP translator 7.9 3','',(#8));
#8 = PRODUCT_CONTEXT('',#2,'mechanical');
#9 = PRODUCT_DEFINITION_CONTEXT('part definition',#2,'design');
#10 = ADVANCED_BREP_SHAPE_REPRESENTATION('',(#11,#15),#1217);
#11 = AXIS2_PLACEMENT_3D('',#12,#13,#14);
#12 = CARTESIAN_POINT('',(0.,0.,0.));
#13 = DIRECTION('',(0.,0.,1.));
#14 = DIRECTION('',(1.,0.,-0.));
#15 = MANIFOLD_SOLID_BREP('',#16);
#16 = CLOSED_SHELL('',(#17,#217,#252,#282,#358,#407,#456,#483,#924,#993,
    #1048,#1103,#1153,#1203,#1210));
#17 = ADVANCED_FACE('',(#18,#105),#32,.T.);
#18 = FACE_BOUND('',#19,.T.);
#19 = EDGE_LOOP('',(#20,#50,#77,#78));
#20 = ORIENTED_EDGE('',*,*,#21,.T.);
#21 = EDGE_CURVE('',#22,#24,#26,.T.);
#22 = VERTEX_POINT('',#23);
#23 = CARTESIAN_POINT('',(69.7,-1.707157638011E-14,17.05));
#24 = VERTEX_POINT('',#25);
#25 = CARTESIAN_POINT('',(69.7,-1.707157638011E-14,72.85));
#26 = SEAM_CURVE('',#27,(#31,#43),.PCURVE_S1.);
#27 = LINE('',#28,#29);
#28 = CARTESIAN_POINT('',(69.7,-1.707157638011E-14,17.05));
#29 = VECTOR('',#30,1.);
#30 = DIRECTION('',(0.,0.,1.));
#31 = PCURVE('',#32,#37);
#32 = CYLINDRICAL_SURFACE('',#33,69.7);
#33 = AXIS2_PLACEMENT_3D('',#34,#35,#36);
#34 = CARTESIAN_POINT('',(0.,0.,17.05));
#35 = DIRECTION('',(0.,0.,1.));
#36 = DIRECTION('',(1.,0.,-0.));
#37 = DEFINITIONAL_REPRESENTATION('',(#38),#42);
#38 = LINE('',#39,#40);
#39 = CARTESIAN_POINT('',(6.28318530718,-0.));
#40 = VECTOR('',#41,1.);
#41 = DIRECTION('',(0.,1.));
#42 = ( GEOMETRIC_REPRESENTATION_CONTEXT(2) 
PARAMETRIC_REPRESENTATION_CONTEXT() REPRESENTATION_CONTEXT('2D SPACE',''
  ) );
#43 = PCURVE('',#32,#44);
#44 = DEFINITIONAL_REPRESENTATION('',(#45),#49);
#45 = LINE('',#46,#47);
#46 = CARTESIAN_POINT('',(0.,-0.));
#47 = VECTOR('',#48,1.);
#48 = DIRECTION('',(0.,1.));
#49 = ( GEOMETRIC_REPRESENTATION_CONTEXT(2) 
PARAMETRIC_REPRESENTATION_CONTEXT() REPRESENTATION_CONTEXT('2D SPACE',''
  ) );
#50 = ORIENTED_EDGE('',*,*,#51,.F.);
#51 = EDGE_CURVE('',#24,#24,#52,.T.);
#52 = SURFACE_CURVE('',#53,(#58,#65),.PCURVE_S1.);
#53 = CIRCLE('',#54,69.7);
#54 = AXIS2_PLACEMENT_3D('',#55,#56,#57);
#55 = CARTESIAN_POINT('',(0.,0.,72.85));
#56 = DIRECTION('',(0.,0.,1.));
#57 = DIRECTION('',(1.,0.,-0.));
#58 = PCURVE('',#32,#59);
#59 = DEFINITIONAL_REPRESENTATION('',(#60),#64);
#60 = LINE('',#61,#62);
#61 = CARTESIAN_POINT('',(0.,55.8));
#62 = VECTOR('',#63,1.);
#63 = DIRECTION('',(1.,0.));
#64 = ( GEOMETRIC_REPRESENTATION_CONTEXT(2) 
PARAMETRIC_REPRESENTATION_CONTEXT() REPRESENTATION_CONTEXT('2D SPACE',''
  ) );
#65 = PCURVE('',#66,#71);
#66 = PLANE('',#67);
#67 = AXIS2_PLACEMENT_3D('',#68,#69,#70);
#68 = CARTESIAN_POINT('',(0.,0.,72.85));
#69 = DIRECTION('',(0.,0.,1.));
#70 = DIRECTION('',(1.,0.,-0.));
#71 = DEFINITIONAL_REPRESENTATION('',(#72),#76);
#72 = CIRCLE('',#73,69.7);
#73 = AXIS2_PLACEMENT_2D('',#74,#75);
#74 = CARTESIAN_POINT('',(0.,0.));
#75 = DIRECTION('',(1.,0.));
#76 = ( GEOMETRIC_REPRESENTATION_CONTEXT(2) 
PARAMETRIC_REPRESENTATION_CONTEXT() REPRESENTATION_CONTEXT('2D SPACE',''
  ) );
#77 = ORIENTED_EDGE('',*,*,#21,.F.);
#78 = ORIENTED_EDGE('',*,*,#79,.T.);
#79 = EDGE_CURVE('',#22,#22,#80,.T.);
#80 = SURFACE_CURVE('',#81,(#86,#93),.PCURVE_S1.);
#81 = CIRCLE('',#82,69.7);
#82 = AXIS2_PLACEMENT_3D('',#83,#84,#85);
#83 = CARTESIAN_POINT('',(0.,0.,17.05));
#84 = DIRECTION('',(0.,0.,1.));
#85 = DIRECTION('',(1.,0.,-0.));
#86 = PCURVE('',#32,#87);
#87 = DEFINITIONAL_REPRESENTATION('',(#88),#92);
#88 = LINE('',#89,#90);
#89 = CARTESIAN_POINT('',(0.,0.));
#90 = VECTOR('',#91,1.);
#91 = DIRECTION('',(1.,0.));
#92 = ( GEOMETRIC_REPRESENTATION_CONTEXT(2) 
PARAMETRIC_REPRESENTATION_CONTEXT() REPRESENTATION_CONTEXT('2D SPACE',''
  ) );
#93 = PCURVE('',#94,#99);
#94 = PLANE('',#95);
#95 = AXIS2_PLACEMENT_3D('',#96,#97,#98);
#96 = CARTESIAN_POINT('',(0.,0.,17.05));
#97 = DIRECTION('',(0.,0.,1.));
#98 = DIRECTION('',(1.,0.,-0.));
#99 = DEFINITIONAL_REPRESENTATION('',(#100),#104);
#100 = CIRCLE('',#101,69.7);
#101 = AXIS2_PLACEMENT_2D('',#102,#103);
#102 = CARTESIAN_POINT('',(0.,0.));
#103 = DIRECTION('',(1.,0.));
#104 = ( GEOMETRIC_REPRESENTATION_CONTEXT(2) 
PARAMETRIC_REPRESENTATION_CONTEXT() REPRESENTATION_CONTEXT('2D SPACE',''
  ) );
#105 = FACE_BOUND('',#106,.T.);
#106 = EDGE_LOOP('',(#107,#135,#164,#190));
#107 = ORIENTED_EDGE('',*,*,#108,.F.);
#108 = EDGE_CURVE('',#109,#111,#113,.T.);
#109 = VERTEX_POINT('',#110);
#110 = CARTESIAN_POINT('',(-68.94961928828,-10.2,22.));
#111 = VERTEX_POINT('',#112);
#112 = CARTESIAN_POINT('',(-68.94961928828,-10.2,66.95));
#113 = SURFACE_CURVE('',#114,(#118,#124),.PCURVE_S1.);
#114 = LINE('',#115,#116);
#115 = CARTESIAN_POINT('',(-68.94961928828,-10.2,17.05));
#116 = VECTOR('',#117,1.);
#117 = DIRECTION('',(0.,0.,1.));
#118 = PCURVE('',#32,#119);
#119 = DEFINITIONAL_REPRESENTATION('',(#120),#123);
#120 = B_SPLINE_CURVE_WITH_KNOTS('',1,(#121,#122),.UNSPECIFIED.,.F.,.F.,
  (2,2),(0.455,54.395),.PIECEWISE_BEZIER_KNOTS.);
#121 = CARTESIAN_POINT('',(3.288461553118,0.455));
#122 = CARTESIAN_POINT('',(3.288461553118,54.395));
#123 = ( GEOMETRIC_REPRESENTATION_CONTEXT(2) 
PARAMETRIC_REPRESENTATION_CONTEXT() REPRESENTATION_CONTEXT('2D SPACE',''
  ) );
#124 = PCURVE('',#125,#130);
#125 = PLANE('',#126);
#126 = AXIS2_PLACEMENT_3D('',#127,#128,#129);
#127 = CARTESIAN_POINT('',(-81.1,-10.2,22.));
#128 = DIRECTION('',(-0.,1.,0.));
#129 = DIRECTION('',(0.,0.,1.));
#130 = DEFINITIONAL_REPRESENTATION('',(#131),#134);
#131 = B_SPLINE_CURVE_WITH_KNOTS('',1,(#132,#133),.UNSPECIFIED.,.F.,.F.,
  (2,2),(0.455,54.395),.PIECEWISE_BEZIER_KNOTS.);
#132 = CARTESIAN_POINT('',(-4.495,12.150380711711));
#133 = CARTESIAN_POINT('',(49.445,12.150380711711));
#134 = ( GEOMETRIC_REPRESENTATION_CONTEXT(2) 
PARAMETRIC_REPRESENTATION_CONTEXT() REPRESENTATION_CONTEXT('2D SPACE',''
  ) );
#135 = ORIENTED_EDGE('',*,*,#136,.F.);
#136 = EDGE_CURVE('',#137,#109,#139,.T.);
#137 = VERTEX_POINT('',#138);
#138 = CARTESIAN_POINT('',(-68.94961928828,10.2,22.));
#139 = SURFACE_CURVE('',#140,(#145,#152),.PCURVE_S1.);
#140 = CIRCLE('',#141,69.7);
#141 = AXIS2_PLACEMENT_3D('',#142,#143,#144);
#142 = CARTESIAN_POINT('',(0.,0.,22.));
#143 = DIRECTION('',(0.,0.,1.));
#144 = DIRECTION('',(1.,0.,-0.));
#145 = PCURVE('',#32,#146);
#146 = DEFINITIONAL_REPRESENTATION('',(#147),#151);
#147 = LINE('',#148,#149);
#148 = CARTESIAN_POINT('',(0.,4.95));
#149 = VECTOR('',#150,1.);
#150 = DIRECTION('',(1.,0.));
#151 = ( GEOMETRIC_REPRESENTATION_CONTEXT(2) 
PARAMETRIC_REPRESENTATION_CONTEXT() REPRESENTATION_CONTEXT('2D SPACE',''
  ) );
#152 = PCURVE('',#153,#158);
#153 = PLANE('',#154);
#154 = AXIS2_PLACEMENT_3D('',#155,#156,#157);
#155 = CARTESIAN_POINT('',(-81.1,-10.2,22.));
#156 = DIRECTION('',(0.,0.,1.));
#157 = DIRECTION('',(1.,0.,-0.));
#158 = DEFINITIONAL_REPRESENTATION('',(#159),#163);
#159 = CIRCLE('',#160,69.7);
#160 = AXIS2_PLACEMENT_2D('',#161,#162);
#161 = CARTESIAN_POINT('',(81.1,10.2));
#162 = DIRECTION('',(1.,0.));
#163 = ( GEOMETRIC_REPRESENTATION_CONTEXT(2) 
PARAMETRIC_REPRESENTATION_CONTEXT() REPRESENTATION_CONTEXT('2D SPACE',''
  ) );
#164 = ORIENTED_EDGE('',*,*,#165,.T.);
#165 = EDGE_CURVE('',#137,#166,#168,.T.);
#166 = VERTEX_POINT('',#167);
#167 = CARTESIAN_POINT('',(-68.94961928828,10.2,66.95));
#168 = SURFACE_CURVE('',#169,(#173,#179),.PCURVE_S1.);
#169 = LINE('',#170,#171);
#170 = CARTESIAN_POINT('',(-68.94961928828,10.2,17.05));
#171 = VECTOR('',#172,1.);
#172 = DIRECTION('',(0.,0.,1.));
#173 = PCURVE('',#32,#174);
#174 = DEFINITIONAL_REPRESENTATION('',(#175),#178);
#175 = B_SPLINE_CURVE_WITH_KNOTS('',1,(#176,#177),.UNSPECIFIED.,.F.,.F.,
  (2,2),(0.455,54.395),.PIECEWISE_BEZIER_KNOTS.);
#176 = CARTESIAN_POINT('',(2.994723754061,0.455));
#177 = CARTESIAN_POINT('',(2.994723754061,54.395));
#178 = ( GEOMETRIC_REPRESENTATION_CONTEXT(2) 
PARAMETRIC_REPRESENTATION_CONTEXT() REPRESENTATION_CONTEXT('2D SPACE',''
  ) );
#179 = PCURVE('',#180,#185);
#180 = PLANE('',#181);
#181 = AXIS2_PLACEMENT_3D('',#182,#183,#184);
#182 = CARTESIAN_POINT('',(-81.1,10.2,22.));
#183 = DIRECTION('',(-0.,1.,0.));
#184 = DIRECTION('',(0.,0.,1.));
#185 = DEFINITIONAL_REPRESENTATION('',(#186),#189);
#186 = B_SPLINE_CURVE_WITH_KNOTS('',1,(#187,#188),.UNSPECIFIED.,.F.,.F.,
  (2,2),(0.455,54.395),.PIECEWISE_BEZIER_KNOTS.);
#187 = CARTESIAN_POINT('',(-4.495,12.150380711711));
#188 = CARTESIAN_POINT('',(49.445,12.150380711711));
#189 = ( GEOMETRIC_REPRESENTATION_CONTEXT(2) 
PARAMETRIC_REPRESENTATION_CONTEXT() REPRESENTATION_CONTEXT('2D SPACE',''
  ) );
#190 = ORIENTED_EDGE('',*,*,#191,.T.);
#191 = EDGE_CURVE('',#166,#111,#192,.T.);
#192 = SURFACE_CURVE('',#193,(#198,#205),.PCURVE_S1.);
#193 = CIRCLE('',#194,69.7);
#194 = AXIS2_PLACEMENT_3D('',#195,#196,#197);
#195 = CARTESIAN_POINT('',(0.,0.,66.95));
#196 = DIRECTION('',(0.,0.,1.));
#197 = DIRECTION('',(1.,0.,-0.));
#198 = PCURVE('',#32,#199);
#199 = DEFINITIONAL_REPRESENTATION('',(#200),#204);
#200 = LINE('',#201,#202);
#201 = CARTESIAN_POINT('',(0.,49.9));
#202 = VECTOR('',#203,1.);
#203 = DIRECTION('',(1.,0.));
#204 = ( GEOMETRIC_REPRESENTATION_CONTEXT(2) 
PARAMETRIC_REPRESENTATION_CONTEXT() REPRESENTATION_CONTEXT('2D SPACE',''
  ) );
#205 = PCURVE('',#206,#211);
#206 = PLANE('',#207);
#207 = AXIS2_PLACEMENT_3D('',#208,#209,#210);
#208 = CARTESIAN_POINT('',(-81.1,-10.2,66.95));
#209 = DIRECTION('',(0.,0.,1.));
#210 = DIRECTION('',(1.,0.,-0.));
#211 = DEFINITIONAL_REPRESENTATION('',(#212),#216);
#212 = CIRCLE('',#213,69.7);
#213 = AXIS2_PLACEMENT_2D('',#214,#215);
#214 = CARTESIAN_POINT('',(81.1,10.2));
#215 = DIRECTION('',(1.,0.));
#216 = ( GEOMETRIC_REPRESENTATION_CONTEXT(2) 
PARAMETRIC_REPRESENTATION_CONTEXT() REPRESENTATION_CONTEXT('2D SPACE',''
  ) );
#217 = ADVANCED_FACE('',(#218,#221),#94,.F.);
#218 = FACE_BOUND('',#219,.F.);
#219 = EDGE_LOOP('',(#220));
#220 = ORIENTED_EDGE('',*,*,#79,.T.);
#221 = FACE_BOUND('',#222,.F.);
#222 = EDGE_LOOP('',(#223));
#223 = ORIENTED_EDGE('',*,*,#224,.F.);
#224 = EDGE_CURVE('',#225,#225,#227,.T.);
#225 = VERTEX_POINT('',#226);
#226 = CARTESIAN_POINT('',(60.,-1.469576158977E-14,17.05));
#227 = SURFACE_CURVE('',#228,(#233,#240),.PCURVE_S1.);
#228 = CIRCLE('',#229,60.);
#229 = AXIS2_PLACEMENT_3D('',#230,#231,#232);
#230 = CARTESIAN_POINT('',(0.,0.,17.05));
#231 = DIRECTION('',(0.,0.,1.));
#232 = DIRECTION('',(1.,0.,-0.));
#233 = PCURVE('',#94,#234);
#234 = DEFINITIONAL_REPRESENTATION('',(#235),#239);
#235 = CIRCLE('',#236,60.);
#236 = AXIS2_PLACEMENT_2D('',#237,#238);
#237 = CARTESIAN_POINT('',(0.,0.));
#238 = DIRECTION('',(1.,0.));
#239 = ( GEOMETRIC_REPRESENTATION_CONTEXT(2) 
PARAMETRIC_REPRESENTATION_CONTEXT() REPRESENTATION_CONTEXT('2D SPACE',''
  ) );
#240 = PCURVE('',#241,#246);
#241 = CYLINDRICAL_SURFACE('',#242,60.);
#242 = AXIS2_PLACEMENT_3D('',#243,#244,#245);
#243 = CARTESIAN_POINT('',(0.,0.,16.05));
#244 = DIRECTION('',(0.,0.,1.));
#245 = DIRECTION('',(1.,0.,-0.));
#246 = DEFINITIONAL_REPRESENTATION('',(#247),#251);
#247 = LINE('',#248,#249);
#248 = CARTESIAN_POINT('',(0.,1.));
#249 = VECTOR('',#250,1.);
#250 = DIRECTION('',(1.,0.));
#251 = ( GEOMETRIC_REPRESENTATION_CONTEXT(2) 
PARAMETRIC_REPRESENTATION_CONTEXT() REPRESENTATION_CONTEXT('2D SPACE',''
  ) );
#252 = ADVANCED_FACE('',(#253,#256),#66,.T.);
#253 = FACE_BOUND('',#254,.T.);
#254 = EDGE_LOOP('',(#255));
#255 = ORIENTED_EDGE('',*,*,#51,.T.);
#256 = FACE_BOUND('',#257,.T.);
#257 = EDGE_LOOP('',(#258));
#258 = ORIENTED_EDGE('',*,*,#259,.F.);
#259 = EDGE_CURVE('',#260,#260,#262,.T.);
#260 = VERTEX_POINT('',#261);
#261 = CARTESIAN_POINT('',(60.,-1.469576158977E-14,72.85));
#262 = SURFACE_CURVE('',#263,(#268,#275),.PCURVE_S1.);
#263 = CIRCLE('',#264,60.);
#264 = AXIS2_PLACEMENT_3D('',#265,#266,#267);
#265 = CARTESIAN_POINT('',(0.,0.,72.85));
#266 = DIRECTION('',(0.,0.,1.));
#267 = DIRECTION('',(1.,0.,-0.));
#268 = PCURVE('',#66,#269);
#269 = DEFINITIONAL_REPRESENTATION('',(#270),#274);
#270 = CIRCLE('',#271,60.);
#271 = AXIS2_PLACEMENT_2D('',#272,#273);
#272 = CARTESIAN_POINT('',(0.,0.));
#273 = DIRECTION('',(1.,0.));
#274 = ( GEOMETRIC_REPRESENTATION_CONTEXT(2) 
PARAMETRIC_REPRESENTATION_CONTEXT() REPRESENTATION_CONTEXT('2D SPACE',''
  ) );
#275 = PCURVE('',#241,#276);
#276 = DEFINITIONAL_REPRESENTATION('',(#277),#281);
#277 = LINE('',#278,#279);
#278 = CARTESIAN_POINT('',(0.,56.8));
#279 = VECTOR('',#280,1.);
#280 = DIRECTION('',(1.,0.));
#281 = ( GEOMETRIC_REPRESENTATION_CONTEXT(2) 
PARAMETRIC_REPRESENTATION_CONTEXT() REPRESENTATION_CONTEXT('2D SPACE',''
  ) );
#282 = ADVANCED_FACE('',(#283),#125,.F.);
#283 = FACE_BOUND('',#284,.F.);
#284 = EDGE_LOOP('',(#285,#308,#336,#357));
#285 = ORIENTED_EDGE('',*,*,#286,.F.);
#286 = EDGE_CURVE('',#287,#109,#289,.T.);
#287 = VERTEX_POINT('',#288);
#288 = CARTESIAN_POINT('',(-81.1,-10.2,22.));
#289 = SURFACE_CURVE('',#290,(#294,#301),.PCURVE_S1.);
#290 = LINE('',#291,#292);
#291 = CARTESIAN_POINT('',(-81.1,-10.2,22.));
#292 = VECTOR('',#293,1.);
#293 = DIRECTION('',(1.,0.,-0.));
#294 = PCURVE('',#125,#295);
#295 = DEFINITIONAL_REPRESENTATION('',(#296),#300);
#296 = LINE('',#297,#298);
#297 = CARTESIAN_POINT('',(0.,0.));
#298 = VECTOR('',#299,1.);
#299 = DIRECTION('',(0.,1.));
#300 = ( GEOMETRIC_REPRESENTATION_CONTEXT(2) 
PARAMETRIC_REPRESENTATION_CONTEXT() REPRESENTATION_CONTEXT('2D SPACE',''
  ) );
#301 = PCURVE('',#153,#302);
#302 = DEFINITIONAL_REPRESENTATION('',(#303),#307);
#303 = LINE('',#304,#305);
#304 = CARTESIAN_POINT('',(0.,0.));
#305 = VECTOR('',#306,1.);
#306 = DIRECTION('',(1.,0.));
#307 = ( GEOMETRIC_REPRESENTATION_CONTEXT(2) 
PARAMETRIC_REPRESENTATION_CONTEXT() REPRESENTATION_CONTEXT('2D SPACE',''
  ) );
#308 = ORIENTED_EDGE('',*,*,#309,.T.);
#309 = EDGE_CURVE('',#287,#310,#312,.T.);
#310 = VERTEX_POINT('',#311);
#311 = CARTESIAN_POINT('',(-81.1,-10.2,66.95));
#312 = SURFACE_CURVE('',#313,(#317,#324),.PCURVE_S1.);
#313 = LINE('',#314,#315);
#314 = CARTESIAN_POINT('',(-81.1,-10.2,22.));
#315 = VECTOR('',#316,1.);
#316 = DIRECTION('',(0.,0.,1.));
#317 = PCURVE('',#125,#318);
#318 = DEFINITIONAL_REPRESENTATION('',(#319),#323);
#319 = LINE('',#320,#321);
#320 = CARTESIAN_POINT('',(0.,0.));
#321 = VECTOR('',#322,1.);
#322 = DIRECTION('',(1.,0.));
#323 = ( GEOMETRIC_REPRESENTATION_CONTEXT(2) 
PARAMETRIC_REPRESENTATION_CONTEXT() REPRESENTATION_CONTEXT('2D SPACE',''
  ) );
#324 = PCURVE('',#325,#330);
#325 = PLANE('',#326);
#326 = AXIS2_PLACEMENT_3D('',#327,#328,#329);
#327 = CARTESIAN_POINT('',(-81.1,-10.2,22.));
#328 = DIRECTION('',(1.,0.,-0.));
#329 = DIRECTION('',(0.,0.,1.));
#330 = DEFINITIONAL_REPRESENTATION('',(#331),#335);
#331 = LINE('',#332,#333);
#332 = CARTESIAN_POINT('',(0.,0.));
#333 = VECTOR('',#334,1.);
#334 = DIRECTION('',(1.,0.));
#335 = ( GEOMETRIC_REPRESENTATION_CONTEXT(2) 
PARAMETRIC_REPRESENTATION_CONTEXT() REPRESENTATION_CONTEXT('2D SPACE',''
  ) );
#336 = ORIENTED_EDGE('',*,*,#337,.T.);
#337 = EDGE_CURVE('',#310,#111,#338,.T.);
#338 = SURFACE_CURVE('',#339,(#343,#350),.PCURVE_S1.);
#339 = LINE('',#340,#341);
#340 = CARTESIAN_POINT('',(-81.1,-10.2,66.95));
#341 = VECTOR('',#342,1.);
#342 = DIRECTION('',(1.,0.,-0.));
#343 = PCURVE('',#125,#344);
#344 = DEFINITIONAL_REPRESENTATION('',(#345),#349);
#345 = LINE('',#346,#347);
#346 = CARTESIAN_POINT('',(44.95,0.));
#347 = VECTOR('',#348,1.);
#348 = DIRECTION('',(0.,1.));
#349 = ( GEOMETRIC_REPRESENTATION_CONTEXT(2) 
PARAMETRIC_REPRESENTATION_CONTEXT() REPRESENTATION_CONTEXT('2D SPACE',''
  ) );
#350 = PCURVE('',#206,#351);
#351 = DEFINITIONAL_REPRESENTATION('',(#352),#356);
#352 = LINE('',#353,#354);
#353 = CARTESIAN_POINT('',(0.,0.));
#354 = VECTOR('',#355,1.);
#355 = DIRECTION('',(1.,0.));
#356 = ( GEOMETRIC_REPRESENTATION_CONTEXT(2) 
PARAMETRIC_REPRESENTATION_CONTEXT() REPRESENTATION_CONTEXT('2D SPACE',''
  ) );
#357 = ORIENTED_EDGE('',*,*,#108,.F.);
#358 = ADVANCED_FACE('',(#359),#206,.T.);
#359 = FACE_BOUND('',#360,.T.);
#360 = EDGE_LOOP('',(#361,#384,#405,#406));
#361 = ORIENTED_EDGE('',*,*,#362,.F.);
#362 = EDGE_CURVE('',#363,#166,#365,.T.);
#363 = VERTEX_POINT('',#364);
#364 = CARTESIAN_POINT('',(-81.1,10.2,66.95));
#365 = SURFACE_CURVE('',#366,(#370,#377),.PCURVE_S1.);
#366 = LINE('',#367,#368);
#367 = CARTESIAN_POINT('',(-81.1,10.2,66.95));
#368 = VECTOR('',#369,1.);
#369 = DIRECTION('',(1.,0.,-0.));
#370 = PCURVE('',#206,#371);
#371 = DEFINITIONAL_REPRESENTATION('',(#372),#376);
#372 = LINE('',#373,#374);
#373 = CARTESIAN_POINT('',(0.,20.4));
#374 = VECTOR('',#375,1.);
#375 = DIRECTION('',(1.,0.));
#376 = ( GEOMETRIC_REPRESENTATION_CONTEXT(2) 
PARAMETRIC_REPRESENTATION_CONTEXT() REPRESENTATION_CONTEXT('2D SPACE',''
  ) );
#377 = PCURVE('',#180,#378);
#378 = DEFINITIONAL_REPRESENTATION('',(#379),#383);
#379 = LINE('',#380,#381);
#380 = CARTESIAN_POINT('',(44.95,0.));
#381 = VECTOR('',#382,1.);
#382 = DIRECTION('',(0.,1.));
#383 = ( GEOMETRIC_REPRESENTATION_CONTEXT(2) 
PARAMETRIC_REPRESENTATION_CONTEXT() REPRESENTATION_CONTEXT('2D SPACE',''
  ) );
#384 = ORIENTED_EDGE('',*,*,#385,.F.);
#385 = EDGE_CURVE('',#310,#363,#386,.T.);
#386 = SURFACE_CURVE('',#387,(#391,#398),.PCURVE_S1.);
#387 = LINE('',#388,#389);
#388 = CARTESIAN_POINT('',(-81.1,-10.2,66.95));
#389 = VECTOR('',#390,1.);
#390 = DIRECTION('',(-0.,1.,0.));
#391 = PCURVE('',#206,#392);
#392 = DEFINITIONAL_REPRESENTATION('',(#393),#397);
#393 = LINE('',#394,#395);
#394 = CARTESIAN_POINT('',(0.,0.));
#395 = VECTOR('',#396,1.);
#396 = DIRECTION('',(0.,1.));
#397 = ( GEOMETRIC_REPRESENTATION_CONTEXT(2) 
PARAMETRIC_REPRESENTATION_CONTEXT() REPRESENTATION_CONTEXT('2D SPACE',''
  ) );
#398 = PCURVE('',#325,#399);
#399 = DEFINITIONAL_REPRESENTATION('',(#400),#404);
#400 = LINE('',#401,#402);
#401 = CARTESIAN_POINT('',(44.95,0.));
#402 = VECTOR('',#403,1.);
#403 = DIRECTION('',(0.,-1.));
#404 = ( GEOMETRIC_REPRESENTATION_CONTEXT(2) 
PARAMETRIC_REPRESENTATION_CONTEXT() REPRESENTATION_CONTEXT('2D SPACE',''
  ) );
#405 = ORIENTED_EDGE('',*,*,#337,.T.);
#406 = ORIENTED_EDGE('',*,*,#191,.F.);
#407 = ADVANCED_FACE('',(#408),#180,.T.);
#408 = FACE_BOUND('',#409,.T.);
#409 = EDGE_LOOP('',(#410,#433,#454,#455));
#410 = ORIENTED_EDGE('',*,*,#411,.F.);
#411 = EDGE_CURVE('',#412,#137,#414,.T.);
#412 = VERTEX_POINT('',#413);
#413 = CARTESIAN_POINT('',(-81.1,10.2,22.));
#414 = SURFACE_CURVE('',#415,(#419,#426),.PCURVE_S1.);
#415 = LINE('',#416,#417);
#416 = CARTESIAN_POINT('',(-81.1,10.2,22.));
#417 = VECTOR('',#418,1.);
#418 = DIRECTION('',(1.,0.,-0.));
#419 = PCURVE('',#180,#420);
#420 = DEFINITIONAL_REPRESENTATION('',(#421),#425);
#421 = LINE('',#422,#423);
#422 = CARTESIAN_POINT('',(0.,0.));
#423 = VECTOR('',#424,1.);
#424 = DIRECTION('',(0.,1.));
#425 = ( GEOMETRIC_REPRESENTATION_CONTEXT(2) 
PARAMETRIC_REPRESENTATION_CONTEXT() REPRESENTATION_CONTEXT('2D SPACE',''
  ) );
#426 = PCURVE('',#153,#427);
#427 = DEFINITIONAL_REPRESENTATION('',(#428),#432);
#428 = LINE('',#429,#430);
#429 = CARTESIAN_POINT('',(0.,20.4));
#430 = VECTOR('',#431,1.);
#431 = DIRECTION('',(1.,0.));
#432 = ( GEOMETRIC_REPRESENTATION_CONTEXT(2) 
PARAMETRIC_REPRESENTATION_CONTEXT() REPRESENTATION_CONTEXT('2D SPACE',''
  ) );
#433 = ORIENTED_EDGE('',*,*,#434,.T.);
#434 = EDGE_CURVE('',#412,#363,#435,.T.);
#435 = SURFACE_CURVE('',#436,(#440,#447),.PCURVE_S1.);
#436 = LINE('',#437,#438);
#437 = CARTESIAN_POINT('',(-81.1,10.2,22.));
#438 = VECTOR('',#439,1.);
#439 = DIRECTION('',(0.,0.,1.));
#440 = PCURVE('',#180,#441);
#441 = DEFINITIONAL_REPRESENTATION('',(#442),#446);
#442 = LINE('',#443,#444);
#443 = CARTESIAN_POINT('',(0.,0.));
#444 = VECTOR('',#445,1.);
#445 = DIRECTION('',(1.,0.));
#446 = ( GEOMETRIC_REPRESENTATION_CONTEXT(2) 
PARAMETRIC_REPRESENTATION_CONTEXT() REPRESENTATION_CONTEXT('2D SPACE',''
  ) );
#447 = PCURVE('',#325,#448);
#448 = DEFINITIONAL_REPRESENTATION('',(#449),#453);
#449 = LINE('',#450,#451);
#450 = CARTESIAN_POINT('',(0.,-20.4));
#451 = VECTOR('',#452,1.);
#452 = DIRECTION('',(1.,0.));
#453 = ( GEOMETRIC_REPRESENTATION_CONTEXT(2) 
PARAMETRIC_REPRESENTATION_CONTEXT() REPRESENTATION_CONTEXT('2D SPACE',''
  ) );
#454 = ORIENTED_EDGE('',*,*,#362,.T.);
#455 = ORIENTED_EDGE('',*,*,#165,.F.);
#456 = ADVANCED_FACE('',(#457),#153,.F.);
#457 = FACE_BOUND('',#458,.F.);
#458 = EDGE_LOOP('',(#459,#460,#481,#482));
#459 = ORIENTED_EDGE('',*,*,#411,.F.);
#460 = ORIENTED_EDGE('',*,*,#461,.F.);
#461 = EDGE_CURVE('',#287,#412,#462,.T.);
#462 = SURFACE_CURVE('',#463,(#467,#474),.PCURVE_S1.);
#463 = LINE('',#464,#465);
#464 = CARTESIAN_POINT('',(-81.1,-10.2,22.));
#465 = VECTOR('',#466,1.);
#466 = DIRECTION('',(-0.,1.,0.));
#467 = PCURVE('',#153,#468);
#468 = DEFINITIONAL_REPRESENTATION('',(#469),#473);
#469 = LINE('',#470,#471);
#470 = CARTESIAN_POINT('',(0.,0.));
#471 = VECTOR('',#472,1.);
#472 = DIRECTION('',(0.,1.));
#473 = ( GEOMETRIC_REPRESENTATION_CONTEXT(2) 
PARAMETRIC_REPRESENTATION_CONTEXT() REPRESENTATION_CONTEXT('2D SPACE',''
  ) );
#474 = PCURVE('',#325,#475);
#475 = DEFINITIONAL_REPRESENTATION('',(#476),#480);
#476 = LINE('',#477,#478);
#477 = CARTESIAN_POINT('',(0.,0.));
#478 = VECTOR('',#479,1.);
#479 = DIRECTION('',(0.,-1.));
#480 = ( GEOMETRIC_REPRESENTATION_CONTEXT(2) 
PARAMETRIC_REPRESENTATION_CONTEXT() REPRESENTATION_CONTEXT('2D SPACE',''
  ) );
#481 = ORIENTED_EDGE('',*,*,#286,.T.);
#482 = ORIENTED_EDGE('',*,*,#136,.F.);
#483 = ADVANCED_FACE('',(#484,#510,#717),#241,.F.);
#484 = FACE_BOUND('',#485,.F.);
#485 = EDGE_LOOP('',(#486,#487,#508,#509));
#486 = ORIENTED_EDGE('',*,*,#224,.T.);
#487 = ORIENTED_EDGE('',*,*,#488,.T.);
#488 = EDGE_CURVE('',#225,#260,#489,.T.);
#489 = SEAM_CURVE('',#490,(#494,#501),.PCURVE_S1.);
#490 = LINE('',#491,#492);
#491 = CARTESIAN_POINT('',(60.,-1.469576158977E-14,16.05));
#492 = VECTOR('',#493,1.);
#493 = DIRECTION('',(0.,0.,1.));
#494 = PCURVE('',#241,#495);
#495 = DEFINITIONAL_REPRESENTATION('',(#496),#500);
#496 = LINE('',#497,#498);
#497 = CARTESIAN_POINT('',(0.,-0.));
#498 = VECTOR('',#499,1.);
#499 = DIRECTION('',(0.,1.));
#500 = ( GEOMETRIC_REPRESENTATION_CONTEXT(2) 
PARAMETRIC_REPRESENTATION_CONTEXT() REPRESENTATION_CONTEXT('2D SPACE',''
  ) );
#501 = PCURVE('',#241,#502);
#502 = DEFINITIONAL_REPRESENTATION('',(#503),#507);
#503 = LINE('',#504,#505);
#504 = CARTESIAN_POINT('',(6.28318530718,-0.));
#505 = VECTOR('',#506,1.);
#506 = DIRECTION('',(0.,1.));
#507 = ( GEOMETRIC_REPRESENTATION_CONTEXT(2) 
PARAMETRIC_REPRESENTATION_CONTEXT() REPRESENTATION_CONTEXT('2D SPACE',''
  ) );
#508 = ORIENTED_EDGE('',*,*,#259,.F.);
#509 = ORIENTED_EDGE('',*,*,#488,.F.);
#510 = FACE_BOUND('',#511,.F.);
#511 = EDGE_LOOP('',(#512));
#512 = ORIENTED_EDGE('',*,*,#513,.T.);
#513 = EDGE_CURVE('',#514,#514,#516,.T.);
#514 = VERTEX_POINT('',#515);
#515 = CARTESIAN_POINT('',(-60.,6.613092715396E-16,34.7));
#516 = SURFACE_CURVE('',#517,(#580,#646),.PCURVE_S1.);
#517 = B_SPLINE_CURVE_WITH_KNOTS('',7,(#518,#519,#520,#521,#522,#523,
    #524,#525,#526,#527,#528,#529,#530,#531,#532,#533,#534,#535,#536,
    #537,#538,#539,#540,#541,#542,#543,#544,#545,#546,#547,#548,#549,
    #550,#551,#552,#553,#554,#555,#556,#557,#558,#559,#560,#561,#562,
    #563,#564,#565,#566,#567,#568,#569,#570,#571,#572,#573,#574,#575,
    #576,#577,#578,#579),.UNSPECIFIED.,.T.,.F.,(8,6,6,6,6,6,6,6,6,6,8),(
    0.,0.120576407568,0.248748844117,0.376920526216,0.463605360921,
    0.549873099233,0.654846382443,0.749084848303,0.877644208824,
    0.948515614355,1.),.UNSPECIFIED.);
#518 = CARTESIAN_POINT('',(-60.,6.217248937901E-15,34.7));
#519 = CARTESIAN_POINT('',(-60.,-0.358366585971,34.7));
#520 = CARTESIAN_POINT('',(-59.99750281313,-0.706642838457,
    34.644507639244));
#521 = CARTESIAN_POINT('',(-59.99276159607,-1.034821171971,
    34.539143393043));
#522 = CARTESIAN_POINT('',(-59.98643631998,-1.334685383326,
    34.391422970852));
#523 = CARTESIAN_POINT('',(-59.97941190382,-1.600110194812,
    34.21064504757));
#524 = CARTESIAN_POINT('',(-59.97245762659,-1.827626065858,
    34.007710301745));
#525 = CARTESIAN_POINT('',(-59.95931936058,-2.218237394252,
    33.568783902659));
#526 = CARTESIAN_POINT('',(-59.95301563123,-2.382193500376,
    33.324972895524));
#527 = CARTESIAN_POINT('',(-59.94764074658,-2.510725321272,
    33.069615949849));
#528 = CARTESIAN_POINT('',(-59.94346750775,-2.605690435387,32.8068230182
    ));
#529 = CARTESIAN_POINT('',(-59.94063699543,-2.668525353533,
    32.539503377277));
#530 = CARTESIAN_POINT('',(-59.93921921413,-2.7,32.269894650972));
#531 = CARTESIAN_POINT('',(-59.93921921413,-2.7,31.730106937683));
#532 = CARTESIAN_POINT('',(-59.94063697732,-2.6685257498,31.460491364108
    ));
#533 = CARTESIAN_POINT('',(-59.94346761921,-2.605687961405,
    31.193167349844));
#534 = CARTESIAN_POINT('',(-59.94764094229,-2.510721065542,
    30.930378467441));
#535 = CARTESIAN_POINT('',(-59.95301558149,-2.382193328245,
    30.675031167194));
#536 = CARTESIAN_POINT('',(-59.95931911974,-2.218244554583,
    30.43122414334));
#537 = CARTESIAN_POINT('',(-59.97066775182,-1.880840497585,
    30.052086271472));
#538 = CARTESIAN_POINT('',(-59.97548821842,-1.726793671922,
    29.906238771856));
#539 = CARTESIAN_POINT('',(-59.98038391655,-1.554696107163,
    29.770517010369));
#540 = CARTESIAN_POINT('',(-59.98513843972,-1.364842574419,
    29.64800165988));
#541 = CARTESIAN_POINT('',(-59.98949386442,-1.157981271518,
    29.541862490554));
#542 = CARTESIAN_POINT('',(-59.99317511524,-0.93536292144,
    29.455384052323));
#543 = CARTESIAN_POINT('',(-59.99867239463,-0.463398123251,
    29.328921465792));
#544 = CARTESIAN_POINT('',(-60.00047881405,-0.215784537226,
    29.289144594798));
#545 = CARTESIAN_POINT('',(-60.00108297888,3.842578963877E-02,
    29.276432077959));
#546 = CARTESIAN_POINT('',(-60.00034900862,0.292906342791,
    29.292220702565));
#547 = CARTESIAN_POINT('',(-59.99835301003,0.541241038778,
    29.335656388279));
#548 = CARTESIAN_POINT('',(-59.99536312236,0.777514127502,
    29.403622496857));
#549 = CARTESIAN_POINT('',(-59.98728339404,1.263759378547,
    29.596795374718));
#550 = CARTESIAN_POINT('',(-59.98186717851,1.506315806294,
    29.731505498655));
#551 = CARTESIAN_POINT('',(-59.97594545858,1.723266403724,
    29.888608131091));
#552 = CARTESIAN_POINT('',(-59.96995294095,1.91440085965,30.062974202985
    ));
#553 = CARTESIAN_POINT('',(-59.96422154439,2.08009171392,30.250310182221
    ));
#554 = CARTESIAN_POINT('',(-59.95899128498,2.221063274251,
    30.446994437828));
#555 = CARTESIAN_POINT('',(-59.950316541,2.443488212103,30.832245731057)
  );
#556 = CARTESIAN_POINT('',(-59.94672824158,2.529961401098,
    31.020291629723));
#557 = CARTESIAN_POINT('',(-59.94376702719,2.59837194534,31.21247861394)
  );
#558 = CARTESIAN_POINT('',(-59.94150388575,2.649280121654,
    31.407518581063));
#559 = CARTESIAN_POINT('',(-59.93998108609,2.683086985693,
    31.604376961453));
#560 = CARTESIAN_POINT('',(-59.93921921413,2.7,31.802159033492));
#561 = CARTESIAN_POINT('',(-59.93921921413,2.7,32.269893062317));
#562 = CARTESIAN_POINT('',(-59.94063697732,2.668525749799,
    32.539508635892));
#563 = CARTESIAN_POINT('',(-59.94346761921,2.605687961406,
    32.806832650155));
#564 = CARTESIAN_POINT('',(-59.94764094229,2.510721065541,33.06962153256
    ));
#565 = CARTESIAN_POINT('',(-59.95301558149,2.382193328246,
    33.324968832805));
#566 = CARTESIAN_POINT('',(-59.95931911974,2.218244554583,33.56877585666
    ));
#567 = CARTESIAN_POINT('',(-59.96982120461,1.906009034268,
    33.919632072639));
#568 = CARTESIAN_POINT('',(-59.9737045726,1.783424159907,34.039272535733
    ));
#569 = CARTESIAN_POINT('',(-59.97765299093,1.649086703367,
    34.152466439209));
#570 = CARTESIAN_POINT('',(-59.98156022896,1.503002429769,
    34.257720965813));
#571 = CARTESIAN_POINT('',(-59.98530063809,1.345333438695,
    34.353438647626));
#572 = CARTESIAN_POINT('',(-59.98873454065,1.176428082249,
    34.437899129335));
#573 = CARTESIAN_POINT('',(-59.99388602331,0.866407265045,
    34.561062519265));
#574 = CARTESIAN_POINT('',(-59.99581693493,0.73029568989,34.605975473255
    ));
#575 = CARTESIAN_POINT('',(-59.9974436029,0.589425357975,34.642981054429
    ));
#576 = CARTESIAN_POINT('',(-59.99870862688,0.444822780943,
    34.671307941638));
#577 = CARTESIAN_POINT('',(-59.99956893869,0.297602635204,
    34.690415555773));
#578 = CARTESIAN_POINT('',(-60.,0.148932900756,34.7));
#579 = CARTESIAN_POINT('',(-60.,6.217248937901E-15,34.7));
#580 = PCURVE('',#241,#581);
#581 = DEFINITIONAL_REPRESENTATION('',(#582),#645);
#582 = B_SPLINE_CURVE_WITH_KNOTS('',7,(#583,#584,#585,#586,#587,#588,
    #589,#590,#591,#592,#593,#594,#595,#596,#597,#598,#599,#600,#601,
    #602,#603,#604,#605,#606,#607,#608,#609,#610,#611,#612,#613,#614,
    #615,#616,#617,#618,#619,#620,#621,#622,#623,#624,#625,#626,#627,
    #628,#629,#630,#631,#632,#633,#634,#635,#636,#637,#638,#639,#640,
    #641,#642,#643,#644),.UNSPECIFIED.,.F.,.F.,(8,6,6,6,6,6,6,6,6,6,8),(
    0.,0.120576407568,0.248748844117,0.376920526216,0.463605360921,
    0.549873099233,0.654846382443,0.749084848303,0.877644208824,
    0.948515614355,1.),.UNSPECIFIED.);
#583 = CARTESIAN_POINT('',(3.14159265359,18.65));
#584 = CARTESIAN_POINT('',(3.147565430023,18.65));
#585 = CARTESIAN_POINT('',(3.153370034613,18.594507639244));
#586 = CARTESIAN_POINT('',(3.158840019358,18.489143393043));
#587 = CARTESIAN_POINT('',(3.163838718705,18.341422970852));
#588 = CARTESIAN_POINT('',(3.168263953986,18.16064504757));
#589 = CARTESIAN_POINT('',(3.172057637978,17.957710301745));
#590 = CARTESIAN_POINT('',(3.178571508305,17.518783902659));
#591 = CARTESIAN_POINT('',(3.181306097461,17.274972895524));
#592 = CARTESIAN_POINT('',(3.183450156781,17.019615949849));
#593 = CARTESIAN_POINT('',(3.185034434811,16.7568230182));
#594 = CARTESIAN_POINT('',(3.186082745597,16.489503377277));
#595 = CARTESIAN_POINT('',(3.186607854946,16.219894650972));
#596 = CARTESIAN_POINT('',(3.186607854946,15.680106937683));
#597 = CARTESIAN_POINT('',(3.18608275221,15.410491364108));
#598 = CARTESIAN_POINT('',(3.185034393531,15.143167349844));
#599 = CARTESIAN_POINT('',(3.183450085785,14.880378467441));
#600 = CARTESIAN_POINT('',(3.181306094622,14.625031167195));
#601 = CARTESIAN_POINT('',(3.178571627711,14.38122414334));
#602 = CARTESIAN_POINT('',(3.17294504672,14.002086271472));
#603 = CARTESIAN_POINT('',(3.170376350153,13.856238771856));
#604 = CARTESIAN_POINT('',(3.167506915786,13.720517010369));
#605 = CARTESIAN_POINT('',(3.164341735789,13.59800165988));
#606 = CARTESIAN_POINT('',(3.160893334917,13.491862490554));
#607 = CARTESIAN_POINT('',(3.157182566372,13.405384052323));
#608 = CARTESIAN_POINT('',(3.149315952834,13.278921465792));
#609 = CARTESIAN_POINT('',(3.145188987836,13.239144594798));
#610 = CARTESIAN_POINT('',(3.140952224517,13.226432077959));
#611 = CARTESIAN_POINT('',(3.136710964278,13.242220702565));
#612 = CARTESIAN_POINT('',(3.132571995374,13.285656388279));
#613 = CARTESIAN_POINT('',(3.128633825006,13.353622496857));
#614 = CARTESIAN_POINT('',(3.120528618755,13.546795374718));
#615 = CARTESIAN_POINT('',(3.116485069903,13.681505498655));
#616 = CARTESIAN_POINT('',(3.112867941743,13.838608131091));
#617 = CARTESIAN_POINT('',(3.10968083541,14.012974202985));
#618 = CARTESIAN_POINT('',(3.10691768448,14.20031018222));
#619 = CARTESIAN_POINT('',(3.104566546105,14.396994437828));
#620 = CARTESIAN_POINT('',(3.100856645532,14.782245731057));
#621 = CARTESIAN_POINT('',(3.099414189849,14.970291629723));
#622 = CARTESIAN_POINT('',(3.098272948212,15.16247861394));
#623 = CARTESIAN_POINT('',(3.097423640637,15.357518581063));
#624 = CARTESIAN_POINT('',(3.096859621689,15.554376961453));
#625 = CARTESIAN_POINT('',(3.096577452233,15.752159033492));
#626 = CARTESIAN_POINT('',(3.096577452233,16.219893062317));
#627 = CARTESIAN_POINT('',(3.097102554969,16.489508635892));
#628 = CARTESIAN_POINT('',(3.098150913648,16.756832650155));
#629 = CARTESIAN_POINT('',(3.099735221394,17.01962153256));
#630 = CARTESIAN_POINT('',(3.101879212558,17.274968832805));
#631 = CARTESIAN_POINT('',(3.104613679468,17.51877585666));
#632 = CARTESIAN_POINT('',(3.109820547634,17.869632072639));
#633 = CARTESIAN_POINT('',(3.111864649849,17.989272535733));
#634 = CARTESIAN_POINT('',(3.114104564704,18.102466439209));
#635 = CARTESIAN_POINT('',(3.116540156246,18.207720965813));
#636 = CARTESIAN_POINT('',(3.11916868975,18.303438647626));
#637 = CARTESIAN_POINT('',(3.121984341288,18.387899129335));
#638 = CARTESIAN_POINT('',(3.127152068192,18.511062519265));
#639 = CARTESIAN_POINT('',(3.129420816178,18.555975473255));
#640 = CARTESIAN_POINT('',(3.131768797865,18.592981054429));
#641 = CARTESIAN_POINT('',(3.134178915457,18.621307941638));
#642 = CARTESIAN_POINT('',(3.136632609861,18.640415555773));
#643 = CARTESIAN_POINT('',(3.139110438577,18.65));
#644 = CARTESIAN_POINT('',(3.14159265359,18.65));
#645 = ( GEOMETRIC_REPRESENTATION_CONTEXT(2) 
PARAMETRIC_REPRESENTATION_CONTEXT() REPRESENTATION_CONTEXT('2D SPACE',''
  ) );
#646 = PCURVE('',#647,#652);
#647 = CYLINDRICAL_SURFACE('',#648,2.7);
#648 = AXIS2_PLACEMENT_3D('',#649,#650,#651);
#649 = CARTESIAN_POINT('',(-67.5,0.,32.));
#650 = DIRECTION('',(1.,0.,0.));
#651 = DIRECTION('',(-0.,0.,1.));
#652 = DEFINITIONAL_REPRESENTATION('',(#653),#716);
#653 = B_SPLINE_CURVE_WITH_KNOTS('',7,(#654,#655,#656,#657,#658,#659,
    #660,#661,#662,#663,#664,#665,#666,#667,#668,#669,#670,#671,#672,
    #673,#674,#675,#676,#677,#678,#679,#680,#681,#682,#683,#684,#685,
    #686,#687,#688,#689,#690,#691,#692,#693,#694,#695,#696,#697,#698,
    #699,#700,#701,#702,#703,#704,#705,#706,#707,#708,#709,#710,#711,
    #712,#713,#714,#715),.UNSPECIFIED.,.F.,.F.,(8,6,6,6,6,6,6,6,6,6,8),(
    0.,0.120576407568,0.248748844117,0.376920526216,0.463605360921,
    0.549873099233,0.654846382443,0.749084848303,0.877644208824,
    0.948515614355,1.),.UNSPECIFIED.);
#654 = CARTESIAN_POINT('',(-1.7763568394E-15,7.5));
#655 = CARTESIAN_POINT('',(0.132728365175,7.5));
#656 = CARTESIAN_POINT('',(0.261719472827,7.502497186862));
#657 = CARTESIAN_POINT('',(0.387086469888,7.507238403929));
#658 = CARTESIAN_POINT('',(0.508637104724,7.513563680013));
#659 = CARTESIAN_POINT('',(0.625923651225,7.520588096179));
#660 = CARTESIAN_POINT('',(0.738089998197,7.52754237341));
#661 = CARTESIAN_POINT('',(0.955706968836,7.540680639412));
#662 = CARTESIAN_POINT('',(1.063533142081,7.546984368766));
#663 = CARTESIAN_POINT('',(1.168133258681,7.552359253413));
#664 = CARTESIAN_POINT('',(1.270340811991,7.556532492243));
#665 = CARTESIAN_POINT('',(1.370980466936,7.559363004563));
#666 = CARTESIAN_POINT('',(1.470835344954,7.560780785866));
#667 = CARTESIAN_POINT('',(1.670756720246,7.560780785866));
#668 = CARTESIAN_POINT('',(1.770614123248,7.559363022679));
#669 = CARTESIAN_POINT('',(1.871255409852,7.556532380787));
#670 = CARTESIAN_POINT('',(1.97346175975,7.55235905771));
#671 = CARTESIAN_POINT('',(2.078058426088,7.546984418507));
#672 = CARTESIAN_POINT('',(2.185881695598,7.540680880251));
#673 = CARTESIAN_POINT('',(2.373855887404,7.529332248174));
#674 = CARTESIAN_POINT('',(2.452138201401,7.524511781571));
#675 = CARTESIAN_POINT('',(2.532774631547,7.519616083441));
#676 = CARTESIAN_POINT('',(2.615762406495,7.514861560273));
#677 = CARTESIAN_POINT('',(2.701159223024,7.510506135571));
#678 = CARTESIAN_POINT('',(2.789090994294,7.506824884753));
#679 = CARTESIAN_POINT('',(2.970059110426,7.501327605362));
#680 = CARTESIAN_POINT('',(3.062455561508,7.499521185941));
#681 = CARTESIAN_POINT('',(3.155820494947,7.498917021111));
#682 = CARTESIAN_POINT('',(3.249205048646,7.49965099138));
#683 = CARTESIAN_POINT('',(3.341713898009,7.501646989965));
#684 = CARTESIAN_POINT('',(3.43233335987,7.504636877632));
#685 = CARTESIAN_POINT('',(3.626115372547,7.51271660596));
#686 = CARTESIAN_POINT('',(3.728024782291,7.51813282149));
#687 = CARTESIAN_POINT('',(3.826147260682,7.52405454142));
#688 = CARTESIAN_POINT('',(3.920938082569,7.530047059049));
#689 = CARTESIAN_POINT('',(4.012779265069,7.535778455607));
#690 = CARTESIAN_POINT('',(4.101971452218,7.541008715016));
#691 = CARTESIAN_POINT('',(4.266730665442,7.549683459));
#692 = CARTESIAN_POINT('',(4.343060192326,7.553271758417));
#693 = CARTESIAN_POINT('',(4.418145306293,7.556232972806));
#694 = CARTESIAN_POINT('',(4.492309393316,7.558496114249));
#695 = CARTESIAN_POINT('',(4.56586168997,7.56001891391));
#696 = CARTESIAN_POINT('',(4.639114548345,7.560780785866));
#697 = CARTESIAN_POINT('',(4.812349373835,7.560780785866));
#698 = CARTESIAN_POINT('',(4.912206776838,7.559363022679));
#699 = CARTESIAN_POINT('',(5.012848063441,7.556532380787));
#700 = CARTESIAN_POINT('',(5.115054413341,7.55235905771));
#701 = CARTESIAN_POINT('',(5.219651079677,7.546984418507));
#702 = CARTESIAN_POINT('',(5.327474349188,7.540680880251));
#703 = CARTESIAN_POINT('',(5.501426672425,7.530178795383));
#704 = CARTESIAN_POINT('',(5.564711329412,7.526295427396));
#705 = CARTESIAN_POINT('',(5.629491585515,7.52234700907));
#706 = CARTESIAN_POINT('',(5.695822176715,7.518439771038));
#707 = CARTESIAN_POINT('',(5.763779344451,7.514699361903));
#708 = CARTESIAN_POINT('',(5.833466494955,7.511265459348));
#709 = CARTESIAN_POINT('',(5.957018257775,7.506113976689));
#710 = CARTESIAN_POINT('',(6.010009793667,7.504183065063));
#711 = CARTESIAN_POINT('',(6.063787476265,7.502556397093));
#712 = CARTESIAN_POINT('',(6.118161959322,7.501291373113));
#713 = CARTESIAN_POINT('',(6.172962138727,7.500431061303));
#714 = CARTESIAN_POINT('',(6.228024973566,7.5));
#715 = CARTESIAN_POINT('',(6.28318530718,7.5));
#716 = ( GEOMETRIC_REPRESENTATION_CONTEXT(2) 
PARAMETRIC_REPRESENTATION_CONTEXT() REPRESENTATION_CONTEXT('2D SPACE',''
  ) );
#717 = FACE_BOUND('',#718,.F.);
#718 = EDGE_LOOP('',(#719));
#719 = ORIENTED_EDGE('',*,*,#720,.T.);
#720 = EDGE_CURVE('',#721,#721,#723,.T.);
#721 = VERTEX_POINT('',#722);
#722 = CARTESIAN_POINT('',(-60.,6.613092715396E-16,59.7));
#723 = SURFACE_CURVE('',#724,(#787,#853),.PCURVE_S1.);
#724 = B_SPLINE_CURVE_WITH_KNOTS('',7,(#725,#726,#727,#728,#729,#730,
    #731,#732,#733,#734,#735,#736,#737,#738,#739,#740,#741,#742,#743,
    #744,#745,#746,#747,#748,#749,#750,#751,#752,#753,#754,#755,#756,
    #757,#758,#759,#760,#761,#762,#763,#764,#765,#766,#767,#768,#769,
    #770,#771,#772,#773,#774,#775,#776,#777,#778,#779,#780,#781,#782,
    #783,#784,#785,#786),.UNSPECIFIED.,.T.,.F.,(8,6,6,6,6,6,6,6,6,6,8),(
    0.,0.120576407383,0.248748843735,0.376920525638,0.463605360099,
    0.549873098669,0.654846382919,0.749084849715,0.877644211513,
    0.948515617616,1.),.UNSPECIFIED.);
#725 = CARTESIAN_POINT('',(-60.,6.217248937901E-15,59.7));
#726 = CARTESIAN_POINT('',(-60.,-0.358366585971,59.7));
#727 = CARTESIAN_POINT('',(-59.99750281313,-0.706642838457,
    59.644507639244));
#728 = CARTESIAN_POINT('',(-59.99276159607,-1.034821171972,
    59.539143393043));
#729 = CARTESIAN_POINT('',(-59.98643631998,-1.334685383325,
    59.391422970853));
#730 = CARTESIAN_POINT('',(-59.97941190382,-1.600110194813,
    59.210645047569));
#731 = CARTESIAN_POINT('',(-59.97245762659,-1.827626065858,
    59.007710301745));
#732 = CARTESIAN_POINT('',(-59.95931936058,-2.218237394252,
    58.568783902659));
#733 = CARTESIAN_POINT('',(-59.95301563123,-2.382193500377,
    58.324972895523));
#734 = CARTESIAN_POINT('',(-59.94764074658,-2.510725321271,
    58.069615949851));
#735 = CARTESIAN_POINT('',(-59.94346750775,-2.605690435387,
    57.806823018198));
#736 = CARTESIAN_POINT('',(-59.94063699543,-2.668525353533,
    57.539503377278));
#737 = CARTESIAN_POINT('',(-59.93921921413,-2.7,57.269894650971));
#738 = CARTESIAN_POINT('',(-59.93921921413,-2.7,56.730106937683));
#739 = CARTESIAN_POINT('',(-59.94063697732,-2.6685257498,56.460491364108
    ));
#740 = CARTESIAN_POINT('',(-59.94346761921,-2.605687961405,
    56.193167349844));
#741 = CARTESIAN_POINT('',(-59.94764094229,-2.510721065542,
    55.930378467441));
#742 = CARTESIAN_POINT('',(-59.95301558149,-2.382193328245,
    55.675031167195));
#743 = CARTESIAN_POINT('',(-59.95931911974,-2.218244554583,
    55.43122414334));
#744 = CARTESIAN_POINT('',(-59.97066775182,-1.880840497759,
    55.052086271667));
#745 = CARTESIAN_POINT('',(-59.97548821842,-1.726793671955,
    54.906238771825));
#746 = CARTESIAN_POINT('',(-59.98038391656,-1.554696107002,
    54.770517010222));
#747 = CARTESIAN_POINT('',(-59.98513843973,-1.364842574235,
    54.648001659812));
#748 = CARTESIAN_POINT('',(-59.98949386442,-1.157981271537,
    54.541862490614));
#749 = CARTESIAN_POINT('',(-59.99317511524,-0.935362921689,
    54.455384052389));
#750 = CARTESIAN_POINT('',(-59.99867239465,-0.463398121634,
    54.328921465359));
#751 = CARTESIAN_POINT('',(-60.00047881404,-0.215784541121,
    54.28914459503));
#752 = CARTESIAN_POINT('',(-60.00108297886,3.842579198029E-02,
    54.276432078438));
#753 = CARTESIAN_POINT('',(-60.00034900863,0.2929063452,54.292220702307)
  );
#754 = CARTESIAN_POINT('',(-59.99835301006,0.54124103496,54.335656387626
    ));
#755 = CARTESIAN_POINT('',(-59.99536312234,0.777514129011,
    54.403622497457));
#756 = CARTESIAN_POINT('',(-59.98728339404,1.263759378553,54.59679537472
    ));
#757 = CARTESIAN_POINT('',(-59.98186717851,1.506315806294,
    54.731505498657));
#758 = CARTESIAN_POINT('',(-59.97594545858,1.723266403719,
    54.888608131089));
#759 = CARTESIAN_POINT('',(-59.96995294095,1.914400859646,55.06297420298
    ));
#760 = CARTESIAN_POINT('',(-59.96422154439,2.080091713922,55.25031018222
    ));
#761 = CARTESIAN_POINT('',(-59.95899128498,2.221063274255,
    55.446994437834));
#762 = CARTESIAN_POINT('',(-59.950316541,2.443488212103,55.832245731057)
  );
#763 = CARTESIAN_POINT('',(-59.94672824158,2.529961401098,
    56.020291629723));
#764 = CARTESIAN_POINT('',(-59.94376702719,2.59837194534,56.21247861394)
  );
#765 = CARTESIAN_POINT('',(-59.94150388575,2.649280121654,
    56.407518581063));
#766 = CARTESIAN_POINT('',(-59.93998108609,2.683086985693,
    56.604376961453));
#767 = CARTESIAN_POINT('',(-59.93921921413,2.7,56.802159033492));
#768 = CARTESIAN_POINT('',(-59.93921921413,2.7,57.269893062317));
#769 = CARTESIAN_POINT('',(-59.94063697732,2.6685257498,57.539508635892)
  );
#770 = CARTESIAN_POINT('',(-59.94346761921,2.605687961405,
    57.806832650155));
#771 = CARTESIAN_POINT('',(-59.94764094229,2.510721065542,58.06962153256
    ));
#772 = CARTESIAN_POINT('',(-59.95301558149,2.382193328246,
    58.324968832805));
#773 = CARTESIAN_POINT('',(-59.95931911974,2.218244554583,58.56877585666
    ));
#774 = CARTESIAN_POINT('',(-59.96982120461,1.906009034474,
    58.919632072406));
#775 = CARTESIAN_POINT('',(-59.9737045726,1.783424159945,59.039272535756
    ));
#776 = CARTESIAN_POINT('',(-59.97765299093,1.649086703182,
    59.152466439387));
#777 = CARTESIAN_POINT('',(-59.98156022896,1.503002429558,
    59.257720965916));
#778 = CARTESIAN_POINT('',(-59.98530063809,1.345333438715,
    59.353438647564));
#779 = CARTESIAN_POINT('',(-59.98873454064,1.176428082534,
    59.437899129222));
#780 = CARTESIAN_POINT('',(-59.99388602316,0.866407274153,
    59.561062515647));
#781 = CARTESIAN_POINT('',(-59.995816935,0.730295680394,59.605975474807)
  );
#782 = CARTESIAN_POINT('',(-59.99744360302,0.589425350238,
    59.642981057218));
#783 = CARTESIAN_POINT('',(-59.99870862688,0.444822788213,
    59.671307941529));
#784 = CARTESIAN_POINT('',(-59.9995689386,0.297602644963,59.690415553699
    ));
#785 = CARTESIAN_POINT('',(-60.,0.148932892588,59.7));
#786 = CARTESIAN_POINT('',(-60.,6.217248937901E-15,59.7));
#787 = PCURVE('',#241,#788);
#788 = DEFINITIONAL_REPRESENTATION('',(#789),#852);
#789 = B_SPLINE_CURVE_WITH_KNOTS('',7,(#790,#791,#792,#793,#794,#795,
    #796,#797,#798,#799,#800,#801,#802,#803,#804,#805,#806,#807,#808,
    #809,#810,#811,#812,#813,#814,#815,#816,#817,#818,#819,#820,#821,
    #822,#823,#824,#825,#826,#827,#828,#829,#830,#831,#832,#833,#834,
    #835,#836,#837,#838,#839,#840,#841,#842,#843,#844,#845,#846,#847,
    #848,#849,#850,#851),.UNSPECIFIED.,.F.,.F.,(8,6,6,6,6,6,6,6,6,6,8),(
    0.,0.120576407383,0.248748843735,0.376920525638,0.463605360099,
    0.549873098669,0.654846382919,0.749084849715,0.877644211513,
    0.948515617616,1.),.UNSPECIFIED.);
#790 = CARTESIAN_POINT('',(3.14159265359,43.65));
#791 = CARTESIAN_POINT('',(3.147565430023,43.65));
#792 = CARTESIAN_POINT('',(3.153370034613,43.594507639244));
#793 = CARTESIAN_POINT('',(3.158840019358,43.489143393043));
#794 = CARTESIAN_POINT('',(3.163838718705,43.341422970853));
#795 = CARTESIAN_POINT('',(3.168263953986,43.160645047569));
#796 = CARTESIAN_POINT('',(3.172057637978,42.957710301745));
#797 = CARTESIAN_POINT('',(3.178571508305,42.518783902659));
#798 = CARTESIAN_POINT('',(3.181306097461,42.274972895523));
#799 = CARTESIAN_POINT('',(3.183450156781,42.019615949851));
#800 = CARTESIAN_POINT('',(3.185034434811,41.756823018199));
#801 = CARTESIAN_POINT('',(3.186082745597,41.489503377278));
#802 = CARTESIAN_POINT('',(3.186607854946,41.219894650971));
#803 = CARTESIAN_POINT('',(3.186607854946,40.680106937683));
#804 = CARTESIAN_POINT('',(3.18608275221,40.410491364108));
#805 = CARTESIAN_POINT('',(3.185034393531,40.143167349844));
#806 = CARTESIAN_POINT('',(3.183450085785,39.880378467441));
#807 = CARTESIAN_POINT('',(3.181306094622,39.625031167195));
#808 = CARTESIAN_POINT('',(3.178571627711,39.38122414334));
#809 = CARTESIAN_POINT('',(3.172945046723,39.002086271667));
#810 = CARTESIAN_POINT('',(3.170376350153,38.856238771825));
#811 = CARTESIAN_POINT('',(3.167506915783,38.720517010222));
#812 = CARTESIAN_POINT('',(3.164341735786,38.598001659812));
#813 = CARTESIAN_POINT('',(3.160893334917,38.491862490614));
#814 = CARTESIAN_POINT('',(3.157182566376,38.405384052389));
#815 = CARTESIAN_POINT('',(3.149315952807,38.278921465359));
#816 = CARTESIAN_POINT('',(3.145188987901,38.23914459503));
#817 = CARTESIAN_POINT('',(3.140952224478,38.226432078438));
#818 = CARTESIAN_POINT('',(3.136710964238,38.242220702307));
#819 = CARTESIAN_POINT('',(3.132571995438,38.285656387626));
#820 = CARTESIAN_POINT('',(3.128633824981,38.353622497457));
#821 = CARTESIAN_POINT('',(3.120528618755,38.54679537472));
#822 = CARTESIAN_POINT('',(3.116485069903,38.681505498657));
#823 = CARTESIAN_POINT('',(3.112867941743,38.838608131089));
#824 = CARTESIAN_POINT('',(3.10968083541,39.01297420298));
#825 = CARTESIAN_POINT('',(3.10691768448,39.20031018222));
#826 = CARTESIAN_POINT('',(3.104566546105,39.396994437834));
#827 = CARTESIAN_POINT('',(3.100856645532,39.782245731057));
#828 = CARTESIAN_POINT('',(3.099414189849,39.970291629723));
#829 = CARTESIAN_POINT('',(3.098272948212,40.16247861394));
#830 = CARTESIAN_POINT('',(3.097423640637,40.357518581063));
#831 = CARTESIAN_POINT('',(3.096859621689,40.554376961453));
#832 = CARTESIAN_POINT('',(3.096577452233,40.752159033492));
#833 = CARTESIAN_POINT('',(3.096577452233,41.219893062317));
#834 = CARTESIAN_POINT('',(3.097102554969,41.489508635892));
#835 = CARTESIAN_POINT('',(3.098150913648,41.756832650155));
#836 = CARTESIAN_POINT('',(3.099735221394,42.01962153256));
#837 = CARTESIAN_POINT('',(3.101879212558,42.274968832805));
#838 = CARTESIAN_POINT('',(3.104613679468,42.51877585666));
#839 = CARTESIAN_POINT('',(3.10982054763,42.869632072406));
#840 = CARTESIAN_POINT('',(3.111864649849,42.989272535756));
#841 = CARTESIAN_POINT('',(3.114104564707,43.102466439387));
#842 = CARTESIAN_POINT('',(3.116540156249,43.207720965916));
#843 = CARTESIAN_POINT('',(3.11916868975,43.303438647564));
#844 = CARTESIAN_POINT('',(3.121984341283,43.387899129222));
#845 = CARTESIAN_POINT('',(3.12715206804,43.511062515647));
#846 = CARTESIAN_POINT('',(3.129420816336,43.555975474807));
#847 = CARTESIAN_POINT('',(3.131768797994,43.592981057218));
#848 = CARTESIAN_POINT('',(3.134178915336,43.621307941529));
#849 = CARTESIAN_POINT('',(3.136632609698,43.6404155537));
#850 = CARTESIAN_POINT('',(3.139110438713,43.65));
#851 = CARTESIAN_POINT('',(3.14159265359,43.65));
#852 = ( GEOMETRIC_REPRESENTATION_CONTEXT(2) 
PARAMETRIC_REPRESENTATION_CONTEXT() REPRESENTATION_CONTEXT('2D SPACE',''
  ) );
#853 = PCURVE('',#854,#859);
#854 = CYLINDRICAL_SURFACE('',#855,2.7);
#855 = AXIS2_PLACEMENT_3D('',#856,#857,#858);
#856 = CARTESIAN_POINT('',(-67.5,0.,57.));
#857 = DIRECTION('',(1.,0.,0.));
#858 = DIRECTION('',(-0.,0.,1.));
#859 = DEFINITIONAL_REPRESENTATION('',(#860),#923);
#860 = B_SPLINE_CURVE_WITH_KNOTS('',7,(#861,#862,#863,#864,#865,#866,
    #867,#868,#869,#870,#871,#872,#873,#874,#875,#876,#877,#878,#879,
    #880,#881,#882,#883,#884,#885,#886,#887,#888,#889,#890,#891,#892,
    #893,#894,#895,#896,#897,#898,#899,#900,#901,#902,#903,#904,#905,
    #906,#907,#908,#909,#910,#911,#912,#913,#914,#915,#916,#917,#918,
    #919,#920,#921,#922),.UNSPECIFIED.,.F.,.F.,(8,6,6,6,6,6,6,6,6,6,8),(
    0.,0.120576407383,0.248748843735,0.376920525638,0.463605360099,
    0.549873098669,0.654846382919,0.749084849715,0.877644211513,
    0.948515617616,1.),.UNSPECIFIED.);
#861 = CARTESIAN_POINT('',(-1.7763568394E-15,7.5));
#862 = CARTESIAN_POINT('',(0.132728365175,7.5));
#863 = CARTESIAN_POINT('',(0.261719472827,7.502497186862));
#864 = CARTESIAN_POINT('',(0.387086469889,7.507238403929));
#865 = CARTESIAN_POINT('',(0.508637104724,7.513563680013));
#866 = CARTESIAN_POINT('',(0.625923651225,7.520588096179));
#867 = CARTESIAN_POINT('',(0.738089998197,7.52754237341));
#868 = CARTESIAN_POINT('',(0.955706968836,7.540680639412));
#869 = CARTESIAN_POINT('',(1.063533142081,7.546984368766));
#870 = CARTESIAN_POINT('',(1.168133258681,7.552359253413));
#871 = CARTESIAN_POINT('',(1.270340811991,7.556532492243));
#872 = CARTESIAN_POINT('',(1.370980466936,7.559363004563));
#873 = CARTESIAN_POINT('',(1.470835344954,7.560780785866));
#874 = CARTESIAN_POINT('',(1.670756720246,7.560780785866));
#875 = CARTESIAN_POINT('',(1.770614123248,7.559363022679));
#876 = CARTESIAN_POINT('',(1.871255409852,7.556532380787));
#877 = CARTESIAN_POINT('',(1.97346175975,7.55235905771));
#878 = CARTESIAN_POINT('',(2.078058426088,7.546984418507));
#879 = CARTESIAN_POINT('',(2.185881695598,7.540680880251));
#880 = CARTESIAN_POINT('',(2.373855887307,7.52933224818));
#881 = CARTESIAN_POINT('',(2.452138201402,7.524511781571));
#882 = CARTESIAN_POINT('',(2.532774631624,7.519616083435));
#883 = CARTESIAN_POINT('',(2.615762406564,7.51486156027));
#884 = CARTESIAN_POINT('',(2.701159223012,7.510506135573));
#885 = CARTESIAN_POINT('',(2.789090994198,7.506824884756));
#886 = CARTESIAN_POINT('',(2.970059111046,7.501327605343));
#887 = CARTESIAN_POINT('',(3.062455560012,7.499521185951));
#888 = CARTESIAN_POINT('',(3.155820495856,7.498917021131));
#889 = CARTESIAN_POINT('',(3.249205049564,7.499650991368));
#890 = CARTESIAN_POINT('',(3.341713896522,7.501646989938));
#891 = CARTESIAN_POINT('',(3.432333360472,7.504636877657));
#892 = CARTESIAN_POINT('',(3.626115372549,7.51271660596));
#893 = CARTESIAN_POINT('',(3.728024782291,7.51813282149));
#894 = CARTESIAN_POINT('',(3.826147260679,7.524054541419));
#895 = CARTESIAN_POINT('',(3.920938082567,7.530047059049));
#896 = CARTESIAN_POINT('',(4.012779265069,7.535778455607));
#897 = CARTESIAN_POINT('',(4.101971452221,7.541008715016));
#898 = CARTESIAN_POINT('',(4.266730665442,7.549683459));
#899 = CARTESIAN_POINT('',(4.343060192326,7.553271758417));
#900 = CARTESIAN_POINT('',(4.418145306293,7.556232972806));
#901 = CARTESIAN_POINT('',(4.492309393316,7.558496114249));
#902 = CARTESIAN_POINT('',(4.56586168997,7.56001891391));
#903 = CARTESIAN_POINT('',(4.639114548345,7.560780785866));
#904 = CARTESIAN_POINT('',(4.812349373835,7.560780785866));
#905 = CARTESIAN_POINT('',(4.912206776838,7.559363022679));
#906 = CARTESIAN_POINT('',(5.012848063442,7.556532380787));
#907 = CARTESIAN_POINT('',(5.11505441334,7.55235905771));
#908 = CARTESIAN_POINT('',(5.219651079678,7.546984418507));
#909 = CARTESIAN_POINT('',(5.327474349188,7.540680880251));
#910 = CARTESIAN_POINT('',(5.50142667231,7.53017879539));
#911 = CARTESIAN_POINT('',(5.564711329409,7.526295427396));
#912 = CARTESIAN_POINT('',(5.629491585608,7.522347009064));
#913 = CARTESIAN_POINT('',(5.695822176799,7.518439771033));
#914 = CARTESIAN_POINT('',(5.763779344436,7.514699361905));
#915 = CARTESIAN_POINT('',(5.833466494841,7.511265459353));
#916 = CARTESIAN_POINT('',(5.957018254145,7.50611397684));
#917 = CARTESIAN_POINT('',(6.010009797277,7.504183064996));
#918 = CARTESIAN_POINT('',(6.063787479318,7.502556396975));
#919 = CARTESIAN_POINT('',(6.118161956631,7.501291373118));
#920 = CARTESIAN_POINT('',(6.172962134982,7.500431061391));
#921 = CARTESIAN_POINT('',(6.228024976592,7.5));
#922 = CARTESIAN_POINT('',(6.28318530718,7.5));
#923 = ( GEOMETRIC_REPRESENTATION_CONTEXT(2) 
PARAMETRIC_REPRESENTATION_CONTEXT() REPRESENTATION_CONTEXT('2D SPACE',''
  ) );
#924 = ADVANCED_FACE('',(#925,#931,#962),#325,.F.);
#925 = FACE_BOUND('',#926,.F.);
#926 = EDGE_LOOP('',(#927,#928,#929,#930));
#927 = ORIENTED_EDGE('',*,*,#309,.F.);
#928 = ORIENTED_EDGE('',*,*,#461,.T.);
#929 = ORIENTED_EDGE('',*,*,#434,.T.);
#930 = ORIENTED_EDGE('',*,*,#385,.F.);
#931 = FACE_BOUND('',#932,.F.);
#932 = EDGE_LOOP('',(#933));
#933 = ORIENTED_EDGE('',*,*,#934,.F.);
#934 = EDGE_CURVE('',#935,#935,#937,.T.);
#935 = VERTEX_POINT('',#936);
#936 = CARTESIAN_POINT('',(-81.1,1.224646799147E-15,37.));
#937 = SURFACE_CURVE('',#938,(#943,#950),.PCURVE_S1.);
#938 = CIRCLE('',#939,5.);
#939 = AXIS2_PLACEMENT_3D('',#940,#941,#942);
#940 = CARTESIAN_POINT('',(-81.1,0.,32.));
#941 = DIRECTION('',(1.,0.,0.));
#942 = DIRECTION('',(-0.,0.,1.));
#943 = PCURVE('',#325,#944);
#944 = DEFINITIONAL_REPRESENTATION('',(#945),#949);
#945 = CIRCLE('',#946,5.);
#946 = AXIS2_PLACEMENT_2D('',#947,#948);
#947 = CARTESIAN_POINT('',(10.,-10.2));
#948 = DIRECTION('',(1.,0.));
#949 = ( GEOMETRIC_REPRESENTATION_CONTEXT(2) 
PARAMETRIC_REPRESENTATION_CONTEXT() REPRESENTATION_CONTEXT('2D SPACE',''
  ) );
#950 = PCURVE('',#951,#956);
#951 = CYLINDRICAL_SURFACE('',#952,5.);
#952 = AXIS2_PLACEMENT_3D('',#953,#954,#955);
#953 = CARTESIAN_POINT('',(-82.1,0.,32.));
#954 = DIRECTION('',(1.,0.,0.));
#955 = DIRECTION('',(-0.,0.,1.));
#956 = DEFINITIONAL_REPRESENTATION('',(#957),#961);
#957 = LINE('',#958,#959);
#958 = CARTESIAN_POINT('',(0.,1.));
#959 = VECTOR('',#960,1.);
#960 = DIRECTION('',(1.,0.));
#961 = ( GEOMETRIC_REPRESENTATION_CONTEXT(2) 
PARAMETRIC_REPRESENTATION_CONTEXT() REPRESENTATION_CONTEXT('2D SPACE',''
  ) );
#962 = FACE_BOUND('',#963,.F.);
#963 = EDGE_LOOP('',(#964));
#964 = ORIENTED_EDGE('',*,*,#965,.F.);
#965 = EDGE_CURVE('',#966,#966,#968,.T.);
#966 = VERTEX_POINT('',#967);
#967 = CARTESIAN_POINT('',(-81.1,1.224646799147E-15,62.));
#968 = SURFACE_CURVE('',#969,(#974,#981),.PCURVE_S1.);
#969 = CIRCLE('',#970,5.);
#970 = AXIS2_PLACEMENT_3D('',#971,#972,#973);
#971 = CARTESIAN_POINT('',(-81.1,0.,57.));
#972 = DIRECTION('',(1.,0.,0.));
#973 = DIRECTION('',(-0.,0.,1.));
#974 = PCURVE('',#325,#975);
#975 = DEFINITIONAL_REPRESENTATION('',(#976),#980);
#976 = CIRCLE('',#977,5.);
#977 = AXIS2_PLACEMENT_2D('',#978,#979);
#978 = CARTESIAN_POINT('',(35.,-10.2));
#979 = DIRECTION('',(1.,0.));
#980 = ( GEOMETRIC_REPRESENTATION_CONTEXT(2) 
PARAMETRIC_REPRESENTATION_CONTEXT() REPRESENTATION_CONTEXT('2D SPACE',''
  ) );
#981 = PCURVE('',#982,#987);
#982 = CYLINDRICAL_SURFACE('',#983,5.);
#983 = AXIS2_PLACEMENT_3D('',#984,#985,#986);
#984 = CARTESIAN_POINT('',(-82.1,0.,57.));
#985 = DIRECTION('',(1.,0.,0.));
#986 = DIRECTION('',(-0.,0.,1.));
#987 = DEFINITIONAL_REPRESENTATION('',(#988),#992);
#988 = LINE('',#989,#990);
#989 = CARTESIAN_POINT('',(0.,1.));
#990 = VECTOR('',#991,1.);
#991 = DIRECTION('',(1.,0.));
#992 = ( GEOMETRIC_REPRESENTATION_CONTEXT(2) 
PARAMETRIC_REPRESENTATION_CONTEXT() REPRESENTATION_CONTEXT('2D SPACE',''
  ) );
#993 = ADVANCED_FACE('',(#994),#647,.F.);
#994 = FACE_BOUND('',#995,.F.);
#995 = EDGE_LOOP('',(#996,#997,#1020,#1047));
#996 = ORIENTED_EDGE('',*,*,#513,.F.);
#997 = ORIENTED_EDGE('',*,*,#998,.F.);
#998 = EDGE_CURVE('',#999,#514,#1001,.T.);
#999 = VERTEX_POINT('',#1000);
#1000 = CARTESIAN_POINT('',(-67.05,6.613092715396E-16,34.7));
#1001 = SEAM_CURVE('',#1002,(#1006,#1013),.PCURVE_S1.);
#1002 = LINE('',#1003,#1004);
#1003 = CARTESIAN_POINT('',(-67.5,6.613092715396E-16,34.7));
#1004 = VECTOR('',#1005,1.);
#1005 = DIRECTION('',(1.,0.,0.));
#1006 = PCURVE('',#647,#1007);
#1007 = DEFINITIONAL_REPRESENTATION('',(#1008),#1012);
#1008 = LINE('',#1009,#1010);
#1009 = CARTESIAN_POINT('',(6.28318530718,-0.));
#1010 = VECTOR('',#1011,1.);
#1011 = DIRECTION('',(0.,1.));
#1012 = ( GEOMETRIC_REPRESENTATION_CONTEXT(2) 
PARAMETRIC_REPRESENTATION_CONTEXT() REPRESENTATION_CONTEXT('2D SPACE',''
  ) );
#1013 = PCURVE('',#647,#1014);
#1014 = DEFINITIONAL_REPRESENTATION('',(#1015),#1019);
#1015 = LINE('',#1016,#1017);
#1016 = CARTESIAN_POINT('',(0.,-0.));
#1017 = VECTOR('',#1018,1.);
#1018 = DIRECTION('',(0.,1.));
#1019 = ( GEOMETRIC_REPRESENTATION_CONTEXT(2) 
PARAMETRIC_REPRESENTATION_CONTEXT() REPRESENTATION_CONTEXT('2D SPACE',''
  ) );
#1020 = ORIENTED_EDGE('',*,*,#1021,.T.);
#1021 = EDGE_CURVE('',#999,#999,#1022,.T.);
#1022 = SURFACE_CURVE('',#1023,(#1028,#1035),.PCURVE_S1.);
#1023 = CIRCLE('',#1024,2.7);
#1024 = AXIS2_PLACEMENT_3D('',#1025,#1026,#1027);
#1025 = CARTESIAN_POINT('',(-67.05,0.,32.));
#1026 = DIRECTION('',(1.,0.,0.));
#1027 = DIRECTION('',(-0.,0.,1.));
#1028 = PCURVE('',#647,#1029);
#1029 = DEFINITIONAL_REPRESENTATION('',(#1030),#1034);
#1030 = LINE('',#1031,#1032);
#1031 = CARTESIAN_POINT('',(0.,0.45));
#1032 = VECTOR('',#1033,1.);
#1033 = DIRECTION('',(1.,0.));
#1034 = ( GEOMETRIC_REPRESENTATION_CONTEXT(2) 
PARAMETRIC_REPRESENTATION_CONTEXT() REPRESENTATION_CONTEXT('2D SPACE',''
  ) );
#1035 = PCURVE('',#1036,#1041);
#1036 = PLANE('',#1037);
#1037 = AXIS2_PLACEMENT_3D('',#1038,#1039,#1040);
#1038 = CARTESIAN_POINT('',(-67.05,0.,32.));
#1039 = DIRECTION('',(1.,0.,0.));
#1040 = DIRECTION('',(-0.,0.,1.));
#1041 = DEFINITIONAL_REPRESENTATION('',(#1042),#1046);
#1042 = CIRCLE('',#1043,2.7);
#1043 = AXIS2_PLACEMENT_2D('',#1044,#1045);
#1044 = CARTESIAN_POINT('',(0.,0.));
#1045 = DIRECTION('',(1.,0.));
#1046 = ( GEOMETRIC_REPRESENTATION_CONTEXT(2) 
PARAMETRIC_REPRESENTATION_CONTEXT() REPRESENTATION_CONTEXT('2D SPACE',''
  ) );
#1047 = ORIENTED_EDGE('',*,*,#998,.T.);
#1048 = ADVANCED_FACE('',(#1049),#854,.F.);
#1049 = FACE_BOUND('',#1050,.F.);
#1050 = EDGE_LOOP('',(#1051,#1052,#1075,#1102));
#1051 = ORIENTED_EDGE('',*,*,#720,.F.);
#1052 = ORIENTED_EDGE('',*,*,#1053,.F.);
#1053 = EDGE_CURVE('',#1054,#721,#1056,.T.);
#1054 = VERTEX_POINT('',#1055);
#1055 = CARTESIAN_POINT('',(-67.05,6.613092715396E-16,59.7));
#1056 = SEAM_CURVE('',#1057,(#1061,#1068),.PCURVE_S1.);
#1057 = LINE('',#1058,#1059);
#1058 = CARTESIAN_POINT('',(-67.5,6.613092715396E-16,59.7));
#1059 = VECTOR('',#1060,1.);
#1060 = DIRECTION('',(1.,0.,0.));
#1061 = PCURVE('',#854,#1062);
#1062 = DEFINITIONAL_REPRESENTATION('',(#1063),#1067);
#1063 = LINE('',#1064,#1065);
#1064 = CARTESIAN_POINT('',(6.28318530718,-0.));
#1065 = VECTOR('',#1066,1.);
#1066 = DIRECTION('',(0.,1.));
#1067 = ( GEOMETRIC_REPRESENTATION_CONTEXT(2) 
PARAMETRIC_REPRESENTATION_CONTEXT() REPRESENTATION_CONTEXT('2D SPACE',''
  ) );
#1068 = PCURVE('',#854,#1069);
#1069 = DEFINITIONAL_REPRESENTATION('',(#1070),#1074);
#1070 = LINE('',#1071,#1072);
#1071 = CARTESIAN_POINT('',(0.,-0.));
#1072 = VECTOR('',#1073,1.);
#1073 = DIRECTION('',(0.,1.));
#1074 = ( GEOMETRIC_REPRESENTATION_CONTEXT(2) 
PARAMETRIC_REPRESENTATION_CONTEXT() REPRESENTATION_CONTEXT('2D SPACE',''
  ) );
#1075 = ORIENTED_EDGE('',*,*,#1076,.T.);
#1076 = EDGE_CURVE('',#1054,#1054,#1077,.T.);
#1077 = SURFACE_CURVE('',#1078,(#1083,#1090),.PCURVE_S1.);
#1078 = CIRCLE('',#1079,2.7);
#1079 = AXIS2_PLACEMENT_3D('',#1080,#1081,#1082);
#1080 = CARTESIAN_POINT('',(-67.05,0.,57.));
#1081 = DIRECTION('',(1.,0.,0.));
#1082 = DIRECTION('',(-0.,0.,1.));
#1083 = PCURVE('',#854,#1084);
#1084 = DEFINITIONAL_REPRESENTATION('',(#1085),#1089);
#1085 = LINE('',#1086,#1087);
#1086 = CARTESIAN_POINT('',(0.,0.45));
#1087 = VECTOR('',#1088,1.);
#1088 = DIRECTION('',(1.,0.));
#1089 = ( GEOMETRIC_REPRESENTATION_CONTEXT(2) 
PARAMETRIC_REPRESENTATION_CONTEXT() REPRESENTATION_CONTEXT('2D SPACE',''
  ) );
#1090 = PCURVE('',#1091,#1096);
#1091 = PLANE('',#1092);
#1092 = AXIS2_PLACEMENT_3D('',#1093,#1094,#1095);
#1093 = CARTESIAN_POINT('',(-67.05,0.,57.));
#1094 = DIRECTION('',(1.,0.,0.));
#1095 = DIRECTION('',(-0.,0.,1.));
#1096 = DEFINITIONAL_REPRESENTATION('',(#1097),#1101);
#1097 = CIRCLE('',#1098,2.7);
#1098 = AXIS2_PLACEMENT_2D('',#1099,#1100);
#1099 = CARTESIAN_POINT('',(0.,0.));
#1100 = DIRECTION('',(1.,0.));
#1101 = ( GEOMETRIC_REPRESENTATION_CONTEXT(2) 
PARAMETRIC_REPRESENTATION_CONTEXT() REPRESENTATION_CONTEXT('2D SPACE',''
  ) );
#1102 = ORIENTED_EDGE('',*,*,#1053,.T.);
#1103 = ADVANCED_FACE('',(#1104),#951,.F.);
#1104 = FACE_BOUND('',#1105,.F.);
#1105 = EDGE_LOOP('',(#1106,#1129,#1151,#1152));
#1106 = ORIENTED_EDGE('',*,*,#1107,.T.);
#1107 = EDGE_CURVE('',#935,#1108,#1110,.T.);
#1108 = VERTEX_POINT('',#1109);
#1109 = CARTESIAN_POINT('',(-67.05,1.224646799147E-15,37.));
#1110 = SEAM_CURVE('',#1111,(#1115,#1122),.PCURVE_S1.);
#1111 = LINE('',#1112,#1113);
#1112 = CARTESIAN_POINT('',(-82.1,1.224646799147E-15,37.));
#1113 = VECTOR('',#1114,1.);
#1114 = DIRECTION('',(1.,0.,0.));
#1115 = PCURVE('',#951,#1116);
#1116 = DEFINITIONAL_REPRESENTATION('',(#1117),#1121);
#1117 = LINE('',#1118,#1119);
#1118 = CARTESIAN_POINT('',(6.28318530718,-0.));
#1119 = VECTOR('',#1120,1.);
#1120 = DIRECTION('',(0.,1.));
#1121 = ( GEOMETRIC_REPRESENTATION_CONTEXT(2) 
PARAMETRIC_REPRESENTATION_CONTEXT() REPRESENTATION_CONTEXT('2D SPACE',''
  ) );
#1122 = PCURVE('',#951,#1123);
#1123 = DEFINITIONAL_REPRESENTATION('',(#1124),#1128);
#1124 = LINE('',#1125,#1126);
#1125 = CARTESIAN_POINT('',(0.,-0.));
#1126 = VECTOR('',#1127,1.);
#1127 = DIRECTION('',(0.,1.));
#1128 = ( GEOMETRIC_REPRESENTATION_CONTEXT(2) 
PARAMETRIC_REPRESENTATION_CONTEXT() REPRESENTATION_CONTEXT('2D SPACE',''
  ) );
#1129 = ORIENTED_EDGE('',*,*,#1130,.F.);
#1130 = EDGE_CURVE('',#1108,#1108,#1131,.T.);
#1131 = SURFACE_CURVE('',#1132,(#1137,#1144),.PCURVE_S1.);
#1132 = CIRCLE('',#1133,5.);
#1133 = AXIS2_PLACEMENT_3D('',#1134,#1135,#1136);
#1134 = CARTESIAN_POINT('',(-67.05,0.,32.));
#1135 = DIRECTION('',(1.,0.,0.));
#1136 = DIRECTION('',(-0.,0.,1.));
#1137 = PCURVE('',#951,#1138);
#1138 = DEFINITIONAL_REPRESENTATION('',(#1139),#1143);
#1139 = LINE('',#1140,#1141);
#1140 = CARTESIAN_POINT('',(0.,15.05));
#1141 = VECTOR('',#1142,1.);
#1142 = DIRECTION('',(1.,0.));
#1143 = ( GEOMETRIC_REPRESENTATION_CONTEXT(2) 
PARAMETRIC_REPRESENTATION_CONTEXT() REPRESENTATION_CONTEXT('2D SPACE',''
  ) );
#1144 = PCURVE('',#1036,#1145);
#1145 = DEFINITIONAL_REPRESENTATION('',(#1146),#1150);
#1146 = CIRCLE('',#1147,5.);
#1147 = AXIS2_PLACEMENT_2D('',#1148,#1149);
#1148 = CARTESIAN_POINT('',(0.,0.));
#1149 = DIRECTION('',(1.,0.));
#1150 = ( GEOMETRIC_REPRESENTATION_CONTEXT(2) 
PARAMETRIC_REPRESENTATION_CONTEXT() REPRESENTATION_CONTEXT('2D SPACE',''
  ) );
#1151 = ORIENTED_EDGE('',*,*,#1107,.F.);
#1152 = ORIENTED_EDGE('',*,*,#934,.T.);
#1153 = ADVANCED_FACE('',(#1154),#982,.F.);
#1154 = FACE_BOUND('',#1155,.F.);
#1155 = EDGE_LOOP('',(#1156,#1179,#1201,#1202));
#1156 = ORIENTED_EDGE('',*,*,#1157,.T.);
#1157 = EDGE_CURVE('',#966,#1158,#1160,.T.);
#1158 = VERTEX_POINT('',#1159);
#1159 = CARTESIAN_POINT('',(-67.05,1.224646799147E-15,62.));
#1160 = SEAM_CURVE('',#1161,(#1165,#1172),.PCURVE_S1.);
#1161 = LINE('',#1162,#1163);
#1162 = CARTESIAN_POINT('',(-82.1,1.224646799147E-15,62.));
#1163 = VECTOR('',#1164,1.);
#1164 = DIRECTION('',(1.,0.,0.));
#1165 = PCURVE('',#982,#1166);
#1166 = DEFINITIONAL_REPRESENTATION('',(#1167),#1171);
#1167 = LINE('',#1168,#1169);
#1168 = CARTESIAN_POINT('',(6.28318530718,-0.));
#1169 = VECTOR('',#1170,1.);
#1170 = DIRECTION('',(0.,1.));
#1171 = ( GEOMETRIC_REPRESENTATION_CONTEXT(2) 
PARAMETRIC_REPRESENTATION_CONTEXT() REPRESENTATION_CONTEXT('2D SPACE',''
  ) );
#1172 = PCURVE('',#982,#1173);
#1173 = DEFINITIONAL_REPRESENTATION('',(#1174),#1178);
#1174 = LINE('',#1175,#1176);
#1175 = CARTESIAN_POINT('',(0.,-0.));
#1176 = VECTOR('',#1177,1.);
#1177 = DIRECTION('',(0.,1.));
#1178 = ( GEOMETRIC_REPRESENTATION_CONTEXT(2) 
PARAMETRIC_REPRESENTATION_CONTEXT() REPRESENTATION_CONTEXT('2D SPACE',''
  ) );
#1179 = ORIENTED_EDGE('',*,*,#1180,.F.);
#1180 = EDGE_CURVE('',#1158,#1158,#1181,.T.);
#1181 = SURFACE_CURVE('',#1182,(#1187,#1194),.PCURVE_S1.);
#1182 = CIRCLE('',#1183,5.);
#1183 = AXIS2_PLACEMENT_3D('',#1184,#1185,#1186);
#1184 = CARTESIAN_POINT('',(-67.05,0.,57.));
#1185 = DIRECTION('',(1.,0.,0.));
#1186 = DIRECTION('',(-0.,0.,1.));
#1187 = PCURVE('',#982,#1188);
#1188 = DEFINITIONAL_REPRESENTATION('',(#1189),#1193);
#1189 = LINE('',#1190,#1191);
#1190 = CARTESIAN_POINT('',(0.,15.05));
#1191 = VECTOR('',#1192,1.);
#1192 = DIRECTION('',(1.,0.));
#1193 = ( GEOMETRIC_REPRESENTATION_CONTEXT(2) 
PARAMETRIC_REPRESENTATION_CONTEXT() REPRESENTATION_CONTEXT('2D SPACE',''
  ) );
#1194 = PCURVE('',#1091,#1195);
#1195 = DEFINITIONAL_REPRESENTATION('',(#1196),#1200);
#1196 = CIRCLE('',#1197,5.);
#1197 = AXIS2_PLACEMENT_2D('',#1198,#1199);
#1198 = CARTESIAN_POINT('',(0.,0.));
#1199 = DIRECTION('',(1.,0.));
#1200 = ( GEOMETRIC_REPRESENTATION_CONTEXT(2) 
PARAMETRIC_REPRESENTATION_CONTEXT() REPRESENTATION_CONTEXT('2D SPACE',''
  ) );
#1201 = ORIENTED_EDGE('',*,*,#1157,.F.);
#1202 = ORIENTED_EDGE('',*,*,#965,.T.);
#1203 = ADVANCED_FACE('',(#1204,#1207),#1036,.F.);
#1204 = FACE_BOUND('',#1205,.F.);
#1205 = EDGE_LOOP('',(#1206));
#1206 = ORIENTED_EDGE('',*,*,#1130,.T.);
#1207 = FACE_BOUND('',#1208,.F.);
#1208 = EDGE_LOOP('',(#1209));
#1209 = ORIENTED_EDGE('',*,*,#1021,.F.);
#1210 = ADVANCED_FACE('',(#1211,#1214),#1091,.F.);
#1211 = FACE_BOUND('',#1212,.F.);
#1212 = EDGE_LOOP('',(#1213));
#1213 = ORIENTED_EDGE('',*,*,#1180,.T.);
#1214 = FACE_BOUND('',#1215,.F.);
#1215 = EDGE_LOOP('',(#1216));
#1216 = ORIENTED_EDGE('',*,*,#1076,.F.);
#1217 = ( GEOMETRIC_REPRESENTATION_CONTEXT(3) 
GLOBAL_UNCERTAINTY_ASSIGNED_CONTEXT((#1221)) 
GLOBAL_UNIT_ASSIGNED_CONTEXT((#1218,#1219,#1220)) REPRESENTATION_CONTEXT
('Context #1','3D Context with UNIT and UNCERTAINTY') );
#1218 = ( LENGTH_UNIT() NAMED_UNIT(*) SI_UNIT(.MILLI.,.METRE.) );
#1219 = ( NAMED_UNIT(*) PLANE_ANGLE_UNIT() SI_UNIT($,.RADIAN.) );
#1220 = ( NAMED_UNIT(*) SI_UNIT($,.STERADIAN.) SOLID_ANGLE_UNIT() );
#1221 = UNCERTAINTY_MEASURE_WITH_UNIT(LENGTH_MEASURE(1.E-07),#1218,
  'distance_accuracy_value','confusion accuracy');
#1222 = PRODUCT_RELATED_PRODUCT_CATEGORY('part',$,(#7));
ENDSEC;
END-ISO-10303-21;
