ISO-10303-21;
HEADER;
FILE_DESCRIPTION(('Open CASCADE Model'),'2;1');
FILE_NAME('Open CASCADE Shape Model','2026-09-23T00:43:01',('Author'),(
    'Open CASCADE'),'Open CASCADE STEP processor 7.9','Open CASCADE 7.9'
  ,'Unknown');
FILE_SCHEMA(('AUTOMOTIVE_DESIGN { 1 0 10303 214 1 1 1 1 }'));
ENDSEC;
DATA;
#1 = APPLICATION_PROTOCOL_DEFINITION('international standard',
  'automotive_design',2000,#2);
#2 = APPLICATION_CONTEXT(
  'core data for automotive mechanical design processes');
#3 = SHAPE_DEFINITION_REPRESENTATION(#4,#10);
#4 = PRODUCT_DEFINITION_SHAPE('','',#5);
#5 = PRODUCT_DEFINITION('design','',#6,#9);
#6 = PRODUCT_DEFINITION_FORMATION('','',#7);
#7 = PRODUCT('Open CASCADE STEP translator 7.9 1',
  'Open CASCADE STEP translator 7.9 1','',(#8));
#8 = PRODUCT_CONTEXT('',#2,'mechanical');
#9 = PRODUCT_DEFINITION_CONTEXT('part definition',#2,'design');
#10 = ADVANCED_BREP_SHAPE_REPRESENTATION('',(#11,#15),#816);
#11 = AXIS2_PLACEMENT_3D('',#12,#13,#14);
#12 = CARTESIAN_POINT('',(0.,0.,0.));
#13 = DIRECTION('',(0.,0.,1.));
#14 = DIRECTION('',(1.,0.,-0.));
#15 = MANIFOLD_SOLID_BREP('',#16);
#16 = CLOSED_SHELL('',(#17,#626,#630,#681,#729,#754,#759,#784,#789));
#17 = ADVANCED_FACE('',(#18,#519),#31,.T.);
#18 = FACE_BOUND('',#19,.T.);
#19 = EDGE_LOOP('',(#20,#54,#78,#148,#172,#201,#235,#264,#293,#317,#351,
    #380,#409,#431,#432,#476,#518));
#20 = ORIENTED_EDGE('',*,*,#21,.T.);
#21 = EDGE_CURVE('',#22,#22,#24,.T.);
#22 = VERTEX_POINT('',#23);
#23 = CARTESIAN_POINT('',(19.364916731037,-4.743036658084E-15,-35.));
#24 = SURFACE_CURVE('',#25,(#30,#42),.PCURVE_S1.);
#25 = CIRCLE('',#26,19.364916731037);
#26 = AXIS2_PLACEMENT_3D('',#27,#28,#29);
#27 = CARTESIAN_POINT('',(0.,0.,-35.));
#28 = DIRECTION('',(0.,0.,1.));
#29 = DIRECTION('',(1.,0.,-0.));
#30 = PCURVE('',#31,#36);
#31 = SPHERICAL_SURFACE('',#32,40.);
#32 = AXIS2_PLACEMENT_3D('',#33,#34,#35);
#33 = CARTESIAN_POINT('',(0.,0.,0.));
#34 = DIRECTION('',(0.,0.,1.));
#35 = DIRECTION('',(1.,0.,0.));
#36 = DEFINITIONAL_REPRESENTATION('',(#37),#41);
#37 = LINE('',#38,#39);
#38 = CARTESIAN_POINT('',(0.,-1.065435816511));
#39 = VECTOR('',#40,1.);
#40 = DIRECTION('',(1.,0.));
#41 = ( GEOMETRIC_REPRESENTATION_CONTEXT(2) 
PARAMETRIC_REPRESENTATION_CONTEXT() REPRESENTATION_CONTEXT('2D SPACE',''
  ) );
#42 = PCURVE('',#43,#48);
#43 = PLANE('',#44);
#44 = AXIS2_PLACEMENT_3D('',#45,#46,#47);
#45 = CARTESIAN_POINT('',(-80.,-80.,-35.));
#46 = DIRECTION('',(0.,0.,1.));
#47 = DIRECTION('',(1.,0.,0.));
#48 = DEFINITIONAL_REPRESENTATION('',(#49),#53);
#49 = CIRCLE('',#50,19.364916731037);
#50 = AXIS2_PLACEMENT_2D('',#51,#52);
#51 = CARTESIAN_POINT('',(80.,80.));
#52 = DIRECTION('',(1.,0.));
#53 = ( GEOMETRIC_REPRESENTATION_CONTEXT(2) 
PARAMETRIC_REPRESENTATION_CONTEXT() REPRESENTATION_CONTEXT('2D SPACE',''
  ) );
#54 = ORIENTED_EDGE('',*,*,#55,.T.);
#55 = EDGE_CURVE('',#22,#56,#58,.T.);
#56 = VERTEX_POINT('',#57);
#57 = CARTESIAN_POINT('',(33.071891388307,-8.100277186088E-15,-22.5));
#58 = SEAM_CURVE('',#59,(#64,#71),.PCURVE_S1.);
#59 = CIRCLE('',#60,40.);
#60 = AXIS2_PLACEMENT_3D('',#61,#62,#63);
#61 = CARTESIAN_POINT('',(0.,0.,0.));
#62 = DIRECTION('',(-2.449293598295E-16,-1.,0.));
#63 = DIRECTION('',(1.,-2.449293598295E-16,0.));
#64 = PCURVE('',#31,#65);
#65 = DEFINITIONAL_REPRESENTATION('',(#66),#70);
#66 = LINE('',#67,#68);
#67 = CARTESIAN_POINT('',(0.,-6.28318530718));
#68 = VECTOR('',#69,1.);
#69 = DIRECTION('',(0.,1.));
#70 = ( GEOMETRIC_REPRESENTATION_CONTEXT(2) 
PARAMETRIC_REPRESENTATION_CONTEXT() REPRESENTATION_CONTEXT('2D SPACE',''
  ) );
#71 = PCURVE('',#31,#72);
#72 = DEFINITIONAL_REPRESENTATION('',(#73),#77);
#73 = LINE('',#74,#75);
#74 = CARTESIAN_POINT('',(6.28318530718,-6.28318530718));
#75 = VECTOR('',#76,1.);
#76 = DIRECTION('',(0.,1.));
#77 = ( GEOMETRIC_REPRESENTATION_CONTEXT(2) 
PARAMETRIC_REPRESENTATION_CONTEXT() REPRESENTATION_CONTEXT('2D SPACE',''
  ) );
#78 = ORIENTED_EDGE('',*,*,#79,.T.);
#79 = EDGE_CURVE('',#56,#80,#82,.T.);
#80 = VERTEX_POINT('',#81);
#81 = CARTESIAN_POINT('',(33.071891388307,-8.100277186088E-15,22.5));
#82 = SURFACE_CURVE('',#83,(#88,#136),.PCURVE_S1.);
#83 = CIRCLE('',#84,22.5);
#84 = AXIS2_PLACEMENT_3D('',#85,#86,#87);
#85 = CARTESIAN_POINT('',(33.071891388307,0.,0.));
#86 = DIRECTION('',(-1.,-0.,-0.));
#87 = DIRECTION('',(0.,0.,-1.));
#88 = PCURVE('',#31,#89);
#89 = DEFINITIONAL_REPRESENTATION('',(#90),#135);
#90 = B_SPLINE_CURVE_WITH_KNOTS('',8,(#91,#92,#93,#94,#95,#96,#97,#98,
    #99,#100,#101,#102,#103,#104,#105,#106,#107,#108,#109,#110,#111,#112
    ,#113,#114,#115,#116,#117,#118,#119,#120,#121,#122,#123,#124,#125,
    #126,#127,#128,#129,#130,#131,#132,#133,#134),.UNSPECIFIED.,.F.,.F.,
  (9,7,7,7,7,7,9),(0.,0.392699081699,1.079922474671,1.595340019401,
    2.368466336495,2.755029495043,3.14159265359),.UNSPECIFIED.);
#91 = CARTESIAN_POINT('',(6.28318530718,-0.597406416645));
#92 = CARTESIAN_POINT('',(6.24978938935,-0.597406416645));
#93 = CARTESIAN_POINT('',(6.216393488903,-0.595532907469));
#94 = CARTESIAN_POINT('',(6.18323362154,-0.591785907753));
#95 = CARTESIAN_POINT('',(6.150546254365,-0.586188359728));
#96 = CARTESIAN_POINT('',(6.118552449863,-0.578786394078));
#97 = CARTESIAN_POINT('',(6.087444997904,-0.569645793712));
#98 = CARTESIAN_POINT('',(6.057381493104,-0.55884674655));
#99 = CARTESIAN_POINT('',(5.977919752896,-0.524835381529));
#100 = CARTESIAN_POINT('',(5.930931133138,-0.498387603335));
#101 = CARTESIAN_POINT('',(5.888186406467,-0.467616342018));
#102 = CARTESIAN_POINT('',(5.850035801123,-0.433093190695));
#103 = CARTESIAN_POINT('',(5.816521338768,-0.39539688587));
#104 = CARTESIAN_POINT('',(5.787561454333,-0.35505888445));
#105 = CARTESIAN_POINT('',(5.763020860035,-0.312567390736));
#106 = CARTESIAN_POINT('',(5.727570874692,-0.235222915216));
#107 = CARTESIAN_POINT('',(5.714787463407,-0.201116033311));
#108 = CARTESIAN_POINT('',(5.704356079293,-0.166239060348));
#109 = CARTESIAN_POINT('',(5.696218899656,-0.130768715904));
#110 = CARTESIAN_POINT('',(5.690328843131,-9.487118182985E-02));
#111 = CARTESIAN_POINT('',(5.68665485634,-5.870556439159E-02));
#112 = CARTESIAN_POINT('',(5.685183497046,-2.242795417326E-02));
#113 = CARTESIAN_POINT('',(5.687022192725,6.815413005177E-02));
#114 = CARTESIAN_POINT('',(5.693090820111,0.122402632767));
#115 = CARTESIAN_POINT('',(5.704138636117,0.176021202261));
#116 = CARTESIAN_POINT('',(5.72026969057,0.228477178387));
#117 = CARTESIAN_POINT('',(5.741669425543,0.279204211248));
#118 = CARTESIAN_POINT('',(5.768585971634,0.327576658178));
#119 = CARTESIAN_POINT('',(5.801239229141,0.372880213389));
#120 = CARTESIAN_POINT('',(5.858826086357,0.435090742658));
#121 = CARTESIAN_POINT('',(5.879456208804,0.454870121225));
#122 = CARTESIAN_POINT('',(5.901521078289,0.47359689834));
#123 = CARTESIAN_POINT('',(5.925007323183,0.49117308031));
#124 = CARTESIAN_POINT('',(5.949882708758,0.507498949914));
#125 = CARTESIAN_POINT('',(5.976089152098,0.522475663664));
#126 = CARTESIAN_POINT('',(6.003537325227,0.536009032562));
#127 = CARTESIAN_POINT('',(6.060675018632,0.560019379008));
#128 = CARTESIAN_POINT('',(6.090364557726,0.570496352478));
#129 = CARTESIAN_POINT('',(6.121053646394,0.579360265954));
#130 = CARTESIAN_POINT('',(6.152589901631,0.58653549552));
#131 = CARTESIAN_POINT('',(6.18478816637,0.591960175819));
#132 = CARTESIAN_POINT('',(6.217437109241,0.595590997367));
#133 = CARTESIAN_POINT('',(6.250311200566,0.597406416645));
#134 = CARTESIAN_POINT('',(6.28318530718,0.597406416645));
#135 = ( GEOMETRIC_REPRESENTATION_CONTEXT(2) 
PARAMETRIC_REPRESENTATION_CONTEXT() REPRESENTATION_CONTEXT('2D SPACE',''
  ) );
#136 = PCURVE('',#137,#142);
#137 = CYLINDRICAL_SURFACE('',#138,22.5);
#138 = AXIS2_PLACEMENT_3D('',#139,#140,#141);
#139 = CARTESIAN_POINT('',(0.,0.,0.));
#140 = DIRECTION('',(-1.,-0.,-0.));
#141 = DIRECTION('',(0.,1.,0.));
#142 = DEFINITIONAL_REPRESENTATION('',(#143),#147);
#143 = LINE('',#144,#145);
#144 = CARTESIAN_POINT('',(-4.712388980385,-33.0718913883));
#145 = VECTOR('',#146,1.);
#146 = DIRECTION('',(1.,-0.));
#147 = ( GEOMETRIC_REPRESENTATION_CONTEXT(2) 
PARAMETRIC_REPRESENTATION_CONTEXT() REPRESENTATION_CONTEXT('2D SPACE',''
  ) );
#148 = ORIENTED_EDGE('',*,*,#149,.T.);
#149 = EDGE_CURVE('',#80,#150,#152,.T.);
#150 = VERTEX_POINT('',#151);
#151 = CARTESIAN_POINT('',(26.457513110646,-6.48022174887E-15,30.));
#152 = SEAM_CURVE('',#153,(#158,#165),.PCURVE_S1.);
#153 = CIRCLE('',#154,40.);
#154 = AXIS2_PLACEMENT_3D('',#155,#156,#157);
#155 = CARTESIAN_POINT('',(0.,0.,0.));
#156 = DIRECTION('',(-2.449293598295E-16,-1.,0.));
#157 = DIRECTION('',(1.,-2.449293598295E-16,0.));
#158 = PCURVE('',#31,#159);
#159 = DEFINITIONAL_REPRESENTATION('',(#160),#164);
#160 = LINE('',#161,#162);
#161 = CARTESIAN_POINT('',(0.,-6.28318530718));
#162 = VECTOR('',#163,1.);
#163 = DIRECTION('',(0.,1.));
#164 = ( GEOMETRIC_REPRESENTATION_CONTEXT(2) 
PARAMETRIC_REPRESENTATION_CONTEXT() REPRESENTATION_CONTEXT('2D SPACE',''
  ) );
#165 = PCURVE('',#31,#166);
#166 = DEFINITIONAL_REPRESENTATION('',(#167),#171);
#167 = LINE('',#168,#169);
#168 = CARTESIAN_POINT('',(6.28318530718,-6.28318530718));
#169 = VECTOR('',#170,1.);
#170 = DIRECTION('',(0.,1.));
#171 = ( GEOMETRIC_REPRESENTATION_CONTEXT(2) 
PARAMETRIC_REPRESENTATION_CONTEXT() REPRESENTATION_CONTEXT('2D SPACE',''
  ) );
#172 = ORIENTED_EDGE('',*,*,#173,.F.);
#173 = EDGE_CURVE('',#174,#150,#176,.T.);
#174 = VERTEX_POINT('',#175);
#175 = CARTESIAN_POINT('',(26.263282353887,-3.2,30.));
#176 = SURFACE_CURVE('',#177,(#182,#189),.PCURVE_S1.);
#177 = CIRCLE('',#178,26.457513110646);
#178 = AXIS2_PLACEMENT_3D('',#179,#180,#181);
#179 = CARTESIAN_POINT('',(0.,0.,30.));
#180 = DIRECTION('',(0.,0.,1.));
#181 = DIRECTION('',(1.,0.,-0.));
#182 = PCURVE('',#31,#183);
#183 = DEFINITIONAL_REPRESENTATION('',(#184),#188);
#184 = LINE('',#185,#186);
#185 = CARTESIAN_POINT('',(0.,0.848062078981));
#186 = VECTOR('',#187,1.);
#187 = DIRECTION('',(1.,0.));
#188 = ( GEOMETRIC_REPRESENTATION_CONTEXT(2) 
PARAMETRIC_REPRESENTATION_CONTEXT() REPRESENTATION_CONTEXT('2D SPACE',''
  ) );
#189 = PCURVE('',#190,#195);
#190 = PLANE('',#191);
#191 = AXIS2_PLACEMENT_3D('',#192,#193,#194);
#192 = CARTESIAN_POINT('',(-80.,-3.2,30.));
#193 = DIRECTION('',(0.,0.,1.));
#194 = DIRECTION('',(1.,0.,0.));
#195 = DEFINITIONAL_REPRESENTATION('',(#196),#200);
#196 = CIRCLE('',#197,26.457513110646);
#197 = AXIS2_PLACEMENT_2D('',#198,#199);
#198 = CARTESIAN_POINT('',(80.,3.2));
#199 = DIRECTION('',(1.,0.));
#200 = ( GEOMETRIC_REPRESENTATION_CONTEXT(2) 
PARAMETRIC_REPRESENTATION_CONTEXT() REPRESENTATION_CONTEXT('2D SPACE',''
  ) );
#201 = ORIENTED_EDGE('',*,*,#202,.F.);
#202 = EDGE_CURVE('',#203,#174,#205,.T.);
#203 = VERTEX_POINT('',#204);
#204 = CARTESIAN_POINT('',(19.098691054625,-3.2,35.));
#205 = SURFACE_CURVE('',#206,(#211,#223),.PCURVE_S1.);
#206 = CIRCLE('',#207,39.871794542007);
#207 = AXIS2_PLACEMENT_3D('',#208,#209,#210);
#208 = CARTESIAN_POINT('',(0.,-3.2,0.));
#209 = DIRECTION('',(0.,1.,0.));
#210 = DIRECTION('',(0.,-0.,1.));
#211 = PCURVE('',#31,#212);
#212 = DEFINITIONAL_REPRESENTATION('',(#213),#222);
#213 = B_SPLINE_CURVE_WITH_KNOTS('',7,(#214,#215,#216,#217,#218,#219,
    #220,#221),.UNSPECIFIED.,.F.,.F.,(8,8),(0.499518064646,
    0.719080702912),.PIECEWISE_BEZIER_KNOTS.);
#214 = CARTESIAN_POINT('',(6.117176564612,1.065435816511));
#215 = CARTESIAN_POINT('',(6.126544570511,1.03450094117));
#216 = CARTESIAN_POINT('',(6.134503416018,1.003509419626));
#217 = CARTESIAN_POINT('',(6.141409751779,0.972475892052));
#218 = CARTESIAN_POINT('',(6.147471985357,0.941408874603));
#219 = CARTESIAN_POINT('',(6.152844440595,0.910314692746));
#220 = CARTESIAN_POINT('',(6.157638197918,0.879197904392));
#221 = CARTESIAN_POINT('',(6.16193983328,0.848062078981));
#222 = ( GEOMETRIC_REPRESENTATION_CONTEXT(2) 
PARAMETRIC_REPRESENTATION_CONTEXT() REPRESENTATION_CONTEXT('2D SPACE',''
  ) );
#223 = PCURVE('',#224,#229);
#224 = PLANE('',#225);
#225 = AXIS2_PLACEMENT_3D('',#226,#227,#228);
#226 = CARTESIAN_POINT('',(-80.,-3.2,30.));
#227 = DIRECTION('',(0.,1.,0.));
#228 = DIRECTION('',(0.,0.,1.));
#229 = DEFINITIONAL_REPRESENTATION('',(#230),#234);
#230 = CIRCLE('',#231,39.871794542007);
#231 = AXIS2_PLACEMENT_2D('',#232,#233);
#232 = CARTESIAN_POINT('',(-30.,80.));
#233 = DIRECTION('',(1.,0.));
#234 = ( GEOMETRIC_REPRESENTATION_CONTEXT(2) 
PARAMETRIC_REPRESENTATION_CONTEXT() REPRESENTATION_CONTEXT('2D SPACE',''
  ) );
#235 = ORIENTED_EDGE('',*,*,#236,.F.);
#236 = EDGE_CURVE('',#237,#203,#239,.T.);
#237 = VERTEX_POINT('',#238);
#238 = CARTESIAN_POINT('',(-19.09869105462,-3.2,35.));
#239 = SURFACE_CURVE('',#240,(#245,#252),.PCURVE_S1.);
#240 = CIRCLE('',#241,19.364916731037);
#241 = AXIS2_PLACEMENT_3D('',#242,#243,#244);
#242 = CARTESIAN_POINT('',(0.,0.,35.));
#243 = DIRECTION('',(0.,0.,1.));
#244 = DIRECTION('',(1.,0.,-0.));
#245 = PCURVE('',#31,#246);
#246 = DEFINITIONAL_REPRESENTATION('',(#247),#251);
#247 = LINE('',#248,#249);
#248 = CARTESIAN_POINT('',(0.,1.065435816511));
#249 = VECTOR('',#250,1.);
#250 = DIRECTION('',(1.,0.));
#251 = ( GEOMETRIC_REPRESENTATION_CONTEXT(2) 
PARAMETRIC_REPRESENTATION_CONTEXT() REPRESENTATION_CONTEXT('2D SPACE',''
  ) );
#252 = PCURVE('',#253,#258);
#253 = PLANE('',#254);
#254 = AXIS2_PLACEMENT_3D('',#255,#256,#257);
#255 = CARTESIAN_POINT('',(-80.,-80.,35.));
#256 = DIRECTION('',(0.,0.,1.));
#257 = DIRECTION('',(1.,0.,0.));
#258 = DEFINITIONAL_REPRESENTATION('',(#259),#263);
#259 = CIRCLE('',#260,19.364916731037);
#260 = AXIS2_PLACEMENT_2D('',#261,#262);
#261 = CARTESIAN_POINT('',(80.,80.));
#262 = DIRECTION('',(1.,0.));
#263 = ( GEOMETRIC_REPRESENTATION_CONTEXT(2) 
PARAMETRIC_REPRESENTATION_CONTEXT() REPRESENTATION_CONTEXT('2D SPACE',''
  ) );
#264 = ORIENTED_EDGE('',*,*,#265,.F.);
#265 = EDGE_CURVE('',#266,#237,#268,.T.);
#266 = VERTEX_POINT('',#267);
#267 = CARTESIAN_POINT('',(-26.26328235388,-3.2,30.));
#268 = SURFACE_CURVE('',#269,(#274,#286),.PCURVE_S1.);
#269 = CIRCLE('',#270,39.871794542007);
#270 = AXIS2_PLACEMENT_3D('',#271,#272,#273);
#271 = CARTESIAN_POINT('',(0.,-3.2,0.));
#272 = DIRECTION('',(0.,1.,0.));
#273 = DIRECTION('',(0.,-0.,1.));
#274 = PCURVE('',#31,#275);
#275 = DEFINITIONAL_REPRESENTATION('',(#276),#285);
#276 = B_SPLINE_CURVE_WITH_KNOTS('',7,(#277,#278,#279,#280,#281,#282,
    #283,#284),.UNSPECIFIED.,.F.,.F.,(8,8),(5.564104604267,
    5.783667242534),.PIECEWISE_BEZIER_KNOTS.);
#277 = CARTESIAN_POINT('',(3.262838127489,0.848062078981));
#278 = CARTESIAN_POINT('',(3.267139762851,0.879197904392));
#279 = CARTESIAN_POINT('',(3.271933520175,0.910314692746));
#280 = CARTESIAN_POINT('',(3.277305975412,0.941408874604));
#281 = CARTESIAN_POINT('',(3.283368208991,0.972475892052));
#282 = CARTESIAN_POINT('',(3.290274544751,1.003509419626));
#283 = CARTESIAN_POINT('',(3.298233390258,1.03450094117));
#284 = CARTESIAN_POINT('',(3.307601396158,1.065435816511));
#285 = ( GEOMETRIC_REPRESENTATION_CONTEXT(2) 
PARAMETRIC_REPRESENTATION_CONTEXT() REPRESENTATION_CONTEXT('2D SPACE',''
  ) );
#286 = PCURVE('',#224,#287);
#287 = DEFINITIONAL_REPRESENTATION('',(#288),#292);
#288 = CIRCLE('',#289,39.871794542007);
#289 = AXIS2_PLACEMENT_2D('',#290,#291);
#290 = CARTESIAN_POINT('',(-30.,80.));
#291 = DIRECTION('',(1.,0.));
#292 = ( GEOMETRIC_REPRESENTATION_CONTEXT(2) 
PARAMETRIC_REPRESENTATION_CONTEXT() REPRESENTATION_CONTEXT('2D SPACE',''
  ) );
#293 = ORIENTED_EDGE('',*,*,#294,.F.);
#294 = EDGE_CURVE('',#295,#266,#297,.T.);
#295 = VERTEX_POINT('',#296);
#296 = CARTESIAN_POINT('',(-26.26328235388,3.2,30.));
#297 = SURFACE_CURVE('',#298,(#303,#310),.PCURVE_S1.);
#298 = CIRCLE('',#299,26.457513110646);
#299 = AXIS2_PLACEMENT_3D('',#300,#301,#302);
#300 = CARTESIAN_POINT('',(0.,0.,30.));
#301 = DIRECTION('',(0.,0.,1.));
#302 = DIRECTION('',(1.,0.,-0.));
#303 = PCURVE('',#31,#304);
#304 = DEFINITIONAL_REPRESENTATION('',(#305),#309);
#305 = LINE('',#306,#307);
#306 = CARTESIAN_POINT('',(0.,0.848062078981));
#307 = VECTOR('',#308,1.);
#308 = DIRECTION('',(1.,0.));
#309 = ( GEOMETRIC_REPRESENTATION_CONTEXT(2) 
PARAMETRIC_REPRESENTATION_CONTEXT() REPRESENTATION_CONTEXT('2D SPACE',''
  ) );
#310 = PCURVE('',#190,#311);
#311 = DEFINITIONAL_REPRESENTATION('',(#312),#316);
#312 = CIRCLE('',#313,26.457513110646);
#313 = AXIS2_PLACEMENT_2D('',#314,#315);
#314 = CARTESIAN_POINT('',(80.,3.2));
#315 = DIRECTION('',(1.,0.));
#316 = ( GEOMETRIC_REPRESENTATION_CONTEXT(2) 
PARAMETRIC_REPRESENTATION_CONTEXT() REPRESENTATION_CONTEXT('2D SPACE',''
  ) );
#317 = ORIENTED_EDGE('',*,*,#318,.T.);
#318 = EDGE_CURVE('',#295,#319,#321,.T.);
#319 = VERTEX_POINT('',#320);
#320 = CARTESIAN_POINT('',(-19.09869105462,3.2,35.));
#321 = SURFACE_CURVE('',#322,(#327,#339),.PCURVE_S1.);
#322 = CIRCLE('',#323,39.871794542007);
#323 = AXIS2_PLACEMENT_3D('',#324,#325,#326);
#324 = CARTESIAN_POINT('',(0.,3.2,0.));
#325 = DIRECTION('',(0.,1.,0.));
#326 = DIRECTION('',(0.,-0.,1.));
#327 = PCURVE('',#31,#328);
#328 = DEFINITIONAL_REPRESENTATION('',(#329),#338);
#329 = B_SPLINE_CURVE_WITH_KNOTS('',7,(#330,#331,#332,#333,#334,#335,
    #336,#337),.UNSPECIFIED.,.F.,.F.,(8,8),(5.564104604267,
    5.783667242534),.PIECEWISE_BEZIER_KNOTS.);
#330 = CARTESIAN_POINT('',(3.020347179691,0.848062078981));
#331 = CARTESIAN_POINT('',(3.016045544329,0.879197904392));
#332 = CARTESIAN_POINT('',(3.011251787005,0.910314692746));
#333 = CARTESIAN_POINT('',(3.005879331768,0.941408874604));
#334 = CARTESIAN_POINT('',(2.999817098189,0.972475892052));
#335 = CARTESIAN_POINT('',(2.992910762428,1.003509419626));
#336 = CARTESIAN_POINT('',(2.984951916921,1.03450094117));
#337 = CARTESIAN_POINT('',(2.975583911022,1.065435816511));
#338 = ( GEOMETRIC_REPRESENTATION_CONTEXT(2) 
PARAMETRIC_REPRESENTATION_CONTEXT() REPRESENTATION_CONTEXT('2D SPACE',''
  ) );
#339 = PCURVE('',#340,#345);
#340 = PLANE('',#341);
#341 = AXIS2_PLACEMENT_3D('',#342,#343,#344);
#342 = CARTESIAN_POINT('',(-80.,3.2,30.));
#343 = DIRECTION('',(0.,1.,0.));
#344 = DIRECTION('',(0.,0.,1.));
#345 = DEFINITIONAL_REPRESENTATION('',(#346),#350);
#346 = CIRCLE('',#347,39.871794542007);
#347 = AXIS2_PLACEMENT_2D('',#348,#349);
#348 = CARTESIAN_POINT('',(-30.,80.));
#349 = DIRECTION('',(1.,0.));
#350 = ( GEOMETRIC_REPRESENTATION_CONTEXT(2) 
PARAMETRIC_REPRESENTATION_CONTEXT() REPRESENTATION_CONTEXT('2D SPACE',''
  ) );
#351 = ORIENTED_EDGE('',*,*,#352,.F.);
#352 = EDGE_CURVE('',#353,#319,#355,.T.);
#353 = VERTEX_POINT('',#354);
#354 = CARTESIAN_POINT('',(19.098691054625,3.2,35.));
#355 = SURFACE_CURVE('',#356,(#361,#368),.PCURVE_S1.);
#356 = CIRCLE('',#357,19.364916731037);
#357 = AXIS2_PLACEMENT_3D('',#358,#359,#360);
#358 = CARTESIAN_POINT('',(0.,0.,35.));
#359 = DIRECTION('',(0.,0.,1.));
#360 = DIRECTION('',(1.,0.,-0.));
#361 = PCURVE('',#31,#362);
#362 = DEFINITIONAL_REPRESENTATION('',(#363),#367);
#363 = LINE('',#364,#365);
#364 = CARTESIAN_POINT('',(0.,1.065435816511));
#365 = VECTOR('',#366,1.);
#366 = DIRECTION('',(1.,0.));
#367 = ( GEOMETRIC_REPRESENTATION_CONTEXT(2) 
PARAMETRIC_REPRESENTATION_CONTEXT() REPRESENTATION_CONTEXT('2D SPACE',''
  ) );
#368 = PCURVE('',#369,#374);
#369 = PLANE('',#370);
#370 = AXIS2_PLACEMENT_3D('',#371,#372,#373);
#371 = CARTESIAN_POINT('',(-80.,-80.,35.));
#372 = DIRECTION('',(0.,0.,1.));
#373 = DIRECTION('',(1.,0.,0.));
#374 = DEFINITIONAL_REPRESENTATION('',(#375),#379);
#375 = CIRCLE('',#376,19.364916731037);
#376 = AXIS2_PLACEMENT_2D('',#377,#378);
#377 = CARTESIAN_POINT('',(80.,80.));
#378 = DIRECTION('',(1.,0.));
#379 = ( GEOMETRIC_REPRESENTATION_CONTEXT(2) 
PARAMETRIC_REPRESENTATION_CONTEXT() REPRESENTATION_CONTEXT('2D SPACE',''
  ) );
#380 = ORIENTED_EDGE('',*,*,#381,.T.);
#381 = EDGE_CURVE('',#353,#382,#384,.T.);
#382 = VERTEX_POINT('',#383);
#383 = CARTESIAN_POINT('',(26.263282353887,3.2,30.));
#384 = SURFACE_CURVE('',#385,(#390,#402),.PCURVE_S1.);
#385 = CIRCLE('',#386,39.871794542007);
#386 = AXIS2_PLACEMENT_3D('',#387,#388,#389);
#387 = CARTESIAN_POINT('',(0.,3.2,0.));
#388 = DIRECTION('',(0.,1.,0.));
#389 = DIRECTION('',(0.,-0.,1.));
#390 = PCURVE('',#31,#391);
#391 = DEFINITIONAL_REPRESENTATION('',(#392),#401);
#392 = B_SPLINE_CURVE_WITH_KNOTS('',7,(#393,#394,#395,#396,#397,#398,
    #399,#400),.UNSPECIFIED.,.F.,.F.,(8,8),(0.499518064646,
    0.719080702912),.PIECEWISE_BEZIER_KNOTS.);
#393 = CARTESIAN_POINT('',(0.166008742568,1.065435816511));
#394 = CARTESIAN_POINT('',(0.156640736669,1.03450094117));
#395 = CARTESIAN_POINT('',(0.148681891161,1.003509419626));
#396 = CARTESIAN_POINT('',(0.141775555402,0.972475892052));
#397 = CARTESIAN_POINT('',(0.135713321823,0.941408874603));
#398 = CARTESIAN_POINT('',(0.130340866585,0.910314692746));
#399 = CARTESIAN_POINT('',(0.125547109261,0.879197904392));
#400 = CARTESIAN_POINT('',(0.121245473899,0.848062078981));
#401 = ( GEOMETRIC_REPRESENTATION_CONTEXT(2) 
PARAMETRIC_REPRESENTATION_CONTEXT() REPRESENTATION_CONTEXT('2D SPACE',''
  ) );
#402 = PCURVE('',#340,#403);
#403 = DEFINITIONAL_REPRESENTATION('',(#404),#408);
#404 = CIRCLE('',#405,39.871794542007);
#405 = AXIS2_PLACEMENT_2D('',#406,#407);
#406 = CARTESIAN_POINT('',(-30.,80.));
#407 = DIRECTION('',(1.,0.));
#408 = ( GEOMETRIC_REPRESENTATION_CONTEXT(2) 
PARAMETRIC_REPRESENTATION_CONTEXT() REPRESENTATION_CONTEXT('2D SPACE',''
  ) );
#409 = ORIENTED_EDGE('',*,*,#410,.F.);
#410 = EDGE_CURVE('',#150,#382,#411,.T.);
#411 = SURFACE_CURVE('',#412,(#417,#424),.PCURVE_S1.);
#412 = CIRCLE('',#413,26.457513110646);
#413 = AXIS2_PLACEMENT_3D('',#414,#415,#416);
#414 = CARTESIAN_POINT('',(0.,0.,30.));
#415 = DIRECTION('',(0.,0.,1.));
#416 = DIRECTION('',(1.,0.,-0.));
#417 = PCURVE('',#31,#418);
#418 = DEFINITIONAL_REPRESENTATION('',(#419),#423);
#419 = LINE('',#420,#421);
#420 = CARTESIAN_POINT('',(0.,0.848062078981));
#421 = VECTOR('',#422,1.);
#422 = DIRECTION('',(1.,0.));
#423 = ( GEOMETRIC_REPRESENTATION_CONTEXT(2) 
PARAMETRIC_REPRESENTATION_CONTEXT() REPRESENTATION_CONTEXT('2D SPACE',''
  ) );
#424 = PCURVE('',#190,#425);
#425 = DEFINITIONAL_REPRESENTATION('',(#426),#430);
#426 = CIRCLE('',#427,26.457513110646);
#427 = AXIS2_PLACEMENT_2D('',#428,#429);
#428 = CARTESIAN_POINT('',(80.,3.2));
#429 = DIRECTION('',(1.,0.));
#430 = ( GEOMETRIC_REPRESENTATION_CONTEXT(2) 
PARAMETRIC_REPRESENTATION_CONTEXT() REPRESENTATION_CONTEXT('2D SPACE',''
  ) );
#431 = ORIENTED_EDGE('',*,*,#149,.F.);
#432 = ORIENTED_EDGE('',*,*,#433,.T.);
#433 = EDGE_CURVE('',#80,#434,#436,.T.);
#434 = VERTEX_POINT('',#435);
#435 = CARTESIAN_POINT('',(33.071891388307,22.5,0.));
#436 = SURFACE_CURVE('',#437,(#442,#469),.PCURVE_S1.);
#437 = CIRCLE('',#438,22.5);
#438 = AXIS2_PLACEMENT_3D('',#439,#440,#441);
#439 = CARTESIAN_POINT('',(33.071891388307,0.,0.));
#440 = DIRECTION('',(-1.,-0.,-0.));
#441 = DIRECTION('',(0.,0.,-1.));
#442 = PCURVE('',#31,#443);
#443 = DEFINITIONAL_REPRESENTATION('',(#444),#468);
#444 = B_SPLINE_CURVE_WITH_KNOTS('',8,(#445,#446,#447,#448,#449,#450,
    #451,#452,#453,#454,#455,#456,#457,#458,#459,#460,#461,#462,#463,
    #464,#465,#466,#467),.UNSPECIFIED.,.F.,.F.,(9,7,7,9),(3.14159265359,
    3.534291735289,4.123340357837,4.712388980385),.UNSPECIFIED.);
#445 = CARTESIAN_POINT('',(0.,0.597406416645));
#446 = CARTESIAN_POINT('',(3.339591782973E-02,0.597406416645));
#447 = CARTESIAN_POINT('',(6.679181827679E-02,0.595532907469));
#448 = CARTESIAN_POINT('',(9.995168563923E-02,0.591785907753));
#449 = CARTESIAN_POINT('',(0.132639052814,0.586188359728));
#450 = CARTESIAN_POINT('',(0.164632857317,0.578786394078));
#451 = CARTESIAN_POINT('',(0.195740309275,0.569645793712));
#452 = CARTESIAN_POINT('',(0.225803814075,0.55884674655));
#453 = CARTESIAN_POINT('',(0.298041759719,0.527927323804));
#454 = CARTESIAN_POINT('',(0.338755828274,0.505846055712));
#455 = CARTESIAN_POINT('',(0.376421869674,0.480537966813));
#456 = CARTESIAN_POINT('',(0.410790791692,0.452354590679));
#457 = CARTESIAN_POINT('',(0.441780805992,0.421658431808));
#458 = CARTESIAN_POINT('',(0.469402914501,0.388794357529));
#459 = CARTESIAN_POINT('',(0.493716941491,0.354085507964));
#460 = CARTESIAN_POINT('',(0.535884859564,0.281579282629));
#461 = CARTESIAN_POINT('',(0.553738743271,0.243781903827));
#462 = CARTESIAN_POINT('',(0.568440628737,0.204740890954));
#463 = CARTESIAN_POINT('',(0.580086711994,0.164734278715));
#464 = CARTESIAN_POINT('',(0.588761619676,0.124018570263));
#465 = CARTESIAN_POINT('',(0.594524791158,8.283495453108E-02));
#466 = CARTESIAN_POINT('',(0.597406416645,4.141748127291E-02));
#467 = CARTESIAN_POINT('',(0.597406416645,1.033295736781E-16));
#468 = ( GEOMETRIC_REPRESENTATION_CONTEXT(2) 
PARAMETRIC_REPRESENTATION_CONTEXT() REPRESENTATION_CONTEXT('2D SPACE',''
  ) );
#469 = PCURVE('',#137,#470);
#470 = DEFINITIONAL_REPRESENTATION('',(#471),#475);
#471 = LINE('',#472,#473);
#472 = CARTESIAN_POINT('',(-4.712388980385,-33.0718913883));
#473 = VECTOR('',#474,1.);
#474 = DIRECTION('',(1.,-0.));
#475 = ( GEOMETRIC_REPRESENTATION_CONTEXT(2) 
PARAMETRIC_REPRESENTATION_CONTEXT() REPRESENTATION_CONTEXT('2D SPACE',''
  ) );
#476 = ORIENTED_EDGE('',*,*,#477,.T.);
#477 = EDGE_CURVE('',#434,#56,#478,.T.);
#478 = SURFACE_CURVE('',#479,(#484,#511),.PCURVE_S1.);
#479 = CIRCLE('',#480,22.5);
#480 = AXIS2_PLACEMENT_3D('',#481,#482,#483);
#481 = CARTESIAN_POINT('',(33.071891388307,0.,0.));
#482 = DIRECTION('',(-1.,-0.,-0.));
#483 = DIRECTION('',(0.,0.,-1.));
#484 = PCURVE('',#31,#485);
#485 = DEFINITIONAL_REPRESENTATION('',(#486),#510);
#486 = B_SPLINE_CURVE_WITH_KNOTS('',8,(#487,#488,#489,#490,#491,#492,
    #493,#494,#495,#496,#497,#498,#499,#500,#501,#502,#503,#504,#505,
    #506,#507,#508,#509),.UNSPECIFIED.,.F.,.F.,(9,7,7,9),(4.712388980385
    ,5.497787143782,5.890486225481,6.28318530718),.UNSPECIFIED.);
#487 = CARTESIAN_POINT('',(0.597406416645,1.033295736781E-16));
#488 = CARTESIAN_POINT('',(0.597406416645,-5.522330836388E-02));
#489 = CARTESIAN_POINT('',(0.592283509467,-0.110446622443));
#490 = CARTESIAN_POINT('',(0.582038020314,-0.16511545264));
#491 = CARTESIAN_POINT('',(0.566574008484,-0.218675611876));
#492 = CARTESIAN_POINT('',(0.545705468697,-0.270540299168));
#493 = CARTESIAN_POINT('',(0.519174820727,-0.320062318545));
#494 = CARTESIAN_POINT('',(0.486742422863,-0.366500340843));
#495 = CARTESIAN_POINT('',(0.429212947319,-0.430340656806));
#496 = CARTESIAN_POINT('',(0.408556300978,-0.450651312525));
#497 = CARTESIAN_POINT('',(0.3864170526,-0.469893277292));
#498 = CARTESIAN_POINT('',(0.362806517229,-0.487964099003));
#499 = CARTESIAN_POINT('',(0.337755328678,-0.504759231589));
#500 = CARTESIAN_POINT('',(0.311321043926,-0.520174721741));
#501 = CARTESIAN_POINT('',(0.28359417059,-0.534111208353));
#502 = CARTESIAN_POINT('',(0.225803814075,-0.55884674655));
#503 = CARTESIAN_POINT('',(0.195740309275,-0.569645793712));
#504 = CARTESIAN_POINT('',(0.164632857317,-0.578786394078));
#505 = CARTESIAN_POINT('',(0.132639052814,-0.586188359728));
#506 = CARTESIAN_POINT('',(9.995168563923E-02,-0.591785907753));
#507 = CARTESIAN_POINT('',(6.679181827679E-02,-0.595532907469));
#508 = CARTESIAN_POINT('',(3.339591782973E-02,-0.597406416645));
#509 = CARTESIAN_POINT('',(1.666342735424E-16,-0.597406416645));
#510 = ( GEOMETRIC_REPRESENTATION_CONTEXT(2) 
PARAMETRIC_REPRESENTATION_CONTEXT() REPRESENTATION_CONTEXT('2D SPACE',''
  ) );
#511 = PCURVE('',#137,#512);
#512 = DEFINITIONAL_REPRESENTATION('',(#513),#517);
#513 = LINE('',#514,#515);
#514 = CARTESIAN_POINT('',(-10.99557428756,-33.0718913883));
#515 = VECTOR('',#516,1.);
#516 = DIRECTION('',(1.,-0.));
#517 = ( GEOMETRIC_REPRESENTATION_CONTEXT(2) 
PARAMETRIC_REPRESENTATION_CONTEXT() REPRESENTATION_CONTEXT('2D SPACE',''
  ) );
#518 = ORIENTED_EDGE('',*,*,#55,.F.);
#519 = FACE_BOUND('',#520,.T.);
#520 = EDGE_LOOP('',(#521));
#521 = ORIENTED_EDGE('',*,*,#522,.T.);
#522 = EDGE_CURVE('',#523,#523,#525,.T.);
#523 = VERTEX_POINT('',#524);
#524 = CARTESIAN_POINT('',(-33.0718913883,22.5,0.));
#525 = SURFACE_CURVE('',#526,(#531,#614),.PCURVE_S1.);
#526 = CIRCLE('',#527,22.5);
#527 = AXIS2_PLACEMENT_3D('',#528,#529,#530);
#528 = CARTESIAN_POINT('',(-33.0718913883,0.,0.));
#529 = DIRECTION('',(1.,0.,0.));
#530 = DIRECTION('',(-0.,0.,1.));
#531 = PCURVE('',#31,#532);
#532 = DEFINITIONAL_REPRESENTATION('',(#533),#613);
#533 = B_SPLINE_CURVE_WITH_KNOTS('',8,(#534,#535,#536,#537,#538,#539,
    #540,#541,#542,#543,#544,#545,#546,#547,#548,#549,#550,#551,#552,
    #553,#554,#555,#556,#557,#558,#559,#560,#561,#562,#563,#564,#565,
    #566,#567,#568,#569,#570,#571,#572,#573,#574,#575,#576,#577,#578,
    #579,#580,#581,#582,#583,#584,#585,#586,#587,#588,#589,#590,#591,
    #592,#593,#594,#595,#596,#597,#598,#599,#600,#601,#602,#603,#604,
    #605,#606,#607,#608,#609,#610,#611,#612),.UNSPECIFIED.,.F.,.F.,(9,7,
    7,7,7,7,7,7,7,7,7,9),(4.712388980385,5.497787143782,5.841398840269,
    6.163534805725,6.767539740955,7.296044059281,8.220926616352,
    8.914588534155,9.434834972507,9.825019801271,10.410297044418,
    10.995574287564),.UNSPECIFIED.);
#534 = CARTESIAN_POINT('',(2.544186236944,-1.033295736781E-16));
#535 = CARTESIAN_POINT('',(2.544186236944,5.522330836388E-02));
#536 = CARTESIAN_POINT('',(2.549309144125,0.110446622443));
#537 = CARTESIAN_POINT('',(2.559554633253,0.16511545264));
#538 = CARTESIAN_POINT('',(2.575018645128,0.218675611876));
#539 = CARTESIAN_POINT('',(2.595887184867,0.270540299168));
#540 = CARTESIAN_POINT('',(2.622417832865,0.320062318545));
#541 = CARTESIAN_POINT('',(2.654850230727,0.366500340843));
#542 = CARTESIAN_POINT('',(2.70998264479,0.427680643641));
#543 = CARTESIAN_POINT('',(2.727895320235,0.445558499769));
#544 = CARTESIAN_POINT('',(2.746942870963,0.46262764209));
#545 = CARTESIAN_POINT('',(2.767118887594,0.47881969268));
#546 = CARTESIAN_POINT('',(2.788406013432,0.49406498377));
#547 = CARTESIAN_POINT('',(2.810772207384,0.508293814664));
#548 = CARTESIAN_POINT('',(2.834167508708,0.521438313639));
#549 = CARTESIAN_POINT('',(2.88135556553,0.544681628323));
#550 = CARTESIAN_POINT('',(2.905032098786,0.554919439081));
#551 = CARTESIAN_POINT('',(2.929495125654,0.564095937012));
#552 = CARTESIAN_POINT('',(2.954672750613,0.572161850625));
#553 = CARTESIAN_POINT('',(2.980477072734,0.579073042053));
#554 = CARTESIAN_POINT('',(3.006804983773,0.584792318355));
#555 = CARTESIAN_POINT('',(3.03354098315,0.589291007434));
#556 = CARTESIAN_POINT('',(3.111226434838,0.598661469394));
#557 = CARTESIAN_POINT('',(3.162892935643,0.600415310217));
#558 = CARTESIAN_POINT('',(3.214749909732,0.597687574085));
#559 = CARTESIAN_POINT('',(3.265893383836,0.590472548583));
#560 = CARTESIAN_POINT('',(3.315424646124,0.578909542501));
#561 = CARTESIAN_POINT('',(3.362646244212,0.56326291675));
#562 = CARTESIAN_POINT('',(3.407069202349,0.543860026318));
#563 = CARTESIAN_POINT('',(3.484528491491,0.501108037791));
#564 = CARTESIAN_POINT('',(3.518294049522,0.478555370045));
#565 = CARTESIAN_POINT('',(3.549468029911,0.453640694903));
#566 = CARTESIAN_POINT('',(3.577944345605,0.426621219868));
#567 = CARTESIAN_POINT('',(3.603703118823,0.397752294718));
#568 = CARTESIAN_POINT('',(3.626771463572,0.367276067381));
#569 = CARTESIAN_POINT('',(3.647200826844,0.335419816179));
#570 = CARTESIAN_POINT('',(3.696287265557,0.244605319581));
#571 = CARTESIAN_POINT('',(3.719623640335,0.183239687093));
#572 = CARTESIAN_POINT('',(3.73537688778,0.119440506101));
#573 = CARTESIAN_POINT('',(3.743940074139,5.421223604175E-02));
#574 = CARTESIAN_POINT('',(3.745511901665,-1.155674462176E-02));
#575 = CARTESIAN_POINT('',(3.740100394138,-7.700480106032E-02));
#576 = CARTESIAN_POINT('',(3.727491211844,-0.141224389209));
#577 = CARTESIAN_POINT('',(3.69230083196,-0.249683596579));
#578 = CARTESIAN_POINT('',(3.673000679384,-0.294904492295));
#579 = CARTESIAN_POINT('',(3.649354978743,-0.338436067863));
#580 = CARTESIAN_POINT('',(3.621207287397,-0.37981681599));
#581 = CARTESIAN_POINT('',(3.588411510125,-0.418540996065));
#582 = CARTESIAN_POINT('',(3.550874640552,-0.454048193694));
#583 = CARTESIAN_POINT('',(3.508716955344,-0.485746144481));
#584 = CARTESIAN_POINT('',(3.427585681263,-0.533587984415));
#585 = CARTESIAN_POINT('',(3.390450910572,-0.551639263084));
#586 = CARTESIAN_POINT('',(3.351127953907,-0.567005808965));
#587 = CARTESIAN_POINT('',(3.309886884106,-0.579468447857));
#588 = CARTESIAN_POINT('',(3.267108418206,-0.588836693881));
#589 = CARTESIAN_POINT('',(3.223291383386,-0.594974101706));
#590 = CARTESIAN_POINT('',(3.17898922062,-0.597816944012));
#591 = CARTESIAN_POINT('',(3.1015718586,-0.597038312218));
#592 = CARTESIAN_POINT('',(3.068428822001,-0.594855240948));
#593 = CARTESIAN_POINT('',(3.0355530379,-0.590825702344));
#594 = CARTESIAN_POINT('',(3.003174909926,-0.584974941166));
#595 = CARTESIAN_POINT('',(2.971508478915,-0.577350545804));
#596 = CARTESIAN_POINT('',(2.94073942321,-0.568018860065));
#597 = CARTESIAN_POINT('',(2.911018903653,-0.557059838336));
#598 = CARTESIAN_POINT('',(2.83963602183,-0.525816190368));
#599 = CARTESIAN_POINT('',(2.799432833217,-0.503608526032));
#600 = CARTESIAN_POINT('',(2.762256818112,-0.478239386128));
#601 = CARTESIAN_POINT('',(2.728342927692,-0.45005444771));
#602 = CARTESIAN_POINT('',(2.697765830684,-0.419408703531));
#603 = CARTESIAN_POINT('',(2.670511809129,-0.38663960263));
#604 = CARTESIAN_POINT('',(2.646520739709,-0.352063257036));
#605 = CARTESIAN_POINT('',(2.604910340647,-0.279884232947));
#606 = CARTESIAN_POINT('',(2.587291017596,-0.24228155153));
#607 = CARTESIAN_POINT('',(2.572780421978,-0.203459891688));
#608 = CARTESIAN_POINT('',(2.561284493221,-0.163691436202));
#609 = CARTESIAN_POINT('',(2.552720693106,-0.123227507278));
#610 = CARTESIAN_POINT('',(2.547031081075,-8.230460475012E-02));
#611 = CARTESIAN_POINT('',(2.544186236944,-4.115230615873E-02));
#612 = CARTESIAN_POINT('',(2.544186236944,-2.411023385821E-16));
#613 = ( GEOMETRIC_REPRESENTATION_CONTEXT(2) 
PARAMETRIC_REPRESENTATION_CONTEXT() REPRESENTATION_CONTEXT('2D SPACE',''
  ) );
#614 = PCURVE('',#615,#620);
#615 = CYLINDRICAL_SURFACE('',#616,22.5);
#616 = AXIS2_PLACEMENT_3D('',#617,#618,#619);
#617 = CARTESIAN_POINT('',(0.,0.,0.));
#618 = DIRECTION('',(1.,0.,0.));
#619 = DIRECTION('',(0.,1.,0.));
#620 = DEFINITIONAL_REPRESENTATION('',(#621),#625);
#621 = LINE('',#622,#623);
#622 = CARTESIAN_POINT('',(-4.712388980385,-33.0718913883));
#623 = VECTOR('',#624,1.);
#624 = DIRECTION('',(1.,0.));
#625 = ( GEOMETRIC_REPRESENTATION_CONTEXT(2) 
PARAMETRIC_REPRESENTATION_CONTEXT() REPRESENTATION_CONTEXT('2D SPACE',''
  ) );
#626 = ADVANCED_FACE('',(#627),#43,.F.);
#627 = FACE_BOUND('',#628,.F.);
#628 = EDGE_LOOP('',(#629));
#629 = ORIENTED_EDGE('',*,*,#21,.T.);
#630 = ADVANCED_FACE('',(#631),#137,.F.);
#631 = FACE_BOUND('',#632,.T.);
#632 = EDGE_LOOP('',(#633,#656,#677,#678,#679,#680));
#633 = ORIENTED_EDGE('',*,*,#634,.F.);
#634 = EDGE_CURVE('',#635,#635,#637,.T.);
#635 = VERTEX_POINT('',#636);
#636 = CARTESIAN_POINT('',(0.,22.5,0.));
#637 = SURFACE_CURVE('',#638,(#643,#650),.PCURVE_S1.);
#638 = CIRCLE('',#639,22.5);
#639 = AXIS2_PLACEMENT_3D('',#640,#641,#642);
#640 = CARTESIAN_POINT('',(0.,0.,0.));
#641 = DIRECTION('',(1.,0.,0.));
#642 = DIRECTION('',(0.,1.,0.));
#643 = PCURVE('',#137,#644);
#644 = DEFINITIONAL_REPRESENTATION('',(#645),#649);
#645 = LINE('',#646,#647);
#646 = CARTESIAN_POINT('',(-0.,0.));
#647 = VECTOR('',#648,1.);
#648 = DIRECTION('',(-1.,0.));
#649 = ( GEOMETRIC_REPRESENTATION_CONTEXT(2) 
PARAMETRIC_REPRESENTATION_CONTEXT() REPRESENTATION_CONTEXT('2D SPACE',''
  ) );
#650 = PCURVE('',#615,#651);
#651 = DEFINITIONAL_REPRESENTATION('',(#652),#655);
#652 = B_SPLINE_CURVE_WITH_KNOTS('',1,(#653,#654),.UNSPECIFIED.,.F.,.F.,
  (2,2),(0.,6.28318530718),.PIECEWISE_BEZIER_KNOTS.);
#653 = CARTESIAN_POINT('',(0.,0.));
#654 = CARTESIAN_POINT('',(6.28318530718,0.));
#655 = ( GEOMETRIC_REPRESENTATION_CONTEXT(2) 
PARAMETRIC_REPRESENTATION_CONTEXT() REPRESENTATION_CONTEXT('2D SPACE',''
  ) );
#656 = ORIENTED_EDGE('',*,*,#657,.T.);
#657 = EDGE_CURVE('',#635,#434,#658,.T.);
#658 = SEAM_CURVE('',#659,(#663,#670),.PCURVE_S1.);
#659 = LINE('',#660,#661);
#660 = CARTESIAN_POINT('',(0.,22.5,0.));
#661 = VECTOR('',#662,1.);
#662 = DIRECTION('',(1.,0.,0.));
#663 = PCURVE('',#137,#664);
#664 = DEFINITIONAL_REPRESENTATION('',(#665),#669);
#665 = LINE('',#666,#667);
#666 = CARTESIAN_POINT('',(-6.28318530718,0.));
#667 = VECTOR('',#668,1.);
#668 = DIRECTION('',(-0.,-1.));
#669 = ( GEOMETRIC_REPRESENTATION_CONTEXT(2) 
PARAMETRIC_REPRESENTATION_CONTEXT() REPRESENTATION_CONTEXT('2D SPACE',''
  ) );
#670 = PCURVE('',#137,#671);
#671 = DEFINITIONAL_REPRESENTATION('',(#672),#676);
#672 = LINE('',#673,#674);
#673 = CARTESIAN_POINT('',(-0.,0.));
#674 = VECTOR('',#675,1.);
#675 = DIRECTION('',(-0.,-1.));
#676 = ( GEOMETRIC_REPRESENTATION_CONTEXT(2) 
PARAMETRIC_REPRESENTATION_CONTEXT() REPRESENTATION_CONTEXT('2D SPACE',''
  ) );
#677 = ORIENTED_EDGE('',*,*,#433,.F.);
#678 = ORIENTED_EDGE('',*,*,#79,.F.);
#679 = ORIENTED_EDGE('',*,*,#477,.F.);
#680 = ORIENTED_EDGE('',*,*,#657,.F.);
#681 = ADVANCED_FACE('',(#682),#190,.T.);
#682 = FACE_BOUND('',#683,.T.);
#683 = EDGE_LOOP('',(#684,#705,#706,#727,#728));
#684 = ORIENTED_EDGE('',*,*,#685,.F.);
#685 = EDGE_CURVE('',#295,#382,#686,.T.);
#686 = SURFACE_CURVE('',#687,(#691,#698),.PCURVE_S1.);
#687 = LINE('',#688,#689);
#688 = CARTESIAN_POINT('',(-80.,3.2,30.));
#689 = VECTOR('',#690,1.);
#690 = DIRECTION('',(1.,0.,0.));
#691 = PCURVE('',#190,#692);
#692 = DEFINITIONAL_REPRESENTATION('',(#693),#697);
#693 = LINE('',#694,#695);
#694 = CARTESIAN_POINT('',(0.,6.4));
#695 = VECTOR('',#696,1.);
#696 = DIRECTION('',(1.,0.));
#697 = ( GEOMETRIC_REPRESENTATION_CONTEXT(2) 
PARAMETRIC_REPRESENTATION_CONTEXT() REPRESENTATION_CONTEXT('2D SPACE',''
  ) );
#698 = PCURVE('',#340,#699);
#699 = DEFINITIONAL_REPRESENTATION('',(#700),#704);
#700 = LINE('',#701,#702);
#701 = CARTESIAN_POINT('',(0.,0.));
#702 = VECTOR('',#703,1.);
#703 = DIRECTION('',(0.,1.));
#704 = ( GEOMETRIC_REPRESENTATION_CONTEXT(2) 
PARAMETRIC_REPRESENTATION_CONTEXT() REPRESENTATION_CONTEXT('2D SPACE',''
  ) );
#705 = ORIENTED_EDGE('',*,*,#294,.T.);
#706 = ORIENTED_EDGE('',*,*,#707,.T.);
#707 = EDGE_CURVE('',#266,#174,#708,.T.);
#708 = SURFACE_CURVE('',#709,(#713,#720),.PCURVE_S1.);
#709 = LINE('',#710,#711);
#710 = CARTESIAN_POINT('',(-80.,-3.2,30.));
#711 = VECTOR('',#712,1.);
#712 = DIRECTION('',(1.,0.,0.));
#713 = PCURVE('',#190,#714);
#714 = DEFINITIONAL_REPRESENTATION('',(#715),#719);
#715 = LINE('',#716,#717);
#716 = CARTESIAN_POINT('',(0.,0.));
#717 = VECTOR('',#718,1.);
#718 = DIRECTION('',(1.,0.));
#719 = ( GEOMETRIC_REPRESENTATION_CONTEXT(2) 
PARAMETRIC_REPRESENTATION_CONTEXT() REPRESENTATION_CONTEXT('2D SPACE',''
  ) );
#720 = PCURVE('',#224,#721);
#721 = DEFINITIONAL_REPRESENTATION('',(#722),#726);
#722 = LINE('',#723,#724);
#723 = CARTESIAN_POINT('',(0.,0.));
#724 = VECTOR('',#725,1.);
#725 = DIRECTION('',(0.,1.));
#726 = ( GEOMETRIC_REPRESENTATION_CONTEXT(2) 
PARAMETRIC_REPRESENTATION_CONTEXT() REPRESENTATION_CONTEXT('2D SPACE',''
  ) );
#727 = ORIENTED_EDGE('',*,*,#173,.T.);
#728 = ORIENTED_EDGE('',*,*,#410,.T.);
#729 = ADVANCED_FACE('',(#730),#340,.F.);
#730 = FACE_BOUND('',#731,.F.);
#731 = EDGE_LOOP('',(#732,#733,#734,#753));
#732 = ORIENTED_EDGE('',*,*,#685,.F.);
#733 = ORIENTED_EDGE('',*,*,#318,.T.);
#734 = ORIENTED_EDGE('',*,*,#735,.F.);
#735 = EDGE_CURVE('',#353,#319,#736,.T.);
#736 = SURFACE_CURVE('',#737,(#741,#747),.PCURVE_S1.);
#737 = LINE('',#738,#739);
#738 = CARTESIAN_POINT('',(-80.,3.2,35.));
#739 = VECTOR('',#740,1.);
#740 = DIRECTION('',(-1.,0.,0.));
#741 = PCURVE('',#340,#742);
#742 = DEFINITIONAL_REPRESENTATION('',(#743),#746);
#743 = B_SPLINE_CURVE_WITH_KNOTS('',1,(#744,#745),.UNSPECIFIED.,.F.,.F.,
  (2,2),(-99.36491673103,-60.63508326896),.PIECEWISE_BEZIER_KNOTS.);
#744 = CARTESIAN_POINT('',(5.,99.364916731037));
#745 = CARTESIAN_POINT('',(5.,60.635083268963));
#746 = ( GEOMETRIC_REPRESENTATION_CONTEXT(2) 
PARAMETRIC_REPRESENTATION_CONTEXT() REPRESENTATION_CONTEXT('2D SPACE',''
  ) );
#747 = PCURVE('',#369,#748);
#748 = DEFINITIONAL_REPRESENTATION('',(#749),#752);
#749 = B_SPLINE_CURVE_WITH_KNOTS('',1,(#750,#751),.UNSPECIFIED.,.F.,.F.,
  (2,2),(-99.36491673103,-60.63508326896),.PIECEWISE_BEZIER_KNOTS.);
#750 = CARTESIAN_POINT('',(99.364916731037,83.2));
#751 = CARTESIAN_POINT('',(60.635083268963,83.2));
#752 = ( GEOMETRIC_REPRESENTATION_CONTEXT(2) 
PARAMETRIC_REPRESENTATION_CONTEXT() REPRESENTATION_CONTEXT('2D SPACE',''
  ) );
#753 = ORIENTED_EDGE('',*,*,#381,.T.);
#754 = ADVANCED_FACE('',(#755),#369,.T.);
#755 = FACE_BOUND('',#756,.T.);
#756 = EDGE_LOOP('',(#757,#758));
#757 = ORIENTED_EDGE('',*,*,#735,.F.);
#758 = ORIENTED_EDGE('',*,*,#352,.T.);
#759 = ADVANCED_FACE('',(#760),#224,.T.);
#760 = FACE_BOUND('',#761,.T.);
#761 = EDGE_LOOP('',(#762,#763,#764,#783));
#762 = ORIENTED_EDGE('',*,*,#707,.F.);
#763 = ORIENTED_EDGE('',*,*,#265,.T.);
#764 = ORIENTED_EDGE('',*,*,#765,.F.);
#765 = EDGE_CURVE('',#203,#237,#766,.T.);
#766 = SURFACE_CURVE('',#767,(#771,#777),.PCURVE_S1.);
#767 = LINE('',#768,#769);
#768 = CARTESIAN_POINT('',(-80.,-3.2,35.));
#769 = VECTOR('',#770,1.);
#770 = DIRECTION('',(-1.,0.,0.));
#771 = PCURVE('',#224,#772);
#772 = DEFINITIONAL_REPRESENTATION('',(#773),#776);
#773 = B_SPLINE_CURVE_WITH_KNOTS('',1,(#774,#775),.UNSPECIFIED.,.F.,.F.,
  (2,2),(-99.36491673103,-60.63508326896),.PIECEWISE_BEZIER_KNOTS.);
#774 = CARTESIAN_POINT('',(5.,99.364916731037));
#775 = CARTESIAN_POINT('',(5.,60.635083268963));
#776 = ( GEOMETRIC_REPRESENTATION_CONTEXT(2) 
PARAMETRIC_REPRESENTATION_CONTEXT() REPRESENTATION_CONTEXT('2D SPACE',''
  ) );
#777 = PCURVE('',#253,#778);
#778 = DEFINITIONAL_REPRESENTATION('',(#779),#782);
#779 = B_SPLINE_CURVE_WITH_KNOTS('',1,(#780,#781),.UNSPECIFIED.,.F.,.F.,
  (2,2),(-99.36491673103,-60.63508326896),.PIECEWISE_BEZIER_KNOTS.);
#780 = CARTESIAN_POINT('',(99.364916731037,76.8));
#781 = CARTESIAN_POINT('',(60.635083268963,76.8));
#782 = ( GEOMETRIC_REPRESENTATION_CONTEXT(2) 
PARAMETRIC_REPRESENTATION_CONTEXT() REPRESENTATION_CONTEXT('2D SPACE',''
  ) );
#783 = ORIENTED_EDGE('',*,*,#202,.T.);
#784 = ADVANCED_FACE('',(#785),#253,.T.);
#785 = FACE_BOUND('',#786,.T.);
#786 = EDGE_LOOP('',(#787,#788));
#787 = ORIENTED_EDGE('',*,*,#236,.T.);
#788 = ORIENTED_EDGE('',*,*,#765,.T.);
#789 = ADVANCED_FACE('',(#790),#615,.F.);
#790 = FACE_BOUND('',#791,.F.);
#791 = EDGE_LOOP('',(#792,#793,#814,#815));
#792 = ORIENTED_EDGE('',*,*,#634,.F.);
#793 = ORIENTED_EDGE('',*,*,#794,.T.);
#794 = EDGE_CURVE('',#635,#523,#795,.T.);
#795 = SEAM_CURVE('',#796,(#800,#807),.PCURVE_S1.);
#796 = LINE('',#797,#798);
#797 = CARTESIAN_POINT('',(0.,22.5,0.));
#798 = VECTOR('',#799,1.);
#799 = DIRECTION('',(-1.,-0.,-0.));
#800 = PCURVE('',#615,#801);
#801 = DEFINITIONAL_REPRESENTATION('',(#802),#806);
#802 = LINE('',#803,#804);
#803 = CARTESIAN_POINT('',(6.28318530718,0.));
#804 = VECTOR('',#805,1.);
#805 = DIRECTION('',(0.,-1.));
#806 = ( GEOMETRIC_REPRESENTATION_CONTEXT(2) 
PARAMETRIC_REPRESENTATION_CONTEXT() REPRESENTATION_CONTEXT('2D SPACE',''
  ) );
#807 = PCURVE('',#615,#808);
#808 = DEFINITIONAL_REPRESENTATION('',(#809),#813);
#809 = LINE('',#810,#811);
#810 = CARTESIAN_POINT('',(0.,0.));
#811 = VECTOR('',#812,1.);
#812 = DIRECTION('',(0.,-1.));
#813 = ( GEOMETRIC_REPRESENTATION_CONTEXT(2) 
PARAMETRIC_REPRESENTATION_CONTEXT() REPRESENTATION_CONTEXT('2D SPACE',''
  ) );
#814 = ORIENTED_EDGE('',*,*,#522,.T.);
#815 = ORIENTED_EDGE('',*,*,#794,.F.);
#816 = ( GEOMETRIC_REPRESENTATION_CONTEXT(3) 
GLOBAL_UNCERTAINTY_ASSIGNED_CONTEXT((#820)) GLOBAL_UNIT_ASSIGNED_CONTEXT
((#817,#818,#819)) REPRESENTATION_CONTEXT('Context #1',
  '3D Context with UNIT and UNCERTAINTY') );
#817 = ( LENGTH_UNIT() NAMED_UNIT(*) SI_UNIT(.MILLI.,.METRE.) );
#818 = ( NAMED_UNIT(*) PLANE_ANGLE_UNIT() SI_UNIT($,.RADIAN.) );
#819 = ( NAMED_UNIT(*) SI_UNIT($,.STERADIAN.) SOLID_ANGLE_UNIT() );
#820 = UNCERTAINTY_MEASURE_WITH_UNIT(LENGTH_MEASURE(1.E-07),#817,
  'distance_accuracy_value','confusion accuracy');
#821 = PRODUCT_RELATED_PRODUCT_CATEGORY('part',$,(#7));
ENDSEC;
END-ISO-10303-21;
