ISO-10303-21;
HEADER;
FILE_DESCRIPTION(('Open CASCADE Model'),'2;1');
FILE_NAME('Open CASCADE Shape Model','2026-09-23T09:29:06',('Author'),(
    'Open CASCADE'),'Open CASCADE STEP processor 7.9','Open CASCADE 7.9'
  ,'Unknown');
FILE_SCHEMA(('AUTOMOTIVE_DESIGN { 1 0 10303 214 1 1 1 1 }'));
ENDSEC;
DATA;
#1 = APPLICATION_PROTOCOL_DEFINITION('international standard',
  'automotive_design',2000,#2);
#2 = APPLICATION_CONTEXT(
  'core data for automotive mechanical design processes');
#3 = SHAPE_DEFINITION_REPRESENTATION(#4,#10);
#4 = PRODUCT_DEFINITION_SHAPE('','',#5);
#5 = PRODUCT_DEFINITION('design','',#6,#9);
#6 = PRODUCT_DEFINITION_FORMATION('','',#7);
#7 = PRODUCT('Open CASCADE STEP translator 7.9 74',
  'Open CASCADE STEP translator 7.9 74','',(#8));
#8 = PRODUCT_CONTEXT('',#2,'mechanical');
#9 = PRODUCT_DEFINITION_CONTEXT('part definition',#2,'design');
#10 = ADVANCED_BREP_SHAPE_REPRESENTATION('',(#11,#15),#815);
#11 = AXIS2_PLACEMENT_3D('',#12,#13,#14);
#12 = CARTESIAN_POINT('',(0.,0.,0.));
#13 = DIRECTION('',(0.,0.,1.));
#14 = DIRECTION('',(1.,0.,-0.));
#15 = MANIFOLD_SOLID_BREP('',#16);
#16 = CLOSED_SHELL('',(#17,#157,#390,#449,#635,#662,#689,#716,#723,#758,
    #788));
#17 = ADVANCED_FACE('',(#18),#33,.F.);
#18 = FACE_BOUND('',#19,.F.);
#19 = EDGE_LOOP('',(#20,#65,#93,#131));
#20 = ORIENTED_EDGE('',*,*,#21,.F.);
#21 = EDGE_CURVE('',#22,#24,#26,.T.);
#22 = VERTEX_POINT('',#23);
#23 = CARTESIAN_POINT('',(47.892304845413,0.,287.56365519842));
#24 = VERTEX_POINT('',#25);
#25 = CARTESIAN_POINT('',(42.696152422707,9.,287.56365519842));
#26 = SURFACE_CURVE('',#27,(#32,#44),.PCURVE_S1.);
#27 = HYPERBOLA('',#28,5.196152422707,9.);
#28 = AXIS2_PLACEMENT_3D('',#29,#30,#31);
#29 = CARTESIAN_POINT('',(45.29422863406,4.5,281.56365519842));
#30 = DIRECTION('',(-0.866025403784,-0.5,0.));
#31 = DIRECTION('',(0.,0.,1.));
#32 = PCURVE('',#33,#38);
#33 = PLANE('',#34);
#34 = AXIS2_PLACEMENT_3D('',#35,#36,#37);
#35 = CARTESIAN_POINT('',(47.892304845413,0.,286.5));
#36 = DIRECTION('',(-0.866025403784,-0.5,0.));
#37 = DIRECTION('',(-0.5,0.866025403784,0.));
#38 = DEFINITIONAL_REPRESENTATION('',(#39),#43);
#39 = HYPERBOLA('',#40,5.196152422707,9.);
#40 = AXIS2_PLACEMENT_2D('',#41,#42);
#41 = CARTESIAN_POINT('',(5.196152422707,4.936344801571));
#42 = DIRECTION('',(0.,-1.));
#43 = ( GEOMETRIC_REPRESENTATION_CONTEXT(2) 
PARAMETRIC_REPRESENTATION_CONTEXT() REPRESENTATION_CONTEXT('2D SPACE',''
  ) );
#44 = PCURVE('',#45,#50);
#45 = CONICAL_SURFACE('',#46,8.55,1.047197551197);
#46 = AXIS2_PLACEMENT_3D('',#47,#48,#49);
#47 = CARTESIAN_POINT('',(37.5,0.,286.5));
#48 = DIRECTION('',(0.,0.,1.));
#49 = DIRECTION('',(1.,0.,-0.));
#50 = DEFINITIONAL_REPRESENTATION('',(#51),#64);
#51 = B_SPLINE_CURVE_WITH_KNOTS('',6,(#52,#53,#54,#55,#56,#57,#58,#59,
    #60,#61,#62,#63),.UNSPECIFIED.,.F.,.F.,(7,5,7),(-0.549306144334,
    4.415351416613E-02,0.637613172666),.UNSPECIFIED.);
#52 = CARTESIAN_POINT('',(0.,1.063655198429));
#53 = CARTESIAN_POINT('',(8.565852339707E-02,0.766925369179));
#54 = CARTESIAN_POINT('',(0.176399996717,0.540634369149));
#55 = CARTESIAN_POINT('',(0.271473631119,0.379557204619));
#56 = CARTESIAN_POINT('',(0.369594103036,0.280534594027));
#57 = CARTESIAN_POINT('',(0.468924343049,0.242173355832));
#58 = CARTESIAN_POINT('',(0.666551557548,0.287573601938));
#59 = CARTESIAN_POINT('',(0.764847329475,0.371335100476));
#60 = CARTESIAN_POINT('',(0.860894834864,0.516557367343));
#61 = CARTESIAN_POINT('',(0.953022634782,0.72543344336));
#62 = CARTESIAN_POINT('',(1.040212995396,1.001967984877));
#63 = CARTESIAN_POINT('',(1.121939452779,1.352330333024));
#64 = ( GEOMETRIC_REPRESENTATION_CONTEXT(2) 
PARAMETRIC_REPRESENTATION_CONTEXT() REPRESENTATION_CONTEXT('2D SPACE',''
  ) );
#65 = ORIENTED_EDGE('',*,*,#66,.T.);
#66 = EDGE_CURVE('',#22,#67,#69,.T.);
#67 = VERTEX_POINT('',#68);
#68 = CARTESIAN_POINT('',(47.892304845413,0.,295.43634480157));
#69 = SURFACE_CURVE('',#70,(#74,#81),.PCURVE_S1.);
#70 = LINE('',#71,#72);
#71 = CARTESIAN_POINT('',(47.892304845413,0.,286.5));
#72 = VECTOR('',#73,1.);
#73 = DIRECTION('',(0.,0.,1.));
#74 = PCURVE('',#33,#75);
#75 = DEFINITIONAL_REPRESENTATION('',(#76),#80);
#76 = LINE('',#77,#78);
#77 = CARTESIAN_POINT('',(0.,0.));
#78 = VECTOR('',#79,1.);
#79 = DIRECTION('',(0.,-1.));
#80 = ( GEOMETRIC_REPRESENTATION_CONTEXT(2) 
PARAMETRIC_REPRESENTATION_CONTEXT() REPRESENTATION_CONTEXT('2D SPACE',''
  ) );
#81 = PCURVE('',#82,#87);
#82 = PLANE('',#83);
#83 = AXIS2_PLACEMENT_3D('',#84,#85,#86);
#84 = CARTESIAN_POINT('',(42.696152422707,-9.,286.5));
#85 = DIRECTION('',(-0.866025403784,0.5,0.));
#86 = DIRECTION('',(0.5,0.866025403784,0.));
#87 = DEFINITIONAL_REPRESENTATION('',(#88),#92);
#88 = LINE('',#89,#90);
#89 = CARTESIAN_POINT('',(10.392304845413,0.));
#90 = VECTOR('',#91,1.);
#91 = DIRECTION('',(0.,-1.));
#92 = ( GEOMETRIC_REPRESENTATION_CONTEXT(2) 
PARAMETRIC_REPRESENTATION_CONTEXT() REPRESENTATION_CONTEXT('2D SPACE',''
  ) );
#93 = ORIENTED_EDGE('',*,*,#94,.F.);
#94 = EDGE_CURVE('',#95,#67,#97,.T.);
#95 = VERTEX_POINT('',#96);
#96 = CARTESIAN_POINT('',(42.696152422707,9.,295.43634480157));
#97 = SURFACE_CURVE('',#98,(#103,#110),.PCURVE_S1.);
#98 = HYPERBOLA('',#99,5.196152422707,9.);
#99 = AXIS2_PLACEMENT_3D('',#100,#101,#102);
#100 = CARTESIAN_POINT('',(45.29422863406,4.5,301.43634480157));
#101 = DIRECTION('',(-0.866025403784,-0.5,0.));
#102 = DIRECTION('',(-0.,0.,-1.));
#103 = PCURVE('',#33,#104);
#104 = DEFINITIONAL_REPRESENTATION('',(#105),#109);
#105 = HYPERBOLA('',#106,5.196152422707,9.);
#106 = AXIS2_PLACEMENT_2D('',#107,#108);
#107 = CARTESIAN_POINT('',(5.196152422707,-14.93634480157));
#108 = DIRECTION('',(0.,1.));
#109 = ( GEOMETRIC_REPRESENTATION_CONTEXT(2) 
PARAMETRIC_REPRESENTATION_CONTEXT() REPRESENTATION_CONTEXT('2D SPACE',''
  ) );
#110 = PCURVE('',#111,#116);
#111 = CONICAL_SURFACE('',#112,10.892304845413,1.047197551197);
#112 = AXIS2_PLACEMENT_3D('',#113,#114,#115);
#113 = CARTESIAN_POINT('',(37.5,0.,295.14766966697));
#114 = DIRECTION('',(-0.,-0.,-1.));
#115 = DIRECTION('',(1.,0.,-0.));
#116 = DEFINITIONAL_REPRESENTATION('',(#117),#130);
#117 = B_SPLINE_CURVE_WITH_KNOTS('',6,(#118,#119,#120,#121,#122,#123,
    #124,#125,#126,#127,#128,#129),.UNSPECIFIED.,.F.,.F.,(7,5,7),(
    -0.637613172666,-4.415351416613E-02,0.549306144334),.UNSPECIFIED.);
#118 = CARTESIAN_POINT('',(-1.121939452779,0.));
#119 = CARTESIAN_POINT('',(-1.040212995396,-0.350362348147));
#120 = CARTESIAN_POINT('',(-0.953022634782,-0.626896889663));
#121 = CARTESIAN_POINT('',(-0.860894834864,-0.83577296568));
#122 = CARTESIAN_POINT('',(-0.764847329475,-0.980995232548));
#123 = CARTESIAN_POINT('',(-0.666551557548,-1.064756731086));
#124 = CARTESIAN_POINT('',(-0.468924343049,-1.110156977191));
#125 = CARTESIAN_POINT('',(-0.369594103036,-1.071795738997));
#126 = CARTESIAN_POINT('',(-0.271473631119,-0.972773128404));
#127 = CARTESIAN_POINT('',(-0.176399996717,-0.811695963874));
#128 = CARTESIAN_POINT('',(-8.565852339707E-02,-0.585404963845));
#129 = CARTESIAN_POINT('',(0.,-0.288675134595));
#130 = ( GEOMETRIC_REPRESENTATION_CONTEXT(2) 
PARAMETRIC_REPRESENTATION_CONTEXT() REPRESENTATION_CONTEXT('2D SPACE',''
  ) );
#131 = ORIENTED_EDGE('',*,*,#132,.F.);
#132 = EDGE_CURVE('',#24,#95,#133,.T.);
#133 = SURFACE_CURVE('',#134,(#138,#145),.PCURVE_S1.);
#134 = LINE('',#135,#136);
#135 = CARTESIAN_POINT('',(42.696152422707,9.,286.5));
#136 = VECTOR('',#137,1.);
#137 = DIRECTION('',(0.,0.,1.));
#138 = PCURVE('',#33,#139);
#139 = DEFINITIONAL_REPRESENTATION('',(#140),#144);
#140 = LINE('',#141,#142);
#141 = CARTESIAN_POINT('',(10.392304845413,0.));
#142 = VECTOR('',#143,1.);
#143 = DIRECTION('',(0.,-1.));
#144 = ( GEOMETRIC_REPRESENTATION_CONTEXT(2) 
PARAMETRIC_REPRESENTATION_CONTEXT() REPRESENTATION_CONTEXT('2D SPACE',''
  ) );
#145 = PCURVE('',#146,#151);
#146 = PLANE('',#147);
#147 = AXIS2_PLACEMENT_3D('',#148,#149,#150);
#148 = CARTESIAN_POINT('',(42.696152422707,9.,286.5));
#149 = DIRECTION('',(-1.709300165674E-16,-1.,0.));
#150 = DIRECTION('',(-1.,1.709300165674E-16,0.));
#151 = DEFINITIONAL_REPRESENTATION('',(#152),#156);
#152 = LINE('',#153,#154);
#153 = CARTESIAN_POINT('',(0.,0.));
#154 = VECTOR('',#155,1.);
#155 = DIRECTION('',(0.,-1.));
#156 = ( GEOMETRIC_REPRESENTATION_CONTEXT(2) 
PARAMETRIC_REPRESENTATION_CONTEXT() REPRESENTATION_CONTEXT('2D SPACE',''
  ) );
#157 = ADVANCED_FACE('',(#158),#45,.T.);
#158 = FACE_BOUND('',#159,.T.);
#159 = EDGE_LOOP('',(#160,#183,#210,#211,#244,#282,#320,#358,#389));
#160 = ORIENTED_EDGE('',*,*,#161,.F.);
#161 = EDGE_CURVE('',#162,#22,#164,.T.);
#162 = VERTEX_POINT('',#163);
#163 = CARTESIAN_POINT('',(46.05,0.,286.5));
#164 = SEAM_CURVE('',#165,(#169,#176),.PCURVE_S1.);
#165 = LINE('',#166,#167);
#166 = CARTESIAN_POINT('',(46.05,0.,286.5));
#167 = VECTOR('',#168,1.);
#168 = DIRECTION('',(0.866025403784,0.,0.5));
#169 = PCURVE('',#45,#170);
#170 = DEFINITIONAL_REPRESENTATION('',(#171),#175);
#171 = LINE('',#172,#173);
#172 = CARTESIAN_POINT('',(0.,0.));
#173 = VECTOR('',#174,1.);
#174 = DIRECTION('',(0.,1.));
#175 = ( GEOMETRIC_REPRESENTATION_CONTEXT(2) 
PARAMETRIC_REPRESENTATION_CONTEXT() REPRESENTATION_CONTEXT('2D SPACE',''
  ) );
#176 = PCURVE('',#45,#177);
#177 = DEFINITIONAL_REPRESENTATION('',(#178),#182);
#178 = LINE('',#179,#180);
#179 = CARTESIAN_POINT('',(6.28318530718,0.));
#180 = VECTOR('',#181,1.);
#181 = DIRECTION('',(0.,1.));
#182 = ( GEOMETRIC_REPRESENTATION_CONTEXT(2) 
PARAMETRIC_REPRESENTATION_CONTEXT() REPRESENTATION_CONTEXT('2D SPACE',''
  ) );
#183 = ORIENTED_EDGE('',*,*,#184,.T.);
#184 = EDGE_CURVE('',#162,#162,#185,.T.);
#185 = SURFACE_CURVE('',#186,(#191,#198),.PCURVE_S1.);
#186 = CIRCLE('',#187,8.55);
#187 = AXIS2_PLACEMENT_3D('',#188,#189,#190);
#188 = CARTESIAN_POINT('',(37.5,0.,286.5));
#189 = DIRECTION('',(0.,0.,1.));
#190 = DIRECTION('',(1.,0.,-0.));
#191 = PCURVE('',#45,#192);
#192 = DEFINITIONAL_REPRESENTATION('',(#193),#197);
#193 = LINE('',#194,#195);
#194 = CARTESIAN_POINT('',(0.,0.));
#195 = VECTOR('',#196,1.);
#196 = DIRECTION('',(1.,0.));
#197 = ( GEOMETRIC_REPRESENTATION_CONTEXT(2) 
PARAMETRIC_REPRESENTATION_CONTEXT() REPRESENTATION_CONTEXT('2D SPACE',''
  ) );
#198 = PCURVE('',#199,#204);
#199 = PLANE('',#200);
#200 = AXIS2_PLACEMENT_3D('',#201,#202,#203);
#201 = CARTESIAN_POINT('',(37.5,0.,286.5));
#202 = DIRECTION('',(0.,0.,1.));
#203 = DIRECTION('',(1.,0.,-0.));
#204 = DEFINITIONAL_REPRESENTATION('',(#205),#209);
#205 = CIRCLE('',#206,8.55);
#206 = AXIS2_PLACEMENT_2D('',#207,#208);
#207 = CARTESIAN_POINT('',(0.,0.));
#208 = DIRECTION('',(1.,-0.));
#209 = ( GEOMETRIC_REPRESENTATION_CONTEXT(2) 
PARAMETRIC_REPRESENTATION_CONTEXT() REPRESENTATION_CONTEXT('2D SPACE',''
  ) );
#210 = ORIENTED_EDGE('',*,*,#161,.T.);
#211 = ORIENTED_EDGE('',*,*,#212,.F.);
#212 = EDGE_CURVE('',#213,#22,#215,.T.);
#213 = VERTEX_POINT('',#214);
#214 = CARTESIAN_POINT('',(42.696152422707,-9.,287.56365519842));
#215 = SURFACE_CURVE('',#216,(#221,#237),.PCURVE_S1.);
#216 = HYPERBOLA('',#217,5.196152422707,9.);
#217 = AXIS2_PLACEMENT_3D('',#218,#219,#220);
#218 = CARTESIAN_POINT('',(45.29422863406,-4.5,281.56365519842));
#219 = DIRECTION('',(-0.866025403784,0.5,0.));
#220 = DIRECTION('',(0.,0.,1.));
#221 = PCURVE('',#45,#222);
#222 = DEFINITIONAL_REPRESENTATION('',(#223),#236);
#223 = B_SPLINE_CURVE_WITH_KNOTS('',6,(#224,#225,#226,#227,#228,#229,
    #230,#231,#232,#233,#234,#235),.UNSPECIFIED.,.F.,.F.,(7,5,7),(
    -0.637613172666,-4.415351416613E-02,0.549306144334),.UNSPECIFIED.);
#224 = CARTESIAN_POINT('',(5.161245854401,1.352330333024));
#225 = CARTESIAN_POINT('',(5.242972311784,1.001967984877));
#226 = CARTESIAN_POINT('',(5.330162672398,0.72543344336));
#227 = CARTESIAN_POINT('',(5.422290472315,0.516557367343));
#228 = CARTESIAN_POINT('',(5.518337977705,0.371335100476));
#229 = CARTESIAN_POINT('',(5.616633749632,0.287573601938));
#230 = CARTESIAN_POINT('',(5.81426096413,0.242173355832));
#231 = CARTESIAN_POINT('',(5.913591204144,0.280534594027));
#232 = CARTESIAN_POINT('',(6.01171167606,0.379557204619));
#233 = CARTESIAN_POINT('',(6.106785310463,0.540634369149));
#234 = CARTESIAN_POINT('',(6.197526783783,0.766925369179));
#235 = CARTESIAN_POINT('',(6.28318530718,1.063655198429));
#236 = ( GEOMETRIC_REPRESENTATION_CONTEXT(2) 
PARAMETRIC_REPRESENTATION_CONTEXT() REPRESENTATION_CONTEXT('2D SPACE',''
  ) );
#237 = PCURVE('',#82,#238);
#238 = DEFINITIONAL_REPRESENTATION('',(#239),#243);
#239 = HYPERBOLA('',#240,5.196152422707,9.);
#240 = AXIS2_PLACEMENT_2D('',#241,#242);
#241 = CARTESIAN_POINT('',(5.196152422707,4.936344801571));
#242 = DIRECTION('',(0.,-1.));
#243 = ( GEOMETRIC_REPRESENTATION_CONTEXT(2) 
PARAMETRIC_REPRESENTATION_CONTEXT() REPRESENTATION_CONTEXT('2D SPACE',''
  ) );
#244 = ORIENTED_EDGE('',*,*,#245,.F.);
#245 = EDGE_CURVE('',#246,#213,#248,.T.);
#246 = VERTEX_POINT('',#247);
#247 = CARTESIAN_POINT('',(32.303847577293,-9.,287.56365519842));
#248 = SURFACE_CURVE('',#249,(#254,#270),.PCURVE_S1.);
#249 = HYPERBOLA('',#250,5.196152422707,9.);
#250 = AXIS2_PLACEMENT_3D('',#251,#252,#253);
#251 = CARTESIAN_POINT('',(37.5,-9.,281.56365519842));
#252 = DIRECTION('',(6.837200662697E-16,1.,-0.));
#253 = DIRECTION('',(0.,0.,1.));
#254 = PCURVE('',#45,#255);
#255 = DEFINITIONAL_REPRESENTATION('',(#256),#269);
#256 = B_SPLINE_CURVE_WITH_KNOTS('',6,(#257,#258,#259,#260,#261,#262,
    #263,#264,#265,#266,#267,#268),.UNSPECIFIED.,.F.,.F.,(7,5,7),(
    -0.637613172666,-3.330669073875E-16,0.637613172666),.UNSPECIFIED.);
#257 = CARTESIAN_POINT('',(4.114048303204,1.352330333024));
#258 = CARTESIAN_POINT('',(4.201855224932,0.975900957943));
#259 = CARTESIAN_POINT('',(4.295969124629,0.684693637798));
#260 = CARTESIAN_POINT('',(4.395738283122,0.471057184673));
#261 = CARTESIAN_POINT('',(4.499852043916,0.330224318921));
#262 = CARTESIAN_POINT('',(4.606120118274,0.259807621135));
#263 = CARTESIAN_POINT('',(4.818657842496,0.259807621135));
#264 = CARTESIAN_POINT('',(4.924925916853,0.330224318921));
#265 = CARTESIAN_POINT('',(5.029039677647,0.471057184673));
#266 = CARTESIAN_POINT('',(5.128808836141,0.684693637798));
#267 = CARTESIAN_POINT('',(5.222922735837,0.975900957943));
#268 = CARTESIAN_POINT('',(5.310729657565,1.352330333024));
#269 = ( GEOMETRIC_REPRESENTATION_CONTEXT(2) 
PARAMETRIC_REPRESENTATION_CONTEXT() REPRESENTATION_CONTEXT('2D SPACE',''
  ) );
#270 = PCURVE('',#271,#276);
#271 = PLANE('',#272);
#272 = AXIS2_PLACEMENT_3D('',#273,#274,#275);
#273 = CARTESIAN_POINT('',(32.303847577293,-9.,286.5));
#274 = DIRECTION('',(6.837200662697E-16,1.,-0.));
#275 = DIRECTION('',(1.,-6.837200662697E-16,0.));
#276 = DEFINITIONAL_REPRESENTATION('',(#277),#281);
#277 = HYPERBOLA('',#278,5.196152422707,9.);
#278 = AXIS2_PLACEMENT_2D('',#279,#280);
#279 = CARTESIAN_POINT('',(5.196152422707,4.936344801571));
#280 = DIRECTION('',(0.,-1.));
#281 = ( GEOMETRIC_REPRESENTATION_CONTEXT(2) 
PARAMETRIC_REPRESENTATION_CONTEXT() REPRESENTATION_CONTEXT('2D SPACE',''
  ) );
#282 = ORIENTED_EDGE('',*,*,#283,.F.);
#283 = EDGE_CURVE('',#284,#246,#286,.T.);
#284 = VERTEX_POINT('',#285);
#285 = CARTESIAN_POINT('',(27.107695154587,1.27269028647E-15,
    287.56365519842));
#286 = SURFACE_CURVE('',#287,(#292,#308),.PCURVE_S1.);
#287 = HYPERBOLA('',#288,5.196152422707,9.);
#288 = AXIS2_PLACEMENT_3D('',#289,#290,#291);
#289 = CARTESIAN_POINT('',(29.70577136594,-4.5,281.56365519842));
#290 = DIRECTION('',(0.866025403784,0.5,-0.));
#291 = DIRECTION('',(0.,0.,1.));
#292 = PCURVE('',#45,#293);
#293 = DEFINITIONAL_REPRESENTATION('',(#294),#307);
#294 = B_SPLINE_CURVE_WITH_KNOTS('',6,(#295,#296,#297,#298,#299,#300,
    #301,#302,#303,#304,#305,#306),.UNSPECIFIED.,.F.,.F.,(7,5,7),(
    -0.637613172666,0.,0.637613172666),.UNSPECIFIED.);
#295 = CARTESIAN_POINT('',(3.066850752008,1.352330333024));
#296 = CARTESIAN_POINT('',(3.154657673736,0.975900957943));
#297 = CARTESIAN_POINT('',(3.248771573432,0.684693637798));
#298 = CARTESIAN_POINT('',(3.348540731926,0.471057184673));
#299 = CARTESIAN_POINT('',(3.452654492719,0.330224318921));
#300 = CARTESIAN_POINT('',(3.558922567077,0.259807621135));
#301 = CARTESIAN_POINT('',(3.771460291299,0.259807621135));
#302 = CARTESIAN_POINT('',(3.877728365657,0.330224318921));
#303 = CARTESIAN_POINT('',(3.98184212645,0.471057184673));
#304 = CARTESIAN_POINT('',(4.081611284944,0.684693637798));
#305 = CARTESIAN_POINT('',(4.175725184641,0.975900957943));
#306 = CARTESIAN_POINT('',(4.263532106369,1.352330333024));
#307 = ( GEOMETRIC_REPRESENTATION_CONTEXT(2) 
PARAMETRIC_REPRESENTATION_CONTEXT() REPRESENTATION_CONTEXT('2D SPACE',''
  ) );
#308 = PCURVE('',#309,#314);
#309 = PLANE('',#310);
#310 = AXIS2_PLACEMENT_3D('',#311,#312,#313);
#311 = CARTESIAN_POINT('',(27.107695154587,1.27269028647E-15,286.5));
#312 = DIRECTION('',(0.866025403784,0.5,-0.));
#313 = DIRECTION('',(0.5,-0.866025403784,0.));
#314 = DEFINITIONAL_REPRESENTATION('',(#315),#319);
#315 = HYPERBOLA('',#316,5.196152422707,9.);
#316 = AXIS2_PLACEMENT_2D('',#317,#318);
#317 = CARTESIAN_POINT('',(5.196152422707,4.936344801571));
#318 = DIRECTION('',(0.,-1.));
#319 = ( GEOMETRIC_REPRESENTATION_CONTEXT(2) 
PARAMETRIC_REPRESENTATION_CONTEXT() REPRESENTATION_CONTEXT('2D SPACE',''
  ) );
#320 = ORIENTED_EDGE('',*,*,#321,.F.);
#321 = EDGE_CURVE('',#322,#284,#324,.T.);
#322 = VERTEX_POINT('',#323);
#323 = CARTESIAN_POINT('',(32.303847577293,9.,287.56365519842));
#324 = SURFACE_CURVE('',#325,(#330,#346),.PCURVE_S1.);
#325 = HYPERBOLA('',#326,5.196152422707,9.);
#326 = AXIS2_PLACEMENT_3D('',#327,#328,#329);
#327 = CARTESIAN_POINT('',(29.70577136594,4.5,281.56365519842));
#328 = DIRECTION('',(0.866025403784,-0.5,0.));
#329 = DIRECTION('',(0.,0.,1.));
#330 = PCURVE('',#45,#331);
#331 = DEFINITIONAL_REPRESENTATION('',(#332),#345);
#332 = B_SPLINE_CURVE_WITH_KNOTS('',6,(#333,#334,#335,#336,#337,#338,
    #339,#340,#341,#342,#343,#344),.UNSPECIFIED.,.F.,.F.,(7,5,7),(
    -0.637613172666,0.,0.637613172666),.UNSPECIFIED.);
#333 = CARTESIAN_POINT('',(2.019653200811,1.352330333024));
#334 = CARTESIAN_POINT('',(2.107460122539,0.975900957943));
#335 = CARTESIAN_POINT('',(2.201574022236,0.684693637798));
#336 = CARTESIAN_POINT('',(2.301343180729,0.471057184673));
#337 = CARTESIAN_POINT('',(2.405456941523,0.330224318921));
#338 = CARTESIAN_POINT('',(2.51172501588,0.259807621135));
#339 = CARTESIAN_POINT('',(2.724262740103,0.259807621135));
#340 = CARTESIAN_POINT('',(2.83053081446,0.330224318921));
#341 = CARTESIAN_POINT('',(2.934644575254,0.471057184673));
#342 = CARTESIAN_POINT('',(3.034413733747,0.684693637798));
#343 = CARTESIAN_POINT('',(3.128527633444,0.975900957943));
#344 = CARTESIAN_POINT('',(3.216334555172,1.352330333024));
#345 = ( GEOMETRIC_REPRESENTATION_CONTEXT(2) 
PARAMETRIC_REPRESENTATION_CONTEXT() REPRESENTATION_CONTEXT('2D SPACE',''
  ) );
#346 = PCURVE('',#347,#352);
#347 = PLANE('',#348);
#348 = AXIS2_PLACEMENT_3D('',#349,#350,#351);
#349 = CARTESIAN_POINT('',(32.303847577293,9.,286.5));
#350 = DIRECTION('',(0.866025403784,-0.5,0.));
#351 = DIRECTION('',(-0.5,-0.866025403784,0.));
#352 = DEFINITIONAL_REPRESENTATION('',(#353),#357);
#353 = HYPERBOLA('',#354,5.196152422707,9.);
#354 = AXIS2_PLACEMENT_2D('',#355,#356);
#355 = CARTESIAN_POINT('',(5.196152422707,4.936344801571));
#356 = DIRECTION('',(0.,-1.));
#357 = ( GEOMETRIC_REPRESENTATION_CONTEXT(2) 
PARAMETRIC_REPRESENTATION_CONTEXT() REPRESENTATION_CONTEXT('2D SPACE',''
  ) );
#358 = ORIENTED_EDGE('',*,*,#359,.F.);
#359 = EDGE_CURVE('',#24,#322,#360,.T.);
#360 = SURFACE_CURVE('',#361,(#366,#382),.PCURVE_S1.);
#361 = HYPERBOLA('',#362,5.196152422707,9.);
#362 = AXIS2_PLACEMENT_3D('',#363,#364,#365);
#363 = CARTESIAN_POINT('',(37.5,9.,281.56365519842));
#364 = DIRECTION('',(-1.709300165674E-16,-1.,0.));
#365 = DIRECTION('',(0.,0.,1.));
#366 = PCURVE('',#45,#367);
#367 = DEFINITIONAL_REPRESENTATION('',(#368),#381);
#368 = B_SPLINE_CURVE_WITH_KNOTS('',6,(#369,#370,#371,#372,#373,#374,
    #375,#376,#377,#378,#379,#380),.UNSPECIFIED.,.F.,.F.,(7,5,7),(
    -0.637613172666,1.110223024625E-16,0.637613172666),.UNSPECIFIED.);
#369 = CARTESIAN_POINT('',(0.972455649614,1.352330333024));
#370 = CARTESIAN_POINT('',(1.060262571342,0.975900957943));
#371 = CARTESIAN_POINT('',(1.154376471039,0.684693637798));
#372 = CARTESIAN_POINT('',(1.254145629532,0.471057184673));
#373 = CARTESIAN_POINT('',(1.358259390326,0.330224318921));
#374 = CARTESIAN_POINT('',(1.464527464684,0.259807621135));
#375 = CARTESIAN_POINT('',(1.677065188906,0.259807621135));
#376 = CARTESIAN_POINT('',(1.783333263264,0.330224318921));
#377 = CARTESIAN_POINT('',(1.887447024057,0.471057184673));
#378 = CARTESIAN_POINT('',(1.987216182551,0.684693637798));
#379 = CARTESIAN_POINT('',(2.081330082247,0.975900957943));
#380 = CARTESIAN_POINT('',(2.169137003975,1.352330333024));
#381 = ( GEOMETRIC_REPRESENTATION_CONTEXT(2) 
PARAMETRIC_REPRESENTATION_CONTEXT() REPRESENTATION_CONTEXT('2D SPACE',''
  ) );
#382 = PCURVE('',#146,#383);
#383 = DEFINITIONAL_REPRESENTATION('',(#384),#388);
#384 = HYPERBOLA('',#385,5.196152422707,9.);
#385 = AXIS2_PLACEMENT_2D('',#386,#387);
#386 = CARTESIAN_POINT('',(5.196152422707,4.936344801571));
#387 = DIRECTION('',(0.,-1.));
#388 = ( GEOMETRIC_REPRESENTATION_CONTEXT(2) 
PARAMETRIC_REPRESENTATION_CONTEXT() REPRESENTATION_CONTEXT('2D SPACE',''
  ) );
#389 = ORIENTED_EDGE('',*,*,#21,.F.);
#390 = ADVANCED_FACE('',(#391),#146,.F.);
#391 = FACE_BOUND('',#392,.F.);
#392 = EDGE_LOOP('',(#393,#394,#395,#428));
#393 = ORIENTED_EDGE('',*,*,#359,.F.);
#394 = ORIENTED_EDGE('',*,*,#132,.T.);
#395 = ORIENTED_EDGE('',*,*,#396,.F.);
#396 = EDGE_CURVE('',#397,#95,#399,.T.);
#397 = VERTEX_POINT('',#398);
#398 = CARTESIAN_POINT('',(32.303847577293,9.,295.43634480157));
#399 = SURFACE_CURVE('',#400,(#405,#412),.PCURVE_S1.);
#400 = HYPERBOLA('',#401,5.196152422707,9.);
#401 = AXIS2_PLACEMENT_3D('',#402,#403,#404);
#402 = CARTESIAN_POINT('',(37.5,9.,301.43634480157));
#403 = DIRECTION('',(-1.709300165674E-16,-1.,0.));
#404 = DIRECTION('',(-0.,0.,-1.));
#405 = PCURVE('',#146,#406);
#406 = DEFINITIONAL_REPRESENTATION('',(#407),#411);
#407 = HYPERBOLA('',#408,5.196152422707,9.);
#408 = AXIS2_PLACEMENT_2D('',#409,#410);
#409 = CARTESIAN_POINT('',(5.196152422707,-14.93634480157));
#410 = DIRECTION('',(0.,1.));
#411 = ( GEOMETRIC_REPRESENTATION_CONTEXT(2) 
PARAMETRIC_REPRESENTATION_CONTEXT() REPRESENTATION_CONTEXT('2D SPACE',''
  ) );
#412 = PCURVE('',#111,#413);
#413 = DEFINITIONAL_REPRESENTATION('',(#414),#427);
#414 = B_SPLINE_CURVE_WITH_KNOTS('',6,(#415,#416,#417,#418,#419,#420,
    #421,#422,#423,#424,#425,#426),.UNSPECIFIED.,.F.,.F.,(7,5,7),(
    -0.637613172666,0.,0.637613172666),.UNSPECIFIED.);
#415 = CARTESIAN_POINT('',(-2.169137003975,0.));
#416 = CARTESIAN_POINT('',(-2.081330082247,-0.37642937508));
#417 = CARTESIAN_POINT('',(-1.987216182551,-0.667636695225));
#418 = CARTESIAN_POINT('',(-1.887447024057,-0.881273148351));
#419 = CARTESIAN_POINT('',(-1.783333263264,-1.022106014102));
#420 = CARTESIAN_POINT('',(-1.677065188906,-1.092522711888));
#421 = CARTESIAN_POINT('',(-1.464527464684,-1.092522711888));
#422 = CARTESIAN_POINT('',(-1.358259390326,-1.022106014102));
#423 = CARTESIAN_POINT('',(-1.254145629532,-0.881273148351));
#424 = CARTESIAN_POINT('',(-1.154376471039,-0.667636695225));
#425 = CARTESIAN_POINT('',(-1.060262571342,-0.37642937508));
#426 = CARTESIAN_POINT('',(-0.972455649614,-7.691850745534E-16));
#427 = ( GEOMETRIC_REPRESENTATION_CONTEXT(2) 
PARAMETRIC_REPRESENTATION_CONTEXT() REPRESENTATION_CONTEXT('2D SPACE',''
  ) );
#428 = ORIENTED_EDGE('',*,*,#429,.F.);
#429 = EDGE_CURVE('',#322,#397,#430,.T.);
#430 = SURFACE_CURVE('',#431,(#435,#442),.PCURVE_S1.);
#431 = LINE('',#432,#433);
#432 = CARTESIAN_POINT('',(32.303847577293,9.,286.5));
#433 = VECTOR('',#434,1.);
#434 = DIRECTION('',(0.,0.,1.));
#435 = PCURVE('',#146,#436);
#436 = DEFINITIONAL_REPRESENTATION('',(#437),#441);
#437 = LINE('',#438,#439);
#438 = CARTESIAN_POINT('',(10.392304845413,0.));
#439 = VECTOR('',#440,1.);
#440 = DIRECTION('',(0.,-1.));
#441 = ( GEOMETRIC_REPRESENTATION_CONTEXT(2) 
PARAMETRIC_REPRESENTATION_CONTEXT() REPRESENTATION_CONTEXT('2D SPACE',''
  ) );
#442 = PCURVE('',#347,#443);
#443 = DEFINITIONAL_REPRESENTATION('',(#444),#448);
#444 = LINE('',#445,#446);
#445 = CARTESIAN_POINT('',(0.,0.));
#446 = VECTOR('',#447,1.);
#447 = DIRECTION('',(0.,-1.));
#448 = ( GEOMETRIC_REPRESENTATION_CONTEXT(2) 
PARAMETRIC_REPRESENTATION_CONTEXT() REPRESENTATION_CONTEXT('2D SPACE',''
  ) );
#449 = ADVANCED_FACE('',(#450),#111,.T.);
#450 = FACE_BOUND('',#451,.T.);
#451 = EDGE_LOOP('',(#452,#485,#508,#535,#536,#537,#538,#571,#604));
#452 = ORIENTED_EDGE('',*,*,#453,.F.);
#453 = EDGE_CURVE('',#67,#454,#456,.T.);
#454 = VERTEX_POINT('',#455);
#455 = CARTESIAN_POINT('',(42.696152422707,-9.,295.43634480157));
#456 = SURFACE_CURVE('',#457,(#462,#478),.PCURVE_S1.);
#457 = HYPERBOLA('',#458,5.196152422707,9.);
#458 = AXIS2_PLACEMENT_3D('',#459,#460,#461);
#459 = CARTESIAN_POINT('',(45.29422863406,-4.5,301.43634480157));
#460 = DIRECTION('',(-0.866025403784,0.5,0.));
#461 = DIRECTION('',(-0.,0.,-1.));
#462 = PCURVE('',#111,#463);
#463 = DEFINITIONAL_REPRESENTATION('',(#464),#477);
#464 = B_SPLINE_CURVE_WITH_KNOTS('',6,(#465,#466,#467,#468,#469,#470,
    #471,#472,#473,#474,#475,#476),.UNSPECIFIED.,.F.,.F.,(7,5,7),(
    -0.549306144334,4.415351416613E-02,0.637613172666),.UNSPECIFIED.);
#465 = CARTESIAN_POINT('',(-6.28318530718,-0.288675134595));
#466 = CARTESIAN_POINT('',(-6.197526783783,-0.585404963845));
#467 = CARTESIAN_POINT('',(-6.106785310463,-0.811695963874));
#468 = CARTESIAN_POINT('',(-6.01171167606,-0.972773128404));
#469 = CARTESIAN_POINT('',(-5.913591204144,-1.071795738997));
#470 = CARTESIAN_POINT('',(-5.81426096413,-1.110156977191));
#471 = CARTESIAN_POINT('',(-5.616633749632,-1.064756731086));
#472 = CARTESIAN_POINT('',(-5.518337977705,-0.980995232548));
#473 = CARTESIAN_POINT('',(-5.422290472315,-0.83577296568));
#474 = CARTESIAN_POINT('',(-5.330162672398,-0.626896889663));
#475 = CARTESIAN_POINT('',(-5.242972311784,-0.350362348147));
#476 = CARTESIAN_POINT('',(-5.161245854401,7.691850745534E-16));
#477 = ( GEOMETRIC_REPRESENTATION_CONTEXT(2) 
PARAMETRIC_REPRESENTATION_CONTEXT() REPRESENTATION_CONTEXT('2D SPACE',''
  ) );
#478 = PCURVE('',#82,#479);
#479 = DEFINITIONAL_REPRESENTATION('',(#480),#484);
#480 = HYPERBOLA('',#481,5.196152422707,9.);
#481 = AXIS2_PLACEMENT_2D('',#482,#483);
#482 = CARTESIAN_POINT('',(5.196152422707,-14.93634480157));
#483 = DIRECTION('',(0.,1.));
#484 = ( GEOMETRIC_REPRESENTATION_CONTEXT(2) 
PARAMETRIC_REPRESENTATION_CONTEXT() REPRESENTATION_CONTEXT('2D SPACE',''
  ) );
#485 = ORIENTED_EDGE('',*,*,#486,.T.);
#486 = EDGE_CURVE('',#67,#487,#489,.T.);
#487 = VERTEX_POINT('',#488);
#488 = CARTESIAN_POINT('',(46.05,0.,296.5));
#489 = SEAM_CURVE('',#490,(#494,#501),.PCURVE_S1.);
#490 = LINE('',#491,#492);
#491 = CARTESIAN_POINT('',(48.392304845413,0.,295.14766966697));
#492 = VECTOR('',#493,1.);
#493 = DIRECTION('',(-0.866025403784,0.,0.5));
#494 = PCURVE('',#111,#495);
#495 = DEFINITIONAL_REPRESENTATION('',(#496),#500);
#496 = LINE('',#497,#498);
#497 = CARTESIAN_POINT('',(-0.,-0.));
#498 = VECTOR('',#499,1.);
#499 = DIRECTION('',(-0.,-1.));
#500 = ( GEOMETRIC_REPRESENTATION_CONTEXT(2) 
PARAMETRIC_REPRESENTATION_CONTEXT() REPRESENTATION_CONTEXT('2D SPACE',''
  ) );
#501 = PCURVE('',#111,#502);
#502 = DEFINITIONAL_REPRESENTATION('',(#503),#507);
#503 = LINE('',#504,#505);
#504 = CARTESIAN_POINT('',(-6.28318530718,-0.));
#505 = VECTOR('',#506,1.);
#506 = DIRECTION('',(-0.,-1.));
#507 = ( GEOMETRIC_REPRESENTATION_CONTEXT(2) 
PARAMETRIC_REPRESENTATION_CONTEXT() REPRESENTATION_CONTEXT('2D SPACE',''
  ) );
#508 = ORIENTED_EDGE('',*,*,#509,.F.);
#509 = EDGE_CURVE('',#487,#487,#510,.T.);
#510 = SURFACE_CURVE('',#511,(#516,#523),.PCURVE_S1.);
#511 = CIRCLE('',#512,8.55);
#512 = AXIS2_PLACEMENT_3D('',#513,#514,#515);
#513 = CARTESIAN_POINT('',(37.5,0.,296.5));
#514 = DIRECTION('',(0.,0.,1.));
#515 = DIRECTION('',(1.,0.,-0.));
#516 = PCURVE('',#111,#517);
#517 = DEFINITIONAL_REPRESENTATION('',(#518),#522);
#518 = LINE('',#519,#520);
#519 = CARTESIAN_POINT('',(-0.,-1.352330333024));
#520 = VECTOR('',#521,1.);
#521 = DIRECTION('',(-1.,-0.));
#522 = ( GEOMETRIC_REPRESENTATION_CONTEXT(2) 
PARAMETRIC_REPRESENTATION_CONTEXT() REPRESENTATION_CONTEXT('2D SPACE',''
  ) );
#523 = PCURVE('',#524,#529);
#524 = PLANE('',#525);
#525 = AXIS2_PLACEMENT_3D('',#526,#527,#528);
#526 = CARTESIAN_POINT('',(37.5,0.,296.5));
#527 = DIRECTION('',(0.,0.,1.));
#528 = DIRECTION('',(1.,0.,-0.));
#529 = DEFINITIONAL_REPRESENTATION('',(#530),#534);
#530 = CIRCLE('',#531,8.55);
#531 = AXIS2_PLACEMENT_2D('',#532,#533);
#532 = CARTESIAN_POINT('',(0.,0.));
#533 = DIRECTION('',(1.,0.));
#534 = ( GEOMETRIC_REPRESENTATION_CONTEXT(2) 
PARAMETRIC_REPRESENTATION_CONTEXT() REPRESENTATION_CONTEXT('2D SPACE',''
  ) );
#535 = ORIENTED_EDGE('',*,*,#486,.F.);
#536 = ORIENTED_EDGE('',*,*,#94,.F.);
#537 = ORIENTED_EDGE('',*,*,#396,.F.);
#538 = ORIENTED_EDGE('',*,*,#539,.F.);
#539 = EDGE_CURVE('',#540,#397,#542,.T.);
#540 = VERTEX_POINT('',#541);
#541 = CARTESIAN_POINT('',(27.107695154587,1.27269028647E-15,
    295.43634480157));
#542 = SURFACE_CURVE('',#543,(#548,#564),.PCURVE_S1.);
#543 = HYPERBOLA('',#544,5.196152422707,9.);
#544 = AXIS2_PLACEMENT_3D('',#545,#546,#547);
#545 = CARTESIAN_POINT('',(29.70577136594,4.5,301.43634480157));
#546 = DIRECTION('',(0.866025403784,-0.5,0.));
#547 = DIRECTION('',(0.,-0.,-1.));
#548 = PCURVE('',#111,#549);
#549 = DEFINITIONAL_REPRESENTATION('',(#550),#563);
#550 = B_SPLINE_CURVE_WITH_KNOTS('',6,(#551,#552,#553,#554,#555,#556,
    #557,#558,#559,#560,#561,#562),.UNSPECIFIED.,.F.,.F.,(7,5,7),(
    -0.637613172666,0.,0.637613172666),.UNSPECIFIED.);
#551 = CARTESIAN_POINT('',(-3.216334555172,7.691850745534E-16));
#552 = CARTESIAN_POINT('',(-3.128527633444,-0.37642937508));
#553 = CARTESIAN_POINT('',(-3.034413733747,-0.667636695225));
#554 = CARTESIAN_POINT('',(-2.934644575254,-0.881273148351));
#555 = CARTESIAN_POINT('',(-2.83053081446,-1.022106014102));
#556 = CARTESIAN_POINT('',(-2.724262740103,-1.092522711888));
#557 = CARTESIAN_POINT('',(-2.51172501588,-1.092522711888));
#558 = CARTESIAN_POINT('',(-2.405456941523,-1.022106014102));
#559 = CARTESIAN_POINT('',(-2.301343180729,-0.881273148351));
#560 = CARTESIAN_POINT('',(-2.201574022236,-0.667636695225));
#561 = CARTESIAN_POINT('',(-2.107460122539,-0.37642937508));
#562 = CARTESIAN_POINT('',(-2.019653200811,0.));
#563 = ( GEOMETRIC_REPRESENTATION_CONTEXT(2) 
PARAMETRIC_REPRESENTATION_CONTEXT() REPRESENTATION_CONTEXT('2D SPACE',''
  ) );
#564 = PCURVE('',#347,#565);
#565 = DEFINITIONAL_REPRESENTATION('',(#566),#570);
#566 = HYPERBOLA('',#567,5.196152422707,9.);
#567 = AXIS2_PLACEMENT_2D('',#568,#569);
#568 = CARTESIAN_POINT('',(5.196152422707,-14.93634480157));
#569 = DIRECTION('',(-0.,1.));
#570 = ( GEOMETRIC_REPRESENTATION_CONTEXT(2) 
PARAMETRIC_REPRESENTATION_CONTEXT() REPRESENTATION_CONTEXT('2D SPACE',''
  ) );
#571 = ORIENTED_EDGE('',*,*,#572,.F.);
#572 = EDGE_CURVE('',#573,#540,#575,.T.);
#573 = VERTEX_POINT('',#574);
#574 = CARTESIAN_POINT('',(32.303847577293,-9.,295.43634480157));
#575 = SURFACE_CURVE('',#576,(#581,#597),.PCURVE_S1.);
#576 = HYPERBOLA('',#577,5.196152422707,9.);
#577 = AXIS2_PLACEMENT_3D('',#578,#579,#580);
#578 = CARTESIAN_POINT('',(29.70577136594,-4.5,301.43634480157));
#579 = DIRECTION('',(0.866025403784,0.5,0.));
#580 = DIRECTION('',(0.,-0.,-1.));
#581 = PCURVE('',#111,#582);
#582 = DEFINITIONAL_REPRESENTATION('',(#583),#596);
#583 = B_SPLINE_CURVE_WITH_KNOTS('',6,(#584,#585,#586,#587,#588,#589,
    #590,#591,#592,#593,#594,#595),.UNSPECIFIED.,.F.,.F.,(7,5,7),(
    -0.637613172666,-1.110223024625E-16,0.637613172666),.UNSPECIFIED.);
#584 = CARTESIAN_POINT('',(-4.263532106369,1.538370149107E-15));
#585 = CARTESIAN_POINT('',(-4.175725184641,-0.37642937508));
#586 = CARTESIAN_POINT('',(-4.081611284944,-0.667636695225));
#587 = CARTESIAN_POINT('',(-3.98184212645,-0.881273148351));
#588 = CARTESIAN_POINT('',(-3.877728365657,-1.022106014102));
#589 = CARTESIAN_POINT('',(-3.771460291299,-1.092522711888));
#590 = CARTESIAN_POINT('',(-3.558922567077,-1.092522711888));
#591 = CARTESIAN_POINT('',(-3.452654492719,-1.022106014102));
#592 = CARTESIAN_POINT('',(-3.348540731925,-0.881273148351));
#593 = CARTESIAN_POINT('',(-3.248771573432,-0.667636695225));
#594 = CARTESIAN_POINT('',(-3.154657673736,-0.37642937508));
#595 = CARTESIAN_POINT('',(-3.066850752008,1.538370149107E-15));
#596 = ( GEOMETRIC_REPRESENTATION_CONTEXT(2) 
PARAMETRIC_REPRESENTATION_CONTEXT() REPRESENTATION_CONTEXT('2D SPACE',''
  ) );
#597 = PCURVE('',#309,#598);
#598 = DEFINITIONAL_REPRESENTATION('',(#599),#603);
#599 = HYPERBOLA('',#600,5.196152422707,9.);
#600 = AXIS2_PLACEMENT_2D('',#601,#602);
#601 = CARTESIAN_POINT('',(5.196152422707,-14.93634480157));
#602 = DIRECTION('',(0.,1.));
#603 = ( GEOMETRIC_REPRESENTATION_CONTEXT(2) 
PARAMETRIC_REPRESENTATION_CONTEXT() REPRESENTATION_CONTEXT('2D SPACE',''
  ) );
#604 = ORIENTED_EDGE('',*,*,#605,.F.);
#605 = EDGE_CURVE('',#454,#573,#606,.T.);
#606 = SURFACE_CURVE('',#607,(#612,#628),.PCURVE_S1.);
#607 = HYPERBOLA('',#608,5.196152422707,9.);
#608 = AXIS2_PLACEMENT_3D('',#609,#610,#611);
#609 = CARTESIAN_POINT('',(37.5,-9.,301.43634480157));
#610 = DIRECTION('',(6.837200662697E-16,1.,0.));
#611 = DIRECTION('',(0.,-0.,-1.));
#612 = PCURVE('',#111,#613);
#613 = DEFINITIONAL_REPRESENTATION('',(#614),#627);
#614 = B_SPLINE_CURVE_WITH_KNOTS('',6,(#615,#616,#617,#618,#619,#620,
    #621,#622,#623,#624,#625,#626),.UNSPECIFIED.,.F.,.F.,(7,5,7),(
    -0.637613172666,3.330669073875E-16,0.637613172666),.UNSPECIFIED.);
#615 = CARTESIAN_POINT('',(-5.310729657565,-1.982459358957E-15));
#616 = CARTESIAN_POINT('',(-5.222922735837,-0.37642937508));
#617 = CARTESIAN_POINT('',(-5.128808836141,-0.667636695225));
#618 = CARTESIAN_POINT('',(-5.029039677647,-0.881273148351));
#619 = CARTESIAN_POINT('',(-4.924925916853,-1.022106014102));
#620 = CARTESIAN_POINT('',(-4.818657842496,-1.092522711888));
#621 = CARTESIAN_POINT('',(-4.606120118274,-1.092522711888));
#622 = CARTESIAN_POINT('',(-4.499852043916,-1.022106014102));
#623 = CARTESIAN_POINT('',(-4.395738283122,-0.881273148351));
#624 = CARTESIAN_POINT('',(-4.295969124629,-0.667636695225));
#625 = CARTESIAN_POINT('',(-4.201855224932,-0.37642937508));
#626 = CARTESIAN_POINT('',(-4.114048303204,7.691850745534E-16));
#627 = ( GEOMETRIC_REPRESENTATION_CONTEXT(2) 
PARAMETRIC_REPRESENTATION_CONTEXT() REPRESENTATION_CONTEXT('2D SPACE',''
  ) );
#628 = PCURVE('',#271,#629);
#629 = DEFINITIONAL_REPRESENTATION('',(#630),#634);
#630 = HYPERBOLA('',#631,5.196152422707,9.);
#631 = AXIS2_PLACEMENT_2D('',#632,#633);
#632 = CARTESIAN_POINT('',(5.196152422707,-14.93634480157));
#633 = DIRECTION('',(0.,1.));
#634 = ( GEOMETRIC_REPRESENTATION_CONTEXT(2) 
PARAMETRIC_REPRESENTATION_CONTEXT() REPRESENTATION_CONTEXT('2D SPACE',''
  ) );
#635 = ADVANCED_FACE('',(#636),#82,.F.);
#636 = FACE_BOUND('',#637,.F.);
#637 = EDGE_LOOP('',(#638,#639,#660,#661));
#638 = ORIENTED_EDGE('',*,*,#212,.F.);
#639 = ORIENTED_EDGE('',*,*,#640,.T.);
#640 = EDGE_CURVE('',#213,#454,#641,.T.);
#641 = SURFACE_CURVE('',#642,(#646,#653),.PCURVE_S1.);
#642 = LINE('',#643,#644);
#643 = CARTESIAN_POINT('',(42.696152422707,-9.,286.5));
#644 = VECTOR('',#645,1.);
#645 = DIRECTION('',(0.,0.,1.));
#646 = PCURVE('',#82,#647);
#647 = DEFINITIONAL_REPRESENTATION('',(#648),#652);
#648 = LINE('',#649,#650);
#649 = CARTESIAN_POINT('',(0.,0.));
#650 = VECTOR('',#651,1.);
#651 = DIRECTION('',(0.,-1.));
#652 = ( GEOMETRIC_REPRESENTATION_CONTEXT(2) 
PARAMETRIC_REPRESENTATION_CONTEXT() REPRESENTATION_CONTEXT('2D SPACE',''
  ) );
#653 = PCURVE('',#271,#654);
#654 = DEFINITIONAL_REPRESENTATION('',(#655),#659);
#655 = LINE('',#656,#657);
#656 = CARTESIAN_POINT('',(10.392304845413,0.));
#657 = VECTOR('',#658,1.);
#658 = DIRECTION('',(0.,-1.));
#659 = ( GEOMETRIC_REPRESENTATION_CONTEXT(2) 
PARAMETRIC_REPRESENTATION_CONTEXT() REPRESENTATION_CONTEXT('2D SPACE',''
  ) );
#660 = ORIENTED_EDGE('',*,*,#453,.F.);
#661 = ORIENTED_EDGE('',*,*,#66,.F.);
#662 = ADVANCED_FACE('',(#663),#347,.F.);
#663 = FACE_BOUND('',#664,.F.);
#664 = EDGE_LOOP('',(#665,#666,#667,#668));
#665 = ORIENTED_EDGE('',*,*,#321,.F.);
#666 = ORIENTED_EDGE('',*,*,#429,.T.);
#667 = ORIENTED_EDGE('',*,*,#539,.F.);
#668 = ORIENTED_EDGE('',*,*,#669,.F.);
#669 = EDGE_CURVE('',#284,#540,#670,.T.);
#670 = SURFACE_CURVE('',#671,(#675,#682),.PCURVE_S1.);
#671 = LINE('',#672,#673);
#672 = CARTESIAN_POINT('',(27.107695154587,1.27269028647E-15,286.5));
#673 = VECTOR('',#674,1.);
#674 = DIRECTION('',(0.,0.,1.));
#675 = PCURVE('',#347,#676);
#676 = DEFINITIONAL_REPRESENTATION('',(#677),#681);
#677 = LINE('',#678,#679);
#678 = CARTESIAN_POINT('',(10.392304845413,0.));
#679 = VECTOR('',#680,1.);
#680 = DIRECTION('',(0.,-1.));
#681 = ( GEOMETRIC_REPRESENTATION_CONTEXT(2) 
PARAMETRIC_REPRESENTATION_CONTEXT() REPRESENTATION_CONTEXT('2D SPACE',''
  ) );
#682 = PCURVE('',#309,#683);
#683 = DEFINITIONAL_REPRESENTATION('',(#684),#688);
#684 = LINE('',#685,#686);
#685 = CARTESIAN_POINT('',(0.,0.));
#686 = VECTOR('',#687,1.);
#687 = DIRECTION('',(0.,-1.));
#688 = ( GEOMETRIC_REPRESENTATION_CONTEXT(2) 
PARAMETRIC_REPRESENTATION_CONTEXT() REPRESENTATION_CONTEXT('2D SPACE',''
  ) );
#689 = ADVANCED_FACE('',(#690),#309,.F.);
#690 = FACE_BOUND('',#691,.F.);
#691 = EDGE_LOOP('',(#692,#693,#694,#695));
#692 = ORIENTED_EDGE('',*,*,#283,.F.);
#693 = ORIENTED_EDGE('',*,*,#669,.T.);
#694 = ORIENTED_EDGE('',*,*,#572,.F.);
#695 = ORIENTED_EDGE('',*,*,#696,.F.);
#696 = EDGE_CURVE('',#246,#573,#697,.T.);
#697 = SURFACE_CURVE('',#698,(#702,#709),.PCURVE_S1.);
#698 = LINE('',#699,#700);
#699 = CARTESIAN_POINT('',(32.303847577293,-9.,286.5));
#700 = VECTOR('',#701,1.);
#701 = DIRECTION('',(0.,0.,1.));
#702 = PCURVE('',#309,#703);
#703 = DEFINITIONAL_REPRESENTATION('',(#704),#708);
#704 = LINE('',#705,#706);
#705 = CARTESIAN_POINT('',(10.392304845413,0.));
#706 = VECTOR('',#707,1.);
#707 = DIRECTION('',(0.,-1.));
#708 = ( GEOMETRIC_REPRESENTATION_CONTEXT(2) 
PARAMETRIC_REPRESENTATION_CONTEXT() REPRESENTATION_CONTEXT('2D SPACE',''
  ) );
#709 = PCURVE('',#271,#710);
#710 = DEFINITIONAL_REPRESENTATION('',(#711),#715);
#711 = LINE('',#712,#713);
#712 = CARTESIAN_POINT('',(0.,0.));
#713 = VECTOR('',#714,1.);
#714 = DIRECTION('',(0.,-1.));
#715 = ( GEOMETRIC_REPRESENTATION_CONTEXT(2) 
PARAMETRIC_REPRESENTATION_CONTEXT() REPRESENTATION_CONTEXT('2D SPACE',''
  ) );
#716 = ADVANCED_FACE('',(#717),#271,.F.);
#717 = FACE_BOUND('',#718,.F.);
#718 = EDGE_LOOP('',(#719,#720,#721,#722));
#719 = ORIENTED_EDGE('',*,*,#245,.F.);
#720 = ORIENTED_EDGE('',*,*,#696,.T.);
#721 = ORIENTED_EDGE('',*,*,#605,.F.);
#722 = ORIENTED_EDGE('',*,*,#640,.F.);
#723 = ADVANCED_FACE('',(#724,#727),#199,.F.);
#724 = FACE_BOUND('',#725,.T.);
#725 = EDGE_LOOP('',(#726));
#726 = ORIENTED_EDGE('',*,*,#184,.F.);
#727 = FACE_BOUND('',#728,.T.);
#728 = EDGE_LOOP('',(#729));
#729 = ORIENTED_EDGE('',*,*,#730,.T.);
#730 = EDGE_CURVE('',#731,#731,#733,.T.);
#731 = VERTEX_POINT('',#732);
#732 = CARTESIAN_POINT('',(43.5,-1.469576158977E-15,286.5));
#733 = SURFACE_CURVE('',#734,(#739,#746),.PCURVE_S1.);
#734 = CIRCLE('',#735,6.);
#735 = AXIS2_PLACEMENT_3D('',#736,#737,#738);
#736 = CARTESIAN_POINT('',(37.5,0.,286.5));
#737 = DIRECTION('',(0.,0.,1.));
#738 = DIRECTION('',(1.,0.,-0.));
#739 = PCURVE('',#199,#740);
#740 = DEFINITIONAL_REPRESENTATION('',(#741),#745);
#741 = CIRCLE('',#742,6.);
#742 = AXIS2_PLACEMENT_2D('',#743,#744);
#743 = CARTESIAN_POINT('',(0.,0.));
#744 = DIRECTION('',(1.,-0.));
#745 = ( GEOMETRIC_REPRESENTATION_CONTEXT(2) 
PARAMETRIC_REPRESENTATION_CONTEXT() REPRESENTATION_CONTEXT('2D SPACE',''
  ) );
#746 = PCURVE('',#747,#752);
#747 = CYLINDRICAL_SURFACE('',#748,6.);
#748 = AXIS2_PLACEMENT_3D('',#749,#750,#751);
#749 = CARTESIAN_POINT('',(37.5,0.,285.5));
#750 = DIRECTION('',(0.,0.,1.));
#751 = DIRECTION('',(1.,0.,-0.));
#752 = DEFINITIONAL_REPRESENTATION('',(#753),#757);
#753 = LINE('',#754,#755);
#754 = CARTESIAN_POINT('',(0.,1.));
#755 = VECTOR('',#756,1.);
#756 = DIRECTION('',(1.,0.));
#757 = ( GEOMETRIC_REPRESENTATION_CONTEXT(2) 
PARAMETRIC_REPRESENTATION_CONTEXT() REPRESENTATION_CONTEXT('2D SPACE',''
  ) );
#758 = ADVANCED_FACE('',(#759,#762),#524,.T.);
#759 = FACE_BOUND('',#760,.T.);
#760 = EDGE_LOOP('',(#761));
#761 = ORIENTED_EDGE('',*,*,#509,.T.);
#762 = FACE_BOUND('',#763,.T.);
#763 = EDGE_LOOP('',(#764));
#764 = ORIENTED_EDGE('',*,*,#765,.F.);
#765 = EDGE_CURVE('',#766,#766,#768,.T.);
#766 = VERTEX_POINT('',#767);
#767 = CARTESIAN_POINT('',(43.5,-1.469576158977E-15,296.5));
#768 = SURFACE_CURVE('',#769,(#774,#781),.PCURVE_S1.);
#769 = CIRCLE('',#770,6.);
#770 = AXIS2_PLACEMENT_3D('',#771,#772,#773);
#771 = CARTESIAN_POINT('',(37.5,0.,296.5));
#772 = DIRECTION('',(0.,0.,1.));
#773 = DIRECTION('',(1.,0.,-0.));
#774 = PCURVE('',#524,#775);
#775 = DEFINITIONAL_REPRESENTATION('',(#776),#780);
#776 = CIRCLE('',#777,6.);
#777 = AXIS2_PLACEMENT_2D('',#778,#779);
#778 = CARTESIAN_POINT('',(0.,0.));
#779 = DIRECTION('',(1.,0.));
#780 = ( GEOMETRIC_REPRESENTATION_CONTEXT(2) 
PARAMETRIC_REPRESENTATION_CONTEXT() REPRESENTATION_CONTEXT('2D SPACE',''
  ) );
#781 = PCURVE('',#747,#782);
#782 = DEFINITIONAL_REPRESENTATION('',(#783),#787);
#783 = LINE('',#784,#785);
#784 = CARTESIAN_POINT('',(0.,11.));
#785 = VECTOR('',#786,1.);
#786 = DIRECTION('',(1.,0.));
#787 = ( GEOMETRIC_REPRESENTATION_CONTEXT(2) 
PARAMETRIC_REPRESENTATION_CONTEXT() REPRESENTATION_CONTEXT('2D SPACE',''
  ) );
#788 = ADVANCED_FACE('',(#789),#747,.F.);
#789 = FACE_BOUND('',#790,.F.);
#790 = EDGE_LOOP('',(#791,#792,#813,#814));
#791 = ORIENTED_EDGE('',*,*,#765,.F.);
#792 = ORIENTED_EDGE('',*,*,#793,.F.);
#793 = EDGE_CURVE('',#731,#766,#794,.T.);
#794 = SEAM_CURVE('',#795,(#799,#806),.PCURVE_S1.);
#795 = LINE('',#796,#797);
#796 = CARTESIAN_POINT('',(43.5,-1.469576158977E-15,285.5));
#797 = VECTOR('',#798,1.);
#798 = DIRECTION('',(0.,0.,1.));
#799 = PCURVE('',#747,#800);
#800 = DEFINITIONAL_REPRESENTATION('',(#801),#805);
#801 = LINE('',#802,#803);
#802 = CARTESIAN_POINT('',(6.28318530718,-0.));
#803 = VECTOR('',#804,1.);
#804 = DIRECTION('',(0.,1.));
#805 = ( GEOMETRIC_REPRESENTATION_CONTEXT(2) 
PARAMETRIC_REPRESENTATION_CONTEXT() REPRESENTATION_CONTEXT('2D SPACE',''
  ) );
#806 = PCURVE('',#747,#807);
#807 = DEFINITIONAL_REPRESENTATION('',(#808),#812);
#808 = LINE('',#809,#810);
#809 = CARTESIAN_POINT('',(0.,-0.));
#810 = VECTOR('',#811,1.);
#811 = DIRECTION('',(0.,1.));
#812 = ( GEOMETRIC_REPRESENTATION_CONTEXT(2) 
PARAMETRIC_REPRESENTATION_CONTEXT() REPRESENTATION_CONTEXT('2D SPACE',''
  ) );
#813 = ORIENTED_EDGE('',*,*,#730,.T.);
#814 = ORIENTED_EDGE('',*,*,#793,.T.);
#815 = ( GEOMETRIC_REPRESENTATION_CONTEXT(3) 
GLOBAL_UNCERTAINTY_ASSIGNED_CONTEXT((#819)) GLOBAL_UNIT_ASSIGNED_CONTEXT
((#816,#817,#818)) REPRESENTATION_CONTEXT('Context #1',
  '3D Context with UNIT and UNCERTAINTY') );
#816 = ( LENGTH_UNIT() NAMED_UNIT(*) SI_UNIT(.MILLI.,.METRE.) );
#817 = ( NAMED_UNIT(*) PLANE_ANGLE_UNIT() SI_UNIT($,.RADIAN.) );
#818 = ( NAMED_UNIT(*) SI_UNIT($,.STERADIAN.) SOLID_ANGLE_UNIT() );
#819 = UNCERTAINTY_MEASURE_WITH_UNIT(LENGTH_MEASURE(2.E-07),#816,
  'distance_accuracy_value','confusion accuracy');
#820 = PRODUCT_RELATED_PRODUCT_CATEGORY('part',$,(#7));
ENDSEC;
END-ISO-10303-21;
