ISO-10303-21;
HEADER;
FILE_DESCRIPTION(('Open CASCADE Model'),'2;1');
FILE_NAME('Open CASCADE Shape Model','2026-09-23T09:52:57',('Author'),(
    'Open CASCADE'),'Open CASCADE STEP processor 7.9','Open CASCADE 7.9'
  ,'Unknown');
FILE_SCHEMA(('AUTOMOTIVE_DESIGN { 1 0 10303 214 1 1 1 1 }'));
ENDSEC;
DATA;
#1 = APPLICATION_PROTOCOL_DEFINITION('international standard',
  'automotive_design',2000,#2);
#2 = APPLICATION_CONTEXT(
  'core data for automotive mechanical design processes');
#3 = SHAPE_DEFINITION_REPRESENTATION(#4,#10);
#4 = PRODUCT_DEFINITION_SHAPE('','',#5);
#5 = PRODUCT_DEFINITION('design','',#6,#9);
#6 = PRODUCT_DEFINITION_FORMATION('','',#7);
#7 = PRODUCT('Open CASCADE STEP translator 7.9 56',
  'Open CASCADE STEP translator 7.9 56','',(#8));
#8 = PRODUCT_CONTEXT('',#2,'mechanical');
#9 = PRODUCT_DEFINITION_CONTEXT('part definition',#2,'design');
#10 = ADVANCED_BREP_SHAPE_REPRESENTATION('',(#11,#15),#831);
#11 = AXIS2_PLACEMENT_3D('',#12,#13,#14);
#12 = CARTESIAN_POINT('',(0.,0.,0.));
#13 = DIRECTION('',(0.,0.,1.));
#14 = DIRECTION('',(1.,0.,-0.));
#15 = MANIFOLD_SOLID_BREP('',#16);
#16 = CLOSED_SHELL('',(#17,#157,#394,#453,#643,#670,#697,#724,#731,#770,
    #804));
#17 = ADVANCED_FACE('',(#18),#33,.F.);
#18 = FACE_BOUND('',#19,.T.);
#19 = EDGE_LOOP('',(#20,#65,#93,#131));
#20 = ORIENTED_EDGE('',*,*,#21,.F.);
#21 = EDGE_CURVE('',#22,#24,#26,.T.);
#22 = VERTEX_POINT('',#23);
#23 = CARTESIAN_POINT('',(-69.29275146546,34.441508912858,
    125.58179306876));
#24 = VERTEX_POINT('',#25);
#25 = CARTESIAN_POINT('',(-76.22095469574,46.441508912858,
    125.58179306876));
#26 = SURFACE_CURVE('',#27,(#32,#44),.PCURVE_S1.);
#27 = HYPERBOLA('',#28,6.928203230276,12.);
#28 = AXIS2_PLACEMENT_3D('',#29,#30,#31);
#29 = CARTESIAN_POINT('',(-72.7568530806,40.441508912858,133.58179306876
    ));
#30 = DIRECTION('',(0.866025403784,0.5,-0.));
#31 = DIRECTION('',(-0.,-0.,-1.));
#32 = PCURVE('',#33,#38);
#33 = PLANE('',#34);
#34 = AXIS2_PLACEMENT_3D('',#35,#36,#37);
#35 = CARTESIAN_POINT('',(-69.29275146546,34.441508912858,127.));
#36 = DIRECTION('',(-0.866025403784,-0.5,-0.));
#37 = DIRECTION('',(0.5,-0.866025403784,0.));
#38 = DEFINITIONAL_REPRESENTATION('',(#39),#43);
#39 = HYPERBOLA('',#40,6.928203230276,12.);
#40 = AXIS2_PLACEMENT_2D('',#41,#42);
#41 = CARTESIAN_POINT('',(-6.928203230276,6.581793068762));
#42 = DIRECTION('',(-0.,-1.));
#43 = ( GEOMETRIC_REPRESENTATION_CONTEXT(2) 
PARAMETRIC_REPRESENTATION_CONTEXT() REPRESENTATION_CONTEXT('2D SPACE',''
  ) );
#44 = PCURVE('',#45,#50);
#45 = CONICAL_SURFACE('',#46,11.4,1.047197551197);
#46 = AXIS2_PLACEMENT_3D('',#47,#48,#49);
#47 = CARTESIAN_POINT('',(-83.14915792601,34.441508912858,127.));
#48 = DIRECTION('',(-0.,-0.,-1.));
#49 = DIRECTION('',(1.,-0.,-0.));
#50 = DEFINITIONAL_REPRESENTATION('',(#51),#64);
#51 = B_SPLINE_CURVE_WITH_KNOTS('',6,(#52,#53,#54,#55,#56,#57,#58,#59,
    #60,#61,#62,#63),.UNSPECIFIED.,.F.,.F.,(7,5,7),(-0.549306144334,
    3.377617024454E-02,0.616858484823),.UNSPECIFIED.);
#52 = CARTESIAN_POINT('',(0.,1.418206931238));
#53 = CARTESIAN_POINT('',(-8.416068282042E-02,1.029485388186));
#54 = CARTESIAN_POINT('',(-0.17322817737,0.731426455171));
#55 = CARTESIAN_POINT('',(-0.266489987689,0.517422558823));
#56 = CARTESIAN_POINT('',(-0.362736899824,0.383432832955));
#57 = CARTESIAN_POINT('',(-0.460243546564,0.327617158572));
#58 = CARTESIAN_POINT('',(-0.654493504498,0.37310781575));
#59 = CARTESIAN_POINT('',(-0.751235698022,0.474414160126));
#60 = CARTESIAN_POINT('',(-0.845950968104,0.654667782337));
#61 = CARTESIAN_POINT('',(-0.937031697996,0.916482444891));
#62 = CARTESIAN_POINT('',(-1.023461104881,1.264715203324));
#63 = CARTESIAN_POINT('',(-1.104690668307,1.706882065833));
#64 = ( GEOMETRIC_REPRESENTATION_CONTEXT(2) 
PARAMETRIC_REPRESENTATION_CONTEXT() REPRESENTATION_CONTEXT('2D SPACE',''
  ) );
#65 = ORIENTED_EDGE('',*,*,#66,.T.);
#66 = EDGE_CURVE('',#22,#67,#69,.T.);
#67 = VERTEX_POINT('',#68);
#68 = CARTESIAN_POINT('',(-69.29275146546,34.441508912858,
    115.41820693123));
#69 = SURFACE_CURVE('',#70,(#74,#81),.PCURVE_S1.);
#70 = LINE('',#71,#72);
#71 = CARTESIAN_POINT('',(-69.29275146546,34.441508912858,127.));
#72 = VECTOR('',#73,1.);
#73 = DIRECTION('',(-0.,-0.,-1.));
#74 = PCURVE('',#33,#75);
#75 = DEFINITIONAL_REPRESENTATION('',(#76),#80);
#76 = LINE('',#77,#78);
#77 = CARTESIAN_POINT('',(-0.,0.));
#78 = VECTOR('',#79,1.);
#79 = DIRECTION('',(-0.,-1.));
#80 = ( GEOMETRIC_REPRESENTATION_CONTEXT(2) 
PARAMETRIC_REPRESENTATION_CONTEXT() REPRESENTATION_CONTEXT('2D SPACE',''
  ) );
#81 = PCURVE('',#82,#87);
#82 = PLANE('',#83);
#83 = AXIS2_PLACEMENT_3D('',#84,#85,#86);
#84 = CARTESIAN_POINT('',(-76.22095469574,22.441508912858,127.));
#85 = DIRECTION('',(-0.866025403784,0.5,-0.));
#86 = DIRECTION('',(-0.5,-0.866025403784,0.));
#87 = DEFINITIONAL_REPRESENTATION('',(#88),#92);
#88 = LINE('',#89,#90);
#89 = CARTESIAN_POINT('',(-13.85640646055,0.));
#90 = VECTOR('',#91,1.);
#91 = DIRECTION('',(-0.,-1.));
#92 = ( GEOMETRIC_REPRESENTATION_CONTEXT(2) 
PARAMETRIC_REPRESENTATION_CONTEXT() REPRESENTATION_CONTEXT('2D SPACE',''
  ) );
#93 = ORIENTED_EDGE('',*,*,#94,.F.);
#94 = EDGE_CURVE('',#95,#67,#97,.T.);
#95 = VERTEX_POINT('',#96);
#96 = CARTESIAN_POINT('',(-76.22095469574,46.441508912858,
    115.41820693123));
#97 = SURFACE_CURVE('',#98,(#103,#110),.PCURVE_S1.);
#98 = HYPERBOLA('',#99,6.928203230276,12.);
#99 = AXIS2_PLACEMENT_3D('',#100,#101,#102);
#100 = CARTESIAN_POINT('',(-72.7568530806,40.441508912858,
    107.41820693123));
#101 = DIRECTION('',(0.866025403784,0.5,0.));
#102 = DIRECTION('',(-0.,0.,1.));
#103 = PCURVE('',#33,#104);
#104 = DEFINITIONAL_REPRESENTATION('',(#105),#109);
#105 = HYPERBOLA('',#106,6.928203230276,12.);
#106 = AXIS2_PLACEMENT_2D('',#107,#108);
#107 = CARTESIAN_POINT('',(-6.928203230276,-19.58179306876));
#108 = DIRECTION('',(-0.,1.));
#109 = ( GEOMETRIC_REPRESENTATION_CONTEXT(2) 
PARAMETRIC_REPRESENTATION_CONTEXT() REPRESENTATION_CONTEXT('2D SPACE',''
  ) );
#110 = PCURVE('',#111,#116);
#111 = CONICAL_SURFACE('',#112,14.356406460551,1.047197551197);
#112 = AXIS2_PLACEMENT_3D('',#113,#114,#115);
#113 = CARTESIAN_POINT('',(-83.14915792601,34.441508912858,
    115.70688206583));
#114 = DIRECTION('',(0.,0.,1.));
#115 = DIRECTION('',(1.,-0.,-0.));
#116 = DEFINITIONAL_REPRESENTATION('',(#117),#130);
#117 = B_SPLINE_CURVE_WITH_KNOTS('',6,(#118,#119,#120,#121,#122,#123,
    #124,#125,#126,#127,#128,#129),.UNSPECIFIED.,.F.,.F.,(7,5,7),(
    -0.616858484823,-3.377617024454E-02,0.549306144334),.UNSPECIFIED.);
#118 = CARTESIAN_POINT('',(1.104690668307,-3.250958647034E-16));
#119 = CARTESIAN_POINT('',(1.023461104881,-0.44216686251));
#120 = CARTESIAN_POINT('',(0.937031697996,-0.790399620942));
#121 = CARTESIAN_POINT('',(0.845950968104,-1.052214283497));
#122 = CARTESIAN_POINT('',(0.751235698022,-1.232467905707));
#123 = CARTESIAN_POINT('',(0.654493504498,-1.333774250083));
#124 = CARTESIAN_POINT('',(0.460243546564,-1.379264907261));
#125 = CARTESIAN_POINT('',(0.362736899824,-1.323449232878));
#126 = CARTESIAN_POINT('',(0.266489987689,-1.18945950701));
#127 = CARTESIAN_POINT('',(0.17322817737,-0.975455610662));
#128 = CARTESIAN_POINT('',(8.416068282042E-02,-0.677396677647));
#129 = CARTESIAN_POINT('',(0.,-0.288675134595));
#130 = ( GEOMETRIC_REPRESENTATION_CONTEXT(2) 
PARAMETRIC_REPRESENTATION_CONTEXT() REPRESENTATION_CONTEXT('2D SPACE',''
  ) );
#131 = ORIENTED_EDGE('',*,*,#132,.F.);
#132 = EDGE_CURVE('',#24,#95,#133,.T.);
#133 = SURFACE_CURVE('',#134,(#138,#145),.PCURVE_S1.);
#134 = LINE('',#135,#136);
#135 = CARTESIAN_POINT('',(-76.22095469574,46.441508912858,127.));
#136 = VECTOR('',#137,1.);
#137 = DIRECTION('',(-0.,-0.,-1.));
#138 = PCURVE('',#33,#139);
#139 = DEFINITIONAL_REPRESENTATION('',(#140),#144);
#140 = LINE('',#141,#142);
#141 = CARTESIAN_POINT('',(-13.85640646055,0.));
#142 = VECTOR('',#143,1.);
#143 = DIRECTION('',(-0.,-1.));
#144 = ( GEOMETRIC_REPRESENTATION_CONTEXT(2) 
PARAMETRIC_REPRESENTATION_CONTEXT() REPRESENTATION_CONTEXT('2D SPACE',''
  ) );
#145 = PCURVE('',#146,#151);
#146 = PLANE('',#147);
#147 = AXIS2_PLACEMENT_3D('',#148,#149,#150);
#148 = CARTESIAN_POINT('',(-76.22095469574,46.441508912858,127.));
#149 = DIRECTION('',(-1.281975124256E-16,-1.,-0.));
#150 = DIRECTION('',(1.,-1.281975124256E-16,0.));
#151 = DEFINITIONAL_REPRESENTATION('',(#152),#156);
#152 = LINE('',#153,#154);
#153 = CARTESIAN_POINT('',(-0.,0.));
#154 = VECTOR('',#155,1.);
#155 = DIRECTION('',(-0.,-1.));
#156 = ( GEOMETRIC_REPRESENTATION_CONTEXT(2) 
PARAMETRIC_REPRESENTATION_CONTEXT() REPRESENTATION_CONTEXT('2D SPACE',''
  ) );
#157 = ADVANCED_FACE('',(#158),#45,.T.);
#158 = FACE_BOUND('',#159,.F.);
#159 = EDGE_LOOP('',(#160,#183,#214,#215,#248,#286,#324,#362,#393));
#160 = ORIENTED_EDGE('',*,*,#161,.F.);
#161 = EDGE_CURVE('',#162,#22,#164,.T.);
#162 = VERTEX_POINT('',#163);
#163 = CARTESIAN_POINT('',(-71.74915792601,34.441508912858,127.));
#164 = SEAM_CURVE('',#165,(#169,#176),.PCURVE_S1.);
#165 = LINE('',#166,#167);
#166 = CARTESIAN_POINT('',(-71.74915792601,34.441508912858,127.));
#167 = VECTOR('',#168,1.);
#168 = DIRECTION('',(0.866025403784,-0.,-0.5));
#169 = PCURVE('',#45,#170);
#170 = DEFINITIONAL_REPRESENTATION('',(#171),#175);
#171 = LINE('',#172,#173);
#172 = CARTESIAN_POINT('',(-0.,0.));
#173 = VECTOR('',#174,1.);
#174 = DIRECTION('',(-0.,1.));
#175 = ( GEOMETRIC_REPRESENTATION_CONTEXT(2) 
PARAMETRIC_REPRESENTATION_CONTEXT() REPRESENTATION_CONTEXT('2D SPACE',''
  ) );
#176 = PCURVE('',#45,#177);
#177 = DEFINITIONAL_REPRESENTATION('',(#178),#182);
#178 = LINE('',#179,#180);
#179 = CARTESIAN_POINT('',(-6.28318530718,0.));
#180 = VECTOR('',#181,1.);
#181 = DIRECTION('',(-0.,1.));
#182 = ( GEOMETRIC_REPRESENTATION_CONTEXT(2) 
PARAMETRIC_REPRESENTATION_CONTEXT() REPRESENTATION_CONTEXT('2D SPACE',''
  ) );
#183 = ORIENTED_EDGE('',*,*,#184,.T.);
#184 = EDGE_CURVE('',#162,#162,#185,.T.);
#185 = SURFACE_CURVE('',#186,(#191,#198),.PCURVE_S1.);
#186 = CIRCLE('',#187,11.4);
#187 = AXIS2_PLACEMENT_3D('',#188,#189,#190);
#188 = CARTESIAN_POINT('',(-83.14915792601,34.441508912858,127.));
#189 = DIRECTION('',(0.,0.,1.));
#190 = DIRECTION('',(1.,-0.,-0.));
#191 = PCURVE('',#45,#192);
#192 = DEFINITIONAL_REPRESENTATION('',(#193),#197);
#193 = LINE('',#194,#195);
#194 = CARTESIAN_POINT('',(-0.,0.));
#195 = VECTOR('',#196,1.);
#196 = DIRECTION('',(-1.,0.));
#197 = ( GEOMETRIC_REPRESENTATION_CONTEXT(2) 
PARAMETRIC_REPRESENTATION_CONTEXT() REPRESENTATION_CONTEXT('2D SPACE',''
  ) );
#198 = PCURVE('',#199,#204);
#199 = PLANE('',#200);
#200 = AXIS2_PLACEMENT_3D('',#201,#202,#203);
#201 = CARTESIAN_POINT('',(-83.14915792601,34.441508912858,127.));
#202 = DIRECTION('',(-0.,-0.,-1.));
#203 = DIRECTION('',(-1.,-0.,-0.));
#204 = DEFINITIONAL_REPRESENTATION('',(#205),#213);
#205 = ( BOUNDED_CURVE() B_SPLINE_CURVE(2,(#206,#207,#208,#209,#210,#211
,#212),.UNSPECIFIED.,.T.,.F.) B_SPLINE_CURVE_WITH_KNOTS((1,2,2,2,2,1),(
    -2.094395102393,0.,2.094395102393,4.188790204786,6.28318530718,
8.377580409573),.UNSPECIFIED.) CURVE() GEOMETRIC_REPRESENTATION_ITEM() 
RATIONAL_B_SPLINE_CURVE((1.,0.5,1.,0.5,1.,0.5,1.)) REPRESENTATION_ITEM(
  '') );
#206 = CARTESIAN_POINT('',(-11.4,0.));
#207 = CARTESIAN_POINT('',(-11.4,19.745379206285));
#208 = CARTESIAN_POINT('',(5.7,9.872689603143));
#209 = CARTESIAN_POINT('',(22.8,2.792194702056E-15));
#210 = CARTESIAN_POINT('',(5.7,-9.872689603143));
#211 = CARTESIAN_POINT('',(-11.4,-19.74537920628));
#212 = CARTESIAN_POINT('',(-11.4,0.));
#213 = ( GEOMETRIC_REPRESENTATION_CONTEXT(2) 
PARAMETRIC_REPRESENTATION_CONTEXT() REPRESENTATION_CONTEXT('2D SPACE',''
  ) );
#214 = ORIENTED_EDGE('',*,*,#161,.T.);
#215 = ORIENTED_EDGE('',*,*,#216,.F.);
#216 = EDGE_CURVE('',#217,#22,#219,.T.);
#217 = VERTEX_POINT('',#218);
#218 = CARTESIAN_POINT('',(-76.22095469574,22.441508912858,
    125.58179306876));
#219 = SURFACE_CURVE('',#220,(#225,#241),.PCURVE_S1.);
#220 = HYPERBOLA('',#221,6.928203230276,12.);
#221 = AXIS2_PLACEMENT_3D('',#222,#223,#224);
#222 = CARTESIAN_POINT('',(-72.7568530806,28.441508912858,
    133.58179306876));
#223 = DIRECTION('',(0.866025403784,-0.5,0.));
#224 = DIRECTION('',(-0.,-0.,-1.));
#225 = PCURVE('',#45,#226);
#226 = DEFINITIONAL_REPRESENTATION('',(#227),#240);
#227 = B_SPLINE_CURVE_WITH_KNOTS('',6,(#228,#229,#230,#231,#232,#233,
    #234,#235,#236,#237,#238,#239),.UNSPECIFIED.,.F.,.F.,(7,5,7),(
    -0.616858484823,-3.377617024454E-02,0.549306144334),.UNSPECIFIED.);
#228 = CARTESIAN_POINT('',(-5.178494638873,1.706882065833));
#229 = CARTESIAN_POINT('',(-5.259724202299,1.264715203324));
#230 = CARTESIAN_POINT('',(-5.346153609184,0.916482444891));
#231 = CARTESIAN_POINT('',(-5.437234339075,0.654667782337));
#232 = CARTESIAN_POINT('',(-5.531949609158,0.474414160126));
#233 = CARTESIAN_POINT('',(-5.628691802682,0.37310781575));
#234 = CARTESIAN_POINT('',(-5.822941760615,0.327617158572));
#235 = CARTESIAN_POINT('',(-5.920448407356,0.383432832955));
#236 = CARTESIAN_POINT('',(-6.01669531949,0.517422558823));
#237 = CARTESIAN_POINT('',(-6.10995712981,0.731426455171));
#238 = CARTESIAN_POINT('',(-6.199024624359,1.029485388186));
#239 = CARTESIAN_POINT('',(-6.28318530718,1.418206931238));
#240 = ( GEOMETRIC_REPRESENTATION_CONTEXT(2) 
PARAMETRIC_REPRESENTATION_CONTEXT() REPRESENTATION_CONTEXT('2D SPACE',''
  ) );
#241 = PCURVE('',#82,#242);
#242 = DEFINITIONAL_REPRESENTATION('',(#243),#247);
#243 = HYPERBOLA('',#244,6.928203230276,12.);
#244 = AXIS2_PLACEMENT_2D('',#245,#246);
#245 = CARTESIAN_POINT('',(-6.928203230276,6.581793068762));
#246 = DIRECTION('',(-0.,-1.));
#247 = ( GEOMETRIC_REPRESENTATION_CONTEXT(2) 
PARAMETRIC_REPRESENTATION_CONTEXT() REPRESENTATION_CONTEXT('2D SPACE',''
  ) );
#248 = ORIENTED_EDGE('',*,*,#249,.F.);
#249 = EDGE_CURVE('',#250,#217,#252,.T.);
#250 = VERTEX_POINT('',#251);
#251 = CARTESIAN_POINT('',(-90.07736115629,22.441508912858,
    125.58179306876));
#252 = SURFACE_CURVE('',#253,(#258,#274),.PCURVE_S1.);
#253 = HYPERBOLA('',#254,6.928203230276,12.);
#254 = AXIS2_PLACEMENT_3D('',#255,#256,#257);
#255 = CARTESIAN_POINT('',(-83.14915792601,22.441508912858,
    133.58179306876));
#256 = DIRECTION('',(-7.691850745534E-16,-1.,0.));
#257 = DIRECTION('',(-0.,-0.,-1.));
#258 = PCURVE('',#45,#259);
#259 = DEFINITIONAL_REPRESENTATION('',(#260),#273);
#260 = B_SPLINE_CURVE_WITH_KNOTS('',6,(#261,#262,#263,#264,#265,#266,
    #267,#268,#269,#270,#271,#272),.UNSPECIFIED.,.F.,.F.,(7,5,7),(
    -0.616858484823,1.110223024625E-16,0.616858484823),.UNSPECIFIED.);
#261 = CARTESIAN_POINT('',(-4.131297087676,1.706882065833));
#262 = CARTESIAN_POINT('',(-4.217232030591,1.239101833048));
#263 = CARTESIAN_POINT('',(-4.308986532946,0.876453512572));
#264 = CARTESIAN_POINT('',(-4.405912047715,0.61003795448));
#265 = CARTESIAN_POINT('',(-4.506770188167,0.434286273009));
#266 = CARTESIAN_POINT('',(-4.609579232914,0.346410161514));
#267 = CARTESIAN_POINT('',(-4.815198727855,0.346410161514));
#268 = CARTESIAN_POINT('',(-4.918007772602,0.434286273009));
#269 = CARTESIAN_POINT('',(-5.018865913054,0.61003795448));
#270 = CARTESIAN_POINT('',(-5.115791427824,0.876453512572));
#271 = CARTESIAN_POINT('',(-5.207545930178,1.239101833048));
#272 = CARTESIAN_POINT('',(-5.293480873093,1.706882065833));
#273 = ( GEOMETRIC_REPRESENTATION_CONTEXT(2) 
PARAMETRIC_REPRESENTATION_CONTEXT() REPRESENTATION_CONTEXT('2D SPACE',''
  ) );
#274 = PCURVE('',#275,#280);
#275 = PLANE('',#276);
#276 = AXIS2_PLACEMENT_3D('',#277,#278,#279);
#277 = CARTESIAN_POINT('',(-90.07736115629,22.441508912858,127.));
#278 = DIRECTION('',(7.691850745534E-16,1.,-0.));
#279 = DIRECTION('',(-1.,7.691850745534E-16,0.));
#280 = DEFINITIONAL_REPRESENTATION('',(#281),#285);
#281 = HYPERBOLA('',#282,6.928203230276,12.);
#282 = AXIS2_PLACEMENT_2D('',#283,#284);
#283 = CARTESIAN_POINT('',(-6.928203230275,6.581793068762));
#284 = DIRECTION('',(-0.,-1.));
#285 = ( GEOMETRIC_REPRESENTATION_CONTEXT(2) 
PARAMETRIC_REPRESENTATION_CONTEXT() REPRESENTATION_CONTEXT('2D SPACE',''
  ) );
#286 = ORIENTED_EDGE('',*,*,#287,.F.);
#287 = EDGE_CURVE('',#288,#250,#290,.T.);
#288 = VERTEX_POINT('',#289);
#289 = CARTESIAN_POINT('',(-97.00556438656,34.441508912858,
    125.58179306876));
#290 = SURFACE_CURVE('',#291,(#296,#312),.PCURVE_S1.);
#291 = HYPERBOLA('',#292,6.928203230276,12.);
#292 = AXIS2_PLACEMENT_3D('',#293,#294,#295);
#293 = CARTESIAN_POINT('',(-93.54146277142,28.441508912858,
    133.58179306876));
#294 = DIRECTION('',(-0.866025403784,-0.5,0.));
#295 = DIRECTION('',(-0.,-0.,-1.));
#296 = PCURVE('',#45,#297);
#297 = DEFINITIONAL_REPRESENTATION('',(#298),#311);
#298 = B_SPLINE_CURVE_WITH_KNOTS('',6,(#299,#300,#301,#302,#303,#304,
    #305,#306,#307,#308,#309,#310),.UNSPECIFIED.,.F.,.F.,(7,5,7),(
    -0.616858484823,-2.22044604925E-16,0.616858484823),.UNSPECIFIED.);
#299 = CARTESIAN_POINT('',(-3.08409953648,1.706882065833));
#300 = CARTESIAN_POINT('',(-3.170034479394,1.239101833048));
#301 = CARTESIAN_POINT('',(-3.261788981749,0.876453512572));
#302 = CARTESIAN_POINT('',(-3.358714496519,0.61003795448));
#303 = CARTESIAN_POINT('',(-3.459572636971,0.434286273008));
#304 = CARTESIAN_POINT('',(-3.562381681718,0.346410161514));
#305 = CARTESIAN_POINT('',(-3.768001176659,0.346410161514));
#306 = CARTESIAN_POINT('',(-3.870810221405,0.434286273009));
#307 = CARTESIAN_POINT('',(-3.971668361857,0.61003795448));
#308 = CARTESIAN_POINT('',(-4.068593876627,0.876453512572));
#309 = CARTESIAN_POINT('',(-4.160348378982,1.239101833048));
#310 = CARTESIAN_POINT('',(-4.246283321896,1.706882065833));
#311 = ( GEOMETRIC_REPRESENTATION_CONTEXT(2) 
PARAMETRIC_REPRESENTATION_CONTEXT() REPRESENTATION_CONTEXT('2D SPACE',''
  ) );
#312 = PCURVE('',#313,#318);
#313 = PLANE('',#314);
#314 = AXIS2_PLACEMENT_3D('',#315,#316,#317);
#315 = CARTESIAN_POINT('',(-97.00556438656,34.441508912858,127.));
#316 = DIRECTION('',(0.866025403784,0.5,-0.));
#317 = DIRECTION('',(-0.5,0.866025403784,0.));
#318 = DEFINITIONAL_REPRESENTATION('',(#319),#323);
#319 = HYPERBOLA('',#320,6.928203230276,12.);
#320 = AXIS2_PLACEMENT_2D('',#321,#322);
#321 = CARTESIAN_POINT('',(-6.928203230276,6.581793068762));
#322 = DIRECTION('',(-0.,-1.));
#323 = ( GEOMETRIC_REPRESENTATION_CONTEXT(2) 
PARAMETRIC_REPRESENTATION_CONTEXT() REPRESENTATION_CONTEXT('2D SPACE',''
  ) );
#324 = ORIENTED_EDGE('',*,*,#325,.F.);
#325 = EDGE_CURVE('',#326,#288,#328,.T.);
#326 = VERTEX_POINT('',#327);
#327 = CARTESIAN_POINT('',(-90.07736115629,46.441508912858,
    125.58179306876));
#328 = SURFACE_CURVE('',#329,(#334,#350),.PCURVE_S1.);
#329 = HYPERBOLA('',#330,6.928203230276,12.);
#330 = AXIS2_PLACEMENT_3D('',#331,#332,#333);
#331 = CARTESIAN_POINT('',(-93.54146277142,40.441508912858,
    133.58179306876));
#332 = DIRECTION('',(-0.866025403784,0.5,0.));
#333 = DIRECTION('',(-0.,-0.,-1.));
#334 = PCURVE('',#45,#335);
#335 = DEFINITIONAL_REPRESENTATION('',(#336),#349);
#336 = B_SPLINE_CURVE_WITH_KNOTS('',6,(#337,#338,#339,#340,#341,#342,
    #343,#344,#345,#346,#347,#348),.UNSPECIFIED.,.F.,.F.,(7,5,7),(
    -0.616858484823,-1.110223024625E-16,0.616858484823),.UNSPECIFIED.);
#337 = CARTESIAN_POINT('',(-2.036901985283,1.706882065833));
#338 = CARTESIAN_POINT('',(-2.122836928198,1.239101833048));
#339 = CARTESIAN_POINT('',(-2.214591430553,0.876453512572));
#340 = CARTESIAN_POINT('',(-2.311516945322,0.61003795448));
#341 = CARTESIAN_POINT('',(-2.412375085774,0.434286273009));
#342 = CARTESIAN_POINT('',(-2.515184130521,0.346410161514));
#343 = CARTESIAN_POINT('',(-2.720803625462,0.346410161514));
#344 = CARTESIAN_POINT('',(-2.823612670209,0.434286273009));
#345 = CARTESIAN_POINT('',(-2.924470810661,0.61003795448));
#346 = CARTESIAN_POINT('',(-3.02139632543,0.876453512572));
#347 = CARTESIAN_POINT('',(-3.113150827785,1.239101833048));
#348 = CARTESIAN_POINT('',(-3.1990857707,1.706882065833));
#349 = ( GEOMETRIC_REPRESENTATION_CONTEXT(2) 
PARAMETRIC_REPRESENTATION_CONTEXT() REPRESENTATION_CONTEXT('2D SPACE',''
  ) );
#350 = PCURVE('',#351,#356);
#351 = PLANE('',#352);
#352 = AXIS2_PLACEMENT_3D('',#353,#354,#355);
#353 = CARTESIAN_POINT('',(-90.07736115629,46.441508912858,127.));
#354 = DIRECTION('',(0.866025403784,-0.5,-0.));
#355 = DIRECTION('',(0.5,0.866025403784,0.));
#356 = DEFINITIONAL_REPRESENTATION('',(#357),#361);
#357 = HYPERBOLA('',#358,6.928203230276,12.);
#358 = AXIS2_PLACEMENT_2D('',#359,#360);
#359 = CARTESIAN_POINT('',(-6.928203230276,6.581793068762));
#360 = DIRECTION('',(-0.,-1.));
#361 = ( GEOMETRIC_REPRESENTATION_CONTEXT(2) 
PARAMETRIC_REPRESENTATION_CONTEXT() REPRESENTATION_CONTEXT('2D SPACE',''
  ) );
#362 = ORIENTED_EDGE('',*,*,#363,.F.);
#363 = EDGE_CURVE('',#24,#326,#364,.T.);
#364 = SURFACE_CURVE('',#365,(#370,#386),.PCURVE_S1.);
#365 = HYPERBOLA('',#366,6.928203230276,12.);
#366 = AXIS2_PLACEMENT_3D('',#367,#368,#369);
#367 = CARTESIAN_POINT('',(-83.14915792601,46.441508912858,
    133.58179306876));
#368 = DIRECTION('',(1.281975124256E-16,1.,-0.));
#369 = DIRECTION('',(-0.,-0.,-1.));
#370 = PCURVE('',#45,#371);
#371 = DEFINITIONAL_REPRESENTATION('',(#372),#385);
#372 = B_SPLINE_CURVE_WITH_KNOTS('',6,(#373,#374,#375,#376,#377,#378,
    #379,#380,#381,#382,#383,#384),.UNSPECIFIED.,.F.,.F.,(7,5,7),(
    -0.616858484823,-3.330669073875E-16,0.616858484823),.UNSPECIFIED.);
#373 = CARTESIAN_POINT('',(-0.989704434087,1.706882065833));
#374 = CARTESIAN_POINT('',(-1.075639377001,1.239101833048));
#375 = CARTESIAN_POINT('',(-1.167393879356,0.876453512572));
#376 = CARTESIAN_POINT('',(-1.264319394126,0.61003795448));
#377 = CARTESIAN_POINT('',(-1.365177534578,0.434286273009));
#378 = CARTESIAN_POINT('',(-1.467986579324,0.346410161514));
#379 = CARTESIAN_POINT('',(-1.673606074265,0.346410161514));
#380 = CARTESIAN_POINT('',(-1.776415119012,0.434286273009));
#381 = CARTESIAN_POINT('',(-1.877273259464,0.61003795448));
#382 = CARTESIAN_POINT('',(-1.974198774234,0.876453512572));
#383 = CARTESIAN_POINT('',(-2.065953276589,1.239101833048));
#384 = CARTESIAN_POINT('',(-2.151888219503,1.706882065833));
#385 = ( GEOMETRIC_REPRESENTATION_CONTEXT(2) 
PARAMETRIC_REPRESENTATION_CONTEXT() REPRESENTATION_CONTEXT('2D SPACE',''
  ) );
#386 = PCURVE('',#146,#387);
#387 = DEFINITIONAL_REPRESENTATION('',(#388),#392);
#388 = HYPERBOLA('',#389,6.928203230276,12.);
#389 = AXIS2_PLACEMENT_2D('',#390,#391);
#390 = CARTESIAN_POINT('',(-6.928203230276,6.581793068762));
#391 = DIRECTION('',(-0.,-1.));
#392 = ( GEOMETRIC_REPRESENTATION_CONTEXT(2) 
PARAMETRIC_REPRESENTATION_CONTEXT() REPRESENTATION_CONTEXT('2D SPACE',''
  ) );
#393 = ORIENTED_EDGE('',*,*,#21,.F.);
#394 = ADVANCED_FACE('',(#395),#146,.F.);
#395 = FACE_BOUND('',#396,.T.);
#396 = EDGE_LOOP('',(#397,#398,#399,#432));
#397 = ORIENTED_EDGE('',*,*,#363,.F.);
#398 = ORIENTED_EDGE('',*,*,#132,.T.);
#399 = ORIENTED_EDGE('',*,*,#400,.F.);
#400 = EDGE_CURVE('',#401,#95,#403,.T.);
#401 = VERTEX_POINT('',#402);
#402 = CARTESIAN_POINT('',(-90.07736115629,46.441508912858,
    115.41820693123));
#403 = SURFACE_CURVE('',#404,(#409,#416),.PCURVE_S1.);
#404 = HYPERBOLA('',#405,6.928203230276,12.);
#405 = AXIS2_PLACEMENT_3D('',#406,#407,#408);
#406 = CARTESIAN_POINT('',(-83.14915792601,46.441508912858,
    107.41820693123));
#407 = DIRECTION('',(1.281975124256E-16,1.,0.));
#408 = DIRECTION('',(-0.,0.,1.));
#409 = PCURVE('',#146,#410);
#410 = DEFINITIONAL_REPRESENTATION('',(#411),#415);
#411 = HYPERBOLA('',#412,6.928203230276,12.);
#412 = AXIS2_PLACEMENT_2D('',#413,#414);
#413 = CARTESIAN_POINT('',(-6.928203230276,-19.58179306876));
#414 = DIRECTION('',(-0.,1.));
#415 = ( GEOMETRIC_REPRESENTATION_CONTEXT(2) 
PARAMETRIC_REPRESENTATION_CONTEXT() REPRESENTATION_CONTEXT('2D SPACE',''
  ) );
#416 = PCURVE('',#111,#417);
#417 = DEFINITIONAL_REPRESENTATION('',(#418),#431);
#418 = B_SPLINE_CURVE_WITH_KNOTS('',6,(#419,#420,#421,#422,#423,#424,
    #425,#426,#427,#428,#429,#430),.UNSPECIFIED.,.F.,.F.,(7,5,7),(
    -0.616858484823,0.,0.616858484823),.UNSPECIFIED.);
#419 = CARTESIAN_POINT('',(2.151888219503,4.440892098501E-16));
#420 = CARTESIAN_POINT('',(2.065953276589,-0.467780232785));
#421 = CARTESIAN_POINT('',(1.974198774234,-0.830428553261));
#422 = CARTESIAN_POINT('',(1.877273259464,-1.096844111353));
#423 = CARTESIAN_POINT('',(1.776415119012,-1.272595792825));
#424 = CARTESIAN_POINT('',(1.673606074265,-1.360471904319));
#425 = CARTESIAN_POINT('',(1.467986579324,-1.360471904319));
#426 = CARTESIAN_POINT('',(1.365177534578,-1.272595792825));
#427 = CARTESIAN_POINT('',(1.264319394126,-1.096844111353));
#428 = CARTESIAN_POINT('',(1.167393879356,-0.830428553261));
#429 = CARTESIAN_POINT('',(1.075639377001,-0.467780232785));
#430 = CARTESIAN_POINT('',(0.989704434087,-3.250958647034E-16));
#431 = ( GEOMETRIC_REPRESENTATION_CONTEXT(2) 
PARAMETRIC_REPRESENTATION_CONTEXT() REPRESENTATION_CONTEXT('2D SPACE',''
  ) );
#432 = ORIENTED_EDGE('',*,*,#433,.F.);
#433 = EDGE_CURVE('',#326,#401,#434,.T.);
#434 = SURFACE_CURVE('',#435,(#439,#446),.PCURVE_S1.);
#435 = LINE('',#436,#437);
#436 = CARTESIAN_POINT('',(-90.07736115629,46.441508912858,127.));
#437 = VECTOR('',#438,1.);
#438 = DIRECTION('',(-0.,-0.,-1.));
#439 = PCURVE('',#146,#440);
#440 = DEFINITIONAL_REPRESENTATION('',(#441),#445);
#441 = LINE('',#442,#443);
#442 = CARTESIAN_POINT('',(-13.85640646055,0.));
#443 = VECTOR('',#444,1.);
#444 = DIRECTION('',(-0.,-1.));
#445 = ( GEOMETRIC_REPRESENTATION_CONTEXT(2) 
PARAMETRIC_REPRESENTATION_CONTEXT() REPRESENTATION_CONTEXT('2D SPACE',''
  ) );
#446 = PCURVE('',#351,#447);
#447 = DEFINITIONAL_REPRESENTATION('',(#448),#452);
#448 = LINE('',#449,#450);
#449 = CARTESIAN_POINT('',(0.,-0.));
#450 = VECTOR('',#451,1.);
#451 = DIRECTION('',(-0.,-1.));
#452 = ( GEOMETRIC_REPRESENTATION_CONTEXT(2) 
PARAMETRIC_REPRESENTATION_CONTEXT() REPRESENTATION_CONTEXT('2D SPACE',''
  ) );
#453 = ADVANCED_FACE('',(#454),#111,.T.);
#454 = FACE_BOUND('',#455,.F.);
#455 = EDGE_LOOP('',(#456,#489,#512,#543,#544,#545,#546,#579,#612));
#456 = ORIENTED_EDGE('',*,*,#457,.F.);
#457 = EDGE_CURVE('',#67,#458,#460,.T.);
#458 = VERTEX_POINT('',#459);
#459 = CARTESIAN_POINT('',(-76.22095469574,22.441508912858,
    115.41820693123));
#460 = SURFACE_CURVE('',#461,(#466,#482),.PCURVE_S1.);
#461 = HYPERBOLA('',#462,6.928203230276,12.);
#462 = AXIS2_PLACEMENT_3D('',#463,#464,#465);
#463 = CARTESIAN_POINT('',(-72.7568530806,28.441508912858,
    107.41820693123));
#464 = DIRECTION('',(0.866025403784,-0.5,0.));
#465 = DIRECTION('',(-0.,0.,1.));
#466 = PCURVE('',#111,#467);
#467 = DEFINITIONAL_REPRESENTATION('',(#468),#481);
#468 = B_SPLINE_CURVE_WITH_KNOTS('',6,(#469,#470,#471,#472,#473,#474,
    #475,#476,#477,#478,#479,#480),.UNSPECIFIED.,.F.,.F.,(7,5,7),(
    -0.549306144334,3.377617024454E-02,0.616858484823),.UNSPECIFIED.);
#469 = CARTESIAN_POINT('',(6.28318530718,-0.288675134595));
#470 = CARTESIAN_POINT('',(6.199024624359,-0.677396677647));
#471 = CARTESIAN_POINT('',(6.10995712981,-0.975455610662));
#472 = CARTESIAN_POINT('',(6.01669531949,-1.18945950701));
#473 = CARTESIAN_POINT('',(5.920448407356,-1.323449232878));
#474 = CARTESIAN_POINT('',(5.822941760615,-1.379264907261));
#475 = CARTESIAN_POINT('',(5.628691802682,-1.333774250083));
#476 = CARTESIAN_POINT('',(5.531949609158,-1.232467905707));
#477 = CARTESIAN_POINT('',(5.437234339075,-1.052214283497));
#478 = CARTESIAN_POINT('',(5.346153609184,-0.790399620942));
#479 = CARTESIAN_POINT('',(5.259724202299,-0.44216686251));
#480 = CARTESIAN_POINT('',(5.178494638873,2.870637778657E-15));
#481 = ( GEOMETRIC_REPRESENTATION_CONTEXT(2) 
PARAMETRIC_REPRESENTATION_CONTEXT() REPRESENTATION_CONTEXT('2D SPACE',''
  ) );
#482 = PCURVE('',#82,#483);
#483 = DEFINITIONAL_REPRESENTATION('',(#484),#488);
#484 = HYPERBOLA('',#485,6.928203230276,12.);
#485 = AXIS2_PLACEMENT_2D('',#486,#487);
#486 = CARTESIAN_POINT('',(-6.928203230276,-19.58179306876));
#487 = DIRECTION('',(-0.,1.));
#488 = ( GEOMETRIC_REPRESENTATION_CONTEXT(2) 
PARAMETRIC_REPRESENTATION_CONTEXT() REPRESENTATION_CONTEXT('2D SPACE',''
  ) );
#489 = ORIENTED_EDGE('',*,*,#490,.T.);
#490 = EDGE_CURVE('',#67,#491,#493,.T.);
#491 = VERTEX_POINT('',#492);
#492 = CARTESIAN_POINT('',(-71.74915792601,34.441508912858,114.));
#493 = SEAM_CURVE('',#494,(#498,#505),.PCURVE_S1.);
#494 = LINE('',#495,#496);
#495 = CARTESIAN_POINT('',(-68.79275146546,34.441508912858,
    115.70688206583));
#496 = VECTOR('',#497,1.);
#497 = DIRECTION('',(-0.866025403784,-0.,-0.5));
#498 = PCURVE('',#111,#499);
#499 = DEFINITIONAL_REPRESENTATION('',(#500),#504);
#500 = LINE('',#501,#502);
#501 = CARTESIAN_POINT('',(0.,-0.));
#502 = VECTOR('',#503,1.);
#503 = DIRECTION('',(0.,-1.));
#504 = ( GEOMETRIC_REPRESENTATION_CONTEXT(2) 
PARAMETRIC_REPRESENTATION_CONTEXT() REPRESENTATION_CONTEXT('2D SPACE',''
  ) );
#505 = PCURVE('',#111,#506);
#506 = DEFINITIONAL_REPRESENTATION('',(#507),#511);
#507 = LINE('',#508,#509);
#508 = CARTESIAN_POINT('',(6.28318530718,-0.));
#509 = VECTOR('',#510,1.);
#510 = DIRECTION('',(0.,-1.));
#511 = ( GEOMETRIC_REPRESENTATION_CONTEXT(2) 
PARAMETRIC_REPRESENTATION_CONTEXT() REPRESENTATION_CONTEXT('2D SPACE',''
  ) );
#512 = ORIENTED_EDGE('',*,*,#513,.F.);
#513 = EDGE_CURVE('',#491,#491,#514,.T.);
#514 = SURFACE_CURVE('',#515,(#520,#527),.PCURVE_S1.);
#515 = CIRCLE('',#516,11.4);
#516 = AXIS2_PLACEMENT_3D('',#517,#518,#519);
#517 = CARTESIAN_POINT('',(-83.14915792601,34.441508912858,114.));
#518 = DIRECTION('',(0.,0.,1.));
#519 = DIRECTION('',(1.,-0.,-0.));
#520 = PCURVE('',#111,#521);
#521 = DEFINITIONAL_REPRESENTATION('',(#522),#526);
#522 = LINE('',#523,#524);
#523 = CARTESIAN_POINT('',(0.,-1.706882065833));
#524 = VECTOR('',#525,1.);
#525 = DIRECTION('',(1.,-0.));
#526 = ( GEOMETRIC_REPRESENTATION_CONTEXT(2) 
PARAMETRIC_REPRESENTATION_CONTEXT() REPRESENTATION_CONTEXT('2D SPACE',''
  ) );
#527 = PCURVE('',#528,#533);
#528 = PLANE('',#529);
#529 = AXIS2_PLACEMENT_3D('',#530,#531,#532);
#530 = CARTESIAN_POINT('',(-83.14915792601,34.441508912858,114.));
#531 = DIRECTION('',(-0.,-0.,-1.));
#532 = DIRECTION('',(-1.,0.,0.));
#533 = DEFINITIONAL_REPRESENTATION('',(#534),#542);
#534 = ( BOUNDED_CURVE() B_SPLINE_CURVE(2,(#535,#536,#537,#538,#539,#540
,#541),.UNSPECIFIED.,.T.,.F.) B_SPLINE_CURVE_WITH_KNOTS((1,2,2,2,2,1),(
    -2.094395102393,0.,2.094395102393,4.188790204786,6.28318530718,
8.377580409573),.UNSPECIFIED.) CURVE() GEOMETRIC_REPRESENTATION_ITEM() 
RATIONAL_B_SPLINE_CURVE((1.,0.5,1.,0.5,1.,0.5,1.)) REPRESENTATION_ITEM(
  '') );
#535 = CARTESIAN_POINT('',(-11.4,0.));
#536 = CARTESIAN_POINT('',(-11.4,19.745379206285));
#537 = CARTESIAN_POINT('',(5.7,9.872689603143));
#538 = CARTESIAN_POINT('',(22.8,2.792194702056E-15));
#539 = CARTESIAN_POINT('',(5.7,-9.872689603143));
#540 = CARTESIAN_POINT('',(-11.4,-19.74537920628));
#541 = CARTESIAN_POINT('',(-11.4,0.));
#542 = ( GEOMETRIC_REPRESENTATION_CONTEXT(2) 
PARAMETRIC_REPRESENTATION_CONTEXT() REPRESENTATION_CONTEXT('2D SPACE',''
  ) );
#543 = ORIENTED_EDGE('',*,*,#490,.F.);
#544 = ORIENTED_EDGE('',*,*,#94,.F.);
#545 = ORIENTED_EDGE('',*,*,#400,.F.);
#546 = ORIENTED_EDGE('',*,*,#547,.F.);
#547 = EDGE_CURVE('',#548,#401,#550,.T.);
#548 = VERTEX_POINT('',#549);
#549 = CARTESIAN_POINT('',(-97.00556438656,34.441508912858,
    115.41820693123));
#550 = SURFACE_CURVE('',#551,(#556,#572),.PCURVE_S1.);
#551 = HYPERBOLA('',#552,6.928203230276,12.);
#552 = AXIS2_PLACEMENT_3D('',#553,#554,#555);
#553 = CARTESIAN_POINT('',(-93.54146277142,40.441508912858,
    107.41820693123));
#554 = DIRECTION('',(-0.866025403784,0.5,0.));
#555 = DIRECTION('',(0.,-0.,1.));
#556 = PCURVE('',#111,#557);
#557 = DEFINITIONAL_REPRESENTATION('',(#558),#571);
#558 = B_SPLINE_CURVE_WITH_KNOTS('',6,(#559,#560,#561,#562,#563,#564,
    #565,#566,#567,#568,#569,#570),.UNSPECIFIED.,.F.,.F.,(7,5,7),(
    -0.616858484823,2.22044604925E-16,0.616858484823),.UNSPECIFIED.);
#559 = CARTESIAN_POINT('',(3.1990857707,0.));
#560 = CARTESIAN_POINT('',(3.113150827785,-0.467780232785));
#561 = CARTESIAN_POINT('',(3.02139632543,-0.830428553261));
#562 = CARTESIAN_POINT('',(2.924470810661,-1.096844111353));
#563 = CARTESIAN_POINT('',(2.823612670209,-1.272595792825));
#564 = CARTESIAN_POINT('',(2.720803625462,-1.360471904319));
#565 = CARTESIAN_POINT('',(2.515184130521,-1.360471904319));
#566 = CARTESIAN_POINT('',(2.412375085774,-1.272595792825));
#567 = CARTESIAN_POINT('',(2.311516945322,-1.096844111353));
#568 = CARTESIAN_POINT('',(2.214591430553,-0.830428553261));
#569 = CARTESIAN_POINT('',(2.122836928198,-0.467780232785));
#570 = CARTESIAN_POINT('',(2.036901985283,1.213274284403E-15));
#571 = ( GEOMETRIC_REPRESENTATION_CONTEXT(2) 
PARAMETRIC_REPRESENTATION_CONTEXT() REPRESENTATION_CONTEXT('2D SPACE',''
  ) );
#572 = PCURVE('',#351,#573);
#573 = DEFINITIONAL_REPRESENTATION('',(#574),#578);
#574 = HYPERBOLA('',#575,6.928203230276,12.);
#575 = AXIS2_PLACEMENT_2D('',#576,#577);
#576 = CARTESIAN_POINT('',(-6.928203230276,-19.58179306876));
#577 = DIRECTION('',(0.,1.));
#578 = ( GEOMETRIC_REPRESENTATION_CONTEXT(2) 
PARAMETRIC_REPRESENTATION_CONTEXT() REPRESENTATION_CONTEXT('2D SPACE',''
  ) );
#579 = ORIENTED_EDGE('',*,*,#580,.F.);
#580 = EDGE_CURVE('',#581,#548,#583,.T.);
#581 = VERTEX_POINT('',#582);
#582 = CARTESIAN_POINT('',(-90.07736115629,22.441508912858,
    115.41820693123));
#583 = SURFACE_CURVE('',#584,(#589,#605),.PCURVE_S1.);
#584 = HYPERBOLA('',#585,6.928203230276,12.);
#585 = AXIS2_PLACEMENT_3D('',#586,#587,#588);
#586 = CARTESIAN_POINT('',(-93.54146277142,28.441508912858,
    107.41820693123));
#587 = DIRECTION('',(-0.866025403784,-0.5,0.));
#588 = DIRECTION('',(0.,-0.,1.));
#589 = PCURVE('',#111,#590);
#590 = DEFINITIONAL_REPRESENTATION('',(#591),#604);
#591 = B_SPLINE_CURVE_WITH_KNOTS('',6,(#592,#593,#594,#595,#596,#597,
    #598,#599,#600,#601,#602,#603),.UNSPECIFIED.,.F.,.F.,(7,5,7),(
    -0.616858484823,1.110223024625E-16,0.616858484823),.UNSPECIFIED.);
#592 = CARTESIAN_POINT('',(4.246283321896,-1.982459358957E-15));
#593 = CARTESIAN_POINT('',(4.160348378982,-0.467780232785));
#594 = CARTESIAN_POINT('',(4.068593876627,-0.830428553261));
#595 = CARTESIAN_POINT('',(3.971668361857,-1.096844111353));
#596 = CARTESIAN_POINT('',(3.870810221406,-1.272595792825));
#597 = CARTESIAN_POINT('',(3.768001176659,-1.360471904319));
#598 = CARTESIAN_POINT('',(3.562381681718,-1.360471904319));
#599 = CARTESIAN_POINT('',(3.459572636971,-1.272595792825));
#600 = CARTESIAN_POINT('',(3.358714496519,-1.096844111353));
#601 = CARTESIAN_POINT('',(3.261788981749,-0.830428553261));
#602 = CARTESIAN_POINT('',(3.170034479394,-0.467780232785));
#603 = CARTESIAN_POINT('',(3.08409953648,0.));
#604 = ( GEOMETRIC_REPRESENTATION_CONTEXT(2) 
PARAMETRIC_REPRESENTATION_CONTEXT() REPRESENTATION_CONTEXT('2D SPACE',''
  ) );
#605 = PCURVE('',#313,#606);
#606 = DEFINITIONAL_REPRESENTATION('',(#607),#611);
#607 = HYPERBOLA('',#608,6.928203230276,12.);
#608 = AXIS2_PLACEMENT_2D('',#609,#610);
#609 = CARTESIAN_POINT('',(-6.928203230276,-19.58179306876));
#610 = DIRECTION('',(-0.,1.));
#611 = ( GEOMETRIC_REPRESENTATION_CONTEXT(2) 
PARAMETRIC_REPRESENTATION_CONTEXT() REPRESENTATION_CONTEXT('2D SPACE',''
  ) );
#612 = ORIENTED_EDGE('',*,*,#613,.F.);
#613 = EDGE_CURVE('',#458,#581,#614,.T.);
#614 = SURFACE_CURVE('',#615,(#620,#636),.PCURVE_S1.);
#615 = HYPERBOLA('',#616,6.928203230276,12.);
#616 = AXIS2_PLACEMENT_3D('',#617,#618,#619);
#617 = CARTESIAN_POINT('',(-83.14915792601,22.441508912858,
    107.41820693123));
#618 = DIRECTION('',(-7.691850745534E-16,-1.,0.));
#619 = DIRECTION('',(0.,-0.,1.));
#620 = PCURVE('',#111,#621);
#621 = DEFINITIONAL_REPRESENTATION('',(#622),#635);
#622 = B_SPLINE_CURVE_WITH_KNOTS('',6,(#623,#624,#625,#626,#627,#628,
    #629,#630,#631,#632,#633,#634),.UNSPECIFIED.,.F.,.F.,(7,5,7),(
    -0.616858484823,-1.110223024625E-16,0.616858484823),.UNSPECIFIED.);
#623 = CARTESIAN_POINT('',(5.293480873093,4.440892098501E-16));
#624 = CARTESIAN_POINT('',(5.207545930178,-0.467780232785));
#625 = CARTESIAN_POINT('',(5.115791427824,-0.830428553261));
#626 = CARTESIAN_POINT('',(5.018865913054,-1.096844111353));
#627 = CARTESIAN_POINT('',(4.918007772602,-1.272595792825));
#628 = CARTESIAN_POINT('',(4.815198727855,-1.360471904319));
#629 = CARTESIAN_POINT('',(4.609579232914,-1.360471904319));
#630 = CARTESIAN_POINT('',(4.506770188167,-1.272595792825));
#631 = CARTESIAN_POINT('',(4.405912047715,-1.096844111353));
#632 = CARTESIAN_POINT('',(4.308986532946,-0.830428553261));
#633 = CARTESIAN_POINT('',(4.217232030591,-0.467780232785));
#634 = CARTESIAN_POINT('',(4.131297087676,-3.250958647034E-16));
#635 = ( GEOMETRIC_REPRESENTATION_CONTEXT(2) 
PARAMETRIC_REPRESENTATION_CONTEXT() REPRESENTATION_CONTEXT('2D SPACE',''
  ) );
#636 = PCURVE('',#275,#637);
#637 = DEFINITIONAL_REPRESENTATION('',(#638),#642);
#638 = HYPERBOLA('',#639,6.928203230276,12.);
#639 = AXIS2_PLACEMENT_2D('',#640,#641);
#640 = CARTESIAN_POINT('',(-6.928203230275,-19.58179306876));
#641 = DIRECTION('',(-0.,1.));
#642 = ( GEOMETRIC_REPRESENTATION_CONTEXT(2) 
PARAMETRIC_REPRESENTATION_CONTEXT() REPRESENTATION_CONTEXT('2D SPACE',''
  ) );
#643 = ADVANCED_FACE('',(#644),#82,.F.);
#644 = FACE_BOUND('',#645,.T.);
#645 = EDGE_LOOP('',(#646,#647,#668,#669));
#646 = ORIENTED_EDGE('',*,*,#216,.F.);
#647 = ORIENTED_EDGE('',*,*,#648,.T.);
#648 = EDGE_CURVE('',#217,#458,#649,.T.);
#649 = SURFACE_CURVE('',#650,(#654,#661),.PCURVE_S1.);
#650 = LINE('',#651,#652);
#651 = CARTESIAN_POINT('',(-76.22095469574,22.441508912858,127.));
#652 = VECTOR('',#653,1.);
#653 = DIRECTION('',(-0.,-0.,-1.));
#654 = PCURVE('',#82,#655);
#655 = DEFINITIONAL_REPRESENTATION('',(#656),#660);
#656 = LINE('',#657,#658);
#657 = CARTESIAN_POINT('',(-0.,0.));
#658 = VECTOR('',#659,1.);
#659 = DIRECTION('',(-0.,-1.));
#660 = ( GEOMETRIC_REPRESENTATION_CONTEXT(2) 
PARAMETRIC_REPRESENTATION_CONTEXT() REPRESENTATION_CONTEXT('2D SPACE',''
  ) );
#661 = PCURVE('',#275,#662);
#662 = DEFINITIONAL_REPRESENTATION('',(#663),#667);
#663 = LINE('',#664,#665);
#664 = CARTESIAN_POINT('',(-13.85640646055,0.));
#665 = VECTOR('',#666,1.);
#666 = DIRECTION('',(-0.,-1.));
#667 = ( GEOMETRIC_REPRESENTATION_CONTEXT(2) 
PARAMETRIC_REPRESENTATION_CONTEXT() REPRESENTATION_CONTEXT('2D SPACE',''
  ) );
#668 = ORIENTED_EDGE('',*,*,#457,.F.);
#669 = ORIENTED_EDGE('',*,*,#66,.F.);
#670 = ADVANCED_FACE('',(#671),#351,.F.);
#671 = FACE_BOUND('',#672,.T.);
#672 = EDGE_LOOP('',(#673,#674,#675,#676));
#673 = ORIENTED_EDGE('',*,*,#325,.F.);
#674 = ORIENTED_EDGE('',*,*,#433,.T.);
#675 = ORIENTED_EDGE('',*,*,#547,.F.);
#676 = ORIENTED_EDGE('',*,*,#677,.F.);
#677 = EDGE_CURVE('',#288,#548,#678,.T.);
#678 = SURFACE_CURVE('',#679,(#683,#690),.PCURVE_S1.);
#679 = LINE('',#680,#681);
#680 = CARTESIAN_POINT('',(-97.00556438656,34.441508912858,127.));
#681 = VECTOR('',#682,1.);
#682 = DIRECTION('',(-0.,-0.,-1.));
#683 = PCURVE('',#351,#684);
#684 = DEFINITIONAL_REPRESENTATION('',(#685),#689);
#685 = LINE('',#686,#687);
#686 = CARTESIAN_POINT('',(-13.85640646055,0.));
#687 = VECTOR('',#688,1.);
#688 = DIRECTION('',(-0.,-1.));
#689 = ( GEOMETRIC_REPRESENTATION_CONTEXT(2) 
PARAMETRIC_REPRESENTATION_CONTEXT() REPRESENTATION_CONTEXT('2D SPACE',''
  ) );
#690 = PCURVE('',#313,#691);
#691 = DEFINITIONAL_REPRESENTATION('',(#692),#696);
#692 = LINE('',#693,#694);
#693 = CARTESIAN_POINT('',(-0.,0.));
#694 = VECTOR('',#695,1.);
#695 = DIRECTION('',(-0.,-1.));
#696 = ( GEOMETRIC_REPRESENTATION_CONTEXT(2) 
PARAMETRIC_REPRESENTATION_CONTEXT() REPRESENTATION_CONTEXT('2D SPACE',''
  ) );
#697 = ADVANCED_FACE('',(#698),#313,.F.);
#698 = FACE_BOUND('',#699,.T.);
#699 = EDGE_LOOP('',(#700,#701,#702,#703));
#700 = ORIENTED_EDGE('',*,*,#287,.F.);
#701 = ORIENTED_EDGE('',*,*,#677,.T.);
#702 = ORIENTED_EDGE('',*,*,#580,.F.);
#703 = ORIENTED_EDGE('',*,*,#704,.F.);
#704 = EDGE_CURVE('',#250,#581,#705,.T.);
#705 = SURFACE_CURVE('',#706,(#710,#717),.PCURVE_S1.);
#706 = LINE('',#707,#708);
#707 = CARTESIAN_POINT('',(-90.07736115629,22.441508912858,127.));
#708 = VECTOR('',#709,1.);
#709 = DIRECTION('',(-0.,-0.,-1.));
#710 = PCURVE('',#313,#711);
#711 = DEFINITIONAL_REPRESENTATION('',(#712),#716);
#712 = LINE('',#713,#714);
#713 = CARTESIAN_POINT('',(-13.85640646055,0.));
#714 = VECTOR('',#715,1.);
#715 = DIRECTION('',(-0.,-1.));
#716 = ( GEOMETRIC_REPRESENTATION_CONTEXT(2) 
PARAMETRIC_REPRESENTATION_CONTEXT() REPRESENTATION_CONTEXT('2D SPACE',''
  ) );
#717 = PCURVE('',#275,#718);
#718 = DEFINITIONAL_REPRESENTATION('',(#719),#723);
#719 = LINE('',#720,#721);
#720 = CARTESIAN_POINT('',(-0.,0.));
#721 = VECTOR('',#722,1.);
#722 = DIRECTION('',(-0.,-1.));
#723 = ( GEOMETRIC_REPRESENTATION_CONTEXT(2) 
PARAMETRIC_REPRESENTATION_CONTEXT() REPRESENTATION_CONTEXT('2D SPACE',''
  ) );
#724 = ADVANCED_FACE('',(#725),#275,.F.);
#725 = FACE_BOUND('',#726,.T.);
#726 = EDGE_LOOP('',(#727,#728,#729,#730));
#727 = ORIENTED_EDGE('',*,*,#249,.F.);
#728 = ORIENTED_EDGE('',*,*,#704,.T.);
#729 = ORIENTED_EDGE('',*,*,#613,.F.);
#730 = ORIENTED_EDGE('',*,*,#648,.F.);
#731 = ADVANCED_FACE('',(#732,#735),#199,.F.);
#732 = FACE_BOUND('',#733,.F.);
#733 = EDGE_LOOP('',(#734));
#734 = ORIENTED_EDGE('',*,*,#184,.F.);
#735 = FACE_BOUND('',#736,.F.);
#736 = EDGE_LOOP('',(#737));
#737 = ORIENTED_EDGE('',*,*,#738,.T.);
#738 = EDGE_CURVE('',#739,#739,#741,.T.);
#739 = VERTEX_POINT('',#740);
#740 = CARTESIAN_POINT('',(-75.14915792601,34.441508912858,127.));
#741 = SURFACE_CURVE('',#742,(#747,#758),.PCURVE_S1.);
#742 = CIRCLE('',#743,8.);
#743 = AXIS2_PLACEMENT_3D('',#744,#745,#746);
#744 = CARTESIAN_POINT('',(-83.14915792601,34.441508912858,127.));
#745 = DIRECTION('',(0.,0.,1.));
#746 = DIRECTION('',(1.,-0.,-0.));
#747 = PCURVE('',#199,#748);
#748 = DEFINITIONAL_REPRESENTATION('',(#749),#757);
#749 = ( BOUNDED_CURVE() B_SPLINE_CURVE(2,(#750,#751,#752,#753,#754,#755
,#756),.UNSPECIFIED.,.T.,.F.) B_SPLINE_CURVE_WITH_KNOTS((1,2,2,2,2,1),(
    -2.094395102393,0.,2.094395102393,4.188790204786,6.28318530718,
8.377580409573),.UNSPECIFIED.) CURVE() GEOMETRIC_REPRESENTATION_ITEM() 
RATIONAL_B_SPLINE_CURVE((1.,0.5,1.,0.5,1.,0.5,1.)) REPRESENTATION_ITEM(
  '') );
#750 = CARTESIAN_POINT('',(-8.,0.));
#751 = CARTESIAN_POINT('',(-8.,13.856406460551));
#752 = CARTESIAN_POINT('',(4.,6.928203230276));
#753 = CARTESIAN_POINT('',(16.,1.959434878636E-15));
#754 = CARTESIAN_POINT('',(4.,-6.928203230276));
#755 = CARTESIAN_POINT('',(-8.,-13.85640646055));
#756 = CARTESIAN_POINT('',(-8.,0.));
#757 = ( GEOMETRIC_REPRESENTATION_CONTEXT(2) 
PARAMETRIC_REPRESENTATION_CONTEXT() REPRESENTATION_CONTEXT('2D SPACE',''
  ) );
#758 = PCURVE('',#759,#764);
#759 = CYLINDRICAL_SURFACE('',#760,8.);
#760 = AXIS2_PLACEMENT_3D('',#761,#762,#763);
#761 = CARTESIAN_POINT('',(-83.14915792601,34.441508912858,128.));
#762 = DIRECTION('',(-0.,-0.,-1.));
#763 = DIRECTION('',(1.,-0.,-0.));
#764 = DEFINITIONAL_REPRESENTATION('',(#765),#769);
#765 = LINE('',#766,#767);
#766 = CARTESIAN_POINT('',(-0.,1.));
#767 = VECTOR('',#768,1.);
#768 = DIRECTION('',(-1.,0.));
#769 = ( GEOMETRIC_REPRESENTATION_CONTEXT(2) 
PARAMETRIC_REPRESENTATION_CONTEXT() REPRESENTATION_CONTEXT('2D SPACE',''
  ) );
#770 = ADVANCED_FACE('',(#771,#774),#528,.T.);
#771 = FACE_BOUND('',#772,.F.);
#772 = EDGE_LOOP('',(#773));
#773 = ORIENTED_EDGE('',*,*,#513,.T.);
#774 = FACE_BOUND('',#775,.F.);
#775 = EDGE_LOOP('',(#776));
#776 = ORIENTED_EDGE('',*,*,#777,.F.);
#777 = EDGE_CURVE('',#778,#778,#780,.T.);
#778 = VERTEX_POINT('',#779);
#779 = CARTESIAN_POINT('',(-75.14915792601,34.441508912858,114.));
#780 = SURFACE_CURVE('',#781,(#786,#797),.PCURVE_S1.);
#781 = CIRCLE('',#782,8.);
#782 = AXIS2_PLACEMENT_3D('',#783,#784,#785);
#783 = CARTESIAN_POINT('',(-83.14915792601,34.441508912858,114.));
#784 = DIRECTION('',(0.,0.,1.));
#785 = DIRECTION('',(1.,-0.,-0.));
#786 = PCURVE('',#528,#787);
#787 = DEFINITIONAL_REPRESENTATION('',(#788),#796);
#788 = ( BOUNDED_CURVE() B_SPLINE_CURVE(2,(#789,#790,#791,#792,#793,#794
,#795),.UNSPECIFIED.,.T.,.F.) B_SPLINE_CURVE_WITH_KNOTS((1,2,2,2,2,1),(
    -2.094395102393,0.,2.094395102393,4.188790204786,6.28318530718,
8.377580409573),.UNSPECIFIED.) CURVE() GEOMETRIC_REPRESENTATION_ITEM() 
RATIONAL_B_SPLINE_CURVE((1.,0.5,1.,0.5,1.,0.5,1.)) REPRESENTATION_ITEM(
  '') );
#789 = CARTESIAN_POINT('',(-8.,0.));
#790 = CARTESIAN_POINT('',(-8.,13.856406460551));
#791 = CARTESIAN_POINT('',(4.,6.928203230276));
#792 = CARTESIAN_POINT('',(16.,1.959434878636E-15));
#793 = CARTESIAN_POINT('',(4.,-6.928203230276));
#794 = CARTESIAN_POINT('',(-8.,-13.85640646055));
#795 = CARTESIAN_POINT('',(-8.,0.));
#796 = ( GEOMETRIC_REPRESENTATION_CONTEXT(2) 
PARAMETRIC_REPRESENTATION_CONTEXT() REPRESENTATION_CONTEXT('2D SPACE',''
  ) );
#797 = PCURVE('',#759,#798);
#798 = DEFINITIONAL_REPRESENTATION('',(#799),#803);
#799 = LINE('',#800,#801);
#800 = CARTESIAN_POINT('',(-0.,14.));
#801 = VECTOR('',#802,1.);
#802 = DIRECTION('',(-1.,0.));
#803 = ( GEOMETRIC_REPRESENTATION_CONTEXT(2) 
PARAMETRIC_REPRESENTATION_CONTEXT() REPRESENTATION_CONTEXT('2D SPACE',''
  ) );
#804 = ADVANCED_FACE('',(#805),#759,.F.);
#805 = FACE_BOUND('',#806,.T.);
#806 = EDGE_LOOP('',(#807,#808,#829,#830));
#807 = ORIENTED_EDGE('',*,*,#777,.F.);
#808 = ORIENTED_EDGE('',*,*,#809,.F.);
#809 = EDGE_CURVE('',#739,#778,#810,.T.);
#810 = SEAM_CURVE('',#811,(#815,#822),.PCURVE_S1.);
#811 = LINE('',#812,#813);
#812 = CARTESIAN_POINT('',(-75.14915792601,34.441508912858,128.));
#813 = VECTOR('',#814,1.);
#814 = DIRECTION('',(-0.,-0.,-1.));
#815 = PCURVE('',#759,#816);
#816 = DEFINITIONAL_REPRESENTATION('',(#817),#821);
#817 = LINE('',#818,#819);
#818 = CARTESIAN_POINT('',(-6.28318530718,-0.));
#819 = VECTOR('',#820,1.);
#820 = DIRECTION('',(-0.,1.));
#821 = ( GEOMETRIC_REPRESENTATION_CONTEXT(2) 
PARAMETRIC_REPRESENTATION_CONTEXT() REPRESENTATION_CONTEXT('2D SPACE',''
  ) );
#822 = PCURVE('',#759,#823);
#823 = DEFINITIONAL_REPRESENTATION('',(#824),#828);
#824 = LINE('',#825,#826);
#825 = CARTESIAN_POINT('',(-0.,-0.));
#826 = VECTOR('',#827,1.);
#827 = DIRECTION('',(-0.,1.));
#828 = ( GEOMETRIC_REPRESENTATION_CONTEXT(2) 
PARAMETRIC_REPRESENTATION_CONTEXT() REPRESENTATION_CONTEXT('2D SPACE',''
  ) );
#829 = ORIENTED_EDGE('',*,*,#738,.T.);
#830 = ORIENTED_EDGE('',*,*,#809,.T.);
#831 = ( GEOMETRIC_REPRESENTATION_CONTEXT(3) 
GLOBAL_UNCERTAINTY_ASSIGNED_CONTEXT((#835)) GLOBAL_UNIT_ASSIGNED_CONTEXT
((#832,#833,#834)) REPRESENTATION_CONTEXT('Context #1',
  '3D Context with UNIT and UNCERTAINTY') );
#832 = ( LENGTH_UNIT() NAMED_UNIT(*) SI_UNIT(.MILLI.,.METRE.) );
#833 = ( NAMED_UNIT(*) PLANE_ANGLE_UNIT() SI_UNIT($,.RADIAN.) );
#834 = ( NAMED_UNIT(*) SI_UNIT($,.STERADIAN.) SOLID_ANGLE_UNIT() );
#835 = UNCERTAINTY_MEASURE_WITH_UNIT(LENGTH_MEASURE(5.E-07),#832,
  'distance_accuracy_value','confusion accuracy');
#836 = PRODUCT_RELATED_PRODUCT_CATEGORY('part',$,(#7));
ENDSEC;
END-ISO-10303-21;
