ISO-10303-21;
HEADER;
FILE_DESCRIPTION(('Open CASCADE Model'),'2;1');
FILE_NAME('Open CASCADE Shape Model','2026-09-23T09:29:05',('Author'),(
    'Open CASCADE'),'Open CASCADE STEP processor 7.9','Open CASCADE 7.9'
  ,'Unknown');
FILE_SCHEMA(('AUTOMOTIVE_DESIGN { 1 0 10303 214 1 1 1 1 }'));
ENDSEC;
DATA;
#1 = APPLICATION_PROTOCOL_DEFINITION('international standard',
  'automotive_design',2000,#2);
#2 = APPLICATION_CONTEXT(
  'core data for automotive mechanical design processes');
#3 = SHAPE_DEFINITION_REPRESENTATION(#4,#10);
#4 = PRODUCT_DEFINITION_SHAPE('','',#5);
#5 = PRODUCT_DEFINITION('design','',#6,#9);
#6 = PRODUCT_DEFINITION_FORMATION('','',#7);
#7 = PRODUCT('Open CASCADE STEP translator 7.9 43',
  'Open CASCADE STEP translator 7.9 43','',(#8));
#8 = PRODUCT_CONTEXT('',#2,'mechanical');
#9 = PRODUCT_DEFINITION_CONTEXT('part definition',#2,'design');
#10 = ADVANCED_BREP_SHAPE_REPRESENTATION('',(#11,#15),#1305);
#11 = AXIS2_PLACEMENT_3D('',#12,#13,#14);
#12 = CARTESIAN_POINT('',(0.,0.,0.));
#13 = DIRECTION('',(0.,0.,1.));
#14 = DIRECTION('',(1.,0.,-0.));
#15 = MANIFOLD_SOLID_BREP('',#16);
#16 = CLOSED_SHELL('',(#17,#482,#686,#914,#1049,#1271,#1278));
#17 = ADVANCED_FACE('',(#18),#33,.T.);
#18 = FACE_BOUND('',#19,.T.);
#19 = EDGE_LOOP('',(#20,#60,#283,#315));
#20 = ORIENTED_EDGE('',*,*,#21,.F.);
#21 = EDGE_CURVE('',#22,#24,#26,.T.);
#22 = VERTEX_POINT('',#23);
#23 = CARTESIAN_POINT('',(-21.01819237691,-54.59382372766,
    -18.04894486646));
#24 = VERTEX_POINT('',#25);
#25 = CARTESIAN_POINT('',(-25.48852773859,-52.6553411699,23.101191447215
    ));
#26 = SURFACE_CURVE('',#27,(#32,#48),.PCURVE_S1.);
#27 = ELLIPSE('',#28,541.66989809863,58.5);
#28 = AXIS2_PLACEMENT_3D('',#29,#30,#31);
#29 = CARTESIAN_POINT('',(0.,0.,-211.5246936416));
#30 = DIRECTION('',(-0.994150963972,0.,-0.107999355706));
#31 = DIRECTION('',(-0.107999355706,0.,0.994150963972));
#32 = PCURVE('',#33,#38);
#33 = CYLINDRICAL_SURFACE('',#34,58.5);
#34 = AXIS2_PLACEMENT_3D('',#35,#36,#37);
#35 = CARTESIAN_POINT('',(0.,0.,-100.));
#36 = DIRECTION('',(0.,0.,1.));
#37 = DIRECTION('',(1.,0.,-0.));
#38 = DEFINITIONAL_REPRESENTATION('',(#39),#47);
#39 = B_SPLINE_CURVE_WITH_KNOTS('',6,(#40,#41,#42,#43,#44,#45,#46),
  .UNSPECIFIED.,.F.,.F.,(7,7),(4.998784331819,5.249926103026),
  .PIECEWISE_BEZIER_KNOTS.);
#40 = CARTESIAN_POINT('',(4.42599362895,40.5999994));
#41 = CARTESIAN_POINT('',(4.384136667082,62.221950582194));
#42 = CARTESIAN_POINT('',(4.342279705215,83.5240738142));
#43 = CARTESIAN_POINT('',(4.300422743347,104.4381821693));
#44 = CARTESIAN_POINT('',(4.258565781479,124.89776852347));
#45 = CARTESIAN_POINT('',(4.216708819611,144.8387272122));
#46 = CARTESIAN_POINT('',(4.174851857744,164.2000006));
#47 = ( GEOMETRIC_REPRESENTATION_CONTEXT(2) 
PARAMETRIC_REPRESENTATION_CONTEXT() REPRESENTATION_CONTEXT('2D SPACE',''
  ) );
#48 = PCURVE('',#49,#54);
#49 = PLANE('',#50);
#50 = AXIS2_PLACEMENT_3D('',#51,#52,#53);
#51 = CARTESIAN_POINT('',(4.649578689403,-200.,-254.3247928266));
#52 = DIRECTION('',(-0.994150963972,-0.,-0.107999355706));
#53 = DIRECTION('',(0.107999355706,0.,-0.994150963972));
#54 = DEFINITIONAL_REPRESENTATION('',(#55),#59);
#55 = ELLIPSE('',#56,541.66989809863,58.5);
#56 = AXIS2_PLACEMENT_2D('',#57,#58);
#57 = CARTESIAN_POINT('',(-43.05191136565,-200.));
#58 = DIRECTION('',(-1.,0.));
#59 = ( GEOMETRIC_REPRESENTATION_CONTEXT(2) 
PARAMETRIC_REPRESENTATION_CONTEXT() REPRESENTATION_CONTEXT('2D SPACE',''
  ) );
#60 = ORIENTED_EDGE('',*,*,#61,.F.);
#61 = EDGE_CURVE('',#62,#22,#64,.T.);
#62 = VERTEX_POINT('',#63);
#63 = CARTESIAN_POINT('',(-19.23576514295,-55.2470391898,-15.93783739121
    ));
#64 = SURFACE_CURVE('',#65,(#134,#206),.PCURVE_S1.);
#65 = B_SPLINE_CURVE_WITH_KNOTS('',7,(#66,#67,#68,#69,#70,#71,#72,#73,
    #74,#75,#76,#77,#78,#79,#80,#81,#82,#83,#84,#85,#86,#87,#88,#89,#90,
    #91,#92,#93,#94,#95,#96,#97,#98,#99,#100,#101,#102,#103,#104,#105,
    #106,#107,#108,#109,#110,#111,#112,#113,#114,#115,#116,#117,#118,
    #119,#120,#121,#122,#123,#124,#125,#126,#127,#128,#129,#130,#131,
    #132,#133),.UNSPECIFIED.,.F.,.F.,(8,6,6,6,6,6,6,6,6,6,6,8),(0.,
    0.100485174578,0.231608453738,0.354464199105,0.453340633763,
    0.500540441671,0.548896203141,0.581153423496,0.684081896026,
    0.789501660524,0.90005103359,1.),.UNSPECIFIED.);
#66 = CARTESIAN_POINT('',(-29.95328712105,-50.2498814988,27.949944711155
    ));
#67 = CARTESIAN_POINT('',(-29.2931148809,-50.64340140509,27.242453914189
    ));
#68 = CARTESIAN_POINT('',(-28.6324599821,-51.02349491,26.531744486683));
#69 = CARTESIAN_POINT('',(-27.97156490992,-51.39043238915,
    25.817782289633));
#70 = CARTESIAN_POINT('',(-27.31069109043,-51.74445798196,
    25.100504055082));
#71 = CARTESIAN_POINT('',(-26.6501378214,-52.0857856787,24.379826201247)
  );
#72 = CARTESIAN_POINT('',(-25.99026697678,-52.41459808836,
    23.655649010877));
#73 = CARTESIAN_POINT('',(-24.4719510045,-53.14398378109,21.978158032125
    ));
#74 = CARTESIAN_POINT('',(-23.61539669173,-53.53534464847,
    21.023508846378));
#75 = CARTESIAN_POINT('',(-22.76169991162,-53.90612946221,
    20.062383606382));
#76 = CARTESIAN_POINT('',(-21.91120833772,-54.25695727152,19.09342210066
    ));
#77 = CARTESIAN_POINT('',(-21.0651170939,-54.58805601563,18.115652247293
    ));
#78 = CARTESIAN_POINT('',(-20.22586237628,-54.89931958281,
    17.128668391282));
#79 = CARTESIAN_POINT('',(-18.62152129854,-55.46319147025,
    15.199654082632));
#80 = CARTESIAN_POINT('',(-17.86014799719,-55.71648499487,
    14.264788109451));
#81 = CARTESIAN_POINT('',(-17.1087657615,-55.95323187054,13.319132555109
    ));
#82 = CARTESIAN_POINT('',(-16.36706837906,-56.17419096436,
    12.356919885532));
#83 = CARTESIAN_POINT('',(-15.63987565066,-56.37857242182,11.37615541963
    ));
#84 = CARTESIAN_POINT('',(-14.93693785236,-56.5650837817,10.377762462106
    ));
#85 = CARTESIAN_POINT('',(-13.73596115889,-56.86719909494,8.547285915072
    ));
#86 = CARTESIAN_POINT('',(-13.22189488645,-56.99024523288,7.716488924012
    ));
#87 = CARTESIAN_POINT('',(-12.73344425768,-57.10154435891,6.866965402862
    ));
#88 = CARTESIAN_POINT('',(-12.27879154882,-57.20021466217,5.996680886409
    ));
#89 = CARTESIAN_POINT('',(-11.86968908225,-57.28509377672,5.10453048792)
  );
#90 = CARTESIAN_POINT('',(-11.52074225497,-57.35503046899,4.188663864524
    ));
#91 = CARTESIAN_POINT('',(-11.11838272304,-57.4338673344,2.793689187287)
  );
#92 = CARTESIAN_POINT('',(-11.00578221328,-57.45557325079,2.336325461995
    ));
#93 = CARTESIAN_POINT('',(-10.91307972232,-57.4731960416,1.874175717749)
  );
#94 = CARTESIAN_POINT('',(-10.84216342275,-57.48654491599,1.408579441042
    ));
#95 = CARTESIAN_POINT('',(-10.7943355617,-57.49550339445,0.940519152908)
  );
#96 = CARTESIAN_POINT('',(-10.77032961426,-57.5,0.470761631327));
#97 = CARTESIAN_POINT('',(-10.77032961426,-57.5,-0.482290885539));
#98 = CARTESIAN_POINT('',(-10.79552579239,-57.49528044299,
    -0.963461946619));
#99 = CARTESIAN_POINT('',(-10.84570790428,-57.48588101996,
    -1.442801484506));
#100 = CARTESIAN_POINT('',(-10.92007093553,-57.47187986225,
    -1.919514414342));
#101 = CARTESIAN_POINT('',(-11.01719336234,-57.45340315577,
    -2.392565266933));
#102 = CARTESIAN_POINT('',(-11.13501788237,-57.43065848526,
    -2.860522233684));
#103 = CARTESIAN_POINT('',(-11.36143540809,-57.38620313639,
    -3.628846661405));
#104 = CARTESIAN_POINT('',(-11.46019108589,-57.36663999218,
    -3.933645139769));
#105 = CARTESIAN_POINT('',(-11.56654259404,-57.34535573369,
    -4.235865169266));
#106 = CARTESIAN_POINT('',(-11.67993234966,-57.32240229317,
    -4.535537983981));
#107 = CARTESIAN_POINT('',(-11.79980454055,-57.29783253149,
    -4.832658648642));
#108 = CARTESIAN_POINT('',(-11.92560542355,-57.27170249219,
    -5.127186134645));
#109 = CARTESIAN_POINT('',(-12.47535569868,-57.15591373554,
    -6.350320852238));
#110 = CARTESIAN_POINT('',(-12.95043850471,-57.0521224523,
    -7.258332917496));
#111 = CARTESIAN_POINT('',(-13.46698994737,-56.93403081509,
    -8.144727092672));
#112 = CARTESIAN_POINT('',(-14.01257582001,-56.80282844976,
    -9.009978177462));
#113 = CARTESIAN_POINT('',(-14.57883359942,-56.65955949419,
    -9.855847146961));
#114 = CARTESIAN_POINT('',(-15.16227826085,-56.50439338322,
    -10.68701111112));
#115 = CARTESIAN_POINT('',(-16.38142793139,-56.16323652354,
    -12.35654734587));
#116 = CARTESIAN_POINT('',(-17.01597235404,-55.9771735416,
    -13.19175309129));
#117 = CARTESIAN_POINT('',(-17.6625299564,-55.77826503872,
    -14.01657556264));
#118 = CARTESIAN_POINT('',(-18.31716968503,-55.56701860236,
    -14.8309738586));
#119 = CARTESIAN_POINT('',(-18.97791600103,-55.34362316951,
    -15.63610142564));
#120 = CARTESIAN_POINT('',(-19.64465052696,-55.1076628679,
    -16.43441145701));
#121 = CARTESIAN_POINT('',(-21.02571909343,-54.59613040545,
    -18.06311578084));
#122 = CARTESIAN_POINT('',(-21.73870652053,-54.31996133347,
    -18.89072354855));
#123 = CARTESIAN_POINT('',(-22.45583472931,-54.0295572661,
    -19.71227022576));
#124 = CARTESIAN_POINT('',(-23.17588641667,-53.7249022546,
    -20.52804376292));
#125 = CARTESIAN_POINT('',(-23.89816315612,-53.4058328404,
    -21.33854516395));
#126 = CARTESIAN_POINT('',(-24.6223340339,-53.07202210787,
    -22.14442240616));
#127 = CARTESIAN_POINT('',(-26.00466911902,-52.40741910126,
    -23.67145383597));
#128 = CARTESIAN_POINT('',(-26.66215163041,-52.07957611588,
    -24.39293302974));
#129 = CARTESIAN_POINT('',(-27.32030671756,-51.73930593388,
    -25.11094009434));
#130 = CARTESIAN_POINT('',(-27.97877700396,-51.38642762379,
    -25.82557336698));
#131 = CARTESIAN_POINT('',(-28.6372665389,-51.02072938787,
    -26.53691517923));
#132 = CARTESIAN_POINT('',(-29.29551659795,-50.64196977345,
    -27.24502777689));
#133 = CARTESIAN_POINT('',(-29.95328712105,-50.2498814988,
    -27.94994471115));
#134 = PCURVE('',#33,#135);
#135 = DEFINITIONAL_REPRESENTATION('',(#136),#205);
#136 = B_SPLINE_CURVE_WITH_KNOTS('',7,(#137,#138,#139,#140,#141,#142,
    #143,#144,#145,#146,#147,#148,#149,#150,#151,#152,#153,#154,#155,
    #156,#157,#158,#159,#160,#161,#162,#163,#164,#165,#166,#167,#168,
    #169,#170,#171,#172,#173,#174,#175,#176,#177,#178,#179,#180,#181,
    #182,#183,#184,#185,#186,#187,#188,#189,#190,#191,#192,#193,#194,
    #195,#196,#197,#198,#199,#200,#201,#202,#203,#204),.UNSPECIFIED.,.F.
  ,.F.,(8,6,6,6,6,6,6,6,6,6,6,8),(0.,0.100485174578,0.231608453738,
    0.354464199105,0.453340633763,0.500540441671,0.548896203141,
    0.581153423496,0.684081896026,0.789501660524,0.90005103359,1.),
  .UNSPECIFIED.);
#137 = CARTESIAN_POINT('',(4.174851859041,127.94994471115));
#138 = CARTESIAN_POINT('',(4.187989646046,127.24245391418));
#139 = CARTESIAN_POINT('',(4.201017005207,126.53174448668));
#140 = CARTESIAN_POINT('',(4.213936446854,125.81778228963));
#141 = CARTESIAN_POINT('',(4.226749691402,125.10050405508));
#142 = CARTESIAN_POINT('',(4.239457389108,124.37982620124));
#143 = CARTESIAN_POINT('',(4.252058748838,123.65564901087));
#144 = CARTESIAN_POINT('',(4.280852335029,121.97815803212));
#145 = CARTESIAN_POINT('',(4.296947234821,121.02350884637));
#146 = CARTESIAN_POINT('',(4.312852884737,120.06238360638));
#147 = CARTESIAN_POINT('',(4.328574752977,119.09342210066));
#148 = CARTESIAN_POINT('',(4.344101839543,118.11565224729));
#149 = CARTESIAN_POINT('',(4.359400717456,117.12866839128));
#150 = CARTESIAN_POINT('',(4.388469905487,115.19965408263));
#151 = CARTESIAN_POINT('',(4.402184215459,114.26478810945));
#152 = CARTESIAN_POINT('',(4.415648164874,113.3191325551));
#153 = CARTESIAN_POINT('',(4.428874479788,112.35691988553));
#154 = CARTESIAN_POINT('',(4.441784485299,111.37615541963));
#155 = CARTESIAN_POINT('',(4.45421525657,110.3777624621));
#156 = CARTESIAN_POINT('',(4.475384377746,108.54728591507));
#157 = CARTESIAN_POINT('',(4.484419459278,107.71648892401));
#158 = CARTESIAN_POINT('',(4.492982282586,106.86696540286));
#159 = CARTESIAN_POINT('',(4.50093437192,105.9966808864));
#160 = CARTESIAN_POINT('',(4.508076244841,105.10453048792));
#161 = CARTESIAN_POINT('',(4.514159713571,104.18866386452));
#162 = CARTESIAN_POINT('',(4.52116843661,102.79368918728));
#163 = CARTESIAN_POINT('',(4.523128658769,102.33632546199));
#164 = CARTESIAN_POINT('',(4.524741690219,101.87417571774));
#165 = CARTESIAN_POINT('',(4.525975222616,101.40857944104));
#166 = CARTESIAN_POINT('',(4.526807011644,100.9405191529));
#167 = CARTESIAN_POINT('',(4.527224506346,100.47076163132));
#168 = CARTESIAN_POINT('',(4.527224506346,99.517709114461));
#169 = CARTESIAN_POINT('',(4.526786311987,99.036538053381));
#170 = CARTESIAN_POINT('',(4.525913579439,98.557198515494));
#171 = CARTESIAN_POINT('',(4.524620083028,98.080485585658));
#172 = CARTESIAN_POINT('',(4.522930101218,97.607434733067));
#173 = CARTESIAN_POINT('',(4.520878834276,97.139477766316));
#174 = CARTESIAN_POINT('',(4.516934552386,96.371153338595));
#175 = CARTESIAN_POINT('',(4.515213619259,96.066354860231));
#176 = CARTESIAN_POINT('',(4.513359601025,95.764134830734));
#177 = CARTESIAN_POINT('',(4.511382009435,95.464462016019));
#178 = CARTESIAN_POINT('',(4.509290323347,95.167341351358));
#179 = CARTESIAN_POINT('',(4.507093990846,94.872813865355));
#180 = CARTESIAN_POINT('',(4.497490371816,93.649679147762));
#181 = CARTESIAN_POINT('',(4.489177984917,92.741667082504));
#182 = CARTESIAN_POINT('',(4.480120934828,91.855272907329));
#183 = CARTESIAN_POINT('',(4.470529961841,90.990021822537));
#184 = CARTESIAN_POINT('',(4.460546461681,90.144152853039));
#185 = CARTESIAN_POINT('',(4.450227233965,89.312988888879));
#186 = CARTESIAN_POINT('',(4.428586492402,87.643452654122));
#187 = CARTESIAN_POINT('',(4.417283751435,86.808246908704));
#188 = CARTESIAN_POINT('',(4.405721938854,85.983424437356));
#189 = CARTESIAN_POINT('',(4.393965328554,85.1690261414));
#190 = CARTESIAN_POINT('',(4.382044310088,84.363898574356));
#191 = CARTESIAN_POINT('',(4.369955734245,83.565588542981));
#192 = CARTESIAN_POINT('',(4.34478038545,81.93688421916));
#193 = CARTESIAN_POINT('',(4.331711655339,81.109276451449));
#194 = CARTESIAN_POINT('',(4.318488534604,80.287729774238));
#195 = CARTESIAN_POINT('',(4.305126508856,79.471956237076));
#196 = CARTESIAN_POINT('',(4.291631569331,78.661454836042));
#197 = CARTESIAN_POINT('',(4.278002528062,77.855577593837));
#198 = CARTESIAN_POINT('',(4.251783696759,76.328546164025));
#199 = CARTESIAN_POINT('',(4.239226254707,75.607066970257));
#200 = CARTESIAN_POINT('',(4.226563251992,74.889059905652));
#201 = CARTESIAN_POINT('',(4.213795457559,74.174426633013));
#202 = CARTESIAN_POINT('',(4.200922223885,73.463084820768));
#203 = CARTESIAN_POINT('',(4.187941850569,72.754972223101));
#204 = CARTESIAN_POINT('',(4.174851859041,72.050055288845));
#205 = ( GEOMETRIC_REPRESENTATION_CONTEXT(2) 
PARAMETRIC_REPRESENTATION_CONTEXT() REPRESENTATION_CONTEXT('2D SPACE',''
  ) );
#206 = PCURVE('',#207,#212);
#207 = CYLINDRICAL_SURFACE('',#208,57.5);
#208 = AXIS2_PLACEMENT_3D('',#209,#210,#211);
#209 = CARTESIAN_POINT('',(-100.,0.,0.));
#210 = DIRECTION('',(1.,0.,0.));
#211 = DIRECTION('',(-0.,0.,1.));
#212 = DEFINITIONAL_REPRESENTATION('',(#213),#282);
#213 = B_SPLINE_CURVE_WITH_KNOTS('',7,(#214,#215,#216,#217,#218,#219,
    #220,#221,#222,#223,#224,#225,#226,#227,#228,#229,#230,#231,#232,
    #233,#234,#235,#236,#237,#238,#239,#240,#241,#242,#243,#244,#245,
    #246,#247,#248,#249,#250,#251,#252,#253,#254,#255,#256,#257,#258,
    #259,#260,#261,#262,#263,#264,#265,#266,#267,#268,#269,#270,#271,
    #272,#273,#274,#275,#276,#277,#278,#279,#280,#281),.UNSPECIFIED.,.F.
  ,.F.,(8,6,6,6,6,6,6,6,6,6,6,8),(0.,0.100485174578,0.231608453738,
    0.354464199105,0.453340633763,0.500540441671,0.548896203141,
    0.581153423496,0.684081896026,0.789501660524,0.90005103359,1.),
  .UNSPECIFIED.);
#214 = CARTESIAN_POINT('',(1.063190904224,70.046712878941));
#215 = CARTESIAN_POINT('',(1.077270356272,70.7068851191));
#216 = CARTESIAN_POINT('',(1.091285224173,71.367540017899));
#217 = CARTESIAN_POINT('',(1.105242871007,72.028435090073));
#218 = CARTESIAN_POINT('',(1.119150692702,72.689308909564));
#219 = CARTESIAN_POINT('',(1.133016011123,73.349862178593));
#220 = CARTESIAN_POINT('',(1.146846055955,74.009733023218));
#221 = CARTESIAN_POINT('',(1.178658262349,75.528048995499));
#222 = CARTESIAN_POINT('',(1.196597835211,76.38460330827));
#223 = CARTESIAN_POINT('',(1.214507553693,77.238300088376));
#224 = CARTESIAN_POINT('',(1.232422590268,78.088791662274));
#225 = CARTESIAN_POINT('',(1.250369457427,78.934882906091));
#226 = CARTESIAN_POINT('',(1.268363741808,79.774137623716));
#227 = CARTESIAN_POINT('',(1.303315710832,81.378478701458));
#228 = CARTESIAN_POINT('',(1.320157140824,82.13985200281));
#229 = CARTESIAN_POINT('',(1.337105842416,82.891234238498));
#230 = CARTESIAN_POINT('',(1.354269377129,83.632931620938));
#231 = CARTESIAN_POINT('',(1.37168662048,84.360124349331));
#232 = CARTESIAN_POINT('',(1.389346421832,85.063062147636));
#233 = CARTESIAN_POINT('',(1.421611477469,86.264038841102));
#234 = CARTESIAN_POINT('',(1.436215731571,86.778105113541));
#235 = CARTESIAN_POINT('',(1.451112922446,87.266555742314));
#236 = CARTESIAN_POINT('',(1.466340949553,87.721208451176));
#237 = CARTESIAN_POINT('',(1.481922441876,88.130310917742));
#238 = CARTESIAN_POINT('',(1.497893811515,88.47925774503));
#239 = CARTESIAN_POINT('',(1.522192952913,88.88161727696));
#240 = CARTESIAN_POINT('',(1.530155732257,88.994217786719));
#241 = CARTESIAN_POINT('',(1.538198399144,89.086920277675));
#242 = CARTESIAN_POINT('',(1.546298395965,89.157836577248));
#243 = CARTESIAN_POINT('',(1.554439472239,89.205664438297));
#244 = CARTESIAN_POINT('',(1.562609167989,89.229670385731));
#245 = CARTESIAN_POINT('',(1.579183994369,89.229670385731));
#246 = CARTESIAN_POINT('',(1.587552186418,89.204474207603));
#247 = CARTESIAN_POINT('',(1.59588949119,89.154292095717));
#248 = CARTESIAN_POINT('',(1.604183020381,89.079929064465));
#249 = CARTESIAN_POINT('',(1.612415662918,88.982806637654));
#250 = CARTESIAN_POINT('',(1.620563304819,88.864982117629));
#251 = CARTESIAN_POINT('',(1.633947816979,88.638564591904));
#252 = CARTESIAN_POINT('',(1.639259462197,88.539808914102));
#253 = CARTESIAN_POINT('',(1.644528319155,88.433457405953));
#254 = CARTESIAN_POINT('',(1.649755111088,88.320067650333));
#255 = CARTESIAN_POINT('',(1.654939915174,88.200195459442));
#256 = CARTESIAN_POINT('',(1.660082161637,88.074394576449));
#257 = CARTESIAN_POINT('',(1.681449172045,87.524644301317));
#258 = CARTESIAN_POINT('',(1.697340518128,87.049561495285));
#259 = CARTESIAN_POINT('',(1.712888037523,86.533010052626));
#260 = CARTESIAN_POINT('',(1.728103603194,85.987424179986));
#261 = CARTESIAN_POINT('',(1.743020504094,85.421166400575));
#262 = CARTESIAN_POINT('',(1.757723133569,84.837721739142));
#263 = CARTESIAN_POINT('',(1.787358545085,83.618572068608));
#264 = CARTESIAN_POINT('',(1.802237622476,82.984027645955));
#265 = CARTESIAN_POINT('',(1.816990008389,82.337470043598));
#266 = CARTESIAN_POINT('',(1.831618369633,81.682830314966));
#267 = CARTESIAN_POINT('',(1.84614633328,81.022083998966));
#268 = CARTESIAN_POINT('',(1.860621683794,80.355349473034));
#269 = CARTESIAN_POINT('',(1.890311157896,78.97428090657));
#270 = CARTESIAN_POINT('',(1.905482156819,78.261293479468));
#271 = CARTESIAN_POINT('',(1.920632504758,77.544165270686));
#272 = CARTESIAN_POINT('',(1.935772700416,76.824113583322));
#273 = CARTESIAN_POINT('',(1.950917518468,76.101836843879));
#274 = CARTESIAN_POINT('',(1.966085156755,75.377665966093));
#275 = CARTESIAN_POINT('',(1.995048452185,73.995330880976));
#276 = CARTESIAN_POINT('',(2.008828822674,73.337848369588));
#277 = CARTESIAN_POINT('',(2.02264432178,72.679693282438));
#278 = CARTESIAN_POINT('',(2.036502099432,72.021222996032));
#279 = CARTESIAN_POINT('',(2.050409394749,71.3627334611));
#280 = CARTESIAN_POINT('',(2.064373518587,70.704483402048));
#281 = CARTESIAN_POINT('',(2.078401749365,70.046712878941));
#282 = ( GEOMETRIC_REPRESENTATION_CONTEXT(2) 
PARAMETRIC_REPRESENTATION_CONTEXT() REPRESENTATION_CONTEXT('2D SPACE',''
  ) );
#283 = ORIENTED_EDGE('',*,*,#284,.T.);
#284 = EDGE_CURVE('',#62,#285,#287,.T.);
#285 = VERTEX_POINT('',#286);
#286 = CARTESIAN_POINT('',(-23.19937032486,-53.70325145471,
    20.547768348175));
#287 = SURFACE_CURVE('',#288,(#293,#303),.PCURVE_S1.);
#288 = ELLIPSE('',#289,541.66989809863,58.5);
#289 = AXIS2_PLACEMENT_3D('',#290,#291,#292);
#290 = CARTESIAN_POINT('',(0.,0.,-193.0060646468));
#291 = DIRECTION('',(-0.994150963972,0.,-0.107999355706));
#292 = DIRECTION('',(-0.107999355706,0.,0.994150963972));
#293 = PCURVE('',#33,#294);
#294 = DEFINITIONAL_REPRESENTATION('',(#295),#302);
#295 = B_SPLINE_CURVE_WITH_KNOTS('',5,(#296,#297,#298,#299,#300,#301),
  .UNSPECIFIED.,.F.,.F.,(6,6),(5.043290910888,5.125337949983),
  .PIECEWISE_BEZIER_KNOTS.);
#296 = CARTESIAN_POINT('',(4.381487049882,81.951054528445));
#297 = CARTESIAN_POINT('',(4.365077642063,90.308165280385));
#298 = CARTESIAN_POINT('',(4.348668234244,98.606387946733));
#299 = CARTESIAN_POINT('',(4.332258826425,106.841034374));
#300 = CARTESIAN_POINT('',(4.315849418606,115.00748253025));
#301 = CARTESIAN_POINT('',(4.299440010787,123.10119204772));
#302 = ( GEOMETRIC_REPRESENTATION_CONTEXT(2) 
PARAMETRIC_REPRESENTATION_CONTEXT() REPRESENTATION_CONTEXT('2D SPACE',''
  ) );
#303 = PCURVE('',#304,#309);
#304 = PLANE('',#305);
#305 = AXIS2_PLACEMENT_3D('',#306,#307,#308);
#306 = CARTESIAN_POINT('',(6.637880617348,-200.,-254.1087941152));
#307 = DIRECTION('',(-0.994150963972,-0.,-0.107999355706));
#308 = DIRECTION('',(0.107999355706,0.,-0.994150963972));
#309 = DEFINITIONAL_REPRESENTATION('',(#310),#314);
#310 = ELLIPSE('',#311,541.66989809863,58.5);
#311 = AXIS2_PLACEMENT_2D('',#312,#313);
#312 = CARTESIAN_POINT('',(-61.4622242323,-200.));
#313 = DIRECTION('',(-1.,0.));
#314 = ( GEOMETRIC_REPRESENTATION_CONTEXT(2) 
PARAMETRIC_REPRESENTATION_CONTEXT() REPRESENTATION_CONTEXT('2D SPACE',''
  ) );
#315 = ORIENTED_EDGE('',*,*,#316,.F.);
#316 = EDGE_CURVE('',#24,#285,#317,.T.);
#317 = SURFACE_CURVE('',#318,(#387,#459),.PCURVE_S1.);
#318 = B_SPLINE_CURVE_WITH_KNOTS('',7,(#319,#320,#321,#322,#323,#324,
    #325,#326,#327,#328,#329,#330,#331,#332,#333,#334,#335,#336,#337,
    #338,#339,#340,#341,#342,#343,#344,#345,#346,#347,#348,#349,#350,
    #351,#352,#353,#354,#355,#356,#357,#358,#359,#360,#361,#362,#363,
    #364,#365,#366,#367,#368,#369,#370,#371,#372,#373,#374,#375,#376,
    #377,#378,#379,#380,#381,#382,#383,#384,#385,#386),.UNSPECIFIED.,.F.
  ,.F.,(8,6,6,6,6,6,6,6,6,6,6,8),(0.,0.100485174578,0.231608453738,
    0.354464199105,0.453340633763,0.500540441671,0.548896203141,
    0.581153423496,0.684081896026,0.789501660524,0.90005103359,1.),
  .UNSPECIFIED.);
#319 = CARTESIAN_POINT('',(-29.95328712105,-50.2498814988,
    27.949944711155));
#320 = CARTESIAN_POINT('',(-29.2931148809,-50.64340140509,
    27.242453914189));
#321 = CARTESIAN_POINT('',(-28.6324599821,-51.02349491,26.531744486683)
  );
#322 = CARTESIAN_POINT('',(-27.97156490992,-51.39043238915,
    25.817782289633));
#323 = CARTESIAN_POINT('',(-27.31069109043,-51.74445798196,
    25.100504055082));
#324 = CARTESIAN_POINT('',(-26.6501378214,-52.0857856787,24.379826201247
    ));
#325 = CARTESIAN_POINT('',(-25.99026697678,-52.41459808836,
    23.655649010877));
#326 = CARTESIAN_POINT('',(-24.4719510045,-53.14398378109,
    21.978158032125));
#327 = CARTESIAN_POINT('',(-23.61539669173,-53.53534464847,
    21.023508846378));
#328 = CARTESIAN_POINT('',(-22.76169991162,-53.90612946221,
    20.062383606382));
#329 = CARTESIAN_POINT('',(-21.91120833772,-54.25695727152,
    19.09342210066));
#330 = CARTESIAN_POINT('',(-21.0651170939,-54.58805601563,
    18.115652247293));
#331 = CARTESIAN_POINT('',(-20.22586237628,-54.89931958281,
    17.128668391282));
#332 = CARTESIAN_POINT('',(-18.62152129854,-55.46319147025,
    15.199654082632));
#333 = CARTESIAN_POINT('',(-17.86014799719,-55.71648499487,
    14.264788109451));
#334 = CARTESIAN_POINT('',(-17.1087657615,-55.95323187054,
    13.319132555109));
#335 = CARTESIAN_POINT('',(-16.36706837906,-56.17419096436,
    12.356919885532));
#336 = CARTESIAN_POINT('',(-15.63987565066,-56.37857242182,
    11.37615541963));
#337 = CARTESIAN_POINT('',(-14.93693785236,-56.5650837817,
    10.377762462106));
#338 = CARTESIAN_POINT('',(-13.73596115889,-56.86719909494,
    8.547285915072));
#339 = CARTESIAN_POINT('',(-13.22189488645,-56.99024523288,
    7.716488924012));
#340 = CARTESIAN_POINT('',(-12.73344425768,-57.10154435891,
    6.866965402862));
#341 = CARTESIAN_POINT('',(-12.27879154882,-57.20021466217,
    5.996680886409));
#342 = CARTESIAN_POINT('',(-11.86968908225,-57.28509377672,5.10453048792
    ));
#343 = CARTESIAN_POINT('',(-11.52074225497,-57.35503046899,
    4.188663864524));
#344 = CARTESIAN_POINT('',(-11.11838272304,-57.4338673344,2.793689187287
    ));
#345 = CARTESIAN_POINT('',(-11.00578221328,-57.45557325079,
    2.336325461995));
#346 = CARTESIAN_POINT('',(-10.91307972232,-57.4731960416,1.874175717749
    ));
#347 = CARTESIAN_POINT('',(-10.84216342275,-57.48654491599,
    1.408579441042));
#348 = CARTESIAN_POINT('',(-10.7943355617,-57.49550339445,0.940519152908
    ));
#349 = CARTESIAN_POINT('',(-10.77032961426,-57.5,0.470761631327));
#350 = CARTESIAN_POINT('',(-10.77032961426,-57.5,-0.482290885539));
#351 = CARTESIAN_POINT('',(-10.79552579239,-57.49528044299,
    -0.963461946619));
#352 = CARTESIAN_POINT('',(-10.84570790428,-57.48588101996,
    -1.442801484506));
#353 = CARTESIAN_POINT('',(-10.92007093553,-57.47187986225,
    -1.919514414342));
#354 = CARTESIAN_POINT('',(-11.01719336234,-57.45340315577,
    -2.392565266933));
#355 = CARTESIAN_POINT('',(-11.13501788237,-57.43065848526,
    -2.860522233684));
#356 = CARTESIAN_POINT('',(-11.36143540809,-57.38620313639,
    -3.628846661405));
#357 = CARTESIAN_POINT('',(-11.46019108589,-57.36663999218,
    -3.933645139769));
#358 = CARTESIAN_POINT('',(-11.56654259404,-57.34535573369,
    -4.235865169266));
#359 = CARTESIAN_POINT('',(-11.67993234966,-57.32240229317,
    -4.535537983981));
#360 = CARTESIAN_POINT('',(-11.79980454055,-57.29783253149,
    -4.832658648642));
#361 = CARTESIAN_POINT('',(-11.92560542355,-57.27170249219,
    -5.127186134645));
#362 = CARTESIAN_POINT('',(-12.47535569868,-57.15591373554,
    -6.350320852238));
#363 = CARTESIAN_POINT('',(-12.95043850471,-57.0521224523,
    -7.258332917496));
#364 = CARTESIAN_POINT('',(-13.46698994737,-56.93403081509,
    -8.144727092672));
#365 = CARTESIAN_POINT('',(-14.01257582001,-56.80282844976,
    -9.009978177462));
#366 = CARTESIAN_POINT('',(-14.57883359942,-56.65955949419,
    -9.855847146961));
#367 = CARTESIAN_POINT('',(-15.16227826085,-56.50439338322,
    -10.68701111112));
#368 = CARTESIAN_POINT('',(-16.38142793139,-56.16323652354,
    -12.35654734587));
#369 = CARTESIAN_POINT('',(-17.01597235404,-55.9771735416,
    -13.19175309129));
#370 = CARTESIAN_POINT('',(-17.6625299564,-55.77826503872,
    -14.01657556264));
#371 = CARTESIAN_POINT('',(-18.31716968503,-55.56701860236,
    -14.8309738586));
#372 = CARTESIAN_POINT('',(-18.97791600103,-55.34362316951,
    -15.63610142564));
#373 = CARTESIAN_POINT('',(-19.64465052696,-55.1076628679,
    -16.43441145701));
#374 = CARTESIAN_POINT('',(-21.02571909343,-54.59613040545,
    -18.06311578084));
#375 = CARTESIAN_POINT('',(-21.73870652053,-54.31996133347,
    -18.89072354855));
#376 = CARTESIAN_POINT('',(-22.45583472931,-54.0295572661,
    -19.71227022576));
#377 = CARTESIAN_POINT('',(-23.17588641667,-53.7249022546,
    -20.52804376292));
#378 = CARTESIAN_POINT('',(-23.89816315612,-53.4058328404,
    -21.33854516395));
#379 = CARTESIAN_POINT('',(-24.6223340339,-53.07202210787,
    -22.14442240616));
#380 = CARTESIAN_POINT('',(-26.00466911902,-52.40741910126,
    -23.67145383597));
#381 = CARTESIAN_POINT('',(-26.66215163041,-52.07957611588,
    -24.39293302974));
#382 = CARTESIAN_POINT('',(-27.32030671756,-51.73930593388,
    -25.11094009434));
#383 = CARTESIAN_POINT('',(-27.97877700396,-51.38642762379,
    -25.82557336698));
#384 = CARTESIAN_POINT('',(-28.6372665389,-51.02072938787,
    -26.53691517923));
#385 = CARTESIAN_POINT('',(-29.29551659795,-50.64196977345,
    -27.24502777689));
#386 = CARTESIAN_POINT('',(-29.95328712105,-50.2498814988,
    -27.94994471115));
#387 = PCURVE('',#33,#388);
#388 = DEFINITIONAL_REPRESENTATION('',(#389),#458);
#389 = B_SPLINE_CURVE_WITH_KNOTS('',7,(#390,#391,#392,#393,#394,#395,
    #396,#397,#398,#399,#400,#401,#402,#403,#404,#405,#406,#407,#408,
    #409,#410,#411,#412,#413,#414,#415,#416,#417,#418,#419,#420,#421,
    #422,#423,#424,#425,#426,#427,#428,#429,#430,#431,#432,#433,#434,
    #435,#436,#437,#438,#439,#440,#441,#442,#443,#444,#445,#446,#447,
    #448,#449,#450,#451,#452,#453,#454,#455,#456,#457),.UNSPECIFIED.,.F.
  ,.F.,(8,6,6,6,6,6,6,6,6,6,6,8),(0.,0.100485174578,0.231608453738,
    0.354464199105,0.453340633763,0.500540441671,0.548896203141,
    0.581153423496,0.684081896026,0.789501660524,0.90005103359,1.),
  .UNSPECIFIED.);
#390 = CARTESIAN_POINT('',(4.174851859041,127.94994471115));
#391 = CARTESIAN_POINT('',(4.187989646046,127.24245391418));
#392 = CARTESIAN_POINT('',(4.201017005207,126.53174448668));
#393 = CARTESIAN_POINT('',(4.213936446854,125.81778228963));
#394 = CARTESIAN_POINT('',(4.226749691402,125.10050405508));
#395 = CARTESIAN_POINT('',(4.239457389108,124.37982620124));
#396 = CARTESIAN_POINT('',(4.252058748838,123.65564901087));
#397 = CARTESIAN_POINT('',(4.280852335029,121.97815803212));
#398 = CARTESIAN_POINT('',(4.296947234821,121.02350884637));
#399 = CARTESIAN_POINT('',(4.312852884737,120.06238360638));
#400 = CARTESIAN_POINT('',(4.328574752977,119.09342210066));
#401 = CARTESIAN_POINT('',(4.344101839543,118.11565224729));
#402 = CARTESIAN_POINT('',(4.359400717456,117.12866839128));
#403 = CARTESIAN_POINT('',(4.388469905487,115.19965408263));
#404 = CARTESIAN_POINT('',(4.402184215459,114.26478810945));
#405 = CARTESIAN_POINT('',(4.415648164874,113.3191325551));
#406 = CARTESIAN_POINT('',(4.428874479788,112.35691988553));
#407 = CARTESIAN_POINT('',(4.441784485299,111.37615541963));
#408 = CARTESIAN_POINT('',(4.45421525657,110.3777624621));
#409 = CARTESIAN_POINT('',(4.475384377746,108.54728591507));
#410 = CARTESIAN_POINT('',(4.484419459278,107.71648892401));
#411 = CARTESIAN_POINT('',(4.492982282586,106.86696540286));
#412 = CARTESIAN_POINT('',(4.50093437192,105.9966808864));
#413 = CARTESIAN_POINT('',(4.508076244841,105.10453048792));
#414 = CARTESIAN_POINT('',(4.514159713571,104.18866386452));
#415 = CARTESIAN_POINT('',(4.52116843661,102.79368918728));
#416 = CARTESIAN_POINT('',(4.523128658769,102.33632546199));
#417 = CARTESIAN_POINT('',(4.524741690219,101.87417571774));
#418 = CARTESIAN_POINT('',(4.525975222616,101.40857944104));
#419 = CARTESIAN_POINT('',(4.526807011644,100.9405191529));
#420 = CARTESIAN_POINT('',(4.527224506346,100.47076163132));
#421 = CARTESIAN_POINT('',(4.527224506346,99.517709114461));
#422 = CARTESIAN_POINT('',(4.526786311987,99.036538053381));
#423 = CARTESIAN_POINT('',(4.525913579439,98.557198515494));
#424 = CARTESIAN_POINT('',(4.524620083028,98.080485585658));
#425 = CARTESIAN_POINT('',(4.522930101218,97.607434733067));
#426 = CARTESIAN_POINT('',(4.520878834276,97.139477766316));
#427 = CARTESIAN_POINT('',(4.516934552386,96.371153338595));
#428 = CARTESIAN_POINT('',(4.515213619259,96.066354860231));
#429 = CARTESIAN_POINT('',(4.513359601025,95.764134830734));
#430 = CARTESIAN_POINT('',(4.511382009435,95.464462016019));
#431 = CARTESIAN_POINT('',(4.509290323347,95.167341351358));
#432 = CARTESIAN_POINT('',(4.507093990846,94.872813865355));
#433 = CARTESIAN_POINT('',(4.497490371816,93.649679147762));
#434 = CARTESIAN_POINT('',(4.489177984917,92.741667082504));
#435 = CARTESIAN_POINT('',(4.480120934828,91.855272907329));
#436 = CARTESIAN_POINT('',(4.470529961841,90.990021822537));
#437 = CARTESIAN_POINT('',(4.460546461681,90.144152853039));
#438 = CARTESIAN_POINT('',(4.450227233965,89.312988888879));
#439 = CARTESIAN_POINT('',(4.428586492402,87.643452654122));
#440 = CARTESIAN_POINT('',(4.417283751435,86.808246908704));
#441 = CARTESIAN_POINT('',(4.405721938854,85.983424437356));
#442 = CARTESIAN_POINT('',(4.393965328554,85.1690261414));
#443 = CARTESIAN_POINT('',(4.382044310088,84.363898574356));
#444 = CARTESIAN_POINT('',(4.369955734245,83.565588542981));
#445 = CARTESIAN_POINT('',(4.34478038545,81.93688421916));
#446 = CARTESIAN_POINT('',(4.331711655339,81.109276451449));
#447 = CARTESIAN_POINT('',(4.318488534604,80.287729774238));
#448 = CARTESIAN_POINT('',(4.305126508856,79.471956237076));
#449 = CARTESIAN_POINT('',(4.291631569331,78.661454836042));
#450 = CARTESIAN_POINT('',(4.278002528062,77.855577593837));
#451 = CARTESIAN_POINT('',(4.251783696759,76.328546164025));
#452 = CARTESIAN_POINT('',(4.239226254707,75.607066970257));
#453 = CARTESIAN_POINT('',(4.226563251992,74.889059905652));
#454 = CARTESIAN_POINT('',(4.213795457559,74.174426633013));
#455 = CARTESIAN_POINT('',(4.200922223885,73.463084820768));
#456 = CARTESIAN_POINT('',(4.187941850569,72.754972223101));
#457 = CARTESIAN_POINT('',(4.174851859041,72.050055288845));
#458 = ( GEOMETRIC_REPRESENTATION_CONTEXT(2) 
PARAMETRIC_REPRESENTATION_CONTEXT() REPRESENTATION_CONTEXT('2D SPACE',''
  ) );
#459 = PCURVE('',#460,#465);
#460 = CYLINDRICAL_SURFACE('',#461,57.5);
#461 = AXIS2_PLACEMENT_3D('',#462,#463,#464);
#462 = CARTESIAN_POINT('',(-100.,0.,0.));
#463 = DIRECTION('',(1.,0.,0.));
#464 = DIRECTION('',(-0.,0.,1.));
#465 = DEFINITIONAL_REPRESENTATION('',(#466),#481);
#466 = B_SPLINE_CURVE_WITH_KNOTS('',7,(#467,#468,#469,#470,#471,#472,
    #473,#474,#475,#476,#477,#478,#479,#480),.UNSPECIFIED.,.F.,.F.,(8,6,
    8),(9.706456806273E-02,0.100485174578,0.147125645761),
  .UNSPECIFIED.);
#467 = CARTESIAN_POINT('',(7.440543826333,74.511472261934));
#468 = CARTESIAN_POINT('',(7.441013857632,74.533903788665));
#469 = CARTESIAN_POINT('',(7.441483854986,74.556334085941));
#470 = CARTESIAN_POINT('',(7.441953818682,74.578763136308));
#471 = CARTESIAN_POINT('',(7.442423749003,74.601190922191));
#472 = CARTESIAN_POINT('',(7.442893646233,74.623617425895));
#473 = CARTESIAN_POINT('',(7.443363510657,74.646042629598));
#474 = CARTESIAN_POINT('',(7.450239569412,74.974219484255));
#475 = CARTESIAN_POINT('',(7.456636856961,75.279589323178));
#476 = CARTESIAN_POINT('',(7.463027041351,75.584583711341));
#477 = CARTESIAN_POINT('',(7.469411868645,75.889202030965));
#478 = CARTESIAN_POINT('',(7.475792977557,76.193433493155));
#479 = CARTESIAN_POINT('',(7.48217188374,76.497255133176));
#480 = CARTESIAN_POINT('',(7.48854996562,76.800629675137));
#481 = ( GEOMETRIC_REPRESENTATION_CONTEXT(2) 
PARAMETRIC_REPRESENTATION_CONTEXT() REPRESENTATION_CONTEXT('2D SPACE',''
  ) );
#482 = ADVANCED_FACE('',(#483,#628),#49,.T.);
#483 = FACE_BOUND('',#484,.F.);
#484 = EDGE_LOOP('',(#485,#520,#550,#578,#579));
#485 = ORIENTED_EDGE('',*,*,#486,.F.);
#486 = EDGE_CURVE('',#487,#489,#491,.T.);
#487 = VERTEX_POINT('',#488);
#488 = CARTESIAN_POINT('',(-25.48852773859,52.655341169905,
    23.101191447215));
#489 = VERTEX_POINT('',#490);
#490 = CARTESIAN_POINT('',(-21.01819237691,54.593823727663,
    -18.04894486646));
#491 = SURFACE_CURVE('',#492,(#497,#504),.PCURVE_S1.);
#492 = ELLIPSE('',#493,541.66989809863,58.5);
#493 = AXIS2_PLACEMENT_3D('',#494,#495,#496);
#494 = CARTESIAN_POINT('',(0.,0.,-211.5246936416));
#495 = DIRECTION('',(-0.994150963972,0.,-0.107999355706));
#496 = DIRECTION('',(-0.107999355706,0.,0.994150963972));
#497 = PCURVE('',#49,#498);
#498 = DEFINITIONAL_REPRESENTATION('',(#499),#503);
#499 = ELLIPSE('',#500,541.66989809863,58.5);
#500 = AXIS2_PLACEMENT_2D('',#501,#502);
#501 = CARTESIAN_POINT('',(-43.05191136565,-200.));
#502 = DIRECTION('',(-1.,0.));
#503 = ( GEOMETRIC_REPRESENTATION_CONTEXT(2) 
PARAMETRIC_REPRESENTATION_CONTEXT() REPRESENTATION_CONTEXT('2D SPACE',''
  ) );
#504 = PCURVE('',#505,#510);
#505 = CYLINDRICAL_SURFACE('',#506,58.5);
#506 = AXIS2_PLACEMENT_3D('',#507,#508,#509);
#507 = CARTESIAN_POINT('',(0.,0.,-100.));
#508 = DIRECTION('',(0.,0.,1.));
#509 = DIRECTION('',(1.,0.,-0.));
#510 = DEFINITIONAL_REPRESENTATION('',(#511),#519);
#511 = B_SPLINE_CURVE_WITH_KNOTS('',6,(#512,#513,#514,#515,#516,#517,
    #518),.UNSPECIFIED.,.F.,.F.,(7,7),(1.033259204154,1.28440097536),
  .PIECEWISE_BEZIER_KNOTS.);
#512 = CARTESIAN_POINT('',(2.108333449436,164.2000006));
#513 = CARTESIAN_POINT('',(2.066476487568,144.8387272122));
#514 = CARTESIAN_POINT('',(2.024619525701,124.89776852348));
#515 = CARTESIAN_POINT('',(1.982762563833,104.4381821693));
#516 = CARTESIAN_POINT('',(1.940905601965,83.524073814202));
#517 = CARTESIAN_POINT('',(1.899048640097,62.221950582194));
#518 = CARTESIAN_POINT('',(1.85719167823,40.5999994));
#519 = ( GEOMETRIC_REPRESENTATION_CONTEXT(2) 
PARAMETRIC_REPRESENTATION_CONTEXT() REPRESENTATION_CONTEXT('2D SPACE',''
  ) );
#520 = ORIENTED_EDGE('',*,*,#521,.F.);
#521 = EDGE_CURVE('',#522,#487,#524,.T.);
#522 = VERTEX_POINT('',#523);
#523 = CARTESIAN_POINT('',(-29.22543419987,1.408343819019E-14,57.5));
#524 = SURFACE_CURVE('',#525,(#530,#537),.PCURVE_S1.);
#525 = ELLIPSE('',#526,57.838298290481,57.5);
#526 = AXIS2_PLACEMENT_3D('',#527,#528,#529);
#527 = CARTESIAN_POINT('',(-22.97893524936,0.,0.));
#528 = DIRECTION('',(-0.994150963972,-0.,-0.107999355706));
#529 = DIRECTION('',(0.107999355706,0.,-0.994150963972));
#530 = PCURVE('',#49,#531);
#531 = DEFINITIONAL_REPRESENTATION('',(#532),#536);
#532 = ELLIPSE('',#533,57.838298290481,57.5);
#533 = AXIS2_PLACEMENT_2D('',#534,#535);
#534 = CARTESIAN_POINT('',(-255.8210996552,-200.));
#535 = DIRECTION('',(1.,-0.));
#536 = ( GEOMETRIC_REPRESENTATION_CONTEXT(2) 
PARAMETRIC_REPRESENTATION_CONTEXT() REPRESENTATION_CONTEXT('2D SPACE',''
  ) );
#537 = PCURVE('',#460,#538);
#538 = DEFINITIONAL_REPRESENTATION('',(#539),#549);
#539 = B_SPLINE_CURVE_WITH_KNOTS('',8,(#540,#541,#542,#543,#544,#545,
    #546,#547,#548),.UNSPECIFIED.,.F.,.F.,(9,9),(3.14159265359,
    4.298951172751),.PIECEWISE_BEZIER_KNOTS.);
#540 = CARTESIAN_POINT('',(6.28318530718,70.77456580013));
#541 = CARTESIAN_POINT('',(6.138515492284,70.77456580013));
#542 = CARTESIAN_POINT('',(5.99384567739,70.923977595515));
#543 = CARTESIAN_POINT('',(5.849175862494,71.22280025099));
#544 = CARTESIAN_POINT('',(5.704506047601,71.664365279935));
#545 = CARTESIAN_POINT('',(5.559836232706,72.235326157061));
#546 = CARTESIAN_POINT('',(5.415166417811,72.916419090008));
#547 = CARTESIAN_POINT('',(5.270496602915,73.683931889567));
#548 = CARTESIAN_POINT('',(5.12582678802,74.511472268704));
#549 = ( GEOMETRIC_REPRESENTATION_CONTEXT(2) 
PARAMETRIC_REPRESENTATION_CONTEXT() REPRESENTATION_CONTEXT('2D SPACE',''
  ) );
#550 = ORIENTED_EDGE('',*,*,#551,.F.);
#551 = EDGE_CURVE('',#24,#522,#552,.T.);
#552 = SURFACE_CURVE('',#553,(#558,#565),.PCURVE_S1.);
#553 = ELLIPSE('',#554,57.838298290481,57.5);
#554 = AXIS2_PLACEMENT_3D('',#555,#556,#557);
#555 = CARTESIAN_POINT('',(-22.97893524936,0.,0.));
#556 = DIRECTION('',(-0.994150963972,-0.,-0.107999355706));
#557 = DIRECTION('',(0.107999355706,0.,-0.994150963972));
#558 = PCURVE('',#49,#559);
#559 = DEFINITIONAL_REPRESENTATION('',(#560),#564);
#560 = ELLIPSE('',#561,57.838298290481,57.5);
#561 = AXIS2_PLACEMENT_2D('',#562,#563);
#562 = CARTESIAN_POINT('',(-255.8210996552,-200.));
#563 = DIRECTION('',(1.,-0.));
#564 = ( GEOMETRIC_REPRESENTATION_CONTEXT(2) 
PARAMETRIC_REPRESENTATION_CONTEXT() REPRESENTATION_CONTEXT('2D SPACE',''
  ) );
#565 = PCURVE('',#460,#566);
#566 = DEFINITIONAL_REPRESENTATION('',(#567),#577);
#567 = B_SPLINE_CURVE_WITH_KNOTS('',8,(#568,#569,#570,#571,#572,#573,
    #574,#575,#576),.UNSPECIFIED.,.F.,.F.,(9,9),(8.267419441608,
    9.424777960769),.PIECEWISE_BEZIER_KNOTS.);
#568 = CARTESIAN_POINT('',(7.440543826351,74.511472223111));
#569 = CARTESIAN_POINT('',(7.29587401146,73.683931816262));
#570 = CARTESIAN_POINT('',(7.151204196568,72.916419083181));
#571 = CARTESIAN_POINT('',(7.006534381673,72.235326353314));
#572 = CARTESIAN_POINT('',(6.861864566771,71.664365479249));
#573 = CARTESIAN_POINT('',(6.717194751866,71.222799751899));
#574 = CARTESIAN_POINT('',(6.572524936976,70.92397780794));
#575 = CARTESIAN_POINT('',(6.427855122075,70.77456580013));
#576 = CARTESIAN_POINT('',(6.28318530718,70.77456580013));
#577 = ( GEOMETRIC_REPRESENTATION_CONTEXT(2) 
PARAMETRIC_REPRESENTATION_CONTEXT() REPRESENTATION_CONTEXT('2D SPACE',''
  ) );
#578 = ORIENTED_EDGE('',*,*,#21,.F.);
#579 = ORIENTED_EDGE('',*,*,#580,.F.);
#580 = EDGE_CURVE('',#489,#22,#581,.T.);
#581 = SURFACE_CURVE('',#582,(#587,#594),.PCURVE_S1.);
#582 = ELLIPSE('',#583,57.838298290481,57.5);
#583 = AXIS2_PLACEMENT_3D('',#584,#585,#586);
#584 = CARTESIAN_POINT('',(-22.97893524936,0.,0.));
#585 = DIRECTION('',(-0.994150963972,-0.,-0.107999355706));
#586 = DIRECTION('',(0.107999355706,0.,-0.994150963972));
#587 = PCURVE('',#49,#588);
#588 = DEFINITIONAL_REPRESENTATION('',(#589),#593);
#589 = ELLIPSE('',#590,57.838298290481,57.5);
#590 = AXIS2_PLACEMENT_2D('',#591,#592);
#591 = CARTESIAN_POINT('',(-255.8210996552,-200.));
#592 = DIRECTION('',(1.,-0.));
#593 = ( GEOMETRIC_REPRESENTATION_CONTEXT(2) 
PARAMETRIC_REPRESENTATION_CONTEXT() REPRESENTATION_CONTEXT('2D SPACE',''
  ) );
#594 = PCURVE('',#207,#595);
#595 = DEFINITIONAL_REPRESENTATION('',(#596),#627);
#596 = B_SPLINE_CURVE_WITH_KNOTS('',8,(#597,#598,#599,#600,#601,#602,
    #603,#604,#605,#606,#607,#608,#609,#610,#611,#612,#613,#614,#615,
    #616,#617,#618,#619,#620,#621,#622,#623,#624,#625,#626),
  .UNSPECIFIED.,.F.,.F.,(9,7,7,7,9),(3.14159265359,4.712388980385,
    5.890486225481,7.657632093125,9.424777960769),.UNSPECIFIED.);
#597 = CARTESIAN_POINT('',(6.28318530718,70.77456580013));
#598 = CARTESIAN_POINT('',(6.08683576633,70.77456580013));
#599 = CARTESIAN_POINT('',(5.890486225482,71.049791391102));
#600 = CARTESIAN_POINT('',(5.69413668463,71.600240234722));
#601 = CARTESIAN_POINT('',(5.497787143789,72.403285740933));
#602 = CARTESIAN_POINT('',(5.301437602933,73.413628770359));
#603 = CARTESIAN_POINT('',(5.105088062084,74.56807005775));
#604 = CARTESIAN_POINT('',(4.908738521234,75.794567549787));
#605 = CARTESIAN_POINT('',(4.565126824748,77.940937651271));
#606 = CARTESIAN_POINT('',(4.41786466911,78.860810215254));
#607 = CARTESIAN_POINT('',(4.270602513474,79.750286964404));
#608 = CARTESIAN_POINT('',(4.123340357837,80.578963968012));
#609 = CARTESIAN_POINT('',(3.976078202199,81.318561995106));
#610 = CARTESIAN_POINT('',(3.828816046563,81.945006943519));
#611 = CARTESIAN_POINT('',(3.681553890926,82.440057161905));
#612 = CARTESIAN_POINT('',(3.313398501833,83.320107459292));
#613 = CARTESIAN_POINT('',(3.092505268374,83.526320307865));
#614 = CARTESIAN_POINT('',(2.871612034941,83.371459587361));
#615 = CARTESIAN_POINT('',(2.650718801447,82.849747370696));
#616 = CARTESIAN_POINT('',(2.429825568029,81.995093022066));
#617 = CARTESIAN_POINT('',(2.208932334554,80.878334019057));
#618 = CARTESIAN_POINT('',(1.9880391011,79.59299294354));
#619 = CARTESIAN_POINT('',(1.546252634189,76.886399541184));
#620 = CARTESIAN_POINT('',(1.325359400744,75.4651457164));
#621 = CARTESIAN_POINT('',(1.10446616726,74.076564093586));
#622 = CARTESIAN_POINT('',(0.883572933896,72.828312789847));
#623 = CARTESIAN_POINT('',(0.662679700348,71.819557077077));
#624 = CARTESIAN_POINT('',(0.441786466926,71.122898683941));
#625 = CARTESIAN_POINT('',(0.220893233456,70.77456580013));
#626 = CARTESIAN_POINT('',(8.881784197001E-15,70.77456580013));
#627 = ( GEOMETRIC_REPRESENTATION_CONTEXT(2) 
PARAMETRIC_REPRESENTATION_CONTEXT() REPRESENTATION_CONTEXT('2D SPACE',''
  ) );
#628 = FACE_BOUND('',#629,.F.);
#629 = EDGE_LOOP('',(#630));
#630 = ORIENTED_EDGE('',*,*,#631,.T.);
#631 = EDGE_CURVE('',#632,#632,#634,.T.);
#632 = VERTEX_POINT('',#633);
#633 = CARTESIAN_POINT('',(-28.08476917412,1.151167991199E-14,47.));
#634 = SURFACE_CURVE('',#635,(#640,#647),.PCURVE_S1.);
#635 = ELLIPSE('',#636,47.276522080915,47.);
#636 = AXIS2_PLACEMENT_3D('',#637,#638,#639);
#637 = CARTESIAN_POINT('',(-22.97893524936,0.,0.));
#638 = DIRECTION('',(-0.994150963972,-0.,-0.107999355706));
#639 = DIRECTION('',(0.107999355706,0.,-0.994150963972));
#640 = PCURVE('',#49,#641);
#641 = DEFINITIONAL_REPRESENTATION('',(#642),#646);
#642 = ELLIPSE('',#643,47.276522080915,47.);
#643 = AXIS2_PLACEMENT_2D('',#644,#645);
#644 = CARTESIAN_POINT('',(-255.8210996552,-200.));
#645 = DIRECTION('',(1.,-0.));
#646 = ( GEOMETRIC_REPRESENTATION_CONTEXT(2) 
PARAMETRIC_REPRESENTATION_CONTEXT() REPRESENTATION_CONTEXT('2D SPACE',''
  ) );
#647 = PCURVE('',#648,#653);
#648 = CYLINDRICAL_SURFACE('',#649,47.);
#649 = AXIS2_PLACEMENT_3D('',#650,#651,#652);
#650 = CARTESIAN_POINT('',(-100.,0.,0.));
#651 = DIRECTION('',(1.,0.,0.));
#652 = DIRECTION('',(-0.,0.,1.));
#653 = DEFINITIONAL_REPRESENTATION('',(#654),#685);
#654 = B_SPLINE_CURVE_WITH_KNOTS('',8,(#655,#656,#657,#658,#659,#660,
    #661,#662,#663,#664,#665,#666,#667,#668,#669,#670,#671,#672,#673,
    #674,#675,#676,#677,#678,#679,#680,#681,#682,#683,#684),
  .UNSPECIFIED.,.F.,.F.,(9,7,7,7,9),(3.14159265359,4.712388980385,
    5.890486225481,7.657632093125,9.424777960769),.UNSPECIFIED.);
#655 = CARTESIAN_POINT('',(6.28318530718,71.915230825875));
#656 = CARTESIAN_POINT('',(6.08683576633,71.915230825875));
#657 = CARTESIAN_POINT('',(5.890486225482,72.140197830668));
#658 = CARTESIAN_POINT('',(5.69413668463,72.590129928722));
#659 = CARTESIAN_POINT('',(5.497787143789,73.246532342921));
#660 = CARTESIAN_POINT('',(5.301437602933,74.072377949109));
#661 = CARTESIAN_POINT('',(5.105088062084,75.016008219027));
#662 = CARTESIAN_POINT('',(4.908738521234,76.018536603855));
#663 = CARTESIAN_POINT('',(4.565126824748,77.77296086072));
#664 = CARTESIAN_POINT('',(4.41786466911,78.524856695628));
#665 = CARTESIAN_POINT('',(4.270602513474,79.251907255803));
#666 = CARTESIAN_POINT('',(4.123340357837,79.929260632667));
#667 = CARTESIAN_POINT('',(3.976078202199,80.533801628734));
#668 = CARTESIAN_POINT('',(3.828816046563,81.045852282224));
#669 = CARTESIAN_POINT('',(3.681553890926,81.450502025934));
#670 = CARTESIAN_POINT('',(3.313398501833,82.169847486407));
#671 = CARTESIAN_POINT('',(3.092505268374,82.338404075839));
#672 = CARTESIAN_POINT('',(2.871612034941,82.211822268931));
#673 = CARTESIAN_POINT('',(2.650718801447,81.785379240348));
#674 = CARTESIAN_POINT('',(2.429825568029,81.086792206857));
#675 = CARTESIAN_POINT('',(2.208932334554,80.173963109279));
#676 = CARTESIAN_POINT('',(1.9880391011,79.123336490923));
#677 = CARTESIAN_POINT('',(1.546252634189,76.910990579432));
#678 = CARTESIAN_POINT('',(1.325359400744,75.749270061788));
#679 = CARTESIAN_POINT('',(1.10446616726,74.614255517692));
#680 = CARTESIAN_POINT('',(0.883572933896,73.593945756904));
#681 = CARTESIAN_POINT('',(0.662679700348,72.769397608557));
#682 = CARTESIAN_POINT('',(0.441786466926,72.199955096163));
#683 = CARTESIAN_POINT('',(0.220893233456,71.915230825875));
#684 = CARTESIAN_POINT('',(8.881784197001E-15,71.915230825875));
#685 = ( GEOMETRIC_REPRESENTATION_CONTEXT(2) 
PARAMETRIC_REPRESENTATION_CONTEXT() REPRESENTATION_CONTEXT('2D SPACE',''
  ) );
#686 = ADVANCED_FACE('',(#687),#460,.T.);
#687 = FACE_BOUND('',#688,.T.);
#688 = EDGE_LOOP('',(#689,#719,#749,#911,#912,#913));
#689 = ORIENTED_EDGE('',*,*,#690,.T.);
#690 = EDGE_CURVE('',#285,#691,#693,.T.);
#691 = VERTEX_POINT('',#692);
#692 = CARTESIAN_POINT('',(-27.2136673028,1.408343819019E-14,57.5));
#693 = SURFACE_CURVE('',#694,(#699,#712),.PCURVE_S1.);
#694 = ELLIPSE('',#695,57.838298290481,57.5);
#695 = AXIS2_PLACEMENT_3D('',#696,#697,#698);
#696 = CARTESIAN_POINT('',(-20.9671683523,0.,0.));
#697 = DIRECTION('',(-0.994150963972,-0.,-0.107999355706));
#698 = DIRECTION('',(0.107999355706,0.,-0.994150963972));
#699 = PCURVE('',#460,#700);
#700 = DEFINITIONAL_REPRESENTATION('',(#701),#711);
#701 = B_SPLINE_CURVE_WITH_KNOTS('',8,(#702,#703,#704,#705,#706,#707,
    #708,#709,#710),.UNSPECIFIED.,.F.,.F.,(9,9),(8.219413302424,
    9.424777960769),.PIECEWISE_BEZIER_KNOTS.);
#702 = CARTESIAN_POINT('',(7.488549965534,76.800629655759));
#703 = CARTESIAN_POINT('',(7.337879383245,75.921611376071));
#704 = CARTESIAN_POINT('',(7.187208800956,75.100506973486));
#705 = CARTESIAN_POINT('',(7.036538218664,74.367724475427));
#706 = CARTESIAN_POINT('',(6.885867636365,73.750866926693));
#707 = CARTESIAN_POINT('',(6.73519705406,73.272522390346));
#708 = CARTESIAN_POINT('',(6.584526471773,72.948396708354));
#709 = CARTESIAN_POINT('',(6.433855889473,72.786332697191));
#710 = CARTESIAN_POINT('',(6.28318530718,72.786332697191));
#711 = ( GEOMETRIC_REPRESENTATION_CONTEXT(2) 
PARAMETRIC_REPRESENTATION_CONTEXT() REPRESENTATION_CONTEXT('2D SPACE',''
  ) );
#712 = PCURVE('',#304,#713);
#713 = DEFINITIONAL_REPRESENTATION('',(#714),#718);
#714 = ELLIPSE('',#715,57.838298290481,57.5);
#715 = AXIS2_PLACEMENT_2D('',#716,#717);
#716 = CARTESIAN_POINT('',(-255.6038301264,-200.));
#717 = DIRECTION('',(1.,-0.));
#718 = ( GEOMETRIC_REPRESENTATION_CONTEXT(2) 
PARAMETRIC_REPRESENTATION_CONTEXT() REPRESENTATION_CONTEXT('2D SPACE',''
  ) );
#719 = ORIENTED_EDGE('',*,*,#720,.T.);
#720 = EDGE_CURVE('',#691,#721,#723,.T.);
#721 = VERTEX_POINT('',#722);
#722 = CARTESIAN_POINT('',(-23.19937032385,53.703251452669,
    20.547768338859));
#723 = SURFACE_CURVE('',#724,(#729,#742),.PCURVE_S1.);
#724 = ELLIPSE('',#725,57.838298290481,57.5);
#725 = AXIS2_PLACEMENT_3D('',#726,#727,#728);
#726 = CARTESIAN_POINT('',(-20.9671683523,0.,0.));
#727 = DIRECTION('',(-0.994150963972,-0.,-0.107999355706));
#728 = DIRECTION('',(0.107999355706,0.,-0.994150963972));
#729 = PCURVE('',#460,#730);
#730 = DEFINITIONAL_REPRESENTATION('',(#731),#741);
#731 = B_SPLINE_CURVE_WITH_KNOTS('',8,(#732,#733,#734,#735,#736,#737,
    #738,#739,#740),.UNSPECIFIED.,.F.,.F.,(9,9),(3.14159265359,
    4.346957312074),.PIECEWISE_BEZIER_KNOTS.);
#732 = CARTESIAN_POINT('',(6.28318530718,72.786332697191));
#733 = CARTESIAN_POINT('',(6.132514724869,72.786332697191));
#734 = CARTESIAN_POINT('',(5.981844142559,72.948396477923));
#735 = CARTESIAN_POINT('',(5.831173560248,73.272522982929));
#736 = CARTESIAN_POINT('',(5.680502977939,73.75086659652));
#737 = CARTESIAN_POINT('',(5.529832395629,74.367724293916));
#738 = CARTESIAN_POINT('',(5.379161813318,75.100507035827));
#739 = CARTESIAN_POINT('',(5.228491231007,75.921611463705));
#740 = CARTESIAN_POINT('',(5.077820648696,76.800629688753));
#741 = ( GEOMETRIC_REPRESENTATION_CONTEXT(2) 
PARAMETRIC_REPRESENTATION_CONTEXT() REPRESENTATION_CONTEXT('2D SPACE',''
  ) );
#742 = PCURVE('',#304,#743);
#743 = DEFINITIONAL_REPRESENTATION('',(#744),#748);
#744 = ELLIPSE('',#745,57.838298290481,57.5);
#745 = AXIS2_PLACEMENT_2D('',#746,#747);
#746 = CARTESIAN_POINT('',(-255.6038301264,-200.));
#747 = DIRECTION('',(1.,-0.));
#748 = ( GEOMETRIC_REPRESENTATION_CONTEXT(2) 
PARAMETRIC_REPRESENTATION_CONTEXT() REPRESENTATION_CONTEXT('2D SPACE',''
  ) );
#749 = ORIENTED_EDGE('',*,*,#750,.T.);
#750 = EDGE_CURVE('',#721,#487,#751,.T.);
#751 = SURFACE_CURVE('',#752,(#821,#839),.PCURVE_S1.);
#752 = B_SPLINE_CURVE_WITH_KNOTS('',7,(#753,#754,#755,#756,#757,#758,
    #759,#760,#761,#762,#763,#764,#765,#766,#767,#768,#769,#770,#771,
    #772,#773,#774,#775,#776,#777,#778,#779,#780,#781,#782,#783,#784,
    #785,#786,#787,#788,#789,#790,#791,#792,#793,#794,#795,#796,#797,
    #798,#799,#800,#801,#802,#803,#804,#805,#806,#807,#808,#809,#810,
    #811,#812,#813,#814,#815,#816,#817,#818,#819,#820),.UNSPECIFIED.,.F.
  ,.F.,(8,6,6,6,6,6,6,6,6,6,6,8),(0.,0.100485174601,0.231608453774,
    0.354464199144,0.453340633806,0.500540441716,0.548896203187,
    0.581153423544,0.684081896079,0.789501660585,0.900051033626,1.),
  .UNSPECIFIED.);
#753 = CARTESIAN_POINT('',(-29.95328712105,50.2498814988,-27.94994471115
    ));
#754 = CARTESIAN_POINT('',(-29.29311488093,50.643401405075,
    -27.24245391422));
#755 = CARTESIAN_POINT('',(-28.63245998209,51.023494910006,
    -26.53174448668));
#756 = CARTESIAN_POINT('',(-27.97156490991,51.390432389162,
    -25.81778228961));
#757 = CARTESIAN_POINT('',(-27.31069109041,51.744457981975,
    -25.10050405506));
#758 = CARTESIAN_POINT('',(-26.6501378214,52.0857856787,-24.37982620124)
  );
#759 = CARTESIAN_POINT('',(-25.99026697683,52.414598088339,
    -23.65564901093));
#760 = CARTESIAN_POINT('',(-24.47195100453,53.143983781081,
    -21.97815803216));
#761 = CARTESIAN_POINT('',(-23.61539669173,53.535344648471,
    -21.02350884638));
#762 = CARTESIAN_POINT('',(-22.76169991161,53.906129462218,
    -20.06238360637));
#763 = CARTESIAN_POINT('',(-21.9112083377,54.256957271528,
    -19.09342210064));
#764 = CARTESIAN_POINT('',(-21.0651170939,54.58805601564,-18.11565224728
    ));
#765 = CARTESIAN_POINT('',(-20.22586237631,54.899319582807,
    -17.12866839131));
#766 = CARTESIAN_POINT('',(-18.62152129857,55.463191470238,
    -15.19965408267));
#767 = CARTESIAN_POINT('',(-17.86014799716,55.716484994882,
    -14.26478810942));
#768 = CARTESIAN_POINT('',(-17.10876576147,55.953231870547,
    -13.31913255506));
#769 = CARTESIAN_POINT('',(-16.36706837907,56.174190964356,
    -12.35691988555));
#770 = CARTESIAN_POINT('',(-15.63987565068,56.378572421818,
    -11.37615541964));
#771 = CARTESIAN_POINT('',(-14.93693785237,56.565083781706,
    -10.37776246211));
#772 = CARTESIAN_POINT('',(-13.73596115888,56.867199094949,
    -8.547285915057));
#773 = CARTESIAN_POINT('',(-13.22189488647,56.990245232885,
    -7.716488924037));
#774 = CARTESIAN_POINT('',(-12.73344425767,57.101544358921,
    -6.866965402822));
#775 = CARTESIAN_POINT('',(-12.27879154883,57.200214662174,
    -5.996680886457));
#776 = CARTESIAN_POINT('',(-11.86968908225,57.285093776723,
    -5.104530487897));
#777 = CARTESIAN_POINT('',(-11.52074225496,57.355030468996,
    -4.188663864523));
#778 = CARTESIAN_POINT('',(-11.11838272303,57.433867334401,
    -2.793689187286));
#779 = CARTESIAN_POINT('',(-11.00578221328,57.455573250799,
    -2.336325461996));
#780 = CARTESIAN_POINT('',(-10.91307972232,57.473196041604,
    -1.874175717751));
#781 = CARTESIAN_POINT('',(-10.84216342275,57.486544915991,
    -1.408579441042));
#782 = CARTESIAN_POINT('',(-10.7943355617,57.495503394455,
    -0.940519152906));
#783 = CARTESIAN_POINT('',(-10.77032961426,57.5,-0.470761631327));
#784 = CARTESIAN_POINT('',(-10.77032961426,57.5,0.482290885538));
#785 = CARTESIAN_POINT('',(-10.79552579239,57.495280442993,
    0.963461946614));
#786 = CARTESIAN_POINT('',(-10.84570790428,57.48588101996,1.442801484512
    ));
#787 = CARTESIAN_POINT('',(-10.92007093553,57.471879862257,
    1.919514414348));
#788 = CARTESIAN_POINT('',(-11.01719336234,57.453403155775,
    2.392565266926));
#789 = CARTESIAN_POINT('',(-11.13501788237,57.430658485261,
    2.860522233683));
#790 = CARTESIAN_POINT('',(-11.36143540809,57.386203136396,
    3.628846661404));
#791 = CARTESIAN_POINT('',(-11.46019108589,57.366639992184,
    3.933645139769));
#792 = CARTESIAN_POINT('',(-11.56654259404,57.345355733699,
    4.235865169266));
#793 = CARTESIAN_POINT('',(-11.67993234966,57.322402293173,
    4.535537983981));
#794 = CARTESIAN_POINT('',(-11.79980454055,57.297832531491,
    4.832658648642));
#795 = CARTESIAN_POINT('',(-11.92560542355,57.271702492194,
    5.127186134645));
#796 = CARTESIAN_POINT('',(-12.47535569869,57.155913735547,
    6.350320852258));
#797 = CARTESIAN_POINT('',(-12.9504385047,57.052122452305,7.258332917463
    ));
#798 = CARTESIAN_POINT('',(-13.46698994736,56.934030815097,
    8.144727092676));
#799 = CARTESIAN_POINT('',(-14.01257582,56.802828449768,9.00997817745));
#800 = CARTESIAN_POINT('',(-14.57883359945,56.659559494181,
    9.855847147009));
#801 = CARTESIAN_POINT('',(-15.16227826083,56.504393383235,
    10.687011111089));
#802 = CARTESIAN_POINT('',(-16.38142793143,56.163236523536,
    12.356547345933));
#803 = CARTESIAN_POINT('',(-17.01597235397,55.977173541618,
    13.191753091204));
#804 = CARTESIAN_POINT('',(-17.66252995628,55.778265038767,
    14.016575562505));
#805 = CARTESIAN_POINT('',(-18.31716968521,55.567018602313,
    14.830973858836));
#806 = CARTESIAN_POINT('',(-18.97791600112,55.34362316947,
    15.636101425745));
#807 = CARTESIAN_POINT('',(-19.64465052679,55.107662867966,
    16.434411456815));
#808 = CARTESIAN_POINT('',(-21.02571909338,54.596130405473,
    18.06311578079));
#809 = CARTESIAN_POINT('',(-21.73870652052,54.319961333481,
    18.890723548541));
#810 = CARTESIAN_POINT('',(-22.45583472932,54.029557266099,
    19.71227022578));
#811 = CARTESIAN_POINT('',(-23.1758864167,53.724902254597,
    20.528043762953));
#812 = CARTESIAN_POINT('',(-23.89816315614,53.405832840398,
    21.338545163979));
#813 = CARTESIAN_POINT('',(-24.62233403389,53.072022107882,
    22.144422406154));
#814 = CARTESIAN_POINT('',(-26.00466911895,52.407419101296,
    23.671453835895));
#815 = CARTESIAN_POINT('',(-26.66215163041,52.079576115887,
    24.392933029744));
#816 = CARTESIAN_POINT('',(-27.32030671761,51.739305933852,
    25.110940094409));
#817 = CARTESIAN_POINT('',(-27.97877700401,51.386427623773,
    25.825573367031));
#818 = CARTESIAN_POINT('',(-28.63726653887,51.02072938789,
    26.536915179207));
#819 = CARTESIAN_POINT('',(-29.29551659788,50.641969773496,
    27.245027776822));
#820 = CARTESIAN_POINT('',(-29.95328712105,50.2498814988,27.949944711155
    ));
#821 = PCURVE('',#460,#822);
#822 = DEFINITIONAL_REPRESENTATION('',(#823),#838);
#823 = B_SPLINE_CURVE_WITH_KNOTS('',7,(#824,#825,#826,#827,#828,#829,
    #830,#831,#832,#833,#834,#835,#836,#837),.UNSPECIFIED.,.F.,.F.,(8,6,
    8),(0.853142905951,0.900051033626,0.903100897598),.UNSPECIFIED.);
#824 = CARTESIAN_POINT('',(5.077820648674,76.800629676149));
#825 = CARTESIAN_POINT('',(5.084249916801,76.494820453823));
#826 = CARTESIAN_POINT('',(5.090680046053,76.188555809586));
#827 = CARTESIAN_POINT('',(5.097112217591,75.881884891156));
#828 = CARTESIAN_POINT('',(5.103547728463,75.574843389569));
#829 = CARTESIAN_POINT('',(5.109987979244,75.267455572183));
#830 = CARTESIAN_POINT('',(5.116434459904,74.959736178292));
#831 = CARTESIAN_POINT('',(5.123308376701,74.631663829482));
#832 = CARTESIAN_POINT('',(5.123728045564,74.611634437599));
#833 = CARTESIAN_POINT('',(5.124147740701,74.591604014481));
#834 = CARTESIAN_POINT('',(5.124567462313,74.571572572795));
#835 = CARTESIAN_POINT('',(5.124987210602,74.55154012513));
#836 = CARTESIAN_POINT('',(5.125406985772,74.531506683998));
#837 = CARTESIAN_POINT('',(5.125826788025,74.511472261835));
#838 = ( GEOMETRIC_REPRESENTATION_CONTEXT(2) 
PARAMETRIC_REPRESENTATION_CONTEXT() REPRESENTATION_CONTEXT('2D SPACE',''
  ) );
#839 = PCURVE('',#505,#840);
#840 = DEFINITIONAL_REPRESENTATION('',(#841),#910);
#841 = B_SPLINE_CURVE_WITH_KNOTS('',7,(#842,#843,#844,#845,#846,#847,
    #848,#849,#850,#851,#852,#853,#854,#855,#856,#857,#858,#859,#860,
    #861,#862,#863,#864,#865,#866,#867,#868,#869,#870,#871,#872,#873,
    #874,#875,#876,#877,#878,#879,#880,#881,#882,#883,#884,#885,#886,
    #887,#888,#889,#890,#891,#892,#893,#894,#895,#896,#897,#898,#899,
    #900,#901,#902,#903,#904,#905,#906,#907,#908,#909),.UNSPECIFIED.,.F.
  ,.F.,(8,6,6,6,6,6,6,6,6,6,6,8),(0.,0.100485174601,0.231608453774,
    0.354464199144,0.453340633806,0.500540441716,0.548896203187,
    0.581153423544,0.684081896079,0.789501660585,0.900051033626,1.),
  .UNSPECIFIED.);
#842 = CARTESIAN_POINT('',(2.108333448139,72.050055288845));
#843 = CARTESIAN_POINT('',(2.095195661135,72.757546085772));
#844 = CARTESIAN_POINT('',(2.082168301973,73.46825551332));
#845 = CARTESIAN_POINT('',(2.069248860325,74.182217710384));
#846 = CARTESIAN_POINT('',(2.056435615778,74.899495944938));
#847 = CARTESIAN_POINT('',(2.043727918072,75.620173798756));
#848 = CARTESIAN_POINT('',(2.031126558342,76.344350989067));
#849 = CARTESIAN_POINT('',(2.002332972151,78.021841967835));
#850 = CARTESIAN_POINT('',(1.986238072359,78.976491153615));
#851 = CARTESIAN_POINT('',(1.970332422443,79.937616393627));
#852 = CARTESIAN_POINT('',(1.954610554202,80.906577899359));
#853 = CARTESIAN_POINT('',(1.939083467637,81.884347752716));
#854 = CARTESIAN_POINT('',(1.923784589724,82.871331608683));
#855 = CARTESIAN_POINT('',(1.894715401693,84.800345917324));
#856 = CARTESIAN_POINT('',(1.88100109172,85.735211890573));
#857 = CARTESIAN_POINT('',(1.867537142305,86.680867444937));
#858 = CARTESIAN_POINT('',(1.854310827391,87.643080114446));
#859 = CARTESIAN_POINT('',(1.841400821881,88.623844580352));
#860 = CARTESIAN_POINT('',(1.82897005061,89.622237537885));
#861 = CARTESIAN_POINT('',(1.807800929434,91.452714084943));
#862 = CARTESIAN_POINT('',(1.798765847902,92.283511075963));
#863 = CARTESIAN_POINT('',(1.790203024593,93.133034597179));
#864 = CARTESIAN_POINT('',(1.78225093526,94.003319113542));
#865 = CARTESIAN_POINT('',(1.775109062338,94.895469512104));
#866 = CARTESIAN_POINT('',(1.769025593609,95.811336135477));
#867 = CARTESIAN_POINT('',(1.76201687057,97.206310812714));
#868 = CARTESIAN_POINT('',(1.760056648411,97.663674538004));
#869 = CARTESIAN_POINT('',(1.75844361696,98.125824282249));
#870 = CARTESIAN_POINT('',(1.757210084564,98.591420558958));
#871 = CARTESIAN_POINT('',(1.756378295535,99.059480847093));
#872 = CARTESIAN_POINT('',(1.755960800834,99.529238368673));
#873 = CARTESIAN_POINT('',(1.755960800834,100.48229088553));
#874 = CARTESIAN_POINT('',(1.756398995192,100.96346194661));
#875 = CARTESIAN_POINT('',(1.757271727741,101.44280148451));
#876 = CARTESIAN_POINT('',(1.758565224152,101.91951441434));
#877 = CARTESIAN_POINT('',(1.760255205962,102.39256526692));
#878 = CARTESIAN_POINT('',(1.762306472903,102.86052223368));
#879 = CARTESIAN_POINT('',(1.766250754794,103.6288466614));
#880 = CARTESIAN_POINT('',(1.767971687921,103.93364513976));
#881 = CARTESIAN_POINT('',(1.769825706154,104.23586516926));
#882 = CARTESIAN_POINT('',(1.771803297744,104.53553798398));
#883 = CARTESIAN_POINT('',(1.773894983833,104.83265864864));
#884 = CARTESIAN_POINT('',(1.776091316334,105.12718613464));
#885 = CARTESIAN_POINT('',(1.785694935364,106.35032085225));
#886 = CARTESIAN_POINT('',(1.794007322262,107.25833291746));
#887 = CARTESIAN_POINT('',(1.803064372351,108.14472709267));
#888 = CARTESIAN_POINT('',(1.812655345338,109.00997817745));
#889 = CARTESIAN_POINT('',(1.822638845499,109.855847147));
#890 = CARTESIAN_POINT('',(1.832958073214,110.68701111108));
#891 = CARTESIAN_POINT('',(1.854598814778,112.35654734593));
#892 = CARTESIAN_POINT('',(1.865901555744,113.1917530912));
#893 = CARTESIAN_POINT('',(1.877463368323,114.0165755625));
#894 = CARTESIAN_POINT('',(1.889219978629,114.83097385883));
#895 = CARTESIAN_POINT('',(1.901140997094,115.63610142574));
#896 = CARTESIAN_POINT('',(1.913229572931,116.43441145681));
#897 = CARTESIAN_POINT('',(1.938404921729,118.06311578079));
#898 = CARTESIAN_POINT('',(1.95147365184,118.89072354854));
#899 = CARTESIAN_POINT('',(1.964696772576,119.71227022578));
#900 = CARTESIAN_POINT('',(1.978058798325,120.52804376295));
#901 = CARTESIAN_POINT('',(1.991553737849,121.33854516397));
#902 = CARTESIAN_POINT('',(2.005182779118,122.14442240615));
#903 = CARTESIAN_POINT('',(2.031401610419,123.67145383589));
#904 = CARTESIAN_POINT('',(2.043959052473,124.39293302974));
#905 = CARTESIAN_POINT('',(2.056622055189,125.1109400944));
#906 = CARTESIAN_POINT('',(2.069389849622,125.82557336703));
#907 = CARTESIAN_POINT('',(2.082263083294,126.5369151792));
#908 = CARTESIAN_POINT('',(2.095243456609,127.24502777682));
#909 = CARTESIAN_POINT('',(2.108333448139,127.94994471115));
#910 = ( GEOMETRIC_REPRESENTATION_CONTEXT(2) 
PARAMETRIC_REPRESENTATION_CONTEXT() REPRESENTATION_CONTEXT('2D SPACE',''
  ) );
#911 = ORIENTED_EDGE('',*,*,#521,.F.);
#912 = ORIENTED_EDGE('',*,*,#551,.F.);
#913 = ORIENTED_EDGE('',*,*,#316,.T.);
#914 = ADVANCED_FACE('',(#915,#996),#304,.F.);
#915 = FACE_BOUND('',#916,.T.);
#916 = EDGE_LOOP('',(#917,#918,#969,#994,#995));
#917 = ORIENTED_EDGE('',*,*,#284,.F.);
#918 = ORIENTED_EDGE('',*,*,#919,.F.);
#919 = EDGE_CURVE('',#920,#62,#922,.T.);
#920 = VERTEX_POINT('',#921);
#921 = CARTESIAN_POINT('',(-19.23576514367,55.247039195469,
    -15.93783738457));
#922 = SURFACE_CURVE('',#923,(#928,#935),.PCURVE_S1.);
#923 = ELLIPSE('',#924,57.838298290481,57.5);
#924 = AXIS2_PLACEMENT_3D('',#925,#926,#927);
#925 = CARTESIAN_POINT('',(-20.9671683523,0.,0.));
#926 = DIRECTION('',(-0.994150963972,-0.,-0.107999355706));
#927 = DIRECTION('',(0.107999355706,0.,-0.994150963972));
#928 = PCURVE('',#304,#929);
#929 = DEFINITIONAL_REPRESENTATION('',(#930),#934);
#930 = ELLIPSE('',#931,57.838298290481,57.5);
#931 = AXIS2_PLACEMENT_2D('',#932,#933);
#932 = CARTESIAN_POINT('',(-255.6038301264,-200.));
#933 = DIRECTION('',(1.,-0.));
#934 = ( GEOMETRIC_REPRESENTATION_CONTEXT(2) 
PARAMETRIC_REPRESENTATION_CONTEXT() REPRESENTATION_CONTEXT('2D SPACE',''
  ) );
#935 = PCURVE('',#207,#936);
#936 = DEFINITIONAL_REPRESENTATION('',(#937),#968);
#937 = B_SPLINE_CURVE_WITH_KNOTS('',8,(#938,#939,#940,#941,#942,#943,
    #944,#945,#946,#947,#948,#949,#950,#951,#952,#953,#954,#955,#956,
    #957,#958,#959,#960,#961,#962,#963,#964,#965,#966,#967),
  .UNSPECIFIED.,.F.,.F.,(9,7,7,7,9),(3.14159265359,4.712388980385,
    5.890486225481,7.657632093125,9.424777960769),.UNSPECIFIED.);
#938 = CARTESIAN_POINT('',(6.28318530718,72.786332697191));
#939 = CARTESIAN_POINT('',(6.08683576633,72.786332697191));
#940 = CARTESIAN_POINT('',(5.890486225482,73.061558288093));
#941 = CARTESIAN_POINT('',(5.69413668463,73.612007131829));
#942 = CARTESIAN_POINT('',(5.497787143789,74.415052637807));
#943 = CARTESIAN_POINT('',(5.301437602933,75.425395667524));
#944 = CARTESIAN_POINT('',(5.105088062084,76.579836954785));
#945 = CARTESIAN_POINT('',(4.908738521234,77.806334446848));
#946 = CARTESIAN_POINT('',(4.565126824748,79.952704548331));
#947 = CARTESIAN_POINT('',(4.41786466911,80.872577112322));
#948 = CARTESIAN_POINT('',(4.270602513474,81.762053861479));
#949 = CARTESIAN_POINT('',(4.123340357837,82.590730865093));
#950 = CARTESIAN_POINT('',(3.976078202199,83.330328892183));
#951 = CARTESIAN_POINT('',(3.828816046563,83.956773840582));
#952 = CARTESIAN_POINT('',(3.681553890926,84.451824058965));
#953 = CARTESIAN_POINT('',(3.313398501833,85.331874356352));
#954 = CARTESIAN_POINT('',(3.092505268374,85.538087205052));
#955 = CARTESIAN_POINT('',(2.871612034941,85.383226484002));
#956 = CARTESIAN_POINT('',(2.650718801447,84.861514268501));
#957 = CARTESIAN_POINT('',(2.429825568029,84.006859918649));
#958 = CARTESIAN_POINT('',(2.208932334554,82.890100916251));
#959 = CARTESIAN_POINT('',(1.9880391011,81.604759840601));
#960 = CARTESIAN_POINT('',(1.546252634189,78.898166438245));
#961 = CARTESIAN_POINT('',(1.325359400744,77.476912613514));
#962 = CARTESIAN_POINT('',(1.10446616726,76.088330990518));
#963 = CARTESIAN_POINT('',(0.883572933896,74.840079686546));
#964 = CARTESIAN_POINT('',(0.662679700348,73.831323974096));
#965 = CARTESIAN_POINT('',(0.441786466926,73.134665581034));
#966 = CARTESIAN_POINT('',(0.220893233456,72.786332697191));
#967 = CARTESIAN_POINT('',(8.881784197001E-15,72.786332697191));
#968 = ( GEOMETRIC_REPRESENTATION_CONTEXT(2) 
PARAMETRIC_REPRESENTATION_CONTEXT() REPRESENTATION_CONTEXT('2D SPACE',''
  ) );
#969 = ORIENTED_EDGE('',*,*,#970,.F.);
#970 = EDGE_CURVE('',#721,#920,#971,.T.);
#971 = SURFACE_CURVE('',#972,(#977,#984),.PCURVE_S1.);
#972 = ELLIPSE('',#973,541.66989809863,58.5);
#973 = AXIS2_PLACEMENT_3D('',#974,#975,#976);
#974 = CARTESIAN_POINT('',(0.,0.,-193.0060646468));
#975 = DIRECTION('',(-0.994150963972,0.,-0.107999355706));
#976 = DIRECTION('',(-0.107999355706,0.,0.994150963972));
#977 = PCURVE('',#304,#978);
#978 = DEFINITIONAL_REPRESENTATION('',(#979),#983);
#979 = ELLIPSE('',#980,541.66989809863,58.5);
#980 = AXIS2_PLACEMENT_2D('',#981,#982);
#981 = CARTESIAN_POINT('',(-61.4622242323,-200.));
#982 = DIRECTION('',(-1.,0.));
#983 = ( GEOMETRIC_REPRESENTATION_CONTEXT(2) 
PARAMETRIC_REPRESENTATION_CONTEXT() REPRESENTATION_CONTEXT('2D SPACE',''
  ) );
#984 = PCURVE('',#505,#985);
#985 = DEFINITIONAL_REPRESENTATION('',(#986),#993);
#986 = B_SPLINE_CURVE_WITH_KNOTS('',5,(#987,#988,#989,#990,#991,#992),
  .UNSPECIFIED.,.F.,.F.,(6,6),(1.157847357197,1.23989439628),
  .PIECEWISE_BEZIER_KNOTS.);
#987 = CARTESIAN_POINT('',(1.983745296393,123.10119204762));
#988 = CARTESIAN_POINT('',(1.967335888576,115.00748253129));
#989 = CARTESIAN_POINT('',(1.950926480759,106.84103437619));
#990 = CARTESIAN_POINT('',(1.934517072943,98.606387950101));
#991 = CARTESIAN_POINT('',(1.918107665126,90.308165284942));
#992 = CARTESIAN_POINT('',(1.901698257309,81.951054534208));
#993 = ( GEOMETRIC_REPRESENTATION_CONTEXT(2) 
PARAMETRIC_REPRESENTATION_CONTEXT() REPRESENTATION_CONTEXT('2D SPACE',''
  ) );
#994 = ORIENTED_EDGE('',*,*,#720,.F.);
#995 = ORIENTED_EDGE('',*,*,#690,.F.);
#996 = FACE_BOUND('',#997,.T.);
#997 = EDGE_LOOP('',(#998));
#998 = ORIENTED_EDGE('',*,*,#999,.T.);
#999 = EDGE_CURVE('',#1000,#1000,#1002,.T.);
#1000 = VERTEX_POINT('',#1001);
#1001 = CARTESIAN_POINT('',(-26.07300227706,1.151167991199E-14,47.));
#1002 = SURFACE_CURVE('',#1003,(#1008,#1015),.PCURVE_S1.);
#1003 = ELLIPSE('',#1004,47.276522080915,47.);
#1004 = AXIS2_PLACEMENT_3D('',#1005,#1006,#1007);
#1005 = CARTESIAN_POINT('',(-20.9671683523,0.,0.));
#1006 = DIRECTION('',(-0.994150963972,-0.,-0.107999355706));
#1007 = DIRECTION('',(0.107999355706,0.,-0.994150963972));
#1008 = PCURVE('',#304,#1009);
#1009 = DEFINITIONAL_REPRESENTATION('',(#1010),#1014);
#1010 = ELLIPSE('',#1011,47.276522080915,47.);
#1011 = AXIS2_PLACEMENT_2D('',#1012,#1013);
#1012 = CARTESIAN_POINT('',(-255.6038301264,-200.));
#1013 = DIRECTION('',(1.,-0.));
#1014 = ( GEOMETRIC_REPRESENTATION_CONTEXT(2) 
PARAMETRIC_REPRESENTATION_CONTEXT() REPRESENTATION_CONTEXT('2D SPACE',''
  ) );
#1015 = PCURVE('',#648,#1016);
#1016 = DEFINITIONAL_REPRESENTATION('',(#1017),#1048);
#1017 = B_SPLINE_CURVE_WITH_KNOTS('',8,(#1018,#1019,#1020,#1021,#1022,
    #1023,#1024,#1025,#1026,#1027,#1028,#1029,#1030,#1031,#1032,#1033,
    #1034,#1035,#1036,#1037,#1038,#1039,#1040,#1041,#1042,#1043,#1044,
    #1045,#1046,#1047),.UNSPECIFIED.,.F.,.F.,(9,7,7,7,9),(3.14159265359,
    4.712388980385,5.890486225481,7.657632093125,9.424777960769),
  .UNSPECIFIED.);
#1018 = CARTESIAN_POINT('',(6.28318530718,73.926997722935));
#1019 = CARTESIAN_POINT('',(6.08683576633,73.926997722935));
#1020 = CARTESIAN_POINT('',(5.890486225482,74.151964727782));
#1021 = CARTESIAN_POINT('',(5.69413668463,74.60189682577));
#1022 = CARTESIAN_POINT('',(5.497787143789,75.258299239911));
#1023 = CARTESIAN_POINT('',(5.301437602933,76.084144846245));
#1024 = CARTESIAN_POINT('',(5.105088062084,77.027775116119));
#1025 = CARTESIAN_POINT('',(4.908738521234,78.030303500915));
#1026 = CARTESIAN_POINT('',(4.565126824748,79.78472775778));
#1027 = CARTESIAN_POINT('',(4.41786466911,80.536623592685));
#1028 = CARTESIAN_POINT('',(4.270602513474,81.263674152882));
#1029 = CARTESIAN_POINT('',(4.123340357837,81.941027529738));
#1030 = CARTESIAN_POINT('',(3.976078202199,82.545568525787));
#1031 = CARTESIAN_POINT('',(3.828816046563,83.057619179284));
#1032 = CARTESIAN_POINT('',(3.681553890926,83.462268922994));
#1033 = CARTESIAN_POINT('',(3.313398501833,84.181614383467));
#1034 = CARTESIAN_POINT('',(3.092505268374,84.350170972866));
#1035 = CARTESIAN_POINT('',(2.871612034941,84.22358916598));
#1036 = CARTESIAN_POINT('',(2.650718801447,83.797146137804));
#1037 = CARTESIAN_POINT('',(2.429825568029,83.098559104023));
#1038 = CARTESIAN_POINT('',(2.208932334554,82.185730006371));
#1039 = CARTESIAN_POINT('',(1.9880391011,81.135103387983));
#1040 = CARTESIAN_POINT('',(1.546252634189,78.922757476492));
#1041 = CARTESIAN_POINT('',(1.325359400744,77.761036958909));
#1042 = CARTESIAN_POINT('',(1.10446616726,76.626022414595));
#1043 = CARTESIAN_POINT('',(0.883572933896,75.60571265372));
#1044 = CARTESIAN_POINT('',(0.662679700348,74.781164505403));
#1045 = CARTESIAN_POINT('',(0.441786466926,74.21172199327));
#1046 = CARTESIAN_POINT('',(0.220893233456,73.926997722935));
#1047 = CARTESIAN_POINT('',(8.881784197001E-15,73.926997722935));
#1048 = ( GEOMETRIC_REPRESENTATION_CONTEXT(2) 
PARAMETRIC_REPRESENTATION_CONTEXT() REPRESENTATION_CONTEXT('2D SPACE',''
  ) );
#1049 = ADVANCED_FACE('',(#1050),#207,.T.);
#1050 = FACE_BOUND('',#1051,.T.);
#1051 = EDGE_LOOP('',(#1052,#1268,#1269,#1270));
#1052 = ORIENTED_EDGE('',*,*,#1053,.T.);
#1053 = EDGE_CURVE('',#489,#920,#1054,.T.);
#1054 = SURFACE_CURVE('',#1055,(#1124,#1196),.PCURVE_S1.);
#1055 = B_SPLINE_CURVE_WITH_KNOTS('',7,(#1056,#1057,#1058,#1059,#1060,
    #1061,#1062,#1063,#1064,#1065,#1066,#1067,#1068,#1069,#1070,#1071,
    #1072,#1073,#1074,#1075,#1076,#1077,#1078,#1079,#1080,#1081,#1082,
    #1083,#1084,#1085,#1086,#1087,#1088,#1089,#1090,#1091,#1092,#1093,
    #1094,#1095,#1096,#1097,#1098,#1099,#1100,#1101,#1102,#1103,#1104,
    #1105,#1106,#1107,#1108,#1109,#1110,#1111,#1112,#1113,#1114,#1115,
    #1116,#1117,#1118,#1119,#1120,#1121,#1122,#1123),.UNSPECIFIED.,.F.,
  .F.,(8,6,6,6,6,6,6,6,6,6,6,8),(0.,0.100485174601,0.231608453774,
    0.354464199144,0.453340633806,0.500540441716,0.548896203187,
    0.581153423544,0.684081896079,0.789501660585,0.900051033626,1.),
  .UNSPECIFIED.);
#1056 = CARTESIAN_POINT('',(-29.95328712105,50.2498814988,
    -27.94994471115));
#1057 = CARTESIAN_POINT('',(-29.29311488093,50.643401405075,
    -27.24245391422));
#1058 = CARTESIAN_POINT('',(-28.63245998209,51.023494910006,
    -26.53174448668));
#1059 = CARTESIAN_POINT('',(-27.97156490991,51.390432389162,
    -25.81778228961));
#1060 = CARTESIAN_POINT('',(-27.31069109041,51.744457981975,
    -25.10050405506));
#1061 = CARTESIAN_POINT('',(-26.6501378214,52.0857856787,-24.37982620124
    ));
#1062 = CARTESIAN_POINT('',(-25.99026697683,52.414598088339,
    -23.65564901093));
#1063 = CARTESIAN_POINT('',(-24.47195100453,53.143983781081,
    -21.97815803216));
#1064 = CARTESIAN_POINT('',(-23.61539669173,53.535344648471,
    -21.02350884638));
#1065 = CARTESIAN_POINT('',(-22.76169991161,53.906129462218,
    -20.06238360637));
#1066 = CARTESIAN_POINT('',(-21.9112083377,54.256957271528,
    -19.09342210064));
#1067 = CARTESIAN_POINT('',(-21.0651170939,54.58805601564,
    -18.11565224728));
#1068 = CARTESIAN_POINT('',(-20.22586237631,54.899319582807,
    -17.12866839131));
#1069 = CARTESIAN_POINT('',(-18.62152129857,55.463191470238,
    -15.19965408267));
#1070 = CARTESIAN_POINT('',(-17.86014799716,55.716484994882,
    -14.26478810942));
#1071 = CARTESIAN_POINT('',(-17.10876576147,55.953231870547,
    -13.31913255506));
#1072 = CARTESIAN_POINT('',(-16.36706837907,56.174190964356,
    -12.35691988555));
#1073 = CARTESIAN_POINT('',(-15.63987565068,56.378572421818,
    -11.37615541964));
#1074 = CARTESIAN_POINT('',(-14.93693785237,56.565083781706,
    -10.37776246211));
#1075 = CARTESIAN_POINT('',(-13.73596115888,56.867199094949,
    -8.547285915057));
#1076 = CARTESIAN_POINT('',(-13.22189488647,56.990245232885,
    -7.716488924037));
#1077 = CARTESIAN_POINT('',(-12.73344425767,57.101544358921,
    -6.866965402822));
#1078 = CARTESIAN_POINT('',(-12.27879154883,57.200214662174,
    -5.996680886457));
#1079 = CARTESIAN_POINT('',(-11.86968908225,57.285093776723,
    -5.104530487897));
#1080 = CARTESIAN_POINT('',(-11.52074225496,57.355030468996,
    -4.188663864523));
#1081 = CARTESIAN_POINT('',(-11.11838272303,57.433867334401,
    -2.793689187286));
#1082 = CARTESIAN_POINT('',(-11.00578221328,57.455573250799,
    -2.336325461996));
#1083 = CARTESIAN_POINT('',(-10.91307972232,57.473196041604,
    -1.874175717751));
#1084 = CARTESIAN_POINT('',(-10.84216342275,57.486544915991,
    -1.408579441042));
#1085 = CARTESIAN_POINT('',(-10.7943355617,57.495503394455,
    -0.940519152906));
#1086 = CARTESIAN_POINT('',(-10.77032961426,57.5,-0.470761631327));
#1087 = CARTESIAN_POINT('',(-10.77032961426,57.5,0.482290885538));
#1088 = CARTESIAN_POINT('',(-10.79552579239,57.495280442993,
    0.963461946614));
#1089 = CARTESIAN_POINT('',(-10.84570790428,57.48588101996,
    1.442801484512));
#1090 = CARTESIAN_POINT('',(-10.92007093553,57.471879862257,
    1.919514414348));
#1091 = CARTESIAN_POINT('',(-11.01719336234,57.453403155775,
    2.392565266926));
#1092 = CARTESIAN_POINT('',(-11.13501788237,57.430658485261,
    2.860522233683));
#1093 = CARTESIAN_POINT('',(-11.36143540809,57.386203136396,
    3.628846661404));
#1094 = CARTESIAN_POINT('',(-11.46019108589,57.366639992184,
    3.933645139769));
#1095 = CARTESIAN_POINT('',(-11.56654259404,57.345355733699,
    4.235865169266));
#1096 = CARTESIAN_POINT('',(-11.67993234966,57.322402293173,
    4.535537983981));
#1097 = CARTESIAN_POINT('',(-11.79980454055,57.297832531491,
    4.832658648642));
#1098 = CARTESIAN_POINT('',(-11.92560542355,57.271702492194,
    5.127186134645));
#1099 = CARTESIAN_POINT('',(-12.47535569869,57.155913735547,
    6.350320852258));
#1100 = CARTESIAN_POINT('',(-12.9504385047,57.052122452305,
    7.258332917463));
#1101 = CARTESIAN_POINT('',(-13.46698994736,56.934030815097,
    8.144727092676));
#1102 = CARTESIAN_POINT('',(-14.01257582,56.802828449768,9.00997817745)
  );
#1103 = CARTESIAN_POINT('',(-14.57883359945,56.659559494181,
    9.855847147009));
#1104 = CARTESIAN_POINT('',(-15.16227826083,56.504393383235,
    10.687011111089));
#1105 = CARTESIAN_POINT('',(-16.38142793143,56.163236523536,
    12.356547345933));
#1106 = CARTESIAN_POINT('',(-17.01597235397,55.977173541618,
    13.191753091204));
#1107 = CARTESIAN_POINT('',(-17.66252995628,55.778265038767,
    14.016575562505));
#1108 = CARTESIAN_POINT('',(-18.31716968521,55.567018602313,
    14.830973858836));
#1109 = CARTESIAN_POINT('',(-18.97791600112,55.34362316947,
    15.636101425745));
#1110 = CARTESIAN_POINT('',(-19.64465052679,55.107662867966,
    16.434411456815));
#1111 = CARTESIAN_POINT('',(-21.02571909338,54.596130405473,
    18.06311578079));
#1112 = CARTESIAN_POINT('',(-21.73870652052,54.319961333481,
    18.890723548541));
#1113 = CARTESIAN_POINT('',(-22.45583472932,54.029557266099,
    19.71227022578));
#1114 = CARTESIAN_POINT('',(-23.1758864167,53.724902254597,
    20.528043762953));
#1115 = CARTESIAN_POINT('',(-23.89816315614,53.405832840398,
    21.338545163979));
#1116 = CARTESIAN_POINT('',(-24.62233403389,53.072022107882,
    22.144422406154));
#1117 = CARTESIAN_POINT('',(-26.00466911895,52.407419101296,
    23.671453835895));
#1118 = CARTESIAN_POINT('',(-26.66215163041,52.079576115887,
    24.392933029744));
#1119 = CARTESIAN_POINT('',(-27.32030671761,51.739305933852,
    25.110940094409));
#1120 = CARTESIAN_POINT('',(-27.97877700401,51.386427623773,
    25.825573367031));
#1121 = CARTESIAN_POINT('',(-28.63726653887,51.02072938789,
    26.536915179207));
#1122 = CARTESIAN_POINT('',(-29.29551659788,50.641969773496,
    27.245027776822));
#1123 = CARTESIAN_POINT('',(-29.95328712105,50.2498814988,
    27.949944711155));
#1124 = PCURVE('',#207,#1125);
#1125 = DEFINITIONAL_REPRESENTATION('',(#1126),#1195);
#1126 = B_SPLINE_CURVE_WITH_KNOTS('',7,(#1127,#1128,#1129,#1130,#1131,
    #1132,#1133,#1134,#1135,#1136,#1137,#1138,#1139,#1140,#1141,#1142,
    #1143,#1144,#1145,#1146,#1147,#1148,#1149,#1150,#1151,#1152,#1153,
    #1154,#1155,#1156,#1157,#1158,#1159,#1160,#1161,#1162,#1163,#1164,
    #1165,#1166,#1167,#1168,#1169,#1170,#1171,#1172,#1173,#1174,#1175,
    #1176,#1177,#1178,#1179,#1180,#1181,#1182,#1183,#1184,#1185,#1186,
    #1187,#1188,#1189,#1190,#1191,#1192,#1193,#1194),.UNSPECIFIED.,.F.,
  .F.,(8,6,6,6,6,6,6,6,6,6,6,8),(0.,0.100485174601,0.231608453774,
    0.354464199144,0.453340633806,0.500540441716,0.548896203187,
    0.581153423544,0.684081896079,0.789501660585,0.900051033626,1.),
  .UNSPECIFIED.);
#1127 = CARTESIAN_POINT('',(4.204783557814,70.046712878941));
#1128 = CARTESIAN_POINT('',(4.218863009861,70.706885119064));
#1129 = CARTESIAN_POINT('',(4.232877877763,71.367540017901));
#1130 = CARTESIAN_POINT('',(4.246835524597,72.02843509009));
#1131 = CARTESIAN_POINT('',(4.260743346292,72.689308909582));
#1132 = CARTESIAN_POINT('',(4.274608664713,73.349862178595));
#1133 = CARTESIAN_POINT('',(4.288438709544,74.009733023167));
#1134 = CARTESIAN_POINT('',(4.320250915938,75.528048995463));
#1135 = CARTESIAN_POINT('',(4.3381904888,76.384603308262));
#1136 = CARTESIAN_POINT('',(4.356100207283,77.238300088387));
#1137 = CARTESIAN_POINT('',(4.374015243858,78.088791662292));
#1138 = CARTESIAN_POINT('',(4.391962111017,78.934882906096));
#1139 = CARTESIAN_POINT('',(4.409956395397,79.774137623687));
#1140 = CARTESIAN_POINT('',(4.444908364421,81.378478701422));
#1141 = CARTESIAN_POINT('',(4.461749794414,82.139852002836));
#1142 = CARTESIAN_POINT('',(4.478698496007,82.891234238522));
#1143 = CARTESIAN_POINT('',(4.495862030718,83.63293162093));
#1144 = CARTESIAN_POINT('',(4.513279274069,84.360124349315));
#1145 = CARTESIAN_POINT('',(4.530939075421,85.06306214763));
#1146 = CARTESIAN_POINT('',(4.563204131059,86.264038841111));
#1147 = CARTESIAN_POINT('',(4.57780838516,86.778105113529));
#1148 = CARTESIAN_POINT('',(4.592705576037,87.266555742328));
#1149 = CARTESIAN_POINT('',(4.607933603142,87.72120845116));
#1150 = CARTESIAN_POINT('',(4.623515095466,88.130310917749));
#1151 = CARTESIAN_POINT('',(4.639486465105,88.479257745031));
#1152 = CARTESIAN_POINT('',(4.663785606503,88.881617276961));
#1153 = CARTESIAN_POINT('',(4.671748385846,88.994217786719));
#1154 = CARTESIAN_POINT('',(4.679791052734,89.086920277675));
#1155 = CARTESIAN_POINT('',(4.687891049555,89.157836577248));
#1156 = CARTESIAN_POINT('',(4.696032125829,89.205664438298));
#1157 = CARTESIAN_POINT('',(4.704201821579,89.229670385731));
#1158 = CARTESIAN_POINT('',(4.720776647959,89.229670385731));
#1159 = CARTESIAN_POINT('',(4.729144840008,89.204474207604));
#1160 = CARTESIAN_POINT('',(4.73748214478,89.154292095716));
#1161 = CARTESIAN_POINT('',(4.745775673971,89.079929064465));
#1162 = CARTESIAN_POINT('',(4.754008316508,88.982806637655));
#1163 = CARTESIAN_POINT('',(4.762155958409,88.86498211763));
#1164 = CARTESIAN_POINT('',(4.775540470569,88.638564591904));
#1165 = CARTESIAN_POINT('',(4.780852115786,88.539808914102));
#1166 = CARTESIAN_POINT('',(4.786120972745,88.433457405953));
#1167 = CARTESIAN_POINT('',(4.791347764678,88.320067650333));
#1168 = CARTESIAN_POINT('',(4.796532568763,88.200195459442));
#1169 = CARTESIAN_POINT('',(4.801674815227,88.074394576449));
#1170 = CARTESIAN_POINT('',(4.823041825635,87.524644301308));
#1171 = CARTESIAN_POINT('',(4.838933171717,87.049561495297));
#1172 = CARTESIAN_POINT('',(4.854480691113,86.533010052632));
#1173 = CARTESIAN_POINT('',(4.869696256783,85.987424179991));
#1174 = CARTESIAN_POINT('',(4.884613157684,85.421166400541));
#1175 = CARTESIAN_POINT('',(4.899315787158,84.837721739166));
#1176 = CARTESIAN_POINT('',(4.928951198676,83.618572068568));
#1177 = CARTESIAN_POINT('',(4.943830276064,82.984027646021));
#1178 = CARTESIAN_POINT('',(4.958582661976,82.337470043713));
#1179 = CARTESIAN_POINT('',(4.973211023226,81.682830314785));
#1180 = CARTESIAN_POINT('',(4.987738986872,81.022083998872));
#1181 = CARTESIAN_POINT('',(5.00221433738,80.355349473208));
#1182 = CARTESIAN_POINT('',(5.031903811485,78.974280906612));
#1183 = CARTESIAN_POINT('',(5.047074810409,78.261293479478));
#1184 = CARTESIAN_POINT('',(5.062225158348,77.544165270671));
#1185 = CARTESIAN_POINT('',(5.077365354007,76.824113583296));
#1186 = CARTESIAN_POINT('',(5.092510172058,76.101836843859));
#1187 = CARTESIAN_POINT('',(5.107677810345,75.377665966101));
#1188 = CARTESIAN_POINT('',(5.136641105773,73.995330881049));
#1189 = CARTESIAN_POINT('',(5.150421476263,73.337848369588));
#1190 = CARTESIAN_POINT('',(5.164236975371,72.679693282382));
#1191 = CARTESIAN_POINT('',(5.178094753022,72.02122299599));
#1192 = CARTESIAN_POINT('',(5.192002048338,71.362733461124));
#1193 = CARTESIAN_POINT('',(5.205966172175,70.704483402121));
#1194 = CARTESIAN_POINT('',(5.219994402955,70.046712878941));
#1195 = ( GEOMETRIC_REPRESENTATION_CONTEXT(2) 
PARAMETRIC_REPRESENTATION_CONTEXT() REPRESENTATION_CONTEXT('2D SPACE',''
  ) );
#1196 = PCURVE('',#505,#1197);
#1197 = DEFINITIONAL_REPRESENTATION('',(#1198),#1267);
#1198 = B_SPLINE_CURVE_WITH_KNOTS('',7,(#1199,#1200,#1201,#1202,#1203,
    #1204,#1205,#1206,#1207,#1208,#1209,#1210,#1211,#1212,#1213,#1214,
    #1215,#1216,#1217,#1218,#1219,#1220,#1221,#1222,#1223,#1224,#1225,
    #1226,#1227,#1228,#1229,#1230,#1231,#1232,#1233,#1234,#1235,#1236,
    #1237,#1238,#1239,#1240,#1241,#1242,#1243,#1244,#1245,#1246,#1247,
    #1248,#1249,#1250,#1251,#1252,#1253,#1254,#1255,#1256,#1257,#1258,
    #1259,#1260,#1261,#1262,#1263,#1264,#1265,#1266),.UNSPECIFIED.,.F.,
  .F.,(8,6,6,6,6,6,6,6,6,6,6,8),(0.,0.100485174601,0.231608453774,
    0.354464199144,0.453340633806,0.500540441716,0.548896203187,
    0.581153423544,0.684081896079,0.789501660585,0.900051033626,1.),
  .UNSPECIFIED.);
#1199 = CARTESIAN_POINT('',(2.108333448139,72.050055288845));
#1200 = CARTESIAN_POINT('',(2.095195661135,72.757546085772));
#1201 = CARTESIAN_POINT('',(2.082168301973,73.46825551332));
#1202 = CARTESIAN_POINT('',(2.069248860325,74.182217710384));
#1203 = CARTESIAN_POINT('',(2.056435615778,74.899495944938));
#1204 = CARTESIAN_POINT('',(2.043727918072,75.620173798756));
#1205 = CARTESIAN_POINT('',(2.031126558342,76.344350989067));
#1206 = CARTESIAN_POINT('',(2.002332972151,78.021841967835));
#1207 = CARTESIAN_POINT('',(1.986238072359,78.976491153615));
#1208 = CARTESIAN_POINT('',(1.970332422443,79.937616393627));
#1209 = CARTESIAN_POINT('',(1.954610554202,80.906577899359));
#1210 = CARTESIAN_POINT('',(1.939083467637,81.884347752716));
#1211 = CARTESIAN_POINT('',(1.923784589724,82.871331608683));
#1212 = CARTESIAN_POINT('',(1.894715401693,84.800345917324));
#1213 = CARTESIAN_POINT('',(1.88100109172,85.735211890573));
#1214 = CARTESIAN_POINT('',(1.867537142305,86.680867444937));
#1215 = CARTESIAN_POINT('',(1.854310827391,87.643080114446));
#1216 = CARTESIAN_POINT('',(1.841400821881,88.623844580352));
#1217 = CARTESIAN_POINT('',(1.82897005061,89.622237537885));
#1218 = CARTESIAN_POINT('',(1.807800929434,91.452714084943));
#1219 = CARTESIAN_POINT('',(1.798765847902,92.283511075963));
#1220 = CARTESIAN_POINT('',(1.790203024593,93.133034597179));
#1221 = CARTESIAN_POINT('',(1.78225093526,94.003319113542));
#1222 = CARTESIAN_POINT('',(1.775109062338,94.895469512104));
#1223 = CARTESIAN_POINT('',(1.769025593609,95.811336135477));
#1224 = CARTESIAN_POINT('',(1.76201687057,97.206310812714));
#1225 = CARTESIAN_POINT('',(1.760056648411,97.663674538004));
#1226 = CARTESIAN_POINT('',(1.75844361696,98.125824282249));
#1227 = CARTESIAN_POINT('',(1.757210084564,98.591420558958));
#1228 = CARTESIAN_POINT('',(1.756378295535,99.059480847093));
#1229 = CARTESIAN_POINT('',(1.755960800834,99.529238368673));
#1230 = CARTESIAN_POINT('',(1.755960800834,100.48229088553));
#1231 = CARTESIAN_POINT('',(1.756398995192,100.96346194661));
#1232 = CARTESIAN_POINT('',(1.757271727741,101.44280148451));
#1233 = CARTESIAN_POINT('',(1.758565224152,101.91951441434));
#1234 = CARTESIAN_POINT('',(1.760255205962,102.39256526692));
#1235 = CARTESIAN_POINT('',(1.762306472903,102.86052223368));
#1236 = CARTESIAN_POINT('',(1.766250754794,103.6288466614));
#1237 = CARTESIAN_POINT('',(1.767971687921,103.93364513976));
#1238 = CARTESIAN_POINT('',(1.769825706154,104.23586516926));
#1239 = CARTESIAN_POINT('',(1.771803297744,104.53553798398));
#1240 = CARTESIAN_POINT('',(1.773894983833,104.83265864864));
#1241 = CARTESIAN_POINT('',(1.776091316334,105.12718613464));
#1242 = CARTESIAN_POINT('',(1.785694935364,106.35032085225));
#1243 = CARTESIAN_POINT('',(1.794007322262,107.25833291746));
#1244 = CARTESIAN_POINT('',(1.803064372351,108.14472709267));
#1245 = CARTESIAN_POINT('',(1.812655345338,109.00997817745));
#1246 = CARTESIAN_POINT('',(1.822638845499,109.855847147));
#1247 = CARTESIAN_POINT('',(1.832958073214,110.68701111108));
#1248 = CARTESIAN_POINT('',(1.854598814778,112.35654734593));
#1249 = CARTESIAN_POINT('',(1.865901555744,113.1917530912));
#1250 = CARTESIAN_POINT('',(1.877463368323,114.0165755625));
#1251 = CARTESIAN_POINT('',(1.889219978629,114.83097385883));
#1252 = CARTESIAN_POINT('',(1.901140997094,115.63610142574));
#1253 = CARTESIAN_POINT('',(1.913229572931,116.43441145681));
#1254 = CARTESIAN_POINT('',(1.938404921729,118.06311578079));
#1255 = CARTESIAN_POINT('',(1.95147365184,118.89072354854));
#1256 = CARTESIAN_POINT('',(1.964696772576,119.71227022578));
#1257 = CARTESIAN_POINT('',(1.978058798325,120.52804376295));
#1258 = CARTESIAN_POINT('',(1.991553737849,121.33854516397));
#1259 = CARTESIAN_POINT('',(2.005182779118,122.14442240615));
#1260 = CARTESIAN_POINT('',(2.031401610419,123.67145383589));
#1261 = CARTESIAN_POINT('',(2.043959052473,124.39293302974));
#1262 = CARTESIAN_POINT('',(2.056622055189,125.1109400944));
#1263 = CARTESIAN_POINT('',(2.069389849622,125.82557336703));
#1264 = CARTESIAN_POINT('',(2.082263083294,126.5369151792));
#1265 = CARTESIAN_POINT('',(2.095243456609,127.24502777682));
#1266 = CARTESIAN_POINT('',(2.108333448139,127.94994471115));
#1267 = ( GEOMETRIC_REPRESENTATION_CONTEXT(2) 
PARAMETRIC_REPRESENTATION_CONTEXT() REPRESENTATION_CONTEXT('2D SPACE',''
  ) );
#1268 = ORIENTED_EDGE('',*,*,#919,.T.);
#1269 = ORIENTED_EDGE('',*,*,#61,.T.);
#1270 = ORIENTED_EDGE('',*,*,#580,.F.);
#1271 = ADVANCED_FACE('',(#1272),#505,.T.);
#1272 = FACE_BOUND('',#1273,.T.);
#1273 = EDGE_LOOP('',(#1274,#1275,#1276,#1277));
#1274 = ORIENTED_EDGE('',*,*,#486,.F.);
#1275 = ORIENTED_EDGE('',*,*,#750,.F.);
#1276 = ORIENTED_EDGE('',*,*,#970,.T.);
#1277 = ORIENTED_EDGE('',*,*,#1053,.F.);
#1278 = ADVANCED_FACE('',(#1279),#648,.F.);
#1279 = FACE_BOUND('',#1280,.F.);
#1280 = EDGE_LOOP('',(#1281,#1282,#1303,#1304));
#1281 = ORIENTED_EDGE('',*,*,#999,.T.);
#1282 = ORIENTED_EDGE('',*,*,#1283,.F.);
#1283 = EDGE_CURVE('',#632,#1000,#1284,.T.);
#1284 = SEAM_CURVE('',#1285,(#1289,#1296),.PCURVE_S1.);
#1285 = LINE('',#1286,#1287);
#1286 = CARTESIAN_POINT('',(-100.,1.151167991199E-14,47.));
#1287 = VECTOR('',#1288,1.);
#1288 = DIRECTION('',(1.,0.,0.));
#1289 = PCURVE('',#648,#1290);
#1290 = DEFINITIONAL_REPRESENTATION('',(#1291),#1295);
#1291 = LINE('',#1292,#1293);
#1292 = CARTESIAN_POINT('',(6.28318530718,-0.));
#1293 = VECTOR('',#1294,1.);
#1294 = DIRECTION('',(0.,1.));
#1295 = ( GEOMETRIC_REPRESENTATION_CONTEXT(2) 
PARAMETRIC_REPRESENTATION_CONTEXT() REPRESENTATION_CONTEXT('2D SPACE',''
  ) );
#1296 = PCURVE('',#648,#1297);
#1297 = DEFINITIONAL_REPRESENTATION('',(#1298),#1302);
#1298 = LINE('',#1299,#1300);
#1299 = CARTESIAN_POINT('',(0.,-0.));
#1300 = VECTOR('',#1301,1.);
#1301 = DIRECTION('',(0.,1.));
#1302 = ( GEOMETRIC_REPRESENTATION_CONTEXT(2) 
PARAMETRIC_REPRESENTATION_CONTEXT() REPRESENTATION_CONTEXT('2D SPACE',''
  ) );
#1303 = ORIENTED_EDGE('',*,*,#631,.F.);
#1304 = ORIENTED_EDGE('',*,*,#1283,.T.);
#1305 = ( GEOMETRIC_REPRESENTATION_CONTEXT(3) 
GLOBAL_UNCERTAINTY_ASSIGNED_CONTEXT((#1309)) 
GLOBAL_UNIT_ASSIGNED_CONTEXT((#1306,#1307,#1308)) REPRESENTATION_CONTEXT
('Context #1','3D Context with UNIT and UNCERTAINTY') );
#1306 = ( LENGTH_UNIT() NAMED_UNIT(*) SI_UNIT(.MILLI.,.METRE.) );
#1307 = ( NAMED_UNIT(*) PLANE_ANGLE_UNIT() SI_UNIT($,.RADIAN.) );
#1308 = ( NAMED_UNIT(*) SI_UNIT($,.STERADIAN.) SOLID_ANGLE_UNIT() );
#1309 = UNCERTAINTY_MEASURE_WITH_UNIT(LENGTH_MEASURE(1.E-07),#1306,
  'distance_accuracy_value','confusion accuracy');
#1310 = PRODUCT_RELATED_PRODUCT_CATEGORY('part',$,(#7));
ENDSEC;
END-ISO-10303-21;
