ISO-10303-21;
HEADER;
FILE_DESCRIPTION(('Open CASCADE Model'),'2;1');
FILE_NAME('Open CASCADE Shape Model','2026-09-23T09:29:04',('Author'),(
    'Open CASCADE'),'Open CASCADE STEP processor 7.9','Open CASCADE 7.9'
  ,'Unknown');
FILE_SCHEMA(('AUTOMOTIVE_DESIGN { 1 0 10303 214 1 1 1 1 }'));
ENDSEC;
DATA;
#1 = APPLICATION_PROTOCOL_DEFINITION('international standard',
  'automotive_design',2000,#2);
#2 = APPLICATION_CONTEXT(
  'core data for automotive mechanical design processes');
#3 = SHAPE_DEFINITION_REPRESENTATION(#4,#10);
#4 = PRODUCT_DEFINITION_SHAPE('','',#5);
#5 = PRODUCT_DEFINITION('design','',#6,#9);
#6 = PRODUCT_DEFINITION_FORMATION('','',#7);
#7 = PRODUCT('Open CASCADE STEP translator 7.9 4',
  'Open CASCADE STEP translator 7.9 4','',(#8));
#8 = PRODUCT_CONTEXT('',#2,'mechanical');
#9 = PRODUCT_DEFINITION_CONTEXT('part definition',#2,'design');
#10 = ADVANCED_BREP_SHAPE_REPRESENTATION('',(#11,#15),#321);
#11 = AXIS2_PLACEMENT_3D('',#12,#13,#14);
#12 = CARTESIAN_POINT('',(0.,0.,0.));
#13 = DIRECTION('',(0.,0.,1.));
#14 = DIRECTION('',(1.,0.,-0.));
#15 = MANIFOLD_SOLID_BREP('',#16);
#16 = CLOSED_SHELL('',(#17,#167,#233,#294));
#17 = ADVANCED_FACE('',(#18),#31,.F.);
#18 = FACE_BOUND('',#19,.T.);
#19 = EDGE_LOOP('',(#20,#85,#108,#166));
#20 = ORIENTED_EDGE('',*,*,#21,.T.);
#21 = EDGE_CURVE('',#22,#22,#24,.T.);
#22 = VERTEX_POINT('',#23);
#23 = CARTESIAN_POINT('',(-28.40665025744,0.,49.5));
#24 = SURFACE_CURVE('',#25,(#30,#69),.PCURVE_S1.);
#25 = ELLIPSE('',#26,49.79123070224,49.5);
#26 = AXIS2_PLACEMENT_3D('',#27,#28,#29);
#27 = CARTESIAN_POINT('',(-23.02922942179,0.,0.));
#28 = DIRECTION('',(0.994150963972,-0.,0.107999355706));
#29 = DIRECTION('',(-0.107999355706,-0.,0.994150963972));
#30 = PCURVE('',#31,#36);
#31 = CYLINDRICAL_SURFACE('',#32,49.5);
#32 = AXIS2_PLACEMENT_3D('',#33,#34,#35);
#33 = CARTESIAN_POINT('',(-5.,0.,0.));
#34 = DIRECTION('',(-1.,-0.,-0.));
#35 = DIRECTION('',(-0.,-0.,1.));
#36 = DEFINITIONAL_REPRESENTATION('',(#37),#68);
#37 = B_SPLINE_CURVE_WITH_KNOTS('',8,(#38,#39,#40,#41,#42,#43,#44,#45,
    #46,#47,#48,#49,#50,#51,#52,#53,#54,#55,#56,#57,#58,#59,#60,#61,#62,
    #63,#64,#65,#66,#67),.UNSPECIFIED.,.F.,.F.,(9,7,7,7,9),(0.,
    1.570796326795,2.748893571891,4.516039439535,6.28318530718),
  .UNSPECIFIED.);
#38 = CARTESIAN_POINT('',(0.,23.406650257443));
#39 = CARTESIAN_POINT('',(-0.196349540849,23.406650257443));
#40 = CARTESIAN_POINT('',(-0.392699081698,23.169716922603));
#41 = CARTESIAN_POINT('',(-0.589048622548,22.695852265751));
#42 = CARTESIAN_POINT('',(-0.785398163395,22.004534829975));
#43 = CARTESIAN_POINT('',(-0.981747704246,21.134761265508));
#44 = CARTESIAN_POINT('',(-1.178097245096,20.140937896533));
#45 = CARTESIAN_POINT('',(-1.374446785946,19.085083533826));
#46 = CARTESIAN_POINT('',(-1.718058482432,17.237338837766));
#47 = CARTESIAN_POINT('',(-1.865320638069,16.445448543552));
#48 = CARTESIAN_POINT('',(-2.012582793706,15.679725081237));
#49 = CARTESIAN_POINT('',(-2.159844949343,14.96634226944));
#50 = CARTESIAN_POINT('',(-2.30710710498,14.32964483742));
#51 = CARTESIAN_POINT('',(-2.454369260617,13.790357447038));
#52 = CARTESIAN_POINT('',(-2.601631416254,13.364183780785));
#53 = CARTESIAN_POINT('',(-2.969786805347,12.606575263904));
#54 = CARTESIAN_POINT('',(-3.190680038802,12.429052898457));
#55 = CARTESIAN_POINT('',(-3.411573272258,12.562367779981));
#56 = CARTESIAN_POINT('',(-3.632466505696,13.011493948266));
#57 = CARTESIAN_POINT('',(-3.853359739169,13.747239866534));
#58 = CARTESIAN_POINT('',(-4.074252972622,14.708623703576));
#59 = CARTESIAN_POINT('',(-4.29514620608,15.815134716595));
#60 = CARTESIAN_POINT('',(-4.736932672991,18.145158602101));
#61 = CARTESIAN_POINT('',(-4.957825906445,19.36867276426));
#62 = CARTESIAN_POINT('',(-5.17871913988,20.564060422214));
#63 = CARTESIAN_POINT('',(-5.399612373378,21.638641979138));
#64 = CARTESIAN_POINT('',(-5.620505606799,22.507049071122));
#65 = CARTESIAN_POINT('',(-5.841398840269,23.10678107915));
#66 = CARTESIAN_POINT('',(-6.062292073724,23.406650257443));
#67 = CARTESIAN_POINT('',(-6.28318530718,23.406650257443));
#68 = ( GEOMETRIC_REPRESENTATION_CONTEXT(2) 
PARAMETRIC_REPRESENTATION_CONTEXT() REPRESENTATION_CONTEXT('2D SPACE',''
  ) );
#69 = PCURVE('',#70,#75);
#70 = PLANE('',#71);
#71 = AXIS2_PLACEMENT_3D('',#72,#73,#74);
#72 = CARTESIAN_POINT('',(4.599871141205,-200.,-254.3301927944));
#73 = DIRECTION('',(-0.994150963972,-0.,-0.107999355706));
#74 = DIRECTION('',(0.107999355706,0.,-0.994150963972));
#75 = DEFINITIONAL_REPRESENTATION('',(#76),#84);
#76 = ( BOUNDED_CURVE() B_SPLINE_CURVE(2,(#77,#78,#79,#80,#81,#82,#83),
.UNSPECIFIED.,.T.,.F.) B_SPLINE_CURVE_WITH_KNOTS((1,2,2,2,2,1),(
    -2.094395102393,0.,2.094395102393,4.188790204786,6.28318530718,
8.377580409573),.UNSPECIFIED.) CURVE() GEOMETRIC_REPRESENTATION_ITEM() 
RATIONAL_B_SPLINE_CURVE((1.,0.5,1.,0.5,1.,0.5,1.)) REPRESENTATION_ITEM(
  '') );
#77 = CARTESIAN_POINT('',(-305.6177620956,-200.));
#78 = CARTESIAN_POINT('',(-305.6177620956,-114.2634850253));
#79 = CARTESIAN_POINT('',(-230.9309160423,-157.1317425126));
#80 = CARTESIAN_POINT('',(-156.2440699889,-200.));
#81 = CARTESIAN_POINT('',(-230.9309160423,-242.8682574873));
#82 = CARTESIAN_POINT('',(-305.6177620956,-285.7365149746));
#83 = CARTESIAN_POINT('',(-305.6177620956,-200.));
#84 = ( GEOMETRIC_REPRESENTATION_CONTEXT(2) 
PARAMETRIC_REPRESENTATION_CONTEXT() REPRESENTATION_CONTEXT('2D SPACE',''
  ) );
#85 = ORIENTED_EDGE('',*,*,#86,.T.);
#86 = EDGE_CURVE('',#22,#87,#89,.T.);
#87 = VERTEX_POINT('',#88);
#88 = CARTESIAN_POINT('',(-30.4184171545,0.,49.5));
#89 = SEAM_CURVE('',#90,(#94,#101),.PCURVE_S1.);
#90 = LINE('',#91,#92);
#91 = CARTESIAN_POINT('',(-5.,0.,49.5));
#92 = VECTOR('',#93,1.);
#93 = DIRECTION('',(-1.,-0.,-0.));
#94 = PCURVE('',#31,#95);
#95 = DEFINITIONAL_REPRESENTATION('',(#96),#100);
#96 = LINE('',#97,#98);
#97 = CARTESIAN_POINT('',(-0.,0.));
#98 = VECTOR('',#99,1.);
#99 = DIRECTION('',(-0.,1.));
#100 = ( GEOMETRIC_REPRESENTATION_CONTEXT(2) 
PARAMETRIC_REPRESENTATION_CONTEXT() REPRESENTATION_CONTEXT('2D SPACE',''
  ) );
#101 = PCURVE('',#31,#102);
#102 = DEFINITIONAL_REPRESENTATION('',(#103),#107);
#103 = LINE('',#104,#105);
#104 = CARTESIAN_POINT('',(-6.28318530718,0.));
#105 = VECTOR('',#106,1.);
#106 = DIRECTION('',(-0.,1.));
#107 = ( GEOMETRIC_REPRESENTATION_CONTEXT(2) 
PARAMETRIC_REPRESENTATION_CONTEXT() REPRESENTATION_CONTEXT('2D SPACE',''
  ) );
#108 = ORIENTED_EDGE('',*,*,#109,.F.);
#109 = EDGE_CURVE('',#87,#87,#110,.T.);
#110 = SURFACE_CURVE('',#111,(#116,#150),.PCURVE_S1.);
#111 = ELLIPSE('',#112,49.79123070224,49.5);
#112 = AXIS2_PLACEMENT_3D('',#113,#114,#115);
#113 = CARTESIAN_POINT('',(-25.04099631885,0.,0.));
#114 = DIRECTION('',(0.994150963972,-0.,0.107999355706));
#115 = DIRECTION('',(-0.107999355706,-0.,0.994150963972));
#116 = PCURVE('',#31,#117);
#117 = DEFINITIONAL_REPRESENTATION('',(#118),#149);
#118 = B_SPLINE_CURVE_WITH_KNOTS('',8,(#119,#120,#121,#122,#123,#124,
    #125,#126,#127,#128,#129,#130,#131,#132,#133,#134,#135,#136,#137,
    #138,#139,#140,#141,#142,#143,#144,#145,#146,#147,#148),
  .UNSPECIFIED.,.F.,.F.,(9,7,7,7,9),(0.,1.570796326795,2.748893571891,
    4.516039439535,6.28318530718),.UNSPECIFIED.);
#119 = CARTESIAN_POINT('',(0.,25.418417154504));
#120 = CARTESIAN_POINT('',(-0.196349540849,25.418417154504));
#121 = CARTESIAN_POINT('',(-0.392699081698,25.181483819659));
#122 = CARTESIAN_POINT('',(-0.589048622548,24.707619162757));
#123 = CARTESIAN_POINT('',(-0.785398163395,24.016301727097));
#124 = CARTESIAN_POINT('',(-0.981747704246,23.146528162528));
#125 = CARTESIAN_POINT('',(-1.178097245096,22.1527047936));
#126 = CARTESIAN_POINT('',(-1.374446785946,21.096850430886));
#127 = CARTESIAN_POINT('',(-1.718058482432,19.249105734826));
#128 = CARTESIAN_POINT('',(-1.865320638069,18.45721544061));
#129 = CARTESIAN_POINT('',(-2.012582793706,17.691491978302));
#130 = CARTESIAN_POINT('',(-2.159844949343,16.978109166501));
#131 = CARTESIAN_POINT('',(-2.30710710498,16.341411734476));
#132 = CARTESIAN_POINT('',(-2.454369260617,15.802124344102));
#133 = CARTESIAN_POINT('',(-2.601631416254,15.375950677846));
#134 = CARTESIAN_POINT('',(-2.969786805347,14.618342160964));
#135 = CARTESIAN_POINT('',(-3.190680038802,14.440819795518));
#136 = CARTESIAN_POINT('',(-3.411573272258,14.574134676986));
#137 = CARTESIAN_POINT('',(-3.632466505696,15.023260845395));
#138 = CARTESIAN_POINT('',(-3.853359739169,15.759006763532));
#139 = CARTESIAN_POINT('',(-4.074252972622,16.720390600643));
#140 = CARTESIAN_POINT('',(-4.29514620608,17.826901613655));
#141 = CARTESIAN_POINT('',(-4.736932672991,20.156925499161));
#142 = CARTESIAN_POINT('',(-4.957825906445,21.380439661294));
#143 = CARTESIAN_POINT('',(-5.17871913988,22.575827319408));
#144 = CARTESIAN_POINT('',(-5.399612373378,23.650408876158));
#145 = CARTESIAN_POINT('',(-5.620505606799,24.518815968375));
#146 = CARTESIAN_POINT('',(-5.841398840269,25.118547976166));
#147 = CARTESIAN_POINT('',(-6.062292073724,25.418417154504));
#148 = CARTESIAN_POINT('',(-6.28318530718,25.418417154504));
#149 = ( GEOMETRIC_REPRESENTATION_CONTEXT(2) 
PARAMETRIC_REPRESENTATION_CONTEXT() REPRESENTATION_CONTEXT('2D SPACE',''
  ) );
#150 = PCURVE('',#151,#156);
#151 = PLANE('',#152);
#152 = AXIS2_PLACEMENT_3D('',#153,#154,#155);
#153 = CARTESIAN_POINT('',(2.61156921326,-200.,-254.5461915058));
#154 = DIRECTION('',(-0.994150963972,-0.,-0.107999355706));
#155 = DIRECTION('',(0.107999355706,0.,-0.994150963972));
#156 = DEFINITIONAL_REPRESENTATION('',(#157),#165);
#157 = ( BOUNDED_CURVE() B_SPLINE_CURVE(2,(#158,#159,#160,#161,#162,#163
,#164),.UNSPECIFIED.,.T.,.F.) B_SPLINE_CURVE_WITH_KNOTS((1,2,2,2,2,1),(
    -2.094395102393,0.,2.094395102393,4.188790204786,6.28318530718,
8.377580409573),.UNSPECIFIED.) CURVE() GEOMETRIC_REPRESENTATION_ITEM() 
RATIONAL_B_SPLINE_CURVE((1.,0.5,1.,0.5,1.,0.5,1.)) REPRESENTATION_ITEM(
  '') );
#158 = CARTESIAN_POINT('',(-305.8350316243,-200.));
#159 = CARTESIAN_POINT('',(-305.8350316243,-114.2634850253));
#160 = CARTESIAN_POINT('',(-231.148185571,-157.1317425126));
#161 = CARTESIAN_POINT('',(-156.4613395176,-200.));
#162 = CARTESIAN_POINT('',(-231.148185571,-242.8682574873));
#163 = CARTESIAN_POINT('',(-305.8350316243,-285.7365149746));
#164 = CARTESIAN_POINT('',(-305.8350316243,-200.));
#165 = ( GEOMETRIC_REPRESENTATION_CONTEXT(2) 
PARAMETRIC_REPRESENTATION_CONTEXT() REPRESENTATION_CONTEXT('2D SPACE',''
  ) );
#166 = ORIENTED_EDGE('',*,*,#86,.F.);
#167 = ADVANCED_FACE('',(#168,#230),#70,.F.);
#168 = FACE_BOUND('',#169,.T.);
#169 = EDGE_LOOP('',(#170));
#170 = ORIENTED_EDGE('',*,*,#171,.T.);
#171 = EDGE_CURVE('',#172,#172,#174,.T.);
#172 = VERTEX_POINT('',#173);
#173 = CARTESIAN_POINT('',(-29.05845884358,0.,55.5));
#174 = SURFACE_CURVE('',#175,(#180,#191),.PCURVE_S1.);
#175 = ELLIPSE('',#176,55.826531393421,55.5);
#176 = AXIS2_PLACEMENT_3D('',#177,#178,#179);
#177 = CARTESIAN_POINT('',(-23.02922942179,0.,0.));
#178 = DIRECTION('',(0.994150963972,0.,0.107999355706));
#179 = DIRECTION('',(0.107999355706,0.,-0.994150963972));
#180 = PCURVE('',#70,#181);
#181 = DEFINITIONAL_REPRESENTATION('',(#182),#190);
#182 = ( BOUNDED_CURVE() B_SPLINE_CURVE(2,(#183,#184,#185,#186,#187,#188
,#189),.UNSPECIFIED.,.T.,.F.) B_SPLINE_CURVE_WITH_KNOTS((1,2,2,2,2,1),(
    -2.094395102393,0.,2.094395102393,4.188790204786,6.28318530718,
8.377580409573),.UNSPECIFIED.) CURVE() GEOMETRIC_REPRESENTATION_ITEM() 
RATIONAL_B_SPLINE_CURVE((1.,0.5,1.,0.5,1.,0.5,1.)) REPRESENTATION_ITEM(
  '') );
#183 = CARTESIAN_POINT('',(-200.,-200.));
#184 = CARTESIAN_POINT('',(-200.,-296.12881982));
#185 = CARTESIAN_POINT('',(-283.7397970901,-248.06440991));
#186 = CARTESIAN_POINT('',(-367.4795941802,-200.));
#187 = CARTESIAN_POINT('',(-283.7397970901,-151.9355900899));
#188 = CARTESIAN_POINT('',(-200.,-103.8711801799));
#189 = CARTESIAN_POINT('',(-200.,-200.));
#190 = ( GEOMETRIC_REPRESENTATION_CONTEXT(2) 
PARAMETRIC_REPRESENTATION_CONTEXT() REPRESENTATION_CONTEXT('2D SPACE',''
  ) );
#191 = PCURVE('',#192,#197);
#192 = CYLINDRICAL_SURFACE('',#193,55.5);
#193 = AXIS2_PLACEMENT_3D('',#194,#195,#196);
#194 = CARTESIAN_POINT('',(-95.,0.,0.));
#195 = DIRECTION('',(1.,-0.,-0.));
#196 = DIRECTION('',(-0.,-0.,1.));
#197 = DEFINITIONAL_REPRESENTATION('',(#198),#229);
#198 = B_SPLINE_CURVE_WITH_KNOTS('',8,(#199,#200,#201,#202,#203,#204,
    #205,#206,#207,#208,#209,#210,#211,#212,#213,#214,#215,#216,#217,
    #218,#219,#220,#221,#222,#223,#224,#225,#226,#227,#228),
  .UNSPECIFIED.,.F.,.F.,(9,7,7,7,9),(3.14159265359,4.712388980385,
    5.890486225481,7.657632093125,9.424777960769),.UNSPECIFIED.);
#199 = CARTESIAN_POINT('',(-8.881784197001E-16,65.941541156417));
#200 = CARTESIAN_POINT('',(0.196349540849,65.941541156417));
#201 = CARTESIAN_POINT('',(0.392699081696,66.20719368328));
#202 = CARTESIAN_POINT('',(0.589048622541,66.738496480335));
#203 = CARTESIAN_POINT('',(0.785398163379,67.513609969057));
#204 = CARTESIAN_POINT('',(0.981747704253,68.488810632087));
#205 = CARTESIAN_POINT('',(1.178097245089,69.603097439802));
#206 = CARTESIAN_POINT('',(1.374446785946,70.786934149564));
#207 = CARTESIAN_POINT('',(1.718058482432,72.858647899692));
#208 = CARTESIAN_POINT('',(1.865320638069,73.746524896252));
#209 = CARTESIAN_POINT('',(2.012582793706,74.605063323674));
#210 = CARTESIAN_POINT('',(2.159844949342,75.404916779346));
#211 = CARTESIAN_POINT('',(2.307107104979,76.118789657684));
#212 = CARTESIAN_POINT('',(2.454369260617,76.723445216557));
#213 = CARTESIAN_POINT('',(2.601631416254,77.201276296912));
#214 = CARTESIAN_POINT('',(2.969786805347,78.050716149173));
#215 = CARTESIAN_POINT('',(3.190680038806,78.249756376943));
#216 = CARTESIAN_POINT('',(3.411573272195,78.100282116182));
#217 = CARTESIAN_POINT('',(3.632466505773,77.596716411412));
#218 = CARTESIAN_POINT('',(3.853359739126,76.771789170743));
#219 = CARTESIAN_POINT('',(4.074252972633,75.693873959084));
#220 = CARTESIAN_POINT('',(4.29514620608,74.453240399187));
#221 = CARTESIAN_POINT('',(4.736932672991,71.840789376043));
#222 = CARTESIAN_POINT('',(4.957825906441,70.468970466805));
#223 = CARTESIAN_POINT('',(5.17871913988,69.128687335469));
#224 = CARTESIAN_POINT('',(5.399612373342,67.923853467801));
#225 = CARTESIAN_POINT('',(5.620505606833,66.950184910849));
#226 = CARTESIAN_POINT('',(5.841398840254,66.277758113793));
#227 = CARTESIAN_POINT('',(6.062292073724,65.941541156417));
#228 = CARTESIAN_POINT('',(6.28318530718,65.941541156417));
#229 = ( GEOMETRIC_REPRESENTATION_CONTEXT(2) 
PARAMETRIC_REPRESENTATION_CONTEXT() REPRESENTATION_CONTEXT('2D SPACE',''
  ) );
#230 = FACE_BOUND('',#231,.T.);
#231 = EDGE_LOOP('',(#232));
#232 = ORIENTED_EDGE('',*,*,#21,.F.);
#233 = ADVANCED_FACE('',(#234,#291),#151,.T.);
#234 = FACE_BOUND('',#235,.F.);
#235 = EDGE_LOOP('',(#236));
#236 = ORIENTED_EDGE('',*,*,#237,.T.);
#237 = EDGE_CURVE('',#238,#238,#240,.T.);
#238 = VERTEX_POINT('',#239);
#239 = CARTESIAN_POINT('',(-31.07022574064,0.,55.5));
#240 = SURFACE_CURVE('',#241,(#246,#257),.PCURVE_S1.);
#241 = ELLIPSE('',#242,55.826531393421,55.5);
#242 = AXIS2_PLACEMENT_3D('',#243,#244,#245);
#243 = CARTESIAN_POINT('',(-25.04099631885,0.,0.));
#244 = DIRECTION('',(0.994150963972,0.,0.107999355706));
#245 = DIRECTION('',(0.107999355706,0.,-0.994150963972));
#246 = PCURVE('',#151,#247);
#247 = DEFINITIONAL_REPRESENTATION('',(#248),#256);
#248 = ( BOUNDED_CURVE() B_SPLINE_CURVE(2,(#249,#250,#251,#252,#253,#254
,#255),.UNSPECIFIED.,.T.,.F.) B_SPLINE_CURVE_WITH_KNOTS((1,2,2,2,2,1),(
    -2.094395102393,0.,2.094395102393,4.188790204786,6.28318530718,
8.377580409573),.UNSPECIFIED.) CURVE() GEOMETRIC_REPRESENTATION_ITEM() 
RATIONAL_B_SPLINE_CURVE((1.,0.5,1.,0.5,1.,0.5,1.)) REPRESENTATION_ITEM(
  '') );
#249 = CARTESIAN_POINT('',(-200.2172695287,-200.));
#250 = CARTESIAN_POINT('',(-200.2172695287,-296.12881982));
#251 = CARTESIAN_POINT('',(-283.9570666188,-248.06440991));
#252 = CARTESIAN_POINT('',(-367.6968637089,-200.));
#253 = CARTESIAN_POINT('',(-283.9570666188,-151.9355900899));
#254 = CARTESIAN_POINT('',(-200.2172695287,-103.8711801799));
#255 = CARTESIAN_POINT('',(-200.2172695287,-200.));
#256 = ( GEOMETRIC_REPRESENTATION_CONTEXT(2) 
PARAMETRIC_REPRESENTATION_CONTEXT() REPRESENTATION_CONTEXT('2D SPACE',''
  ) );
#257 = PCURVE('',#192,#258);
#258 = DEFINITIONAL_REPRESENTATION('',(#259),#290);
#259 = B_SPLINE_CURVE_WITH_KNOTS('',8,(#260,#261,#262,#263,#264,#265,
    #266,#267,#268,#269,#270,#271,#272,#273,#274,#275,#276,#277,#278,
    #279,#280,#281,#282,#283,#284,#285,#286,#287,#288,#289),
  .UNSPECIFIED.,.F.,.F.,(9,7,7,7,9),(3.14159265359,4.712388980385,
    5.890486225481,7.657632093125,9.424777960769),.UNSPECIFIED.);
#260 = CARTESIAN_POINT('',(-8.881784197001E-16,63.929774259357));
#261 = CARTESIAN_POINT('',(0.196349540849,63.929774259357));
#262 = CARTESIAN_POINT('',(0.392699081696,64.195426786326));
#263 = CARTESIAN_POINT('',(0.589048622541,64.726729582995));
#264 = CARTESIAN_POINT('',(0.785398163379,65.501843072067));
#265 = CARTESIAN_POINT('',(0.981747704253,66.477043734776));
#266 = CARTESIAN_POINT('',(1.178097245089,67.591330542833));
#267 = CARTESIAN_POINT('',(1.374446785946,68.775167252504));
#268 = CARTESIAN_POINT('',(1.718058482432,70.846881002631));
#269 = CARTESIAN_POINT('',(1.865320638069,71.734757999154));
#270 = CARTESIAN_POINT('',(2.012582793706,72.593296426647));
#271 = CARTESIAN_POINT('',(2.159844949342,73.393149882279));
#272 = CARTESIAN_POINT('',(2.307107104979,74.107022760574));
#273 = CARTESIAN_POINT('',(2.454369260617,74.711678319519));
#274 = CARTESIAN_POINT('',(2.601631416254,75.189509399852));
#275 = CARTESIAN_POINT('',(2.969786805347,76.038949252113));
#276 = CARTESIAN_POINT('',(3.190680038806,76.237989480069));
#277 = CARTESIAN_POINT('',(3.411573272195,76.088515218609));
#278 = CARTESIAN_POINT('',(3.632466505773,75.584949515411));
#279 = CARTESIAN_POINT('',(3.853359739126,74.760022272996));
#280 = CARTESIAN_POINT('',(4.074252972633,73.682107062166));
#281 = CARTESIAN_POINT('',(4.29514620608,72.441473502127));
#282 = CARTESIAN_POINT('',(4.736932672991,69.829022478983));
#283 = CARTESIAN_POINT('',(4.957825906441,68.457203569968));
#284 = CARTESIAN_POINT('',(5.17871913988,67.11692043778));
#285 = CARTESIAN_POINT('',(5.399612373342,65.912086571741));
#286 = CARTESIAN_POINT('',(5.620505606833,64.938418013189));
#287 = CARTESIAN_POINT('',(5.841398840254,64.265991216911));
#288 = CARTESIAN_POINT('',(6.062292073724,63.929774259357));
#289 = CARTESIAN_POINT('',(6.28318530718,63.929774259357));
#290 = ( GEOMETRIC_REPRESENTATION_CONTEXT(2) 
PARAMETRIC_REPRESENTATION_CONTEXT() REPRESENTATION_CONTEXT('2D SPACE',''
  ) );
#291 = FACE_BOUND('',#292,.F.);
#292 = EDGE_LOOP('',(#293));
#293 = ORIENTED_EDGE('',*,*,#109,.F.);
#294 = ADVANCED_FACE('',(#295),#192,.T.);
#295 = FACE_BOUND('',#296,.T.);
#296 = EDGE_LOOP('',(#297,#298,#319,#320));
#297 = ORIENTED_EDGE('',*,*,#237,.T.);
#298 = ORIENTED_EDGE('',*,*,#299,.T.);
#299 = EDGE_CURVE('',#238,#172,#300,.T.);
#300 = SEAM_CURVE('',#301,(#305,#312),.PCURVE_S1.);
#301 = LINE('',#302,#303);
#302 = CARTESIAN_POINT('',(-95.,0.,55.5));
#303 = VECTOR('',#304,1.);
#304 = DIRECTION('',(1.,-0.,-0.));
#305 = PCURVE('',#192,#306);
#306 = DEFINITIONAL_REPRESENTATION('',(#307),#311);
#307 = LINE('',#308,#309);
#308 = CARTESIAN_POINT('',(0.,0.));
#309 = VECTOR('',#310,1.);
#310 = DIRECTION('',(0.,1.));
#311 = ( GEOMETRIC_REPRESENTATION_CONTEXT(2) 
PARAMETRIC_REPRESENTATION_CONTEXT() REPRESENTATION_CONTEXT('2D SPACE',''
  ) );
#312 = PCURVE('',#192,#313);
#313 = DEFINITIONAL_REPRESENTATION('',(#314),#318);
#314 = LINE('',#315,#316);
#315 = CARTESIAN_POINT('',(6.28318530718,0.));
#316 = VECTOR('',#317,1.);
#317 = DIRECTION('',(0.,1.));
#318 = ( GEOMETRIC_REPRESENTATION_CONTEXT(2) 
PARAMETRIC_REPRESENTATION_CONTEXT() REPRESENTATION_CONTEXT('2D SPACE',''
  ) );
#319 = ORIENTED_EDGE('',*,*,#171,.F.);
#320 = ORIENTED_EDGE('',*,*,#299,.F.);
#321 = ( GEOMETRIC_REPRESENTATION_CONTEXT(3) 
GLOBAL_UNCERTAINTY_ASSIGNED_CONTEXT((#325)) GLOBAL_UNIT_ASSIGNED_CONTEXT
((#322,#323,#324)) REPRESENTATION_CONTEXT('Context #1',
  '3D Context with UNIT and UNCERTAINTY') );
#322 = ( LENGTH_UNIT() NAMED_UNIT(*) SI_UNIT(.MILLI.,.METRE.) );
#323 = ( NAMED_UNIT(*) PLANE_ANGLE_UNIT() SI_UNIT($,.RADIAN.) );
#324 = ( NAMED_UNIT(*) SI_UNIT($,.STERADIAN.) SOLID_ANGLE_UNIT() );
#325 = UNCERTAINTY_MEASURE_WITH_UNIT(LENGTH_MEASURE(1.E-07),#322,
  'distance_accuracy_value','confusion accuracy');
#326 = PRODUCT_RELATED_PRODUCT_CATEGORY('part',$,(#7));
ENDSEC;
END-ISO-10303-21;
