ISO-10303-21;
HEADER;
FILE_DESCRIPTION(('Open CASCADE Model'),'2;1');
FILE_NAME('Open CASCADE Shape Model','2026-09-23T09:29:04',('Author'),(
    'Open CASCADE'),'Open CASCADE STEP processor 7.9','Open CASCADE 7.9'
  ,'Unknown');
FILE_SCHEMA(('AUTOMOTIVE_DESIGN { 1 0 10303 214 1 1 1 1 }'));
ENDSEC;
DATA;
#1 = APPLICATION_PROTOCOL_DEFINITION('international standard',
  'automotive_design',2000,#2);
#2 = APPLICATION_CONTEXT(
  'core data for automotive mechanical design processes');
#3 = SHAPE_DEFINITION_REPRESENTATION(#4,#10);
#4 = PRODUCT_DEFINITION_SHAPE('','',#5);
#5 = PRODUCT_DEFINITION('design','',#6,#9);
#6 = PRODUCT_DEFINITION_FORMATION('','',#7);
#7 = PRODUCT('Open CASCADE STEP translator 7.9 5',
  'Open CASCADE STEP translator 7.9 5','',(#8));
#8 = PRODUCT_CONTEXT('',#2,'mechanical');
#9 = PRODUCT_DEFINITION_CONTEXT('part definition',#2,'design');
#10 = ADVANCED_BREP_SHAPE_REPRESENTATION('',(#11,#15),#305);
#11 = AXIS2_PLACEMENT_3D('',#12,#13,#14);
#12 = CARTESIAN_POINT('',(0.,0.,0.));
#13 = DIRECTION('',(0.,0.,1.));
#14 = DIRECTION('',(1.,0.,-0.));
#15 = MANIFOLD_SOLID_BREP('',#16);
#16 = CLOSED_SHELL('',(#17,#159,#221,#278));
#17 = ADVANCED_FACE('',(#18),#31,.F.);
#18 = FACE_BOUND('',#19,.F.);
#19 = EDGE_LOOP('',(#20,#81,#104,#158));
#20 = ORIENTED_EDGE('',*,*,#21,.T.);
#21 = EDGE_CURVE('',#22,#22,#24,.T.);
#22 = VERTEX_POINT('',#23);
#23 = CARTESIAN_POINT('',(28.406650257443,0.,49.5));
#24 = SURFACE_CURVE('',#25,(#30,#69),.PCURVE_S1.);
#25 = ELLIPSE('',#26,49.79123070224,49.5);
#26 = AXIS2_PLACEMENT_3D('',#27,#28,#29);
#27 = CARTESIAN_POINT('',(23.029229421792,0.,0.));
#28 = DIRECTION('',(0.994150963972,0.,-0.107999355706));
#29 = DIRECTION('',(0.107999355706,0.,0.994150963972));
#30 = PCURVE('',#31,#36);
#31 = CYLINDRICAL_SURFACE('',#32,49.5);
#32 = AXIS2_PLACEMENT_3D('',#33,#34,#35);
#33 = CARTESIAN_POINT('',(5.,0.,0.));
#34 = DIRECTION('',(1.,0.,0.));
#35 = DIRECTION('',(0.,0.,1.));
#36 = DEFINITIONAL_REPRESENTATION('',(#37),#68);
#37 = B_SPLINE_CURVE_WITH_KNOTS('',8,(#38,#39,#40,#41,#42,#43,#44,#45,
    #46,#47,#48,#49,#50,#51,#52,#53,#54,#55,#56,#57,#58,#59,#60,#61,#62,
    #63,#64,#65,#66,#67),.UNSPECIFIED.,.F.,.F.,(9,7,7,7,9),(0.,
    1.570796326795,2.748893571891,4.516039439535,6.28318530718),
  .UNSPECIFIED.);
#38 = CARTESIAN_POINT('',(0.,23.406650257443));
#39 = CARTESIAN_POINT('',(0.196349540849,23.406650257443));
#40 = CARTESIAN_POINT('',(0.392699081698,23.169716922603));
#41 = CARTESIAN_POINT('',(0.589048622548,22.695852265751));
#42 = CARTESIAN_POINT('',(0.785398163395,22.004534829975));
#43 = CARTESIAN_POINT('',(0.981747704246,21.134761265508));
#44 = CARTESIAN_POINT('',(1.178097245096,20.140937896533));
#45 = CARTESIAN_POINT('',(1.374446785946,19.085083533826));
#46 = CARTESIAN_POINT('',(1.718058482432,17.237338837766));
#47 = CARTESIAN_POINT('',(1.865320638069,16.445448543552));
#48 = CARTESIAN_POINT('',(2.012582793706,15.679725081237));
#49 = CARTESIAN_POINT('',(2.159844949343,14.96634226944));
#50 = CARTESIAN_POINT('',(2.30710710498,14.32964483742));
#51 = CARTESIAN_POINT('',(2.454369260617,13.790357447038));
#52 = CARTESIAN_POINT('',(2.601631416254,13.364183780785));
#53 = CARTESIAN_POINT('',(2.969786805347,12.606575263904));
#54 = CARTESIAN_POINT('',(3.190680038802,12.429052898457));
#55 = CARTESIAN_POINT('',(3.411573272258,12.562367779981));
#56 = CARTESIAN_POINT('',(3.632466505696,13.011493948266));
#57 = CARTESIAN_POINT('',(3.853359739169,13.747239866534));
#58 = CARTESIAN_POINT('',(4.074252972622,14.708623703576));
#59 = CARTESIAN_POINT('',(4.29514620608,15.815134716595));
#60 = CARTESIAN_POINT('',(4.736932672991,18.145158602101));
#61 = CARTESIAN_POINT('',(4.957825906445,19.36867276426));
#62 = CARTESIAN_POINT('',(5.17871913988,20.564060422214));
#63 = CARTESIAN_POINT('',(5.399612373378,21.638641979138));
#64 = CARTESIAN_POINT('',(5.620505606799,22.507049071122));
#65 = CARTESIAN_POINT('',(5.841398840269,23.10678107915));
#66 = CARTESIAN_POINT('',(6.062292073724,23.406650257443));
#67 = CARTESIAN_POINT('',(6.28318530718,23.406650257443));
#68 = ( GEOMETRIC_REPRESENTATION_CONTEXT(2) 
PARAMETRIC_REPRESENTATION_CONTEXT() REPRESENTATION_CONTEXT('2D SPACE',''
  ) );
#69 = PCURVE('',#70,#75);
#70 = PLANE('',#71);
#71 = AXIS2_PLACEMENT_3D('',#72,#73,#74);
#72 = CARTESIAN_POINT('',(-4.599871141205,-200.,-254.3301927944));
#73 = DIRECTION('',(0.994150963972,0.,-0.107999355706));
#74 = DIRECTION('',(0.107999355706,0.,0.994150963972));
#75 = DEFINITIONAL_REPRESENTATION('',(#76),#80);
#76 = ELLIPSE('',#77,49.79123070224,49.5);
#77 = AXIS2_PLACEMENT_2D('',#78,#79);
#78 = CARTESIAN_POINT('',(255.82653139342,-200.));
#79 = DIRECTION('',(1.,0.));
#80 = ( GEOMETRIC_REPRESENTATION_CONTEXT(2) 
PARAMETRIC_REPRESENTATION_CONTEXT() REPRESENTATION_CONTEXT('2D SPACE',''
  ) );
#81 = ORIENTED_EDGE('',*,*,#82,.T.);
#82 = EDGE_CURVE('',#22,#83,#85,.T.);
#83 = VERTEX_POINT('',#84);
#84 = CARTESIAN_POINT('',(30.418417154504,0.,49.5));
#85 = SEAM_CURVE('',#86,(#90,#97),.PCURVE_S1.);
#86 = LINE('',#87,#88);
#87 = CARTESIAN_POINT('',(5.,0.,49.5));
#88 = VECTOR('',#89,1.);
#89 = DIRECTION('',(1.,0.,0.));
#90 = PCURVE('',#31,#91);
#91 = DEFINITIONAL_REPRESENTATION('',(#92),#96);
#92 = LINE('',#93,#94);
#93 = CARTESIAN_POINT('',(0.,0.));
#94 = VECTOR('',#95,1.);
#95 = DIRECTION('',(0.,1.));
#96 = ( GEOMETRIC_REPRESENTATION_CONTEXT(2) 
PARAMETRIC_REPRESENTATION_CONTEXT() REPRESENTATION_CONTEXT('2D SPACE',''
  ) );
#97 = PCURVE('',#31,#98);
#98 = DEFINITIONAL_REPRESENTATION('',(#99),#103);
#99 = LINE('',#100,#101);
#100 = CARTESIAN_POINT('',(6.28318530718,0.));
#101 = VECTOR('',#102,1.);
#102 = DIRECTION('',(0.,1.));
#103 = ( GEOMETRIC_REPRESENTATION_CONTEXT(2) 
PARAMETRIC_REPRESENTATION_CONTEXT() REPRESENTATION_CONTEXT('2D SPACE',''
  ) );
#104 = ORIENTED_EDGE('',*,*,#105,.F.);
#105 = EDGE_CURVE('',#83,#83,#106,.T.);
#106 = SURFACE_CURVE('',#107,(#112,#146),.PCURVE_S1.);
#107 = ELLIPSE('',#108,49.79123070224,49.5);
#108 = AXIS2_PLACEMENT_3D('',#109,#110,#111);
#109 = CARTESIAN_POINT('',(25.040996318852,0.,0.));
#110 = DIRECTION('',(0.994150963972,0.,-0.107999355706));
#111 = DIRECTION('',(0.107999355706,0.,0.994150963972));
#112 = PCURVE('',#31,#113);
#113 = DEFINITIONAL_REPRESENTATION('',(#114),#145);
#114 = B_SPLINE_CURVE_WITH_KNOTS('',8,(#115,#116,#117,#118,#119,#120,
    #121,#122,#123,#124,#125,#126,#127,#128,#129,#130,#131,#132,#133,
    #134,#135,#136,#137,#138,#139,#140,#141,#142,#143,#144),
  .UNSPECIFIED.,.F.,.F.,(9,7,7,7,9),(0.,1.570796326795,2.748893571891,
    4.516039439535,6.28318530718),.UNSPECIFIED.);
#115 = CARTESIAN_POINT('',(0.,25.418417154504));
#116 = CARTESIAN_POINT('',(0.196349540849,25.418417154504));
#117 = CARTESIAN_POINT('',(0.392699081698,25.181483819659));
#118 = CARTESIAN_POINT('',(0.589048622548,24.707619162757));
#119 = CARTESIAN_POINT('',(0.785398163395,24.016301727097));
#120 = CARTESIAN_POINT('',(0.981747704246,23.146528162528));
#121 = CARTESIAN_POINT('',(1.178097245096,22.1527047936));
#122 = CARTESIAN_POINT('',(1.374446785946,21.096850430886));
#123 = CARTESIAN_POINT('',(1.718058482432,19.249105734826));
#124 = CARTESIAN_POINT('',(1.865320638069,18.45721544061));
#125 = CARTESIAN_POINT('',(2.012582793706,17.691491978302));
#126 = CARTESIAN_POINT('',(2.159844949343,16.978109166501));
#127 = CARTESIAN_POINT('',(2.30710710498,16.341411734476));
#128 = CARTESIAN_POINT('',(2.454369260617,15.802124344102));
#129 = CARTESIAN_POINT('',(2.601631416254,15.375950677846));
#130 = CARTESIAN_POINT('',(2.969786805347,14.618342160964));
#131 = CARTESIAN_POINT('',(3.190680038802,14.440819795518));
#132 = CARTESIAN_POINT('',(3.411573272258,14.574134676986));
#133 = CARTESIAN_POINT('',(3.632466505696,15.023260845395));
#134 = CARTESIAN_POINT('',(3.853359739169,15.759006763532));
#135 = CARTESIAN_POINT('',(4.074252972622,16.720390600643));
#136 = CARTESIAN_POINT('',(4.29514620608,17.826901613655));
#137 = CARTESIAN_POINT('',(4.736932672991,20.156925499161));
#138 = CARTESIAN_POINT('',(4.957825906445,21.380439661294));
#139 = CARTESIAN_POINT('',(5.17871913988,22.575827319408));
#140 = CARTESIAN_POINT('',(5.399612373378,23.650408876158));
#141 = CARTESIAN_POINT('',(5.620505606799,24.518815968375));
#142 = CARTESIAN_POINT('',(5.841398840269,25.118547976166));
#143 = CARTESIAN_POINT('',(6.062292073724,25.418417154504));
#144 = CARTESIAN_POINT('',(6.28318530718,25.418417154504));
#145 = ( GEOMETRIC_REPRESENTATION_CONTEXT(2) 
PARAMETRIC_REPRESENTATION_CONTEXT() REPRESENTATION_CONTEXT('2D SPACE',''
  ) );
#146 = PCURVE('',#147,#152);
#147 = PLANE('',#148);
#148 = AXIS2_PLACEMENT_3D('',#149,#150,#151);
#149 = CARTESIAN_POINT('',(-2.61156921326,-200.,-254.5461915058));
#150 = DIRECTION('',(0.994150963972,0.,-0.107999355706));
#151 = DIRECTION('',(0.107999355706,0.,0.994150963972));
#152 = DEFINITIONAL_REPRESENTATION('',(#153),#157);
#153 = ELLIPSE('',#154,49.79123070224,49.5);
#154 = AXIS2_PLACEMENT_2D('',#155,#156);
#155 = CARTESIAN_POINT('',(256.04380092213,-200.));
#156 = DIRECTION('',(1.,0.));
#157 = ( GEOMETRIC_REPRESENTATION_CONTEXT(2) 
PARAMETRIC_REPRESENTATION_CONTEXT() REPRESENTATION_CONTEXT('2D SPACE',''
  ) );
#158 = ORIENTED_EDGE('',*,*,#82,.F.);
#159 = ADVANCED_FACE('',(#160,#218),#70,.F.);
#160 = FACE_BOUND('',#161,.F.);
#161 = EDGE_LOOP('',(#162));
#162 = ORIENTED_EDGE('',*,*,#163,.T.);
#163 = EDGE_CURVE('',#164,#164,#166,.T.);
#164 = VERTEX_POINT('',#165);
#165 = CARTESIAN_POINT('',(29.058458843583,0.,55.5));
#166 = SURFACE_CURVE('',#167,(#172,#179),.PCURVE_S1.);
#167 = ELLIPSE('',#168,55.826531393421,55.5);
#168 = AXIS2_PLACEMENT_3D('',#169,#170,#171);
#169 = CARTESIAN_POINT('',(23.029229421791,0.,0.));
#170 = DIRECTION('',(0.994150963972,0.,-0.107999355706));
#171 = DIRECTION('',(-0.107999355706,0.,-0.994150963972));
#172 = PCURVE('',#70,#173);
#173 = DEFINITIONAL_REPRESENTATION('',(#174),#178);
#174 = ELLIPSE('',#175,55.826531393421,55.5);
#175 = AXIS2_PLACEMENT_2D('',#176,#177);
#176 = CARTESIAN_POINT('',(255.82653139342,-200.));
#177 = DIRECTION('',(-1.,-0.));
#178 = ( GEOMETRIC_REPRESENTATION_CONTEXT(2) 
PARAMETRIC_REPRESENTATION_CONTEXT() REPRESENTATION_CONTEXT('2D SPACE',''
  ) );
#179 = PCURVE('',#180,#185);
#180 = CYLINDRICAL_SURFACE('',#181,55.5);
#181 = AXIS2_PLACEMENT_3D('',#182,#183,#184);
#182 = CARTESIAN_POINT('',(95.,0.,0.));
#183 = DIRECTION('',(-1.,-0.,-0.));
#184 = DIRECTION('',(-0.,0.,1.));
#185 = DEFINITIONAL_REPRESENTATION('',(#186),#217);
#186 = B_SPLINE_CURVE_WITH_KNOTS('',8,(#187,#188,#189,#190,#191,#192,
    #193,#194,#195,#196,#197,#198,#199,#200,#201,#202,#203,#204,#205,
    #206,#207,#208,#209,#210,#211,#212,#213,#214,#215,#216),
  .UNSPECIFIED.,.F.,.F.,(9,7,7,7,9),(3.14159265359,4.712388980385,
    5.890486225481,7.657632093125,9.424777960769),.UNSPECIFIED.);
#187 = CARTESIAN_POINT('',(8.881784197001E-16,65.941541156417));
#188 = CARTESIAN_POINT('',(-0.196349540849,65.941541156417));
#189 = CARTESIAN_POINT('',(-0.392699081696,66.20719368328));
#190 = CARTESIAN_POINT('',(-0.589048622541,66.738496480335));
#191 = CARTESIAN_POINT('',(-0.785398163379,67.513609969057));
#192 = CARTESIAN_POINT('',(-0.981747704253,68.488810632087));
#193 = CARTESIAN_POINT('',(-1.178097245089,69.603097439802));
#194 = CARTESIAN_POINT('',(-1.374446785946,70.786934149564));
#195 = CARTESIAN_POINT('',(-1.718058482432,72.858647899692));
#196 = CARTESIAN_POINT('',(-1.865320638069,73.746524896252));
#197 = CARTESIAN_POINT('',(-2.012582793706,74.605063323674));
#198 = CARTESIAN_POINT('',(-2.159844949342,75.404916779346));
#199 = CARTESIAN_POINT('',(-2.307107104979,76.118789657684));
#200 = CARTESIAN_POINT('',(-2.454369260617,76.723445216557));
#201 = CARTESIAN_POINT('',(-2.601631416254,77.201276296912));
#202 = CARTESIAN_POINT('',(-2.969786805347,78.050716149173));
#203 = CARTESIAN_POINT('',(-3.190680038806,78.249756376943));
#204 = CARTESIAN_POINT('',(-3.411573272195,78.100282116182));
#205 = CARTESIAN_POINT('',(-3.632466505773,77.596716411412));
#206 = CARTESIAN_POINT('',(-3.853359739126,76.771789170743));
#207 = CARTESIAN_POINT('',(-4.074252972633,75.693873959084));
#208 = CARTESIAN_POINT('',(-4.29514620608,74.453240399187));
#209 = CARTESIAN_POINT('',(-4.736932672991,71.840789376043));
#210 = CARTESIAN_POINT('',(-4.957825906441,70.468970466805));
#211 = CARTESIAN_POINT('',(-5.17871913988,69.128687335469));
#212 = CARTESIAN_POINT('',(-5.399612373342,67.923853467801));
#213 = CARTESIAN_POINT('',(-5.620505606833,66.950184910849));
#214 = CARTESIAN_POINT('',(-5.841398840254,66.277758113793));
#215 = CARTESIAN_POINT('',(-6.062292073724,65.941541156417));
#216 = CARTESIAN_POINT('',(-6.28318530718,65.941541156417));
#217 = ( GEOMETRIC_REPRESENTATION_CONTEXT(2) 
PARAMETRIC_REPRESENTATION_CONTEXT() REPRESENTATION_CONTEXT('2D SPACE',''
  ) );
#218 = FACE_BOUND('',#219,.F.);
#219 = EDGE_LOOP('',(#220));
#220 = ORIENTED_EDGE('',*,*,#21,.F.);
#221 = ADVANCED_FACE('',(#222,#275),#147,.T.);
#222 = FACE_BOUND('',#223,.T.);
#223 = EDGE_LOOP('',(#224));
#224 = ORIENTED_EDGE('',*,*,#225,.T.);
#225 = EDGE_CURVE('',#226,#226,#228,.T.);
#226 = VERTEX_POINT('',#227);
#227 = CARTESIAN_POINT('',(31.070225740643,0.,55.5));
#228 = SURFACE_CURVE('',#229,(#234,#241),.PCURVE_S1.);
#229 = ELLIPSE('',#230,55.826531393421,55.5);
#230 = AXIS2_PLACEMENT_3D('',#231,#232,#233);
#231 = CARTESIAN_POINT('',(25.040996318852,0.,0.));
#232 = DIRECTION('',(0.994150963972,0.,-0.107999355706));
#233 = DIRECTION('',(-0.107999355706,0.,-0.994150963972));
#234 = PCURVE('',#147,#235);
#235 = DEFINITIONAL_REPRESENTATION('',(#236),#240);
#236 = ELLIPSE('',#237,55.826531393421,55.5);
#237 = AXIS2_PLACEMENT_2D('',#238,#239);
#238 = CARTESIAN_POINT('',(256.04380092213,-200.));
#239 = DIRECTION('',(-1.,-0.));
#240 = ( GEOMETRIC_REPRESENTATION_CONTEXT(2) 
PARAMETRIC_REPRESENTATION_CONTEXT() REPRESENTATION_CONTEXT('2D SPACE',''
  ) );
#241 = PCURVE('',#180,#242);
#242 = DEFINITIONAL_REPRESENTATION('',(#243),#274);
#243 = B_SPLINE_CURVE_WITH_KNOTS('',8,(#244,#245,#246,#247,#248,#249,
    #250,#251,#252,#253,#254,#255,#256,#257,#258,#259,#260,#261,#262,
    #263,#264,#265,#266,#267,#268,#269,#270,#271,#272,#273),
  .UNSPECIFIED.,.F.,.F.,(9,7,7,7,9),(3.14159265359,4.712388980385,
    5.890486225481,7.657632093125,9.424777960769),.UNSPECIFIED.);
#244 = CARTESIAN_POINT('',(8.881784197001E-16,63.929774259357));
#245 = CARTESIAN_POINT('',(-0.196349540849,63.929774259357));
#246 = CARTESIAN_POINT('',(-0.392699081696,64.195426786326));
#247 = CARTESIAN_POINT('',(-0.589048622541,64.726729582995));
#248 = CARTESIAN_POINT('',(-0.785398163379,65.501843072067));
#249 = CARTESIAN_POINT('',(-0.981747704253,66.477043734776));
#250 = CARTESIAN_POINT('',(-1.178097245089,67.591330542833));
#251 = CARTESIAN_POINT('',(-1.374446785946,68.775167252504));
#252 = CARTESIAN_POINT('',(-1.718058482432,70.846881002631));
#253 = CARTESIAN_POINT('',(-1.865320638069,71.734757999154));
#254 = CARTESIAN_POINT('',(-2.012582793706,72.593296426647));
#255 = CARTESIAN_POINT('',(-2.159844949342,73.393149882279));
#256 = CARTESIAN_POINT('',(-2.307107104979,74.107022760574));
#257 = CARTESIAN_POINT('',(-2.454369260617,74.711678319519));
#258 = CARTESIAN_POINT('',(-2.601631416254,75.189509399852));
#259 = CARTESIAN_POINT('',(-2.969786805347,76.038949252113));
#260 = CARTESIAN_POINT('',(-3.190680038806,76.237989480069));
#261 = CARTESIAN_POINT('',(-3.411573272195,76.088515218609));
#262 = CARTESIAN_POINT('',(-3.632466505773,75.584949515411));
#263 = CARTESIAN_POINT('',(-3.853359739126,74.760022272996));
#264 = CARTESIAN_POINT('',(-4.074252972633,73.682107062166));
#265 = CARTESIAN_POINT('',(-4.29514620608,72.441473502127));
#266 = CARTESIAN_POINT('',(-4.736932672991,69.829022478983));
#267 = CARTESIAN_POINT('',(-4.957825906441,68.457203569968));
#268 = CARTESIAN_POINT('',(-5.17871913988,67.11692043778));
#269 = CARTESIAN_POINT('',(-5.399612373342,65.912086571741));
#270 = CARTESIAN_POINT('',(-5.620505606833,64.938418013189));
#271 = CARTESIAN_POINT('',(-5.841398840254,64.265991216911));
#272 = CARTESIAN_POINT('',(-6.062292073724,63.929774259357));
#273 = CARTESIAN_POINT('',(-6.28318530718,63.929774259357));
#274 = ( GEOMETRIC_REPRESENTATION_CONTEXT(2) 
PARAMETRIC_REPRESENTATION_CONTEXT() REPRESENTATION_CONTEXT('2D SPACE',''
  ) );
#275 = FACE_BOUND('',#276,.T.);
#276 = EDGE_LOOP('',(#277));
#277 = ORIENTED_EDGE('',*,*,#105,.F.);
#278 = ADVANCED_FACE('',(#279),#180,.T.);
#279 = FACE_BOUND('',#280,.F.);
#280 = EDGE_LOOP('',(#281,#282,#303,#304));
#281 = ORIENTED_EDGE('',*,*,#225,.T.);
#282 = ORIENTED_EDGE('',*,*,#283,.T.);
#283 = EDGE_CURVE('',#226,#164,#284,.T.);
#284 = SEAM_CURVE('',#285,(#289,#296),.PCURVE_S1.);
#285 = LINE('',#286,#287);
#286 = CARTESIAN_POINT('',(95.,0.,55.5));
#287 = VECTOR('',#288,1.);
#288 = DIRECTION('',(-1.,0.,0.));
#289 = PCURVE('',#180,#290);
#290 = DEFINITIONAL_REPRESENTATION('',(#291),#295);
#291 = LINE('',#292,#293);
#292 = CARTESIAN_POINT('',(-0.,0.));
#293 = VECTOR('',#294,1.);
#294 = DIRECTION('',(-0.,1.));
#295 = ( GEOMETRIC_REPRESENTATION_CONTEXT(2) 
PARAMETRIC_REPRESENTATION_CONTEXT() REPRESENTATION_CONTEXT('2D SPACE',''
  ) );
#296 = PCURVE('',#180,#297);
#297 = DEFINITIONAL_REPRESENTATION('',(#298),#302);
#298 = LINE('',#299,#300);
#299 = CARTESIAN_POINT('',(-6.28318530718,0.));
#300 = VECTOR('',#301,1.);
#301 = DIRECTION('',(-0.,1.));
#302 = ( GEOMETRIC_REPRESENTATION_CONTEXT(2) 
PARAMETRIC_REPRESENTATION_CONTEXT() REPRESENTATION_CONTEXT('2D SPACE',''
  ) );
#303 = ORIENTED_EDGE('',*,*,#163,.F.);
#304 = ORIENTED_EDGE('',*,*,#283,.F.);
#305 = ( GEOMETRIC_REPRESENTATION_CONTEXT(3) 
GLOBAL_UNCERTAINTY_ASSIGNED_CONTEXT((#309)) GLOBAL_UNIT_ASSIGNED_CONTEXT
((#306,#307,#308)) REPRESENTATION_CONTEXT('Context #1',
  '3D Context with UNIT and UNCERTAINTY') );
#306 = ( LENGTH_UNIT() NAMED_UNIT(*) SI_UNIT(.MILLI.,.METRE.) );
#307 = ( NAMED_UNIT(*) PLANE_ANGLE_UNIT() SI_UNIT($,.RADIAN.) );
#308 = ( NAMED_UNIT(*) SI_UNIT($,.STERADIAN.) SOLID_ANGLE_UNIT() );
#309 = UNCERTAINTY_MEASURE_WITH_UNIT(LENGTH_MEASURE(1.E-07),#306,
  'distance_accuracy_value','confusion accuracy');
#310 = PRODUCT_RELATED_PRODUCT_CATEGORY('part',$,(#7));
ENDSEC;
END-ISO-10303-21;
