ISO-10303-21;
HEADER;
FILE_DESCRIPTION(('Open CASCADE Model'),'2;1');
FILE_NAME('Open CASCADE Shape Model','2026-09-23T09:53:14',('Author'),(
    'Open CASCADE'),'Open CASCADE STEP processor 7.9','Open CASCADE 7.9'
  ,'Unknown');
FILE_SCHEMA(('AUTOMOTIVE_DESIGN { 1 0 10303 214 1 1 1 1 }'));
ENDSEC;
DATA;
#1 = APPLICATION_PROTOCOL_DEFINITION('international standard',
  'automotive_design',2000,#2);
#2 = APPLICATION_CONTEXT(
  'core data for automotive mechanical design processes');
#3 = SHAPE_DEFINITION_REPRESENTATION(#4,#10);
#4 = PRODUCT_DEFINITION_SHAPE('','',#5);
#5 = PRODUCT_DEFINITION('design','',#6,#9);
#6 = PRODUCT_DEFINITION_FORMATION('','',#7);
#7 = PRODUCT('Open CASCADE STEP translator 7.9 74',
  'Open CASCADE STEP translator 7.9 74','',(#8));
#8 = PRODUCT_CONTEXT('',#2,'mechanical');
#9 = PRODUCT_DEFINITION_CONTEXT('part definition',#2,'design');
#10 = ADVANCED_BREP_SHAPE_REPRESENTATION('',(#11,#15),#1508);
#11 = AXIS2_PLACEMENT_3D('',#12,#13,#14);
#12 = CARTESIAN_POINT('',(0.,0.,0.));
#13 = DIRECTION('',(0.,0.,1.));
#14 = DIRECTION('',(1.,0.,-0.));
#15 = MANIFOLD_SOLID_BREP('',#16);
#16 = CLOSED_SHELL('',(#17,#209,#498,#552,#774,#839,#970,#997,#1027,
    #1054,#1081,#1108,#1135,#1356,#1424,#1451));
#17 = ADVANCED_FACE('',(#18),#32,.T.);
#18 = FACE_BOUND('',#19,.F.);
#19 = EDGE_LOOP('',(#20,#55,#83,#127,#155,#183));
#20 = ORIENTED_EDGE('',*,*,#21,.F.);
#21 = EDGE_CURVE('',#22,#24,#26,.T.);
#22 = VERTEX_POINT('',#23);
#23 = CARTESIAN_POINT('',(24.38,5.,133.4));
#24 = VERTEX_POINT('',#25);
#25 = CARTESIAN_POINT('',(29.792952237179,5.,186.29171478216));
#26 = SURFACE_CURVE('',#27,(#31,#43),.PCURVE_S1.);
#27 = LINE('',#28,#29);
#28 = CARTESIAN_POINT('',(24.38,5.,133.4));
#29 = VECTOR('',#30,1.);
#30 = DIRECTION('',(0.101808508926,-0.,0.994804014623));
#31 = PCURVE('',#32,#37);
#32 = PLANE('',#33);
#33 = AXIS2_PLACEMENT_3D('',#34,#35,#36);
#34 = CARTESIAN_POINT('',(24.38,5.,133.4));
#35 = DIRECTION('',(0.994804014623,-0.,-0.101808508926));
#36 = DIRECTION('',(-0.101808508926,0.,-0.994804014623));
#37 = DEFINITIONAL_REPRESENTATION('',(#38),#42);
#38 = LINE('',#39,#40);
#39 = CARTESIAN_POINT('',(-0.,0.));
#40 = VECTOR('',#41,1.);
#41 = DIRECTION('',(-1.,0.));
#42 = ( GEOMETRIC_REPRESENTATION_CONTEXT(2) 
PARAMETRIC_REPRESENTATION_CONTEXT() REPRESENTATION_CONTEXT('2D SPACE',''
  ) );
#43 = PCURVE('',#44,#49);
#44 = PLANE('',#45);
#45 = AXIS2_PLACEMENT_3D('',#46,#47,#48);
#46 = CARTESIAN_POINT('',(21.885463624567,5.,162.55330644384));
#47 = DIRECTION('',(-0.,1.,-0.));
#48 = DIRECTION('',(0.,0.,-1.));
#49 = DEFINITIONAL_REPRESENTATION('',(#50),#54);
#50 = LINE('',#51,#52);
#51 = CARTESIAN_POINT('',(29.153306443849,-2.494536375433));
#52 = VECTOR('',#53,1.);
#53 = DIRECTION('',(-0.994804014623,-0.101808508926));
#54 = ( GEOMETRIC_REPRESENTATION_CONTEXT(2) 
PARAMETRIC_REPRESENTATION_CONTEXT() REPRESENTATION_CONTEXT('2D SPACE',''
  ) );
#55 = ORIENTED_EDGE('',*,*,#56,.T.);
#56 = EDGE_CURVE('',#22,#57,#59,.T.);
#57 = VERTEX_POINT('',#58);
#58 = CARTESIAN_POINT('',(24.38,1.084250893475,133.4));
#59 = SURFACE_CURVE('',#60,(#64,#71),.PCURVE_S1.);
#60 = LINE('',#61,#62);
#61 = CARTESIAN_POINT('',(24.38,5.,133.4));
#62 = VECTOR('',#63,1.);
#63 = DIRECTION('',(-0.,-1.,-0.));
#64 = PCURVE('',#32,#65);
#65 = DEFINITIONAL_REPRESENTATION('',(#66),#70);
#66 = LINE('',#67,#68);
#67 = CARTESIAN_POINT('',(-0.,0.));
#68 = VECTOR('',#69,1.);
#69 = DIRECTION('',(-0.,-1.));
#70 = ( GEOMETRIC_REPRESENTATION_CONTEXT(2) 
PARAMETRIC_REPRESENTATION_CONTEXT() REPRESENTATION_CONTEXT('2D SPACE',''
  ) );
#71 = PCURVE('',#72,#77);
#72 = PLANE('',#73);
#73 = AXIS2_PLACEMENT_3D('',#74,#75,#76);
#74 = CARTESIAN_POINT('',(19.3,5.,133.3));
#75 = DIRECTION('',(1.968122649416E-02,-0.,-0.999806305903));
#76 = DIRECTION('',(-0.999806305903,0.,-1.968122649416E-02));
#77 = DEFINITIONAL_REPRESENTATION('',(#78),#82);
#78 = LINE('',#79,#80);
#79 = CARTESIAN_POINT('',(-5.080984156637,0.));
#80 = VECTOR('',#81,1.);
#81 = DIRECTION('',(-0.,-1.));
#82 = ( GEOMETRIC_REPRESENTATION_CONTEXT(2) 
PARAMETRIC_REPRESENTATION_CONTEXT() REPRESENTATION_CONTEXT('2D SPACE',''
  ) );
#83 = ORIENTED_EDGE('',*,*,#84,.F.);
#84 = EDGE_CURVE('',#85,#57,#87,.T.);
#85 = VERTEX_POINT('',#86);
#86 = CARTESIAN_POINT('',(24.38,-1.084250893475,133.4));
#87 = SURFACE_CURVE('',#88,(#93,#104),.PCURVE_S1.);
#88 = CIRCLE('',#89,5.717985428878);
#89 = AXIS2_PLACEMENT_3D('',#90,#91,#92);
#90 = CARTESIAN_POINT('',(23.808421993102,0.,127.81492560954));
#91 = DIRECTION('',(-0.994804014623,0.,0.101808508926));
#92 = DIRECTION('',(-0.101808508926,-0.,-0.994804014623));
#93 = PCURVE('',#32,#94);
#94 = DEFINITIONAL_REPRESENTATION('',(#95),#103);
#95 = ( BOUNDED_CURVE() B_SPLINE_CURVE(2,(#96,#97,#98,#99,#100,#101,#102
),.UNSPECIFIED.,.T.,.F.) B_SPLINE_CURVE_WITH_KNOTS((1,2,2,2,2,1),(
    -2.094395102393,0.,2.094395102393,4.188790204786,6.28318530718,
8.377580409573),.UNSPECIFIED.) CURVE() GEOMETRIC_REPRESENTATION_ITEM() 
RATIONAL_B_SPLINE_CURVE((1.,0.5,1.,0.5,1.,0.5,1.)) REPRESENTATION_ITEM(
  '') );
#96 = CARTESIAN_POINT('',(11.332231359087,-5.));
#97 = CARTESIAN_POINT('',(11.332231359087,-14.90384127975));
#98 = CARTESIAN_POINT('',(2.755253215769,-9.951920639878));
#99 = CARTESIAN_POINT('',(-5.821724927548,-5.));
#100 = CARTESIAN_POINT('',(2.755253215769,-4.807936012218E-02));
#101 = CARTESIAN_POINT('',(11.332231359087,4.903841279756));
#102 = CARTESIAN_POINT('',(11.332231359087,-5.));
#103 = ( GEOMETRIC_REPRESENTATION_CONTEXT(2) 
PARAMETRIC_REPRESENTATION_CONTEXT() REPRESENTATION_CONTEXT('2D SPACE',''
  ) );
#104 = PCURVE('',#105,#110);
#105 = SPHERICAL_SURFACE('',#106,6.);
#106 = AXIS2_PLACEMENT_3D('',#107,#108,#109);
#107 = CARTESIAN_POINT('',(22.,0.,128.));
#108 = DIRECTION('',(-0.,-0.,1.));
#109 = DIRECTION('',(-1.,-0.,-0.));
#110 = DEFINITIONAL_REPRESENTATION('',(#111),#126);
#111 = B_SPLINE_CURVE_WITH_KNOTS('',7,(#112,#113,#114,#115,#116,#117,
    #118,#119,#120,#121,#122,#123,#124,#125),.UNSPECIFIED.,.F.,.F.,(8,6,
    8),(2.950816385913,3.14159265359,3.332368921266),.UNSPECIFIED.);
#112 = CARTESIAN_POINT('',(-3.569066942905,1.119769514999));
#113 = CARTESIAN_POINT('',(-3.515349990335,1.131009495947));
#114 = CARTESIAN_POINT('',(-3.458475532688,1.140703264849));
#115 = CARTESIAN_POINT('',(-3.398636869551,1.148688727689));
#116 = CARTESIAN_POINT('',(-3.336232691443,1.154809349457));
#117 = CARTESIAN_POINT('',(-3.271968898461,1.158933241013));
#118 = CARTESIAN_POINT('',(-3.206780918217,1.160995202253));
#119 = CARTESIAN_POINT('',(-3.076404388962,1.160995202253));
#120 = CARTESIAN_POINT('',(-3.011216408718,1.158933241013));
#121 = CARTESIAN_POINT('',(-2.946952615737,1.154809349457));
#122 = CARTESIAN_POINT('',(-2.884548437628,1.148688727689));
#123 = CARTESIAN_POINT('',(-2.824709774492,1.140703264849));
#124 = CARTESIAN_POINT('',(-2.767835316845,1.131009495947));
#125 = CARTESIAN_POINT('',(-2.714118364274,1.119769514999));
#126 = ( GEOMETRIC_REPRESENTATION_CONTEXT(2) 
PARAMETRIC_REPRESENTATION_CONTEXT() REPRESENTATION_CONTEXT('2D SPACE',''
  ) );
#127 = ORIENTED_EDGE('',*,*,#128,.T.);
#128 = EDGE_CURVE('',#85,#129,#131,.T.);
#129 = VERTEX_POINT('',#130);
#130 = CARTESIAN_POINT('',(24.38,-5.,133.4));
#131 = SURFACE_CURVE('',#132,(#136,#143),.PCURVE_S1.);
#132 = LINE('',#133,#134);
#133 = CARTESIAN_POINT('',(24.38,5.,133.4));
#134 = VECTOR('',#135,1.);
#135 = DIRECTION('',(-0.,-1.,-0.));
#136 = PCURVE('',#32,#137);
#137 = DEFINITIONAL_REPRESENTATION('',(#138),#142);
#138 = LINE('',#139,#140);
#139 = CARTESIAN_POINT('',(-0.,0.));
#140 = VECTOR('',#141,1.);
#141 = DIRECTION('',(-0.,-1.));
#142 = ( GEOMETRIC_REPRESENTATION_CONTEXT(2) 
PARAMETRIC_REPRESENTATION_CONTEXT() REPRESENTATION_CONTEXT('2D SPACE',''
  ) );
#143 = PCURVE('',#144,#149);
#144 = PLANE('',#145);
#145 = AXIS2_PLACEMENT_3D('',#146,#147,#148);
#146 = CARTESIAN_POINT('',(19.3,5.,133.3));
#147 = DIRECTION('',(1.968122649416E-02,-0.,-0.999806305903));
#148 = DIRECTION('',(-0.999806305903,0.,-1.968122649416E-02));
#149 = DEFINITIONAL_REPRESENTATION('',(#150),#154);
#150 = LINE('',#151,#152);
#151 = CARTESIAN_POINT('',(-5.080984156637,0.));
#152 = VECTOR('',#153,1.);
#153 = DIRECTION('',(-0.,-1.));
#154 = ( GEOMETRIC_REPRESENTATION_CONTEXT(2) 
PARAMETRIC_REPRESENTATION_CONTEXT() REPRESENTATION_CONTEXT('2D SPACE',''
  ) );
#155 = ORIENTED_EDGE('',*,*,#156,.T.);
#156 = EDGE_CURVE('',#129,#157,#159,.T.);
#157 = VERTEX_POINT('',#158);
#158 = CARTESIAN_POINT('',(29.792952237179,-5.,186.29171478216));
#159 = SURFACE_CURVE('',#160,(#164,#171),.PCURVE_S1.);
#160 = LINE('',#161,#162);
#161 = CARTESIAN_POINT('',(24.38,-5.,133.4));
#162 = VECTOR('',#163,1.);
#163 = DIRECTION('',(0.101808508926,-0.,0.994804014623));
#164 = PCURVE('',#32,#165);
#165 = DEFINITIONAL_REPRESENTATION('',(#166),#170);
#166 = LINE('',#167,#168);
#167 = CARTESIAN_POINT('',(-0.,-10.));
#168 = VECTOR('',#169,1.);
#169 = DIRECTION('',(-1.,0.));
#170 = ( GEOMETRIC_REPRESENTATION_CONTEXT(2) 
PARAMETRIC_REPRESENTATION_CONTEXT() REPRESENTATION_CONTEXT('2D SPACE',''
  ) );
#171 = PCURVE('',#172,#177);
#172 = PLANE('',#173);
#173 = AXIS2_PLACEMENT_3D('',#174,#175,#176);
#174 = CARTESIAN_POINT('',(21.885463624567,-5.,162.55330644384));
#175 = DIRECTION('',(-0.,1.,-0.));
#176 = DIRECTION('',(0.,0.,-1.));
#177 = DEFINITIONAL_REPRESENTATION('',(#178),#182);
#178 = LINE('',#179,#180);
#179 = CARTESIAN_POINT('',(29.153306443849,-2.494536375433));
#180 = VECTOR('',#181,1.);
#181 = DIRECTION('',(-0.994804014623,-0.101808508926));
#182 = ( GEOMETRIC_REPRESENTATION_CONTEXT(2) 
PARAMETRIC_REPRESENTATION_CONTEXT() REPRESENTATION_CONTEXT('2D SPACE',''
  ) );
#183 = ORIENTED_EDGE('',*,*,#184,.T.);
#184 = EDGE_CURVE('',#157,#24,#185,.T.);
#185 = SURFACE_CURVE('',#186,(#190,#197),.PCURVE_S1.);
#186 = LINE('',#187,#188);
#187 = CARTESIAN_POINT('',(29.792952237179,-5.,186.29171478216));
#188 = VECTOR('',#189,1.);
#189 = DIRECTION('',(-0.,1.,-0.));
#190 = PCURVE('',#32,#191);
#191 = DEFINITIONAL_REPRESENTATION('',(#192),#196);
#192 = LINE('',#193,#194);
#193 = CARTESIAN_POINT('',(-53.16797480175,-10.));
#194 = VECTOR('',#195,1.);
#195 = DIRECTION('',(-0.,1.));
#196 = ( GEOMETRIC_REPRESENTATION_CONTEXT(2) 
PARAMETRIC_REPRESENTATION_CONTEXT() REPRESENTATION_CONTEXT('2D SPACE',''
  ) );
#197 = PCURVE('',#198,#203);
#198 = CYLINDRICAL_SURFACE('',#199,8.);
#199 = AXIS2_PLACEMENT_3D('',#200,#201,#202);
#200 = CARTESIAN_POINT('',(22.,-5.,188.1));
#201 = DIRECTION('',(-0.,1.,-0.));
#202 = DIRECTION('',(-0.,-0.,1.));
#203 = DEFINITIONAL_REPRESENTATION('',(#204),#208);
#204 = LINE('',#205,#206);
#205 = CARTESIAN_POINT('',(-4.484382907064,0.));
#206 = VECTOR('',#207,1.);
#207 = DIRECTION('',(-0.,1.));
#208 = ( GEOMETRIC_REPRESENTATION_CONTEXT(2) 
PARAMETRIC_REPRESENTATION_CONTEXT() REPRESENTATION_CONTEXT('2D SPACE',''
  ) );
#209 = ADVANCED_FACE('',(#210,#463),#44,.T.);
#210 = FACE_BOUND('',#211,.F.);
#211 = EDGE_LOOP('',(#212,#235,#236,#264,#292,#320,#348,#376,#409,#437)
  );
#212 = ORIENTED_EDGE('',*,*,#213,.T.);
#213 = EDGE_CURVE('',#214,#22,#216,.T.);
#214 = VERTEX_POINT('',#215);
#215 = CARTESIAN_POINT('',(19.3,5.,133.3));
#216 = SURFACE_CURVE('',#217,(#221,#228),.PCURVE_S1.);
#217 = LINE('',#218,#219);
#218 = CARTESIAN_POINT('',(19.3,5.,133.3));
#219 = VECTOR('',#220,1.);
#220 = DIRECTION('',(0.999806305903,-0.,1.968122649416E-02));
#221 = PCURVE('',#44,#222);
#222 = DEFINITIONAL_REPRESENTATION('',(#223),#227);
#223 = LINE('',#224,#225);
#224 = CARTESIAN_POINT('',(29.253306443849,2.585463624567));
#225 = VECTOR('',#226,1.);
#226 = DIRECTION('',(-1.968122649416E-02,-0.999806305903));
#227 = ( GEOMETRIC_REPRESENTATION_CONTEXT(2) 
PARAMETRIC_REPRESENTATION_CONTEXT() REPRESENTATION_CONTEXT('2D SPACE',''
  ) );
#228 = PCURVE('',#72,#229);
#229 = DEFINITIONAL_REPRESENTATION('',(#230),#234);
#230 = LINE('',#231,#232);
#231 = CARTESIAN_POINT('',(-0.,0.));
#232 = VECTOR('',#233,1.);
#233 = DIRECTION('',(-1.,0.));
#234 = ( GEOMETRIC_REPRESENTATION_CONTEXT(2) 
PARAMETRIC_REPRESENTATION_CONTEXT() REPRESENTATION_CONTEXT('2D SPACE',''
  ) );
#235 = ORIENTED_EDGE('',*,*,#21,.T.);
#236 = ORIENTED_EDGE('',*,*,#237,.T.);
#237 = EDGE_CURVE('',#24,#238,#240,.T.);
#238 = VERTEX_POINT('',#239);
#239 = CARTESIAN_POINT('',(29.933043667888,5.,187.06713110058));
#240 = SURFACE_CURVE('',#241,(#246,#257),.PCURVE_S1.);
#241 = CIRCLE('',#242,8.);
#242 = AXIS2_PLACEMENT_3D('',#243,#244,#245);
#243 = CARTESIAN_POINT('',(22.,5.,188.1));
#244 = DIRECTION('',(0.,-1.,0.));
#245 = DIRECTION('',(-0.,-0.,1.));
#246 = PCURVE('',#44,#247);
#247 = DEFINITIONAL_REPRESENTATION('',(#248),#256);
#248 = ( BOUNDED_CURVE() B_SPLINE_CURVE(2,(#249,#250,#251,#252,#253,#254
,#255),.UNSPECIFIED.,.T.,.F.) B_SPLINE_CURVE_WITH_KNOTS((1,2,2,2,2,1),(
    -2.094395102393,0.,2.094395102393,4.188790204786,6.28318530718,
8.377580409573),.UNSPECIFIED.) CURVE() GEOMETRIC_REPRESENTATION_ITEM() 
RATIONAL_B_SPLINE_CURVE((1.,0.5,1.,0.5,1.,0.5,1.)) REPRESENTATION_ITEM(
  '') );
#249 = CARTESIAN_POINT('',(-33.54669355615,-0.114536375433));
#250 = CARTESIAN_POINT('',(-33.54669355615,13.741870085118));
#251 = CARTESIAN_POINT('',(-21.54669355615,6.813666854842));
#252 = CARTESIAN_POINT('',(-9.546693556151,-0.114536375433));
#253 = CARTESIAN_POINT('',(-21.54669355615,-7.042739605709));
#254 = CARTESIAN_POINT('',(-33.54669355615,-13.97094283598));
#255 = CARTESIAN_POINT('',(-33.54669355615,-0.114536375433));
#256 = ( GEOMETRIC_REPRESENTATION_CONTEXT(2) 
PARAMETRIC_REPRESENTATION_CONTEXT() REPRESENTATION_CONTEXT('2D SPACE',''
  ) );
#257 = PCURVE('',#198,#258);
#258 = DEFINITIONAL_REPRESENTATION('',(#259),#263);
#259 = LINE('',#260,#261);
#260 = CARTESIAN_POINT('',(-0.,10.));
#261 = VECTOR('',#262,1.);
#262 = DIRECTION('',(-1.,0.));
#263 = ( GEOMETRIC_REPRESENTATION_CONTEXT(2) 
PARAMETRIC_REPRESENTATION_CONTEXT() REPRESENTATION_CONTEXT('2D SPACE',''
  ) );
#264 = ORIENTED_EDGE('',*,*,#265,.T.);
#265 = EDGE_CURVE('',#238,#266,#268,.T.);
#266 = VERTEX_POINT('',#267);
#267 = CARTESIAN_POINT('',(45.55,5.,241.9));
#268 = SURFACE_CURVE('',#269,(#273,#280),.PCURVE_S1.);
#269 = LINE('',#270,#271);
#270 = CARTESIAN_POINT('',(29.8,5.,186.6));
#271 = VECTOR('',#272,1.);
#272 = DIRECTION('',(0.273917082361,-0.,0.961753311401));
#273 = PCURVE('',#44,#274);
#274 = DEFINITIONAL_REPRESENTATION('',(#275),#279);
#275 = LINE('',#276,#277);
#276 = CARTESIAN_POINT('',(-24.04669355615,-7.914536375433));
#277 = VECTOR('',#278,1.);
#278 = DIRECTION('',(-0.961753311401,-0.273917082361));
#279 = ( GEOMETRIC_REPRESENTATION_CONTEXT(2) 
PARAMETRIC_REPRESENTATION_CONTEXT() REPRESENTATION_CONTEXT('2D SPACE',''
  ) );
#280 = PCURVE('',#281,#286);
#281 = PLANE('',#282);
#282 = AXIS2_PLACEMENT_3D('',#283,#284,#285);
#283 = CARTESIAN_POINT('',(29.8,5.,186.6));
#284 = DIRECTION('',(0.961753311401,-0.,-0.273917082361));
#285 = DIRECTION('',(-0.273917082361,0.,-0.961753311401));
#286 = DEFINITIONAL_REPRESENTATION('',(#287),#291);
#287 = LINE('',#288,#289);
#288 = CARTESIAN_POINT('',(-0.,0.));
#289 = VECTOR('',#290,1.);
#290 = DIRECTION('',(-1.,0.));
#291 = ( GEOMETRIC_REPRESENTATION_CONTEXT(2) 
PARAMETRIC_REPRESENTATION_CONTEXT() REPRESENTATION_CONTEXT('2D SPACE',''
  ) );
#292 = ORIENTED_EDGE('',*,*,#293,.T.);
#293 = EDGE_CURVE('',#266,#294,#296,.T.);
#294 = VERTEX_POINT('',#295);
#295 = CARTESIAN_POINT('',(41.74,5.,244.3));
#296 = SURFACE_CURVE('',#297,(#301,#308),.PCURVE_S1.);
#297 = LINE('',#298,#299);
#298 = CARTESIAN_POINT('',(45.55,5.,241.9));
#299 = VECTOR('',#300,1.);
#300 = DIRECTION('',(-0.846121563913,-0.,0.53298996152));
#301 = PCURVE('',#44,#302);
#302 = DEFINITIONAL_REPRESENTATION('',(#303),#307);
#303 = LINE('',#304,#305);
#304 = CARTESIAN_POINT('',(-79.34669355615,-23.66453637543));
#305 = VECTOR('',#306,1.);
#306 = DIRECTION('',(-0.53298996152,0.846121563913));
#307 = ( GEOMETRIC_REPRESENTATION_CONTEXT(2) 
PARAMETRIC_REPRESENTATION_CONTEXT() REPRESENTATION_CONTEXT('2D SPACE',''
  ) );
#308 = PCURVE('',#309,#314);
#309 = PLANE('',#310);
#310 = AXIS2_PLACEMENT_3D('',#311,#312,#313);
#311 = CARTESIAN_POINT('',(45.55,5.,241.9));
#312 = DIRECTION('',(0.53298996152,-0.,0.846121563913));
#313 = DIRECTION('',(0.846121563913,0.,-0.53298996152));
#314 = DEFINITIONAL_REPRESENTATION('',(#315),#319);
#315 = LINE('',#316,#317);
#316 = CARTESIAN_POINT('',(-0.,0.));
#317 = VECTOR('',#318,1.);
#318 = DIRECTION('',(-1.,0.));
#319 = ( GEOMETRIC_REPRESENTATION_CONTEXT(2) 
PARAMETRIC_REPRESENTATION_CONTEXT() REPRESENTATION_CONTEXT('2D SPACE',''
  ) );
#320 = ORIENTED_EDGE('',*,*,#321,.T.);
#321 = EDGE_CURVE('',#294,#322,#324,.T.);
#322 = VERTEX_POINT('',#323);
#323 = CARTESIAN_POINT('',(14.82,5.,191.7));
#324 = SURFACE_CURVE('',#325,(#329,#336),.PCURVE_S1.);
#325 = LINE('',#326,#327);
#326 = CARTESIAN_POINT('',(41.74,5.,244.3));
#327 = VECTOR('',#328,1.);
#328 = DIRECTION('',(-0.455588093909,-0.,-0.890190703551));
#329 = PCURVE('',#44,#330);
#330 = DEFINITIONAL_REPRESENTATION('',(#331),#335);
#331 = LINE('',#332,#333);
#332 = CARTESIAN_POINT('',(-81.74669355615,-19.85453637543));
#333 = VECTOR('',#334,1.);
#334 = DIRECTION('',(0.890190703551,0.455588093909));
#335 = ( GEOMETRIC_REPRESENTATION_CONTEXT(2) 
PARAMETRIC_REPRESENTATION_CONTEXT() REPRESENTATION_CONTEXT('2D SPACE',''
  ) );
#336 = PCURVE('',#337,#342);
#337 = PLANE('',#338);
#338 = AXIS2_PLACEMENT_3D('',#339,#340,#341);
#339 = CARTESIAN_POINT('',(41.74,5.,244.3));
#340 = DIRECTION('',(-0.890190703551,-0.,0.455588093909));
#341 = DIRECTION('',(0.455588093909,0.,0.890190703551));
#342 = DEFINITIONAL_REPRESENTATION('',(#343),#347);
#343 = LINE('',#344,#345);
#344 = CARTESIAN_POINT('',(0.,-0.));
#345 = VECTOR('',#346,1.);
#346 = DIRECTION('',(-1.,0.));
#347 = ( GEOMETRIC_REPRESENTATION_CONTEXT(2) 
PARAMETRIC_REPRESENTATION_CONTEXT() REPRESENTATION_CONTEXT('2D SPACE',''
  ) );
#348 = ORIENTED_EDGE('',*,*,#349,.T.);
#349 = EDGE_CURVE('',#322,#350,#352,.T.);
#350 = VERTEX_POINT('',#351);
#351 = CARTESIAN_POINT('',(14.850541473036,5.,191.68960203521));
#352 = SURFACE_CURVE('',#353,(#357,#364),.PCURVE_S1.);
#353 = LINE('',#354,#355);
#354 = CARTESIAN_POINT('',(14.82,5.,191.7));
#355 = VECTOR('',#356,1.);
#356 = DIRECTION('',(0.946641702098,0.,-0.322287895908));
#357 = PCURVE('',#44,#358);
#358 = DEFINITIONAL_REPRESENTATION('',(#359),#363);
#359 = LINE('',#360,#361);
#360 = CARTESIAN_POINT('',(-29.14669355615,7.065463624567));
#361 = VECTOR('',#362,1.);
#362 = DIRECTION('',(0.322287895908,-0.946641702098));
#363 = ( GEOMETRIC_REPRESENTATION_CONTEXT(2) 
PARAMETRIC_REPRESENTATION_CONTEXT() REPRESENTATION_CONTEXT('2D SPACE',''
  ) );
#364 = PCURVE('',#365,#370);
#365 = PLANE('',#366);
#366 = AXIS2_PLACEMENT_3D('',#367,#368,#369);
#367 = CARTESIAN_POINT('',(14.82,5.,191.7));
#368 = DIRECTION('',(-0.322287895908,-0.,-0.946641702098));
#369 = DIRECTION('',(-0.946641702098,-0.,0.322287895908));
#370 = DEFINITIONAL_REPRESENTATION('',(#371),#375);
#371 = LINE('',#372,#373);
#372 = CARTESIAN_POINT('',(-0.,0.));
#373 = VECTOR('',#374,1.);
#374 = DIRECTION('',(-1.,0.));
#375 = ( GEOMETRIC_REPRESENTATION_CONTEXT(2) 
PARAMETRIC_REPRESENTATION_CONTEXT() REPRESENTATION_CONTEXT('2D SPACE',''
  ) );
#376 = ORIENTED_EDGE('',*,*,#377,.T.);
#377 = EDGE_CURVE('',#350,#378,#380,.T.);
#378 = VERTEX_POINT('',#379);
#379 = CARTESIAN_POINT('',(14.046359324184,5.,187.24));
#380 = SURFACE_CURVE('',#381,(#386,#397),.PCURVE_S1.);
#381 = CIRCLE('',#382,8.);
#382 = AXIS2_PLACEMENT_3D('',#383,#384,#385);
#383 = CARTESIAN_POINT('',(22.,5.,188.1));
#384 = DIRECTION('',(0.,-1.,0.));
#385 = DIRECTION('',(-0.,-0.,1.));
#386 = PCURVE('',#44,#387);
#387 = DEFINITIONAL_REPRESENTATION('',(#388),#396);
#388 = ( BOUNDED_CURVE() B_SPLINE_CURVE(2,(#389,#390,#391,#392,#393,#394
,#395),.UNSPECIFIED.,.T.,.F.) B_SPLINE_CURVE_WITH_KNOTS((1,2,2,2,2,1),(
    -2.094395102393,0.,2.094395102393,4.188790204786,6.28318530718,
8.377580409573),.UNSPECIFIED.) CURVE() GEOMETRIC_REPRESENTATION_ITEM() 
RATIONAL_B_SPLINE_CURVE((1.,0.5,1.,0.5,1.,0.5,1.)) REPRESENTATION_ITEM(
  '') );
#389 = CARTESIAN_POINT('',(-33.54669355615,-0.114536375433));
#390 = CARTESIAN_POINT('',(-33.54669355615,13.741870085118));
#391 = CARTESIAN_POINT('',(-21.54669355615,6.813666854842));
#392 = CARTESIAN_POINT('',(-9.546693556151,-0.114536375433));
#393 = CARTESIAN_POINT('',(-21.54669355615,-7.042739605709));
#394 = CARTESIAN_POINT('',(-33.54669355615,-13.97094283598));
#395 = CARTESIAN_POINT('',(-33.54669355615,-0.114536375433));
#396 = ( GEOMETRIC_REPRESENTATION_CONTEXT(2) 
PARAMETRIC_REPRESENTATION_CONTEXT() REPRESENTATION_CONTEXT('2D SPACE',''
  ) );
#397 = PCURVE('',#398,#403);
#398 = CYLINDRICAL_SURFACE('',#399,8.);
#399 = AXIS2_PLACEMENT_3D('',#400,#401,#402);
#400 = CARTESIAN_POINT('',(22.,-5.,188.1));
#401 = DIRECTION('',(-0.,1.,-0.));
#402 = DIRECTION('',(-0.,-0.,1.));
#403 = DEFINITIONAL_REPRESENTATION('',(#404),#408);
#404 = LINE('',#405,#406);
#405 = CARTESIAN_POINT('',(-0.,10.));
#406 = VECTOR('',#407,1.);
#407 = DIRECTION('',(-1.,0.));
#408 = ( GEOMETRIC_REPRESENTATION_CONTEXT(2) 
PARAMETRIC_REPRESENTATION_CONTEXT() REPRESENTATION_CONTEXT('2D SPACE',''
  ) );
#409 = ORIENTED_EDGE('',*,*,#410,.T.);
#410 = EDGE_CURVE('',#378,#411,#413,.T.);
#411 = VERTEX_POINT('',#412);
#412 = CARTESIAN_POINT('',(13.97,5.,187.24));
#413 = SURFACE_CURVE('',#414,(#418,#425),.PCURVE_S1.);
#414 = LINE('',#415,#416);
#415 = CARTESIAN_POINT('',(29.89,5.,187.24));
#416 = VECTOR('',#417,1.);
#417 = DIRECTION('',(-1.,-0.,-0.));
#418 = PCURVE('',#44,#419);
#419 = DEFINITIONAL_REPRESENTATION('',(#420),#424);
#420 = LINE('',#421,#422);
#421 = CARTESIAN_POINT('',(-24.68669355615,-8.004536375433));
#422 = VECTOR('',#423,1.);
#423 = DIRECTION('',(-0.,1.));
#424 = ( GEOMETRIC_REPRESENTATION_CONTEXT(2) 
PARAMETRIC_REPRESENTATION_CONTEXT() REPRESENTATION_CONTEXT('2D SPACE',''
  ) );
#425 = PCURVE('',#426,#431);
#426 = PLANE('',#427);
#427 = AXIS2_PLACEMENT_3D('',#428,#429,#430);
#428 = CARTESIAN_POINT('',(29.89,5.,187.24));
#429 = DIRECTION('',(-0.,-0.,1.));
#430 = DIRECTION('',(1.,0.,0.));
#431 = DEFINITIONAL_REPRESENTATION('',(#432),#436);
#432 = LINE('',#433,#434);
#433 = CARTESIAN_POINT('',(0.,-0.));
#434 = VECTOR('',#435,1.);
#435 = DIRECTION('',(-1.,0.));
#436 = ( GEOMETRIC_REPRESENTATION_CONTEXT(2) 
PARAMETRIC_REPRESENTATION_CONTEXT() REPRESENTATION_CONTEXT('2D SPACE',''
  ) );
#437 = ORIENTED_EDGE('',*,*,#438,.T.);
#438 = EDGE_CURVE('',#411,#214,#439,.T.);
#439 = SURFACE_CURVE('',#440,(#444,#451),.PCURVE_S1.);
#440 = LINE('',#441,#442);
#441 = CARTESIAN_POINT('',(13.97,5.,187.24));
#442 = VECTOR('',#443,1.);
#443 = DIRECTION('',(9.833458794287E-02,0.,-0.995153409688));
#444 = PCURVE('',#44,#445);
#445 = DEFINITIONAL_REPRESENTATION('',(#446),#450);
#446 = LINE('',#447,#448);
#447 = CARTESIAN_POINT('',(-24.68669355615,7.915463624567));
#448 = VECTOR('',#449,1.);
#449 = DIRECTION('',(0.995153409688,-9.833458794287E-02));
#450 = ( GEOMETRIC_REPRESENTATION_CONTEXT(2) 
PARAMETRIC_REPRESENTATION_CONTEXT() REPRESENTATION_CONTEXT('2D SPACE',''
  ) );
#451 = PCURVE('',#452,#457);
#452 = PLANE('',#453);
#453 = AXIS2_PLACEMENT_3D('',#454,#455,#456);
#454 = CARTESIAN_POINT('',(13.97,5.,187.24));
#455 = DIRECTION('',(-0.995153409688,-0.,-9.833458794287E-02));
#456 = DIRECTION('',(-9.833458794287E-02,-0.,0.995153409688));
#457 = DEFINITIONAL_REPRESENTATION('',(#458),#462);
#458 = LINE('',#459,#460);
#459 = CARTESIAN_POINT('',(-0.,0.));
#460 = VECTOR('',#461,1.);
#461 = DIRECTION('',(-1.,0.));
#462 = ( GEOMETRIC_REPRESENTATION_CONTEXT(2) 
PARAMETRIC_REPRESENTATION_CONTEXT() REPRESENTATION_CONTEXT('2D SPACE',''
  ) );
#463 = FACE_BOUND('',#464,.F.);
#464 = EDGE_LOOP('',(#465));
#465 = ORIENTED_EDGE('',*,*,#466,.F.);
#466 = EDGE_CURVE('',#467,#467,#469,.T.);
#467 = VERTEX_POINT('',#468);
#468 = CARTESIAN_POINT('',(22.,5.,192.1));
#469 = SURFACE_CURVE('',#470,(#475,#486),.PCURVE_S1.);
#470 = CIRCLE('',#471,4.);
#471 = AXIS2_PLACEMENT_3D('',#472,#473,#474);
#472 = CARTESIAN_POINT('',(22.,5.,188.1));
#473 = DIRECTION('',(0.,-1.,0.));
#474 = DIRECTION('',(-0.,-0.,1.));
#475 = PCURVE('',#44,#476);
#476 = DEFINITIONAL_REPRESENTATION('',(#477),#485);
#477 = ( BOUNDED_CURVE() B_SPLINE_CURVE(2,(#478,#479,#480,#481,#482,#483
,#484),.UNSPECIFIED.,.T.,.F.) B_SPLINE_CURVE_WITH_KNOTS((1,2,2,2,2,1),(
    -2.094395102393,0.,2.094395102393,4.188790204786,6.28318530718,
8.377580409573),.UNSPECIFIED.) CURVE() GEOMETRIC_REPRESENTATION_ITEM() 
RATIONAL_B_SPLINE_CURVE((1.,0.5,1.,0.5,1.,0.5,1.)) REPRESENTATION_ITEM(
  '') );
#478 = CARTESIAN_POINT('',(-29.54669355615,-0.114536375433));
#479 = CARTESIAN_POINT('',(-29.54669355615,6.813666854842));
#480 = CARTESIAN_POINT('',(-23.54669355615,3.349565239704));
#481 = CARTESIAN_POINT('',(-17.54669355615,-0.114536375433));
#482 = CARTESIAN_POINT('',(-23.54669355615,-3.578637990571));
#483 = CARTESIAN_POINT('',(-29.54669355615,-7.042739605709));
#484 = CARTESIAN_POINT('',(-29.54669355615,-0.114536375433));
#485 = ( GEOMETRIC_REPRESENTATION_CONTEXT(2) 
PARAMETRIC_REPRESENTATION_CONTEXT() REPRESENTATION_CONTEXT('2D SPACE',''
  ) );
#486 = PCURVE('',#487,#492);
#487 = CYLINDRICAL_SURFACE('',#488,4.);
#488 = AXIS2_PLACEMENT_3D('',#489,#490,#491);
#489 = CARTESIAN_POINT('',(22.,-6.,188.1));
#490 = DIRECTION('',(-0.,1.,-0.));
#491 = DIRECTION('',(-0.,-0.,1.));
#492 = DEFINITIONAL_REPRESENTATION('',(#493),#497);
#493 = LINE('',#494,#495);
#494 = CARTESIAN_POINT('',(-0.,11.));
#495 = VECTOR('',#496,1.);
#496 = DIRECTION('',(-1.,0.));
#497 = ( GEOMETRIC_REPRESENTATION_CONTEXT(2) 
PARAMETRIC_REPRESENTATION_CONTEXT() REPRESENTATION_CONTEXT('2D SPACE',''
  ) );
#498 = ADVANCED_FACE('',(#499),#198,.T.);
#499 = FACE_BOUND('',#500,.F.);
#500 = EDGE_LOOP('',(#501,#524,#525,#526));
#501 = ORIENTED_EDGE('',*,*,#502,.T.);
#502 = EDGE_CURVE('',#503,#238,#505,.T.);
#503 = VERTEX_POINT('',#504);
#504 = CARTESIAN_POINT('',(29.933043667888,-5.,187.06713110058));
#505 = SURFACE_CURVE('',#506,(#510,#517),.PCURVE_S1.);
#506 = LINE('',#507,#508);
#507 = CARTESIAN_POINT('',(29.933043667888,-5.,187.06713110058));
#508 = VECTOR('',#509,1.);
#509 = DIRECTION('',(-0.,1.,-0.));
#510 = PCURVE('',#198,#511);
#511 = DEFINITIONAL_REPRESENTATION('',(#512),#516);
#512 = LINE('',#513,#514);
#513 = CARTESIAN_POINT('',(-4.582918964458,0.));
#514 = VECTOR('',#515,1.);
#515 = DIRECTION('',(-0.,1.));
#516 = ( GEOMETRIC_REPRESENTATION_CONTEXT(2) 
PARAMETRIC_REPRESENTATION_CONTEXT() REPRESENTATION_CONTEXT('2D SPACE',''
  ) );
#517 = PCURVE('',#281,#518);
#518 = DEFINITIONAL_REPRESENTATION('',(#519),#523);
#519 = LINE('',#520,#521);
#520 = CARTESIAN_POINT('',(-0.485707816181,-10.));
#521 = VECTOR('',#522,1.);
#522 = DIRECTION('',(-0.,1.));
#523 = ( GEOMETRIC_REPRESENTATION_CONTEXT(2) 
PARAMETRIC_REPRESENTATION_CONTEXT() REPRESENTATION_CONTEXT('2D SPACE',''
  ) );
#524 = ORIENTED_EDGE('',*,*,#237,.F.);
#525 = ORIENTED_EDGE('',*,*,#184,.F.);
#526 = ORIENTED_EDGE('',*,*,#527,.T.);
#527 = EDGE_CURVE('',#157,#503,#528,.T.);
#528 = SURFACE_CURVE('',#529,(#534,#541),.PCURVE_S1.);
#529 = CIRCLE('',#530,8.);
#530 = AXIS2_PLACEMENT_3D('',#531,#532,#533);
#531 = CARTESIAN_POINT('',(22.,-5.,188.1));
#532 = DIRECTION('',(0.,-1.,0.));
#533 = DIRECTION('',(-0.,-0.,1.));
#534 = PCURVE('',#198,#535);
#535 = DEFINITIONAL_REPRESENTATION('',(#536),#540);
#536 = LINE('',#537,#538);
#537 = CARTESIAN_POINT('',(-0.,0.));
#538 = VECTOR('',#539,1.);
#539 = DIRECTION('',(-1.,0.));
#540 = ( GEOMETRIC_REPRESENTATION_CONTEXT(2) 
PARAMETRIC_REPRESENTATION_CONTEXT() REPRESENTATION_CONTEXT('2D SPACE',''
  ) );
#541 = PCURVE('',#172,#542);
#542 = DEFINITIONAL_REPRESENTATION('',(#543),#551);
#543 = ( BOUNDED_CURVE() B_SPLINE_CURVE(2,(#544,#545,#546,#547,#548,#549
,#550),.UNSPECIFIED.,.T.,.F.) B_SPLINE_CURVE_WITH_KNOTS((1,2,2,2,2,1),(
    -2.094395102393,0.,2.094395102393,4.188790204786,6.28318530718,
8.377580409573),.UNSPECIFIED.) CURVE() GEOMETRIC_REPRESENTATION_ITEM() 
RATIONAL_B_SPLINE_CURVE((1.,0.5,1.,0.5,1.,0.5,1.)) REPRESENTATION_ITEM(
  '') );
#544 = CARTESIAN_POINT('',(-33.54669355615,-0.114536375433));
#545 = CARTESIAN_POINT('',(-33.54669355615,13.741870085118));
#546 = CARTESIAN_POINT('',(-21.54669355615,6.813666854842));
#547 = CARTESIAN_POINT('',(-9.546693556151,-0.114536375433));
#548 = CARTESIAN_POINT('',(-21.54669355615,-7.042739605709));
#549 = CARTESIAN_POINT('',(-33.54669355615,-13.97094283598));
#550 = CARTESIAN_POINT('',(-33.54669355615,-0.114536375433));
#551 = ( GEOMETRIC_REPRESENTATION_CONTEXT(2) 
PARAMETRIC_REPRESENTATION_CONTEXT() REPRESENTATION_CONTEXT('2D SPACE',''
  ) );
#552 = ADVANCED_FACE('',(#553,#744),#172,.F.);
#553 = FACE_BOUND('',#554,.T.);
#554 = EDGE_LOOP('',(#555,#578,#579,#580,#603,#626,#649,#672,#700,#723)
  );
#555 = ORIENTED_EDGE('',*,*,#556,.T.);
#556 = EDGE_CURVE('',#557,#129,#559,.T.);
#557 = VERTEX_POINT('',#558);
#558 = CARTESIAN_POINT('',(19.3,-5.,133.3));
#559 = SURFACE_CURVE('',#560,(#564,#571),.PCURVE_S1.);
#560 = LINE('',#561,#562);
#561 = CARTESIAN_POINT('',(19.3,-5.,133.3));
#562 = VECTOR('',#563,1.);
#563 = DIRECTION('',(0.999806305903,-0.,1.968122649416E-02));
#564 = PCURVE('',#172,#565);
#565 = DEFINITIONAL_REPRESENTATION('',(#566),#570);
#566 = LINE('',#567,#568);
#567 = CARTESIAN_POINT('',(29.253306443849,2.585463624567));
#568 = VECTOR('',#569,1.);
#569 = DIRECTION('',(-1.968122649416E-02,-0.999806305903));
#570 = ( GEOMETRIC_REPRESENTATION_CONTEXT(2) 
PARAMETRIC_REPRESENTATION_CONTEXT() REPRESENTATION_CONTEXT('2D SPACE',''
  ) );
#571 = PCURVE('',#144,#572);
#572 = DEFINITIONAL_REPRESENTATION('',(#573),#577);
#573 = LINE('',#574,#575);
#574 = CARTESIAN_POINT('',(-0.,-10.));
#575 = VECTOR('',#576,1.);
#576 = DIRECTION('',(-1.,0.));
#577 = ( GEOMETRIC_REPRESENTATION_CONTEXT(2) 
PARAMETRIC_REPRESENTATION_CONTEXT() REPRESENTATION_CONTEXT('2D SPACE',''
  ) );
#578 = ORIENTED_EDGE('',*,*,#156,.T.);
#579 = ORIENTED_EDGE('',*,*,#527,.T.);
#580 = ORIENTED_EDGE('',*,*,#581,.T.);
#581 = EDGE_CURVE('',#503,#582,#584,.T.);
#582 = VERTEX_POINT('',#583);
#583 = CARTESIAN_POINT('',(45.55,-5.,241.9));
#584 = SURFACE_CURVE('',#585,(#589,#596),.PCURVE_S1.);
#585 = LINE('',#586,#587);
#586 = CARTESIAN_POINT('',(29.8,-5.,186.6));
#587 = VECTOR('',#588,1.);
#588 = DIRECTION('',(0.273917082361,-0.,0.961753311401));
#589 = PCURVE('',#172,#590);
#590 = DEFINITIONAL_REPRESENTATION('',(#591),#595);
#591 = LINE('',#592,#593);
#592 = CARTESIAN_POINT('',(-24.04669355615,-7.914536375433));
#593 = VECTOR('',#594,1.);
#594 = DIRECTION('',(-0.961753311401,-0.273917082361));
#595 = ( GEOMETRIC_REPRESENTATION_CONTEXT(2) 
PARAMETRIC_REPRESENTATION_CONTEXT() REPRESENTATION_CONTEXT('2D SPACE',''
  ) );
#596 = PCURVE('',#281,#597);
#597 = DEFINITIONAL_REPRESENTATION('',(#598),#602);
#598 = LINE('',#599,#600);
#599 = CARTESIAN_POINT('',(-0.,-10.));
#600 = VECTOR('',#601,1.);
#601 = DIRECTION('',(-1.,0.));
#602 = ( GEOMETRIC_REPRESENTATION_CONTEXT(2) 
PARAMETRIC_REPRESENTATION_CONTEXT() REPRESENTATION_CONTEXT('2D SPACE',''
  ) );
#603 = ORIENTED_EDGE('',*,*,#604,.T.);
#604 = EDGE_CURVE('',#582,#605,#607,.T.);
#605 = VERTEX_POINT('',#606);
#606 = CARTESIAN_POINT('',(41.74,-5.,244.3));
#607 = SURFACE_CURVE('',#608,(#612,#619),.PCURVE_S1.);
#608 = LINE('',#609,#610);
#609 = CARTESIAN_POINT('',(45.55,-5.,241.9));
#610 = VECTOR('',#611,1.);
#611 = DIRECTION('',(-0.846121563913,-0.,0.53298996152));
#612 = PCURVE('',#172,#613);
#613 = DEFINITIONAL_REPRESENTATION('',(#614),#618);
#614 = LINE('',#615,#616);
#615 = CARTESIAN_POINT('',(-79.34669355615,-23.66453637543));
#616 = VECTOR('',#617,1.);
#617 = DIRECTION('',(-0.53298996152,0.846121563913));
#618 = ( GEOMETRIC_REPRESENTATION_CONTEXT(2) 
PARAMETRIC_REPRESENTATION_CONTEXT() REPRESENTATION_CONTEXT('2D SPACE',''
  ) );
#619 = PCURVE('',#309,#620);
#620 = DEFINITIONAL_REPRESENTATION('',(#621),#625);
#621 = LINE('',#622,#623);
#622 = CARTESIAN_POINT('',(-0.,-10.));
#623 = VECTOR('',#624,1.);
#624 = DIRECTION('',(-1.,0.));
#625 = ( GEOMETRIC_REPRESENTATION_CONTEXT(2) 
PARAMETRIC_REPRESENTATION_CONTEXT() REPRESENTATION_CONTEXT('2D SPACE',''
  ) );
#626 = ORIENTED_EDGE('',*,*,#627,.T.);
#627 = EDGE_CURVE('',#605,#628,#630,.T.);
#628 = VERTEX_POINT('',#629);
#629 = CARTESIAN_POINT('',(14.82,-5.,191.7));
#630 = SURFACE_CURVE('',#631,(#635,#642),.PCURVE_S1.);
#631 = LINE('',#632,#633);
#632 = CARTESIAN_POINT('',(41.74,-5.,244.3));
#633 = VECTOR('',#634,1.);
#634 = DIRECTION('',(-0.455588093909,-0.,-0.890190703551));
#635 = PCURVE('',#172,#636);
#636 = DEFINITIONAL_REPRESENTATION('',(#637),#641);
#637 = LINE('',#638,#639);
#638 = CARTESIAN_POINT('',(-81.74669355615,-19.85453637543));
#639 = VECTOR('',#640,1.);
#640 = DIRECTION('',(0.890190703551,0.455588093909));
#641 = ( GEOMETRIC_REPRESENTATION_CONTEXT(2) 
PARAMETRIC_REPRESENTATION_CONTEXT() REPRESENTATION_CONTEXT('2D SPACE',''
  ) );
#642 = PCURVE('',#337,#643);
#643 = DEFINITIONAL_REPRESENTATION('',(#644),#648);
#644 = LINE('',#645,#646);
#645 = CARTESIAN_POINT('',(-0.,-10.));
#646 = VECTOR('',#647,1.);
#647 = DIRECTION('',(-1.,0.));
#648 = ( GEOMETRIC_REPRESENTATION_CONTEXT(2) 
PARAMETRIC_REPRESENTATION_CONTEXT() REPRESENTATION_CONTEXT('2D SPACE',''
  ) );
#649 = ORIENTED_EDGE('',*,*,#650,.T.);
#650 = EDGE_CURVE('',#628,#651,#653,.T.);
#651 = VERTEX_POINT('',#652);
#652 = CARTESIAN_POINT('',(14.850541473036,-5.,191.68960203521));
#653 = SURFACE_CURVE('',#654,(#658,#665),.PCURVE_S1.);
#654 = LINE('',#655,#656);
#655 = CARTESIAN_POINT('',(14.82,-5.,191.7));
#656 = VECTOR('',#657,1.);
#657 = DIRECTION('',(0.946641702098,0.,-0.322287895908));
#658 = PCURVE('',#172,#659);
#659 = DEFINITIONAL_REPRESENTATION('',(#660),#664);
#660 = LINE('',#661,#662);
#661 = CARTESIAN_POINT('',(-29.14669355615,7.065463624567));
#662 = VECTOR('',#663,1.);
#663 = DIRECTION('',(0.322287895908,-0.946641702098));
#664 = ( GEOMETRIC_REPRESENTATION_CONTEXT(2) 
PARAMETRIC_REPRESENTATION_CONTEXT() REPRESENTATION_CONTEXT('2D SPACE',''
  ) );
#665 = PCURVE('',#365,#666);
#666 = DEFINITIONAL_REPRESENTATION('',(#667),#671);
#667 = LINE('',#668,#669);
#668 = CARTESIAN_POINT('',(-0.,-10.));
#669 = VECTOR('',#670,1.);
#670 = DIRECTION('',(-1.,0.));
#671 = ( GEOMETRIC_REPRESENTATION_CONTEXT(2) 
PARAMETRIC_REPRESENTATION_CONTEXT() REPRESENTATION_CONTEXT('2D SPACE',''
  ) );
#672 = ORIENTED_EDGE('',*,*,#673,.T.);
#673 = EDGE_CURVE('',#651,#674,#676,.T.);
#674 = VERTEX_POINT('',#675);
#675 = CARTESIAN_POINT('',(14.046359324184,-5.,187.24));
#676 = SURFACE_CURVE('',#677,(#682,#693),.PCURVE_S1.);
#677 = CIRCLE('',#678,8.);
#678 = AXIS2_PLACEMENT_3D('',#679,#680,#681);
#679 = CARTESIAN_POINT('',(22.,-5.,188.1));
#680 = DIRECTION('',(0.,-1.,0.));
#681 = DIRECTION('',(-0.,-0.,1.));
#682 = PCURVE('',#172,#683);
#683 = DEFINITIONAL_REPRESENTATION('',(#684),#692);
#684 = ( BOUNDED_CURVE() B_SPLINE_CURVE(2,(#685,#686,#687,#688,#689,#690
,#691),.UNSPECIFIED.,.T.,.F.) B_SPLINE_CURVE_WITH_KNOTS((1,2,2,2,2,1),(
    -2.094395102393,0.,2.094395102393,4.188790204786,6.28318530718,
8.377580409573),.UNSPECIFIED.) CURVE() GEOMETRIC_REPRESENTATION_ITEM() 
RATIONAL_B_SPLINE_CURVE((1.,0.5,1.,0.5,1.,0.5,1.)) REPRESENTATION_ITEM(
  '') );
#685 = CARTESIAN_POINT('',(-33.54669355615,-0.114536375433));
#686 = CARTESIAN_POINT('',(-33.54669355615,13.741870085118));
#687 = CARTESIAN_POINT('',(-21.54669355615,6.813666854842));
#688 = CARTESIAN_POINT('',(-9.546693556151,-0.114536375433));
#689 = CARTESIAN_POINT('',(-21.54669355615,-7.042739605709));
#690 = CARTESIAN_POINT('',(-33.54669355615,-13.97094283598));
#691 = CARTESIAN_POINT('',(-33.54669355615,-0.114536375433));
#692 = ( GEOMETRIC_REPRESENTATION_CONTEXT(2) 
PARAMETRIC_REPRESENTATION_CONTEXT() REPRESENTATION_CONTEXT('2D SPACE',''
  ) );
#693 = PCURVE('',#398,#694);
#694 = DEFINITIONAL_REPRESENTATION('',(#695),#699);
#695 = LINE('',#696,#697);
#696 = CARTESIAN_POINT('',(-0.,0.));
#697 = VECTOR('',#698,1.);
#698 = DIRECTION('',(-1.,0.));
#699 = ( GEOMETRIC_REPRESENTATION_CONTEXT(2) 
PARAMETRIC_REPRESENTATION_CONTEXT() REPRESENTATION_CONTEXT('2D SPACE',''
  ) );
#700 = ORIENTED_EDGE('',*,*,#701,.T.);
#701 = EDGE_CURVE('',#674,#702,#704,.T.);
#702 = VERTEX_POINT('',#703);
#703 = CARTESIAN_POINT('',(13.97,-5.,187.24));
#704 = SURFACE_CURVE('',#705,(#709,#716),.PCURVE_S1.);
#705 = LINE('',#706,#707);
#706 = CARTESIAN_POINT('',(29.89,-5.,187.24));
#707 = VECTOR('',#708,1.);
#708 = DIRECTION('',(-1.,-0.,-0.));
#709 = PCURVE('',#172,#710);
#710 = DEFINITIONAL_REPRESENTATION('',(#711),#715);
#711 = LINE('',#712,#713);
#712 = CARTESIAN_POINT('',(-24.68669355615,-8.004536375433));
#713 = VECTOR('',#714,1.);
#714 = DIRECTION('',(-0.,1.));
#715 = ( GEOMETRIC_REPRESENTATION_CONTEXT(2) 
PARAMETRIC_REPRESENTATION_CONTEXT() REPRESENTATION_CONTEXT('2D SPACE',''
  ) );
#716 = PCURVE('',#426,#717);
#717 = DEFINITIONAL_REPRESENTATION('',(#718),#722);
#718 = LINE('',#719,#720);
#719 = CARTESIAN_POINT('',(-0.,-10.));
#720 = VECTOR('',#721,1.);
#721 = DIRECTION('',(-1.,0.));
#722 = ( GEOMETRIC_REPRESENTATION_CONTEXT(2) 
PARAMETRIC_REPRESENTATION_CONTEXT() REPRESENTATION_CONTEXT('2D SPACE',''
  ) );
#723 = ORIENTED_EDGE('',*,*,#724,.T.);
#724 = EDGE_CURVE('',#702,#557,#725,.T.);
#725 = SURFACE_CURVE('',#726,(#730,#737),.PCURVE_S1.);
#726 = LINE('',#727,#728);
#727 = CARTESIAN_POINT('',(13.97,-5.,187.24));
#728 = VECTOR('',#729,1.);
#729 = DIRECTION('',(9.833458794287E-02,0.,-0.995153409688));
#730 = PCURVE('',#172,#731);
#731 = DEFINITIONAL_REPRESENTATION('',(#732),#736);
#732 = LINE('',#733,#734);
#733 = CARTESIAN_POINT('',(-24.68669355615,7.915463624567));
#734 = VECTOR('',#735,1.);
#735 = DIRECTION('',(0.995153409688,-9.833458794287E-02));
#736 = ( GEOMETRIC_REPRESENTATION_CONTEXT(2) 
PARAMETRIC_REPRESENTATION_CONTEXT() REPRESENTATION_CONTEXT('2D SPACE',''
  ) );
#737 = PCURVE('',#452,#738);
#738 = DEFINITIONAL_REPRESENTATION('',(#739),#743);
#739 = LINE('',#740,#741);
#740 = CARTESIAN_POINT('',(-0.,-10.));
#741 = VECTOR('',#742,1.);
#742 = DIRECTION('',(-1.,0.));
#743 = ( GEOMETRIC_REPRESENTATION_CONTEXT(2) 
PARAMETRIC_REPRESENTATION_CONTEXT() REPRESENTATION_CONTEXT('2D SPACE',''
  ) );
#744 = FACE_BOUND('',#745,.T.);
#745 = EDGE_LOOP('',(#746));
#746 = ORIENTED_EDGE('',*,*,#747,.F.);
#747 = EDGE_CURVE('',#748,#748,#750,.T.);
#748 = VERTEX_POINT('',#749);
#749 = CARTESIAN_POINT('',(22.,-5.,192.1));
#750 = SURFACE_CURVE('',#751,(#756,#767),.PCURVE_S1.);
#751 = CIRCLE('',#752,4.);
#752 = AXIS2_PLACEMENT_3D('',#753,#754,#755);
#753 = CARTESIAN_POINT('',(22.,-5.,188.1));
#754 = DIRECTION('',(0.,-1.,0.));
#755 = DIRECTION('',(-0.,-0.,1.));
#756 = PCURVE('',#172,#757);
#757 = DEFINITIONAL_REPRESENTATION('',(#758),#766);
#758 = ( BOUNDED_CURVE() B_SPLINE_CURVE(2,(#759,#760,#761,#762,#763,#764
,#765),.UNSPECIFIED.,.T.,.F.) B_SPLINE_CURVE_WITH_KNOTS((1,2,2,2,2,1),(
    -2.094395102393,0.,2.094395102393,4.188790204786,6.28318530718,
8.377580409573),.UNSPECIFIED.) CURVE() GEOMETRIC_REPRESENTATION_ITEM() 
RATIONAL_B_SPLINE_CURVE((1.,0.5,1.,0.5,1.,0.5,1.)) REPRESENTATION_ITEM(
  '') );
#759 = CARTESIAN_POINT('',(-29.54669355615,-0.114536375433));
#760 = CARTESIAN_POINT('',(-29.54669355615,6.813666854842));
#761 = CARTESIAN_POINT('',(-23.54669355615,3.349565239704));
#762 = CARTESIAN_POINT('',(-17.54669355615,-0.114536375433));
#763 = CARTESIAN_POINT('',(-23.54669355615,-3.578637990571));
#764 = CARTESIAN_POINT('',(-29.54669355615,-7.042739605709));
#765 = CARTESIAN_POINT('',(-29.54669355615,-0.114536375433));
#766 = ( GEOMETRIC_REPRESENTATION_CONTEXT(2) 
PARAMETRIC_REPRESENTATION_CONTEXT() REPRESENTATION_CONTEXT('2D SPACE',''
  ) );
#767 = PCURVE('',#487,#768);
#768 = DEFINITIONAL_REPRESENTATION('',(#769),#773);
#769 = LINE('',#770,#771);
#770 = CARTESIAN_POINT('',(-0.,1.));
#771 = VECTOR('',#772,1.);
#772 = DIRECTION('',(-1.,0.));
#773 = ( GEOMETRIC_REPRESENTATION_CONTEXT(2) 
PARAMETRIC_REPRESENTATION_CONTEXT() REPRESENTATION_CONTEXT('2D SPACE',''
  ) );
#774 = ADVANCED_FACE('',(#775),#144,.T.);
#775 = FACE_BOUND('',#776,.F.);
#776 = EDGE_LOOP('',(#777,#816,#837,#838));
#777 = ORIENTED_EDGE('',*,*,#778,.F.);
#778 = EDGE_CURVE('',#779,#85,#781,.T.);
#779 = VERTEX_POINT('',#780);
#780 = CARTESIAN_POINT('',(19.3,-0.787400787398,133.3));
#781 = SURFACE_CURVE('',#782,(#787,#798),.PCURVE_S1.);
#782 = CIRCLE('',#783,2.711989914284);
#783 = AXIS2_PLACEMENT_3D('',#784,#785,#786);
#784 = CARTESIAN_POINT('',(21.894663857083,0.,133.35107606017));
#785 = DIRECTION('',(-1.968122649416E-02,0.,0.999806305903));
#786 = DIRECTION('',(-0.999806305903,-0.,-1.968122649416E-02));
#787 = PCURVE('',#144,#788);
#788 = DEFINITIONAL_REPRESENTATION('',(#789),#797);
#789 = ( BOUNDED_CURVE() B_SPLINE_CURVE(2,(#790,#791,#792,#793,#794,#795
,#796),.UNSPECIFIED.,.T.,.F.) B_SPLINE_CURVE_WITH_KNOTS((1,2,2,2,2,1),(
    -2.094395102393,0.,2.094395102393,4.188790204786,6.28318530718,
8.377580409573),.UNSPECIFIED.) CURVE() GEOMETRIC_REPRESENTATION_ITEM() 
RATIONAL_B_SPLINE_CURVE((1.,0.5,1.,0.5,1.,0.5,1.)) REPRESENTATION_ITEM(
  '') );
#790 = CARTESIAN_POINT('',(0.116823388764,-5.));
#791 = CARTESIAN_POINT('',(0.116823388764,-9.697304321154));
#792 = CARTESIAN_POINT('',(-3.951161482661,-7.348652160577));
#793 = CARTESIAN_POINT('',(-8.019146354087,-5.));
#794 = CARTESIAN_POINT('',(-3.951161482661,-2.651347839423));
#795 = CARTESIAN_POINT('',(0.116823388764,-0.302695678846));
#796 = CARTESIAN_POINT('',(0.116823388764,-5.));
#797 = ( GEOMETRIC_REPRESENTATION_CONTEXT(2) 
PARAMETRIC_REPRESENTATION_CONTEXT() REPRESENTATION_CONTEXT('2D SPACE',''
  ) );
#798 = PCURVE('',#105,#799);
#799 = DEFINITIONAL_REPRESENTATION('',(#800),#815);
#800 = B_SPLINE_CURVE_WITH_KNOTS('',7,(#801,#802,#803,#804,#805,#806,
    #807,#808,#809,#810,#811,#812,#813,#814),.UNSPECIFIED.,.F.,.F.,(8,6,
    8),(0.294582754178,1.512438922504,2.730295090829),.UNSPECIFIED.);
#801 = CARTESIAN_POINT('',(-5.999425062874,1.082926420378));
#802 = CARTESIAN_POINT('',(-5.83167390907,1.083885065181));
#803 = CARTESIAN_POINT('',(-5.663585900239,1.085487058415));
#804 = CARTESIAN_POINT('',(-5.494886878817,1.08768981518));
#805 = CARTESIAN_POINT('',(-5.325315488782,1.090407832607));
#806 = CARTESIAN_POINT('',(-5.154642234818,1.093515178005));
#807 = CARTESIAN_POINT('',(-4.982696716304,1.096856160919));
#808 = CARTESIAN_POINT('',(-4.636109355906,1.103672217244));
#809 = CARTESIAN_POINT('',(-4.461467415706,1.107147308099));
#810 = CARTESIAN_POINT('',(-4.285401091315,1.110522861466));
#811 = CARTESIAN_POINT('',(-4.107925936119,1.113621848279));
#812 = CARTESIAN_POINT('',(-3.929181955353,1.116274671382));
#813 = CARTESIAN_POINT('',(-3.749446454927,1.118349961197));
#814 = CARTESIAN_POINT('',(-3.569066942905,1.119769514999));
#815 = ( GEOMETRIC_REPRESENTATION_CONTEXT(2) 
PARAMETRIC_REPRESENTATION_CONTEXT() REPRESENTATION_CONTEXT('2D SPACE',''
  ) );
#816 = ORIENTED_EDGE('',*,*,#817,.T.);
#817 = EDGE_CURVE('',#779,#557,#818,.T.);
#818 = SURFACE_CURVE('',#819,(#823,#830),.PCURVE_S1.);
#819 = LINE('',#820,#821);
#820 = CARTESIAN_POINT('',(19.3,5.,133.3));
#821 = VECTOR('',#822,1.);
#822 = DIRECTION('',(-0.,-1.,-0.));
#823 = PCURVE('',#144,#824);
#824 = DEFINITIONAL_REPRESENTATION('',(#825),#829);
#825 = LINE('',#826,#827);
#826 = CARTESIAN_POINT('',(-0.,0.));
#827 = VECTOR('',#828,1.);
#828 = DIRECTION('',(-0.,-1.));
#829 = ( GEOMETRIC_REPRESENTATION_CONTEXT(2) 
PARAMETRIC_REPRESENTATION_CONTEXT() REPRESENTATION_CONTEXT('2D SPACE',''
  ) );
#830 = PCURVE('',#452,#831);
#831 = DEFINITIONAL_REPRESENTATION('',(#832),#836);
#832 = LINE('',#833,#834);
#833 = CARTESIAN_POINT('',(-54.20269827231,0.));
#834 = VECTOR('',#835,1.);
#835 = DIRECTION('',(-0.,-1.));
#836 = ( GEOMETRIC_REPRESENTATION_CONTEXT(2) 
PARAMETRIC_REPRESENTATION_CONTEXT() REPRESENTATION_CONTEXT('2D SPACE',''
  ) );
#837 = ORIENTED_EDGE('',*,*,#556,.T.);
#838 = ORIENTED_EDGE('',*,*,#128,.F.);
#839 = ADVANCED_FACE('',(#840),#105,.T.);
#840 = FACE_BOUND('',#841,.F.);
#841 = EDGE_LOOP('',(#842,#876,#900,#901,#931,#932,#933));
#842 = ORIENTED_EDGE('',*,*,#843,.T.);
#843 = EDGE_CURVE('',#844,#846,#848,.T.);
#844 = VERTEX_POINT('',#845);
#845 = CARTESIAN_POINT('',(19.3,0.787400787398,133.3));
#846 = VERTEX_POINT('',#847);
#847 = CARTESIAN_POINT('',(19.294524855122,-6.626502952695E-16,
    133.35540887705));
#848 = SURFACE_CURVE('',#849,(#854,#865),.PCURVE_S1.);
#849 = CIRCLE('',#850,5.595495187838);
#850 = AXIS2_PLACEMENT_3D('',#851,#852,#853);
#851 = CARTESIAN_POINT('',(19.844755568755,0.,127.78703276198));
#852 = DIRECTION('',(0.995153409688,-0.,9.833458794287E-02));
#853 = DIRECTION('',(-9.833458794287E-02,-0.,0.995153409688));
#854 = PCURVE('',#105,#855);
#855 = DEFINITIONAL_REPRESENTATION('',(#856),#864);
#856 = B_SPLINE_CURVE_WITH_KNOTS('',6,(#857,#858,#859,#860,#861,#862,
    #863),.UNSPECIFIED.,.F.,.F.,(7,7),(6.141996205368,6.28318530718),
  .PIECEWISE_BEZIER_KNOTS.);
#857 = CARTESIAN_POINT('',(-0.283760244306,1.082926420378));
#858 = CARTESIAN_POINT('',(-0.239081682237,1.089482550482));
#859 = CARTESIAN_POINT('',(-0.19293583943,1.09483335866));
#860 = CARTESIAN_POINT('',(-0.145570990331,1.098905953625));
#861 = CARTESIAN_POINT('',(-9.73362251134E-02,1.101641289323));
#862 = CARTESIAN_POINT('',(-4.866815731399E-02,1.103008893491));
#863 = CARTESIAN_POINT('',(-5.065657531102E-16,1.103008893491));
#864 = ( GEOMETRIC_REPRESENTATION_CONTEXT(2) 
PARAMETRIC_REPRESENTATION_CONTEXT() REPRESENTATION_CONTEXT('2D SPACE',''
  ) );
#865 = PCURVE('',#452,#866);
#866 = DEFINITIONAL_REPRESENTATION('',(#867),#875);
#867 = ( BOUNDED_CURVE() B_SPLINE_CURVE(2,(#868,#869,#870,#871,#872,#873
,#874),.UNSPECIFIED.,.T.,.F.) B_SPLINE_CURVE_WITH_KNOTS((1,2,2,2,2,1),(
    -2.094395102393,0.,2.094395102393,4.188790204786,6.28318530718,
8.377580409573),.UNSPECIFIED.) CURVE() GEOMETRIC_REPRESENTATION_ITEM() 
RATIONAL_B_SPLINE_CURVE((1.,0.5,1.,0.5,1.,0.5,1.)) REPRESENTATION_ITEM(
  '') );
#868 = CARTESIAN_POINT('',(-54.14701954327,-5.));
#869 = CARTESIAN_POINT('',(-54.14701954327,-14.69168195884));
#870 = CARTESIAN_POINT('',(-62.54026232503,-9.845840979421));
#871 = CARTESIAN_POINT('',(-70.93350510678,-5.));
#872 = CARTESIAN_POINT('',(-62.54026232503,-0.154159020579));
#873 = CARTESIAN_POINT('',(-54.14701954327,4.691681958843));
#874 = CARTESIAN_POINT('',(-54.14701954327,-5.));
#875 = ( GEOMETRIC_REPRESENTATION_CONTEXT(2) 
PARAMETRIC_REPRESENTATION_CONTEXT() REPRESENTATION_CONTEXT('2D SPACE',''
  ) );
#876 = ORIENTED_EDGE('',*,*,#877,.F.);
#877 = EDGE_CURVE('',#878,#846,#880,.T.);
#878 = VERTEX_POINT('',#879);
#879 = CARTESIAN_POINT('',(22.,0.,122.));
#880 = SEAM_CURVE('',#881,(#886,#893),.PCURVE_S1.);
#881 = CIRCLE('',#882,6.);
#882 = AXIS2_PLACEMENT_3D('',#883,#884,#885);
#883 = CARTESIAN_POINT('',(22.,0.,128.));
#884 = DIRECTION('',(-2.449293598295E-16,1.,0.));
#885 = DIRECTION('',(-1.,-2.449293598295E-16,-0.));
#886 = PCURVE('',#105,#887);
#887 = DEFINITIONAL_REPRESENTATION('',(#888),#892);
#888 = LINE('',#889,#890);
#889 = CARTESIAN_POINT('',(-6.28318530718,-6.28318530718));
#890 = VECTOR('',#891,1.);
#891 = DIRECTION('',(-0.,1.));
#892 = ( GEOMETRIC_REPRESENTATION_CONTEXT(2) 
PARAMETRIC_REPRESENTATION_CONTEXT() REPRESENTATION_CONTEXT('2D SPACE',''
  ) );
#893 = PCURVE('',#105,#894);
#894 = DEFINITIONAL_REPRESENTATION('',(#895),#899);
#895 = LINE('',#896,#897);
#896 = CARTESIAN_POINT('',(-0.,-6.28318530718));
#897 = VECTOR('',#898,1.);
#898 = DIRECTION('',(-0.,1.));
#899 = ( GEOMETRIC_REPRESENTATION_CONTEXT(2) 
PARAMETRIC_REPRESENTATION_CONTEXT() REPRESENTATION_CONTEXT('2D SPACE',''
  ) );
#900 = ORIENTED_EDGE('',*,*,#877,.T.);
#901 = ORIENTED_EDGE('',*,*,#902,.T.);
#902 = EDGE_CURVE('',#846,#779,#903,.T.);
#903 = SURFACE_CURVE('',#904,(#909,#920),.PCURVE_S1.);
#904 = CIRCLE('',#905,5.595495187838);
#905 = AXIS2_PLACEMENT_3D('',#906,#907,#908);
#906 = CARTESIAN_POINT('',(19.844755568755,0.,127.78703276198));
#907 = DIRECTION('',(0.995153409688,-0.,9.833458794287E-02));
#908 = DIRECTION('',(-9.833458794287E-02,-0.,0.995153409688));
#909 = PCURVE('',#105,#910);
#910 = DEFINITIONAL_REPRESENTATION('',(#911),#919);
#911 = B_SPLINE_CURVE_WITH_KNOTS('',6,(#912,#913,#914,#915,#916,#917,
    #918),.UNSPECIFIED.,.F.,.F.,(7,7),(0.,0.141189101811),
  .PIECEWISE_BEZIER_KNOTS.);
#912 = CARTESIAN_POINT('',(-6.28318530718,1.103008893491));
#913 = CARTESIAN_POINT('',(-6.234517149866,1.103008893491));
#914 = CARTESIAN_POINT('',(-6.185849082066,1.101641289323));
#915 = CARTESIAN_POINT('',(-6.137614316849,1.098905953625));
#916 = CARTESIAN_POINT('',(-6.090249467749,1.09483335866));
#917 = CARTESIAN_POINT('',(-6.044103624942,1.089482550482));
#918 = CARTESIAN_POINT('',(-5.999425062874,1.082926420378));
#919 = ( GEOMETRIC_REPRESENTATION_CONTEXT(2) 
PARAMETRIC_REPRESENTATION_CONTEXT() REPRESENTATION_CONTEXT('2D SPACE',''
  ) );
#920 = PCURVE('',#452,#921);
#921 = DEFINITIONAL_REPRESENTATION('',(#922),#930);
#922 = ( BOUNDED_CURVE() B_SPLINE_CURVE(2,(#923,#924,#925,#926,#927,#928
,#929),.UNSPECIFIED.,.T.,.F.) B_SPLINE_CURVE_WITH_KNOTS((1,2,2,2,2,1),(
    -2.094395102393,0.,2.094395102393,4.188790204786,6.28318530718,
8.377580409573),.UNSPECIFIED.) CURVE() GEOMETRIC_REPRESENTATION_ITEM() 
RATIONAL_B_SPLINE_CURVE((1.,0.5,1.,0.5,1.,0.5,1.)) REPRESENTATION_ITEM(
  '') );
#923 = CARTESIAN_POINT('',(-54.14701954327,-5.));
#924 = CARTESIAN_POINT('',(-54.14701954327,-14.69168195884));
#925 = CARTESIAN_POINT('',(-62.54026232503,-9.845840979421));
#926 = CARTESIAN_POINT('',(-70.93350510678,-5.));
#927 = CARTESIAN_POINT('',(-62.54026232503,-0.154159020579));
#928 = CARTESIAN_POINT('',(-54.14701954327,4.691681958843));
#929 = CARTESIAN_POINT('',(-54.14701954327,-5.));
#930 = ( GEOMETRIC_REPRESENTATION_CONTEXT(2) 
PARAMETRIC_REPRESENTATION_CONTEXT() REPRESENTATION_CONTEXT('2D SPACE',''
  ) );
#931 = ORIENTED_EDGE('',*,*,#778,.T.);
#932 = ORIENTED_EDGE('',*,*,#84,.T.);
#933 = ORIENTED_EDGE('',*,*,#934,.T.);
#934 = EDGE_CURVE('',#57,#844,#935,.T.);
#935 = SURFACE_CURVE('',#936,(#941,#959),.PCURVE_S1.);
#936 = CIRCLE('',#937,2.711989914284);
#937 = AXIS2_PLACEMENT_3D('',#938,#939,#940);
#938 = CARTESIAN_POINT('',(21.894663857083,0.,133.35107606017));
#939 = DIRECTION('',(-1.968122649416E-02,0.,0.999806305903));
#940 = DIRECTION('',(-0.999806305903,-0.,-1.968122649416E-02));
#941 = PCURVE('',#105,#942);
#942 = DEFINITIONAL_REPRESENTATION('',(#943),#958);
#943 = B_SPLINE_CURVE_WITH_KNOTS('',7,(#944,#945,#946,#947,#948,#949,
    #950,#951,#952,#953,#954,#955,#956,#957),.UNSPECIFIED.,.F.,.F.,(8,6,
    8),(3.55289021635,4.770746384676,5.988602553001),.UNSPECIFIED.);
#944 = CARTESIAN_POINT('',(-2.714118364274,1.119769514999));
#945 = CARTESIAN_POINT('',(-2.533738852253,1.118349961197));
#946 = CARTESIAN_POINT('',(-2.354003351826,1.116274671382));
#947 = CARTESIAN_POINT('',(-2.175259371062,1.11362184828));
#948 = CARTESIAN_POINT('',(-1.997784215863,1.110522861464));
#949 = CARTESIAN_POINT('',(-1.821717891474,1.1071473081));
#950 = CARTESIAN_POINT('',(-1.647075951273,1.103672217244));
#951 = CARTESIAN_POINT('',(-1.300488590875,1.096856160919));
#952 = CARTESIAN_POINT('',(-1.128543072361,1.093515178005));
#953 = CARTESIAN_POINT('',(-0.957869818397,1.090407832607));
#954 = CARTESIAN_POINT('',(-0.788298428362,1.08768981518));
#955 = CARTESIAN_POINT('',(-0.619599406941,1.085487058415));
#956 = CARTESIAN_POINT('',(-0.45151139811,1.083885065181));
#957 = CARTESIAN_POINT('',(-0.283760244306,1.082926420378));
#958 = ( GEOMETRIC_REPRESENTATION_CONTEXT(2) 
PARAMETRIC_REPRESENTATION_CONTEXT() REPRESENTATION_CONTEXT('2D SPACE',''
  ) );
#959 = PCURVE('',#72,#960);
#960 = DEFINITIONAL_REPRESENTATION('',(#961),#969);
#961 = ( BOUNDED_CURVE() B_SPLINE_CURVE(2,(#962,#963,#964,#965,#966,#967
,#968),.UNSPECIFIED.,.T.,.F.) B_SPLINE_CURVE_WITH_KNOTS((1,2,2,2,2,1),(
    -2.094395102393,0.,2.094395102393,4.188790204786,6.28318530718,
8.377580409573),.UNSPECIFIED.) CURVE() GEOMETRIC_REPRESENTATION_ITEM() 
RATIONAL_B_SPLINE_CURVE((1.,0.5,1.,0.5,1.,0.5,1.)) REPRESENTATION_ITEM(
  '') );
#962 = CARTESIAN_POINT('',(0.116823388764,-5.));
#963 = CARTESIAN_POINT('',(0.116823388764,-9.697304321154));
#964 = CARTESIAN_POINT('',(-3.951161482661,-7.348652160577));
#965 = CARTESIAN_POINT('',(-8.019146354087,-5.));
#966 = CARTESIAN_POINT('',(-3.951161482661,-2.651347839423));
#967 = CARTESIAN_POINT('',(0.116823388764,-0.302695678846));
#968 = CARTESIAN_POINT('',(0.116823388764,-5.));
#969 = ( GEOMETRIC_REPRESENTATION_CONTEXT(2) 
PARAMETRIC_REPRESENTATION_CONTEXT() REPRESENTATION_CONTEXT('2D SPACE',''
  ) );
#970 = ADVANCED_FACE('',(#971),#72,.T.);
#971 = FACE_BOUND('',#972,.F.);
#972 = EDGE_LOOP('',(#973,#974,#995,#996));
#973 = ORIENTED_EDGE('',*,*,#213,.F.);
#974 = ORIENTED_EDGE('',*,*,#975,.T.);
#975 = EDGE_CURVE('',#214,#844,#976,.T.);
#976 = SURFACE_CURVE('',#977,(#981,#988),.PCURVE_S1.);
#977 = LINE('',#978,#979);
#978 = CARTESIAN_POINT('',(19.3,5.,133.3));
#979 = VECTOR('',#980,1.);
#980 = DIRECTION('',(-0.,-1.,-0.));
#981 = PCURVE('',#72,#982);
#982 = DEFINITIONAL_REPRESENTATION('',(#983),#987);
#983 = LINE('',#984,#985);
#984 = CARTESIAN_POINT('',(-0.,0.));
#985 = VECTOR('',#986,1.);
#986 = DIRECTION('',(-0.,-1.));
#987 = ( GEOMETRIC_REPRESENTATION_CONTEXT(2) 
PARAMETRIC_REPRESENTATION_CONTEXT() REPRESENTATION_CONTEXT('2D SPACE',''
  ) );
#988 = PCURVE('',#452,#989);
#989 = DEFINITIONAL_REPRESENTATION('',(#990),#994);
#990 = LINE('',#991,#992);
#991 = CARTESIAN_POINT('',(-54.20269827231,0.));
#992 = VECTOR('',#993,1.);
#993 = DIRECTION('',(-0.,-1.));
#994 = ( GEOMETRIC_REPRESENTATION_CONTEXT(2) 
PARAMETRIC_REPRESENTATION_CONTEXT() REPRESENTATION_CONTEXT('2D SPACE',''
  ) );
#995 = ORIENTED_EDGE('',*,*,#934,.F.);
#996 = ORIENTED_EDGE('',*,*,#56,.F.);
#997 = ADVANCED_FACE('',(#998),#452,.T.);
#998 = FACE_BOUND('',#999,.F.);
#999 = EDGE_LOOP('',(#1000,#1001,#1022,#1023,#1024,#1025,#1026));
#1000 = ORIENTED_EDGE('',*,*,#438,.F.);
#1001 = ORIENTED_EDGE('',*,*,#1002,.T.);
#1002 = EDGE_CURVE('',#411,#702,#1003,.T.);
#1003 = SURFACE_CURVE('',#1004,(#1008,#1015),.PCURVE_S1.);
#1004 = LINE('',#1005,#1006);
#1005 = CARTESIAN_POINT('',(13.97,5.,187.24));
#1006 = VECTOR('',#1007,1.);
#1007 = DIRECTION('',(-0.,-1.,-0.));
#1008 = PCURVE('',#452,#1009);
#1009 = DEFINITIONAL_REPRESENTATION('',(#1010),#1014);
#1010 = LINE('',#1011,#1012);
#1011 = CARTESIAN_POINT('',(-0.,0.));
#1012 = VECTOR('',#1013,1.);
#1013 = DIRECTION('',(-0.,-1.));
#1014 = ( GEOMETRIC_REPRESENTATION_CONTEXT(2) 
PARAMETRIC_REPRESENTATION_CONTEXT() REPRESENTATION_CONTEXT('2D SPACE',''
  ) );
#1015 = PCURVE('',#426,#1016);
#1016 = DEFINITIONAL_REPRESENTATION('',(#1017),#1021);
#1017 = LINE('',#1018,#1019);
#1018 = CARTESIAN_POINT('',(-15.92,0.));
#1019 = VECTOR('',#1020,1.);
#1020 = DIRECTION('',(-0.,-1.));
#1021 = ( GEOMETRIC_REPRESENTATION_CONTEXT(2) 
PARAMETRIC_REPRESENTATION_CONTEXT() REPRESENTATION_CONTEXT('2D SPACE',''
  ) );
#1022 = ORIENTED_EDGE('',*,*,#724,.T.);
#1023 = ORIENTED_EDGE('',*,*,#817,.F.);
#1024 = ORIENTED_EDGE('',*,*,#902,.F.);
#1025 = ORIENTED_EDGE('',*,*,#843,.F.);
#1026 = ORIENTED_EDGE('',*,*,#975,.F.);
#1027 = ADVANCED_FACE('',(#1028),#426,.T.);
#1028 = FACE_BOUND('',#1029,.F.);
#1029 = EDGE_LOOP('',(#1030,#1031,#1052,#1053));
#1030 = ORIENTED_EDGE('',*,*,#410,.F.);
#1031 = ORIENTED_EDGE('',*,*,#1032,.F.);
#1032 = EDGE_CURVE('',#674,#378,#1033,.T.);
#1033 = SURFACE_CURVE('',#1034,(#1038,#1045),.PCURVE_S1.);
#1034 = LINE('',#1035,#1036);
#1035 = CARTESIAN_POINT('',(14.046359324184,-5.,187.24));
#1036 = VECTOR('',#1037,1.);
#1037 = DIRECTION('',(-0.,1.,-0.));
#1038 = PCURVE('',#426,#1039);
#1039 = DEFINITIONAL_REPRESENTATION('',(#1040),#1044);
#1040 = LINE('',#1041,#1042);
#1041 = CARTESIAN_POINT('',(-15.84364067581,-10.));
#1042 = VECTOR('',#1043,1.);
#1043 = DIRECTION('',(-0.,1.));
#1044 = ( GEOMETRIC_REPRESENTATION_CONTEXT(2) 
PARAMETRIC_REPRESENTATION_CONTEXT() REPRESENTATION_CONTEXT('2D SPACE',''
  ) );
#1045 = PCURVE('',#398,#1046);
#1046 = DEFINITIONAL_REPRESENTATION('',(#1047),#1051);
#1047 = LINE('',#1048,#1049);
#1048 = CARTESIAN_POINT('',(-1.678504460461,0.));
#1049 = VECTOR('',#1050,1.);
#1050 = DIRECTION('',(-0.,1.));
#1051 = ( GEOMETRIC_REPRESENTATION_CONTEXT(2) 
PARAMETRIC_REPRESENTATION_CONTEXT() REPRESENTATION_CONTEXT('2D SPACE',''
  ) );
#1052 = ORIENTED_EDGE('',*,*,#701,.T.);
#1053 = ORIENTED_EDGE('',*,*,#1002,.F.);
#1054 = ADVANCED_FACE('',(#1055),#398,.T.);
#1055 = FACE_BOUND('',#1056,.F.);
#1056 = EDGE_LOOP('',(#1057,#1058,#1079,#1080));
#1057 = ORIENTED_EDGE('',*,*,#377,.F.);
#1058 = ORIENTED_EDGE('',*,*,#1059,.F.);
#1059 = EDGE_CURVE('',#651,#350,#1060,.T.);
#1060 = SURFACE_CURVE('',#1061,(#1065,#1072),.PCURVE_S1.);
#1061 = LINE('',#1062,#1063);
#1062 = CARTESIAN_POINT('',(14.850541473036,-5.,191.68960203521));
#1063 = VECTOR('',#1064,1.);
#1064 = DIRECTION('',(-0.,1.,-0.));
#1065 = PCURVE('',#398,#1066);
#1066 = DEFINITIONAL_REPRESENTATION('',(#1067),#1071);
#1067 = LINE('',#1068,#1069);
#1068 = CARTESIAN_POINT('',(-1.105485890597,0.));
#1069 = VECTOR('',#1070,1.);
#1070 = DIRECTION('',(-0.,1.));
#1071 = ( GEOMETRIC_REPRESENTATION_CONTEXT(2) 
PARAMETRIC_REPRESENTATION_CONTEXT() REPRESENTATION_CONTEXT('2D SPACE',''
  ) );
#1072 = PCURVE('',#365,#1073);
#1073 = DEFINITIONAL_REPRESENTATION('',(#1074),#1078);
#1074 = LINE('',#1075,#1076);
#1075 = CARTESIAN_POINT('',(-3.226297021149E-02,-10.));
#1076 = VECTOR('',#1077,1.);
#1077 = DIRECTION('',(-0.,1.));
#1078 = ( GEOMETRIC_REPRESENTATION_CONTEXT(2) 
PARAMETRIC_REPRESENTATION_CONTEXT() REPRESENTATION_CONTEXT('2D SPACE',''
  ) );
#1079 = ORIENTED_EDGE('',*,*,#673,.T.);
#1080 = ORIENTED_EDGE('',*,*,#1032,.T.);
#1081 = ADVANCED_FACE('',(#1082),#281,.T.);
#1082 = FACE_BOUND('',#1083,.F.);
#1083 = EDGE_LOOP('',(#1084,#1085,#1086,#1087));
#1084 = ORIENTED_EDGE('',*,*,#265,.F.);
#1085 = ORIENTED_EDGE('',*,*,#502,.F.);
#1086 = ORIENTED_EDGE('',*,*,#581,.T.);
#1087 = ORIENTED_EDGE('',*,*,#1088,.F.);
#1088 = EDGE_CURVE('',#266,#582,#1089,.T.);
#1089 = SURFACE_CURVE('',#1090,(#1094,#1101),.PCURVE_S1.);
#1090 = LINE('',#1091,#1092);
#1091 = CARTESIAN_POINT('',(45.55,5.,241.9));
#1092 = VECTOR('',#1093,1.);
#1093 = DIRECTION('',(-0.,-1.,-0.));
#1094 = PCURVE('',#281,#1095);
#1095 = DEFINITIONAL_REPRESENTATION('',(#1096),#1100);
#1096 = LINE('',#1097,#1098);
#1097 = CARTESIAN_POINT('',(-57.49915216766,0.));
#1098 = VECTOR('',#1099,1.);
#1099 = DIRECTION('',(-0.,-1.));
#1100 = ( GEOMETRIC_REPRESENTATION_CONTEXT(2) 
PARAMETRIC_REPRESENTATION_CONTEXT() REPRESENTATION_CONTEXT('2D SPACE',''
  ) );
#1101 = PCURVE('',#309,#1102);
#1102 = DEFINITIONAL_REPRESENTATION('',(#1103),#1107);
#1103 = LINE('',#1104,#1105);
#1104 = CARTESIAN_POINT('',(-0.,0.));
#1105 = VECTOR('',#1106,1.);
#1106 = DIRECTION('',(-0.,-1.));
#1107 = ( GEOMETRIC_REPRESENTATION_CONTEXT(2) 
PARAMETRIC_REPRESENTATION_CONTEXT() REPRESENTATION_CONTEXT('2D SPACE',''
  ) );
#1108 = ADVANCED_FACE('',(#1109),#365,.T.);
#1109 = FACE_BOUND('',#1110,.F.);
#1110 = EDGE_LOOP('',(#1111,#1112,#1133,#1134));
#1111 = ORIENTED_EDGE('',*,*,#349,.F.);
#1112 = ORIENTED_EDGE('',*,*,#1113,.T.);
#1113 = EDGE_CURVE('',#322,#628,#1114,.T.);
#1114 = SURFACE_CURVE('',#1115,(#1119,#1126),.PCURVE_S1.);
#1115 = LINE('',#1116,#1117);
#1116 = CARTESIAN_POINT('',(14.82,5.,191.7));
#1117 = VECTOR('',#1118,1.);
#1118 = DIRECTION('',(-0.,-1.,-0.));
#1119 = PCURVE('',#365,#1120);
#1120 = DEFINITIONAL_REPRESENTATION('',(#1121),#1125);
#1121 = LINE('',#1122,#1123);
#1122 = CARTESIAN_POINT('',(-0.,0.));
#1123 = VECTOR('',#1124,1.);
#1124 = DIRECTION('',(-0.,-1.));
#1125 = ( GEOMETRIC_REPRESENTATION_CONTEXT(2) 
PARAMETRIC_REPRESENTATION_CONTEXT() REPRESENTATION_CONTEXT('2D SPACE',''
  ) );
#1126 = PCURVE('',#337,#1127);
#1127 = DEFINITIONAL_REPRESENTATION('',(#1128),#1132);
#1128 = LINE('',#1129,#1130);
#1129 = CARTESIAN_POINT('',(-59.0884624948,0.));
#1130 = VECTOR('',#1131,1.);
#1131 = DIRECTION('',(-0.,-1.));
#1132 = ( GEOMETRIC_REPRESENTATION_CONTEXT(2) 
PARAMETRIC_REPRESENTATION_CONTEXT() REPRESENTATION_CONTEXT('2D SPACE',''
  ) );
#1133 = ORIENTED_EDGE('',*,*,#650,.T.);
#1134 = ORIENTED_EDGE('',*,*,#1059,.T.);
#1135 = ADVANCED_FACE('',(#1136),#309,.T.);
#1136 = FACE_BOUND('',#1137,.F.);
#1137 = EDGE_LOOP('',(#1138,#1139,#1140,#1141,#1164,#1245,#1335));
#1138 = ORIENTED_EDGE('',*,*,#293,.F.);
#1139 = ORIENTED_EDGE('',*,*,#1088,.T.);
#1140 = ORIENTED_EDGE('',*,*,#604,.T.);
#1141 = ORIENTED_EDGE('',*,*,#1142,.F.);
#1142 = EDGE_CURVE('',#1143,#605,#1145,.T.);
#1143 = VERTEX_POINT('',#1144);
#1144 = CARTESIAN_POINT('',(41.74,-0.303973683086,244.3));
#1145 = SURFACE_CURVE('',#1146,(#1150,#1157),.PCURVE_S1.);
#1146 = LINE('',#1147,#1148);
#1147 = CARTESIAN_POINT('',(41.74,5.,244.3));
#1148 = VECTOR('',#1149,1.);
#1149 = DIRECTION('',(-0.,-1.,-0.));
#1150 = PCURVE('',#309,#1151);
#1151 = DEFINITIONAL_REPRESENTATION('',(#1152),#1156);
#1152 = LINE('',#1153,#1154);
#1153 = CARTESIAN_POINT('',(-4.502899066157,0.));
#1154 = VECTOR('',#1155,1.);
#1155 = DIRECTION('',(-0.,-1.));
#1156 = ( GEOMETRIC_REPRESENTATION_CONTEXT(2) 
PARAMETRIC_REPRESENTATION_CONTEXT() REPRESENTATION_CONTEXT('2D SPACE',''
  ) );
#1157 = PCURVE('',#337,#1158);
#1158 = DEFINITIONAL_REPRESENTATION('',(#1159),#1163);
#1159 = LINE('',#1160,#1161);
#1160 = CARTESIAN_POINT('',(0.,-0.));
#1161 = VECTOR('',#1162,1.);
#1162 = DIRECTION('',(-0.,-1.));
#1163 = ( GEOMETRIC_REPRESENTATION_CONTEXT(2) 
PARAMETRIC_REPRESENTATION_CONTEXT() REPRESENTATION_CONTEXT('2D SPACE',''
  ) );
#1164 = ORIENTED_EDGE('',*,*,#1165,.F.);
#1165 = EDGE_CURVE('',#1166,#1143,#1168,.T.);
#1166 = VERTEX_POINT('',#1167);
#1167 = CARTESIAN_POINT('',(45.512123383762,-1.194953072909E-16,
    241.92385928581));
#1168 = SURFACE_CURVE('',#1169,(#1174,#1185),.PCURVE_S1.);
#1169 = CIRCLE('',#1170,2.239430122242);
#1170 = AXIS2_PLACEMENT_3D('',#1171,#1172,#1173);
#1171 = CARTESIAN_POINT('',(43.617293266457,0.,243.1174530605));
#1172 = DIRECTION('',(-0.53298996152,0.,-0.846121563913));
#1173 = DIRECTION('',(0.846121563913,0.,-0.53298996152));
#1174 = PCURVE('',#309,#1175);
#1175 = DEFINITIONAL_REPRESENTATION('',(#1176),#1184);
#1176 = ( BOUNDED_CURVE() B_SPLINE_CURVE(2,(#1177,#1178,#1179,#1180,
#1181,#1182,#1183),.UNSPECIFIED.,.T.,.F.) B_SPLINE_CURVE_WITH_KNOTS((1,2
    ,2,2,2,1),(-2.094395102393,0.,2.094395102393,4.188790204786,
6.28318530718,8.377580409573),.UNSPECIFIED.) CURVE() 
GEOMETRIC_REPRESENTATION_ITEM() RATIONAL_B_SPLINE_CURVE((1.,0.5,1.,0.5,
1.,0.5,1.)) REPRESENTATION_ITEM('') );
#1177 = CARTESIAN_POINT('',(-4.47649815976E-02,-5.));
#1178 = CARTESIAN_POINT('',(-4.47649815976E-02,-8.878806751723));
#1179 = CARTESIAN_POINT('',(-3.403910164961,-6.939403375862));
#1180 = CARTESIAN_POINT('',(-6.763055348323,-5.));
#1181 = CARTESIAN_POINT('',(-3.403910164961,-3.060596624138));
#1182 = CARTESIAN_POINT('',(-4.47649815976E-02,-1.121193248277));
#1183 = CARTESIAN_POINT('',(-4.47649815976E-02,-5.));
#1184 = ( GEOMETRIC_REPRESENTATION_CONTEXT(2) 
PARAMETRIC_REPRESENTATION_CONTEXT() REPRESENTATION_CONTEXT('2D SPACE',''
  ) );
#1185 = PCURVE('',#1186,#1191);
#1186 = SPHERICAL_SURFACE('',#1187,5.);
#1187 = AXIS2_PLACEMENT_3D('',#1188,#1189,#1190);
#1188 = CARTESIAN_POINT('',(46.,0.,246.9));
#1189 = DIRECTION('',(-0.,-0.,1.));
#1190 = DIRECTION('',(-1.,-0.,-0.));
#1191 = DEFINITIONAL_REPRESENTATION('',(#1192),#1244);
#1192 = B_SPLINE_CURVE_WITH_KNOTS('',8,(#1193,#1194,#1195,#1196,#1197,
    #1198,#1199,#1200,#1201,#1202,#1203,#1204,#1205,#1206,#1207,#1208,
    #1209,#1210,#1211,#1212,#1213,#1214,#1215,#1216,#1217,#1218,#1219,
    #1220,#1221,#1222,#1223,#1224,#1225,#1226,#1227,#1228,#1229,#1230,
    #1231,#1232,#1233,#1234,#1235,#1236,#1237,#1238,#1239,#1240,#1241,
    #1242,#1243),.UNSPECIFIED.,.F.,.F.,(9,7,7,7,7,7,7,9),(0.,
    9.391985230187E-02,0.184904709219,0.361187869497,0.691718795017,
    1.270147914678,2.137791594169,3.00543527366),.UNSPECIFIED.);
#1193 = CARTESIAN_POINT('',(-6.28318530718,-1.473065501525));
#1194 = CARTESIAN_POINT('',(-6.229296952183,-1.473065501525));
#1195 = CARTESIAN_POINT('',(-6.175408849108,-1.472680193028));
#1196 = CARTESIAN_POINT('',(-6.122139371837,-1.471909298824));
#1197 = CARTESIAN_POINT('',(-6.070113766914,-1.470761887196));
#1198 = CARTESIAN_POINT('',(-6.019861418044,-1.469254967189));
#1199 = CARTESIAN_POINT('',(-5.971762159088,-1.46741142769));
#1200 = CARTESIAN_POINT('',(-5.926041635551,-1.465257320292));
#1201 = CARTESIAN_POINT('',(-5.840940603624,-1.460455865221));
#1202 = CARTESIAN_POINT('',(-5.80140635783,-1.45782608809));
#1203 = CARTESIAN_POINT('',(-5.764317388316,-1.454952886698));
#1204 = CARTESIAN_POINT('',(-5.729675028161,-1.451860460943));
#1205 = CARTESIAN_POINT('',(-5.697407387377,-1.448571659231));
#1206 = CARTESIAN_POINT('',(-5.66740094878,-1.445107233997));
#1207 = CARTESIAN_POINT('',(-5.639525202922,-1.441485740302));
#1208 = CARTESIAN_POINT('',(-5.563492178868,-1.430434587666));
#1209 = CARTESIAN_POINT('',(-5.520821361802,-1.422617720797));
#1210 = CARTESIAN_POINT('',(-5.484623555896,-1.414392857269));
#1211 = CARTESIAN_POINT('',(-5.453799147257,-1.405850054102));
#1212 = CARTESIAN_POINT('',(-5.427486450121,-1.397053668639));
#1213 = CARTESIAN_POINT('',(-5.404972988353,-1.388053449041));
#1214 = CARTESIAN_POINT('',(-5.385691445452,-1.378887527194));
#1215 = CARTESIAN_POINT('',(-5.338217782448,-1.352146446481));
#1216 = CARTESIAN_POINT('',(-5.316991487608,-1.334230960218));
#1217 = CARTESIAN_POINT('',(-5.302451449542,-1.316039032193));
#1218 = CARTESIAN_POINT('',(-5.292878729501,-1.297674887917));
#1219 = CARTESIAN_POINT('',(-5.28716107214,-1.279209271966));
#1220 = CARTESIAN_POINT('',(-5.284503069436,-1.260696965163));
#1221 = CARTESIAN_POINT('',(-5.284343726962,-1.242177164855));
#1222 = CARTESIAN_POINT('',(-5.289601818069,-1.191319798294));
#1223 = CARTESIAN_POINT('',(-5.299291980503,-1.159036052124));
#1224 = CARTESIAN_POINT('',(-5.313052447424,-1.127009595311));
#1225 = CARTESIAN_POINT('',(-5.329926382422,-1.095347415881));
#1226 = CARTESIAN_POINT('',(-5.349204275203,-1.064146355793));
#1227 = CARTESIAN_POINT('',(-5.370476007803,-1.033488263278));
#1228 = CARTESIAN_POINT('',(-5.39342113593,-1.00345203682));
#1229 = CARTESIAN_POINT('',(-5.45440804035,-0.930102918882));
#1230 = CARTESIAN_POINT('',(-5.494261018716,-0.88766080378));
#1231 = CARTESIAN_POINT('',(-5.536611393724,-0.847038731841));
#1232 = CARTESIAN_POINT('',(-5.581107641406,-0.808473035472));
#1233 = CARTESIAN_POINT('',(-5.627484612813,-0.772198303655));
#1234 = CARTESIAN_POINT('',(-5.675558642123,-0.738443709804));
#1235 = CARTESIAN_POINT('',(-5.725157164844,-0.707429371456));
#1236 = CARTESIAN_POINT('',(-5.8270708831,-0.651286291105));
#1237 = CARTESIAN_POINT('',(-5.879385844887,-0.626157658214));
#1238 = CARTESIAN_POINT('',(-5.932892724492,-0.604174009755));
#1239 = CARTESIAN_POINT('',(-5.987425846676,-0.585521460654));
#1240 = CARTESIAN_POINT('',(-6.042805185955,-0.570359712027));
#1241 = CARTESIAN_POINT('',(-6.09883071306,-0.558813398201));
#1242 = CARTESIAN_POINT('',(-6.155285947715,-0.550965232345));
#1243 = CARTESIAN_POINT('',(-6.211950717723,-0.546850950696));
#1244 = ( GEOMETRIC_REPRESENTATION_CONTEXT(2) 
PARAMETRIC_REPRESENTATION_CONTEXT() REPRESENTATION_CONTEXT('2D SPACE',''
  ) );
#1245 = ORIENTED_EDGE('',*,*,#1246,.F.);
#1246 = EDGE_CURVE('',#1247,#1166,#1249,.T.);
#1247 = VERTEX_POINT('',#1248);
#1248 = CARTESIAN_POINT('',(41.74,0.303973683086,244.3));
#1249 = SURFACE_CURVE('',#1250,(#1255,#1266),.PCURVE_S1.);
#1250 = CIRCLE('',#1251,2.239430122242);
#1251 = AXIS2_PLACEMENT_3D('',#1252,#1253,#1254);
#1252 = CARTESIAN_POINT('',(43.617293266457,0.,243.1174530605));
#1253 = DIRECTION('',(-0.53298996152,0.,-0.846121563913));
#1254 = DIRECTION('',(0.846121563913,0.,-0.53298996152));
#1255 = PCURVE('',#309,#1256);
#1256 = DEFINITIONAL_REPRESENTATION('',(#1257),#1265);
#1257 = ( BOUNDED_CURVE() B_SPLINE_CURVE(2,(#1258,#1259,#1260,#1261,
#1262,#1263,#1264),.UNSPECIFIED.,.T.,.F.) B_SPLINE_CURVE_WITH_KNOTS((1,2
    ,2,2,2,1),(-2.094395102393,0.,2.094395102393,4.188790204786,
6.28318530718,8.377580409573),.UNSPECIFIED.) CURVE() 
GEOMETRIC_REPRESENTATION_ITEM() RATIONAL_B_SPLINE_CURVE((1.,0.5,1.,0.5,
1.,0.5,1.)) REPRESENTATION_ITEM('') );
#1258 = CARTESIAN_POINT('',(-4.47649815976E-02,-5.));
#1259 = CARTESIAN_POINT('',(-4.47649815976E-02,-8.878806751723));
#1260 = CARTESIAN_POINT('',(-3.403910164961,-6.939403375862));
#1261 = CARTESIAN_POINT('',(-6.763055348323,-5.));
#1262 = CARTESIAN_POINT('',(-3.403910164961,-3.060596624138));
#1263 = CARTESIAN_POINT('',(-4.47649815976E-02,-1.121193248277));
#1264 = CARTESIAN_POINT('',(-4.47649815976E-02,-5.));
#1265 = ( GEOMETRIC_REPRESENTATION_CONTEXT(2) 
PARAMETRIC_REPRESENTATION_CONTEXT() REPRESENTATION_CONTEXT('2D SPACE',''
  ) );
#1266 = PCURVE('',#1186,#1267);
#1267 = DEFINITIONAL_REPRESENTATION('',(#1268),#1334);
#1268 = B_SPLINE_CURVE_WITH_KNOTS('',8,(#1269,#1270,#1271,#1272,#1273,
    #1274,#1275,#1276,#1277,#1278,#1279,#1280,#1281,#1282,#1283,#1284,
    #1285,#1286,#1287,#1288,#1289,#1290,#1291,#1292,#1293,#1294,#1295,
    #1296,#1297,#1298,#1299,#1300,#1301,#1302,#1303,#1304,#1305,#1306,
    #1307,#1308,#1309,#1310,#1311,#1312,#1313,#1314,#1315,#1316,#1317,
    #1318,#1319,#1320,#1321,#1322,#1323,#1324,#1325,#1326,#1327,#1328,
    #1329,#1330,#1331,#1332,#1333),.UNSPECIFIED.,.F.,.F.,(9,7,7,7,7,7,7,
    7,7,9),(3.27775003352,4.029108851935,4.592627965746,5.015267301104,
    5.332246802623,5.569981428762,5.926583367971,6.104884337575,
    6.194034822377,6.28318530718),.UNSPECIFIED.);
#1269 = CARTESIAN_POINT('',(-7.123458945643E-02,-0.546850950696));
#1270 = CARTESIAN_POINT('',(-0.120304934398,-0.550413820882));
#1271 = CARTESIAN_POINT('',(-0.169218200886,-0.556776826435));
#1272 = CARTESIAN_POINT('',(-0.217831208426,-0.56591661551));
#1273 = CARTESIAN_POINT('',(-0.266003234547,-0.577783695198));
#1274 = CARTESIAN_POINT('',(-0.313601759189,-0.592304552512));
#1275 = CARTESIAN_POINT('',(-0.360504652554,-0.609384771018));
#1276 = CARTESIAN_POINT('',(-0.406598806409,-0.628913143126));
#1277 = CARTESIAN_POINT('',(-0.485657510679,-0.667157004223));
#1278 = CARTESIAN_POINT('',(-0.519023511016,-0.684855165485));
#1279 = CARTESIAN_POINT('',(-0.551827288436,-0.70380935817));
#1280 = CARTESIAN_POINT('',(-0.58402354064,-0.723963765996));
#1281 = CARTESIAN_POINT('',(-0.615566892217,-0.745259735573));
#1282 = CARTESIAN_POINT('',(-0.646409144653,-0.767636596559));
#1283 = CARTESIAN_POINT('',(-0.676494468608,-0.791032226459));
#1284 = CARTESIAN_POINT('',(-0.727696090801,-0.833646710243));
#1285 = CARTESIAN_POINT('',(-0.749174236794,-0.852447526512));
#1286 = CARTESIAN_POINT('',(-0.770157440608,-0.871759122132));
#1287 = CARTESIAN_POINT('',(-0.790610741923,-0.89155440045));
#1288 = CARTESIAN_POINT('',(-0.810492862484,-0.911805956358));
#1289 = CARTESIAN_POINT('',(-0.829753003236,-0.932486027675));
#1290 = CARTESIAN_POINT('',(-0.848325332015,-0.953566296438));
#1291 = CARTESIAN_POINT('',(-0.879468034155,-0.991105972867));
#1292 = CARTESIAN_POINT('',(-0.892378035857,-1.007403074282));
#1293 = CARTESIAN_POINT('',(-0.904813884786,-1.023896523712));
#1294 = CARTESIAN_POINT('',(-0.916730086567,-1.040573662506));
#1295 = CARTESIAN_POINT('',(-0.928071862205,-1.0574214547));
#1296 = CARTESIAN_POINT('',(-0.938771387806,-1.074426301111));
#1297 = CARTESIAN_POINT('',(-0.948741346409,-1.09157370682));
#1298 = CARTESIAN_POINT('',(-0.964709126025,-1.121803373461));
#1299 = CARTESIAN_POINT('',(-0.971076767156,-1.134830202446));
#1300 = CARTESIAN_POINT('',(-0.976919910954,-1.147921601259));
#1301 = CARTESIAN_POINT('',(-0.982179702192,-1.161070389711));
#1302 = CARTESIAN_POINT('',(-0.986785778985,-1.174268825849));
#1303 = CARTESIAN_POINT('',(-0.990652017021,-1.18750837688));
#1304 = CARTESIAN_POINT('',(-0.993669473793,-1.200779330342));
#1305 = CARTESIAN_POINT('',(-0.998737121404,-1.234006618277));
#1306 = CARTESIAN_POINT('',(-0.999549298917,-1.253987876141));
#1307 = CARTESIAN_POINT('',(-0.99765300031,-1.273975517542));
#1308 = CARTESIAN_POINT('',(-0.99240255072,-1.293921091341));
#1309 = CARTESIAN_POINT('',(-0.982881255708,-1.313764639927));
#1310 = CARTESIAN_POINT('',(-0.967758974543,-1.333416586145));
#1311 = CARTESIAN_POINT('',(-0.944953606913,-1.352754741021));
#1312 = CARTESIAN_POINT('',(-0.89329865037,-1.380901774898));
#1313 = CARTESIAN_POINT('',(-0.873172650151,-1.390140752719));
#1314 = CARTESIAN_POINT('',(-0.849645305235,-1.399203830413));
#1315 = CARTESIAN_POINT('',(-0.822110528244,-1.40805005221));
#1316 = CARTESIAN_POINT('',(-0.789806219942,-1.416625674189));
#1317 = CARTESIAN_POINT('',(-0.751811733813,-1.424861097741));
#1318 = CARTESIAN_POINT('',(-0.706954472138,-1.432658113634));
#1319 = CARTESIAN_POINT('',(-0.62784932718,-1.443501431326));
#1320 = CARTESIAN_POINT('',(-0.599511127043,-1.446973838323));
#1321 = CARTESIAN_POINT('',(-0.56907574782,-1.450288001667));
#1322 = CARTESIAN_POINT('',(-0.536426833027,-1.453425770561));
#1323 = CARTESIAN_POINT('',(-0.501468522932,-1.456366987693));
#1324 = CARTESIAN_POINT('',(-0.464150145193,-1.45908968958));
#1325 = CARTESIAN_POINT('',(-0.424495964152,-1.461570921821));
#1326 = CARTESIAN_POINT('',(-0.340763734747,-1.466006111532));
#1327 = CARTESIAN_POINT('',(-0.296685569722,-1.467960028346));
#1328 = CARTESIAN_POINT('',(-0.250519457742,-1.469628284974));
#1329 = CARTESIAN_POINT('',(-0.202484969697,-1.47098914255));
#1330 = CARTESIAN_POINT('',(-0.152925983365,-1.472023766143));
#1331 = CARTESIAN_POINT('',(-0.102303414115,-1.472718320595));
#1332 = CARTESIAN_POINT('',(-5.115183696904E-02,-1.473065501525));
#1333 = CARTESIAN_POINT('',(-1.124264143777E-15,-1.473065501525));
#1334 = ( GEOMETRIC_REPRESENTATION_CONTEXT(2) 
PARAMETRIC_REPRESENTATION_CONTEXT() REPRESENTATION_CONTEXT('2D SPACE',''
  ) );
#1335 = ORIENTED_EDGE('',*,*,#1336,.F.);
#1336 = EDGE_CURVE('',#294,#1247,#1337,.T.);
#1337 = SURFACE_CURVE('',#1338,(#1342,#1349),.PCURVE_S1.);
#1338 = LINE('',#1339,#1340);
#1339 = CARTESIAN_POINT('',(41.74,5.,244.3));
#1340 = VECTOR('',#1341,1.);
#1341 = DIRECTION('',(-0.,-1.,-0.));
#1342 = PCURVE('',#309,#1343);
#1343 = DEFINITIONAL_REPRESENTATION('',(#1344),#1348);
#1344 = LINE('',#1345,#1346);
#1345 = CARTESIAN_POINT('',(-4.502899066157,0.));
#1346 = VECTOR('',#1347,1.);
#1347 = DIRECTION('',(-0.,-1.));
#1348 = ( GEOMETRIC_REPRESENTATION_CONTEXT(2) 
PARAMETRIC_REPRESENTATION_CONTEXT() REPRESENTATION_CONTEXT('2D SPACE',''
  ) );
#1349 = PCURVE('',#337,#1350);
#1350 = DEFINITIONAL_REPRESENTATION('',(#1351),#1355);
#1351 = LINE('',#1352,#1353);
#1352 = CARTESIAN_POINT('',(0.,-0.));
#1353 = VECTOR('',#1354,1.);
#1354 = DIRECTION('',(-0.,-1.));
#1355 = ( GEOMETRIC_REPRESENTATION_CONTEXT(2) 
PARAMETRIC_REPRESENTATION_CONTEXT() REPRESENTATION_CONTEXT('2D SPACE',''
  ) );
#1356 = ADVANCED_FACE('',(#1357),#337,.T.);
#1357 = FACE_BOUND('',#1358,.F.);
#1358 = EDGE_LOOP('',(#1359,#1360,#1361,#1392,#1421,#1422,#1423));
#1359 = ORIENTED_EDGE('',*,*,#321,.F.);
#1360 = ORIENTED_EDGE('',*,*,#1336,.T.);
#1361 = ORIENTED_EDGE('',*,*,#1362,.F.);
#1362 = EDGE_CURVE('',#1363,#1247,#1365,.T.);
#1363 = VERTEX_POINT('',#1364);
#1364 = CARTESIAN_POINT('',(41.735059953135,-1.04460903539E-15,
    244.29034745672));
#1365 = SURFACE_CURVE('',#1366,(#1371,#1382),.PCURVE_S1.);
#1366 = CIRCLE('',#1367,4.266144340112);
#1367 = AXIS2_PLACEMENT_3D('',#1368,#1369,#1370);
#1368 = CARTESIAN_POINT('',(43.678664521386,0.,248.08802948829));
#1369 = DIRECTION('',(0.890190703551,0.,-0.455588093909));
#1370 = DIRECTION('',(0.455588093909,-0.,0.890190703551));
#1371 = PCURVE('',#337,#1372);
#1372 = DEFINITIONAL_REPRESENTATION('',(#1373),#1381);
#1373 = ( BOUNDED_CURVE() B_SPLINE_CURVE(2,(#1374,#1375,#1376,#1377,
#1378,#1379,#1380),.UNSPECIFIED.,.T.,.F.) B_SPLINE_CURVE_WITH_KNOTS((1,2
    ,2,2,2,1),(-2.094395102393,0.,2.094395102393,4.188790204786,
6.28318530718,8.377580409573),.UNSPECIFIED.) CURVE() 
GEOMETRIC_REPRESENTATION_ITEM() RATIONAL_B_SPLINE_CURVE((1.,0.5,1.,0.5,
1.,0.5,1.)) REPRESENTATION_ITEM('') );
#1374 = CARTESIAN_POINT('',(8.521445449395,-5.));
#1375 = CARTESIAN_POINT('',(8.521445449395,-12.38917874949));
#1376 = CARTESIAN_POINT('',(2.122228939227,-8.694589374748));
#1377 = CARTESIAN_POINT('',(-4.27698757094,-5.));
#1378 = CARTESIAN_POINT('',(2.122228939227,-1.305410625252));
#1379 = CARTESIAN_POINT('',(8.521445449395,2.389178749496));
#1380 = CARTESIAN_POINT('',(8.521445449395,-5.));
#1381 = ( GEOMETRIC_REPRESENTATION_CONTEXT(2) 
PARAMETRIC_REPRESENTATION_CONTEXT() REPRESENTATION_CONTEXT('2D SPACE',''
  ) );
#1382 = PCURVE('',#1186,#1383);
#1383 = DEFINITIONAL_REPRESENTATION('',(#1384),#1391);
#1384 = B_SPLINE_CURVE_WITH_KNOTS('',5,(#1385,#1386,#1387,#1388,#1389,
    #1390),.UNSPECIFIED.,.F.,.F.,(6,6),(3.14159265359,3.212905637144),
  .PIECEWISE_BEZIER_KNOTS.);
#1385 = CARTESIAN_POINT('',(8.881784197001E-16,-0.549112618394));
#1386 = CARTESIAN_POINT('',(-1.426662404747E-02,-0.549112618394));
#1387 = CARTESIAN_POINT('',(-2.8533248151E-02,-0.548886199504));
#1388 = CARTESIAN_POINT('',(-4.278999271984E-02,-0.548433360933));
#1389 = CARTESIAN_POINT('',(-5.702697953995E-02,-0.547754611042));
#1390 = CARTESIAN_POINT('',(-7.123458945645E-02,-0.546850950696));
#1391 = ( GEOMETRIC_REPRESENTATION_CONTEXT(2) 
PARAMETRIC_REPRESENTATION_CONTEXT() REPRESENTATION_CONTEXT('2D SPACE',''
  ) );
#1392 = ORIENTED_EDGE('',*,*,#1393,.F.);
#1393 = EDGE_CURVE('',#1143,#1363,#1394,.T.);
#1394 = SURFACE_CURVE('',#1395,(#1400,#1411),.PCURVE_S1.);
#1395 = CIRCLE('',#1396,4.266144340112);
#1396 = AXIS2_PLACEMENT_3D('',#1397,#1398,#1399);
#1397 = CARTESIAN_POINT('',(43.678664521386,0.,248.08802948829));
#1398 = DIRECTION('',(0.890190703551,0.,-0.455588093909));
#1399 = DIRECTION('',(0.455588093909,-0.,0.890190703551));
#1400 = PCURVE('',#337,#1401);
#1401 = DEFINITIONAL_REPRESENTATION('',(#1402),#1410);
#1402 = ( BOUNDED_CURVE() B_SPLINE_CURVE(2,(#1403,#1404,#1405,#1406,
#1407,#1408,#1409),.UNSPECIFIED.,.T.,.F.) B_SPLINE_CURVE_WITH_KNOTS((1,2
    ,2,2,2,1),(-2.094395102393,0.,2.094395102393,4.188790204786,
6.28318530718,8.377580409573),.UNSPECIFIED.) CURVE() 
GEOMETRIC_REPRESENTATION_ITEM() RATIONAL_B_SPLINE_CURVE((1.,0.5,1.,0.5,
1.,0.5,1.)) REPRESENTATION_ITEM('') );
#1403 = CARTESIAN_POINT('',(8.521445449395,-5.));
#1404 = CARTESIAN_POINT('',(8.521445449395,-12.38917874949));
#1405 = CARTESIAN_POINT('',(2.122228939227,-8.694589374748));
#1406 = CARTESIAN_POINT('',(-4.27698757094,-5.));
#1407 = CARTESIAN_POINT('',(2.122228939227,-1.305410625252));
#1408 = CARTESIAN_POINT('',(8.521445449395,2.389178749496));
#1409 = CARTESIAN_POINT('',(8.521445449395,-5.));
#1410 = ( GEOMETRIC_REPRESENTATION_CONTEXT(2) 
PARAMETRIC_REPRESENTATION_CONTEXT() REPRESENTATION_CONTEXT('2D SPACE',''
  ) );
#1411 = PCURVE('',#1186,#1412);
#1412 = DEFINITIONAL_REPRESENTATION('',(#1413),#1420);
#1413 = B_SPLINE_CURVE_WITH_KNOTS('',5,(#1414,#1415,#1416,#1417,#1418,
    #1419),.UNSPECIFIED.,.F.,.F.,(6,6),(3.070279670035,3.14159265359),
  .PIECEWISE_BEZIER_KNOTS.);
#1414 = CARTESIAN_POINT('',(-6.211950717723,-0.546850950696));
#1415 = CARTESIAN_POINT('',(-6.22615832764,-0.547754611042));
#1416 = CARTESIAN_POINT('',(-6.24039531446,-0.548433360933));
#1417 = CARTESIAN_POINT('',(-6.254652059029,-0.548886199504));
#1418 = CARTESIAN_POINT('',(-6.268918683132,-0.549112618394));
#1419 = CARTESIAN_POINT('',(-6.28318530718,-0.549112618394));
#1420 = ( GEOMETRIC_REPRESENTATION_CONTEXT(2) 
PARAMETRIC_REPRESENTATION_CONTEXT() REPRESENTATION_CONTEXT('2D SPACE',''
  ) );
#1421 = ORIENTED_EDGE('',*,*,#1142,.T.);
#1422 = ORIENTED_EDGE('',*,*,#627,.T.);
#1423 = ORIENTED_EDGE('',*,*,#1113,.F.);
#1424 = ADVANCED_FACE('',(#1425),#487,.F.);
#1425 = FACE_BOUND('',#1426,.T.);
#1426 = EDGE_LOOP('',(#1427,#1428,#1449,#1450));
#1427 = ORIENTED_EDGE('',*,*,#466,.F.);
#1428 = ORIENTED_EDGE('',*,*,#1429,.F.);
#1429 = EDGE_CURVE('',#748,#467,#1430,.T.);
#1430 = SEAM_CURVE('',#1431,(#1435,#1442),.PCURVE_S1.);
#1431 = LINE('',#1432,#1433);
#1432 = CARTESIAN_POINT('',(22.,-6.,192.1));
#1433 = VECTOR('',#1434,1.);
#1434 = DIRECTION('',(-0.,1.,-0.));
#1435 = PCURVE('',#487,#1436);
#1436 = DEFINITIONAL_REPRESENTATION('',(#1437),#1441);
#1437 = LINE('',#1438,#1439);
#1438 = CARTESIAN_POINT('',(-6.28318530718,-0.));
#1439 = VECTOR('',#1440,1.);
#1440 = DIRECTION('',(-0.,1.));
#1441 = ( GEOMETRIC_REPRESENTATION_CONTEXT(2) 
PARAMETRIC_REPRESENTATION_CONTEXT() REPRESENTATION_CONTEXT('2D SPACE',''
  ) );
#1442 = PCURVE('',#487,#1443);
#1443 = DEFINITIONAL_REPRESENTATION('',(#1444),#1448);
#1444 = LINE('',#1445,#1446);
#1445 = CARTESIAN_POINT('',(-0.,-0.));
#1446 = VECTOR('',#1447,1.);
#1447 = DIRECTION('',(-0.,1.));
#1448 = ( GEOMETRIC_REPRESENTATION_CONTEXT(2) 
PARAMETRIC_REPRESENTATION_CONTEXT() REPRESENTATION_CONTEXT('2D SPACE',''
  ) );
#1449 = ORIENTED_EDGE('',*,*,#747,.T.);
#1450 = ORIENTED_EDGE('',*,*,#1429,.T.);
#1451 = ADVANCED_FACE('',(#1452),#1186,.T.);
#1452 = FACE_BOUND('',#1453,.F.);
#1453 = EDGE_LOOP('',(#1454,#1478,#1479,#1480,#1481,#1505,#1506,#1507));
#1454 = ORIENTED_EDGE('',*,*,#1455,.T.);
#1455 = EDGE_CURVE('',#1363,#1456,#1458,.T.);
#1456 = VERTEX_POINT('',#1457);
#1457 = CARTESIAN_POINT('',(46.,0.,251.9));
#1458 = SEAM_CURVE('',#1459,(#1464,#1471),.PCURVE_S1.);
#1459 = CIRCLE('',#1460,5.);
#1460 = AXIS2_PLACEMENT_3D('',#1461,#1462,#1463);
#1461 = CARTESIAN_POINT('',(46.,0.,246.9));
#1462 = DIRECTION('',(-2.449293598295E-16,1.,0.));
#1463 = DIRECTION('',(-1.,-2.449293598295E-16,-0.));
#1464 = PCURVE('',#1186,#1465);
#1465 = DEFINITIONAL_REPRESENTATION('',(#1466),#1470);
#1466 = LINE('',#1467,#1468);
#1467 = CARTESIAN_POINT('',(-6.28318530718,-6.28318530718));
#1468 = VECTOR('',#1469,1.);
#1469 = DIRECTION('',(-0.,1.));
#1470 = ( GEOMETRIC_REPRESENTATION_CONTEXT(2) 
PARAMETRIC_REPRESENTATION_CONTEXT() REPRESENTATION_CONTEXT('2D SPACE',''
  ) );
#1471 = PCURVE('',#1186,#1472);
#1472 = DEFINITIONAL_REPRESENTATION('',(#1473),#1477);
#1473 = LINE('',#1474,#1475);
#1474 = CARTESIAN_POINT('',(-0.,-6.28318530718));
#1475 = VECTOR('',#1476,1.);
#1476 = DIRECTION('',(-0.,1.));
#1477 = ( GEOMETRIC_REPRESENTATION_CONTEXT(2) 
PARAMETRIC_REPRESENTATION_CONTEXT() REPRESENTATION_CONTEXT('2D SPACE',''
  ) );
#1478 = ORIENTED_EDGE('',*,*,#1455,.F.);
#1479 = ORIENTED_EDGE('',*,*,#1362,.T.);
#1480 = ORIENTED_EDGE('',*,*,#1246,.T.);
#1481 = ORIENTED_EDGE('',*,*,#1482,.F.);
#1482 = EDGE_CURVE('',#1483,#1166,#1485,.T.);
#1483 = VERTEX_POINT('',#1484);
#1484 = CARTESIAN_POINT('',(46.,0.,241.9));
#1485 = SEAM_CURVE('',#1486,(#1491,#1498),.PCURVE_S1.);
#1486 = CIRCLE('',#1487,5.);
#1487 = AXIS2_PLACEMENT_3D('',#1488,#1489,#1490);
#1488 = CARTESIAN_POINT('',(46.,0.,246.9));
#1489 = DIRECTION('',(-2.449293598295E-16,1.,0.));
#1490 = DIRECTION('',(-1.,-2.449293598295E-16,-0.));
#1491 = PCURVE('',#1186,#1492);
#1492 = DEFINITIONAL_REPRESENTATION('',(#1493),#1497);
#1493 = LINE('',#1494,#1495);
#1494 = CARTESIAN_POINT('',(-6.28318530718,-6.28318530718));
#1495 = VECTOR('',#1496,1.);
#1496 = DIRECTION('',(-0.,1.));
#1497 = ( GEOMETRIC_REPRESENTATION_CONTEXT(2) 
PARAMETRIC_REPRESENTATION_CONTEXT() REPRESENTATION_CONTEXT('2D SPACE',''
  ) );
#1498 = PCURVE('',#1186,#1499);
#1499 = DEFINITIONAL_REPRESENTATION('',(#1500),#1504);
#1500 = LINE('',#1501,#1502);
#1501 = CARTESIAN_POINT('',(-0.,-6.28318530718));
#1502 = VECTOR('',#1503,1.);
#1503 = DIRECTION('',(-0.,1.));
#1504 = ( GEOMETRIC_REPRESENTATION_CONTEXT(2) 
PARAMETRIC_REPRESENTATION_CONTEXT() REPRESENTATION_CONTEXT('2D SPACE',''
  ) );
#1505 = ORIENTED_EDGE('',*,*,#1482,.T.);
#1506 = ORIENTED_EDGE('',*,*,#1165,.T.);
#1507 = ORIENTED_EDGE('',*,*,#1393,.T.);
#1508 = ( GEOMETRIC_REPRESENTATION_CONTEXT(3) 
GLOBAL_UNCERTAINTY_ASSIGNED_CONTEXT((#1512)) 
GLOBAL_UNIT_ASSIGNED_CONTEXT((#1509,#1510,#1511)) REPRESENTATION_CONTEXT
('Context #1','3D Context with UNIT and UNCERTAINTY') );
#1509 = ( LENGTH_UNIT() NAMED_UNIT(*) SI_UNIT(.MILLI.,.METRE.) );
#1510 = ( NAMED_UNIT(*) PLANE_ANGLE_UNIT() SI_UNIT($,.RADIAN.) );
#1511 = ( NAMED_UNIT(*) SI_UNIT($,.STERADIAN.) SOLID_ANGLE_UNIT() );
#1512 = UNCERTAINTY_MEASURE_WITH_UNIT(LENGTH_MEASURE(1.E-07),#1509,
  'distance_accuracy_value','confusion accuracy');
#1513 = PRODUCT_RELATED_PRODUCT_CATEGORY('part',$,(#7));
ENDSEC;
END-ISO-10303-21;
