ISO-10303-21;
HEADER;
FILE_DESCRIPTION(('Open CASCADE Model'),'2;1');
FILE_NAME('Open CASCADE Shape Model','2026-09-23T09:50:25',('Author'),(
    'Open CASCADE'),'Open CASCADE STEP processor 7.9','Open CASCADE 7.9'
  ,'Unknown');
FILE_SCHEMA(('AUTOMOTIVE_DESIGN { 1 0 10303 214 1 1 1 1 }'));
ENDSEC;
DATA;
#1 = APPLICATION_PROTOCOL_DEFINITION('international standard',
  'automotive_design',2000,#2);
#2 = APPLICATION_CONTEXT(
  'core data for automotive mechanical design processes');
#3 = SHAPE_DEFINITION_REPRESENTATION(#4,#10);
#4 = PRODUCT_DEFINITION_SHAPE('','',#5);
#5 = PRODUCT_DEFINITION('design','',#6,#9);
#6 = PRODUCT_DEFINITION_FORMATION('','',#7);
#7 = PRODUCT('Open CASCADE STEP translator 7.9 44',
  'Open CASCADE STEP translator 7.9 44','',(#8));
#8 = PRODUCT_CONTEXT('',#2,'mechanical');
#9 = PRODUCT_DEFINITION_CONTEXT('part definition',#2,'design');
#10 = ADVANCED_BREP_SHAPE_REPRESENTATION('',(#11,#15),#1233);
#11 = AXIS2_PLACEMENT_3D('',#12,#13,#14);
#12 = CARTESIAN_POINT('',(0.,0.,0.));
#13 = DIRECTION('',(0.,0.,1.));
#14 = DIRECTION('',(1.,0.,-0.));
#15 = MANIFOLD_SOLID_BREP('',#16);
#16 = CLOSED_SHELL('',(#17,#137,#208,#421,#449,#585,#612,#838,#865,#892,
    #919,#946,#981,#1171,#1229));
#17 = ADVANCED_FACE('',(#18),#33,.T.);
#18 = FACE_BOUND('',#19,.T.);
#19 = EDGE_LOOP('',(#20,#56,#84,#113));
#20 = ORIENTED_EDGE('',*,*,#21,.T.);
#21 = EDGE_CURVE('',#22,#24,#26,.T.);
#22 = VERTEX_POINT('',#23);
#23 = CARTESIAN_POINT('',(155.1,4.946824676513,83.272727272727));
#24 = VERTEX_POINT('',#25);
#25 = CARTESIAN_POINT('',(155.1,1.102182119233E-14,173.));
#26 = SURFACE_CURVE('',#27,(#32,#44),.PCURVE_S1.);
#27 = CIRCLE('',#28,45.);
#28 = AXIS2_PLACEMENT_3D('',#29,#30,#31);
#29 = CARTESIAN_POINT('',(155.1,0.,128.));
#30 = DIRECTION('',(1.,0.,0.));
#31 = DIRECTION('',(-0.,0.,1.));
#32 = PCURVE('',#33,#38);
#33 = CYLINDRICAL_SURFACE('',#34,45.);
#34 = AXIS2_PLACEMENT_3D('',#35,#36,#37);
#35 = CARTESIAN_POINT('',(155.1,0.,128.));
#36 = DIRECTION('',(1.,0.,0.));
#37 = DIRECTION('',(-0.,0.,1.));
#38 = DEFINITIONAL_REPRESENTATION('',(#39),#43);
#39 = LINE('',#40,#41);
#40 = CARTESIAN_POINT('',(0.,0.));
#41 = VECTOR('',#42,1.);
#42 = DIRECTION('',(1.,0.));
#43 = ( GEOMETRIC_REPRESENTATION_CONTEXT(2) 
PARAMETRIC_REPRESENTATION_CONTEXT() REPRESENTATION_CONTEXT('2D SPACE',''
  ) );
#44 = PCURVE('',#45,#50);
#45 = PLANE('',#46);
#46 = AXIS2_PLACEMENT_3D('',#47,#48,#49);
#47 = CARTESIAN_POINT('',(155.1,0.,128.));
#48 = DIRECTION('',(1.,0.,0.));
#49 = DIRECTION('',(-0.,0.,1.));
#50 = DEFINITIONAL_REPRESENTATION('',(#51),#55);
#51 = CIRCLE('',#52,45.);
#52 = AXIS2_PLACEMENT_2D('',#53,#54);
#53 = CARTESIAN_POINT('',(0.,0.));
#54 = DIRECTION('',(1.,0.));
#55 = ( GEOMETRIC_REPRESENTATION_CONTEXT(2) 
PARAMETRIC_REPRESENTATION_CONTEXT() REPRESENTATION_CONTEXT('2D SPACE',''
  ) );
#56 = ORIENTED_EDGE('',*,*,#57,.T.);
#57 = EDGE_CURVE('',#24,#58,#60,.T.);
#58 = VERTEX_POINT('',#59);
#59 = CARTESIAN_POINT('',(164.1,1.102182119233E-14,173.));
#60 = SURFACE_CURVE('',#61,(#65,#72),.PCURVE_S1.);
#61 = LINE('',#62,#63);
#62 = CARTESIAN_POINT('',(155.1,1.102182119233E-14,173.));
#63 = VECTOR('',#64,1.);
#64 = DIRECTION('',(1.,0.,0.));
#65 = PCURVE('',#33,#66);
#66 = DEFINITIONAL_REPRESENTATION('',(#67),#71);
#67 = LINE('',#68,#69);
#68 = CARTESIAN_POINT('',(6.28318530718,-0.));
#69 = VECTOR('',#70,1.);
#70 = DIRECTION('',(0.,1.));
#71 = ( GEOMETRIC_REPRESENTATION_CONTEXT(2) 
PARAMETRIC_REPRESENTATION_CONTEXT() REPRESENTATION_CONTEXT('2D SPACE',''
  ) );
#72 = PCURVE('',#73,#78);
#73 = CYLINDRICAL_SURFACE('',#74,45.);
#74 = AXIS2_PLACEMENT_3D('',#75,#76,#77);
#75 = CARTESIAN_POINT('',(155.1,0.,128.));
#76 = DIRECTION('',(1.,0.,0.));
#77 = DIRECTION('',(-0.,0.,1.));
#78 = DEFINITIONAL_REPRESENTATION('',(#79),#83);
#79 = LINE('',#80,#81);
#80 = CARTESIAN_POINT('',(0.,-0.));
#81 = VECTOR('',#82,1.);
#82 = DIRECTION('',(0.,1.));
#83 = ( GEOMETRIC_REPRESENTATION_CONTEXT(2) 
PARAMETRIC_REPRESENTATION_CONTEXT() REPRESENTATION_CONTEXT('2D SPACE',''
  ) );
#84 = ORIENTED_EDGE('',*,*,#85,.F.);
#85 = EDGE_CURVE('',#86,#58,#88,.T.);
#86 = VERTEX_POINT('',#87);
#87 = CARTESIAN_POINT('',(164.1,4.946824676513,83.272727272727));
#88 = SURFACE_CURVE('',#89,(#94,#101),.PCURVE_S1.);
#89 = CIRCLE('',#90,45.);
#90 = AXIS2_PLACEMENT_3D('',#91,#92,#93);
#91 = CARTESIAN_POINT('',(164.1,0.,128.));
#92 = DIRECTION('',(1.,0.,0.));
#93 = DIRECTION('',(-0.,0.,1.));
#94 = PCURVE('',#33,#95);
#95 = DEFINITIONAL_REPRESENTATION('',(#96),#100);
#96 = LINE('',#97,#98);
#97 = CARTESIAN_POINT('',(0.,9.));
#98 = VECTOR('',#99,1.);
#99 = DIRECTION('',(1.,0.));
#100 = ( GEOMETRIC_REPRESENTATION_CONTEXT(2) 
PARAMETRIC_REPRESENTATION_CONTEXT() REPRESENTATION_CONTEXT('2D SPACE',''
  ) );
#101 = PCURVE('',#102,#107);
#102 = PLANE('',#103);
#103 = AXIS2_PLACEMENT_3D('',#104,#105,#106);
#104 = CARTESIAN_POINT('',(164.1,0.,128.));
#105 = DIRECTION('',(1.,0.,0.));
#106 = DIRECTION('',(-0.,0.,1.));
#107 = DEFINITIONAL_REPRESENTATION('',(#108),#112);
#108 = CIRCLE('',#109,45.);
#109 = AXIS2_PLACEMENT_2D('',#110,#111);
#110 = CARTESIAN_POINT('',(0.,0.));
#111 = DIRECTION('',(1.,0.));
#112 = ( GEOMETRIC_REPRESENTATION_CONTEXT(2) 
PARAMETRIC_REPRESENTATION_CONTEXT() REPRESENTATION_CONTEXT('2D SPACE',''
  ) );
#113 = ORIENTED_EDGE('',*,*,#114,.F.);
#114 = EDGE_CURVE('',#22,#86,#115,.T.);
#115 = SURFACE_CURVE('',#116,(#120,#126),.PCURVE_S1.);
#116 = LINE('',#117,#118);
#117 = CARTESIAN_POINT('',(155.1,4.946824676514,83.272727272727));
#118 = VECTOR('',#119,1.);
#119 = DIRECTION('',(1.,0.,0.));
#120 = PCURVE('',#33,#121);
#121 = DEFINITIONAL_REPRESENTATION('',(#122),#125);
#122 = B_SPLINE_CURVE_WITH_KNOTS('',1,(#123,#124),.UNSPECIFIED.,.F.,.F.,
  (2,2),(-5.999999928008E-07,9.0000006),.PIECEWISE_BEZIER_KNOTS.);
#123 = CARTESIAN_POINT('',(3.251744710294,-5.999999928008E-07));
#124 = CARTESIAN_POINT('',(3.251744710294,9.0000006));
#125 = ( GEOMETRIC_REPRESENTATION_CONTEXT(2) 
PARAMETRIC_REPRESENTATION_CONTEXT() REPRESENTATION_CONTEXT('2D SPACE',''
  ) );
#126 = PCURVE('',#127,#132);
#127 = CYLINDRICAL_SURFACE('',#128,5.);
#128 = AXIS2_PLACEMENT_3D('',#129,#130,#131);
#129 = CARTESIAN_POINT('',(155.1,0.,84.));
#130 = DIRECTION('',(1.,0.,0.));
#131 = DIRECTION('',(-0.,0.,1.));
#132 = DEFINITIONAL_REPRESENTATION('',(#133),#136);
#133 = B_SPLINE_CURVE_WITH_KNOTS('',1,(#134,#135),.UNSPECIFIED.,.F.,.F.,
  (2,2),(-5.999999928008E-07,9.0000006),.PIECEWISE_BEZIER_KNOTS.);
#134 = CARTESIAN_POINT('',(4.56641659184,-5.999999928008E-07));
#135 = CARTESIAN_POINT('',(4.56641659184,9.0000006));
#136 = ( GEOMETRIC_REPRESENTATION_CONTEXT(2) 
PARAMETRIC_REPRESENTATION_CONTEXT() REPRESENTATION_CONTEXT('2D SPACE',''
  ) );
#137 = ADVANCED_FACE('',(#138),#73,.T.);
#138 = FACE_BOUND('',#139,.T.);
#139 = EDGE_LOOP('',(#140,#164,#165,#189));
#140 = ORIENTED_EDGE('',*,*,#141,.F.);
#141 = EDGE_CURVE('',#58,#142,#144,.T.);
#142 = VERTEX_POINT('',#143);
#143 = CARTESIAN_POINT('',(164.1,-4.946824676513,83.272727272727));
#144 = SURFACE_CURVE('',#145,(#150,#157),.PCURVE_S1.);
#145 = CIRCLE('',#146,45.);
#146 = AXIS2_PLACEMENT_3D('',#147,#148,#149);
#147 = CARTESIAN_POINT('',(164.1,0.,128.));
#148 = DIRECTION('',(1.,0.,0.));
#149 = DIRECTION('',(-0.,0.,1.));
#150 = PCURVE('',#73,#151);
#151 = DEFINITIONAL_REPRESENTATION('',(#152),#156);
#152 = LINE('',#153,#154);
#153 = CARTESIAN_POINT('',(0.,9.));
#154 = VECTOR('',#155,1.);
#155 = DIRECTION('',(1.,0.));
#156 = ( GEOMETRIC_REPRESENTATION_CONTEXT(2) 
PARAMETRIC_REPRESENTATION_CONTEXT() REPRESENTATION_CONTEXT('2D SPACE',''
  ) );
#157 = PCURVE('',#102,#158);
#158 = DEFINITIONAL_REPRESENTATION('',(#159),#163);
#159 = CIRCLE('',#160,45.);
#160 = AXIS2_PLACEMENT_2D('',#161,#162);
#161 = CARTESIAN_POINT('',(0.,0.));
#162 = DIRECTION('',(1.,0.));
#163 = ( GEOMETRIC_REPRESENTATION_CONTEXT(2) 
PARAMETRIC_REPRESENTATION_CONTEXT() REPRESENTATION_CONTEXT('2D SPACE',''
  ) );
#164 = ORIENTED_EDGE('',*,*,#57,.F.);
#165 = ORIENTED_EDGE('',*,*,#166,.T.);
#166 = EDGE_CURVE('',#24,#167,#169,.T.);
#167 = VERTEX_POINT('',#168);
#168 = CARTESIAN_POINT('',(155.1,-4.946824676513,83.272727272727));
#169 = SURFACE_CURVE('',#170,(#175,#182),.PCURVE_S1.);
#170 = CIRCLE('',#171,45.);
#171 = AXIS2_PLACEMENT_3D('',#172,#173,#174);
#172 = CARTESIAN_POINT('',(155.1,0.,128.));
#173 = DIRECTION('',(1.,0.,0.));
#174 = DIRECTION('',(-0.,0.,1.));
#175 = PCURVE('',#73,#176);
#176 = DEFINITIONAL_REPRESENTATION('',(#177),#181);
#177 = LINE('',#178,#179);
#178 = CARTESIAN_POINT('',(0.,0.));
#179 = VECTOR('',#180,1.);
#180 = DIRECTION('',(1.,0.));
#181 = ( GEOMETRIC_REPRESENTATION_CONTEXT(2) 
PARAMETRIC_REPRESENTATION_CONTEXT() REPRESENTATION_CONTEXT('2D SPACE',''
  ) );
#182 = PCURVE('',#45,#183);
#183 = DEFINITIONAL_REPRESENTATION('',(#184),#188);
#184 = CIRCLE('',#185,45.);
#185 = AXIS2_PLACEMENT_2D('',#186,#187);
#186 = CARTESIAN_POINT('',(0.,0.));
#187 = DIRECTION('',(1.,0.));
#188 = ( GEOMETRIC_REPRESENTATION_CONTEXT(2) 
PARAMETRIC_REPRESENTATION_CONTEXT() REPRESENTATION_CONTEXT('2D SPACE',''
  ) );
#189 = ORIENTED_EDGE('',*,*,#190,.T.);
#190 = EDGE_CURVE('',#167,#142,#191,.T.);
#191 = SURFACE_CURVE('',#192,(#196,#202),.PCURVE_S1.);
#192 = LINE('',#193,#194);
#193 = CARTESIAN_POINT('',(155.1,-4.946824676514,83.272727272727));
#194 = VECTOR('',#195,1.);
#195 = DIRECTION('',(1.,0.,0.));
#196 = PCURVE('',#73,#197);
#197 = DEFINITIONAL_REPRESENTATION('',(#198),#201);
#198 = B_SPLINE_CURVE_WITH_KNOTS('',1,(#199,#200),.UNSPECIFIED.,.F.,.F.,
  (2,2),(-5.999999928008E-07,9.0000006),.PIECEWISE_BEZIER_KNOTS.);
#199 = CARTESIAN_POINT('',(3.031440596886,-5.999999928008E-07));
#200 = CARTESIAN_POINT('',(3.031440596886,9.0000006));
#201 = ( GEOMETRIC_REPRESENTATION_CONTEXT(2) 
PARAMETRIC_REPRESENTATION_CONTEXT() REPRESENTATION_CONTEXT('2D SPACE',''
  ) );
#202 = PCURVE('',#127,#203);
#203 = DEFINITIONAL_REPRESENTATION('',(#204),#207);
#204 = B_SPLINE_CURVE_WITH_KNOTS('',1,(#205,#206),.UNSPECIFIED.,.F.,.F.,
  (2,2),(-5.999999928008E-07,9.0000006),.PIECEWISE_BEZIER_KNOTS.);
#205 = CARTESIAN_POINT('',(1.716768715339,-5.999999928008E-07));
#206 = CARTESIAN_POINT('',(1.716768715339,9.0000006));
#207 = ( GEOMETRIC_REPRESENTATION_CONTEXT(2) 
PARAMETRIC_REPRESENTATION_CONTEXT() REPRESENTATION_CONTEXT('2D SPACE',''
  ) );
#208 = ADVANCED_FACE('',(#209,#235,#266,#297,#328,#359,#390),#45,.F.);
#209 = FACE_BOUND('',#210,.F.);
#210 = EDGE_LOOP('',(#211,#212,#213));
#211 = ORIENTED_EDGE('',*,*,#21,.T.);
#212 = ORIENTED_EDGE('',*,*,#166,.T.);
#213 = ORIENTED_EDGE('',*,*,#214,.T.);
#214 = EDGE_CURVE('',#167,#22,#215,.T.);
#215 = SURFACE_CURVE('',#216,(#221,#228),.PCURVE_S1.);
#216 = CIRCLE('',#217,5.);
#217 = AXIS2_PLACEMENT_3D('',#218,#219,#220);
#218 = CARTESIAN_POINT('',(155.1,0.,84.));
#219 = DIRECTION('',(1.,0.,0.));
#220 = DIRECTION('',(-0.,0.,1.));
#221 = PCURVE('',#45,#222);
#222 = DEFINITIONAL_REPRESENTATION('',(#223),#227);
#223 = CIRCLE('',#224,5.);
#224 = AXIS2_PLACEMENT_2D('',#225,#226);
#225 = CARTESIAN_POINT('',(-44.,0.));
#226 = DIRECTION('',(1.,0.));
#227 = ( GEOMETRIC_REPRESENTATION_CONTEXT(2) 
PARAMETRIC_REPRESENTATION_CONTEXT() REPRESENTATION_CONTEXT('2D SPACE',''
  ) );
#228 = PCURVE('',#127,#229);
#229 = DEFINITIONAL_REPRESENTATION('',(#230),#234);
#230 = LINE('',#231,#232);
#231 = CARTESIAN_POINT('',(0.,0.));
#232 = VECTOR('',#233,1.);
#233 = DIRECTION('',(1.,0.));
#234 = ( GEOMETRIC_REPRESENTATION_CONTEXT(2) 
PARAMETRIC_REPRESENTATION_CONTEXT() REPRESENTATION_CONTEXT('2D SPACE',''
  ) );
#235 = FACE_BOUND('',#236,.F.);
#236 = EDGE_LOOP('',(#237));
#237 = ORIENTED_EDGE('',*,*,#238,.F.);
#238 = EDGE_CURVE('',#239,#239,#241,.T.);
#239 = VERTEX_POINT('',#240);
#240 = CARTESIAN_POINT('',(155.1,22.041946960968,100.96186271093));
#241 = SURFACE_CURVE('',#242,(#247,#254),.PCURVE_S1.);
#242 = CIRCLE('',#243,3.3);
#243 = AXIS2_PLACEMENT_3D('',#244,#245,#246);
#244 = CARTESIAN_POINT('',(155.1,22.041946960968,97.661862710939));
#245 = DIRECTION('',(1.,0.,0.));
#246 = DIRECTION('',(-0.,0.,1.));
#247 = PCURVE('',#45,#248);
#248 = DEFINITIONAL_REPRESENTATION('',(#249),#253);
#249 = CIRCLE('',#250,3.3);
#250 = AXIS2_PLACEMENT_2D('',#251,#252);
#251 = CARTESIAN_POINT('',(-30.33813728906,-22.04194696096));
#252 = DIRECTION('',(1.,0.));
#253 = ( GEOMETRIC_REPRESENTATION_CONTEXT(2) 
PARAMETRIC_REPRESENTATION_CONTEXT() REPRESENTATION_CONTEXT('2D SPACE',''
  ) );
#254 = PCURVE('',#255,#260);
#255 = CYLINDRICAL_SURFACE('',#256,3.3);
#256 = AXIS2_PLACEMENT_3D('',#257,#258,#259);
#257 = CARTESIAN_POINT('',(154.1,22.041946960968,97.661862710939));
#258 = DIRECTION('',(1.,0.,0.));
#259 = DIRECTION('',(-0.,0.,1.));
#260 = DEFINITIONAL_REPRESENTATION('',(#261),#265);
#261 = LINE('',#262,#263);
#262 = CARTESIAN_POINT('',(0.,1.));
#263 = VECTOR('',#264,1.);
#264 = DIRECTION('',(1.,0.));
#265 = ( GEOMETRIC_REPRESENTATION_CONTEXT(2) 
PARAMETRIC_REPRESENTATION_CONTEXT() REPRESENTATION_CONTEXT('2D SPACE',''
  ) );
#266 = FACE_BOUND('',#267,.F.);
#267 = EDGE_LOOP('',(#268));
#268 = ORIENTED_EDGE('',*,*,#269,.F.);
#269 = EDGE_CURVE('',#270,#270,#272,.T.);
#270 = VERTEX_POINT('',#271);
#271 = CARTESIAN_POINT('',(155.1,7.335634326893E-15,157.95));
#272 = SURFACE_CURVE('',#273,(#278,#285),.PCURVE_S1.);
#273 = CIRCLE('',#274,29.95);
#274 = AXIS2_PLACEMENT_3D('',#275,#276,#277);
#275 = CARTESIAN_POINT('',(155.1,0.,128.));
#276 = DIRECTION('',(1.,0.,0.));
#277 = DIRECTION('',(-0.,0.,1.));
#278 = PCURVE('',#45,#279);
#279 = DEFINITIONAL_REPRESENTATION('',(#280),#284);
#280 = CIRCLE('',#281,29.95);
#281 = AXIS2_PLACEMENT_2D('',#282,#283);
#282 = CARTESIAN_POINT('',(0.,0.));
#283 = DIRECTION('',(1.,0.));
#284 = ( GEOMETRIC_REPRESENTATION_CONTEXT(2) 
PARAMETRIC_REPRESENTATION_CONTEXT() REPRESENTATION_CONTEXT('2D SPACE',''
  ) );
#285 = PCURVE('',#286,#291);
#286 = CYLINDRICAL_SURFACE('',#287,29.95);
#287 = AXIS2_PLACEMENT_3D('',#288,#289,#290);
#288 = CARTESIAN_POINT('',(148.2,0.,128.));
#289 = DIRECTION('',(1.,0.,0.));
#290 = DIRECTION('',(-0.,0.,1.));
#291 = DEFINITIONAL_REPRESENTATION('',(#292),#296);
#292 = LINE('',#293,#294);
#293 = CARTESIAN_POINT('',(0.,6.9));
#294 = VECTOR('',#295,1.);
#295 = DIRECTION('',(1.,0.));
#296 = ( GEOMETRIC_REPRESENTATION_CONTEXT(2) 
PARAMETRIC_REPRESENTATION_CONTEXT() REPRESENTATION_CONTEXT('2D SPACE',''
  ) );
#297 = FACE_BOUND('',#298,.F.);
#298 = EDGE_LOOP('',(#299));
#299 = ORIENTED_EDGE('',*,*,#300,.F.);
#300 = EDGE_CURVE('',#301,#301,#303,.T.);
#301 = VERTEX_POINT('',#302);
#302 = CARTESIAN_POINT('',(155.1,35.664619361068,142.88813728906));
#303 = SURFACE_CURVE('',#304,(#309,#316),.PCURVE_S1.);
#304 = CIRCLE('',#305,3.3);
#305 = AXIS2_PLACEMENT_3D('',#306,#307,#308);
#306 = CARTESIAN_POINT('',(155.1,35.664619361068,139.58813728906));
#307 = DIRECTION('',(1.,0.,0.));
#308 = DIRECTION('',(-0.,0.,1.));
#309 = PCURVE('',#45,#310);
#310 = DEFINITIONAL_REPRESENTATION('',(#311),#315);
#311 = CIRCLE('',#312,3.3);
#312 = AXIS2_PLACEMENT_2D('',#313,#314);
#313 = CARTESIAN_POINT('',(11.588137289061,-35.66461936106));
#314 = DIRECTION('',(1.,0.));
#315 = ( GEOMETRIC_REPRESENTATION_CONTEXT(2) 
PARAMETRIC_REPRESENTATION_CONTEXT() REPRESENTATION_CONTEXT('2D SPACE',''
  ) );
#316 = PCURVE('',#317,#322);
#317 = CYLINDRICAL_SURFACE('',#318,3.3);
#318 = AXIS2_PLACEMENT_3D('',#319,#320,#321);
#319 = CARTESIAN_POINT('',(154.1,35.664619361068,139.58813728906));
#320 = DIRECTION('',(1.,0.,0.));
#321 = DIRECTION('',(-0.,0.,1.));
#322 = DEFINITIONAL_REPRESENTATION('',(#323),#327);
#323 = LINE('',#324,#325);
#324 = CARTESIAN_POINT('',(0.,1.));
#325 = VECTOR('',#326,1.);
#326 = DIRECTION('',(1.,0.));
#327 = ( GEOMETRIC_REPRESENTATION_CONTEXT(2) 
PARAMETRIC_REPRESENTATION_CONTEXT() REPRESENTATION_CONTEXT('2D SPACE',''
  ) );
#328 = FACE_BOUND('',#329,.F.);
#329 = EDGE_LOOP('',(#330));
#330 = ORIENTED_EDGE('',*,*,#331,.F.);
#331 = EDGE_CURVE('',#332,#332,#334,.T.);
#332 = VERTEX_POINT('',#333);
#333 = CARTESIAN_POINT('',(155.1,8.082668874373E-16,168.8));
#334 = SURFACE_CURVE('',#335,(#340,#347),.PCURVE_S1.);
#335 = CIRCLE('',#336,3.3);
#336 = AXIS2_PLACEMENT_3D('',#337,#338,#339);
#337 = CARTESIAN_POINT('',(155.1,0.,165.5));
#338 = DIRECTION('',(1.,0.,0.));
#339 = DIRECTION('',(-0.,0.,1.));
#340 = PCURVE('',#45,#341);
#341 = DEFINITIONAL_REPRESENTATION('',(#342),#346);
#342 = CIRCLE('',#343,3.3);
#343 = AXIS2_PLACEMENT_2D('',#344,#345);
#344 = CARTESIAN_POINT('',(37.5,0.));
#345 = DIRECTION('',(1.,0.));
#346 = ( GEOMETRIC_REPRESENTATION_CONTEXT(2) 
PARAMETRIC_REPRESENTATION_CONTEXT() REPRESENTATION_CONTEXT('2D SPACE',''
  ) );
#347 = PCURVE('',#348,#353);
#348 = CYLINDRICAL_SURFACE('',#349,3.3);
#349 = AXIS2_PLACEMENT_3D('',#350,#351,#352);
#350 = CARTESIAN_POINT('',(154.1,0.,165.5));
#351 = DIRECTION('',(1.,0.,0.));
#352 = DIRECTION('',(-0.,0.,1.));
#353 = DEFINITIONAL_REPRESENTATION('',(#354),#358);
#354 = LINE('',#355,#356);
#355 = CARTESIAN_POINT('',(0.,1.));
#356 = VECTOR('',#357,1.);
#357 = DIRECTION('',(1.,0.));
#358 = ( GEOMETRIC_REPRESENTATION_CONTEXT(2) 
PARAMETRIC_REPRESENTATION_CONTEXT() REPRESENTATION_CONTEXT('2D SPACE',''
  ) );
#359 = FACE_BOUND('',#360,.F.);
#360 = EDGE_LOOP('',(#361));
#361 = ORIENTED_EDGE('',*,*,#362,.F.);
#362 = EDGE_CURVE('',#363,#363,#365,.T.);
#363 = VERTEX_POINT('',#364);
#364 = CARTESIAN_POINT('',(155.1,-22.04194696096,100.96186271093));
#365 = SURFACE_CURVE('',#366,(#371,#378),.PCURVE_S1.);
#366 = CIRCLE('',#367,3.3);
#367 = AXIS2_PLACEMENT_3D('',#368,#369,#370);
#368 = CARTESIAN_POINT('',(155.1,-22.04194696096,97.661862710939));
#369 = DIRECTION('',(1.,0.,0.));
#370 = DIRECTION('',(-0.,0.,1.));
#371 = PCURVE('',#45,#372);
#372 = DEFINITIONAL_REPRESENTATION('',(#373),#377);
#373 = CIRCLE('',#374,3.3);
#374 = AXIS2_PLACEMENT_2D('',#375,#376);
#375 = CARTESIAN_POINT('',(-30.33813728906,22.041946960968));
#376 = DIRECTION('',(1.,0.));
#377 = ( GEOMETRIC_REPRESENTATION_CONTEXT(2) 
PARAMETRIC_REPRESENTATION_CONTEXT() REPRESENTATION_CONTEXT('2D SPACE',''
  ) );
#378 = PCURVE('',#379,#384);
#379 = CYLINDRICAL_SURFACE('',#380,3.3);
#380 = AXIS2_PLACEMENT_3D('',#381,#382,#383);
#381 = CARTESIAN_POINT('',(154.1,-22.04194696096,97.661862710939));
#382 = DIRECTION('',(1.,0.,0.));
#383 = DIRECTION('',(-0.,0.,1.));
#384 = DEFINITIONAL_REPRESENTATION('',(#385),#389);
#385 = LINE('',#386,#387);
#386 = CARTESIAN_POINT('',(0.,1.));
#387 = VECTOR('',#388,1.);
#388 = DIRECTION('',(1.,0.));
#389 = ( GEOMETRIC_REPRESENTATION_CONTEXT(2) 
PARAMETRIC_REPRESENTATION_CONTEXT() REPRESENTATION_CONTEXT('2D SPACE',''
  ) );
#390 = FACE_BOUND('',#391,.F.);
#391 = EDGE_LOOP('',(#392));
#392 = ORIENTED_EDGE('',*,*,#393,.F.);
#393 = EDGE_CURVE('',#394,#394,#396,.T.);
#394 = VERTEX_POINT('',#395);
#395 = CARTESIAN_POINT('',(155.1,-35.66461936106,142.88813728906));
#396 = SURFACE_CURVE('',#397,(#402,#409),.PCURVE_S1.);
#397 = CIRCLE('',#398,3.3);
#398 = AXIS2_PLACEMENT_3D('',#399,#400,#401);
#399 = CARTESIAN_POINT('',(155.1,-35.66461936106,139.58813728906));
#400 = DIRECTION('',(1.,0.,0.));
#401 = DIRECTION('',(-0.,0.,1.));
#402 = PCURVE('',#45,#403);
#403 = DEFINITIONAL_REPRESENTATION('',(#404),#408);
#404 = CIRCLE('',#405,3.3);
#405 = AXIS2_PLACEMENT_2D('',#406,#407);
#406 = CARTESIAN_POINT('',(11.588137289061,35.664619361068));
#407 = DIRECTION('',(1.,0.));
#408 = ( GEOMETRIC_REPRESENTATION_CONTEXT(2) 
PARAMETRIC_REPRESENTATION_CONTEXT() REPRESENTATION_CONTEXT('2D SPACE',''
  ) );
#409 = PCURVE('',#410,#415);
#410 = CYLINDRICAL_SURFACE('',#411,3.3);
#411 = AXIS2_PLACEMENT_3D('',#412,#413,#414);
#412 = CARTESIAN_POINT('',(154.1,-35.66461936106,139.58813728906));
#413 = DIRECTION('',(1.,0.,0.));
#414 = DIRECTION('',(-0.,0.,1.));
#415 = DEFINITIONAL_REPRESENTATION('',(#416),#420);
#416 = LINE('',#417,#418);
#417 = CARTESIAN_POINT('',(0.,1.));
#418 = VECTOR('',#419,1.);
#419 = DIRECTION('',(1.,0.));
#420 = ( GEOMETRIC_REPRESENTATION_CONTEXT(2) 
PARAMETRIC_REPRESENTATION_CONTEXT() REPRESENTATION_CONTEXT('2D SPACE',''
  ) );
#421 = ADVANCED_FACE('',(#422),#127,.T.);
#422 = FACE_BOUND('',#423,.T.);
#423 = EDGE_LOOP('',(#424,#446,#447,#448));
#424 = ORIENTED_EDGE('',*,*,#425,.F.);
#425 = EDGE_CURVE('',#142,#86,#426,.T.);
#426 = SURFACE_CURVE('',#427,(#432,#439),.PCURVE_S1.);
#427 = CIRCLE('',#428,5.);
#428 = AXIS2_PLACEMENT_3D('',#429,#430,#431);
#429 = CARTESIAN_POINT('',(164.1,0.,84.));
#430 = DIRECTION('',(1.,0.,0.));
#431 = DIRECTION('',(-0.,0.,1.));
#432 = PCURVE('',#127,#433);
#433 = DEFINITIONAL_REPRESENTATION('',(#434),#438);
#434 = LINE('',#435,#436);
#435 = CARTESIAN_POINT('',(0.,9.));
#436 = VECTOR('',#437,1.);
#437 = DIRECTION('',(1.,0.));
#438 = ( GEOMETRIC_REPRESENTATION_CONTEXT(2) 
PARAMETRIC_REPRESENTATION_CONTEXT() REPRESENTATION_CONTEXT('2D SPACE',''
  ) );
#439 = PCURVE('',#102,#440);
#440 = DEFINITIONAL_REPRESENTATION('',(#441),#445);
#441 = CIRCLE('',#442,5.);
#442 = AXIS2_PLACEMENT_2D('',#443,#444);
#443 = CARTESIAN_POINT('',(-44.,0.));
#444 = DIRECTION('',(1.,0.));
#445 = ( GEOMETRIC_REPRESENTATION_CONTEXT(2) 
PARAMETRIC_REPRESENTATION_CONTEXT() REPRESENTATION_CONTEXT('2D SPACE',''
  ) );
#446 = ORIENTED_EDGE('',*,*,#190,.F.);
#447 = ORIENTED_EDGE('',*,*,#214,.T.);
#448 = ORIENTED_EDGE('',*,*,#114,.T.);
#449 = ADVANCED_FACE('',(#450,#455,#481,#507,#533,#559),#102,.T.);
#450 = FACE_BOUND('',#451,.T.);
#451 = EDGE_LOOP('',(#452,#453,#454));
#452 = ORIENTED_EDGE('',*,*,#85,.T.);
#453 = ORIENTED_EDGE('',*,*,#141,.T.);
#454 = ORIENTED_EDGE('',*,*,#425,.T.);
#455 = FACE_BOUND('',#456,.T.);
#456 = EDGE_LOOP('',(#457));
#457 = ORIENTED_EDGE('',*,*,#458,.F.);
#458 = EDGE_CURVE('',#459,#459,#461,.T.);
#459 = VERTEX_POINT('',#460);
#460 = CARTESIAN_POINT('',(164.1,22.041946960968,100.96186271093));
#461 = SURFACE_CURVE('',#462,(#467,#474),.PCURVE_S1.);
#462 = CIRCLE('',#463,3.3);
#463 = AXIS2_PLACEMENT_3D('',#464,#465,#466);
#464 = CARTESIAN_POINT('',(164.1,22.041946960968,97.661862710939));
#465 = DIRECTION('',(1.,0.,0.));
#466 = DIRECTION('',(-0.,0.,1.));
#467 = PCURVE('',#102,#468);
#468 = DEFINITIONAL_REPRESENTATION('',(#469),#473);
#469 = CIRCLE('',#470,3.3);
#470 = AXIS2_PLACEMENT_2D('',#471,#472);
#471 = CARTESIAN_POINT('',(-30.33813728906,-22.04194696096));
#472 = DIRECTION('',(1.,0.));
#473 = ( GEOMETRIC_REPRESENTATION_CONTEXT(2) 
PARAMETRIC_REPRESENTATION_CONTEXT() REPRESENTATION_CONTEXT('2D SPACE',''
  ) );
#474 = PCURVE('',#255,#475);
#475 = DEFINITIONAL_REPRESENTATION('',(#476),#480);
#476 = LINE('',#477,#478);
#477 = CARTESIAN_POINT('',(0.,10.));
#478 = VECTOR('',#479,1.);
#479 = DIRECTION('',(1.,0.));
#480 = ( GEOMETRIC_REPRESENTATION_CONTEXT(2) 
PARAMETRIC_REPRESENTATION_CONTEXT() REPRESENTATION_CONTEXT('2D SPACE',''
  ) );
#481 = FACE_BOUND('',#482,.T.);
#482 = EDGE_LOOP('',(#483));
#483 = ORIENTED_EDGE('',*,*,#484,.F.);
#484 = EDGE_CURVE('',#485,#485,#487,.T.);
#485 = VERTEX_POINT('',#486);
#486 = CARTESIAN_POINT('',(164.1,35.664619361068,142.88813728906));
#487 = SURFACE_CURVE('',#488,(#493,#500),.PCURVE_S1.);
#488 = CIRCLE('',#489,3.3);
#489 = AXIS2_PLACEMENT_3D('',#490,#491,#492);
#490 = CARTESIAN_POINT('',(164.1,35.664619361068,139.58813728906));
#491 = DIRECTION('',(1.,0.,0.));
#492 = DIRECTION('',(-0.,0.,1.));
#493 = PCURVE('',#102,#494);
#494 = DEFINITIONAL_REPRESENTATION('',(#495),#499);
#495 = CIRCLE('',#496,3.3);
#496 = AXIS2_PLACEMENT_2D('',#497,#498);
#497 = CARTESIAN_POINT('',(11.588137289061,-35.66461936106));
#498 = DIRECTION('',(1.,0.));
#499 = ( GEOMETRIC_REPRESENTATION_CONTEXT(2) 
PARAMETRIC_REPRESENTATION_CONTEXT() REPRESENTATION_CONTEXT('2D SPACE',''
  ) );
#500 = PCURVE('',#317,#501);
#501 = DEFINITIONAL_REPRESENTATION('',(#502),#506);
#502 = LINE('',#503,#504);
#503 = CARTESIAN_POINT('',(0.,10.));
#504 = VECTOR('',#505,1.);
#505 = DIRECTION('',(1.,0.));
#506 = ( GEOMETRIC_REPRESENTATION_CONTEXT(2) 
PARAMETRIC_REPRESENTATION_CONTEXT() REPRESENTATION_CONTEXT('2D SPACE',''
  ) );
#507 = FACE_BOUND('',#508,.T.);
#508 = EDGE_LOOP('',(#509));
#509 = ORIENTED_EDGE('',*,*,#510,.F.);
#510 = EDGE_CURVE('',#511,#511,#513,.T.);
#511 = VERTEX_POINT('',#512);
#512 = CARTESIAN_POINT('',(164.1,8.082668874373E-16,168.8));
#513 = SURFACE_CURVE('',#514,(#519,#526),.PCURVE_S1.);
#514 = CIRCLE('',#515,3.3);
#515 = AXIS2_PLACEMENT_3D('',#516,#517,#518);
#516 = CARTESIAN_POINT('',(164.1,0.,165.5));
#517 = DIRECTION('',(1.,0.,0.));
#518 = DIRECTION('',(-0.,0.,1.));
#519 = PCURVE('',#102,#520);
#520 = DEFINITIONAL_REPRESENTATION('',(#521),#525);
#521 = CIRCLE('',#522,3.3);
#522 = AXIS2_PLACEMENT_2D('',#523,#524);
#523 = CARTESIAN_POINT('',(37.5,0.));
#524 = DIRECTION('',(1.,0.));
#525 = ( GEOMETRIC_REPRESENTATION_CONTEXT(2) 
PARAMETRIC_REPRESENTATION_CONTEXT() REPRESENTATION_CONTEXT('2D SPACE',''
  ) );
#526 = PCURVE('',#348,#527);
#527 = DEFINITIONAL_REPRESENTATION('',(#528),#532);
#528 = LINE('',#529,#530);
#529 = CARTESIAN_POINT('',(0.,10.));
#530 = VECTOR('',#531,1.);
#531 = DIRECTION('',(1.,0.));
#532 = ( GEOMETRIC_REPRESENTATION_CONTEXT(2) 
PARAMETRIC_REPRESENTATION_CONTEXT() REPRESENTATION_CONTEXT('2D SPACE',''
  ) );
#533 = FACE_BOUND('',#534,.T.);
#534 = EDGE_LOOP('',(#535));
#535 = ORIENTED_EDGE('',*,*,#536,.F.);
#536 = EDGE_CURVE('',#537,#537,#539,.T.);
#537 = VERTEX_POINT('',#538);
#538 = CARTESIAN_POINT('',(164.1,-22.04194696096,100.96186271093));
#539 = SURFACE_CURVE('',#540,(#545,#552),.PCURVE_S1.);
#540 = CIRCLE('',#541,3.3);
#541 = AXIS2_PLACEMENT_3D('',#542,#543,#544);
#542 = CARTESIAN_POINT('',(164.1,-22.04194696096,97.661862710939));
#543 = DIRECTION('',(1.,0.,0.));
#544 = DIRECTION('',(-0.,0.,1.));
#545 = PCURVE('',#102,#546);
#546 = DEFINITIONAL_REPRESENTATION('',(#547),#551);
#547 = CIRCLE('',#548,3.3);
#548 = AXIS2_PLACEMENT_2D('',#549,#550);
#549 = CARTESIAN_POINT('',(-30.33813728906,22.041946960968));
#550 = DIRECTION('',(1.,0.));
#551 = ( GEOMETRIC_REPRESENTATION_CONTEXT(2) 
PARAMETRIC_REPRESENTATION_CONTEXT() REPRESENTATION_CONTEXT('2D SPACE',''
  ) );
#552 = PCURVE('',#379,#553);
#553 = DEFINITIONAL_REPRESENTATION('',(#554),#558);
#554 = LINE('',#555,#556);
#555 = CARTESIAN_POINT('',(0.,10.));
#556 = VECTOR('',#557,1.);
#557 = DIRECTION('',(1.,0.));
#558 = ( GEOMETRIC_REPRESENTATION_CONTEXT(2) 
PARAMETRIC_REPRESENTATION_CONTEXT() REPRESENTATION_CONTEXT('2D SPACE',''
  ) );
#559 = FACE_BOUND('',#560,.T.);
#560 = EDGE_LOOP('',(#561));
#561 = ORIENTED_EDGE('',*,*,#562,.F.);
#562 = EDGE_CURVE('',#563,#563,#565,.T.);
#563 = VERTEX_POINT('',#564);
#564 = CARTESIAN_POINT('',(164.1,-35.66461936106,142.88813728906));
#565 = SURFACE_CURVE('',#566,(#571,#578),.PCURVE_S1.);
#566 = CIRCLE('',#567,3.3);
#567 = AXIS2_PLACEMENT_3D('',#568,#569,#570);
#568 = CARTESIAN_POINT('',(164.1,-35.66461936106,139.58813728906));
#569 = DIRECTION('',(1.,0.,0.));
#570 = DIRECTION('',(-0.,0.,1.));
#571 = PCURVE('',#102,#572);
#572 = DEFINITIONAL_REPRESENTATION('',(#573),#577);
#573 = CIRCLE('',#574,3.3);
#574 = AXIS2_PLACEMENT_2D('',#575,#576);
#575 = CARTESIAN_POINT('',(11.588137289061,35.664619361068));
#576 = DIRECTION('',(1.,0.));
#577 = ( GEOMETRIC_REPRESENTATION_CONTEXT(2) 
PARAMETRIC_REPRESENTATION_CONTEXT() REPRESENTATION_CONTEXT('2D SPACE',''
  ) );
#578 = PCURVE('',#410,#579);
#579 = DEFINITIONAL_REPRESENTATION('',(#580),#584);
#580 = LINE('',#581,#582);
#581 = CARTESIAN_POINT('',(0.,10.));
#582 = VECTOR('',#583,1.);
#583 = DIRECTION('',(1.,0.));
#584 = ( GEOMETRIC_REPRESENTATION_CONTEXT(2) 
PARAMETRIC_REPRESENTATION_CONTEXT() REPRESENTATION_CONTEXT('2D SPACE',''
  ) );
#585 = ADVANCED_FACE('',(#586),#255,.F.);
#586 = FACE_BOUND('',#587,.F.);
#587 = EDGE_LOOP('',(#588,#589,#610,#611));
#588 = ORIENTED_EDGE('',*,*,#458,.F.);
#589 = ORIENTED_EDGE('',*,*,#590,.F.);
#590 = EDGE_CURVE('',#239,#459,#591,.T.);
#591 = SEAM_CURVE('',#592,(#596,#603),.PCURVE_S1.);
#592 = LINE('',#593,#594);
#593 = CARTESIAN_POINT('',(154.1,22.041946960968,100.96186271093));
#594 = VECTOR('',#595,1.);
#595 = DIRECTION('',(1.,0.,0.));
#596 = PCURVE('',#255,#597);
#597 = DEFINITIONAL_REPRESENTATION('',(#598),#602);
#598 = LINE('',#599,#600);
#599 = CARTESIAN_POINT('',(6.28318530718,-0.));
#600 = VECTOR('',#601,1.);
#601 = DIRECTION('',(0.,1.));
#602 = ( GEOMETRIC_REPRESENTATION_CONTEXT(2) 
PARAMETRIC_REPRESENTATION_CONTEXT() REPRESENTATION_CONTEXT('2D SPACE',''
  ) );
#603 = PCURVE('',#255,#604);
#604 = DEFINITIONAL_REPRESENTATION('',(#605),#609);
#605 = LINE('',#606,#607);
#606 = CARTESIAN_POINT('',(0.,-0.));
#607 = VECTOR('',#608,1.);
#608 = DIRECTION('',(0.,1.));
#609 = ( GEOMETRIC_REPRESENTATION_CONTEXT(2) 
PARAMETRIC_REPRESENTATION_CONTEXT() REPRESENTATION_CONTEXT('2D SPACE',''
  ) );
#610 = ORIENTED_EDGE('',*,*,#238,.T.);
#611 = ORIENTED_EDGE('',*,*,#590,.T.);
#612 = ADVANCED_FACE('',(#613,#667),#286,.T.);
#613 = FACE_BOUND('',#614,.T.);
#614 = EDGE_LOOP('',(#615,#638,#639,#640));
#615 = ORIENTED_EDGE('',*,*,#616,.T.);
#616 = EDGE_CURVE('',#617,#270,#619,.T.);
#617 = VERTEX_POINT('',#618);
#618 = CARTESIAN_POINT('',(148.2,7.335634326893E-15,157.95));
#619 = SEAM_CURVE('',#620,(#624,#631),.PCURVE_S1.);
#620 = LINE('',#621,#622);
#621 = CARTESIAN_POINT('',(148.2,7.335634326893E-15,157.95));
#622 = VECTOR('',#623,1.);
#623 = DIRECTION('',(1.,0.,0.));
#624 = PCURVE('',#286,#625);
#625 = DEFINITIONAL_REPRESENTATION('',(#626),#630);
#626 = LINE('',#627,#628);
#627 = CARTESIAN_POINT('',(6.28318530718,-0.));
#628 = VECTOR('',#629,1.);
#629 = DIRECTION('',(0.,1.));
#630 = ( GEOMETRIC_REPRESENTATION_CONTEXT(2) 
PARAMETRIC_REPRESENTATION_CONTEXT() REPRESENTATION_CONTEXT('2D SPACE',''
  ) );
#631 = PCURVE('',#286,#632);
#632 = DEFINITIONAL_REPRESENTATION('',(#633),#637);
#633 = LINE('',#634,#635);
#634 = CARTESIAN_POINT('',(0.,-0.));
#635 = VECTOR('',#636,1.);
#636 = DIRECTION('',(0.,1.));
#637 = ( GEOMETRIC_REPRESENTATION_CONTEXT(2) 
PARAMETRIC_REPRESENTATION_CONTEXT() REPRESENTATION_CONTEXT('2D SPACE',''
  ) );
#638 = ORIENTED_EDGE('',*,*,#269,.F.);
#639 = ORIENTED_EDGE('',*,*,#616,.F.);
#640 = ORIENTED_EDGE('',*,*,#641,.T.);
#641 = EDGE_CURVE('',#617,#617,#642,.T.);
#642 = SURFACE_CURVE('',#643,(#648,#655),.PCURVE_S1.);
#643 = CIRCLE('',#644,29.95);
#644 = AXIS2_PLACEMENT_3D('',#645,#646,#647);
#645 = CARTESIAN_POINT('',(148.2,0.,128.));
#646 = DIRECTION('',(1.,0.,0.));
#647 = DIRECTION('',(-0.,0.,1.));
#648 = PCURVE('',#286,#649);
#649 = DEFINITIONAL_REPRESENTATION('',(#650),#654);
#650 = LINE('',#651,#652);
#651 = CARTESIAN_POINT('',(0.,0.));
#652 = VECTOR('',#653,1.);
#653 = DIRECTION('',(1.,0.));
#654 = ( GEOMETRIC_REPRESENTATION_CONTEXT(2) 
PARAMETRIC_REPRESENTATION_CONTEXT() REPRESENTATION_CONTEXT('2D SPACE',''
  ) );
#655 = PCURVE('',#656,#661);
#656 = PLANE('',#657);
#657 = AXIS2_PLACEMENT_3D('',#658,#659,#660);
#658 = CARTESIAN_POINT('',(148.2,0.,128.));
#659 = DIRECTION('',(1.,0.,0.));
#660 = DIRECTION('',(-0.,0.,1.));
#661 = DEFINITIONAL_REPRESENTATION('',(#662),#666);
#662 = CIRCLE('',#663,29.95);
#663 = AXIS2_PLACEMENT_2D('',#664,#665);
#664 = CARTESIAN_POINT('',(0.,0.));
#665 = DIRECTION('',(1.,0.));
#666 = ( GEOMETRIC_REPRESENTATION_CONTEXT(2) 
PARAMETRIC_REPRESENTATION_CONTEXT() REPRESENTATION_CONTEXT('2D SPACE',''
  ) );
#667 = FACE_BOUND('',#668,.T.);
#668 = EDGE_LOOP('',(#669));
#669 = ORIENTED_EDGE('',*,*,#670,.T.);
#670 = EDGE_CURVE('',#671,#671,#673,.T.);
#671 = VERTEX_POINT('',#672);
#672 = CARTESIAN_POINT('',(153.5,-4.898587196589E-16,98.05));
#673 = SURFACE_CURVE('',#674,(#725,#779),.PCURVE_S1.);
#674 = B_SPLINE_CURVE_WITH_KNOTS('',7,(#675,#676,#677,#678,#679,#680,
    #681,#682,#683,#684,#685,#686,#687,#688,#689,#690,#691,#692,#693,
    #694,#695,#696,#697,#698,#699,#700,#701,#702,#703,#704,#705,#706,
    #707,#708,#709,#710,#711,#712,#713,#714,#715,#716,#717,#718,#719,
    #720,#721,#722,#723,#724),.UNSPECIFIED.,.T.,.F.,(8,6,6,6,6,6,6,6,8),
  (0.,0.126949690191,0.248173760052,0.369402849715,0.46357848436,
    0.581743372189,0.686812866855,0.840543687833,1.),.UNSPECIFIED.);
#675 = CARTESIAN_POINT('',(153.5,-1.998401444325E-15,98.05));
#676 = CARTESIAN_POINT('',(153.5,0.276423277168,98.05));
#677 = CARTESIAN_POINT('',(153.45542809011,0.544971363631,
    98.052976473099));
#678 = CARTESIAN_POINT('',(153.37085216086,0.797425641358,
    98.058623990103));
#679 = CARTESIAN_POINT('',(153.25235437996,1.027084094465,
    98.066121885863));
#680 = CARTESIAN_POINT('',(153.1074555738,1.228964096404,98.074368418774
    ));
#681 = CARTESIAN_POINT('',(152.94497092651,1.400288544116,
    98.082420690522));
#682 = CARTESIAN_POINT('',(152.61239783106,1.675416935966,
    98.096595731829));
#683 = CARTESIAN_POINT('',(152.43877002018,1.785402425858,
    98.102968707844));
#684 = CARTESIAN_POINT('',(152.25755549926,1.871998264198,
    98.108381783254));
#685 = CARTESIAN_POINT('',(152.07130521786,1.936184120174,
    98.112581513268));
#686 = CARTESIAN_POINT('',(151.88194089486,1.978713950404,
    98.115427964291));
#687 = CARTESIAN_POINT('',(151.69102584561,2.,98.116852575406));
#688 = CARTESIAN_POINT('',(151.30896624414,2.,98.116852575406));
#689 = CARTESIAN_POINT('',(151.11805321086,1.978712216792,
    98.115427849172));
#690 = CARTESIAN_POINT('',(150.9286934694,1.936182743384,98.112581418722
    ));
#691 = CARTESIAN_POINT('',(150.74244576921,1.871998575982,
    98.108381822495));
#692 = CARTESIAN_POINT('',(150.56123066385,1.785403270503,
    98.102968744445));
#693 = CARTESIAN_POINT('',(150.38760143443,1.675416328338,
    98.096595700523));
#694 = CARTESIAN_POINT('',(150.09895477941,1.436627048342,
    98.084292906599));
#695 = CARTESIAN_POINT('',(149.97861707639,1.316765930475,98.07854373223
    ));
#696 = CARTESIAN_POINT('',(149.8668874925,1.181336367279,98.072645671606
    ));
#697 = CARTESIAN_POINT('',(149.7665590742,1.030665654983,98.066895139093
    ));
#698 = CARTESIAN_POINT('',(149.68047752138,0.865523633697,
    98.061648464646));
#699 = CARTESIAN_POINT('',(149.61156129979,0.687161332165,98.0572824166)
  );
#700 = CARTESIAN_POINT('',(149.50169372348,0.25925537434,98.050175200456
    ));
#701 = CARTESIAN_POINT('',(149.47357376078,7.961359808576E-03,
    98.048211714072));
#702 = CARTESIAN_POINT('',(149.48318740455,-0.24756613033,
    98.048822449268));
#703 = CARTESIAN_POINT('',(149.53093921609,-0.497241839527,
    98.052169925901));
#704 = CARTESIAN_POINT('',(149.61309944815,-0.731289683344,
    98.057645835768));
#705 = CARTESIAN_POINT('',(149.72195562876,-0.941878129135,
    98.064258124869));
#706 = CARTESIAN_POINT('',(149.95599295767,-1.286253600867,
    98.077193298662));
#707 = CARTESIAN_POINT('',(150.0806248549,-1.429786157888,
    98.083610367554));
#708 = CARTESIAN_POINT('',(150.21624328414,-1.554902001468,
    98.089938376913));
#709 = CARTESIAN_POINT('',(150.36015222184,-1.662076434432,
    98.095853889506));
#710 = CARTESIAN_POINT('',(150.51023484881,-1.751909419515,
    98.101125440106));
#711 = CARTESIAN_POINT('',(150.66480472347,-1.824979046962,
    98.10559937868));
#712 = CARTESIAN_POINT('',(151.05328893536,-1.96484196937,
    98.114404376868));
#713 = CARTESIAN_POINT('',(151.29090084512,-2.013092418395,
    98.117712410174));
#714 = CARTESIAN_POINT('',(151.53152494507,-2.028063826897,
    98.11878799458));
#715 = CARTESIAN_POINT('',(151.77235272681,-2.010273745224,
    98.117541255895));
#716 = CARTESIAN_POINT('',(152.01049768652,-1.959344302717,
    98.114019528874));
#717 = CARTESIAN_POINT('',(152.24257248964,-1.874073326411,
    98.108443460032));
#718 = CARTESIAN_POINT('',(152.69267061911,-1.626629785795,
    98.093938709041));
#719 = CARTESIAN_POINT('',(152.91833684879,-1.457044441306,
    98.084619423364));
#720 = CARTESIAN_POINT('',(153.12575847759,-1.240724762022,
    98.073955360255));
#721 = CARTESIAN_POINT('',(153.30068279878,-0.979299379232,
    98.063309213753));
#722 = CARTESIAN_POINT('',(153.42958530974,-0.678517069765,
    98.054702294941));
#723 = CARTESIAN_POINT('',(153.5,-0.347436117503,98.05));
#724 = CARTESIAN_POINT('',(153.5,-1.998401444325E-15,98.05));
#725 = PCURVE('',#286,#726);
#726 = DEFINITIONAL_REPRESENTATION('',(#727),#778);
#727 = B_SPLINE_CURVE_WITH_KNOTS('',7,(#728,#729,#730,#731,#732,#733,
    #734,#735,#736,#737,#738,#739,#740,#741,#742,#743,#744,#745,#746,
    #747,#748,#749,#750,#751,#752,#753,#754,#755,#756,#757,#758,#759,
    #760,#761,#762,#763,#764,#765,#766,#767,#768,#769,#770,#771,#772,
    #773,#774,#775,#776,#777),.UNSPECIFIED.,.T.,.F.,(8,6,6,6,6,6,6,6,8),
  (0.,0.126949690191,0.248173760052,0.369402849715,0.46357848436,
    0.581743372189,0.686812866855,0.840543687833,1.),.UNSPECIFIED.);
#728 = CARTESIAN_POINT('',(3.14159265359,5.3));
#729 = CARTESIAN_POINT('',(3.150822145315,5.3));
#730 = CARTESIAN_POINT('',(3.159788694005,5.255428090118));
#731 = CARTESIAN_POINT('',(3.168219160522,5.170852160868));
#732 = CARTESIAN_POINT('',(3.175890772549,5.052354379966));
#733 = CARTESIAN_POINT('',(3.182636755816,4.907455573809));
#734 = CARTESIAN_POINT('',(3.188363359771,4.744970926518));
#735 = CARTESIAN_POINT('',(3.197561800836,4.412397831068));
#736 = CARTESIAN_POINT('',(3.201240188653,4.238770020188));
#737 = CARTESIAN_POINT('',(3.204137153117,4.05755549926));
#738 = CARTESIAN_POINT('',(3.206284832881,3.871305217868));
#739 = CARTESIAN_POINT('',(3.207708037743,3.681940894866));
#740 = CARTESIAN_POINT('',(3.208420347175,3.491025845617));
#741 = CARTESIAN_POINT('',(3.208420347175,3.10896624414));
#742 = CARTESIAN_POINT('',(3.207707979734,2.918053210863));
#743 = CARTESIAN_POINT('',(3.206284786799,2.728693469407));
#744 = CARTESIAN_POINT('',(3.204137163593,2.542445769219));
#745 = CARTESIAN_POINT('',(3.201240216877,2.361230663857));
#746 = CARTESIAN_POINT('',(3.197561780521,2.187601434435));
#747 = CARTESIAN_POINT('',(3.189578274696,1.898954779417));
#748 = CARTESIAN_POINT('',(3.185571659281,1.778617076394));
#749 = CARTESIAN_POINT('',(3.181045587867,1.666887492507));
#750 = CARTESIAN_POINT('',(3.176011334753,1.566559074202));
#751 = CARTESIAN_POINT('',(3.170494842268,1.480477521382));
#752 = CARTESIAN_POINT('',(3.16453790811,1.411561299797));
#753 = CARTESIAN_POINT('',(3.150248593362,1.301693723487));
#754 = CARTESIAN_POINT('',(3.141858207745,1.273573760787));
#755 = CARTESIAN_POINT('',(3.133327112619,1.283187404553));
#756 = CARTESIAN_POINT('',(3.124990796618,1.330939216099));
#757 = CARTESIAN_POINT('',(3.117174438113,1.413099448155));
#758 = CARTESIAN_POINT('',(3.110139774899,1.52195562876));
#759 = CARTESIAN_POINT('',(3.098633320249,1.755992957675));
#760 = CARTESIAN_POINT('',(3.093836249298,1.880624854909));
#761 = CARTESIAN_POINT('',(3.089653512167,2.016243284146));
#762 = CARTESIAN_POINT('',(3.086069664676,2.160152221844));
#763 = CARTESIAN_POINT('',(3.083065088775,2.310234848812));
#764 = CARTESIAN_POINT('',(3.080620803135,2.464804723475));
#765 = CARTESIAN_POINT('',(3.075941677746,2.853288935362));
#766 = CARTESIAN_POINT('',(3.074326887205,3.090900845126));
#767 = CARTESIAN_POINT('',(3.073825706068,3.331524945077));
#768 = CARTESIAN_POINT('',(3.074421159505,3.572352726816));
#769 = CARTESIAN_POINT('',(3.0761257155,3.81049768652));
#770 = CARTESIAN_POINT('',(3.078978842947,4.042572489647));
#771 = CARTESIAN_POINT('',(3.087254913027,4.49267061911));
#772 = CARTESIAN_POINT('',(3.092925700425,4.718336848799));
#773 = CARTESIAN_POINT('',(3.100156973849,4.925758477591));
#774 = CARTESIAN_POINT('',(3.108892301846,5.100682798783));
#775 = CARTESIAN_POINT('',(3.118937658347,5.229585309749));
#776 = CARTESIAN_POINT('',(3.129992115443,5.3));
#777 = CARTESIAN_POINT('',(3.14159265359,5.3));
#778 = ( GEOMETRIC_REPRESENTATION_CONTEXT(2) 
PARAMETRIC_REPRESENTATION_CONTEXT() REPRESENTATION_CONTEXT('2D SPACE',''
  ) );
#779 = PCURVE('',#780,#785);
#780 = CYLINDRICAL_SURFACE('',#781,2.);
#781 = AXIS2_PLACEMENT_3D('',#782,#783,#784);
#782 = CARTESIAN_POINT('',(151.5,0.,97.05));
#783 = DIRECTION('',(0.,0.,1.));
#784 = DIRECTION('',(1.,0.,-0.));
#785 = DEFINITIONAL_REPRESENTATION('',(#786),#837);
#786 = B_SPLINE_CURVE_WITH_KNOTS('',7,(#787,#788,#789,#790,#791,#792,
    #793,#794,#795,#796,#797,#798,#799,#800,#801,#802,#803,#804,#805,
    #806,#807,#808,#809,#810,#811,#812,#813,#814,#815,#816,#817,#818,
    #819,#820,#821,#822,#823,#824,#825,#826,#827,#828,#829,#830,#831,
    #832,#833,#834,#835,#836),.UNSPECIFIED.,.F.,.F.,(8,6,6,6,6,6,6,6,8),
  (0.,0.126949690191,0.248173760052,0.369402849715,0.46357848436,
    0.581743372189,0.686812866855,0.840543687833,1.),.UNSPECIFIED.);
#787 = CARTESIAN_POINT('',(0.,1.));
#788 = CARTESIAN_POINT('',(0.138211638584,1.));
#789 = CARTESIAN_POINT('',(0.272485629205,1.002976473099));
#790 = CARTESIAN_POINT('',(0.403025104703,1.008623990103));
#791 = CARTESIAN_POINT('',(0.529686741333,1.016121885864));
#792 = CARTESIAN_POINT('',(0.652048602389,1.024368418774));
#793 = CARTESIAN_POINT('',(0.769250081146,1.032420690522));
#794 = CARTESIAN_POINT('',(0.985062786876,1.046595731829));
#795 = CARTESIAN_POINT('',(1.087007832119,1.052968707844));
#796 = CARTESIAN_POINT('',(1.186333879112,1.058381783254));
#797 = CARTESIAN_POINT('',(1.283720139977,1.062581513268));
#798 = CARTESIAN_POINT('',(1.379825983031,1.065427964291));
#799 = CARTESIAN_POINT('',(1.475283403986,1.066852575406));
#800 = CARTESIAN_POINT('',(1.666313204725,1.066852575406));
#801 = CARTESIAN_POINT('',(1.761769607883,1.065427849172));
#802 = CARTESIAN_POINT('',(1.857873362156,1.062581418722));
#803 = CARTESIAN_POINT('',(1.955258191205,1.058381822495));
#804 = CARTESIAN_POINT('',(2.054584294001,1.052968744445));
#805 = CARTESIAN_POINT('',(2.156530343341,1.046595700523));
#806 = CARTESIAN_POINT('',(2.34383838621,1.034292906599));
#807 = CARTESIAN_POINT('',(2.428400867243,1.02854373223));
#808 = CARTESIAN_POINT('',(2.515504186631,1.022645671606));
#809 = CARTESIAN_POINT('',(2.605132474409,1.016895139093));
#810 = CARTESIAN_POINT('',(2.697347487196,1.011648464646));
#811 = CARTESIAN_POINT('',(2.792296597281,1.0072824166));
#812 = CARTESIAN_POINT('',(3.013189327507,1.000175200456));
#813 = CARTESIAN_POINT('',(3.138384997304,0.998211714072));
#814 = CARTESIAN_POINT('',(3.263975484761,0.998822449268));
#815 = CARTESIAN_POINT('',(3.388554407177,1.002169925901));
#816 = CARTESIAN_POINT('',(3.510614539554,1.007645835768));
#817 = CARTESIAN_POINT('',(3.628295216664,1.014258124869));
#818 = CARTESIAN_POINT('',(3.836482594317,1.027193298662));
#819 = CARTESIAN_POINT('',(3.930866748327,1.033610367554));
#820 = CARTESIAN_POINT('',(4.0222549188,1.039938376913));
#821 = CARTESIAN_POINT('',(4.111127526917,1.045853889506));
#822 = CARTESIAN_POINT('',(4.197906635355,1.051125440106));
#823 = CARTESIAN_POINT('',(4.282999004918,1.05559937868));
#824 = CARTESIAN_POINT('',(4.489446104649,1.064404376868));
#825 = CARTESIAN_POINT('',(4.609400519682,1.067712410174));
#826 = CARTESIAN_POINT('',(4.728147244852,1.06878799458));
#827 = CARTESIAN_POINT('',(4.846876757724,1.067541255895));
#828 = CARTESIAN_POINT('',(4.96675923454,1.064019528874));
#829 = CARTESIAN_POINT('',(5.088983566239,1.058443460032));
#830 = CARTESIAN_POINT('',(5.345798982413,1.043938709041));
#831 = CARTESIAN_POINT('',(5.485523495017,1.034619423364));
#832 = CARTESIAN_POINT('',(5.632168660375,1.023955360255));
#833 = CARTESIAN_POINT('',(5.784982564404,1.013309213753));
#834 = CARTESIAN_POINT('',(5.943924920269,1.004702294941));
#835 = CARTESIAN_POINT('',(6.109467248428,1.));
#836 = CARTESIAN_POINT('',(6.28318530718,1.));
#837 = ( GEOMETRIC_REPRESENTATION_CONTEXT(2) 
PARAMETRIC_REPRESENTATION_CONTEXT() REPRESENTATION_CONTEXT('2D SPACE',''
  ) );
#838 = ADVANCED_FACE('',(#839),#317,.F.);
#839 = FACE_BOUND('',#840,.F.);
#840 = EDGE_LOOP('',(#841,#842,#863,#864));
#841 = ORIENTED_EDGE('',*,*,#484,.F.);
#842 = ORIENTED_EDGE('',*,*,#843,.F.);
#843 = EDGE_CURVE('',#301,#485,#844,.T.);
#844 = SEAM_CURVE('',#845,(#849,#856),.PCURVE_S1.);
#845 = LINE('',#846,#847);
#846 = CARTESIAN_POINT('',(154.1,35.664619361068,142.88813728906));
#847 = VECTOR('',#848,1.);
#848 = DIRECTION('',(1.,0.,0.));
#849 = PCURVE('',#317,#850);
#850 = DEFINITIONAL_REPRESENTATION('',(#851),#855);
#851 = LINE('',#852,#853);
#852 = CARTESIAN_POINT('',(6.28318530718,-0.));
#853 = VECTOR('',#854,1.);
#854 = DIRECTION('',(0.,1.));
#855 = ( GEOMETRIC_REPRESENTATION_CONTEXT(2) 
PARAMETRIC_REPRESENTATION_CONTEXT() REPRESENTATION_CONTEXT('2D SPACE',''
  ) );
#856 = PCURVE('',#317,#857);
#857 = DEFINITIONAL_REPRESENTATION('',(#858),#862);
#858 = LINE('',#859,#860);
#859 = CARTESIAN_POINT('',(0.,-0.));
#860 = VECTOR('',#861,1.);
#861 = DIRECTION('',(0.,1.));
#862 = ( GEOMETRIC_REPRESENTATION_CONTEXT(2) 
PARAMETRIC_REPRESENTATION_CONTEXT() REPRESENTATION_CONTEXT('2D SPACE',''
  ) );
#863 = ORIENTED_EDGE('',*,*,#300,.T.);
#864 = ORIENTED_EDGE('',*,*,#843,.T.);
#865 = ADVANCED_FACE('',(#866),#348,.F.);
#866 = FACE_BOUND('',#867,.F.);
#867 = EDGE_LOOP('',(#868,#869,#890,#891));
#868 = ORIENTED_EDGE('',*,*,#510,.F.);
#869 = ORIENTED_EDGE('',*,*,#870,.F.);
#870 = EDGE_CURVE('',#332,#511,#871,.T.);
#871 = SEAM_CURVE('',#872,(#876,#883),.PCURVE_S1.);
#872 = LINE('',#873,#874);
#873 = CARTESIAN_POINT('',(154.1,8.082668874373E-16,168.8));
#874 = VECTOR('',#875,1.);
#875 = DIRECTION('',(1.,0.,0.));
#876 = PCURVE('',#348,#877);
#877 = DEFINITIONAL_REPRESENTATION('',(#878),#882);
#878 = LINE('',#879,#880);
#879 = CARTESIAN_POINT('',(6.28318530718,-0.));
#880 = VECTOR('',#881,1.);
#881 = DIRECTION('',(0.,1.));
#882 = ( GEOMETRIC_REPRESENTATION_CONTEXT(2) 
PARAMETRIC_REPRESENTATION_CONTEXT() REPRESENTATION_CONTEXT('2D SPACE',''
  ) );
#883 = PCURVE('',#348,#884);
#884 = DEFINITIONAL_REPRESENTATION('',(#885),#889);
#885 = LINE('',#886,#887);
#886 = CARTESIAN_POINT('',(0.,-0.));
#887 = VECTOR('',#888,1.);
#888 = DIRECTION('',(0.,1.));
#889 = ( GEOMETRIC_REPRESENTATION_CONTEXT(2) 
PARAMETRIC_REPRESENTATION_CONTEXT() REPRESENTATION_CONTEXT('2D SPACE',''
  ) );
#890 = ORIENTED_EDGE('',*,*,#331,.T.);
#891 = ORIENTED_EDGE('',*,*,#870,.T.);
#892 = ADVANCED_FACE('',(#893),#379,.F.);
#893 = FACE_BOUND('',#894,.F.);
#894 = EDGE_LOOP('',(#895,#896,#917,#918));
#895 = ORIENTED_EDGE('',*,*,#536,.F.);
#896 = ORIENTED_EDGE('',*,*,#897,.F.);
#897 = EDGE_CURVE('',#363,#537,#898,.T.);
#898 = SEAM_CURVE('',#899,(#903,#910),.PCURVE_S1.);
#899 = LINE('',#900,#901);
#900 = CARTESIAN_POINT('',(154.1,-22.04194696096,100.96186271093));
#901 = VECTOR('',#902,1.);
#902 = DIRECTION('',(1.,0.,0.));
#903 = PCURVE('',#379,#904);
#904 = DEFINITIONAL_REPRESENTATION('',(#905),#909);
#905 = LINE('',#906,#907);
#906 = CARTESIAN_POINT('',(6.28318530718,-0.));
#907 = VECTOR('',#908,1.);
#908 = DIRECTION('',(0.,1.));
#909 = ( GEOMETRIC_REPRESENTATION_CONTEXT(2) 
PARAMETRIC_REPRESENTATION_CONTEXT() REPRESENTATION_CONTEXT('2D SPACE',''
  ) );
#910 = PCURVE('',#379,#911);
#911 = DEFINITIONAL_REPRESENTATION('',(#912),#916);
#912 = LINE('',#913,#914);
#913 = CARTESIAN_POINT('',(0.,-0.));
#914 = VECTOR('',#915,1.);
#915 = DIRECTION('',(0.,1.));
#916 = ( GEOMETRIC_REPRESENTATION_CONTEXT(2) 
PARAMETRIC_REPRESENTATION_CONTEXT() REPRESENTATION_CONTEXT('2D SPACE',''
  ) );
#917 = ORIENTED_EDGE('',*,*,#362,.T.);
#918 = ORIENTED_EDGE('',*,*,#897,.T.);
#919 = ADVANCED_FACE('',(#920),#410,.F.);
#920 = FACE_BOUND('',#921,.F.);
#921 = EDGE_LOOP('',(#922,#923,#944,#945));
#922 = ORIENTED_EDGE('',*,*,#562,.F.);
#923 = ORIENTED_EDGE('',*,*,#924,.F.);
#924 = EDGE_CURVE('',#394,#563,#925,.T.);
#925 = SEAM_CURVE('',#926,(#930,#937),.PCURVE_S1.);
#926 = LINE('',#927,#928);
#927 = CARTESIAN_POINT('',(154.1,-35.66461936106,142.88813728906));
#928 = VECTOR('',#929,1.);
#929 = DIRECTION('',(1.,0.,0.));
#930 = PCURVE('',#410,#931);
#931 = DEFINITIONAL_REPRESENTATION('',(#932),#936);
#932 = LINE('',#933,#934);
#933 = CARTESIAN_POINT('',(6.28318530718,-0.));
#934 = VECTOR('',#935,1.);
#935 = DIRECTION('',(0.,1.));
#936 = ( GEOMETRIC_REPRESENTATION_CONTEXT(2) 
PARAMETRIC_REPRESENTATION_CONTEXT() REPRESENTATION_CONTEXT('2D SPACE',''
  ) );
#937 = PCURVE('',#410,#938);
#938 = DEFINITIONAL_REPRESENTATION('',(#939),#943);
#939 = LINE('',#940,#941);
#940 = CARTESIAN_POINT('',(0.,-0.));
#941 = VECTOR('',#942,1.);
#942 = DIRECTION('',(0.,1.));
#943 = ( GEOMETRIC_REPRESENTATION_CONTEXT(2) 
PARAMETRIC_REPRESENTATION_CONTEXT() REPRESENTATION_CONTEXT('2D SPACE',''
  ) );
#944 = ORIENTED_EDGE('',*,*,#393,.T.);
#945 = ORIENTED_EDGE('',*,*,#924,.T.);
#946 = ADVANCED_FACE('',(#947,#950),#656,.F.);
#947 = FACE_BOUND('',#948,.F.);
#948 = EDGE_LOOP('',(#949));
#949 = ORIENTED_EDGE('',*,*,#641,.T.);
#950 = FACE_BOUND('',#951,.F.);
#951 = EDGE_LOOP('',(#952));
#952 = ORIENTED_EDGE('',*,*,#953,.F.);
#953 = EDGE_CURVE('',#954,#954,#956,.T.);
#954 = VERTEX_POINT('',#955);
#955 = CARTESIAN_POINT('',(148.2,4.898587196589E-15,148.));
#956 = SURFACE_CURVE('',#957,(#962,#969),.PCURVE_S1.);
#957 = CIRCLE('',#958,20.);
#958 = AXIS2_PLACEMENT_3D('',#959,#960,#961);
#959 = CARTESIAN_POINT('',(148.2,0.,128.));
#960 = DIRECTION('',(1.,0.,0.));
#961 = DIRECTION('',(-0.,0.,1.));
#962 = PCURVE('',#656,#963);
#963 = DEFINITIONAL_REPRESENTATION('',(#964),#968);
#964 = CIRCLE('',#965,20.);
#965 = AXIS2_PLACEMENT_2D('',#966,#967);
#966 = CARTESIAN_POINT('',(0.,0.));
#967 = DIRECTION('',(1.,0.));
#968 = ( GEOMETRIC_REPRESENTATION_CONTEXT(2) 
PARAMETRIC_REPRESENTATION_CONTEXT() REPRESENTATION_CONTEXT('2D SPACE',''
  ) );
#969 = PCURVE('',#970,#975);
#970 = CYLINDRICAL_SURFACE('',#971,20.);
#971 = AXIS2_PLACEMENT_3D('',#972,#973,#974);
#972 = CARTESIAN_POINT('',(147.2,0.,128.));
#973 = DIRECTION('',(1.,0.,0.));
#974 = DIRECTION('',(-0.,0.,1.));
#975 = DEFINITIONAL_REPRESENTATION('',(#976),#980);
#976 = LINE('',#977,#978);
#977 = CARTESIAN_POINT('',(0.,1.));
#978 = VECTOR('',#979,1.);
#979 = DIRECTION('',(1.,0.));
#980 = ( GEOMETRIC_REPRESENTATION_CONTEXT(2) 
PARAMETRIC_REPRESENTATION_CONTEXT() REPRESENTATION_CONTEXT('2D SPACE',''
  ) );
#981 = ADVANCED_FACE('',(#982),#780,.F.);
#982 = FACE_BOUND('',#983,.F.);
#983 = EDGE_LOOP('',(#984,#1148,#1169,#1170));
#984 = ORIENTED_EDGE('',*,*,#985,.F.);
#985 = EDGE_CURVE('',#986,#986,#988,.T.);
#986 = VERTEX_POINT('',#987);
#987 = CARTESIAN_POINT('',(153.5,-4.898587196589E-16,108.));
#988 = SURFACE_CURVE('',#989,(#1040,#1094),.PCURVE_S1.);
#989 = B_SPLINE_CURVE_WITH_KNOTS('',7,(#990,#991,#992,#993,#994,#995,
    #996,#997,#998,#999,#1000,#1001,#1002,#1003,#1004,#1005,#1006,#1007,
    #1008,#1009,#1010,#1011,#1012,#1013,#1014,#1015,#1016,#1017,#1018,
    #1019,#1020,#1021,#1022,#1023,#1024,#1025,#1026,#1027,#1028,#1029,
    #1030,#1031,#1032,#1033,#1034,#1035,#1036,#1037,#1038,#1039),
  .UNSPECIFIED.,.T.,.F.,(8,6,6,6,6,6,6,6,8),(0.,0.122838791303,
    0.250005556142,0.377178142442,0.500000150668,0.62285067577,
    0.750025869797,0.877200727065,1.),.UNSPECIFIED.);
#990 = CARTESIAN_POINT('',(153.5,-1.554312234475E-15,108.));
#991 = CARTESIAN_POINT('',(153.5,0.265147384562,108.));
#992 = CARTESIAN_POINT('',(153.45899021925,0.523393074005,
    108.00410107213));
#993 = CARTESIAN_POINT('',(153.38081086474,0.767301443982,
    108.01191849024));
#994 = CARTESIAN_POINT('',(153.27076675439,0.990660888439,
    108.02239993533));
#995 = CARTESIAN_POINT('',(153.13555027014,1.188734624204,
    108.03409301726));
#996 = CARTESIAN_POINT('',(152.98313102329,1.358715925854,
    108.04570150701));
#997 = CARTESIAN_POINT('',(152.65646129187,1.646714034635,
    108.06736559823));
#998 = CARTESIAN_POINT('',(152.4772677814,1.766535344154,108.07764141628
    ));
#999 = CARTESIAN_POINT('',(152.28930902919,1.860795624281,
    108.08643221133));
#1000 = CARTESIAN_POINT('',(152.0955699008,1.930611010231,
    108.09327732446));
#1001 = CARTESIAN_POINT('',(151.89827281486,1.976852173192,
    108.09792483149));
#1002 = CARTESIAN_POINT('',(151.69920512357,2.,108.10025125786));
#1003 = CARTESIAN_POINT('',(151.30078575718,2.,108.10025125786));
#1004 = CARTESIAN_POINT('',(151.10172015638,1.97685009512,108.0979246249
    ));
#1005 = CARTESIAN_POINT('',(150.90442837316,1.930609250238,
    108.09327714162));
#1006 = CARTESIAN_POINT('',(150.71069261085,1.860795930192,
    108.08643228027));
#1007 = CARTESIAN_POINT('',(150.52273359103,1.766536641141,
    108.0776415088));
#1008 = CARTESIAN_POINT('',(150.34353843879,1.646713797192,
    108.06736558037));
#1009 = CARTESIAN_POINT('',(150.01689851281,1.358741965436,
    108.04570346579));
#1010 = CARTESIAN_POINT('',(149.86446654512,1.188762586433,
    108.03409468441));
#1011 = CARTESIAN_POINT('',(149.72922453831,0.990665248841,
    108.0223995429));
#1012 = CARTESIAN_POINT('',(149.61916483379,0.767267379451,
    108.01191606612));
#1013 = CARTESIAN_POINT('',(149.54099073945,0.523327251996,
    108.00409916576));
#1014 = CARTESIAN_POINT('',(149.5,0.265085836799,108.));
#1015 = CARTESIAN_POINT('',(149.5,-0.265147384562,108.));
#1016 = CARTESIAN_POINT('',(149.54100978074,-0.523393074005,
    108.00410107213));
#1017 = CARTESIAN_POINT('',(149.61918913525,-0.767301443981,
    108.01191849024));
#1018 = CARTESIAN_POINT('',(149.7292332456,-0.990660888439,
    108.02239993533));
#1019 = CARTESIAN_POINT('',(149.86444972985,-1.188734624204,
    108.03409301726));
#1020 = CARTESIAN_POINT('',(150.0168689767,-1.358715925854,
    108.04570150701));
#1021 = CARTESIAN_POINT('',(150.34353385043,-1.646709752001,
    108.06736527608));
#1022 = CARTESIAN_POINT('',(150.52273152526,-1.766536937054,
    108.07764146231));
#1023 = CARTESIAN_POINT('',(150.71069623497,-1.860798548591,
    108.08643254732));
#1024 = CARTESIAN_POINT('',(150.90443436453,-1.930610809951,
    108.09327729875));
#1025 = CARTESIAN_POINT('',(151.1017236192,-1.976849952762,
    108.09792461002));
#1026 = CARTESIAN_POINT('',(151.30078522965,-2.,108.10025125786));
#1027 = CARTESIAN_POINT('',(151.69921424282,-2.,108.10025125786));
#1028 = CARTESIAN_POINT('',(151.89827984361,-1.97685009512,
    108.0979246249));
#1029 = CARTESIAN_POINT('',(152.09557162683,-1.930609250238,
    108.09327714162));
#1030 = CARTESIAN_POINT('',(152.28930738914,-1.860795930192,
    108.08643228027));
#1031 = CARTESIAN_POINT('',(152.47726640896,-1.766536641141,
    108.0776415088));
#1032 = CARTESIAN_POINT('',(152.6564615612,-1.646713797192,
    108.06736558037));
#1033 = CARTESIAN_POINT('',(152.9830689164,-1.358770680446,
    108.04570562582));
#1034 = CARTESIAN_POINT('',(153.1355237418,-1.188785604739,
    108.03409594169));
#1035 = CARTESIAN_POINT('',(153.2707938665,-0.990655331975,
    108.02239820626));
#1036 = CARTESIAN_POINT('',(153.38086360982,-0.76721772749,
    108.01191320186));
#1037 = CARTESIAN_POINT('',(153.45902722865,-0.523255306637,
    108.00409737379));
#1038 = CARTESIAN_POINT('',(153.5,-0.265027734618,108.));
#1039 = CARTESIAN_POINT('',(153.5,-1.554312234475E-15,108.));
#1040 = PCURVE('',#780,#1041);
#1041 = DEFINITIONAL_REPRESENTATION('',(#1042),#1093);
#1042 = B_SPLINE_CURVE_WITH_KNOTS('',7,(#1043,#1044,#1045,#1046,#1047,
    #1048,#1049,#1050,#1051,#1052,#1053,#1054,#1055,#1056,#1057,#1058,
    #1059,#1060,#1061,#1062,#1063,#1064,#1065,#1066,#1067,#1068,#1069,
    #1070,#1071,#1072,#1073,#1074,#1075,#1076,#1077,#1078,#1079,#1080,
    #1081,#1082,#1083,#1084,#1085,#1086,#1087,#1088,#1089,#1090,#1091,
    #1092),.UNSPECIFIED.,.F.,.F.,(8,6,6,6,6,6,6,6,8),(0.,0.122838791303,
    0.250005556142,0.377178142442,0.500000150668,0.62285067577,
    0.750025869797,0.877200727065,1.),.UNSPECIFIED.);
#1043 = CARTESIAN_POINT('',(0.,10.95));
#1044 = CARTESIAN_POINT('',(0.132573692281,10.95));
#1045 = CARTESIAN_POINT('',(0.261696438839,10.954101072139));
#1046 = CARTESIAN_POINT('',(0.387456783739,10.96191849024));
#1047 = CARTESIAN_POINT('',(0.509662310555,10.972399935339));
#1048 = CARTESIAN_POINT('',(0.627869912259,10.984093017262));
#1049 = CARTESIAN_POINT('',(0.741240999013,10.995701507013));
#1050 = CARTESIAN_POINT('',(0.958988573102,11.017365598237));
#1051 = CARTESIAN_POINT('',(1.065815842784,11.027641416285));
#1052 = CARTESIAN_POINT('',(1.169696951385,11.03643221133));
#1053 = CARTESIAN_POINT('',(1.271396877435,11.043277324467));
#1054 = CARTESIAN_POINT('',(1.371660067522,11.047924831496));
#1055 = CARTESIAN_POINT('',(1.471193765008,11.050251257868));
#1056 = CARTESIAN_POINT('',(1.670403448205,11.050251257868));
#1057 = CARTESIAN_POINT('',(1.769936085736,11.047924624903));
#1058 = CARTESIAN_POINT('',(1.870196881833,11.043277141621));
#1059 = CARTESIAN_POINT('',(1.971894966619,11.036432280279));
#1060 = CARTESIAN_POINT('',(2.075775874571,11.027641508804));
#1061 = CARTESIAN_POINT('',(2.182604260012,11.017365580376));
#1062 = CARTESIAN_POINT('',(2.400331966754,10.99570346579));
#1063 = CARTESIAN_POINT('',(2.513707192936,10.984094684417));
#1064 = CARTESIAN_POINT('',(2.631931040541,10.972399542905));
#1065 = CARTESIAN_POINT('',(2.754155517243,10.961916066121));
#1066 = CARTESIAN_POINT('',(2.87992913267,10.954099165768));
#1067 = CARTESIAN_POINT('',(3.00904973519,10.95));
#1068 = CARTESIAN_POINT('',(3.274166345871,10.95));
#1069 = CARTESIAN_POINT('',(3.403289092429,10.954101072139));
#1070 = CARTESIAN_POINT('',(3.529049437328,10.96191849024));
#1071 = CARTESIAN_POINT('',(3.651254964145,10.972399935339));
#1072 = CARTESIAN_POINT('',(3.769462565849,10.984093017262));
#1073 = CARTESIAN_POINT('',(3.882833652603,10.995701507013));
#1074 = CARTESIAN_POINT('',(4.100577988707,11.017365276084));
#1075 = CARTESIAN_POINT('',(4.207408753216,11.027641462318));
#1076 = CARTESIAN_POINT('',(4.311292394199,11.036432547326));
#1077 = CARTESIAN_POINT('',(4.412991433815,11.043277298752));
#1078 = CARTESIAN_POINT('',(4.513250942792,11.047924610028));
#1079 = CARTESIAN_POINT('',(4.612781595214,11.050251257868));
#1080 = CARTESIAN_POINT('',(4.811996101795,11.050251257868));
#1081 = CARTESIAN_POINT('',(4.911528739325,11.047924624903));
#1082 = CARTESIAN_POINT('',(5.011789535423,11.043277141621));
#1083 = CARTESIAN_POINT('',(5.113487620209,11.036432280278));
#1084 = CARTESIAN_POINT('',(5.217368528161,11.027641508804));
#1085 = CARTESIAN_POINT('',(5.324196913602,11.017365580376));
#1086 = CARTESIAN_POINT('',(5.541902909702,10.99570562582));
#1087 = CARTESIAN_POINT('',(5.655288601091,10.984095941691));
#1088 = CARTESIAN_POINT('',(5.773532619879,10.97239820626));
#1089 = CARTESIAN_POINT('',(5.8957754706,10.961913201867));
#1090 = CARTESIAN_POINT('',(6.021557764105,10.95409737379));
#1091 = CARTESIAN_POINT('',(6.150671439871,10.95));
#1092 = CARTESIAN_POINT('',(6.28318530718,10.95));
#1093 = ( GEOMETRIC_REPRESENTATION_CONTEXT(2) 
PARAMETRIC_REPRESENTATION_CONTEXT() REPRESENTATION_CONTEXT('2D SPACE',''
  ) );
#1094 = PCURVE('',#970,#1095);
#1095 = DEFINITIONAL_REPRESENTATION('',(#1096),#1147);
#1096 = B_SPLINE_CURVE_WITH_KNOTS('',7,(#1097,#1098,#1099,#1100,#1101,
    #1102,#1103,#1104,#1105,#1106,#1107,#1108,#1109,#1110,#1111,#1112,
    #1113,#1114,#1115,#1116,#1117,#1118,#1119,#1120,#1121,#1122,#1123,
    #1124,#1125,#1126,#1127,#1128,#1129,#1130,#1131,#1132,#1133,#1134,
    #1135,#1136,#1137,#1138,#1139,#1140,#1141,#1142,#1143,#1144,#1145,
    #1146),.UNSPECIFIED.,.T.,.F.,(8,6,6,6,6,6,6,6,8),(0.,0.122838791303,
    0.250005556142,0.377178142442,0.500000150668,0.62285067577,
    0.750025869797,0.877200727065,1.),.UNSPECIFIED.);
#1097 = CARTESIAN_POINT('',(3.14159265359,6.3));
#1098 = CARTESIAN_POINT('',(3.154850022818,6.3));
#1099 = CARTESIAN_POINT('',(3.167762311728,6.258990219257));
#1100 = CARTESIAN_POINT('',(3.179961511142,6.180810864747));
#1101 = CARTESIAN_POINT('',(3.191140083904,6.070766754396));
#1102 = CARTESIAN_POINT('',(3.201060327595,5.935550270141));
#1103 = CARTESIAN_POINT('',(3.209578982733,5.783131023293));
#1104 = CARTESIAN_POINT('',(3.224019571668,5.456461291875));
#1105 = CARTESIAN_POINT('',(3.230032298663,5.277267781402));
#1106 = CARTESIAN_POINT('',(3.234765651729,5.089309029199));
#1107 = CARTESIAN_POINT('',(3.238273145605,4.8955699008));
#1108 = CARTESIAN_POINT('',(3.24059685294,4.698272814862));
#1109 = CARTESIAN_POINT('',(3.241760074751,4.499205123575));
#1110 = CARTESIAN_POINT('',(3.241760074751,4.10078575718));
#1111 = CARTESIAN_POINT('',(3.240596748532,3.901720156382));
#1112 = CARTESIAN_POINT('',(3.238273057118,3.704428373163));
#1113 = CARTESIAN_POINT('',(3.234765667292,3.510692610856));
#1114 = CARTESIAN_POINT('',(3.230032363661,3.322733591034));
#1115 = CARTESIAN_POINT('',(3.224019559762,3.143538438799));
#1116 = CARTESIAN_POINT('',(3.209580288391,2.816898512815));
#1117 = CARTESIAN_POINT('',(3.201061728127,2.664466545129));
#1118 = CARTESIAN_POINT('',(3.191140299771,2.529224538315));
#1119 = CARTESIAN_POINT('',(3.179959805131,2.41916483379));
#1120 = CARTESIAN_POINT('',(3.167759020614,2.34099073945));
#1121 = CARTESIAN_POINT('',(3.15484694543,2.3));
#1122 = CARTESIAN_POINT('',(3.128335284362,2.3));
#1123 = CARTESIAN_POINT('',(3.115422995452,2.341009780743));
#1124 = CARTESIAN_POINT('',(3.103223796038,2.419189135252));
#1125 = CARTESIAN_POINT('',(3.092045223276,2.529233245604));
#1126 = CARTESIAN_POINT('',(3.082124979585,2.664449729859));
#1127 = CARTESIAN_POINT('',(3.073606324446,2.816868976707));
#1128 = CARTESIAN_POINT('',(3.059165950249,3.14353385043));
#1129 = CARTESIAN_POINT('',(3.053152928944,3.32273152526));
#1130 = CARTESIAN_POINT('',(3.048419508357,3.510696234979));
#1131 = CARTESIAN_POINT('',(3.04491217164,3.704434364532));
#1132 = CARTESIAN_POINT('',(3.042588565817,3.901723619204));
#1133 = CARTESIAN_POINT('',(3.041425232428,4.100785229659));
#1134 = CARTESIAN_POINT('',(3.041425232428,4.49921424282));
#1135 = CARTESIAN_POINT('',(3.042588558647,4.698279843617));
#1136 = CARTESIAN_POINT('',(3.044912250062,4.895571626837));
#1137 = CARTESIAN_POINT('',(3.048419639887,5.089307389144));
#1138 = CARTESIAN_POINT('',(3.053152943519,5.277266408966));
#1139 = CARTESIAN_POINT('',(3.059165747418,5.456461561201));
#1140 = CARTESIAN_POINT('',(3.073603578982,5.7830689164));
#1141 = CARTESIAN_POINT('',(3.082122426656,5.935523741807));
#1142 = CARTESIAN_POINT('',(3.092045506607,6.070793866506));
#1143 = CARTESIAN_POINT('',(3.10322798745,6.180863609825));
#1144 = CARTESIAN_POINT('',(3.115429883745,6.259027228657));
#1145 = CARTESIAN_POINT('',(3.128341266859,6.3));
#1146 = CARTESIAN_POINT('',(3.14159265359,6.3));
#1147 = ( GEOMETRIC_REPRESENTATION_CONTEXT(2) 
PARAMETRIC_REPRESENTATION_CONTEXT() REPRESENTATION_CONTEXT('2D SPACE',''
  ) );
#1148 = ORIENTED_EDGE('',*,*,#1149,.F.);
#1149 = EDGE_CURVE('',#671,#986,#1150,.T.);
#1150 = SEAM_CURVE('',#1151,(#1155,#1162),.PCURVE_S1.);
#1151 = LINE('',#1152,#1153);
#1152 = CARTESIAN_POINT('',(153.5,-4.898587196589E-16,97.05));
#1153 = VECTOR('',#1154,1.);
#1154 = DIRECTION('',(0.,0.,1.));
#1155 = PCURVE('',#780,#1156);
#1156 = DEFINITIONAL_REPRESENTATION('',(#1157),#1161);
#1157 = LINE('',#1158,#1159);
#1158 = CARTESIAN_POINT('',(6.28318530718,-0.));
#1159 = VECTOR('',#1160,1.);
#1160 = DIRECTION('',(0.,1.));
#1161 = ( GEOMETRIC_REPRESENTATION_CONTEXT(2) 
PARAMETRIC_REPRESENTATION_CONTEXT() REPRESENTATION_CONTEXT('2D SPACE',''
  ) );
#1162 = PCURVE('',#780,#1163);
#1163 = DEFINITIONAL_REPRESENTATION('',(#1164),#1168);
#1164 = LINE('',#1165,#1166);
#1165 = CARTESIAN_POINT('',(0.,-0.));
#1166 = VECTOR('',#1167,1.);
#1167 = DIRECTION('',(0.,1.));
#1168 = ( GEOMETRIC_REPRESENTATION_CONTEXT(2) 
PARAMETRIC_REPRESENTATION_CONTEXT() REPRESENTATION_CONTEXT('2D SPACE',''
  ) );
#1169 = ORIENTED_EDGE('',*,*,#670,.T.);
#1170 = ORIENTED_EDGE('',*,*,#1149,.T.);
#1171 = ADVANCED_FACE('',(#1172,#1226),#970,.F.);
#1172 = FACE_BOUND('',#1173,.F.);
#1173 = EDGE_LOOP('',(#1174,#1175,#1198,#1225));
#1174 = ORIENTED_EDGE('',*,*,#953,.T.);
#1175 = ORIENTED_EDGE('',*,*,#1176,.T.);
#1176 = EDGE_CURVE('',#954,#1177,#1179,.T.);
#1177 = VERTEX_POINT('',#1178);
#1178 = CARTESIAN_POINT('',(155.,4.898587196589E-15,148.));
#1179 = SEAM_CURVE('',#1180,(#1184,#1191),.PCURVE_S1.);
#1180 = LINE('',#1181,#1182);
#1181 = CARTESIAN_POINT('',(147.2,4.898587196589E-15,148.));
#1182 = VECTOR('',#1183,1.);
#1183 = DIRECTION('',(1.,0.,0.));
#1184 = PCURVE('',#970,#1185);
#1185 = DEFINITIONAL_REPRESENTATION('',(#1186),#1190);
#1186 = LINE('',#1187,#1188);
#1187 = CARTESIAN_POINT('',(0.,-0.));
#1188 = VECTOR('',#1189,1.);
#1189 = DIRECTION('',(0.,1.));
#1190 = ( GEOMETRIC_REPRESENTATION_CONTEXT(2) 
PARAMETRIC_REPRESENTATION_CONTEXT() REPRESENTATION_CONTEXT('2D SPACE',''
  ) );
#1191 = PCURVE('',#970,#1192);
#1192 = DEFINITIONAL_REPRESENTATION('',(#1193),#1197);
#1193 = LINE('',#1194,#1195);
#1194 = CARTESIAN_POINT('',(6.28318530718,-0.));
#1195 = VECTOR('',#1196,1.);
#1196 = DIRECTION('',(0.,1.));
#1197 = ( GEOMETRIC_REPRESENTATION_CONTEXT(2) 
PARAMETRIC_REPRESENTATION_CONTEXT() REPRESENTATION_CONTEXT('2D SPACE',''
  ) );
#1198 = ORIENTED_EDGE('',*,*,#1199,.F.);
#1199 = EDGE_CURVE('',#1177,#1177,#1200,.T.);
#1200 = SURFACE_CURVE('',#1201,(#1206,#1213),.PCURVE_S1.);
#1201 = CIRCLE('',#1202,20.);
#1202 = AXIS2_PLACEMENT_3D('',#1203,#1204,#1205);
#1203 = CARTESIAN_POINT('',(155.,0.,128.));
#1204 = DIRECTION('',(1.,0.,0.));
#1205 = DIRECTION('',(-0.,0.,1.));
#1206 = PCURVE('',#970,#1207);
#1207 = DEFINITIONAL_REPRESENTATION('',(#1208),#1212);
#1208 = LINE('',#1209,#1210);
#1209 = CARTESIAN_POINT('',(0.,7.8));
#1210 = VECTOR('',#1211,1.);
#1211 = DIRECTION('',(1.,0.));
#1212 = ( GEOMETRIC_REPRESENTATION_CONTEXT(2) 
PARAMETRIC_REPRESENTATION_CONTEXT() REPRESENTATION_CONTEXT('2D SPACE',''
  ) );
#1213 = PCURVE('',#1214,#1219);
#1214 = PLANE('',#1215);
#1215 = AXIS2_PLACEMENT_3D('',#1216,#1217,#1218);
#1216 = CARTESIAN_POINT('',(155.,0.,128.));
#1217 = DIRECTION('',(1.,0.,0.));
#1218 = DIRECTION('',(-0.,0.,1.));
#1219 = DEFINITIONAL_REPRESENTATION('',(#1220),#1224);
#1220 = CIRCLE('',#1221,20.);
#1221 = AXIS2_PLACEMENT_2D('',#1222,#1223);
#1222 = CARTESIAN_POINT('',(0.,0.));
#1223 = DIRECTION('',(1.,0.));
#1224 = ( GEOMETRIC_REPRESENTATION_CONTEXT(2) 
PARAMETRIC_REPRESENTATION_CONTEXT() REPRESENTATION_CONTEXT('2D SPACE',''
  ) );
#1225 = ORIENTED_EDGE('',*,*,#1176,.F.);
#1226 = FACE_BOUND('',#1227,.F.);
#1227 = EDGE_LOOP('',(#1228));
#1228 = ORIENTED_EDGE('',*,*,#985,.T.);
#1229 = ADVANCED_FACE('',(#1230),#1214,.F.);
#1230 = FACE_BOUND('',#1231,.F.);
#1231 = EDGE_LOOP('',(#1232));
#1232 = ORIENTED_EDGE('',*,*,#1199,.T.);
#1233 = ( GEOMETRIC_REPRESENTATION_CONTEXT(3) 
GLOBAL_UNCERTAINTY_ASSIGNED_CONTEXT((#1237)) 
GLOBAL_UNIT_ASSIGNED_CONTEXT((#1234,#1235,#1236)) REPRESENTATION_CONTEXT
('Context #1','3D Context with UNIT and UNCERTAINTY') );
#1234 = ( LENGTH_UNIT() NAMED_UNIT(*) SI_UNIT(.MILLI.,.METRE.) );
#1235 = ( NAMED_UNIT(*) PLANE_ANGLE_UNIT() SI_UNIT($,.RADIAN.) );
#1236 = ( NAMED_UNIT(*) SI_UNIT($,.STERADIAN.) SOLID_ANGLE_UNIT() );
#1237 = UNCERTAINTY_MEASURE_WITH_UNIT(LENGTH_MEASURE(1.E-07),#1234,
  'distance_accuracy_value','confusion accuracy');
#1238 = PRODUCT_RELATED_PRODUCT_CATEGORY('part',$,(#7));
ENDSEC;
END-ISO-10303-21;
