ISO-10303-21;
HEADER;
FILE_DESCRIPTION(('Open CASCADE Model'),'2;1');
FILE_NAME('Open CASCADE Shape Model','2026-09-23T01:45:34',('Author'),(
    'Open CASCADE'),'Open CASCADE STEP processor 7.9','Open CASCADE 7.9'
  ,'Unknown');
FILE_SCHEMA(('AUTOMOTIVE_DESIGN { 1 0 10303 214 1 1 1 1 }'));
ENDSEC;
DATA;
#1 = APPLICATION_PROTOCOL_DEFINITION('international standard',
  'automotive_design',2000,#2);
#2 = APPLICATION_CONTEXT(
  'core data for automotive mechanical design processes');
#3 = SHAPE_DEFINITION_REPRESENTATION(#4,#10);
#4 = PRODUCT_DEFINITION_SHAPE('','',#5);
#5 = PRODUCT_DEFINITION('design','',#6,#9);
#6 = PRODUCT_DEFINITION_FORMATION('','',#7);
#7 = PRODUCT('Open CASCADE STEP translator 7.9 28',
  'Open CASCADE STEP translator 7.9 28','',(#8));
#8 = PRODUCT_CONTEXT('',#2,'mechanical');
#9 = PRODUCT_DEFINITION_CONTEXT('part definition',#2,'design');
#10 = ADVANCED_BREP_SHAPE_REPRESENTATION('',(#11,#15),#1233);
#11 = AXIS2_PLACEMENT_3D('',#12,#13,#14);
#12 = CARTESIAN_POINT('',(0.,0.,0.));
#13 = DIRECTION('',(0.,0.,1.));
#14 = DIRECTION('',(1.,0.,-0.));
#15 = MANIFOLD_SOLID_BREP('',#16);
#16 = CLOSED_SHELL('',(#17,#137,#208,#390,#418,#585,#612,#639,#666,#693,
    #720,#946,#981,#1171,#1229));
#17 = ADVANCED_FACE('',(#18),#33,.T.);
#18 = FACE_BOUND('',#19,.T.);
#19 = EDGE_LOOP('',(#20,#56,#84,#113));
#20 = ORIENTED_EDGE('',*,*,#21,.T.);
#21 = EDGE_CURVE('',#22,#24,#26,.T.);
#22 = VERTEX_POINT('',#23);
#23 = CARTESIAN_POINT('',(-164.1,4.946824676513,83.272727272727));
#24 = VERTEX_POINT('',#25);
#25 = CARTESIAN_POINT('',(-164.1,1.102182119233E-14,173.));
#26 = SURFACE_CURVE('',#27,(#32,#44),.PCURVE_S1.);
#27 = CIRCLE('',#28,45.);
#28 = AXIS2_PLACEMENT_3D('',#29,#30,#31);
#29 = CARTESIAN_POINT('',(-164.1,0.,128.));
#30 = DIRECTION('',(1.,0.,0.));
#31 = DIRECTION('',(-0.,0.,1.));
#32 = PCURVE('',#33,#38);
#33 = CYLINDRICAL_SURFACE('',#34,45.);
#34 = AXIS2_PLACEMENT_3D('',#35,#36,#37);
#35 = CARTESIAN_POINT('',(-164.1,0.,128.));
#36 = DIRECTION('',(1.,0.,0.));
#37 = DIRECTION('',(-0.,0.,1.));
#38 = DEFINITIONAL_REPRESENTATION('',(#39),#43);
#39 = LINE('',#40,#41);
#40 = CARTESIAN_POINT('',(0.,0.));
#41 = VECTOR('',#42,1.);
#42 = DIRECTION('',(1.,0.));
#43 = ( GEOMETRIC_REPRESENTATION_CONTEXT(2) 
PARAMETRIC_REPRESENTATION_CONTEXT() REPRESENTATION_CONTEXT('2D SPACE',''
  ) );
#44 = PCURVE('',#45,#50);
#45 = PLANE('',#46);
#46 = AXIS2_PLACEMENT_3D('',#47,#48,#49);
#47 = CARTESIAN_POINT('',(-164.1,0.,128.));
#48 = DIRECTION('',(1.,0.,0.));
#49 = DIRECTION('',(-0.,0.,1.));
#50 = DEFINITIONAL_REPRESENTATION('',(#51),#55);
#51 = CIRCLE('',#52,45.);
#52 = AXIS2_PLACEMENT_2D('',#53,#54);
#53 = CARTESIAN_POINT('',(0.,0.));
#54 = DIRECTION('',(1.,0.));
#55 = ( GEOMETRIC_REPRESENTATION_CONTEXT(2) 
PARAMETRIC_REPRESENTATION_CONTEXT() REPRESENTATION_CONTEXT('2D SPACE',''
  ) );
#56 = ORIENTED_EDGE('',*,*,#57,.T.);
#57 = EDGE_CURVE('',#24,#58,#60,.T.);
#58 = VERTEX_POINT('',#59);
#59 = CARTESIAN_POINT('',(-155.1,1.102182119233E-14,173.));
#60 = SURFACE_CURVE('',#61,(#65,#72),.PCURVE_S1.);
#61 = LINE('',#62,#63);
#62 = CARTESIAN_POINT('',(-164.1,1.102182119233E-14,173.));
#63 = VECTOR('',#64,1.);
#64 = DIRECTION('',(1.,0.,0.));
#65 = PCURVE('',#33,#66);
#66 = DEFINITIONAL_REPRESENTATION('',(#67),#71);
#67 = LINE('',#68,#69);
#68 = CARTESIAN_POINT('',(6.28318530718,-0.));
#69 = VECTOR('',#70,1.);
#70 = DIRECTION('',(0.,1.));
#71 = ( GEOMETRIC_REPRESENTATION_CONTEXT(2) 
PARAMETRIC_REPRESENTATION_CONTEXT() REPRESENTATION_CONTEXT('2D SPACE',''
  ) );
#72 = PCURVE('',#73,#78);
#73 = CYLINDRICAL_SURFACE('',#74,45.);
#74 = AXIS2_PLACEMENT_3D('',#75,#76,#77);
#75 = CARTESIAN_POINT('',(-164.1,0.,128.));
#76 = DIRECTION('',(1.,0.,0.));
#77 = DIRECTION('',(-0.,0.,1.));
#78 = DEFINITIONAL_REPRESENTATION('',(#79),#83);
#79 = LINE('',#80,#81);
#80 = CARTESIAN_POINT('',(0.,-0.));
#81 = VECTOR('',#82,1.);
#82 = DIRECTION('',(0.,1.));
#83 = ( GEOMETRIC_REPRESENTATION_CONTEXT(2) 
PARAMETRIC_REPRESENTATION_CONTEXT() REPRESENTATION_CONTEXT('2D SPACE',''
  ) );
#84 = ORIENTED_EDGE('',*,*,#85,.F.);
#85 = EDGE_CURVE('',#86,#58,#88,.T.);
#86 = VERTEX_POINT('',#87);
#87 = CARTESIAN_POINT('',(-155.1,4.946824676513,83.272727272727));
#88 = SURFACE_CURVE('',#89,(#94,#101),.PCURVE_S1.);
#89 = CIRCLE('',#90,45.);
#90 = AXIS2_PLACEMENT_3D('',#91,#92,#93);
#91 = CARTESIAN_POINT('',(-155.1,0.,128.));
#92 = DIRECTION('',(1.,0.,0.));
#93 = DIRECTION('',(-0.,0.,1.));
#94 = PCURVE('',#33,#95);
#95 = DEFINITIONAL_REPRESENTATION('',(#96),#100);
#96 = LINE('',#97,#98);
#97 = CARTESIAN_POINT('',(0.,9.));
#98 = VECTOR('',#99,1.);
#99 = DIRECTION('',(1.,0.));
#100 = ( GEOMETRIC_REPRESENTATION_CONTEXT(2) 
PARAMETRIC_REPRESENTATION_CONTEXT() REPRESENTATION_CONTEXT('2D SPACE',''
  ) );
#101 = PCURVE('',#102,#107);
#102 = PLANE('',#103);
#103 = AXIS2_PLACEMENT_3D('',#104,#105,#106);
#104 = CARTESIAN_POINT('',(-155.1,0.,128.));
#105 = DIRECTION('',(1.,0.,0.));
#106 = DIRECTION('',(-0.,0.,1.));
#107 = DEFINITIONAL_REPRESENTATION('',(#108),#112);
#108 = CIRCLE('',#109,45.);
#109 = AXIS2_PLACEMENT_2D('',#110,#111);
#110 = CARTESIAN_POINT('',(0.,0.));
#111 = DIRECTION('',(1.,0.));
#112 = ( GEOMETRIC_REPRESENTATION_CONTEXT(2) 
PARAMETRIC_REPRESENTATION_CONTEXT() REPRESENTATION_CONTEXT('2D SPACE',''
  ) );
#113 = ORIENTED_EDGE('',*,*,#114,.F.);
#114 = EDGE_CURVE('',#22,#86,#115,.T.);
#115 = SURFACE_CURVE('',#116,(#120,#126),.PCURVE_S1.);
#116 = LINE('',#117,#118);
#117 = CARTESIAN_POINT('',(-164.1,4.946824676514,83.272727272727));
#118 = VECTOR('',#119,1.);
#119 = DIRECTION('',(1.,0.,0.));
#120 = PCURVE('',#33,#121);
#121 = DEFINITIONAL_REPRESENTATION('',(#122),#125);
#122 = B_SPLINE_CURVE_WITH_KNOTS('',1,(#123,#124),.UNSPECIFIED.,.F.,.F.,
  (2,2),(-5.999999928008E-07,9.0000006),.PIECEWISE_BEZIER_KNOTS.);
#123 = CARTESIAN_POINT('',(3.251744710294,-5.999999928008E-07));
#124 = CARTESIAN_POINT('',(3.251744710294,9.0000006));
#125 = ( GEOMETRIC_REPRESENTATION_CONTEXT(2) 
PARAMETRIC_REPRESENTATION_CONTEXT() REPRESENTATION_CONTEXT('2D SPACE',''
  ) );
#126 = PCURVE('',#127,#132);
#127 = CYLINDRICAL_SURFACE('',#128,5.);
#128 = AXIS2_PLACEMENT_3D('',#129,#130,#131);
#129 = CARTESIAN_POINT('',(-164.1,0.,84.));
#130 = DIRECTION('',(1.,0.,0.));
#131 = DIRECTION('',(-0.,0.,1.));
#132 = DEFINITIONAL_REPRESENTATION('',(#133),#136);
#133 = B_SPLINE_CURVE_WITH_KNOTS('',1,(#134,#135),.UNSPECIFIED.,.F.,.F.,
  (2,2),(-5.999999928008E-07,9.0000006),.PIECEWISE_BEZIER_KNOTS.);
#134 = CARTESIAN_POINT('',(4.56641659184,-5.999999928008E-07));
#135 = CARTESIAN_POINT('',(4.56641659184,9.0000006));
#136 = ( GEOMETRIC_REPRESENTATION_CONTEXT(2) 
PARAMETRIC_REPRESENTATION_CONTEXT() REPRESENTATION_CONTEXT('2D SPACE',''
  ) );
#137 = ADVANCED_FACE('',(#138),#73,.T.);
#138 = FACE_BOUND('',#139,.T.);
#139 = EDGE_LOOP('',(#140,#164,#165,#189));
#140 = ORIENTED_EDGE('',*,*,#141,.F.);
#141 = EDGE_CURVE('',#58,#142,#144,.T.);
#142 = VERTEX_POINT('',#143);
#143 = CARTESIAN_POINT('',(-155.1,-4.946824676513,83.272727272727));
#144 = SURFACE_CURVE('',#145,(#150,#157),.PCURVE_S1.);
#145 = CIRCLE('',#146,45.);
#146 = AXIS2_PLACEMENT_3D('',#147,#148,#149);
#147 = CARTESIAN_POINT('',(-155.1,0.,128.));
#148 = DIRECTION('',(1.,0.,0.));
#149 = DIRECTION('',(-0.,0.,1.));
#150 = PCURVE('',#73,#151);
#151 = DEFINITIONAL_REPRESENTATION('',(#152),#156);
#152 = LINE('',#153,#154);
#153 = CARTESIAN_POINT('',(0.,9.));
#154 = VECTOR('',#155,1.);
#155 = DIRECTION('',(1.,0.));
#156 = ( GEOMETRIC_REPRESENTATION_CONTEXT(2) 
PARAMETRIC_REPRESENTATION_CONTEXT() REPRESENTATION_CONTEXT('2D SPACE',''
  ) );
#157 = PCURVE('',#102,#158);
#158 = DEFINITIONAL_REPRESENTATION('',(#159),#163);
#159 = CIRCLE('',#160,45.);
#160 = AXIS2_PLACEMENT_2D('',#161,#162);
#161 = CARTESIAN_POINT('',(0.,0.));
#162 = DIRECTION('',(1.,0.));
#163 = ( GEOMETRIC_REPRESENTATION_CONTEXT(2) 
PARAMETRIC_REPRESENTATION_CONTEXT() REPRESENTATION_CONTEXT('2D SPACE',''
  ) );
#164 = ORIENTED_EDGE('',*,*,#57,.F.);
#165 = ORIENTED_EDGE('',*,*,#166,.T.);
#166 = EDGE_CURVE('',#24,#167,#169,.T.);
#167 = VERTEX_POINT('',#168);
#168 = CARTESIAN_POINT('',(-164.1,-4.946824676513,83.272727272727));
#169 = SURFACE_CURVE('',#170,(#175,#182),.PCURVE_S1.);
#170 = CIRCLE('',#171,45.);
#171 = AXIS2_PLACEMENT_3D('',#172,#173,#174);
#172 = CARTESIAN_POINT('',(-164.1,0.,128.));
#173 = DIRECTION('',(1.,0.,0.));
#174 = DIRECTION('',(-0.,0.,1.));
#175 = PCURVE('',#73,#176);
#176 = DEFINITIONAL_REPRESENTATION('',(#177),#181);
#177 = LINE('',#178,#179);
#178 = CARTESIAN_POINT('',(0.,0.));
#179 = VECTOR('',#180,1.);
#180 = DIRECTION('',(1.,0.));
#181 = ( GEOMETRIC_REPRESENTATION_CONTEXT(2) 
PARAMETRIC_REPRESENTATION_CONTEXT() REPRESENTATION_CONTEXT('2D SPACE',''
  ) );
#182 = PCURVE('',#45,#183);
#183 = DEFINITIONAL_REPRESENTATION('',(#184),#188);
#184 = CIRCLE('',#185,45.);
#185 = AXIS2_PLACEMENT_2D('',#186,#187);
#186 = CARTESIAN_POINT('',(0.,0.));
#187 = DIRECTION('',(1.,0.));
#188 = ( GEOMETRIC_REPRESENTATION_CONTEXT(2) 
PARAMETRIC_REPRESENTATION_CONTEXT() REPRESENTATION_CONTEXT('2D SPACE',''
  ) );
#189 = ORIENTED_EDGE('',*,*,#190,.T.);
#190 = EDGE_CURVE('',#167,#142,#191,.T.);
#191 = SURFACE_CURVE('',#192,(#196,#202),.PCURVE_S1.);
#192 = LINE('',#193,#194);
#193 = CARTESIAN_POINT('',(-164.1,-4.946824676514,83.272727272727));
#194 = VECTOR('',#195,1.);
#195 = DIRECTION('',(1.,0.,0.));
#196 = PCURVE('',#73,#197);
#197 = DEFINITIONAL_REPRESENTATION('',(#198),#201);
#198 = B_SPLINE_CURVE_WITH_KNOTS('',1,(#199,#200),.UNSPECIFIED.,.F.,.F.,
  (2,2),(-5.999999928008E-07,9.0000006),.PIECEWISE_BEZIER_KNOTS.);
#199 = CARTESIAN_POINT('',(3.031440596886,-5.999999928008E-07));
#200 = CARTESIAN_POINT('',(3.031440596886,9.0000006));
#201 = ( GEOMETRIC_REPRESENTATION_CONTEXT(2) 
PARAMETRIC_REPRESENTATION_CONTEXT() REPRESENTATION_CONTEXT('2D SPACE',''
  ) );
#202 = PCURVE('',#127,#203);
#203 = DEFINITIONAL_REPRESENTATION('',(#204),#207);
#204 = B_SPLINE_CURVE_WITH_KNOTS('',1,(#205,#206),.UNSPECIFIED.,.F.,.F.,
  (2,2),(-5.999999928008E-07,9.0000006),.PIECEWISE_BEZIER_KNOTS.);
#205 = CARTESIAN_POINT('',(1.716768715339,-5.999999928008E-07));
#206 = CARTESIAN_POINT('',(1.716768715339,9.0000006));
#207 = ( GEOMETRIC_REPRESENTATION_CONTEXT(2) 
PARAMETRIC_REPRESENTATION_CONTEXT() REPRESENTATION_CONTEXT('2D SPACE',''
  ) );
#208 = ADVANCED_FACE('',(#209,#235,#266,#297,#328,#359),#45,.F.);
#209 = FACE_BOUND('',#210,.F.);
#210 = EDGE_LOOP('',(#211,#212,#213));
#211 = ORIENTED_EDGE('',*,*,#21,.T.);
#212 = ORIENTED_EDGE('',*,*,#166,.T.);
#213 = ORIENTED_EDGE('',*,*,#214,.T.);
#214 = EDGE_CURVE('',#167,#22,#215,.T.);
#215 = SURFACE_CURVE('',#216,(#221,#228),.PCURVE_S1.);
#216 = CIRCLE('',#217,5.);
#217 = AXIS2_PLACEMENT_3D('',#218,#219,#220);
#218 = CARTESIAN_POINT('',(-164.1,0.,84.));
#219 = DIRECTION('',(1.,0.,0.));
#220 = DIRECTION('',(-0.,0.,1.));
#221 = PCURVE('',#45,#222);
#222 = DEFINITIONAL_REPRESENTATION('',(#223),#227);
#223 = CIRCLE('',#224,5.);
#224 = AXIS2_PLACEMENT_2D('',#225,#226);
#225 = CARTESIAN_POINT('',(-44.,0.));
#226 = DIRECTION('',(1.,0.));
#227 = ( GEOMETRIC_REPRESENTATION_CONTEXT(2) 
PARAMETRIC_REPRESENTATION_CONTEXT() REPRESENTATION_CONTEXT('2D SPACE',''
  ) );
#228 = PCURVE('',#127,#229);
#229 = DEFINITIONAL_REPRESENTATION('',(#230),#234);
#230 = LINE('',#231,#232);
#231 = CARTESIAN_POINT('',(0.,0.));
#232 = VECTOR('',#233,1.);
#233 = DIRECTION('',(1.,0.));
#234 = ( GEOMETRIC_REPRESENTATION_CONTEXT(2) 
PARAMETRIC_REPRESENTATION_CONTEXT() REPRESENTATION_CONTEXT('2D SPACE',''
  ) );
#235 = FACE_BOUND('',#236,.F.);
#236 = EDGE_LOOP('',(#237));
#237 = ORIENTED_EDGE('',*,*,#238,.F.);
#238 = EDGE_CURVE('',#239,#239,#241,.T.);
#239 = VERTEX_POINT('',#240);
#240 = CARTESIAN_POINT('',(-164.1,22.041946960968,100.96186271093));
#241 = SURFACE_CURVE('',#242,(#247,#254),.PCURVE_S1.);
#242 = CIRCLE('',#243,3.3);
#243 = AXIS2_PLACEMENT_3D('',#244,#245,#246);
#244 = CARTESIAN_POINT('',(-164.1,22.041946960968,97.661862710939));
#245 = DIRECTION('',(1.,0.,0.));
#246 = DIRECTION('',(-0.,0.,1.));
#247 = PCURVE('',#45,#248);
#248 = DEFINITIONAL_REPRESENTATION('',(#249),#253);
#249 = CIRCLE('',#250,3.3);
#250 = AXIS2_PLACEMENT_2D('',#251,#252);
#251 = CARTESIAN_POINT('',(-30.33813728906,-22.04194696096));
#252 = DIRECTION('',(1.,0.));
#253 = ( GEOMETRIC_REPRESENTATION_CONTEXT(2) 
PARAMETRIC_REPRESENTATION_CONTEXT() REPRESENTATION_CONTEXT('2D SPACE',''
  ) );
#254 = PCURVE('',#255,#260);
#255 = CYLINDRICAL_SURFACE('',#256,3.3);
#256 = AXIS2_PLACEMENT_3D('',#257,#258,#259);
#257 = CARTESIAN_POINT('',(-165.1,22.041946960968,97.661862710939));
#258 = DIRECTION('',(1.,0.,0.));
#259 = DIRECTION('',(-0.,0.,1.));
#260 = DEFINITIONAL_REPRESENTATION('',(#261),#265);
#261 = LINE('',#262,#263);
#262 = CARTESIAN_POINT('',(0.,1.));
#263 = VECTOR('',#264,1.);
#264 = DIRECTION('',(1.,0.));
#265 = ( GEOMETRIC_REPRESENTATION_CONTEXT(2) 
PARAMETRIC_REPRESENTATION_CONTEXT() REPRESENTATION_CONTEXT('2D SPACE',''
  ) );
#266 = FACE_BOUND('',#267,.F.);
#267 = EDGE_LOOP('',(#268));
#268 = ORIENTED_EDGE('',*,*,#269,.F.);
#269 = EDGE_CURVE('',#270,#270,#272,.T.);
#270 = VERTEX_POINT('',#271);
#271 = CARTESIAN_POINT('',(-164.1,35.664619361068,142.88813728906));
#272 = SURFACE_CURVE('',#273,(#278,#285),.PCURVE_S1.);
#273 = CIRCLE('',#274,3.3);
#274 = AXIS2_PLACEMENT_3D('',#275,#276,#277);
#275 = CARTESIAN_POINT('',(-164.1,35.664619361068,139.58813728906));
#276 = DIRECTION('',(1.,0.,0.));
#277 = DIRECTION('',(-0.,0.,1.));
#278 = PCURVE('',#45,#279);
#279 = DEFINITIONAL_REPRESENTATION('',(#280),#284);
#280 = CIRCLE('',#281,3.3);
#281 = AXIS2_PLACEMENT_2D('',#282,#283);
#282 = CARTESIAN_POINT('',(11.588137289061,-35.66461936106));
#283 = DIRECTION('',(1.,0.));
#284 = ( GEOMETRIC_REPRESENTATION_CONTEXT(2) 
PARAMETRIC_REPRESENTATION_CONTEXT() REPRESENTATION_CONTEXT('2D SPACE',''
  ) );
#285 = PCURVE('',#286,#291);
#286 = CYLINDRICAL_SURFACE('',#287,3.3);
#287 = AXIS2_PLACEMENT_3D('',#288,#289,#290);
#288 = CARTESIAN_POINT('',(-165.1,35.664619361068,139.58813728906));
#289 = DIRECTION('',(1.,0.,0.));
#290 = DIRECTION('',(-0.,0.,1.));
#291 = DEFINITIONAL_REPRESENTATION('',(#292),#296);
#292 = LINE('',#293,#294);
#293 = CARTESIAN_POINT('',(0.,1.));
#294 = VECTOR('',#295,1.);
#295 = DIRECTION('',(1.,0.));
#296 = ( GEOMETRIC_REPRESENTATION_CONTEXT(2) 
PARAMETRIC_REPRESENTATION_CONTEXT() REPRESENTATION_CONTEXT('2D SPACE',''
  ) );
#297 = FACE_BOUND('',#298,.F.);
#298 = EDGE_LOOP('',(#299));
#299 = ORIENTED_EDGE('',*,*,#300,.F.);
#300 = EDGE_CURVE('',#301,#301,#303,.T.);
#301 = VERTEX_POINT('',#302);
#302 = CARTESIAN_POINT('',(-164.1,8.082668874373E-16,168.8));
#303 = SURFACE_CURVE('',#304,(#309,#316),.PCURVE_S1.);
#304 = CIRCLE('',#305,3.3);
#305 = AXIS2_PLACEMENT_3D('',#306,#307,#308);
#306 = CARTESIAN_POINT('',(-164.1,0.,165.5));
#307 = DIRECTION('',(1.,0.,0.));
#308 = DIRECTION('',(-0.,0.,1.));
#309 = PCURVE('',#45,#310);
#310 = DEFINITIONAL_REPRESENTATION('',(#311),#315);
#311 = CIRCLE('',#312,3.3);
#312 = AXIS2_PLACEMENT_2D('',#313,#314);
#313 = CARTESIAN_POINT('',(37.5,0.));
#314 = DIRECTION('',(1.,0.));
#315 = ( GEOMETRIC_REPRESENTATION_CONTEXT(2) 
PARAMETRIC_REPRESENTATION_CONTEXT() REPRESENTATION_CONTEXT('2D SPACE',''
  ) );
#316 = PCURVE('',#317,#322);
#317 = CYLINDRICAL_SURFACE('',#318,3.3);
#318 = AXIS2_PLACEMENT_3D('',#319,#320,#321);
#319 = CARTESIAN_POINT('',(-165.1,0.,165.5));
#320 = DIRECTION('',(1.,0.,0.));
#321 = DIRECTION('',(-0.,0.,1.));
#322 = DEFINITIONAL_REPRESENTATION('',(#323),#327);
#323 = LINE('',#324,#325);
#324 = CARTESIAN_POINT('',(0.,1.));
#325 = VECTOR('',#326,1.);
#326 = DIRECTION('',(1.,0.));
#327 = ( GEOMETRIC_REPRESENTATION_CONTEXT(2) 
PARAMETRIC_REPRESENTATION_CONTEXT() REPRESENTATION_CONTEXT('2D SPACE',''
  ) );
#328 = FACE_BOUND('',#329,.F.);
#329 = EDGE_LOOP('',(#330));
#330 = ORIENTED_EDGE('',*,*,#331,.F.);
#331 = EDGE_CURVE('',#332,#332,#334,.T.);
#332 = VERTEX_POINT('',#333);
#333 = CARTESIAN_POINT('',(-164.1,-22.04194696096,100.96186271093));
#334 = SURFACE_CURVE('',#335,(#340,#347),.PCURVE_S1.);
#335 = CIRCLE('',#336,3.3);
#336 = AXIS2_PLACEMENT_3D('',#337,#338,#339);
#337 = CARTESIAN_POINT('',(-164.1,-22.04194696096,97.661862710939));
#338 = DIRECTION('',(1.,0.,0.));
#339 = DIRECTION('',(-0.,0.,1.));
#340 = PCURVE('',#45,#341);
#341 = DEFINITIONAL_REPRESENTATION('',(#342),#346);
#342 = CIRCLE('',#343,3.3);
#343 = AXIS2_PLACEMENT_2D('',#344,#345);
#344 = CARTESIAN_POINT('',(-30.33813728906,22.041946960968));
#345 = DIRECTION('',(1.,0.));
#346 = ( GEOMETRIC_REPRESENTATION_CONTEXT(2) 
PARAMETRIC_REPRESENTATION_CONTEXT() REPRESENTATION_CONTEXT('2D SPACE',''
  ) );
#347 = PCURVE('',#348,#353);
#348 = CYLINDRICAL_SURFACE('',#349,3.3);
#349 = AXIS2_PLACEMENT_3D('',#350,#351,#352);
#350 = CARTESIAN_POINT('',(-165.1,-22.04194696096,97.661862710939));
#351 = DIRECTION('',(1.,0.,0.));
#352 = DIRECTION('',(-0.,0.,1.));
#353 = DEFINITIONAL_REPRESENTATION('',(#354),#358);
#354 = LINE('',#355,#356);
#355 = CARTESIAN_POINT('',(0.,1.));
#356 = VECTOR('',#357,1.);
#357 = DIRECTION('',(1.,0.));
#358 = ( GEOMETRIC_REPRESENTATION_CONTEXT(2) 
PARAMETRIC_REPRESENTATION_CONTEXT() REPRESENTATION_CONTEXT('2D SPACE',''
  ) );
#359 = FACE_BOUND('',#360,.F.);
#360 = EDGE_LOOP('',(#361));
#361 = ORIENTED_EDGE('',*,*,#362,.F.);
#362 = EDGE_CURVE('',#363,#363,#365,.T.);
#363 = VERTEX_POINT('',#364);
#364 = CARTESIAN_POINT('',(-164.1,-35.66461936106,142.88813728906));
#365 = SURFACE_CURVE('',#366,(#371,#378),.PCURVE_S1.);
#366 = CIRCLE('',#367,3.3);
#367 = AXIS2_PLACEMENT_3D('',#368,#369,#370);
#368 = CARTESIAN_POINT('',(-164.1,-35.66461936106,139.58813728906));
#369 = DIRECTION('',(1.,0.,0.));
#370 = DIRECTION('',(-0.,0.,1.));
#371 = PCURVE('',#45,#372);
#372 = DEFINITIONAL_REPRESENTATION('',(#373),#377);
#373 = CIRCLE('',#374,3.3);
#374 = AXIS2_PLACEMENT_2D('',#375,#376);
#375 = CARTESIAN_POINT('',(11.588137289061,35.664619361068));
#376 = DIRECTION('',(1.,0.));
#377 = ( GEOMETRIC_REPRESENTATION_CONTEXT(2) 
PARAMETRIC_REPRESENTATION_CONTEXT() REPRESENTATION_CONTEXT('2D SPACE',''
  ) );
#378 = PCURVE('',#379,#384);
#379 = CYLINDRICAL_SURFACE('',#380,3.3);
#380 = AXIS2_PLACEMENT_3D('',#381,#382,#383);
#381 = CARTESIAN_POINT('',(-165.1,-35.66461936106,139.58813728906));
#382 = DIRECTION('',(1.,0.,0.));
#383 = DIRECTION('',(-0.,0.,1.));
#384 = DEFINITIONAL_REPRESENTATION('',(#385),#389);
#385 = LINE('',#386,#387);
#386 = CARTESIAN_POINT('',(0.,1.));
#387 = VECTOR('',#388,1.);
#388 = DIRECTION('',(1.,0.));
#389 = ( GEOMETRIC_REPRESENTATION_CONTEXT(2) 
PARAMETRIC_REPRESENTATION_CONTEXT() REPRESENTATION_CONTEXT('2D SPACE',''
  ) );
#390 = ADVANCED_FACE('',(#391),#127,.T.);
#391 = FACE_BOUND('',#392,.T.);
#392 = EDGE_LOOP('',(#393,#415,#416,#417));
#393 = ORIENTED_EDGE('',*,*,#394,.F.);
#394 = EDGE_CURVE('',#142,#86,#395,.T.);
#395 = SURFACE_CURVE('',#396,(#401,#408),.PCURVE_S1.);
#396 = CIRCLE('',#397,5.);
#397 = AXIS2_PLACEMENT_3D('',#398,#399,#400);
#398 = CARTESIAN_POINT('',(-155.1,0.,84.));
#399 = DIRECTION('',(1.,0.,0.));
#400 = DIRECTION('',(-0.,0.,1.));
#401 = PCURVE('',#127,#402);
#402 = DEFINITIONAL_REPRESENTATION('',(#403),#407);
#403 = LINE('',#404,#405);
#404 = CARTESIAN_POINT('',(0.,9.));
#405 = VECTOR('',#406,1.);
#406 = DIRECTION('',(1.,0.));
#407 = ( GEOMETRIC_REPRESENTATION_CONTEXT(2) 
PARAMETRIC_REPRESENTATION_CONTEXT() REPRESENTATION_CONTEXT('2D SPACE',''
  ) );
#408 = PCURVE('',#102,#409);
#409 = DEFINITIONAL_REPRESENTATION('',(#410),#414);
#410 = CIRCLE('',#411,5.);
#411 = AXIS2_PLACEMENT_2D('',#412,#413);
#412 = CARTESIAN_POINT('',(-44.,0.));
#413 = DIRECTION('',(1.,0.));
#414 = ( GEOMETRIC_REPRESENTATION_CONTEXT(2) 
PARAMETRIC_REPRESENTATION_CONTEXT() REPRESENTATION_CONTEXT('2D SPACE',''
  ) );
#415 = ORIENTED_EDGE('',*,*,#190,.F.);
#416 = ORIENTED_EDGE('',*,*,#214,.T.);
#417 = ORIENTED_EDGE('',*,*,#114,.T.);
#418 = ADVANCED_FACE('',(#419,#424,#450,#481,#507,#533,#559),#102,.T.);
#419 = FACE_BOUND('',#420,.T.);
#420 = EDGE_LOOP('',(#421,#422,#423));
#421 = ORIENTED_EDGE('',*,*,#85,.T.);
#422 = ORIENTED_EDGE('',*,*,#141,.T.);
#423 = ORIENTED_EDGE('',*,*,#394,.T.);
#424 = FACE_BOUND('',#425,.T.);
#425 = EDGE_LOOP('',(#426));
#426 = ORIENTED_EDGE('',*,*,#427,.F.);
#427 = EDGE_CURVE('',#428,#428,#430,.T.);
#428 = VERTEX_POINT('',#429);
#429 = CARTESIAN_POINT('',(-155.1,22.041946960968,100.96186271093));
#430 = SURFACE_CURVE('',#431,(#436,#443),.PCURVE_S1.);
#431 = CIRCLE('',#432,3.3);
#432 = AXIS2_PLACEMENT_3D('',#433,#434,#435);
#433 = CARTESIAN_POINT('',(-155.1,22.041946960968,97.661862710939));
#434 = DIRECTION('',(1.,0.,0.));
#435 = DIRECTION('',(-0.,0.,1.));
#436 = PCURVE('',#102,#437);
#437 = DEFINITIONAL_REPRESENTATION('',(#438),#442);
#438 = CIRCLE('',#439,3.3);
#439 = AXIS2_PLACEMENT_2D('',#440,#441);
#440 = CARTESIAN_POINT('',(-30.33813728906,-22.04194696096));
#441 = DIRECTION('',(1.,0.));
#442 = ( GEOMETRIC_REPRESENTATION_CONTEXT(2) 
PARAMETRIC_REPRESENTATION_CONTEXT() REPRESENTATION_CONTEXT('2D SPACE',''
  ) );
#443 = PCURVE('',#255,#444);
#444 = DEFINITIONAL_REPRESENTATION('',(#445),#449);
#445 = LINE('',#446,#447);
#446 = CARTESIAN_POINT('',(0.,10.));
#447 = VECTOR('',#448,1.);
#448 = DIRECTION('',(1.,0.));
#449 = ( GEOMETRIC_REPRESENTATION_CONTEXT(2) 
PARAMETRIC_REPRESENTATION_CONTEXT() REPRESENTATION_CONTEXT('2D SPACE',''
  ) );
#450 = FACE_BOUND('',#451,.T.);
#451 = EDGE_LOOP('',(#452));
#452 = ORIENTED_EDGE('',*,*,#453,.F.);
#453 = EDGE_CURVE('',#454,#454,#456,.T.);
#454 = VERTEX_POINT('',#455);
#455 = CARTESIAN_POINT('',(-155.1,7.335634326893E-15,157.95));
#456 = SURFACE_CURVE('',#457,(#462,#469),.PCURVE_S1.);
#457 = CIRCLE('',#458,29.95);
#458 = AXIS2_PLACEMENT_3D('',#459,#460,#461);
#459 = CARTESIAN_POINT('',(-155.1,0.,128.));
#460 = DIRECTION('',(1.,0.,0.));
#461 = DIRECTION('',(-0.,0.,1.));
#462 = PCURVE('',#102,#463);
#463 = DEFINITIONAL_REPRESENTATION('',(#464),#468);
#464 = CIRCLE('',#465,29.95);
#465 = AXIS2_PLACEMENT_2D('',#466,#467);
#466 = CARTESIAN_POINT('',(0.,0.));
#467 = DIRECTION('',(1.,0.));
#468 = ( GEOMETRIC_REPRESENTATION_CONTEXT(2) 
PARAMETRIC_REPRESENTATION_CONTEXT() REPRESENTATION_CONTEXT('2D SPACE',''
  ) );
#469 = PCURVE('',#470,#475);
#470 = CYLINDRICAL_SURFACE('',#471,29.95);
#471 = AXIS2_PLACEMENT_3D('',#472,#473,#474);
#472 = CARTESIAN_POINT('',(-155.1,0.,128.));
#473 = DIRECTION('',(1.,0.,0.));
#474 = DIRECTION('',(-0.,0.,1.));
#475 = DEFINITIONAL_REPRESENTATION('',(#476),#480);
#476 = LINE('',#477,#478);
#477 = CARTESIAN_POINT('',(0.,0.));
#478 = VECTOR('',#479,1.);
#479 = DIRECTION('',(1.,0.));
#480 = ( GEOMETRIC_REPRESENTATION_CONTEXT(2) 
PARAMETRIC_REPRESENTATION_CONTEXT() REPRESENTATION_CONTEXT('2D SPACE',''
  ) );
#481 = FACE_BOUND('',#482,.T.);
#482 = EDGE_LOOP('',(#483));
#483 = ORIENTED_EDGE('',*,*,#484,.F.);
#484 = EDGE_CURVE('',#485,#485,#487,.T.);
#485 = VERTEX_POINT('',#486);
#486 = CARTESIAN_POINT('',(-155.1,35.664619361068,142.88813728906));
#487 = SURFACE_CURVE('',#488,(#493,#500),.PCURVE_S1.);
#488 = CIRCLE('',#489,3.3);
#489 = AXIS2_PLACEMENT_3D('',#490,#491,#492);
#490 = CARTESIAN_POINT('',(-155.1,35.664619361068,139.58813728906));
#491 = DIRECTION('',(1.,0.,0.));
#492 = DIRECTION('',(-0.,0.,1.));
#493 = PCURVE('',#102,#494);
#494 = DEFINITIONAL_REPRESENTATION('',(#495),#499);
#495 = CIRCLE('',#496,3.3);
#496 = AXIS2_PLACEMENT_2D('',#497,#498);
#497 = CARTESIAN_POINT('',(11.588137289061,-35.66461936106));
#498 = DIRECTION('',(1.,0.));
#499 = ( GEOMETRIC_REPRESENTATION_CONTEXT(2) 
PARAMETRIC_REPRESENTATION_CONTEXT() REPRESENTATION_CONTEXT('2D SPACE',''
  ) );
#500 = PCURVE('',#286,#501);
#501 = DEFINITIONAL_REPRESENTATION('',(#502),#506);
#502 = LINE('',#503,#504);
#503 = CARTESIAN_POINT('',(0.,10.));
#504 = VECTOR('',#505,1.);
#505 = DIRECTION('',(1.,0.));
#506 = ( GEOMETRIC_REPRESENTATION_CONTEXT(2) 
PARAMETRIC_REPRESENTATION_CONTEXT() REPRESENTATION_CONTEXT('2D SPACE',''
  ) );
#507 = FACE_BOUND('',#508,.T.);
#508 = EDGE_LOOP('',(#509));
#509 = ORIENTED_EDGE('',*,*,#510,.F.);
#510 = EDGE_CURVE('',#511,#511,#513,.T.);
#511 = VERTEX_POINT('',#512);
#512 = CARTESIAN_POINT('',(-155.1,8.082668874373E-16,168.8));
#513 = SURFACE_CURVE('',#514,(#519,#526),.PCURVE_S1.);
#514 = CIRCLE('',#515,3.3);
#515 = AXIS2_PLACEMENT_3D('',#516,#517,#518);
#516 = CARTESIAN_POINT('',(-155.1,0.,165.5));
#517 = DIRECTION('',(1.,0.,0.));
#518 = DIRECTION('',(-0.,0.,1.));
#519 = PCURVE('',#102,#520);
#520 = DEFINITIONAL_REPRESENTATION('',(#521),#525);
#521 = CIRCLE('',#522,3.3);
#522 = AXIS2_PLACEMENT_2D('',#523,#524);
#523 = CARTESIAN_POINT('',(37.5,0.));
#524 = DIRECTION('',(1.,0.));
#525 = ( GEOMETRIC_REPRESENTATION_CONTEXT(2) 
PARAMETRIC_REPRESENTATION_CONTEXT() REPRESENTATION_CONTEXT('2D SPACE',''
  ) );
#526 = PCURVE('',#317,#527);
#527 = DEFINITIONAL_REPRESENTATION('',(#528),#532);
#528 = LINE('',#529,#530);
#529 = CARTESIAN_POINT('',(0.,10.));
#530 = VECTOR('',#531,1.);
#531 = DIRECTION('',(1.,0.));
#532 = ( GEOMETRIC_REPRESENTATION_CONTEXT(2) 
PARAMETRIC_REPRESENTATION_CONTEXT() REPRESENTATION_CONTEXT('2D SPACE',''
  ) );
#533 = FACE_BOUND('',#534,.T.);
#534 = EDGE_LOOP('',(#535));
#535 = ORIENTED_EDGE('',*,*,#536,.F.);
#536 = EDGE_CURVE('',#537,#537,#539,.T.);
#537 = VERTEX_POINT('',#538);
#538 = CARTESIAN_POINT('',(-155.1,-22.04194696096,100.96186271093));
#539 = SURFACE_CURVE('',#540,(#545,#552),.PCURVE_S1.);
#540 = CIRCLE('',#541,3.3);
#541 = AXIS2_PLACEMENT_3D('',#542,#543,#544);
#542 = CARTESIAN_POINT('',(-155.1,-22.04194696096,97.661862710939));
#543 = DIRECTION('',(1.,0.,0.));
#544 = DIRECTION('',(-0.,0.,1.));
#545 = PCURVE('',#102,#546);
#546 = DEFINITIONAL_REPRESENTATION('',(#547),#551);
#547 = CIRCLE('',#548,3.3);
#548 = AXIS2_PLACEMENT_2D('',#549,#550);
#549 = CARTESIAN_POINT('',(-30.33813728906,22.041946960968));
#550 = DIRECTION('',(1.,0.));
#551 = ( GEOMETRIC_REPRESENTATION_CONTEXT(2) 
PARAMETRIC_REPRESENTATION_CONTEXT() REPRESENTATION_CONTEXT('2D SPACE',''
  ) );
#552 = PCURVE('',#348,#553);
#553 = DEFINITIONAL_REPRESENTATION('',(#554),#558);
#554 = LINE('',#555,#556);
#555 = CARTESIAN_POINT('',(0.,10.));
#556 = VECTOR('',#557,1.);
#557 = DIRECTION('',(1.,0.));
#558 = ( GEOMETRIC_REPRESENTATION_CONTEXT(2) 
PARAMETRIC_REPRESENTATION_CONTEXT() REPRESENTATION_CONTEXT('2D SPACE',''
  ) );
#559 = FACE_BOUND('',#560,.T.);
#560 = EDGE_LOOP('',(#561));
#561 = ORIENTED_EDGE('',*,*,#562,.F.);
#562 = EDGE_CURVE('',#563,#563,#565,.T.);
#563 = VERTEX_POINT('',#564);
#564 = CARTESIAN_POINT('',(-155.1,-35.66461936106,142.88813728906));
#565 = SURFACE_CURVE('',#566,(#571,#578),.PCURVE_S1.);
#566 = CIRCLE('',#567,3.3);
#567 = AXIS2_PLACEMENT_3D('',#568,#569,#570);
#568 = CARTESIAN_POINT('',(-155.1,-35.66461936106,139.58813728906));
#569 = DIRECTION('',(1.,0.,0.));
#570 = DIRECTION('',(-0.,0.,1.));
#571 = PCURVE('',#102,#572);
#572 = DEFINITIONAL_REPRESENTATION('',(#573),#577);
#573 = CIRCLE('',#574,3.3);
#574 = AXIS2_PLACEMENT_2D('',#575,#576);
#575 = CARTESIAN_POINT('',(11.588137289061,35.664619361068));
#576 = DIRECTION('',(1.,0.));
#577 = ( GEOMETRIC_REPRESENTATION_CONTEXT(2) 
PARAMETRIC_REPRESENTATION_CONTEXT() REPRESENTATION_CONTEXT('2D SPACE',''
  ) );
#578 = PCURVE('',#379,#579);
#579 = DEFINITIONAL_REPRESENTATION('',(#580),#584);
#580 = LINE('',#581,#582);
#581 = CARTESIAN_POINT('',(0.,10.));
#582 = VECTOR('',#583,1.);
#583 = DIRECTION('',(1.,0.));
#584 = ( GEOMETRIC_REPRESENTATION_CONTEXT(2) 
PARAMETRIC_REPRESENTATION_CONTEXT() REPRESENTATION_CONTEXT('2D SPACE',''
  ) );
#585 = ADVANCED_FACE('',(#586),#255,.F.);
#586 = FACE_BOUND('',#587,.F.);
#587 = EDGE_LOOP('',(#588,#589,#610,#611));
#588 = ORIENTED_EDGE('',*,*,#427,.F.);
#589 = ORIENTED_EDGE('',*,*,#590,.F.);
#590 = EDGE_CURVE('',#239,#428,#591,.T.);
#591 = SEAM_CURVE('',#592,(#596,#603),.PCURVE_S1.);
#592 = LINE('',#593,#594);
#593 = CARTESIAN_POINT('',(-165.1,22.041946960968,100.96186271093));
#594 = VECTOR('',#595,1.);
#595 = DIRECTION('',(1.,0.,0.));
#596 = PCURVE('',#255,#597);
#597 = DEFINITIONAL_REPRESENTATION('',(#598),#602);
#598 = LINE('',#599,#600);
#599 = CARTESIAN_POINT('',(6.28318530718,-0.));
#600 = VECTOR('',#601,1.);
#601 = DIRECTION('',(0.,1.));
#602 = ( GEOMETRIC_REPRESENTATION_CONTEXT(2) 
PARAMETRIC_REPRESENTATION_CONTEXT() REPRESENTATION_CONTEXT('2D SPACE',''
  ) );
#603 = PCURVE('',#255,#604);
#604 = DEFINITIONAL_REPRESENTATION('',(#605),#609);
#605 = LINE('',#606,#607);
#606 = CARTESIAN_POINT('',(0.,-0.));
#607 = VECTOR('',#608,1.);
#608 = DIRECTION('',(0.,1.));
#609 = ( GEOMETRIC_REPRESENTATION_CONTEXT(2) 
PARAMETRIC_REPRESENTATION_CONTEXT() REPRESENTATION_CONTEXT('2D SPACE',''
  ) );
#610 = ORIENTED_EDGE('',*,*,#238,.T.);
#611 = ORIENTED_EDGE('',*,*,#590,.T.);
#612 = ADVANCED_FACE('',(#613),#286,.F.);
#613 = FACE_BOUND('',#614,.F.);
#614 = EDGE_LOOP('',(#615,#616,#637,#638));
#615 = ORIENTED_EDGE('',*,*,#484,.F.);
#616 = ORIENTED_EDGE('',*,*,#617,.F.);
#617 = EDGE_CURVE('',#270,#485,#618,.T.);
#618 = SEAM_CURVE('',#619,(#623,#630),.PCURVE_S1.);
#619 = LINE('',#620,#621);
#620 = CARTESIAN_POINT('',(-165.1,35.664619361068,142.88813728906));
#621 = VECTOR('',#622,1.);
#622 = DIRECTION('',(1.,0.,0.));
#623 = PCURVE('',#286,#624);
#624 = DEFINITIONAL_REPRESENTATION('',(#625),#629);
#625 = LINE('',#626,#627);
#626 = CARTESIAN_POINT('',(6.28318530718,-0.));
#627 = VECTOR('',#628,1.);
#628 = DIRECTION('',(0.,1.));
#629 = ( GEOMETRIC_REPRESENTATION_CONTEXT(2) 
PARAMETRIC_REPRESENTATION_CONTEXT() REPRESENTATION_CONTEXT('2D SPACE',''
  ) );
#630 = PCURVE('',#286,#631);
#631 = DEFINITIONAL_REPRESENTATION('',(#632),#636);
#632 = LINE('',#633,#634);
#633 = CARTESIAN_POINT('',(0.,-0.));
#634 = VECTOR('',#635,1.);
#635 = DIRECTION('',(0.,1.));
#636 = ( GEOMETRIC_REPRESENTATION_CONTEXT(2) 
PARAMETRIC_REPRESENTATION_CONTEXT() REPRESENTATION_CONTEXT('2D SPACE',''
  ) );
#637 = ORIENTED_EDGE('',*,*,#269,.T.);
#638 = ORIENTED_EDGE('',*,*,#617,.T.);
#639 = ADVANCED_FACE('',(#640),#317,.F.);
#640 = FACE_BOUND('',#641,.F.);
#641 = EDGE_LOOP('',(#642,#643,#664,#665));
#642 = ORIENTED_EDGE('',*,*,#510,.F.);
#643 = ORIENTED_EDGE('',*,*,#644,.F.);
#644 = EDGE_CURVE('',#301,#511,#645,.T.);
#645 = SEAM_CURVE('',#646,(#650,#657),.PCURVE_S1.);
#646 = LINE('',#647,#648);
#647 = CARTESIAN_POINT('',(-165.1,8.082668874373E-16,168.8));
#648 = VECTOR('',#649,1.);
#649 = DIRECTION('',(1.,0.,0.));
#650 = PCURVE('',#317,#651);
#651 = DEFINITIONAL_REPRESENTATION('',(#652),#656);
#652 = LINE('',#653,#654);
#653 = CARTESIAN_POINT('',(6.28318530718,-0.));
#654 = VECTOR('',#655,1.);
#655 = DIRECTION('',(0.,1.));
#656 = ( GEOMETRIC_REPRESENTATION_CONTEXT(2) 
PARAMETRIC_REPRESENTATION_CONTEXT() REPRESENTATION_CONTEXT('2D SPACE',''
  ) );
#657 = PCURVE('',#317,#658);
#658 = DEFINITIONAL_REPRESENTATION('',(#659),#663);
#659 = LINE('',#660,#661);
#660 = CARTESIAN_POINT('',(0.,-0.));
#661 = VECTOR('',#662,1.);
#662 = DIRECTION('',(0.,1.));
#663 = ( GEOMETRIC_REPRESENTATION_CONTEXT(2) 
PARAMETRIC_REPRESENTATION_CONTEXT() REPRESENTATION_CONTEXT('2D SPACE',''
  ) );
#664 = ORIENTED_EDGE('',*,*,#300,.T.);
#665 = ORIENTED_EDGE('',*,*,#644,.T.);
#666 = ADVANCED_FACE('',(#667),#348,.F.);
#667 = FACE_BOUND('',#668,.F.);
#668 = EDGE_LOOP('',(#669,#670,#691,#692));
#669 = ORIENTED_EDGE('',*,*,#536,.F.);
#670 = ORIENTED_EDGE('',*,*,#671,.F.);
#671 = EDGE_CURVE('',#332,#537,#672,.T.);
#672 = SEAM_CURVE('',#673,(#677,#684),.PCURVE_S1.);
#673 = LINE('',#674,#675);
#674 = CARTESIAN_POINT('',(-165.1,-22.04194696096,100.96186271093));
#675 = VECTOR('',#676,1.);
#676 = DIRECTION('',(1.,0.,0.));
#677 = PCURVE('',#348,#678);
#678 = DEFINITIONAL_REPRESENTATION('',(#679),#683);
#679 = LINE('',#680,#681);
#680 = CARTESIAN_POINT('',(6.28318530718,-0.));
#681 = VECTOR('',#682,1.);
#682 = DIRECTION('',(0.,1.));
#683 = ( GEOMETRIC_REPRESENTATION_CONTEXT(2) 
PARAMETRIC_REPRESENTATION_CONTEXT() REPRESENTATION_CONTEXT('2D SPACE',''
  ) );
#684 = PCURVE('',#348,#685);
#685 = DEFINITIONAL_REPRESENTATION('',(#686),#690);
#686 = LINE('',#687,#688);
#687 = CARTESIAN_POINT('',(0.,-0.));
#688 = VECTOR('',#689,1.);
#689 = DIRECTION('',(0.,1.));
#690 = ( GEOMETRIC_REPRESENTATION_CONTEXT(2) 
PARAMETRIC_REPRESENTATION_CONTEXT() REPRESENTATION_CONTEXT('2D SPACE',''
  ) );
#691 = ORIENTED_EDGE('',*,*,#331,.T.);
#692 = ORIENTED_EDGE('',*,*,#671,.T.);
#693 = ADVANCED_FACE('',(#694),#379,.F.);
#694 = FACE_BOUND('',#695,.F.);
#695 = EDGE_LOOP('',(#696,#697,#718,#719));
#696 = ORIENTED_EDGE('',*,*,#562,.F.);
#697 = ORIENTED_EDGE('',*,*,#698,.F.);
#698 = EDGE_CURVE('',#363,#563,#699,.T.);
#699 = SEAM_CURVE('',#700,(#704,#711),.PCURVE_S1.);
#700 = LINE('',#701,#702);
#701 = CARTESIAN_POINT('',(-165.1,-35.66461936106,142.88813728906));
#702 = VECTOR('',#703,1.);
#703 = DIRECTION('',(1.,0.,0.));
#704 = PCURVE('',#379,#705);
#705 = DEFINITIONAL_REPRESENTATION('',(#706),#710);
#706 = LINE('',#707,#708);
#707 = CARTESIAN_POINT('',(6.28318530718,-0.));
#708 = VECTOR('',#709,1.);
#709 = DIRECTION('',(0.,1.));
#710 = ( GEOMETRIC_REPRESENTATION_CONTEXT(2) 
PARAMETRIC_REPRESENTATION_CONTEXT() REPRESENTATION_CONTEXT('2D SPACE',''
  ) );
#711 = PCURVE('',#379,#712);
#712 = DEFINITIONAL_REPRESENTATION('',(#713),#717);
#713 = LINE('',#714,#715);
#714 = CARTESIAN_POINT('',(0.,-0.));
#715 = VECTOR('',#716,1.);
#716 = DIRECTION('',(0.,1.));
#717 = ( GEOMETRIC_REPRESENTATION_CONTEXT(2) 
PARAMETRIC_REPRESENTATION_CONTEXT() REPRESENTATION_CONTEXT('2D SPACE',''
  ) );
#718 = ORIENTED_EDGE('',*,*,#362,.T.);
#719 = ORIENTED_EDGE('',*,*,#698,.T.);
#720 = ADVANCED_FACE('',(#721,#775),#470,.T.);
#721 = FACE_BOUND('',#722,.T.);
#722 = EDGE_LOOP('',(#723,#746,#773,#774));
#723 = ORIENTED_EDGE('',*,*,#724,.T.);
#724 = EDGE_CURVE('',#454,#725,#727,.T.);
#725 = VERTEX_POINT('',#726);
#726 = CARTESIAN_POINT('',(-149.,7.335634326893E-15,157.95));
#727 = SEAM_CURVE('',#728,(#732,#739),.PCURVE_S1.);
#728 = LINE('',#729,#730);
#729 = CARTESIAN_POINT('',(-155.1,7.335634326893E-15,157.95));
#730 = VECTOR('',#731,1.);
#731 = DIRECTION('',(1.,0.,0.));
#732 = PCURVE('',#470,#733);
#733 = DEFINITIONAL_REPRESENTATION('',(#734),#738);
#734 = LINE('',#735,#736);
#735 = CARTESIAN_POINT('',(6.28318530718,-0.));
#736 = VECTOR('',#737,1.);
#737 = DIRECTION('',(0.,1.));
#738 = ( GEOMETRIC_REPRESENTATION_CONTEXT(2) 
PARAMETRIC_REPRESENTATION_CONTEXT() REPRESENTATION_CONTEXT('2D SPACE',''
  ) );
#739 = PCURVE('',#470,#740);
#740 = DEFINITIONAL_REPRESENTATION('',(#741),#745);
#741 = LINE('',#742,#743);
#742 = CARTESIAN_POINT('',(0.,-0.));
#743 = VECTOR('',#744,1.);
#744 = DIRECTION('',(0.,1.));
#745 = ( GEOMETRIC_REPRESENTATION_CONTEXT(2) 
PARAMETRIC_REPRESENTATION_CONTEXT() REPRESENTATION_CONTEXT('2D SPACE',''
  ) );
#746 = ORIENTED_EDGE('',*,*,#747,.F.);
#747 = EDGE_CURVE('',#725,#725,#748,.T.);
#748 = SURFACE_CURVE('',#749,(#754,#761),.PCURVE_S1.);
#749 = CIRCLE('',#750,29.95);
#750 = AXIS2_PLACEMENT_3D('',#751,#752,#753);
#751 = CARTESIAN_POINT('',(-149.,0.,128.));
#752 = DIRECTION('',(1.,0.,0.));
#753 = DIRECTION('',(-0.,0.,1.));
#754 = PCURVE('',#470,#755);
#755 = DEFINITIONAL_REPRESENTATION('',(#756),#760);
#756 = LINE('',#757,#758);
#757 = CARTESIAN_POINT('',(0.,6.1));
#758 = VECTOR('',#759,1.);
#759 = DIRECTION('',(1.,0.));
#760 = ( GEOMETRIC_REPRESENTATION_CONTEXT(2) 
PARAMETRIC_REPRESENTATION_CONTEXT() REPRESENTATION_CONTEXT('2D SPACE',''
  ) );
#761 = PCURVE('',#762,#767);
#762 = PLANE('',#763);
#763 = AXIS2_PLACEMENT_3D('',#764,#765,#766);
#764 = CARTESIAN_POINT('',(-149.,0.,128.));
#765 = DIRECTION('',(1.,0.,0.));
#766 = DIRECTION('',(-0.,0.,1.));
#767 = DEFINITIONAL_REPRESENTATION('',(#768),#772);
#768 = CIRCLE('',#769,29.95);
#769 = AXIS2_PLACEMENT_2D('',#770,#771);
#770 = CARTESIAN_POINT('',(0.,0.));
#771 = DIRECTION('',(1.,0.));
#772 = ( GEOMETRIC_REPRESENTATION_CONTEXT(2) 
PARAMETRIC_REPRESENTATION_CONTEXT() REPRESENTATION_CONTEXT('2D SPACE',''
  ) );
#773 = ORIENTED_EDGE('',*,*,#724,.F.);
#774 = ORIENTED_EDGE('',*,*,#453,.T.);
#775 = FACE_BOUND('',#776,.T.);
#776 = EDGE_LOOP('',(#777));
#777 = ORIENTED_EDGE('',*,*,#778,.T.);
#778 = EDGE_CURVE('',#779,#779,#781,.T.);
#779 = VERTEX_POINT('',#780);
#780 = CARTESIAN_POINT('',(-149.5,-4.898587196589E-16,98.05));
#781 = SURFACE_CURVE('',#782,(#833,#887),.PCURVE_S1.);
#782 = B_SPLINE_CURVE_WITH_KNOTS('',7,(#783,#784,#785,#786,#787,#788,
    #789,#790,#791,#792,#793,#794,#795,#796,#797,#798,#799,#800,#801,
    #802,#803,#804,#805,#806,#807,#808,#809,#810,#811,#812,#813,#814,
    #815,#816,#817,#818,#819,#820,#821,#822,#823,#824,#825,#826,#827,
    #828,#829,#830,#831,#832),.UNSPECIFIED.,.T.,.F.,(8,6,6,6,6,6,6,6,8),
  (0.,0.126949685593,0.248173754088,0.369402845043,0.463578480692,
    0.581743369756,0.686812865545,0.840543686134,1.),.UNSPECIFIED.);
#783 = CARTESIAN_POINT('',(-149.5,-1.998401444325E-15,98.05));
#784 = CARTESIAN_POINT('',(-149.5,0.276423277169,98.05));
#785 = CARTESIAN_POINT('',(-149.5445719098,0.54497136363,98.052976473099
    ));
#786 = CARTESIAN_POINT('',(-149.6291478391,0.79742564136,98.058623990103
    ));
#787 = CARTESIAN_POINT('',(-149.74764562,1.027084094463,98.066121885863)
  );
#788 = CARTESIAN_POINT('',(-149.8925444261,1.228964096405,
    98.074368418774));
#789 = CARTESIAN_POINT('',(-150.0550290734,1.400288544115,
    98.082420690522));
#790 = CARTESIAN_POINT('',(-150.3876021729,1.675416939319,
    98.096595732002));
#791 = CARTESIAN_POINT('',(-150.5612299709,1.785402417249,
    98.102968707395));
#792 = CARTESIAN_POINT('',(-150.7424445044,1.871998273487,
    98.108381783733));
#793 = CARTESIAN_POINT('',(-150.9286947899,1.936184115422,
    98.112581513032));
#794 = CARTESIAN_POINT('',(-151.1180590949,1.978713951403,
    98.115427964336));
#795 = CARTESIAN_POINT('',(-151.3089741585,2.,98.116852575406));
#796 = CARTESIAN_POINT('',(-151.6910337558,2.,98.116852575406));
#797 = CARTESIAN_POINT('',(-151.8819467891,1.978712216792,
    98.115427849172));
#798 = CARTESIAN_POINT('',(-152.0713065305,1.936182743384,
    98.112581418722));
#799 = CARTESIAN_POINT('',(-152.2575542307,1.871998575982,
    98.108381822495));
#800 = CARTESIAN_POINT('',(-152.4387693361,1.785403270503,
    98.102968744445));
#801 = CARTESIAN_POINT('',(-152.6123985655,1.675416328338,
    98.096595700523));
#802 = CARTESIAN_POINT('',(-152.9010452205,1.436627048342,
    98.084292906599));
#803 = CARTESIAN_POINT('',(-153.0213829236,1.316765930475,98.07854373223
    ));
#804 = CARTESIAN_POINT('',(-153.1331125074,1.181336367279,
    98.072645671606));
#805 = CARTESIAN_POINT('',(-153.2334409257,1.030665654983,
    98.066895139093));
#806 = CARTESIAN_POINT('',(-153.3195224786,0.865523633697,
    98.061648464646));
#807 = CARTESIAN_POINT('',(-153.3884387002,0.687161332165,98.0572824166)
  );
#808 = CARTESIAN_POINT('',(-153.4983062765,0.25925537439,98.050175200457
    ));
#809 = CARTESIAN_POINT('',(-153.5264262392,7.96135976264E-03,
    98.04821171407));
#810 = CARTESIAN_POINT('',(-153.5168125954,-0.247566130374,
    98.04882244927));
#811 = CARTESIAN_POINT('',(-153.4690607838,-0.497241839481,
    98.052169925901));
#812 = CARTESIAN_POINT('',(-153.3869005518,-0.731289683304,
    98.057645835766));
#813 = CARTESIAN_POINT('',(-153.2780443712,-0.941878129177,
    98.06425812487));
#814 = CARTESIAN_POINT('',(-153.0440070423,-1.286253600867,
    98.077193298662));
#815 = CARTESIAN_POINT('',(-152.919375145,-1.429786157888,
    98.083610367554));
#816 = CARTESIAN_POINT('',(-152.7837567158,-1.554902001468,
    98.089938376913));
#817 = CARTESIAN_POINT('',(-152.6398477781,-1.662076434432,
    98.095853889506));
#818 = CARTESIAN_POINT('',(-152.4897651511,-1.751909419515,
    98.101125440106));
#819 = CARTESIAN_POINT('',(-152.3351952765,-1.824979046962,
    98.10559937868));
#820 = CARTESIAN_POINT('',(-151.9467110676,-1.964841968272,
    98.114404376799));
#821 = CARTESIAN_POINT('',(-151.709099143,-2.013092420312,
    98.117712410299));
#822 = CARTESIAN_POINT('',(-151.4684750758,-2.028063826903,
    98.118787994566));
#823 = CARTESIAN_POINT('',(-151.2276472522,-2.010273741891,
    98.117541255707));
#824 = CARTESIAN_POINT('',(-150.989502325,-1.959344306544,
    98.114019529097));
#825 = CARTESIAN_POINT('',(-150.7574275074,-1.874073324809,
    98.108443459938));
#826 = CARTESIAN_POINT('',(-150.3073293808,-1.626629785795,
    98.093938709041));
#827 = CARTESIAN_POINT('',(-150.0816631512,-1.457044441306,
    98.084619423364));
#828 = CARTESIAN_POINT('',(-149.8742415224,-1.240724762023,
    98.073955360255));
#829 = CARTESIAN_POINT('',(-149.6993172012,-0.979299379233,
    98.063309213753));
#830 = CARTESIAN_POINT('',(-149.5704146902,-0.678517069765,
    98.054702294941));
#831 = CARTESIAN_POINT('',(-149.5,-0.347436117503,98.05));
#832 = CARTESIAN_POINT('',(-149.5,-1.998401444325E-15,98.05));
#833 = PCURVE('',#470,#834);
#834 = DEFINITIONAL_REPRESENTATION('',(#835),#886);
#835 = B_SPLINE_CURVE_WITH_KNOTS('',7,(#836,#837,#838,#839,#840,#841,
    #842,#843,#844,#845,#846,#847,#848,#849,#850,#851,#852,#853,#854,
    #855,#856,#857,#858,#859,#860,#861,#862,#863,#864,#865,#866,#867,
    #868,#869,#870,#871,#872,#873,#874,#875,#876,#877,#878,#879,#880,
    #881,#882,#883,#884,#885),.UNSPECIFIED.,.T.,.F.,(8,6,6,6,6,6,6,6,8),
  (0.,0.126949685593,0.248173754088,0.369402845043,0.463578480692,
    0.581743369756,0.686812865545,0.840543686134,1.),.UNSPECIFIED.);
#836 = CARTESIAN_POINT('',(3.14159265359,5.6));
#837 = CARTESIAN_POINT('',(3.150822145315,5.6));
#838 = CARTESIAN_POINT('',(3.159788694005,5.555428090118));
#839 = CARTESIAN_POINT('',(3.168219160522,5.470852160868));
#840 = CARTESIAN_POINT('',(3.175890772549,5.352354379966));
#841 = CARTESIAN_POINT('',(3.182636755816,5.207455573808));
#842 = CARTESIAN_POINT('',(3.188363359771,5.044970926518));
#843 = CARTESIAN_POINT('',(3.197561800948,4.712397827015));
#844 = CARTESIAN_POINT('',(3.201240188365,4.538770029027));
#845 = CARTESIAN_POINT('',(3.204137153428,4.357555495522));
#846 = CARTESIAN_POINT('',(3.206284832722,4.171305210095));
#847 = CARTESIAN_POINT('',(3.207708037776,3.981940905028));
#848 = CARTESIAN_POINT('',(3.208420347175,3.791025841427));
#849 = CARTESIAN_POINT('',(3.208420347175,3.40896624414));
#850 = CARTESIAN_POINT('',(3.207707979734,3.218053210863));
#851 = CARTESIAN_POINT('',(3.206284786799,3.028693469407));
#852 = CARTESIAN_POINT('',(3.204137163593,2.842445769219));
#853 = CARTESIAN_POINT('',(3.201240216877,2.661230663857));
#854 = CARTESIAN_POINT('',(3.197561780521,2.487601434435));
#855 = CARTESIAN_POINT('',(3.189578274696,2.198954779417));
#856 = CARTESIAN_POINT('',(3.185571659281,2.078617076394));
#857 = CARTESIAN_POINT('',(3.181045587867,1.966887492506));
#858 = CARTESIAN_POINT('',(3.176011334753,1.866559074202));
#859 = CARTESIAN_POINT('',(3.170494842268,1.780477521382));
#860 = CARTESIAN_POINT('',(3.16453790811,1.711561299797));
#861 = CARTESIAN_POINT('',(3.150248593364,1.6016937235));
#862 = CARTESIAN_POINT('',(3.141858207744,1.57357376076));
#863 = CARTESIAN_POINT('',(3.133327112618,1.583187404578));
#864 = CARTESIAN_POINT('',(3.124990796619,1.630939216109));
#865 = CARTESIAN_POINT('',(3.117174438114,1.713099448112));
#866 = CARTESIAN_POINT('',(3.110139774897,1.821955628789));
#867 = CARTESIAN_POINT('',(3.098633320249,2.055992957675));
#868 = CARTESIAN_POINT('',(3.093836249298,2.180624854909));
#869 = CARTESIAN_POINT('',(3.089653512167,2.316243284146));
#870 = CARTESIAN_POINT('',(3.086069664676,2.460152221844));
#871 = CARTESIAN_POINT('',(3.083065088775,2.610234848812));
#872 = CARTESIAN_POINT('',(3.080620803135,2.764804723475));
#873 = CARTESIAN_POINT('',(3.075941677783,3.153288932314));
#874 = CARTESIAN_POINT('',(3.074326887141,3.390900856929));
#875 = CARTESIAN_POINT('',(3.073825706068,3.631524924137));
#876 = CARTESIAN_POINT('',(3.074421159616,3.872352747747));
#877 = CARTESIAN_POINT('',(3.076125715372,4.11049767495));
#878 = CARTESIAN_POINT('',(3.078978843001,4.34257249256));
#879 = CARTESIAN_POINT('',(3.087254913027,4.79267061911));
#880 = CARTESIAN_POINT('',(3.092925700425,5.0183368488));
#881 = CARTESIAN_POINT('',(3.100156973849,5.22575847759));
#882 = CARTESIAN_POINT('',(3.108892301846,5.400682798784));
#883 = CARTESIAN_POINT('',(3.118937658347,5.529585309749));
#884 = CARTESIAN_POINT('',(3.129992115443,5.6));
#885 = CARTESIAN_POINT('',(3.14159265359,5.6));
#886 = ( GEOMETRIC_REPRESENTATION_CONTEXT(2) 
PARAMETRIC_REPRESENTATION_CONTEXT() REPRESENTATION_CONTEXT('2D SPACE',''
  ) );
#887 = PCURVE('',#888,#893);
#888 = CYLINDRICAL_SURFACE('',#889,2.);
#889 = AXIS2_PLACEMENT_3D('',#890,#891,#892);
#890 = CARTESIAN_POINT('',(-151.5,0.,97.05));
#891 = DIRECTION('',(0.,0.,1.));
#892 = DIRECTION('',(1.,0.,-0.));
#893 = DEFINITIONAL_REPRESENTATION('',(#894),#945);
#894 = B_SPLINE_CURVE_WITH_KNOTS('',7,(#895,#896,#897,#898,#899,#900,
    #901,#902,#903,#904,#905,#906,#907,#908,#909,#910,#911,#912,#913,
    #914,#915,#916,#917,#918,#919,#920,#921,#922,#923,#924,#925,#926,
    #927,#928,#929,#930,#931,#932,#933,#934,#935,#936,#937,#938,#939,
    #940,#941,#942,#943,#944),.UNSPECIFIED.,.F.,.F.,(8,6,6,6,6,6,6,6,8),
  (0.,0.126949685593,0.248173754088,0.369402845043,0.463578480692,
    0.581743369756,0.686812865545,0.840543686134,1.),.UNSPECIFIED.);
#895 = CARTESIAN_POINT('',(0.,1.));
#896 = CARTESIAN_POINT('',(0.138211638584,1.));
#897 = CARTESIAN_POINT('',(0.272485629205,1.002976473099));
#898 = CARTESIAN_POINT('',(0.403025104703,1.008623990103));
#899 = CARTESIAN_POINT('',(0.529686741332,1.016121885863));
#900 = CARTESIAN_POINT('',(0.65204860239,1.024368418774));
#901 = CARTESIAN_POINT('',(0.769250081146,1.032420690522));
#902 = CARTESIAN_POINT('',(0.985062789507,1.046595732002));
#903 = CARTESIAN_POINT('',(1.087007826195,1.052968707395));
#904 = CARTESIAN_POINT('',(1.186333882631,1.058381783733));
#905 = CARTESIAN_POINT('',(1.283720142948,1.062581513032));
#906 = CARTESIAN_POINT('',(1.379825978175,1.065427964336));
#907 = CARTESIAN_POINT('',(1.475283406081,1.066852575406));
#908 = CARTESIAN_POINT('',(1.666313204725,1.066852575406));
#909 = CARTESIAN_POINT('',(1.761769607883,1.065427849172));
#910 = CARTESIAN_POINT('',(1.857873362156,1.062581418722));
#911 = CARTESIAN_POINT('',(1.955258191205,1.058381822495));
#912 = CARTESIAN_POINT('',(2.054584294001,1.052968744445));
#913 = CARTESIAN_POINT('',(2.156530343341,1.046595700523));
#914 = CARTESIAN_POINT('',(2.34383838621,1.034292906599));
#915 = CARTESIAN_POINT('',(2.428400867243,1.02854373223));
#916 = CARTESIAN_POINT('',(2.515504186631,1.022645671606));
#917 = CARTESIAN_POINT('',(2.605132474409,1.016895139093));
#918 = CARTESIAN_POINT('',(2.697347487196,1.011648464646));
#919 = CARTESIAN_POINT('',(2.792296597282,1.0072824166));
#920 = CARTESIAN_POINT('',(3.013189327481,1.000175200457));
#921 = CARTESIAN_POINT('',(3.138384997329,0.99821171407));
#922 = CARTESIAN_POINT('',(3.263975484778,0.99882244927));
#923 = CARTESIAN_POINT('',(3.388554407162,1.002169925901));
#924 = CARTESIAN_POINT('',(3.510614539526,1.007645835766));
#925 = CARTESIAN_POINT('',(3.628295216689,1.01425812487));
#926 = CARTESIAN_POINT('',(3.836482594317,1.027193298662));
#927 = CARTESIAN_POINT('',(3.930866748327,1.033610367554));
#928 = CARTESIAN_POINT('',(4.0222549188,1.039938376913));
#929 = CARTESIAN_POINT('',(4.111127526917,1.045853889506));
#930 = CARTESIAN_POINT('',(4.197906635355,1.051125440106));
#931 = CARTESIAN_POINT('',(4.282999004918,1.05559937868));
#932 = CARTESIAN_POINT('',(4.489446103029,1.064404376799));
#933 = CARTESIAN_POINT('',(4.609400525968,1.067712410299));
#934 = CARTESIAN_POINT('',(4.728147233622,1.068787994566));
#935 = CARTESIAN_POINT('',(4.846876769086,1.067541255707));
#936 = CARTESIAN_POINT('',(4.966759228137,1.064019529097));
#937 = CARTESIAN_POINT('',(5.088983567901,1.058443459938));
#938 = CARTESIAN_POINT('',(5.345798982413,1.043938709041));
#939 = CARTESIAN_POINT('',(5.485523495018,1.034619423363));
#940 = CARTESIAN_POINT('',(5.632168660373,1.023955360255));
#941 = CARTESIAN_POINT('',(5.784982564405,1.013309213753));
#942 = CARTESIAN_POINT('',(5.943924920268,1.004702294941));
#943 = CARTESIAN_POINT('',(6.109467248428,1.));
#944 = CARTESIAN_POINT('',(6.28318530718,1.));
#945 = ( GEOMETRIC_REPRESENTATION_CONTEXT(2) 
PARAMETRIC_REPRESENTATION_CONTEXT() REPRESENTATION_CONTEXT('2D SPACE',''
  ) );
#946 = ADVANCED_FACE('',(#947,#950),#762,.T.);
#947 = FACE_BOUND('',#948,.T.);
#948 = EDGE_LOOP('',(#949));
#949 = ORIENTED_EDGE('',*,*,#747,.T.);
#950 = FACE_BOUND('',#951,.T.);
#951 = EDGE_LOOP('',(#952));
#952 = ORIENTED_EDGE('',*,*,#953,.F.);
#953 = EDGE_CURVE('',#954,#954,#956,.T.);
#954 = VERTEX_POINT('',#955);
#955 = CARTESIAN_POINT('',(-149.,4.898587196589E-15,148.));
#956 = SURFACE_CURVE('',#957,(#962,#969),.PCURVE_S1.);
#957 = CIRCLE('',#958,20.);
#958 = AXIS2_PLACEMENT_3D('',#959,#960,#961);
#959 = CARTESIAN_POINT('',(-149.,0.,128.));
#960 = DIRECTION('',(1.,0.,0.));
#961 = DIRECTION('',(-0.,0.,1.));
#962 = PCURVE('',#762,#963);
#963 = DEFINITIONAL_REPRESENTATION('',(#964),#968);
#964 = CIRCLE('',#965,20.);
#965 = AXIS2_PLACEMENT_2D('',#966,#967);
#966 = CARTESIAN_POINT('',(0.,0.));
#967 = DIRECTION('',(1.,0.));
#968 = ( GEOMETRIC_REPRESENTATION_CONTEXT(2) 
PARAMETRIC_REPRESENTATION_CONTEXT() REPRESENTATION_CONTEXT('2D SPACE',''
  ) );
#969 = PCURVE('',#970,#975);
#970 = CYLINDRICAL_SURFACE('',#971,20.);
#971 = AXIS2_PLACEMENT_3D('',#972,#973,#974);
#972 = CARTESIAN_POINT('',(-155.,0.,128.));
#973 = DIRECTION('',(1.,0.,0.));
#974 = DIRECTION('',(-0.,0.,1.));
#975 = DEFINITIONAL_REPRESENTATION('',(#976),#980);
#976 = LINE('',#977,#978);
#977 = CARTESIAN_POINT('',(0.,6.));
#978 = VECTOR('',#979,1.);
#979 = DIRECTION('',(1.,0.));
#980 = ( GEOMETRIC_REPRESENTATION_CONTEXT(2) 
PARAMETRIC_REPRESENTATION_CONTEXT() REPRESENTATION_CONTEXT('2D SPACE',''
  ) );
#981 = ADVANCED_FACE('',(#982),#888,.F.);
#982 = FACE_BOUND('',#983,.F.);
#983 = EDGE_LOOP('',(#984,#1148,#1169,#1170));
#984 = ORIENTED_EDGE('',*,*,#985,.F.);
#985 = EDGE_CURVE('',#986,#986,#988,.T.);
#986 = VERTEX_POINT('',#987);
#987 = CARTESIAN_POINT('',(-149.5,-4.898587196589E-16,108.));
#988 = SURFACE_CURVE('',#989,(#1040,#1094),.PCURVE_S1.);
#989 = B_SPLINE_CURVE_WITH_KNOTS('',7,(#990,#991,#992,#993,#994,#995,
    #996,#997,#998,#999,#1000,#1001,#1002,#1003,#1004,#1005,#1006,#1007,
    #1008,#1009,#1010,#1011,#1012,#1013,#1014,#1015,#1016,#1017,#1018,
    #1019,#1020,#1021,#1022,#1023,#1024,#1025,#1026,#1027,#1028,#1029,
    #1030,#1031,#1032,#1033,#1034,#1035,#1036,#1037,#1038,#1039),
  .UNSPECIFIED.,.T.,.F.,(8,6,6,6,6,6,6,6,8),(0.,0.122838790471,
    0.250005554448,0.377178139887,0.500000147281,0.62285067155,
    0.750025868722,0.877200728457,1.),.UNSPECIFIED.);
#990 = CARTESIAN_POINT('',(-149.5,-1.554312234475E-15,108.));
#991 = CARTESIAN_POINT('',(-149.5,0.265147384562,108.));
#992 = CARTESIAN_POINT('',(-149.5410097807,0.523393074005,
    108.00410107213));
#993 = CARTESIAN_POINT('',(-149.6191891352,0.767301443981,
    108.01191849024));
#994 = CARTESIAN_POINT('',(-149.7292332456,0.990660888439,
    108.02239993533));
#995 = CARTESIAN_POINT('',(-149.8644497298,1.188734624204,
    108.03409301726));
#996 = CARTESIAN_POINT('',(-150.0168689767,1.358715925854,
    108.04570150701));
#997 = CARTESIAN_POINT('',(-150.3435387081,1.646714034635,
    108.06736559823));
#998 = CARTESIAN_POINT('',(-150.5227322185,1.766535344154,
    108.07764141628));
#999 = CARTESIAN_POINT('',(-150.7106909708,1.860795624281,
    108.08643221133));
#1000 = CARTESIAN_POINT('',(-150.9044300992,1.930611010231,
    108.09327732446));
#1001 = CARTESIAN_POINT('',(-151.1017271851,1.976852173192,
    108.09792483149));
#1002 = CARTESIAN_POINT('',(-151.3007948764,2.,108.10025125786));
#1003 = CARTESIAN_POINT('',(-151.6992142428,2.,108.10025125786));
#1004 = CARTESIAN_POINT('',(-151.8982798436,1.97685009512,108.0979246249
    ));
#1005 = CARTESIAN_POINT('',(-152.0955716268,1.930609250238,
    108.09327714162));
#1006 = CARTESIAN_POINT('',(-152.2893073891,1.860795930192,
    108.08643228027));
#1007 = CARTESIAN_POINT('',(-152.4772664089,1.766536641141,
    108.0776415088));
#1008 = CARTESIAN_POINT('',(-152.6564615612,1.646713797192,
    108.06736558037));
#1009 = CARTESIAN_POINT('',(-152.9831014871,1.358741965436,
    108.04570346579));
#1010 = CARTESIAN_POINT('',(-153.1355334548,1.188762586433,
    108.03409468441));
#1011 = CARTESIAN_POINT('',(-153.2707754616,0.99066524884,108.0223995429
    ));
#1012 = CARTESIAN_POINT('',(-153.3808351662,0.767267379452,
    108.01191606612));
#1013 = CARTESIAN_POINT('',(-153.4590092605,0.523327251996,
    108.00409916576));
#1014 = CARTESIAN_POINT('',(-153.5,0.265085836799,108.));
#1015 = CARTESIAN_POINT('',(-153.5,-0.265147384562,108.));
#1016 = CARTESIAN_POINT('',(-153.4589902192,-0.523393074005,
    108.00410107213));
#1017 = CARTESIAN_POINT('',(-153.3808108647,-0.767301443981,
    108.01191849024));
#1018 = CARTESIAN_POINT('',(-153.2707667543,-0.99066088844,
    108.02239993533));
#1019 = CARTESIAN_POINT('',(-153.1355502701,-1.188734624203,
    108.03409301726));
#1020 = CARTESIAN_POINT('',(-152.9831310232,-1.358715925854,
    108.04570150701));
#1021 = CARTESIAN_POINT('',(-152.6564661443,-1.646709756615,
    108.06736527643));
#1022 = CARTESIAN_POINT('',(-152.4772684861,-1.76653692519,
    108.07764146141));
#1023 = CARTESIAN_POINT('',(-152.2893037603,-1.860798561389,
    108.08643254828));
#1024 = CARTESIAN_POINT('',(-152.0955656251,-1.930610803487,
    108.09327729829));
#1025 = CARTESIAN_POINT('',(-151.8982763939,-1.976849953997,
    108.0979246101));
#1026 = CARTESIAN_POINT('',(-151.6992147655,-2.,108.10025125786));
#1027 = CARTESIAN_POINT('',(-151.3007857629,-2.,108.10025125786));
#1028 = CARTESIAN_POINT('',(-151.1017201421,-1.97685009659,
    108.09792462499));
#1029 = CARTESIAN_POINT('',(-150.9044283834,-1.930609243264,
    108.09327714111));
#1030 = CARTESIAN_POINT('',(-150.7106926159,-1.860795943326,
    108.08643228126));
#1031 = CARTESIAN_POINT('',(-150.5227335796,-1.766536629327,
    108.0776415079));
#1032 = CARTESIAN_POINT('',(-150.3435384439,-1.646713801697,
    108.06736558071));
#1033 = CARTESIAN_POINT('',(-150.0169310836,-1.358770680446,
    108.04570562582));
#1034 = CARTESIAN_POINT('',(-149.8644762581,-1.188785604739,
    108.03409594169));
#1035 = CARTESIAN_POINT('',(-149.7292061334,-0.990655331975,
    108.02239820626));
#1036 = CARTESIAN_POINT('',(-149.6191363901,-0.76721772749,
    108.01191320186));
#1037 = CARTESIAN_POINT('',(-149.5409727713,-0.523255306637,
    108.00409737379));
#1038 = CARTESIAN_POINT('',(-149.5,-0.265027734618,108.));
#1039 = CARTESIAN_POINT('',(-149.5,-1.554312234475E-15,108.));
#1040 = PCURVE('',#888,#1041);
#1041 = DEFINITIONAL_REPRESENTATION('',(#1042),#1093);
#1042 = B_SPLINE_CURVE_WITH_KNOTS('',7,(#1043,#1044,#1045,#1046,#1047,
    #1048,#1049,#1050,#1051,#1052,#1053,#1054,#1055,#1056,#1057,#1058,
    #1059,#1060,#1061,#1062,#1063,#1064,#1065,#1066,#1067,#1068,#1069,
    #1070,#1071,#1072,#1073,#1074,#1075,#1076,#1077,#1078,#1079,#1080,
    #1081,#1082,#1083,#1084,#1085,#1086,#1087,#1088,#1089,#1090,#1091,
    #1092),.UNSPECIFIED.,.F.,.F.,(8,6,6,6,6,6,6,6,8),(0.,0.122838790471,
    0.250005554448,0.377178139887,0.500000147281,0.62285067155,
    0.750025868722,0.877200728457,1.),.UNSPECIFIED.);
#1043 = CARTESIAN_POINT('',(0.,10.95));
#1044 = CARTESIAN_POINT('',(0.132573692281,10.95));
#1045 = CARTESIAN_POINT('',(0.261696438839,10.954101072139));
#1046 = CARTESIAN_POINT('',(0.387456783739,10.96191849024));
#1047 = CARTESIAN_POINT('',(0.509662310555,10.972399935339));
#1048 = CARTESIAN_POINT('',(0.627869912259,10.984093017262));
#1049 = CARTESIAN_POINT('',(0.741240999013,10.995701507013));
#1050 = CARTESIAN_POINT('',(0.958988573102,11.017365598237));
#1051 = CARTESIAN_POINT('',(1.065815842784,11.027641416285));
#1052 = CARTESIAN_POINT('',(1.169696951385,11.03643221133));
#1053 = CARTESIAN_POINT('',(1.271396877436,11.043277324467));
#1054 = CARTESIAN_POINT('',(1.371660067522,11.047924831496));
#1055 = CARTESIAN_POINT('',(1.471193765007,11.050251257868));
#1056 = CARTESIAN_POINT('',(1.670403448205,11.050251257868));
#1057 = CARTESIAN_POINT('',(1.769936085736,11.047924624903));
#1058 = CARTESIAN_POINT('',(1.870196881833,11.043277141621));
#1059 = CARTESIAN_POINT('',(1.971894966619,11.036432280279));
#1060 = CARTESIAN_POINT('',(2.075775874571,11.027641508804));
#1061 = CARTESIAN_POINT('',(2.182604260012,11.017365580376));
#1062 = CARTESIAN_POINT('',(2.400331966754,10.99570346579));
#1063 = CARTESIAN_POINT('',(2.513707192935,10.984094684417));
#1064 = CARTESIAN_POINT('',(2.631931040541,10.972399542905));
#1065 = CARTESIAN_POINT('',(2.754155517243,10.961916066121));
#1066 = CARTESIAN_POINT('',(2.87992913267,10.954099165768));
#1067 = CARTESIAN_POINT('',(3.00904973519,10.95));
#1068 = CARTESIAN_POINT('',(3.274166345871,10.95));
#1069 = CARTESIAN_POINT('',(3.403289092429,10.954101072139));
#1070 = CARTESIAN_POINT('',(3.529049437328,10.96191849024));
#1071 = CARTESIAN_POINT('',(3.651254964146,10.972399935339));
#1072 = CARTESIAN_POINT('',(3.769462565849,10.984093017262));
#1073 = CARTESIAN_POINT('',(3.882833652603,10.995701507013));
#1074 = CARTESIAN_POINT('',(4.100577992196,11.017365276431));
#1075 = CARTESIAN_POINT('',(4.207408745319,11.027641461416));
#1076 = CARTESIAN_POINT('',(4.311292398987,11.036432548283));
#1077 = CARTESIAN_POINT('',(4.41299143761,11.043277298297));
#1078 = CARTESIAN_POINT('',(4.513250936549,11.0479246101));
#1079 = CARTESIAN_POINT('',(4.612781597587,11.050251257868));
#1080 = CARTESIAN_POINT('',(4.811996098892,11.050251257868));
#1081 = CARTESIAN_POINT('',(4.911528746073,11.047924624997));
#1082 = CARTESIAN_POINT('',(5.011789531685,11.043277141119));
#1083 = CARTESIAN_POINT('',(5.113487615201,11.036432281268));
#1084 = CARTESIAN_POINT('',(5.217368536031,11.027641507904));
#1085 = CARTESIAN_POINT('',(5.324196910197,11.017365580715));
#1086 = CARTESIAN_POINT('',(5.541902909702,10.99570562582));
#1087 = CARTESIAN_POINT('',(5.655288601091,10.984095941691));
#1088 = CARTESIAN_POINT('',(5.773532619879,10.97239820626));
#1089 = CARTESIAN_POINT('',(5.8957754706,10.961913201867));
#1090 = CARTESIAN_POINT('',(6.021557764105,10.95409737379));
#1091 = CARTESIAN_POINT('',(6.150671439871,10.95));
#1092 = CARTESIAN_POINT('',(6.28318530718,10.95));
#1093 = ( GEOMETRIC_REPRESENTATION_CONTEXT(2) 
PARAMETRIC_REPRESENTATION_CONTEXT() REPRESENTATION_CONTEXT('2D SPACE',''
  ) );
#1094 = PCURVE('',#970,#1095);
#1095 = DEFINITIONAL_REPRESENTATION('',(#1096),#1147);
#1096 = B_SPLINE_CURVE_WITH_KNOTS('',7,(#1097,#1098,#1099,#1100,#1101,
    #1102,#1103,#1104,#1105,#1106,#1107,#1108,#1109,#1110,#1111,#1112,
    #1113,#1114,#1115,#1116,#1117,#1118,#1119,#1120,#1121,#1122,#1123,
    #1124,#1125,#1126,#1127,#1128,#1129,#1130,#1131,#1132,#1133,#1134,
    #1135,#1136,#1137,#1138,#1139,#1140,#1141,#1142,#1143,#1144,#1145,
    #1146),.UNSPECIFIED.,.T.,.F.,(8,6,6,6,6,6,6,6,8),(0.,0.122838790471,
    0.250005554448,0.377178139887,0.500000147281,0.62285067155,
    0.750025868722,0.877200728457,1.),.UNSPECIFIED.);
#1097 = CARTESIAN_POINT('',(3.14159265359,5.5));
#1098 = CARTESIAN_POINT('',(3.154850022818,5.5));
#1099 = CARTESIAN_POINT('',(3.167762311728,5.458990219257));
#1100 = CARTESIAN_POINT('',(3.179961511142,5.380810864747));
#1101 = CARTESIAN_POINT('',(3.191140083904,5.270766754396));
#1102 = CARTESIAN_POINT('',(3.201060327595,5.135550270141));
#1103 = CARTESIAN_POINT('',(3.209578982733,4.983131023293));
#1104 = CARTESIAN_POINT('',(3.224019571668,4.656461291875));
#1105 = CARTESIAN_POINT('',(3.230032298663,4.477267781402));
#1106 = CARTESIAN_POINT('',(3.234765651729,4.289309029199));
#1107 = CARTESIAN_POINT('',(3.238273145605,4.0955699008));
#1108 = CARTESIAN_POINT('',(3.24059685294,3.898272814862));
#1109 = CARTESIAN_POINT('',(3.241760074751,3.699205123575));
#1110 = CARTESIAN_POINT('',(3.241760074751,3.30078575718));
#1111 = CARTESIAN_POINT('',(3.240596748532,3.101720156382));
#1112 = CARTESIAN_POINT('',(3.238273057118,2.904428373163));
#1113 = CARTESIAN_POINT('',(3.234765667292,2.710692610856));
#1114 = CARTESIAN_POINT('',(3.230032363661,2.522733591034));
#1115 = CARTESIAN_POINT('',(3.224019559762,2.343538438799));
#1116 = CARTESIAN_POINT('',(3.209580288391,2.016898512815));
#1117 = CARTESIAN_POINT('',(3.201061728127,1.86446654513));
#1118 = CARTESIAN_POINT('',(3.191140299771,1.729224538315));
#1119 = CARTESIAN_POINT('',(3.179959805131,1.61916483379));
#1120 = CARTESIAN_POINT('',(3.167759020614,1.54099073945));
#1121 = CARTESIAN_POINT('',(3.15484694543,1.5));
#1122 = CARTESIAN_POINT('',(3.128335284362,1.5));
#1123 = CARTESIAN_POINT('',(3.115422995452,1.541009780743));
#1124 = CARTESIAN_POINT('',(3.103223796038,1.619189135252));
#1125 = CARTESIAN_POINT('',(3.092045223276,1.729233245604));
#1126 = CARTESIAN_POINT('',(3.082124979585,1.864449729859));
#1127 = CARTESIAN_POINT('',(3.073606324446,2.016868976707));
#1128 = CARTESIAN_POINT('',(3.059165950017,2.343533855664));
#1129 = CARTESIAN_POINT('',(3.053152929539,2.52273151385));
#1130 = CARTESIAN_POINT('',(3.048419507716,2.710696239683));
#1131 = CARTESIAN_POINT('',(3.044912171964,2.904434374873));
#1132 = CARTESIAN_POINT('',(3.042588565756,3.101723606035));
#1133 = CARTESIAN_POINT('',(3.041425232428,3.300785234405));
#1134 = CARTESIAN_POINT('',(3.041425232428,3.699214237015));
#1135 = CARTESIAN_POINT('',(3.042588558574,3.898279857845));
#1136 = CARTESIAN_POINT('',(3.044912250411,4.09557161651));
#1137 = CARTESIAN_POINT('',(3.048419639229,4.28930738405));
#1138 = CARTESIAN_POINT('',(3.053152944111,4.477266420364));
#1139 = CARTESIAN_POINT('',(3.059165747192,4.656461556092));
#1140 = CARTESIAN_POINT('',(3.073603578982,4.9830689164));
#1141 = CARTESIAN_POINT('',(3.082122426656,5.135523741807));
#1142 = CARTESIAN_POINT('',(3.092045506607,5.270793866506));
#1143 = CARTESIAN_POINT('',(3.10322798745,5.380863609825));
#1144 = CARTESIAN_POINT('',(3.115429883745,5.459027228657));
#1145 = CARTESIAN_POINT('',(3.128341266859,5.5));
#1146 = CARTESIAN_POINT('',(3.14159265359,5.5));
#1147 = ( GEOMETRIC_REPRESENTATION_CONTEXT(2) 
PARAMETRIC_REPRESENTATION_CONTEXT() REPRESENTATION_CONTEXT('2D SPACE',''
  ) );
#1148 = ORIENTED_EDGE('',*,*,#1149,.F.);
#1149 = EDGE_CURVE('',#779,#986,#1150,.T.);
#1150 = SEAM_CURVE('',#1151,(#1155,#1162),.PCURVE_S1.);
#1151 = LINE('',#1152,#1153);
#1152 = CARTESIAN_POINT('',(-149.5,-4.898587196589E-16,97.05));
#1153 = VECTOR('',#1154,1.);
#1154 = DIRECTION('',(0.,0.,1.));
#1155 = PCURVE('',#888,#1156);
#1156 = DEFINITIONAL_REPRESENTATION('',(#1157),#1161);
#1157 = LINE('',#1158,#1159);
#1158 = CARTESIAN_POINT('',(6.28318530718,-0.));
#1159 = VECTOR('',#1160,1.);
#1160 = DIRECTION('',(0.,1.));
#1161 = ( GEOMETRIC_REPRESENTATION_CONTEXT(2) 
PARAMETRIC_REPRESENTATION_CONTEXT() REPRESENTATION_CONTEXT('2D SPACE',''
  ) );
#1162 = PCURVE('',#888,#1163);
#1163 = DEFINITIONAL_REPRESENTATION('',(#1164),#1168);
#1164 = LINE('',#1165,#1166);
#1165 = CARTESIAN_POINT('',(0.,-0.));
#1166 = VECTOR('',#1167,1.);
#1167 = DIRECTION('',(0.,1.));
#1168 = ( GEOMETRIC_REPRESENTATION_CONTEXT(2) 
PARAMETRIC_REPRESENTATION_CONTEXT() REPRESENTATION_CONTEXT('2D SPACE',''
  ) );
#1169 = ORIENTED_EDGE('',*,*,#778,.T.);
#1170 = ORIENTED_EDGE('',*,*,#1149,.T.);
#1171 = ADVANCED_FACE('',(#1172,#1226),#970,.F.);
#1172 = FACE_BOUND('',#1173,.F.);
#1173 = EDGE_LOOP('',(#1174,#1197,#1198,#1199));
#1174 = ORIENTED_EDGE('',*,*,#1175,.T.);
#1175 = EDGE_CURVE('',#1176,#954,#1178,.T.);
#1176 = VERTEX_POINT('',#1177);
#1177 = CARTESIAN_POINT('',(-155.,4.898587196589E-15,148.));
#1178 = SEAM_CURVE('',#1179,(#1183,#1190),.PCURVE_S1.);
#1179 = LINE('',#1180,#1181);
#1180 = CARTESIAN_POINT('',(-155.,4.898587196589E-15,148.));
#1181 = VECTOR('',#1182,1.);
#1182 = DIRECTION('',(1.,0.,0.));
#1183 = PCURVE('',#970,#1184);
#1184 = DEFINITIONAL_REPRESENTATION('',(#1185),#1189);
#1185 = LINE('',#1186,#1187);
#1186 = CARTESIAN_POINT('',(6.28318530718,-0.));
#1187 = VECTOR('',#1188,1.);
#1188 = DIRECTION('',(0.,1.));
#1189 = ( GEOMETRIC_REPRESENTATION_CONTEXT(2) 
PARAMETRIC_REPRESENTATION_CONTEXT() REPRESENTATION_CONTEXT('2D SPACE',''
  ) );
#1190 = PCURVE('',#970,#1191);
#1191 = DEFINITIONAL_REPRESENTATION('',(#1192),#1196);
#1192 = LINE('',#1193,#1194);
#1193 = CARTESIAN_POINT('',(0.,-0.));
#1194 = VECTOR('',#1195,1.);
#1195 = DIRECTION('',(0.,1.));
#1196 = ( GEOMETRIC_REPRESENTATION_CONTEXT(2) 
PARAMETRIC_REPRESENTATION_CONTEXT() REPRESENTATION_CONTEXT('2D SPACE',''
  ) );
#1197 = ORIENTED_EDGE('',*,*,#953,.F.);
#1198 = ORIENTED_EDGE('',*,*,#1175,.F.);
#1199 = ORIENTED_EDGE('',*,*,#1200,.T.);
#1200 = EDGE_CURVE('',#1176,#1176,#1201,.T.);
#1201 = SURFACE_CURVE('',#1202,(#1207,#1214),.PCURVE_S1.);
#1202 = CIRCLE('',#1203,20.);
#1203 = AXIS2_PLACEMENT_3D('',#1204,#1205,#1206);
#1204 = CARTESIAN_POINT('',(-155.,0.,128.));
#1205 = DIRECTION('',(1.,0.,0.));
#1206 = DIRECTION('',(-0.,0.,1.));
#1207 = PCURVE('',#970,#1208);
#1208 = DEFINITIONAL_REPRESENTATION('',(#1209),#1213);
#1209 = LINE('',#1210,#1211);
#1210 = CARTESIAN_POINT('',(0.,0.));
#1211 = VECTOR('',#1212,1.);
#1212 = DIRECTION('',(1.,0.));
#1213 = ( GEOMETRIC_REPRESENTATION_CONTEXT(2) 
PARAMETRIC_REPRESENTATION_CONTEXT() REPRESENTATION_CONTEXT('2D SPACE',''
  ) );
#1214 = PCURVE('',#1215,#1220);
#1215 = PLANE('',#1216);
#1216 = AXIS2_PLACEMENT_3D('',#1217,#1218,#1219);
#1217 = CARTESIAN_POINT('',(-155.,0.,128.));
#1218 = DIRECTION('',(1.,0.,0.));
#1219 = DIRECTION('',(-0.,0.,1.));
#1220 = DEFINITIONAL_REPRESENTATION('',(#1221),#1225);
#1221 = CIRCLE('',#1222,20.);
#1222 = AXIS2_PLACEMENT_2D('',#1223,#1224);
#1223 = CARTESIAN_POINT('',(0.,0.));
#1224 = DIRECTION('',(1.,0.));
#1225 = ( GEOMETRIC_REPRESENTATION_CONTEXT(2) 
PARAMETRIC_REPRESENTATION_CONTEXT() REPRESENTATION_CONTEXT('2D SPACE',''
  ) );
#1226 = FACE_BOUND('',#1227,.F.);
#1227 = EDGE_LOOP('',(#1228));
#1228 = ORIENTED_EDGE('',*,*,#985,.T.);
#1229 = ADVANCED_FACE('',(#1230),#1215,.T.);
#1230 = FACE_BOUND('',#1231,.F.);
#1231 = EDGE_LOOP('',(#1232));
#1232 = ORIENTED_EDGE('',*,*,#1200,.F.);
#1233 = ( GEOMETRIC_REPRESENTATION_CONTEXT(3) 
GLOBAL_UNCERTAINTY_ASSIGNED_CONTEXT((#1237)) 
GLOBAL_UNIT_ASSIGNED_CONTEXT((#1234,#1235,#1236)) REPRESENTATION_CONTEXT
('Context #1','3D Context with UNIT and UNCERTAINTY') );
#1234 = ( LENGTH_UNIT() NAMED_UNIT(*) SI_UNIT(.MILLI.,.METRE.) );
#1235 = ( NAMED_UNIT(*) PLANE_ANGLE_UNIT() SI_UNIT($,.RADIAN.) );
#1236 = ( NAMED_UNIT(*) SI_UNIT($,.STERADIAN.) SOLID_ANGLE_UNIT() );
#1237 = UNCERTAINTY_MEASURE_WITH_UNIT(LENGTH_MEASURE(1.E-07),#1234,
  'distance_accuracy_value','confusion accuracy');
#1238 = PRODUCT_RELATED_PRODUCT_CATEGORY('part',$,(#7));
ENDSEC;
END-ISO-10303-21;
