ISO-10303-21;
HEADER;
FILE_DESCRIPTION(('Open CASCADE Model'),'2;1');
FILE_NAME('Open CASCADE Shape Model','2026-09-23T09:53:13',('Author'),(
    'Open CASCADE'),'Open CASCADE STEP processor 7.9','Open CASCADE 7.9'
  ,'Unknown');
FILE_SCHEMA(('AUTOMOTIVE_DESIGN { 1 0 10303 214 1 1 1 1 }'));
ENDSEC;
DATA;
#1 = APPLICATION_PROTOCOL_DEFINITION('international standard',
  'automotive_design',2000,#2);
#2 = APPLICATION_CONTEXT(
  'core data for automotive mechanical design processes');
#3 = SHAPE_DEFINITION_REPRESENTATION(#4,#10);
#4 = PRODUCT_DEFINITION_SHAPE('','',#5);
#5 = PRODUCT_DEFINITION('design','',#6,#9);
#6 = PRODUCT_DEFINITION_FORMATION('','',#7);
#7 = PRODUCT('Open CASCADE STEP translator 7.9 51',
  'Open CASCADE STEP translator 7.9 51','',(#8));
#8 = PRODUCT_CONTEXT('',#2,'mechanical');
#9 = PRODUCT_DEFINITION_CONTEXT('part definition',#2,'design');
#10 = ADVANCED_BREP_SHAPE_REPRESENTATION('',(#11,#15),#1036);
#11 = AXIS2_PLACEMENT_3D('',#12,#13,#14);
#12 = CARTESIAN_POINT('',(0.,0.,0.));
#13 = DIRECTION('',(0.,0.,1.));
#14 = DIRECTION('',(1.,0.,-0.));
#15 = MANIFOLD_SOLID_BREP('',#16);
#16 = CLOSED_SHELL('',(#17,#175,#289,#403,#517,#626,#685,#799,#805,#811,
    #817,#877,#932,#987,#991,#1024,#1030));
#17 = ADVANCED_FACE('',(#18),#33,.F.);
#18 = FACE_BOUND('',#19,.F.);
#19 = EDGE_LOOP('',(#20,#60,#88,#116,#144));
#20 = ORIENTED_EDGE('',*,*,#21,.F.);
#21 = EDGE_CURVE('',#22,#24,#26,.T.);
#22 = VERTEX_POINT('',#23);
#23 = CARTESIAN_POINT('',(167.6528886174,35.664619361068,145.36163998095
    ));
#24 = VERTEX_POINT('',#25);
#25 = CARTESIAN_POINT('',(168.1,38.164619295362,143.91826434591));
#26 = SURFACE_CURVE('',#27,(#32,#44),.PCURVE_S1.);
#27 = HYPERBOLA('',#28,2.890173410405,5.);
#28 = AXIS2_PLACEMENT_3D('',#29,#30,#31);
#29 = CARTESIAN_POINT('',(170.9901734104,38.164619361068,143.91826430798
    ));
#30 = DIRECTION('',(-9.614813431918E-17,-0.5,-0.866025403784));
#31 = DIRECTION('',(-1.,0.,1.110223024625E-16));
#32 = PCURVE('',#33,#38);
#33 = PLANE('',#34);
#34 = AXIS2_PLACEMENT_3D('',#35,#36,#37);
#35 = CARTESIAN_POINT('',(168.1,35.664619361068,145.36163998095));
#36 = DIRECTION('',(-9.614813431918E-17,-0.5,-0.866025403784));
#37 = DIRECTION('',(-5.551115123126E-17,0.866025403784,-0.5));
#38 = DEFINITIONAL_REPRESENTATION('',(#39),#43);
#39 = HYPERBOLA('',#40,2.890173410405,5.);
#40 = AXIS2_PLACEMENT_2D('',#41,#42);
#41 = CARTESIAN_POINT('',(2.886751345948,2.890173410405));
#42 = DIRECTION('',(0.,-1.));
#43 = ( GEOMETRIC_REPRESENTATION_CONTEXT(2) 
PARAMETRIC_REPRESENTATION_CONTEXT() REPRESENTATION_CONTEXT('2D SPACE',''
  ) );
#44 = PCURVE('',#45,#50);
#45 = CONICAL_SURFACE('',#46,5.,1.046684393652);
#46 = AXIS2_PLACEMENT_3D('',#47,#48,#49);
#47 = CARTESIAN_POINT('',(168.1,35.664619361068,139.58813728906));
#48 = DIRECTION('',(-1.,0.,1.110223024625E-16));
#49 = DIRECTION('',(1.110223024625E-16,0.,1.));
#50 = DEFINITIONAL_REPRESENTATION('',(#51),#59);
#51 = B_SPLINE_CURVE_WITH_KNOTS('',6,(#52,#53,#54,#55,#56,#57,#58),
  .UNSPECIFIED.,.F.,.F.,(7,7),(-0.549306144334,8.881784197001E-17),
  .PIECEWISE_BEZIER_KNOTS.);
#52 = CARTESIAN_POINT('',(6.28318530718,0.447111382599));
#53 = CARTESIAN_POINT('',(6.362470819754,0.294345462417));
#54 = CARTESIAN_POINT('',(6.446111296363,0.175145630374));
#55 = CARTESIAN_POINT('',(6.53351011688,8.720724391533E-02));
#56 = CARTESIAN_POINT('',(6.623682461795,2.906911097883E-02));
#57 = CARTESIAN_POINT('',(6.715233058722,-1.605894866371E-17));
#58 = CARTESIAN_POINT('',(6.806784082778,0.));
#59 = ( GEOMETRIC_REPRESENTATION_CONTEXT(2) 
PARAMETRIC_REPRESENTATION_CONTEXT() REPRESENTATION_CONTEXT('2D SPACE',''
  ) );
#60 = ORIENTED_EDGE('',*,*,#61,.T.);
#61 = EDGE_CURVE('',#22,#62,#64,.T.);
#62 = VERTEX_POINT('',#63);
#63 = CARTESIAN_POINT('',(164.1,35.664619361068,145.36163998095));
#64 = SURFACE_CURVE('',#65,(#69,#76),.PCURVE_S1.);
#65 = LINE('',#66,#67);
#66 = CARTESIAN_POINT('',(168.1,35.664619361068,145.36163998095));
#67 = VECTOR('',#68,1.);
#68 = DIRECTION('',(-1.,0.,1.110223024625E-16));
#69 = PCURVE('',#33,#70);
#70 = DEFINITIONAL_REPRESENTATION('',(#71),#75);
#71 = LINE('',#72,#73);
#72 = CARTESIAN_POINT('',(0.,0.));
#73 = VECTOR('',#74,1.);
#74 = DIRECTION('',(0.,-1.));
#75 = ( GEOMETRIC_REPRESENTATION_CONTEXT(2) 
PARAMETRIC_REPRESENTATION_CONTEXT() REPRESENTATION_CONTEXT('2D SPACE',''
  ) );
#76 = PCURVE('',#77,#82);
#77 = PLANE('',#78);
#78 = AXIS2_PLACEMENT_3D('',#79,#80,#81);
#79 = CARTESIAN_POINT('',(168.1,30.664619361068,142.474888635));
#80 = DIRECTION('',(-9.614813431918E-17,0.5,-0.866025403784));
#81 = DIRECTION('',(5.551115123126E-17,0.866025403784,0.5));
#82 = DEFINITIONAL_REPRESENTATION('',(#83),#87);
#83 = LINE('',#84,#85);
#84 = CARTESIAN_POINT('',(5.773502691896,-3.204937810639E-16));
#85 = VECTOR('',#86,1.);
#86 = DIRECTION('',(0.,-1.));
#87 = ( GEOMETRIC_REPRESENTATION_CONTEXT(2) 
PARAMETRIC_REPRESENTATION_CONTEXT() REPRESENTATION_CONTEXT('2D SPACE',''
  ) );
#88 = ORIENTED_EDGE('',*,*,#89,.T.);
#89 = EDGE_CURVE('',#62,#90,#92,.T.);
#90 = VERTEX_POINT('',#91);
#91 = CARTESIAN_POINT('',(164.1,40.664619361068,142.474888635));
#92 = SURFACE_CURVE('',#93,(#97,#104),.PCURVE_S1.);
#93 = LINE('',#94,#95);
#94 = CARTESIAN_POINT('',(164.1,35.664619361068,145.36163998095));
#95 = VECTOR('',#96,1.);
#96 = DIRECTION('',(-5.551115123126E-17,0.866025403784,-0.5));
#97 = PCURVE('',#33,#98);
#98 = DEFINITIONAL_REPRESENTATION('',(#99),#103);
#99 = LINE('',#100,#101);
#100 = CARTESIAN_POINT('',(2.22044604925E-16,-4.));
#101 = VECTOR('',#102,1.);
#102 = DIRECTION('',(1.,0.));
#103 = ( GEOMETRIC_REPRESENTATION_CONTEXT(2) 
PARAMETRIC_REPRESENTATION_CONTEXT() REPRESENTATION_CONTEXT('2D SPACE',''
  ) );
#104 = PCURVE('',#105,#110);
#105 = PLANE('',#106);
#106 = AXIS2_PLACEMENT_3D('',#107,#108,#109);
#107 = CARTESIAN_POINT('',(164.1,35.664619361068,139.58813728906));
#108 = DIRECTION('',(-1.,0.,1.110223024625E-16));
#109 = DIRECTION('',(1.110223024625E-16,0.,1.));
#110 = DEFINITIONAL_REPRESENTATION('',(#111),#115);
#111 = LINE('',#112,#113);
#112 = CARTESIAN_POINT('',(5.773502691896,0.));
#113 = VECTOR('',#114,1.);
#114 = DIRECTION('',(-0.5,0.866025403784));
#115 = ( GEOMETRIC_REPRESENTATION_CONTEXT(2) 
PARAMETRIC_REPRESENTATION_CONTEXT() REPRESENTATION_CONTEXT('2D SPACE',''
  ) );
#116 = ORIENTED_EDGE('',*,*,#117,.F.);
#117 = EDGE_CURVE('',#118,#90,#120,.T.);
#118 = VERTEX_POINT('',#119);
#119 = CARTESIAN_POINT('',(167.6528886174,40.664619361068,142.474888635)
  );
#120 = SURFACE_CURVE('',#121,(#125,#132),.PCURVE_S1.);
#121 = LINE('',#122,#123);
#122 = CARTESIAN_POINT('',(168.1,40.664619361068,142.474888635));
#123 = VECTOR('',#124,1.);
#124 = DIRECTION('',(-1.,0.,1.110223024625E-16));
#125 = PCURVE('',#33,#126);
#126 = DEFINITIONAL_REPRESENTATION('',(#127),#131);
#127 = LINE('',#128,#129);
#128 = CARTESIAN_POINT('',(5.773502691896,3.204937810639E-16));
#129 = VECTOR('',#130,1.);
#130 = DIRECTION('',(0.,-1.));
#131 = ( GEOMETRIC_REPRESENTATION_CONTEXT(2) 
PARAMETRIC_REPRESENTATION_CONTEXT() REPRESENTATION_CONTEXT('2D SPACE',''
  ) );
#132 = PCURVE('',#133,#138);
#133 = PLANE('',#134);
#134 = AXIS2_PLACEMENT_3D('',#135,#136,#137);
#135 = CARTESIAN_POINT('',(168.1,40.664619361068,142.474888635));
#136 = DIRECTION('',(-1.707933959934E-32,-1.,-1.538370149107E-16));
#137 = DIRECTION('',(-1.110223024625E-16,1.538370149107E-16,-1.));
#138 = DEFINITIONAL_REPRESENTATION('',(#139),#143);
#139 = LINE('',#140,#141);
#140 = CARTESIAN_POINT('',(0.,0.));
#141 = VECTOR('',#142,1.);
#142 = DIRECTION('',(0.,-1.));
#143 = ( GEOMETRIC_REPRESENTATION_CONTEXT(2) 
PARAMETRIC_REPRESENTATION_CONTEXT() REPRESENTATION_CONTEXT('2D SPACE',''
  ) );
#144 = ORIENTED_EDGE('',*,*,#145,.F.);
#145 = EDGE_CURVE('',#24,#118,#146,.T.);
#146 = SURFACE_CURVE('',#147,(#152,#159),.PCURVE_S1.);
#147 = HYPERBOLA('',#148,2.890173410405,5.);
#148 = AXIS2_PLACEMENT_3D('',#149,#150,#151);
#149 = CARTESIAN_POINT('',(170.9901734104,38.164619361068,
    143.91826430798));
#150 = DIRECTION('',(-9.614813431918E-17,-0.5,-0.866025403784));
#151 = DIRECTION('',(-1.,0.,1.110223024625E-16));
#152 = PCURVE('',#33,#153);
#153 = DEFINITIONAL_REPRESENTATION('',(#154),#158);
#154 = HYPERBOLA('',#155,2.890173410405,5.);
#155 = AXIS2_PLACEMENT_2D('',#156,#157);
#156 = CARTESIAN_POINT('',(2.886751345948,2.890173410405));
#157 = DIRECTION('',(0.,-1.));
#158 = ( GEOMETRIC_REPRESENTATION_CONTEXT(2) 
PARAMETRIC_REPRESENTATION_CONTEXT() REPRESENTATION_CONTEXT('2D SPACE',''
  ) );
#159 = PCURVE('',#160,#165);
#160 = CONICAL_SURFACE('',#161,5.,1.046684393652);
#161 = AXIS2_PLACEMENT_3D('',#162,#163,#164);
#162 = CARTESIAN_POINT('',(168.1,35.664619361068,139.58813728906));
#163 = DIRECTION('',(-1.,0.,1.110223024625E-16));
#164 = DIRECTION('',(1.110223024625E-16,0.,1.));
#165 = DEFINITIONAL_REPRESENTATION('',(#166),#174);
#166 = B_SPLINE_CURVE_WITH_KNOTS('',6,(#167,#168,#169,#170,#171,#172,
    #173),.UNSPECIFIED.,.F.,.F.,(7,7),(8.881784197001E-17,0.646774826402
    ),.PIECEWISE_BEZIER_KNOTS.);
#167 = CARTESIAN_POINT('',(0.523598775598,0.));
#168 = CARTESIAN_POINT('',(0.631394579999,1.890844266225E-17));
#169 = CARTESIAN_POINT('',(0.73918956128,4.030040128423E-02));
#170 = CARTESIAN_POINT('',(0.844736098244,0.120900873366));
#171 = CARTESIAN_POINT('',(0.945747385947,0.243207376361));
#172 = CARTESIAN_POINT('',(1.040882289042,0.410027115705));
#173 = CARTESIAN_POINT('',(1.129489894438,0.62587429497));
#174 = ( GEOMETRIC_REPRESENTATION_CONTEXT(2) 
PARAMETRIC_REPRESENTATION_CONTEXT() REPRESENTATION_CONTEXT('2D SPACE',''
  ) );
#175 = ADVANCED_FACE('',(#176),#77,.F.);
#176 = FACE_BOUND('',#177,.F.);
#177 = EDGE_LOOP('',(#178,#213,#241,#262,#263));
#178 = ORIENTED_EDGE('',*,*,#179,.F.);
#179 = EDGE_CURVE('',#180,#182,#184,.T.);
#180 = VERTEX_POINT('',#181);
#181 = CARTESIAN_POINT('',(167.6528886174,30.664619361068,142.474888635)
  );
#182 = VERTEX_POINT('',#183);
#183 = CARTESIAN_POINT('',(168.1,33.164619252158,143.9182642451));
#184 = SURFACE_CURVE('',#185,(#190,#197),.PCURVE_S1.);
#185 = HYPERBOLA('',#186,2.890173410405,5.);
#186 = AXIS2_PLACEMENT_3D('',#187,#188,#189);
#187 = CARTESIAN_POINT('',(170.9901734104,33.164619361068,
    143.91826430798));
#188 = DIRECTION('',(-9.614813431918E-17,0.5,-0.866025403784));
#189 = DIRECTION('',(-1.,0.,1.110223024625E-16));
#190 = PCURVE('',#77,#191);
#191 = DEFINITIONAL_REPRESENTATION('',(#192),#196);
#192 = HYPERBOLA('',#193,2.890173410405,5.);
#193 = AXIS2_PLACEMENT_2D('',#194,#195);
#194 = CARTESIAN_POINT('',(2.886751345948,2.890173410405));
#195 = DIRECTION('',(0.,-1.));
#196 = ( GEOMETRIC_REPRESENTATION_CONTEXT(2) 
PARAMETRIC_REPRESENTATION_CONTEXT() REPRESENTATION_CONTEXT('2D SPACE',''
  ) );
#197 = PCURVE('',#198,#203);
#198 = CONICAL_SURFACE('',#199,5.,1.046684393652);
#199 = AXIS2_PLACEMENT_3D('',#200,#201,#202);
#200 = CARTESIAN_POINT('',(168.1,35.664619361068,139.58813728906));
#201 = DIRECTION('',(-1.,0.,1.110223024625E-16));
#202 = DIRECTION('',(1.110223024625E-16,0.,1.));
#203 = DEFINITIONAL_REPRESENTATION('',(#204),#212);
#204 = B_SPLINE_CURVE_WITH_KNOTS('',6,(#205,#206,#207,#208,#209,#210,
    #211),.UNSPECIFIED.,.F.,.F.,(7,7),(-0.646774826402,
    -2.665600817322E-08),.PIECEWISE_BEZIER_KNOTS.);
#205 = CARTESIAN_POINT('',(5.153695412742,0.62587429497));
#206 = CARTESIAN_POINT('',(5.242303014486,0.410027124601));
#207 = CARTESIAN_POINT('',(5.337437913391,0.243207390112));
#208 = CARTESIAN_POINT('',(5.438449196446,0.120900888488));
#209 = CARTESIAN_POINT('',(5.543995728501,4.030041457164E-02));
#210 = CARTESIAN_POINT('',(5.651790704968,8.304640832388E-09));
#211 = CARTESIAN_POINT('',(5.759586504925,0.));
#212 = ( GEOMETRIC_REPRESENTATION_CONTEXT(2) 
PARAMETRIC_REPRESENTATION_CONTEXT() REPRESENTATION_CONTEXT('2D SPACE',''
  ) );
#213 = ORIENTED_EDGE('',*,*,#214,.T.);
#214 = EDGE_CURVE('',#180,#215,#217,.T.);
#215 = VERTEX_POINT('',#216);
#216 = CARTESIAN_POINT('',(164.1,30.664619361068,142.474888635));
#217 = SURFACE_CURVE('',#218,(#222,#229),.PCURVE_S1.);
#218 = LINE('',#219,#220);
#219 = CARTESIAN_POINT('',(168.1,30.664619361068,142.474888635));
#220 = VECTOR('',#221,1.);
#221 = DIRECTION('',(-1.,0.,1.110223024625E-16));
#222 = PCURVE('',#77,#223);
#223 = DEFINITIONAL_REPRESENTATION('',(#224),#228);
#224 = LINE('',#225,#226);
#225 = CARTESIAN_POINT('',(0.,0.));
#226 = VECTOR('',#227,1.);
#227 = DIRECTION('',(0.,-1.));
#228 = ( GEOMETRIC_REPRESENTATION_CONTEXT(2) 
PARAMETRIC_REPRESENTATION_CONTEXT() REPRESENTATION_CONTEXT('2D SPACE',''
  ) );
#229 = PCURVE('',#230,#235);
#230 = PLANE('',#231);
#231 = AXIS2_PLACEMENT_3D('',#232,#233,#234);
#232 = CARTESIAN_POINT('',(168.1,30.664619361068,136.70138594311));
#233 = DIRECTION('',(6.831735839738E-32,1.,6.153480596427E-16));
#234 = DIRECTION('',(1.110223024625E-16,-6.153480596427E-16,1.));
#235 = DEFINITIONAL_REPRESENTATION('',(#236),#240);
#236 = LINE('',#237,#238);
#237 = CARTESIAN_POINT('',(5.773502691896,-6.409875621279E-16));
#238 = VECTOR('',#239,1.);
#239 = DIRECTION('',(0.,-1.));
#240 = ( GEOMETRIC_REPRESENTATION_CONTEXT(2) 
PARAMETRIC_REPRESENTATION_CONTEXT() REPRESENTATION_CONTEXT('2D SPACE',''
  ) );
#241 = ORIENTED_EDGE('',*,*,#242,.T.);
#242 = EDGE_CURVE('',#215,#62,#243,.T.);
#243 = SURFACE_CURVE('',#244,(#248,#255),.PCURVE_S1.);
#244 = LINE('',#245,#246);
#245 = CARTESIAN_POINT('',(164.1,30.664619361068,142.474888635));
#246 = VECTOR('',#247,1.);
#247 = DIRECTION('',(5.551115123126E-17,0.866025403784,0.5));
#248 = PCURVE('',#77,#249);
#249 = DEFINITIONAL_REPRESENTATION('',(#250),#254);
#250 = LINE('',#251,#252);
#251 = CARTESIAN_POINT('',(-2.22044604925E-16,-4.));
#252 = VECTOR('',#253,1.);
#253 = DIRECTION('',(1.,0.));
#254 = ( GEOMETRIC_REPRESENTATION_CONTEXT(2) 
PARAMETRIC_REPRESENTATION_CONTEXT() REPRESENTATION_CONTEXT('2D SPACE',''
  ) );
#255 = PCURVE('',#105,#256);
#256 = DEFINITIONAL_REPRESENTATION('',(#257),#261);
#257 = LINE('',#258,#259);
#258 = CARTESIAN_POINT('',(2.886751345948,-5.));
#259 = VECTOR('',#260,1.);
#260 = DIRECTION('',(0.5,0.866025403784));
#261 = ( GEOMETRIC_REPRESENTATION_CONTEXT(2) 
PARAMETRIC_REPRESENTATION_CONTEXT() REPRESENTATION_CONTEXT('2D SPACE',''
  ) );
#262 = ORIENTED_EDGE('',*,*,#61,.F.);
#263 = ORIENTED_EDGE('',*,*,#264,.F.);
#264 = EDGE_CURVE('',#182,#22,#265,.T.);
#265 = SURFACE_CURVE('',#266,(#271,#278),.PCURVE_S1.);
#266 = HYPERBOLA('',#267,2.890173410405,5.);
#267 = AXIS2_PLACEMENT_3D('',#268,#269,#270);
#268 = CARTESIAN_POINT('',(170.9901734104,33.164619361068,
    143.91826430798));
#269 = DIRECTION('',(-9.614813431918E-17,0.5,-0.866025403784));
#270 = DIRECTION('',(-1.,0.,1.110223024625E-16));
#271 = PCURVE('',#77,#272);
#272 = DEFINITIONAL_REPRESENTATION('',(#273),#277);
#273 = HYPERBOLA('',#274,2.890173410405,5.);
#274 = AXIS2_PLACEMENT_2D('',#275,#276);
#275 = CARTESIAN_POINT('',(2.886751345948,2.890173410405));
#276 = DIRECTION('',(0.,-1.));
#277 = ( GEOMETRIC_REPRESENTATION_CONTEXT(2) 
PARAMETRIC_REPRESENTATION_CONTEXT() REPRESENTATION_CONTEXT('2D SPACE',''
  ) );
#278 = PCURVE('',#45,#279);
#279 = DEFINITIONAL_REPRESENTATION('',(#280),#288);
#280 = B_SPLINE_CURVE_WITH_KNOTS('',6,(#281,#282,#283,#284,#285,#286,
    #287),.UNSPECIFIED.,.F.,.F.,(7,7),(-2.665600817322E-08,
    0.549306144334),.PIECEWISE_BEZIER_KNOTS.);
#281 = CARTESIAN_POINT('',(5.759586504925,0.));
#282 = CARTESIAN_POINT('',(5.851137533424,-7.053135741963E-09));
#283 = CARTESIAN_POINT('',(5.942688135061,2.906909969382E-02));
#284 = CARTESIAN_POINT('',(6.032860484755,8.720723111326E-02));
#285 = CARTESIAN_POINT('',(6.120259309878,0.175145618805));
#286 = CARTESIAN_POINT('',(6.203899790757,0.294345455003));
#287 = CARTESIAN_POINT('',(6.28318530718,0.447111382599));
#288 = ( GEOMETRIC_REPRESENTATION_CONTEXT(2) 
PARAMETRIC_REPRESENTATION_CONTEXT() REPRESENTATION_CONTEXT('2D SPACE',''
  ) );
#289 = ADVANCED_FACE('',(#290),#230,.F.);
#290 = FACE_BOUND('',#291,.F.);
#291 = EDGE_LOOP('',(#292,#327,#355,#376,#377));
#292 = ORIENTED_EDGE('',*,*,#293,.F.);
#293 = EDGE_CURVE('',#294,#296,#298,.T.);
#294 = VERTEX_POINT('',#295);
#295 = CARTESIAN_POINT('',(167.6528886174,30.664619361068,
    136.70138594311));
#296 = VERTEX_POINT('',#297);
#297 = CARTESIAN_POINT('',(168.1,30.664619361068,139.58813728906));
#298 = SURFACE_CURVE('',#299,(#304,#311),.PCURVE_S1.);
#299 = HYPERBOLA('',#300,2.890173410405,5.);
#300 = AXIS2_PLACEMENT_3D('',#301,#302,#303);
#301 = CARTESIAN_POINT('',(170.9901734104,30.664619361068,
    139.58813728906));
#302 = DIRECTION('',(6.831735839738E-32,1.,6.153480596427E-16));
#303 = DIRECTION('',(-1.,0.,1.110223024625E-16));
#304 = PCURVE('',#230,#305);
#305 = DEFINITIONAL_REPRESENTATION('',(#306),#310);
#306 = HYPERBOLA('',#307,2.890173410405,5.);
#307 = AXIS2_PLACEMENT_2D('',#308,#309);
#308 = CARTESIAN_POINT('',(2.886751345948,2.890173410405));
#309 = DIRECTION('',(0.,-1.));
#310 = ( GEOMETRIC_REPRESENTATION_CONTEXT(2) 
PARAMETRIC_REPRESENTATION_CONTEXT() REPRESENTATION_CONTEXT('2D SPACE',''
  ) );
#311 = PCURVE('',#312,#317);
#312 = CONICAL_SURFACE('',#313,5.,1.046684393652);
#313 = AXIS2_PLACEMENT_3D('',#314,#315,#316);
#314 = CARTESIAN_POINT('',(168.1,35.664619361068,139.58813728906));
#315 = DIRECTION('',(-1.,0.,1.110223024625E-16));
#316 = DIRECTION('',(1.110223024625E-16,0.,1.));
#317 = DEFINITIONAL_REPRESENTATION('',(#318),#326);
#318 = B_SPLINE_CURVE_WITH_KNOTS('',6,(#319,#320,#321,#322,#323,#324,
    #325),.UNSPECIFIED.,.F.,.F.,(7,7),(-0.646774826402,
    -4.565273799295E-16),.PIECEWISE_BEZIER_KNOTS.);
#319 = CARTESIAN_POINT('',(4.106497861545,0.62587429497));
#320 = CARTESIAN_POINT('',(4.195105466941,0.410027115705));
#321 = CARTESIAN_POINT('',(4.290240370036,0.243207376361));
#322 = CARTESIAN_POINT('',(4.391251657739,0.120900873366));
#323 = CARTESIAN_POINT('',(4.496798194703,4.030040128423E-02));
#324 = CARTESIAN_POINT('',(4.604593175984,1.422304513013E-16));
#325 = CARTESIAN_POINT('',(4.712388980385,0.));
#326 = ( GEOMETRIC_REPRESENTATION_CONTEXT(2) 
PARAMETRIC_REPRESENTATION_CONTEXT() REPRESENTATION_CONTEXT('2D SPACE',''
  ) );
#327 = ORIENTED_EDGE('',*,*,#328,.T.);
#328 = EDGE_CURVE('',#294,#329,#331,.T.);
#329 = VERTEX_POINT('',#330);
#330 = CARTESIAN_POINT('',(164.1,30.664619361068,136.70138594311));
#331 = SURFACE_CURVE('',#332,(#336,#343),.PCURVE_S1.);
#332 = LINE('',#333,#334);
#333 = CARTESIAN_POINT('',(168.1,30.664619361068,136.70138594311));
#334 = VECTOR('',#335,1.);
#335 = DIRECTION('',(-1.,0.,1.110223024625E-16));
#336 = PCURVE('',#230,#337);
#337 = DEFINITIONAL_REPRESENTATION('',(#338),#342);
#338 = LINE('',#339,#340);
#339 = CARTESIAN_POINT('',(0.,0.));
#340 = VECTOR('',#341,1.);
#341 = DIRECTION('',(0.,-1.));
#342 = ( GEOMETRIC_REPRESENTATION_CONTEXT(2) 
PARAMETRIC_REPRESENTATION_CONTEXT() REPRESENTATION_CONTEXT('2D SPACE',''
  ) );
#343 = PCURVE('',#344,#349);
#344 = PLANE('',#345);
#345 = AXIS2_PLACEMENT_3D('',#346,#347,#348);
#346 = CARTESIAN_POINT('',(168.1,35.664619361068,133.81463459716));
#347 = DIRECTION('',(9.614813431918E-17,0.5,0.866025403784));
#348 = DIRECTION('',(5.551115123126E-17,-0.866025403784,0.5));
#349 = DEFINITIONAL_REPRESENTATION('',(#350),#354);
#350 = LINE('',#351,#352);
#351 = CARTESIAN_POINT('',(5.773502691896,-3.204937810639E-16));
#352 = VECTOR('',#353,1.);
#353 = DIRECTION('',(0.,-1.));
#354 = ( GEOMETRIC_REPRESENTATION_CONTEXT(2) 
PARAMETRIC_REPRESENTATION_CONTEXT() REPRESENTATION_CONTEXT('2D SPACE',''
  ) );
#355 = ORIENTED_EDGE('',*,*,#356,.T.);
#356 = EDGE_CURVE('',#329,#215,#357,.T.);
#357 = SURFACE_CURVE('',#358,(#362,#369),.PCURVE_S1.);
#358 = LINE('',#359,#360);
#359 = CARTESIAN_POINT('',(164.1,30.664619361068,136.70138594311));
#360 = VECTOR('',#361,1.);
#361 = DIRECTION('',(1.110223024625E-16,-6.153480596427E-16,1.));
#362 = PCURVE('',#230,#363);
#363 = DEFINITIONAL_REPRESENTATION('',(#364),#368);
#364 = LINE('',#365,#366);
#365 = CARTESIAN_POINT('',(-4.440892098501E-16,-4.));
#366 = VECTOR('',#367,1.);
#367 = DIRECTION('',(1.,0.));
#368 = ( GEOMETRIC_REPRESENTATION_CONTEXT(2) 
PARAMETRIC_REPRESENTATION_CONTEXT() REPRESENTATION_CONTEXT('2D SPACE',''
  ) );
#369 = PCURVE('',#105,#370);
#370 = DEFINITIONAL_REPRESENTATION('',(#371),#375);
#371 = LINE('',#372,#373);
#372 = CARTESIAN_POINT('',(-2.886751345948,-5.));
#373 = VECTOR('',#374,1.);
#374 = DIRECTION('',(1.,-6.153480596427E-16));
#375 = ( GEOMETRIC_REPRESENTATION_CONTEXT(2) 
PARAMETRIC_REPRESENTATION_CONTEXT() REPRESENTATION_CONTEXT('2D SPACE',''
  ) );
#376 = ORIENTED_EDGE('',*,*,#214,.F.);
#377 = ORIENTED_EDGE('',*,*,#378,.F.);
#378 = EDGE_CURVE('',#296,#180,#379,.T.);
#379 = SURFACE_CURVE('',#380,(#385,#392),.PCURVE_S1.);
#380 = HYPERBOLA('',#381,2.890173410405,5.);
#381 = AXIS2_PLACEMENT_3D('',#382,#383,#384);
#382 = CARTESIAN_POINT('',(170.9901734104,30.664619361068,
    139.58813728906));
#383 = DIRECTION('',(6.831735839738E-32,1.,6.153480596427E-16));
#384 = DIRECTION('',(-1.,0.,1.110223024625E-16));
#385 = PCURVE('',#230,#386);
#386 = DEFINITIONAL_REPRESENTATION('',(#387),#391);
#387 = HYPERBOLA('',#388,2.890173410405,5.);
#388 = AXIS2_PLACEMENT_2D('',#389,#390);
#389 = CARTESIAN_POINT('',(2.886751345948,2.890173410405));
#390 = DIRECTION('',(0.,-1.));
#391 = ( GEOMETRIC_REPRESENTATION_CONTEXT(2) 
PARAMETRIC_REPRESENTATION_CONTEXT() REPRESENTATION_CONTEXT('2D SPACE',''
  ) );
#392 = PCURVE('',#198,#393);
#393 = DEFINITIONAL_REPRESENTATION('',(#394),#402);
#394 = B_SPLINE_CURVE_WITH_KNOTS('',6,(#395,#396,#397,#398,#399,#400,
    #401),.UNSPECIFIED.,.F.,.F.,(7,7),(-4.565273799295E-16,
    0.646774826402),.PIECEWISE_BEZIER_KNOTS.);
#395 = CARTESIAN_POINT('',(4.712388980385,0.));
#396 = CARTESIAN_POINT('',(4.820184784785,-1.422304513013E-16));
#397 = CARTESIAN_POINT('',(4.927979766066,4.030040128423E-02));
#398 = CARTESIAN_POINT('',(5.03352630303,0.120900873366));
#399 = CARTESIAN_POINT('',(5.134537590733,0.243207376361));
#400 = CARTESIAN_POINT('',(5.229672493828,0.410027115705));
#401 = CARTESIAN_POINT('',(5.318280099224,0.62587429497));
#402 = ( GEOMETRIC_REPRESENTATION_CONTEXT(2) 
PARAMETRIC_REPRESENTATION_CONTEXT() REPRESENTATION_CONTEXT('2D SPACE',''
  ) );
#403 = ADVANCED_FACE('',(#404),#344,.F.);
#404 = FACE_BOUND('',#405,.F.);
#405 = EDGE_LOOP('',(#406,#441,#469,#490,#491));
#406 = ORIENTED_EDGE('',*,*,#407,.F.);
#407 = EDGE_CURVE('',#408,#410,#412,.T.);
#408 = VERTEX_POINT('',#409);
#409 = CARTESIAN_POINT('',(167.6528886174,35.664619361068,
    133.81463459716));
#410 = VERTEX_POINT('',#411);
#411 = CARTESIAN_POINT('',(168.1,33.164619393426,135.25801025145));
#412 = SURFACE_CURVE('',#413,(#418,#425),.PCURVE_S1.);
#413 = HYPERBOLA('',#414,2.890173410405,5.);
#414 = AXIS2_PLACEMENT_3D('',#415,#416,#417);
#415 = CARTESIAN_POINT('',(170.9901734104,33.164619361068,
    135.25801027013));
#416 = DIRECTION('',(9.614813431918E-17,0.5,0.866025403784));
#417 = DIRECTION('',(-1.,0.,1.110223024625E-16));
#418 = PCURVE('',#344,#419);
#419 = DEFINITIONAL_REPRESENTATION('',(#420),#424);
#420 = HYPERBOLA('',#421,2.890173410405,5.);
#421 = AXIS2_PLACEMENT_2D('',#422,#423);
#422 = CARTESIAN_POINT('',(2.886751345948,2.890173410405));
#423 = DIRECTION('',(0.,-1.));
#424 = ( GEOMETRIC_REPRESENTATION_CONTEXT(2) 
PARAMETRIC_REPRESENTATION_CONTEXT() REPRESENTATION_CONTEXT('2D SPACE',''
  ) );
#425 = PCURVE('',#426,#431);
#426 = CONICAL_SURFACE('',#427,5.,1.046684393652);
#427 = AXIS2_PLACEMENT_3D('',#428,#429,#430);
#428 = CARTESIAN_POINT('',(168.1,35.664619361068,139.58813728906));
#429 = DIRECTION('',(-1.,0.,1.110223024625E-16));
#430 = DIRECTION('',(1.110223024625E-16,0.,1.));
#431 = DEFINITIONAL_REPRESENTATION('',(#432),#440);
#432 = B_SPLINE_CURVE_WITH_KNOTS('',6,(#433,#434,#435,#436,#437,#438,
    #439),.UNSPECIFIED.,.F.,.F.,(7,7),(-0.646774826402,0.),
  .PIECEWISE_BEZIER_KNOTS.);
#433 = CARTESIAN_POINT('',(3.059300310349,0.62587429497));
#434 = CARTESIAN_POINT('',(3.147907915745,0.410027115705));
#435 = CARTESIAN_POINT('',(3.243042818839,0.243207376361));
#436 = CARTESIAN_POINT('',(3.344054106543,0.120900873366));
#437 = CARTESIAN_POINT('',(3.449600643507,4.030040128423E-02));
#438 = CARTESIAN_POINT('',(3.557395624788,8.384861750153E-17));
#439 = CARTESIAN_POINT('',(3.665191429188,0.));
#440 = ( GEOMETRIC_REPRESENTATION_CONTEXT(2) 
PARAMETRIC_REPRESENTATION_CONTEXT() REPRESENTATION_CONTEXT('2D SPACE',''
  ) );
#441 = ORIENTED_EDGE('',*,*,#442,.T.);
#442 = EDGE_CURVE('',#408,#443,#445,.T.);
#443 = VERTEX_POINT('',#444);
#444 = CARTESIAN_POINT('',(164.1,35.664619361068,133.81463459716));
#445 = SURFACE_CURVE('',#446,(#450,#457),.PCURVE_S1.);
#446 = LINE('',#447,#448);
#447 = CARTESIAN_POINT('',(168.1,35.664619361068,133.81463459716));
#448 = VECTOR('',#449,1.);
#449 = DIRECTION('',(-1.,0.,1.110223024625E-16));
#450 = PCURVE('',#344,#451);
#451 = DEFINITIONAL_REPRESENTATION('',(#452),#456);
#452 = LINE('',#453,#454);
#453 = CARTESIAN_POINT('',(0.,0.));
#454 = VECTOR('',#455,1.);
#455 = DIRECTION('',(0.,-1.));
#456 = ( GEOMETRIC_REPRESENTATION_CONTEXT(2) 
PARAMETRIC_REPRESENTATION_CONTEXT() REPRESENTATION_CONTEXT('2D SPACE',''
  ) );
#457 = PCURVE('',#458,#463);
#458 = PLANE('',#459);
#459 = AXIS2_PLACEMENT_3D('',#460,#461,#462);
#460 = CARTESIAN_POINT('',(168.1,40.664619361068,136.70138594311));
#461 = DIRECTION('',(9.614813431918E-17,-0.5,0.866025403784));
#462 = DIRECTION('',(-5.551115123126E-17,-0.866025403784,-0.5));
#463 = DEFINITIONAL_REPRESENTATION('',(#464),#468);
#464 = LINE('',#465,#466);
#465 = CARTESIAN_POINT('',(5.773502691896,3.204937810639E-16));
#466 = VECTOR('',#467,1.);
#467 = DIRECTION('',(0.,-1.));
#468 = ( GEOMETRIC_REPRESENTATION_CONTEXT(2) 
PARAMETRIC_REPRESENTATION_CONTEXT() REPRESENTATION_CONTEXT('2D SPACE',''
  ) );
#469 = ORIENTED_EDGE('',*,*,#470,.T.);
#470 = EDGE_CURVE('',#443,#329,#471,.T.);
#471 = SURFACE_CURVE('',#472,(#476,#483),.PCURVE_S1.);
#472 = LINE('',#473,#474);
#473 = CARTESIAN_POINT('',(164.1,35.664619361068,133.81463459716));
#474 = VECTOR('',#475,1.);
#475 = DIRECTION('',(5.551115123126E-17,-0.866025403784,0.5));
#476 = PCURVE('',#344,#477);
#477 = DEFINITIONAL_REPRESENTATION('',(#478),#482);
#478 = LINE('',#479,#480);
#479 = CARTESIAN_POINT('',(-2.22044604925E-16,-4.));
#480 = VECTOR('',#481,1.);
#481 = DIRECTION('',(1.,0.));
#482 = ( GEOMETRIC_REPRESENTATION_CONTEXT(2) 
PARAMETRIC_REPRESENTATION_CONTEXT() REPRESENTATION_CONTEXT('2D SPACE',''
  ) );
#483 = PCURVE('',#105,#484);
#484 = DEFINITIONAL_REPRESENTATION('',(#485),#489);
#485 = LINE('',#486,#487);
#486 = CARTESIAN_POINT('',(-5.773502691896,0.));
#487 = VECTOR('',#488,1.);
#488 = DIRECTION('',(0.5,-0.866025403784));
#489 = ( GEOMETRIC_REPRESENTATION_CONTEXT(2) 
PARAMETRIC_REPRESENTATION_CONTEXT() REPRESENTATION_CONTEXT('2D SPACE',''
  ) );
#490 = ORIENTED_EDGE('',*,*,#328,.F.);
#491 = ORIENTED_EDGE('',*,*,#492,.F.);
#492 = EDGE_CURVE('',#410,#294,#493,.T.);
#493 = SURFACE_CURVE('',#494,(#499,#506),.PCURVE_S1.);
#494 = HYPERBOLA('',#495,2.890173410405,5.);
#495 = AXIS2_PLACEMENT_3D('',#496,#497,#498);
#496 = CARTESIAN_POINT('',(170.9901734104,33.164619361068,
    135.25801027013));
#497 = DIRECTION('',(9.614813431918E-17,0.5,0.866025403784));
#498 = DIRECTION('',(-1.,0.,1.110223024625E-16));
#499 = PCURVE('',#344,#500);
#500 = DEFINITIONAL_REPRESENTATION('',(#501),#505);
#501 = HYPERBOLA('',#502,2.890173410405,5.);
#502 = AXIS2_PLACEMENT_2D('',#503,#504);
#503 = CARTESIAN_POINT('',(2.886751345948,2.890173410405));
#504 = DIRECTION('',(0.,-1.));
#505 = ( GEOMETRIC_REPRESENTATION_CONTEXT(2) 
PARAMETRIC_REPRESENTATION_CONTEXT() REPRESENTATION_CONTEXT('2D SPACE',''
  ) );
#506 = PCURVE('',#312,#507);
#507 = DEFINITIONAL_REPRESENTATION('',(#508),#516);
#508 = B_SPLINE_CURVE_WITH_KNOTS('',6,(#509,#510,#511,#512,#513,#514,
    #515),.UNSPECIFIED.,.F.,.F.,(7,7),(0.,0.646774826402),
  .PIECEWISE_BEZIER_KNOTS.);
#509 = CARTESIAN_POINT('',(3.665191429188,0.));
#510 = CARTESIAN_POINT('',(3.772987233588,-8.384861750153E-17));
#511 = CARTESIAN_POINT('',(3.88078221487,4.030040128423E-02));
#512 = CARTESIAN_POINT('',(3.986328751833,0.120900873366));
#513 = CARTESIAN_POINT('',(4.087340039537,0.243207376361));
#514 = CARTESIAN_POINT('',(4.182474942631,0.410027115705));
#515 = CARTESIAN_POINT('',(4.271082548027,0.62587429497));
#516 = ( GEOMETRIC_REPRESENTATION_CONTEXT(2) 
PARAMETRIC_REPRESENTATION_CONTEXT() REPRESENTATION_CONTEXT('2D SPACE',''
  ) );
#517 = ADVANCED_FACE('',(#518),#458,.F.);
#518 = FACE_BOUND('',#519,.F.);
#519 = EDGE_LOOP('',(#520,#555,#578,#599,#600));
#520 = ORIENTED_EDGE('',*,*,#521,.F.);
#521 = EDGE_CURVE('',#522,#524,#526,.T.);
#522 = VERTEX_POINT('',#523);
#523 = CARTESIAN_POINT('',(167.6528886174,40.664619361068,
    136.70138594311));
#524 = VERTEX_POINT('',#525);
#525 = CARTESIAN_POINT('',(168.1,38.16461932871,135.25801025145));
#526 = SURFACE_CURVE('',#527,(#532,#539),.PCURVE_S1.);
#527 = HYPERBOLA('',#528,2.890173410405,5.);
#528 = AXIS2_PLACEMENT_3D('',#529,#530,#531);
#529 = CARTESIAN_POINT('',(170.9901734104,38.164619361068,
    135.25801027013));
#530 = DIRECTION('',(9.614813431918E-17,-0.5,0.866025403784));
#531 = DIRECTION('',(-1.,0.,1.110223024625E-16));
#532 = PCURVE('',#458,#533);
#533 = DEFINITIONAL_REPRESENTATION('',(#534),#538);
#534 = HYPERBOLA('',#535,2.890173410405,5.);
#535 = AXIS2_PLACEMENT_2D('',#536,#537);
#536 = CARTESIAN_POINT('',(2.886751345948,2.890173410405));
#537 = DIRECTION('',(0.,-1.));
#538 = ( GEOMETRIC_REPRESENTATION_CONTEXT(2) 
PARAMETRIC_REPRESENTATION_CONTEXT() REPRESENTATION_CONTEXT('2D SPACE',''
  ) );
#539 = PCURVE('',#540,#545);
#540 = CONICAL_SURFACE('',#541,5.,1.046684393652);
#541 = AXIS2_PLACEMENT_3D('',#542,#543,#544);
#542 = CARTESIAN_POINT('',(168.1,35.664619361068,139.58813728906));
#543 = DIRECTION('',(-1.,0.,1.110223024625E-16));
#544 = DIRECTION('',(1.110223024625E-16,0.,1.));
#545 = DEFINITIONAL_REPRESENTATION('',(#546),#554);
#546 = B_SPLINE_CURVE_WITH_KNOTS('',6,(#547,#548,#549,#550,#551,#552,
    #553),.UNSPECIFIED.,.F.,.F.,(7,7),(-0.646774826402,
    -1.538370149107E-16),.PIECEWISE_BEZIER_KNOTS.);
#547 = CARTESIAN_POINT('',(2.012102759152,0.62587429497));
#548 = CARTESIAN_POINT('',(2.100710364548,0.410027115705));
#549 = CARTESIAN_POINT('',(2.195845267643,0.243207376361));
#550 = CARTESIAN_POINT('',(2.296856555346,0.120900873366));
#551 = CARTESIAN_POINT('',(2.40240309231,4.030040128422E-02));
#552 = CARTESIAN_POINT('',(2.510198073591,4.327585753478E-16));
#553 = CARTESIAN_POINT('',(2.617993877991,3.848202224151E-16));
#554 = ( GEOMETRIC_REPRESENTATION_CONTEXT(2) 
PARAMETRIC_REPRESENTATION_CONTEXT() REPRESENTATION_CONTEXT('2D SPACE',''
  ) );
#555 = ORIENTED_EDGE('',*,*,#556,.T.);
#556 = EDGE_CURVE('',#522,#557,#559,.T.);
#557 = VERTEX_POINT('',#558);
#558 = CARTESIAN_POINT('',(164.1,40.664619361068,136.70138594311));
#559 = SURFACE_CURVE('',#560,(#564,#571),.PCURVE_S1.);
#560 = LINE('',#561,#562);
#561 = CARTESIAN_POINT('',(168.1,40.664619361068,136.70138594311));
#562 = VECTOR('',#563,1.);
#563 = DIRECTION('',(-1.,0.,1.110223024625E-16));
#564 = PCURVE('',#458,#565);
#565 = DEFINITIONAL_REPRESENTATION('',(#566),#570);
#566 = LINE('',#567,#568);
#567 = CARTESIAN_POINT('',(-0.,0.));
#568 = VECTOR('',#569,1.);
#569 = DIRECTION('',(0.,-1.));
#570 = ( GEOMETRIC_REPRESENTATION_CONTEXT(2) 
PARAMETRIC_REPRESENTATION_CONTEXT() REPRESENTATION_CONTEXT('2D SPACE',''
  ) );
#571 = PCURVE('',#133,#572);
#572 = DEFINITIONAL_REPRESENTATION('',(#573),#577);
#573 = LINE('',#574,#575);
#574 = CARTESIAN_POINT('',(5.773502691896,6.409875621279E-16));
#575 = VECTOR('',#576,1.);
#576 = DIRECTION('',(0.,-1.));
#577 = ( GEOMETRIC_REPRESENTATION_CONTEXT(2) 
PARAMETRIC_REPRESENTATION_CONTEXT() REPRESENTATION_CONTEXT('2D SPACE',''
  ) );
#578 = ORIENTED_EDGE('',*,*,#579,.T.);
#579 = EDGE_CURVE('',#557,#443,#580,.T.);
#580 = SURFACE_CURVE('',#581,(#585,#592),.PCURVE_S1.);
#581 = LINE('',#582,#583);
#582 = CARTESIAN_POINT('',(164.1,40.664619361068,136.70138594311));
#583 = VECTOR('',#584,1.);
#584 = DIRECTION('',(-5.551115123126E-17,-0.866025403784,-0.5));
#585 = PCURVE('',#458,#586);
#586 = DEFINITIONAL_REPRESENTATION('',(#587),#591);
#587 = LINE('',#588,#589);
#588 = CARTESIAN_POINT('',(-1.208491658793E-14,-4.));
#589 = VECTOR('',#590,1.);
#590 = DIRECTION('',(1.,0.));
#591 = ( GEOMETRIC_REPRESENTATION_CONTEXT(2) 
PARAMETRIC_REPRESENTATION_CONTEXT() REPRESENTATION_CONTEXT('2D SPACE',''
  ) );
#592 = PCURVE('',#105,#593);
#593 = DEFINITIONAL_REPRESENTATION('',(#594),#598);
#594 = LINE('',#595,#596);
#595 = CARTESIAN_POINT('',(-2.886751345948,5.));
#596 = VECTOR('',#597,1.);
#597 = DIRECTION('',(-0.5,-0.866025403784));
#598 = ( GEOMETRIC_REPRESENTATION_CONTEXT(2) 
PARAMETRIC_REPRESENTATION_CONTEXT() REPRESENTATION_CONTEXT('2D SPACE',''
  ) );
#599 = ORIENTED_EDGE('',*,*,#442,.F.);
#600 = ORIENTED_EDGE('',*,*,#601,.F.);
#601 = EDGE_CURVE('',#524,#408,#602,.T.);
#602 = SURFACE_CURVE('',#603,(#608,#615),.PCURVE_S1.);
#603 = HYPERBOLA('',#604,2.890173410405,5.);
#604 = AXIS2_PLACEMENT_3D('',#605,#606,#607);
#605 = CARTESIAN_POINT('',(170.9901734104,38.164619361068,
    135.25801027013));
#606 = DIRECTION('',(9.614813431918E-17,-0.5,0.866025403784));
#607 = DIRECTION('',(-1.,0.,1.110223024625E-16));
#608 = PCURVE('',#458,#609);
#609 = DEFINITIONAL_REPRESENTATION('',(#610),#614);
#610 = HYPERBOLA('',#611,2.890173410405,5.);
#611 = AXIS2_PLACEMENT_2D('',#612,#613);
#612 = CARTESIAN_POINT('',(2.886751345948,2.890173410405));
#613 = DIRECTION('',(0.,-1.));
#614 = ( GEOMETRIC_REPRESENTATION_CONTEXT(2) 
PARAMETRIC_REPRESENTATION_CONTEXT() REPRESENTATION_CONTEXT('2D SPACE',''
  ) );
#615 = PCURVE('',#426,#616);
#616 = DEFINITIONAL_REPRESENTATION('',(#617),#625);
#617 = B_SPLINE_CURVE_WITH_KNOTS('',6,(#618,#619,#620,#621,#622,#623,
    #624),.UNSPECIFIED.,.F.,.F.,(7,7),(-1.538370149107E-16,
    0.646774826402),.PIECEWISE_BEZIER_KNOTS.);
#618 = CARTESIAN_POINT('',(2.617993877991,3.848202224151E-16));
#619 = CARTESIAN_POINT('',(2.725789682392,3.368818694824E-16));
#620 = CARTESIAN_POINT('',(2.833584663673,4.030040128423E-02));
#621 = CARTESIAN_POINT('',(2.939131200637,0.120900873366));
#622 = CARTESIAN_POINT('',(3.04014248834,0.243207376361));
#623 = CARTESIAN_POINT('',(3.135277391435,0.410027115705));
#624 = CARTESIAN_POINT('',(3.223884996831,0.62587429497));
#625 = ( GEOMETRIC_REPRESENTATION_CONTEXT(2) 
PARAMETRIC_REPRESENTATION_CONTEXT() REPRESENTATION_CONTEXT('2D SPACE',''
  ) );
#626 = ADVANCED_FACE('',(#627),#540,.T.);
#627 = FACE_BOUND('',#628,.T.);
#628 = EDGE_LOOP('',(#629,#657,#684));
#629 = ORIENTED_EDGE('',*,*,#630,.F.);
#630 = EDGE_CURVE('',#631,#522,#633,.T.);
#631 = VERTEX_POINT('',#632);
#632 = CARTESIAN_POINT('',(168.1,40.664619361068,139.58813731903));
#633 = SURFACE_CURVE('',#634,(#639,#650),.PCURVE_S1.);
#634 = HYPERBOLA('',#635,2.890173410405,5.);
#635 = AXIS2_PLACEMENT_3D('',#636,#637,#638);
#636 = CARTESIAN_POINT('',(170.9901734104,40.664619361068,
    139.58813728906));
#637 = DIRECTION('',(-1.707933959934E-32,-1.,-1.538370149107E-16));
#638 = DIRECTION('',(-1.,0.,1.110223024625E-16));
#639 = PCURVE('',#540,#640);
#640 = DEFINITIONAL_REPRESENTATION('',(#641),#649);
#641 = B_SPLINE_CURVE_WITH_KNOTS('',6,(#642,#643,#644,#645,#646,#647,
    #648),.UNSPECIFIED.,.F.,.F.,(7,7),(9.260467495332E-17,0.646774826402
    ),.PIECEWISE_BEZIER_KNOTS.);
#642 = CARTESIAN_POINT('',(1.570796326795,0.));
#643 = CARTESIAN_POINT('',(1.678592131195,2.885085383762E-17));
#644 = CARTESIAN_POINT('',(1.786387112476,4.030040128423E-02));
#645 = CARTESIAN_POINT('',(1.89193364944,0.120900873366));
#646 = CARTESIAN_POINT('',(1.992944937144,0.243207376361));
#647 = CARTESIAN_POINT('',(2.088079840238,0.410027115705));
#648 = CARTESIAN_POINT('',(2.176687445634,0.62587429497));
#649 = ( GEOMETRIC_REPRESENTATION_CONTEXT(2) 
PARAMETRIC_REPRESENTATION_CONTEXT() REPRESENTATION_CONTEXT('2D SPACE',''
  ) );
#650 = PCURVE('',#133,#651);
#651 = DEFINITIONAL_REPRESENTATION('',(#652),#656);
#652 = HYPERBOLA('',#653,2.890173410405,5.);
#653 = AXIS2_PLACEMENT_2D('',#654,#655);
#654 = CARTESIAN_POINT('',(2.886751345948,2.890173410405));
#655 = DIRECTION('',(0.,-1.));
#656 = ( GEOMETRIC_REPRESENTATION_CONTEXT(2) 
PARAMETRIC_REPRESENTATION_CONTEXT() REPRESENTATION_CONTEXT('2D SPACE',''
  ) );
#657 = ORIENTED_EDGE('',*,*,#658,.T.);
#658 = EDGE_CURVE('',#631,#524,#659,.T.);
#659 = SURFACE_CURVE('',#660,(#665,#672),.PCURVE_S1.);
#660 = CIRCLE('',#661,5.);
#661 = AXIS2_PLACEMENT_3D('',#662,#663,#664);
#662 = CARTESIAN_POINT('',(168.1,35.664619361068,139.58813728906));
#663 = DIRECTION('',(-1.,0.,1.110223024625E-16));
#664 = DIRECTION('',(1.110223024625E-16,0.,1.));
#665 = PCURVE('',#540,#666);
#666 = DEFINITIONAL_REPRESENTATION('',(#667),#671);
#667 = LINE('',#668,#669);
#668 = CARTESIAN_POINT('',(0.,0.));
#669 = VECTOR('',#670,1.);
#670 = DIRECTION('',(1.,0.));
#671 = ( GEOMETRIC_REPRESENTATION_CONTEXT(2) 
PARAMETRIC_REPRESENTATION_CONTEXT() REPRESENTATION_CONTEXT('2D SPACE',''
  ) );
#672 = PCURVE('',#673,#678);
#673 = PLANE('',#674);
#674 = AXIS2_PLACEMENT_3D('',#675,#676,#677);
#675 = CARTESIAN_POINT('',(168.1,35.664619361068,139.58813728906));
#676 = DIRECTION('',(-1.,0.,1.110223024625E-16));
#677 = DIRECTION('',(1.110223024625E-16,0.,1.));
#678 = DEFINITIONAL_REPRESENTATION('',(#679),#683);
#679 = CIRCLE('',#680,5.);
#680 = AXIS2_PLACEMENT_2D('',#681,#682);
#681 = CARTESIAN_POINT('',(0.,0.));
#682 = DIRECTION('',(1.,0.));
#683 = ( GEOMETRIC_REPRESENTATION_CONTEXT(2) 
PARAMETRIC_REPRESENTATION_CONTEXT() REPRESENTATION_CONTEXT('2D SPACE',''
  ) );
#684 = ORIENTED_EDGE('',*,*,#521,.F.);
#685 = ADVANCED_FACE('',(#686),#673,.F.);
#686 = FACE_BOUND('',#687,.F.);
#687 = EDGE_LOOP('',(#688,#710,#732,#733,#755,#777));
#688 = ORIENTED_EDGE('',*,*,#689,.T.);
#689 = EDGE_CURVE('',#182,#24,#690,.T.);
#690 = SURFACE_CURVE('',#691,(#696,#703),.PCURVE_S1.);
#691 = CIRCLE('',#692,5.);
#692 = AXIS2_PLACEMENT_3D('',#693,#694,#695);
#693 = CARTESIAN_POINT('',(168.1,35.664619361068,139.58813728906));
#694 = DIRECTION('',(-1.,0.,1.110223024625E-16));
#695 = DIRECTION('',(9.614813292298E-17,-0.500000021782,0.866025391209)
  );
#696 = PCURVE('',#673,#697);
#697 = DEFINITIONAL_REPRESENTATION('',(#698),#702);
#698 = CIRCLE('',#699,5.);
#699 = AXIS2_PLACEMENT_2D('',#700,#701);
#700 = CARTESIAN_POINT('',(0.,0.));
#701 = DIRECTION('',(0.866025391209,-0.500000021782));
#702 = ( GEOMETRIC_REPRESENTATION_CONTEXT(2) 
PARAMETRIC_REPRESENTATION_CONTEXT() REPRESENTATION_CONTEXT('2D SPACE',''
  ) );
#703 = PCURVE('',#45,#704);
#704 = DEFINITIONAL_REPRESENTATION('',(#705),#709);
#705 = LINE('',#706,#707);
#706 = CARTESIAN_POINT('',(5.75958650643,0.));
#707 = VECTOR('',#708,1.);
#708 = DIRECTION('',(1.,0.));
#709 = ( GEOMETRIC_REPRESENTATION_CONTEXT(2) 
PARAMETRIC_REPRESENTATION_CONTEXT() REPRESENTATION_CONTEXT('2D SPACE',''
  ) );
#710 = ORIENTED_EDGE('',*,*,#711,.T.);
#711 = EDGE_CURVE('',#24,#631,#712,.T.);
#712 = SURFACE_CURVE('',#713,(#718,#725),.PCURVE_S1.);
#713 = CIRCLE('',#714,5.);
#714 = AXIS2_PLACEMENT_3D('',#715,#716,#717);
#715 = CARTESIAN_POINT('',(168.1,35.664619361068,139.58813728906));
#716 = DIRECTION('',(-1.,0.,1.110223024625E-16));
#717 = DIRECTION('',(1.110223024625E-16,0.,1.));
#718 = PCURVE('',#673,#719);
#719 = DEFINITIONAL_REPRESENTATION('',(#720),#724);
#720 = CIRCLE('',#721,5.);
#721 = AXIS2_PLACEMENT_2D('',#722,#723);
#722 = CARTESIAN_POINT('',(0.,0.));
#723 = DIRECTION('',(1.,0.));
#724 = ( GEOMETRIC_REPRESENTATION_CONTEXT(2) 
PARAMETRIC_REPRESENTATION_CONTEXT() REPRESENTATION_CONTEXT('2D SPACE',''
  ) );
#725 = PCURVE('',#160,#726);
#726 = DEFINITIONAL_REPRESENTATION('',(#727),#731);
#727 = LINE('',#728,#729);
#728 = CARTESIAN_POINT('',(0.,0.));
#729 = VECTOR('',#730,1.);
#730 = DIRECTION('',(1.,0.));
#731 = ( GEOMETRIC_REPRESENTATION_CONTEXT(2) 
PARAMETRIC_REPRESENTATION_CONTEXT() REPRESENTATION_CONTEXT('2D SPACE',''
  ) );
#732 = ORIENTED_EDGE('',*,*,#658,.T.);
#733 = ORIENTED_EDGE('',*,*,#734,.T.);
#734 = EDGE_CURVE('',#524,#410,#735,.T.);
#735 = SURFACE_CURVE('',#736,(#741,#748),.PCURVE_S1.);
#736 = CIRCLE('',#737,5.);
#737 = AXIS2_PLACEMENT_3D('',#738,#739,#740);
#738 = CARTESIAN_POINT('',(168.1,35.664619361068,139.58813728906));
#739 = DIRECTION('',(-1.,0.,1.110223024625E-16));
#740 = DIRECTION('',(1.110223024625E-16,0.,1.));
#741 = PCURVE('',#673,#742);
#742 = DEFINITIONAL_REPRESENTATION('',(#743),#747);
#743 = CIRCLE('',#744,5.);
#744 = AXIS2_PLACEMENT_2D('',#745,#746);
#745 = CARTESIAN_POINT('',(0.,0.));
#746 = DIRECTION('',(1.,0.));
#747 = ( GEOMETRIC_REPRESENTATION_CONTEXT(2) 
PARAMETRIC_REPRESENTATION_CONTEXT() REPRESENTATION_CONTEXT('2D SPACE',''
  ) );
#748 = PCURVE('',#426,#749);
#749 = DEFINITIONAL_REPRESENTATION('',(#750),#754);
#750 = LINE('',#751,#752);
#751 = CARTESIAN_POINT('',(0.,0.));
#752 = VECTOR('',#753,1.);
#753 = DIRECTION('',(1.,0.));
#754 = ( GEOMETRIC_REPRESENTATION_CONTEXT(2) 
PARAMETRIC_REPRESENTATION_CONTEXT() REPRESENTATION_CONTEXT('2D SPACE',''
  ) );
#755 = ORIENTED_EDGE('',*,*,#756,.T.);
#756 = EDGE_CURVE('',#410,#296,#757,.T.);
#757 = SURFACE_CURVE('',#758,(#763,#770),.PCURVE_S1.);
#758 = CIRCLE('',#759,5.);
#759 = AXIS2_PLACEMENT_3D('',#760,#761,#762);
#760 = CARTESIAN_POINT('',(168.1,35.664619361068,139.58813728906));
#761 = DIRECTION('',(-1.,0.,1.110223024625E-16));
#762 = DIRECTION('',(1.110223024625E-16,0.,1.));
#763 = PCURVE('',#673,#764);
#764 = DEFINITIONAL_REPRESENTATION('',(#765),#769);
#765 = CIRCLE('',#766,5.);
#766 = AXIS2_PLACEMENT_2D('',#767,#768);
#767 = CARTESIAN_POINT('',(0.,0.));
#768 = DIRECTION('',(1.,0.));
#769 = ( GEOMETRIC_REPRESENTATION_CONTEXT(2) 
PARAMETRIC_REPRESENTATION_CONTEXT() REPRESENTATION_CONTEXT('2D SPACE',''
  ) );
#770 = PCURVE('',#312,#771);
#771 = DEFINITIONAL_REPRESENTATION('',(#772),#776);
#772 = LINE('',#773,#774);
#773 = CARTESIAN_POINT('',(0.,0.));
#774 = VECTOR('',#775,1.);
#775 = DIRECTION('',(1.,0.));
#776 = ( GEOMETRIC_REPRESENTATION_CONTEXT(2) 
PARAMETRIC_REPRESENTATION_CONTEXT() REPRESENTATION_CONTEXT('2D SPACE',''
  ) );
#777 = ORIENTED_EDGE('',*,*,#778,.T.);
#778 = EDGE_CURVE('',#296,#182,#779,.T.);
#779 = SURFACE_CURVE('',#780,(#785,#792),.PCURVE_S1.);
#780 = CIRCLE('',#781,5.);
#781 = AXIS2_PLACEMENT_3D('',#782,#783,#784);
#782 = CARTESIAN_POINT('',(168.1,35.664619361068,139.58813728906));
#783 = DIRECTION('',(-1.,0.,1.110223024625E-16));
#784 = DIRECTION('',(1.110223024625E-16,0.,1.));
#785 = PCURVE('',#673,#786);
#786 = DEFINITIONAL_REPRESENTATION('',(#787),#791);
#787 = CIRCLE('',#788,5.);
#788 = AXIS2_PLACEMENT_2D('',#789,#790);
#789 = CARTESIAN_POINT('',(0.,0.));
#790 = DIRECTION('',(1.,0.));
#791 = ( GEOMETRIC_REPRESENTATION_CONTEXT(2) 
PARAMETRIC_REPRESENTATION_CONTEXT() REPRESENTATION_CONTEXT('2D SPACE',''
  ) );
#792 = PCURVE('',#198,#793);
#793 = DEFINITIONAL_REPRESENTATION('',(#794),#798);
#794 = LINE('',#795,#796);
#795 = CARTESIAN_POINT('',(0.,0.));
#796 = VECTOR('',#797,1.);
#797 = DIRECTION('',(1.,0.));
#798 = ( GEOMETRIC_REPRESENTATION_CONTEXT(2) 
PARAMETRIC_REPRESENTATION_CONTEXT() REPRESENTATION_CONTEXT('2D SPACE',''
  ) );
#799 = ADVANCED_FACE('',(#800),#426,.T.);
#800 = FACE_BOUND('',#801,.T.);
#801 = EDGE_LOOP('',(#802,#803,#804));
#802 = ORIENTED_EDGE('',*,*,#601,.F.);
#803 = ORIENTED_EDGE('',*,*,#734,.T.);
#804 = ORIENTED_EDGE('',*,*,#407,.F.);
#805 = ADVANCED_FACE('',(#806),#312,.T.);
#806 = FACE_BOUND('',#807,.T.);
#807 = EDGE_LOOP('',(#808,#809,#810));
#808 = ORIENTED_EDGE('',*,*,#756,.T.);
#809 = ORIENTED_EDGE('',*,*,#293,.F.);
#810 = ORIENTED_EDGE('',*,*,#492,.F.);
#811 = ADVANCED_FACE('',(#812),#198,.T.);
#812 = FACE_BOUND('',#813,.T.);
#813 = EDGE_LOOP('',(#814,#815,#816));
#814 = ORIENTED_EDGE('',*,*,#778,.T.);
#815 = ORIENTED_EDGE('',*,*,#179,.F.);
#816 = ORIENTED_EDGE('',*,*,#378,.F.);
#817 = ADVANCED_FACE('',(#818,#846),#105,.T.);
#818 = FACE_BOUND('',#819,.T.);
#819 = EDGE_LOOP('',(#820,#821,#842,#843,#844,#845));
#820 = ORIENTED_EDGE('',*,*,#89,.T.);
#821 = ORIENTED_EDGE('',*,*,#822,.T.);
#822 = EDGE_CURVE('',#90,#557,#823,.T.);
#823 = SURFACE_CURVE('',#824,(#828,#835),.PCURVE_S1.);
#824 = LINE('',#825,#826);
#825 = CARTESIAN_POINT('',(164.1,40.664619361068,142.474888635));
#826 = VECTOR('',#827,1.);
#827 = DIRECTION('',(-1.110223024625E-16,1.538370149107E-16,-1.));
#828 = PCURVE('',#105,#829);
#829 = DEFINITIONAL_REPRESENTATION('',(#830),#834);
#830 = LINE('',#831,#832);
#831 = CARTESIAN_POINT('',(2.886751345948,5.));
#832 = VECTOR('',#833,1.);
#833 = DIRECTION('',(-1.,1.538370149107E-16));
#834 = ( GEOMETRIC_REPRESENTATION_CONTEXT(2) 
PARAMETRIC_REPRESENTATION_CONTEXT() REPRESENTATION_CONTEXT('2D SPACE',''
  ) );
#835 = PCURVE('',#133,#836);
#836 = DEFINITIONAL_REPRESENTATION('',(#837),#841);
#837 = LINE('',#838,#839);
#838 = CARTESIAN_POINT('',(4.440892098501E-16,-4.));
#839 = VECTOR('',#840,1.);
#840 = DIRECTION('',(1.,0.));
#841 = ( GEOMETRIC_REPRESENTATION_CONTEXT(2) 
PARAMETRIC_REPRESENTATION_CONTEXT() REPRESENTATION_CONTEXT('2D SPACE',''
  ) );
#842 = ORIENTED_EDGE('',*,*,#579,.T.);
#843 = ORIENTED_EDGE('',*,*,#470,.T.);
#844 = ORIENTED_EDGE('',*,*,#356,.T.);
#845 = ORIENTED_EDGE('',*,*,#242,.T.);
#846 = FACE_BOUND('',#847,.T.);
#847 = EDGE_LOOP('',(#848));
#848 = ORIENTED_EDGE('',*,*,#849,.F.);
#849 = EDGE_CURVE('',#850,#850,#852,.T.);
#850 = VERTEX_POINT('',#851);
#851 = CARTESIAN_POINT('',(164.1,35.664619361068,142.58813728906));
#852 = SURFACE_CURVE('',#853,(#858,#865),.PCURVE_S1.);
#853 = CIRCLE('',#854,3.);
#854 = AXIS2_PLACEMENT_3D('',#855,#856,#857);
#855 = CARTESIAN_POINT('',(164.1,35.664619361068,139.58813728906));
#856 = DIRECTION('',(-1.,0.,1.110223024625E-16));
#857 = DIRECTION('',(1.110223024625E-16,0.,1.));
#858 = PCURVE('',#105,#859);
#859 = DEFINITIONAL_REPRESENTATION('',(#860),#864);
#860 = CIRCLE('',#861,3.);
#861 = AXIS2_PLACEMENT_2D('',#862,#863);
#862 = CARTESIAN_POINT('',(0.,0.));
#863 = DIRECTION('',(1.,0.));
#864 = ( GEOMETRIC_REPRESENTATION_CONTEXT(2) 
PARAMETRIC_REPRESENTATION_CONTEXT() REPRESENTATION_CONTEXT('2D SPACE',''
  ) );
#865 = PCURVE('',#866,#871);
#866 = CYLINDRICAL_SURFACE('',#867,3.);
#867 = AXIS2_PLACEMENT_3D('',#868,#869,#870);
#868 = CARTESIAN_POINT('',(164.1,35.664619361068,139.58813728906));
#869 = DIRECTION('',(-1.,0.,1.110223024625E-16));
#870 = DIRECTION('',(1.110223024625E-16,0.,1.));
#871 = DEFINITIONAL_REPRESENTATION('',(#872),#876);
#872 = LINE('',#873,#874);
#873 = CARTESIAN_POINT('',(0.,0.));
#874 = VECTOR('',#875,1.);
#875 = DIRECTION('',(1.,0.));
#876 = ( GEOMETRIC_REPRESENTATION_CONTEXT(2) 
PARAMETRIC_REPRESENTATION_CONTEXT() REPRESENTATION_CONTEXT('2D SPACE',''
  ) );
#877 = ADVANCED_FACE('',(#878),#866,.T.);
#878 = FACE_BOUND('',#879,.T.);
#879 = EDGE_LOOP('',(#880,#909,#930,#931));
#880 = ORIENTED_EDGE('',*,*,#881,.F.);
#881 = EDGE_CURVE('',#882,#882,#884,.T.);
#882 = VERTEX_POINT('',#883);
#883 = CARTESIAN_POINT('',(146.9,35.664619361068,142.58813728906));
#884 = SURFACE_CURVE('',#885,(#890,#897),.PCURVE_S1.);
#885 = CIRCLE('',#886,3.);
#886 = AXIS2_PLACEMENT_3D('',#887,#888,#889);
#887 = CARTESIAN_POINT('',(146.9,35.664619361068,139.58813728906));
#888 = DIRECTION('',(-1.,0.,1.110223024625E-16));
#889 = DIRECTION('',(1.110223024625E-16,0.,1.));
#890 = PCURVE('',#866,#891);
#891 = DEFINITIONAL_REPRESENTATION('',(#892),#896);
#892 = LINE('',#893,#894);
#893 = CARTESIAN_POINT('',(0.,17.2));
#894 = VECTOR('',#895,1.);
#895 = DIRECTION('',(1.,0.));
#896 = ( GEOMETRIC_REPRESENTATION_CONTEXT(2) 
PARAMETRIC_REPRESENTATION_CONTEXT() REPRESENTATION_CONTEXT('2D SPACE',''
  ) );
#897 = PCURVE('',#898,#903);
#898 = CONICAL_SURFACE('',#899,3.,0.785398163397);
#899 = AXIS2_PLACEMENT_3D('',#900,#901,#902);
#900 = CARTESIAN_POINT('',(146.9,35.664619361068,139.58813728906));
#901 = DIRECTION('',(1.,-0.,-1.110223024625E-16));
#902 = DIRECTION('',(1.110223024625E-16,0.,1.));
#903 = DEFINITIONAL_REPRESENTATION('',(#904),#908);
#904 = LINE('',#905,#906);
#905 = CARTESIAN_POINT('',(-0.,-0.));
#906 = VECTOR('',#907,1.);
#907 = DIRECTION('',(-1.,-0.));
#908 = ( GEOMETRIC_REPRESENTATION_CONTEXT(2) 
PARAMETRIC_REPRESENTATION_CONTEXT() REPRESENTATION_CONTEXT('2D SPACE',''
  ) );
#909 = ORIENTED_EDGE('',*,*,#910,.F.);
#910 = EDGE_CURVE('',#850,#882,#911,.T.);
#911 = SEAM_CURVE('',#912,(#916,#923),.PCURVE_S1.);
#912 = LINE('',#913,#914);
#913 = CARTESIAN_POINT('',(164.1,35.664619361068,142.58813728906));
#914 = VECTOR('',#915,1.);
#915 = DIRECTION('',(-1.,0.,1.110223024625E-16));
#916 = PCURVE('',#866,#917);
#917 = DEFINITIONAL_REPRESENTATION('',(#918),#922);
#918 = LINE('',#919,#920);
#919 = CARTESIAN_POINT('',(6.28318530718,-0.));
#920 = VECTOR('',#921,1.);
#921 = DIRECTION('',(0.,1.));
#922 = ( GEOMETRIC_REPRESENTATION_CONTEXT(2) 
PARAMETRIC_REPRESENTATION_CONTEXT() REPRESENTATION_CONTEXT('2D SPACE',''
  ) );
#923 = PCURVE('',#866,#924);
#924 = DEFINITIONAL_REPRESENTATION('',(#925),#929);
#925 = LINE('',#926,#927);
#926 = CARTESIAN_POINT('',(0.,-0.));
#927 = VECTOR('',#928,1.);
#928 = DIRECTION('',(0.,1.));
#929 = ( GEOMETRIC_REPRESENTATION_CONTEXT(2) 
PARAMETRIC_REPRESENTATION_CONTEXT() REPRESENTATION_CONTEXT('2D SPACE',''
  ) );
#930 = ORIENTED_EDGE('',*,*,#849,.T.);
#931 = ORIENTED_EDGE('',*,*,#910,.T.);
#932 = ADVANCED_FACE('',(#933),#898,.T.);
#933 = FACE_BOUND('',#934,.T.);
#934 = EDGE_LOOP('',(#935,#964,#985,#986));
#935 = ORIENTED_EDGE('',*,*,#936,.F.);
#936 = EDGE_CURVE('',#937,#937,#939,.T.);
#937 = VERTEX_POINT('',#938);
#938 = CARTESIAN_POINT('',(146.1,35.664619361068,141.78813728906));
#939 = SURFACE_CURVE('',#940,(#945,#952),.PCURVE_S1.);
#940 = CIRCLE('',#941,2.2);
#941 = AXIS2_PLACEMENT_3D('',#942,#943,#944);
#942 = CARTESIAN_POINT('',(146.1,35.664619361068,139.58813728906));
#943 = DIRECTION('',(-1.,0.,1.110223024625E-16));
#944 = DIRECTION('',(1.110223024625E-16,0.,1.));
#945 = PCURVE('',#898,#946);
#946 = DEFINITIONAL_REPRESENTATION('',(#947),#951);
#947 = LINE('',#948,#949);
#948 = CARTESIAN_POINT('',(-0.,-0.8));
#949 = VECTOR('',#950,1.);
#950 = DIRECTION('',(-1.,-0.));
#951 = ( GEOMETRIC_REPRESENTATION_CONTEXT(2) 
PARAMETRIC_REPRESENTATION_CONTEXT() REPRESENTATION_CONTEXT('2D SPACE',''
  ) );
#952 = PCURVE('',#953,#958);
#953 = PLANE('',#954);
#954 = AXIS2_PLACEMENT_3D('',#955,#956,#957);
#955 = CARTESIAN_POINT('',(146.1,35.664619361068,139.58813728906));
#956 = DIRECTION('',(-1.,0.,1.110223024625E-16));
#957 = DIRECTION('',(1.110223024625E-16,0.,1.));
#958 = DEFINITIONAL_REPRESENTATION('',(#959),#963);
#959 = CIRCLE('',#960,2.2);
#960 = AXIS2_PLACEMENT_2D('',#961,#962);
#961 = CARTESIAN_POINT('',(0.,0.));
#962 = DIRECTION('',(1.,0.));
#963 = ( GEOMETRIC_REPRESENTATION_CONTEXT(2) 
PARAMETRIC_REPRESENTATION_CONTEXT() REPRESENTATION_CONTEXT('2D SPACE',''
  ) );
#964 = ORIENTED_EDGE('',*,*,#965,.F.);
#965 = EDGE_CURVE('',#882,#937,#966,.T.);
#966 = SEAM_CURVE('',#967,(#971,#978),.PCURVE_S1.);
#967 = LINE('',#968,#969);
#968 = CARTESIAN_POINT('',(146.9,35.664619361068,142.58813728906));
#969 = VECTOR('',#970,1.);
#970 = DIRECTION('',(-0.707106781187,1.731912112471E-16,-0.707106781187)
  );
#971 = PCURVE('',#898,#972);
#972 = DEFINITIONAL_REPRESENTATION('',(#973),#977);
#973 = LINE('',#974,#975);
#974 = CARTESIAN_POINT('',(-6.28318530718,0.));
#975 = VECTOR('',#976,1.);
#976 = DIRECTION('',(-0.,-1.));
#977 = ( GEOMETRIC_REPRESENTATION_CONTEXT(2) 
PARAMETRIC_REPRESENTATION_CONTEXT() REPRESENTATION_CONTEXT('2D SPACE',''
  ) );
#978 = PCURVE('',#898,#979);
#979 = DEFINITIONAL_REPRESENTATION('',(#980),#984);
#980 = LINE('',#981,#982);
#981 = CARTESIAN_POINT('',(0.,-0.));
#982 = VECTOR('',#983,1.);
#983 = DIRECTION('',(-0.,-1.));
#984 = ( GEOMETRIC_REPRESENTATION_CONTEXT(2) 
PARAMETRIC_REPRESENTATION_CONTEXT() REPRESENTATION_CONTEXT('2D SPACE',''
  ) );
#985 = ORIENTED_EDGE('',*,*,#881,.T.);
#986 = ORIENTED_EDGE('',*,*,#965,.T.);
#987 = ADVANCED_FACE('',(#988),#953,.T.);
#988 = FACE_BOUND('',#989,.T.);
#989 = EDGE_LOOP('',(#990));
#990 = ORIENTED_EDGE('',*,*,#936,.T.);
#991 = ADVANCED_FACE('',(#992),#133,.F.);
#992 = FACE_BOUND('',#993,.F.);
#993 = EDGE_LOOP('',(#994,#1020,#1021,#1022,#1023));
#994 = ORIENTED_EDGE('',*,*,#995,.F.);
#995 = EDGE_CURVE('',#118,#631,#996,.T.);
#996 = SURFACE_CURVE('',#997,(#1002,#1009),.PCURVE_S1.);
#997 = HYPERBOLA('',#998,2.890173410405,5.);
#998 = AXIS2_PLACEMENT_3D('',#999,#1000,#1001);
#999 = CARTESIAN_POINT('',(170.9901734104,40.664619361068,
    139.58813728906));
#1000 = DIRECTION('',(-1.707933959934E-32,-1.,-1.538370149107E-16));
#1001 = DIRECTION('',(-1.,0.,1.110223024625E-16));
#1002 = PCURVE('',#133,#1003);
#1003 = DEFINITIONAL_REPRESENTATION('',(#1004),#1008);
#1004 = HYPERBOLA('',#1005,2.890173410405,5.);
#1005 = AXIS2_PLACEMENT_2D('',#1006,#1007);
#1006 = CARTESIAN_POINT('',(2.886751345948,2.890173410405));
#1007 = DIRECTION('',(0.,-1.));
#1008 = ( GEOMETRIC_REPRESENTATION_CONTEXT(2) 
PARAMETRIC_REPRESENTATION_CONTEXT() REPRESENTATION_CONTEXT('2D SPACE',''
  ) );
#1009 = PCURVE('',#160,#1010);
#1010 = DEFINITIONAL_REPRESENTATION('',(#1011),#1019);
#1011 = B_SPLINE_CURVE_WITH_KNOTS('',6,(#1012,#1013,#1014,#1015,#1016,
    #1017,#1018),.UNSPECIFIED.,.F.,.F.,(7,7),(-0.646774826402,
    9.260467495332E-17),.PIECEWISE_BEZIER_KNOTS.);
#1012 = CARTESIAN_POINT('',(0.964905207956,0.62587429497));
#1013 = CARTESIAN_POINT('',(1.053512813351,0.410027115705));
#1014 = CARTESIAN_POINT('',(1.148647716446,0.243207376361));
#1015 = CARTESIAN_POINT('',(1.249659004149,0.120900873366));
#1016 = CARTESIAN_POINT('',(1.355205541114,4.030040128423E-02));
#1017 = CARTESIAN_POINT('',(1.463000522395,-2.885085383762E-17));
#1018 = CARTESIAN_POINT('',(1.570796326795,0.));
#1019 = ( GEOMETRIC_REPRESENTATION_CONTEXT(2) 
PARAMETRIC_REPRESENTATION_CONTEXT() REPRESENTATION_CONTEXT('2D SPACE',''
  ) );
#1020 = ORIENTED_EDGE('',*,*,#117,.T.);
#1021 = ORIENTED_EDGE('',*,*,#822,.T.);
#1022 = ORIENTED_EDGE('',*,*,#556,.F.);
#1023 = ORIENTED_EDGE('',*,*,#630,.F.);
#1024 = ADVANCED_FACE('',(#1025),#160,.T.);
#1025 = FACE_BOUND('',#1026,.T.);
#1026 = EDGE_LOOP('',(#1027,#1028,#1029));
#1027 = ORIENTED_EDGE('',*,*,#145,.F.);
#1028 = ORIENTED_EDGE('',*,*,#711,.T.);
#1029 = ORIENTED_EDGE('',*,*,#995,.F.);
#1030 = ADVANCED_FACE('',(#1031),#45,.T.);
#1031 = FACE_BOUND('',#1032,.T.);
#1032 = EDGE_LOOP('',(#1033,#1034,#1035));
#1033 = ORIENTED_EDGE('',*,*,#21,.F.);
#1034 = ORIENTED_EDGE('',*,*,#264,.F.);
#1035 = ORIENTED_EDGE('',*,*,#689,.T.);
#1036 = ( GEOMETRIC_REPRESENTATION_CONTEXT(3) 
GLOBAL_UNCERTAINTY_ASSIGNED_CONTEXT((#1040)) 
GLOBAL_UNIT_ASSIGNED_CONTEXT((#1037,#1038,#1039)) REPRESENTATION_CONTEXT
('Context #1','3D Context with UNIT and UNCERTAINTY') );
#1037 = ( LENGTH_UNIT() NAMED_UNIT(*) SI_UNIT(.MILLI.,.METRE.) );
#1038 = ( NAMED_UNIT(*) PLANE_ANGLE_UNIT() SI_UNIT($,.RADIAN.) );
#1039 = ( NAMED_UNIT(*) SI_UNIT($,.STERADIAN.) SOLID_ANGLE_UNIT() );
#1040 = UNCERTAINTY_MEASURE_WITH_UNIT(LENGTH_MEASURE(2.E-07),#1037,
  'distance_accuracy_value','confusion accuracy');
#1041 = PRODUCT_RELATED_PRODUCT_CATEGORY('part',$,(#7));
ENDSEC;
END-ISO-10303-21;
