ISO-10303-21;
HEADER;
FILE_DESCRIPTION(('Open CASCADE Model'),'2;1');
FILE_NAME('Open CASCADE Shape Model','2026-09-23T01:45:34',('Author'),(
    'Open CASCADE'),'Open CASCADE STEP processor 7.9','Open CASCADE 7.9'
  ,'Unknown');
FILE_SCHEMA(('AUTOMOTIVE_DESIGN { 1 0 10303 214 1 1 1 1 }'));
ENDSEC;
DATA;
#1 = APPLICATION_PROTOCOL_DEFINITION('international standard',
  'automotive_design',2000,#2);
#2 = APPLICATION_CONTEXT(
  'core data for automotive mechanical design processes');
#3 = SHAPE_DEFINITION_REPRESENTATION(#4,#10);
#4 = PRODUCT_DEFINITION_SHAPE('','',#5);
#5 = PRODUCT_DEFINITION('design','',#6,#9);
#6 = PRODUCT_DEFINITION_FORMATION('','',#7);
#7 = PRODUCT('Open CASCADE STEP translator 7.9 19',
  'Open CASCADE STEP translator 7.9 19','',(#8));
#8 = PRODUCT_CONTEXT('',#2,'mechanical');
#9 = PRODUCT_DEFINITION_CONTEXT('part definition',#2,'design');
#10 = ADVANCED_BREP_SHAPE_REPRESENTATION('',(#11,#15),#815);
#11 = AXIS2_PLACEMENT_3D('',#12,#13,#14);
#12 = CARTESIAN_POINT('',(0.,0.,0.));
#13 = DIRECTION('',(0.,0.,1.));
#14 = DIRECTION('',(1.,0.,-0.));
#15 = MANIFOLD_SOLID_BREP('',#16);
#16 = CLOSED_SHELL('',(#17,#157,#390,#449,#635,#662,#689,#716,#723,#758,
    #788));
#17 = ADVANCED_FACE('',(#18),#33,.F.);
#18 = FACE_BOUND('',#19,.F.);
#19 = EDGE_LOOP('',(#20,#65,#93,#131));
#20 = ORIENTED_EDGE('',*,*,#21,.F.);
#21 = EDGE_CURVE('',#22,#24,#26,.T.);
#22 = VERTEX_POINT('',#23);
#23 = CARTESIAN_POINT('',(10.392304845413,-1.27269028647E-15,
    16.527968922269));
#24 = VERTEX_POINT('',#25);
#25 = CARTESIAN_POINT('',(5.196152422707,9.,16.527968922269));
#26 = SURFACE_CURVE('',#27,(#32,#44),.PCURVE_S1.);
#27 = HYPERBOLA('',#28,9.818181818182,9.);
#28 = AXIS2_PLACEMENT_3D('',#29,#30,#31);
#29 = CARTESIAN_POINT('',(7.79422863406,4.5,5.190909090909));
#30 = DIRECTION('',(-0.866025403784,-0.5,0.));
#31 = DIRECTION('',(0.,0.,1.));
#32 = PCURVE('',#33,#38);
#33 = PLANE('',#34);
#34 = AXIS2_PLACEMENT_3D('',#35,#36,#37);
#35 = CARTESIAN_POINT('',(10.392304845413,0.,14.9));
#36 = DIRECTION('',(-0.866025403784,-0.5,0.));
#37 = DIRECTION('',(-0.5,0.866025403784,0.));
#38 = DEFINITIONAL_REPRESENTATION('',(#39),#43);
#39 = HYPERBOLA('',#40,9.818181818182,9.);
#40 = AXIS2_PLACEMENT_2D('',#41,#42);
#41 = CARTESIAN_POINT('',(5.196152422707,9.709090909091));
#42 = DIRECTION('',(0.,-1.));
#43 = ( GEOMETRIC_REPRESENTATION_CONTEXT(2) 
PARAMETRIC_REPRESENTATION_CONTEXT() REPRESENTATION_CONTEXT('2D SPACE',''
  ) );
#44 = PCURVE('',#45,#50);
#45 = CONICAL_SURFACE('',#46,8.9,0.741947268006);
#46 = AXIS2_PLACEMENT_3D('',#47,#48,#49);
#47 = CARTESIAN_POINT('',(0.,0.,14.9));
#48 = DIRECTION('',(0.,0.,1.));
#49 = DIRECTION('',(1.,0.,-0.));
#50 = DEFINITIONAL_REPRESENTATION('',(#51),#64);
#51 = B_SPLINE_CURVE_WITH_KNOTS('',6,(#52,#53,#54,#55,#56,#57,#58,#59,
    #60,#61,#62,#63),.UNSPECIFIED.,.F.,.F.,(7,5,7),(-0.549306144334,
    4.873434103376E-02,0.646774826402),.UNSPECIFIED.);
#52 = CARTESIAN_POINT('',(0.,1.627968922269));
#53 = CARTESIAN_POINT('',(8.631970880335E-02,1.06296719192));
#54 = CARTESIAN_POINT('',(0.177801104119,0.633122938056));
#55 = CARTESIAN_POINT('',(0.273676084141,0.328333112089));
#56 = CARTESIAN_POINT('',(0.37262459643,0.142519710007));
#57 = CARTESIAN_POINT('',(0.472758669835,7.304160738896E-02));
#58 = CARTESIAN_POINT('',(0.671869004384,0.168463361588));
#59 = CARTESIAN_POINT('',(0.770844025024,0.333363249762));
#60 = CARTESIAN_POINT('',(0.867469747659,0.616304631124));
#61 = CARTESIAN_POINT('',(0.960046927286,1.021635844178));
#62 = CARTESIAN_POINT('',(1.047558852636,1.557240710348));
#63 = CARTESIAN_POINT('',(1.129489894438,2.235242786767));
#64 = ( GEOMETRIC_REPRESENTATION_CONTEXT(2) 
PARAMETRIC_REPRESENTATION_CONTEXT() REPRESENTATION_CONTEXT('2D SPACE',''
  ) );
#65 = ORIENTED_EDGE('',*,*,#66,.T.);
#66 = EDGE_CURVE('',#22,#67,#69,.T.);
#67 = VERTEX_POINT('',#68);
#68 = CARTESIAN_POINT('',(10.392304845413,-1.27269028647E-15,
    19.272031077731));
#69 = SURFACE_CURVE('',#70,(#74,#81),.PCURVE_S1.);
#70 = LINE('',#71,#72);
#71 = CARTESIAN_POINT('',(10.392304845413,0.,14.9));
#72 = VECTOR('',#73,1.);
#73 = DIRECTION('',(0.,0.,1.));
#74 = PCURVE('',#33,#75);
#75 = DEFINITIONAL_REPRESENTATION('',(#76),#80);
#76 = LINE('',#77,#78);
#77 = CARTESIAN_POINT('',(0.,0.));
#78 = VECTOR('',#79,1.);
#79 = DIRECTION('',(0.,-1.));
#80 = ( GEOMETRIC_REPRESENTATION_CONTEXT(2) 
PARAMETRIC_REPRESENTATION_CONTEXT() REPRESENTATION_CONTEXT('2D SPACE',''
  ) );
#81 = PCURVE('',#82,#87);
#82 = PLANE('',#83);
#83 = AXIS2_PLACEMENT_3D('',#84,#85,#86);
#84 = CARTESIAN_POINT('',(5.196152422707,-9.,14.9));
#85 = DIRECTION('',(-0.866025403784,0.5,0.));
#86 = DIRECTION('',(0.5,0.866025403784,0.));
#87 = DEFINITIONAL_REPRESENTATION('',(#88),#92);
#88 = LINE('',#89,#90);
#89 = CARTESIAN_POINT('',(10.392304845413,0.));
#90 = VECTOR('',#91,1.);
#91 = DIRECTION('',(0.,-1.));
#92 = ( GEOMETRIC_REPRESENTATION_CONTEXT(2) 
PARAMETRIC_REPRESENTATION_CONTEXT() REPRESENTATION_CONTEXT('2D SPACE',''
  ) );
#93 = ORIENTED_EDGE('',*,*,#94,.F.);
#94 = EDGE_CURVE('',#95,#67,#97,.T.);
#95 = VERTEX_POINT('',#96);
#96 = CARTESIAN_POINT('',(5.196152422707,9.,19.272031077731));
#97 = SURFACE_CURVE('',#98,(#103,#110),.PCURVE_S1.);
#98 = HYPERBOLA('',#99,9.818181818182,9.);
#99 = AXIS2_PLACEMENT_3D('',#100,#101,#102);
#100 = CARTESIAN_POINT('',(7.79422863406,4.5,30.609090909091));
#101 = DIRECTION('',(-0.866025403784,-0.5,0.));
#102 = DIRECTION('',(-0.,0.,-1.));
#103 = PCURVE('',#33,#104);
#104 = DEFINITIONAL_REPRESENTATION('',(#105),#109);
#105 = HYPERBOLA('',#106,9.818181818182,9.);
#106 = AXIS2_PLACEMENT_2D('',#107,#108);
#107 = CARTESIAN_POINT('',(5.196152422707,-15.70909090909));
#108 = DIRECTION('',(0.,1.));
#109 = ( GEOMETRIC_REPRESENTATION_CONTEXT(2) 
PARAMETRIC_REPRESENTATION_CONTEXT() REPRESENTATION_CONTEXT('2D SPACE',''
  ) );
#110 = PCURVE('',#111,#116);
#111 = CONICAL_SURFACE('',#112,14.4,0.741947268006);
#112 = AXIS2_PLACEMENT_3D('',#113,#114,#115);
#113 = CARTESIAN_POINT('',(0.,0.,14.9));
#114 = DIRECTION('',(-0.,-0.,-1.));
#115 = DIRECTION('',(1.,0.,-0.));
#116 = DEFINITIONAL_REPRESENTATION('',(#117),#130);
#117 = B_SPLINE_CURVE_WITH_KNOTS('',6,(#118,#119,#120,#121,#122,#123,
    #124,#125,#126,#127,#128,#129),.UNSPECIFIED.,.F.,.F.,(7,5,7),(
    -0.646774826402,-4.873434103375E-02,0.549306144334),.UNSPECIFIED.);
#118 = CARTESIAN_POINT('',(-1.129489894438,-3.764757213233));
#119 = CARTESIAN_POINT('',(-1.047558852636,-4.442759289652));
#120 = CARTESIAN_POINT('',(-0.960046927286,-4.978364155822));
#121 = CARTESIAN_POINT('',(-0.867469747659,-5.383695368876));
#122 = CARTESIAN_POINT('',(-0.770844025024,-5.666636750238));
#123 = CARTESIAN_POINT('',(-0.671869004384,-5.831536638412));
#124 = CARTESIAN_POINT('',(-0.472758669835,-5.926958392611));
#125 = CARTESIAN_POINT('',(-0.372624596429,-5.857480289993));
#126 = CARTESIAN_POINT('',(-0.273676084141,-5.67166688791));
#127 = CARTESIAN_POINT('',(-0.177801104119,-5.366877061944));
#128 = CARTESIAN_POINT('',(-8.631970880335E-02,-4.93703280808));
#129 = CARTESIAN_POINT('',(0.,-4.372031077731));
#130 = ( GEOMETRIC_REPRESENTATION_CONTEXT(2) 
PARAMETRIC_REPRESENTATION_CONTEXT() REPRESENTATION_CONTEXT('2D SPACE',''
  ) );
#131 = ORIENTED_EDGE('',*,*,#132,.F.);
#132 = EDGE_CURVE('',#24,#95,#133,.T.);
#133 = SURFACE_CURVE('',#134,(#138,#145),.PCURVE_S1.);
#134 = LINE('',#135,#136);
#135 = CARTESIAN_POINT('',(5.196152422707,9.,14.9));
#136 = VECTOR('',#137,1.);
#137 = DIRECTION('',(0.,0.,1.));
#138 = PCURVE('',#33,#139);
#139 = DEFINITIONAL_REPRESENTATION('',(#140),#144);
#140 = LINE('',#141,#142);
#141 = CARTESIAN_POINT('',(10.392304845413,0.));
#142 = VECTOR('',#143,1.);
#143 = DIRECTION('',(0.,-1.));
#144 = ( GEOMETRIC_REPRESENTATION_CONTEXT(2) 
PARAMETRIC_REPRESENTATION_CONTEXT() REPRESENTATION_CONTEXT('2D SPACE',''
  ) );
#145 = PCURVE('',#146,#151);
#146 = PLANE('',#147);
#147 = AXIS2_PLACEMENT_3D('',#148,#149,#150);
#148 = CARTESIAN_POINT('',(5.196152422707,9.,14.9));
#149 = DIRECTION('',(-1.709300165674E-16,-1.,0.));
#150 = DIRECTION('',(-1.,1.709300165674E-16,0.));
#151 = DEFINITIONAL_REPRESENTATION('',(#152),#156);
#152 = LINE('',#153,#154);
#153 = CARTESIAN_POINT('',(0.,0.));
#154 = VECTOR('',#155,1.);
#155 = DIRECTION('',(0.,-1.));
#156 = ( GEOMETRIC_REPRESENTATION_CONTEXT(2) 
PARAMETRIC_REPRESENTATION_CONTEXT() REPRESENTATION_CONTEXT('2D SPACE',''
  ) );
#157 = ADVANCED_FACE('',(#158),#45,.T.);
#158 = FACE_BOUND('',#159,.T.);
#159 = EDGE_LOOP('',(#160,#161,#184,#211,#212,#245,#283,#321,#359));
#160 = ORIENTED_EDGE('',*,*,#21,.F.);
#161 = ORIENTED_EDGE('',*,*,#162,.F.);
#162 = EDGE_CURVE('',#163,#22,#165,.T.);
#163 = VERTEX_POINT('',#164);
#164 = CARTESIAN_POINT('',(8.9,-2.179871302482E-15,14.9));
#165 = SEAM_CURVE('',#166,(#170,#177),.PCURVE_S1.);
#166 = LINE('',#167,#168);
#167 = CARTESIAN_POINT('',(8.9,-2.179871302482E-15,14.9));
#168 = VECTOR('',#169,1.);
#169 = DIRECTION('',(0.675724628517,-1.655048006838E-16,0.737154140201)
  );
#170 = PCURVE('',#45,#171);
#171 = DEFINITIONAL_REPRESENTATION('',(#172),#176);
#172 = LINE('',#173,#174);
#173 = CARTESIAN_POINT('',(6.28318530718,-0.));
#174 = VECTOR('',#175,1.);
#175 = DIRECTION('',(0.,1.));
#176 = ( GEOMETRIC_REPRESENTATION_CONTEXT(2) 
PARAMETRIC_REPRESENTATION_CONTEXT() REPRESENTATION_CONTEXT('2D SPACE',''
  ) );
#177 = PCURVE('',#45,#178);
#178 = DEFINITIONAL_REPRESENTATION('',(#179),#183);
#179 = LINE('',#180,#181);
#180 = CARTESIAN_POINT('',(0.,-0.));
#181 = VECTOR('',#182,1.);
#182 = DIRECTION('',(0.,1.));
#183 = ( GEOMETRIC_REPRESENTATION_CONTEXT(2) 
PARAMETRIC_REPRESENTATION_CONTEXT() REPRESENTATION_CONTEXT('2D SPACE',''
  ) );
#184 = ORIENTED_EDGE('',*,*,#185,.T.);
#185 = EDGE_CURVE('',#163,#163,#186,.T.);
#186 = SURFACE_CURVE('',#187,(#192,#199),.PCURVE_S1.);
#187 = CIRCLE('',#188,8.9);
#188 = AXIS2_PLACEMENT_3D('',#189,#190,#191);
#189 = CARTESIAN_POINT('',(0.,0.,14.9));
#190 = DIRECTION('',(0.,0.,1.));
#191 = DIRECTION('',(1.,0.,-0.));
#192 = PCURVE('',#45,#193);
#193 = DEFINITIONAL_REPRESENTATION('',(#194),#198);
#194 = LINE('',#195,#196);
#195 = CARTESIAN_POINT('',(0.,0.));
#196 = VECTOR('',#197,1.);
#197 = DIRECTION('',(1.,0.));
#198 = ( GEOMETRIC_REPRESENTATION_CONTEXT(2) 
PARAMETRIC_REPRESENTATION_CONTEXT() REPRESENTATION_CONTEXT('2D SPACE',''
  ) );
#199 = PCURVE('',#200,#205);
#200 = PLANE('',#201);
#201 = AXIS2_PLACEMENT_3D('',#202,#203,#204);
#202 = CARTESIAN_POINT('',(0.,0.,14.9));
#203 = DIRECTION('',(0.,0.,1.));
#204 = DIRECTION('',(1.,0.,-0.));
#205 = DEFINITIONAL_REPRESENTATION('',(#206),#210);
#206 = CIRCLE('',#207,8.9);
#207 = AXIS2_PLACEMENT_2D('',#208,#209);
#208 = CARTESIAN_POINT('',(0.,0.));
#209 = DIRECTION('',(1.,0.));
#210 = ( GEOMETRIC_REPRESENTATION_CONTEXT(2) 
PARAMETRIC_REPRESENTATION_CONTEXT() REPRESENTATION_CONTEXT('2D SPACE',''
  ) );
#211 = ORIENTED_EDGE('',*,*,#162,.T.);
#212 = ORIENTED_EDGE('',*,*,#213,.F.);
#213 = EDGE_CURVE('',#214,#22,#216,.T.);
#214 = VERTEX_POINT('',#215);
#215 = CARTESIAN_POINT('',(5.196152422707,-9.,16.527968922269));
#216 = SURFACE_CURVE('',#217,(#222,#238),.PCURVE_S1.);
#217 = HYPERBOLA('',#218,9.818181818182,9.);
#218 = AXIS2_PLACEMENT_3D('',#219,#220,#221);
#219 = CARTESIAN_POINT('',(7.79422863406,-4.5,5.190909090909));
#220 = DIRECTION('',(-0.866025403784,0.5,0.));
#221 = DIRECTION('',(0.,0.,1.));
#222 = PCURVE('',#45,#223);
#223 = DEFINITIONAL_REPRESENTATION('',(#224),#237);
#224 = B_SPLINE_CURVE_WITH_KNOTS('',6,(#225,#226,#227,#228,#229,#230,
    #231,#232,#233,#234,#235,#236),.UNSPECIFIED.,.F.,.F.,(7,5,7),(
    -0.646774826402,-4.873434103376E-02,0.549306144334),.UNSPECIFIED.);
#225 = CARTESIAN_POINT('',(5.153695412742,2.235242786767));
#226 = CARTESIAN_POINT('',(5.235626454544,1.557240710348));
#227 = CARTESIAN_POINT('',(5.323138379894,1.021635844178));
#228 = CARTESIAN_POINT('',(5.415715559521,0.616304631124));
#229 = CARTESIAN_POINT('',(5.512341282156,0.333363249762));
#230 = CARTESIAN_POINT('',(5.611316302796,0.168463361588));
#231 = CARTESIAN_POINT('',(5.810426637345,7.304160738896E-02));
#232 = CARTESIAN_POINT('',(5.91056071075,0.142519710007));
#233 = CARTESIAN_POINT('',(6.009509223039,0.328333112089));
#234 = CARTESIAN_POINT('',(6.10538420306,0.633122938056));
#235 = CARTESIAN_POINT('',(6.196865598376,1.06296719192));
#236 = CARTESIAN_POINT('',(6.28318530718,1.627968922269));
#237 = ( GEOMETRIC_REPRESENTATION_CONTEXT(2) 
PARAMETRIC_REPRESENTATION_CONTEXT() REPRESENTATION_CONTEXT('2D SPACE',''
  ) );
#238 = PCURVE('',#82,#239);
#239 = DEFINITIONAL_REPRESENTATION('',(#240),#244);
#240 = HYPERBOLA('',#241,9.818181818182,9.);
#241 = AXIS2_PLACEMENT_2D('',#242,#243);
#242 = CARTESIAN_POINT('',(5.196152422707,9.709090909091));
#243 = DIRECTION('',(0.,-1.));
#244 = ( GEOMETRIC_REPRESENTATION_CONTEXT(2) 
PARAMETRIC_REPRESENTATION_CONTEXT() REPRESENTATION_CONTEXT('2D SPACE',''
  ) );
#245 = ORIENTED_EDGE('',*,*,#246,.F.);
#246 = EDGE_CURVE('',#247,#214,#249,.T.);
#247 = VERTEX_POINT('',#248);
#248 = CARTESIAN_POINT('',(-5.196152422707,-9.,16.527968922269));
#249 = SURFACE_CURVE('',#250,(#255,#271),.PCURVE_S1.);
#250 = HYPERBOLA('',#251,9.818181818182,9.);
#251 = AXIS2_PLACEMENT_3D('',#252,#253,#254);
#252 = CARTESIAN_POINT('',(-6.153480596427E-15,-9.,5.190909090909));
#253 = DIRECTION('',(6.837200662697E-16,1.,-0.));
#254 = DIRECTION('',(0.,0.,1.));
#255 = PCURVE('',#45,#256);
#256 = DEFINITIONAL_REPRESENTATION('',(#257),#270);
#257 = B_SPLINE_CURVE_WITH_KNOTS('',6,(#258,#259,#260,#261,#262,#263,
    #264,#265,#266,#267,#268,#269),.UNSPECIFIED.,.F.,.F.,(7,5,7),(
    -0.646774826402,1.110223024625E-16,0.646774826402),.UNSPECIFIED.);
#258 = CARTESIAN_POINT('',(4.106497861545,2.235242786767));
#259 = CARTESIAN_POINT('',(4.195105466941,1.501990296334));
#260 = CARTESIAN_POINT('',(4.290240370036,0.935288476351));
#261 = CARTESIAN_POINT('',(4.391251657739,0.519802166904));
#262 = CARTESIAN_POINT('',(4.496798194703,0.245995035926));
#263 = CARTESIAN_POINT('',(4.604593175984,0.109090909091));
#264 = CARTESIAN_POINT('',(4.820184784785,0.109090909091));
#265 = CARTESIAN_POINT('',(4.927979766066,0.245995035926));
#266 = CARTESIAN_POINT('',(5.03352630303,0.519802166904));
#267 = CARTESIAN_POINT('',(5.134537590733,0.935288476351));
#268 = CARTESIAN_POINT('',(5.229672493828,1.501990296334));
#269 = CARTESIAN_POINT('',(5.318280099224,2.235242786767));
#270 = ( GEOMETRIC_REPRESENTATION_CONTEXT(2) 
PARAMETRIC_REPRESENTATION_CONTEXT() REPRESENTATION_CONTEXT('2D SPACE',''
  ) );
#271 = PCURVE('',#272,#277);
#272 = PLANE('',#273);
#273 = AXIS2_PLACEMENT_3D('',#274,#275,#276);
#274 = CARTESIAN_POINT('',(-5.196152422707,-9.,14.9));
#275 = DIRECTION('',(6.837200662697E-16,1.,-0.));
#276 = DIRECTION('',(1.,-6.837200662697E-16,0.));
#277 = DEFINITIONAL_REPRESENTATION('',(#278),#282);
#278 = HYPERBOLA('',#279,9.818181818182,9.);
#279 = AXIS2_PLACEMENT_2D('',#280,#281);
#280 = CARTESIAN_POINT('',(5.196152422707,9.709090909091));
#281 = DIRECTION('',(0.,-1.));
#282 = ( GEOMETRIC_REPRESENTATION_CONTEXT(2) 
PARAMETRIC_REPRESENTATION_CONTEXT() REPRESENTATION_CONTEXT('2D SPACE',''
  ) );
#283 = ORIENTED_EDGE('',*,*,#284,.F.);
#284 = EDGE_CURVE('',#285,#247,#287,.T.);
#285 = VERTEX_POINT('',#286);
#286 = CARTESIAN_POINT('',(-10.39230484541,1.27269028647E-15,
    16.527968922269));
#287 = SURFACE_CURVE('',#288,(#293,#309),.PCURVE_S1.);
#288 = HYPERBOLA('',#289,9.818181818182,9.);
#289 = AXIS2_PLACEMENT_3D('',#290,#291,#292);
#290 = CARTESIAN_POINT('',(-7.79422863406,-4.5,5.190909090909));
#291 = DIRECTION('',(0.866025403784,0.5,-0.));
#292 = DIRECTION('',(0.,0.,1.));
#293 = PCURVE('',#45,#294);
#294 = DEFINITIONAL_REPRESENTATION('',(#295),#308);
#295 = B_SPLINE_CURVE_WITH_KNOTS('',6,(#296,#297,#298,#299,#300,#301,
    #302,#303,#304,#305,#306,#307),.UNSPECIFIED.,.F.,.F.,(7,5,7),(
    -0.646774826402,1.110223024625E-16,0.646774826402),.UNSPECIFIED.);
#296 = CARTESIAN_POINT('',(3.059300310349,2.235242786767));
#297 = CARTESIAN_POINT('',(3.147907915745,1.501990296334));
#298 = CARTESIAN_POINT('',(3.243042818839,0.935288476351));
#299 = CARTESIAN_POINT('',(3.344054106542,0.519802166904));
#300 = CARTESIAN_POINT('',(3.449600643507,0.245995035926));
#301 = CARTESIAN_POINT('',(3.557395624788,0.109090909091));
#302 = CARTESIAN_POINT('',(3.772987233588,0.109090909091));
#303 = CARTESIAN_POINT('',(3.880782214869,0.245995035926));
#304 = CARTESIAN_POINT('',(3.986328751833,0.519802166904));
#305 = CARTESIAN_POINT('',(4.087340039537,0.935288476351));
#306 = CARTESIAN_POINT('',(4.182474942631,1.501990296334));
#307 = CARTESIAN_POINT('',(4.271082548027,2.235242786767));
#308 = ( GEOMETRIC_REPRESENTATION_CONTEXT(2) 
PARAMETRIC_REPRESENTATION_CONTEXT() REPRESENTATION_CONTEXT('2D SPACE',''
  ) );
#309 = PCURVE('',#310,#315);
#310 = PLANE('',#311);
#311 = AXIS2_PLACEMENT_3D('',#312,#313,#314);
#312 = CARTESIAN_POINT('',(-10.39230484541,1.27269028647E-15,14.9));
#313 = DIRECTION('',(0.866025403784,0.5,-0.));
#314 = DIRECTION('',(0.5,-0.866025403784,0.));
#315 = DEFINITIONAL_REPRESENTATION('',(#316),#320);
#316 = HYPERBOLA('',#317,9.818181818182,9.);
#317 = AXIS2_PLACEMENT_2D('',#318,#319);
#318 = CARTESIAN_POINT('',(5.196152422707,9.709090909091));
#319 = DIRECTION('',(0.,-1.));
#320 = ( GEOMETRIC_REPRESENTATION_CONTEXT(2) 
PARAMETRIC_REPRESENTATION_CONTEXT() REPRESENTATION_CONTEXT('2D SPACE',''
  ) );
#321 = ORIENTED_EDGE('',*,*,#322,.F.);
#322 = EDGE_CURVE('',#323,#285,#325,.T.);
#323 = VERTEX_POINT('',#324);
#324 = CARTESIAN_POINT('',(-5.196152422707,9.,16.527968922269));
#325 = SURFACE_CURVE('',#326,(#331,#347),.PCURVE_S1.);
#326 = HYPERBOLA('',#327,9.818181818182,9.);
#327 = AXIS2_PLACEMENT_3D('',#328,#329,#330);
#328 = CARTESIAN_POINT('',(-7.79422863406,4.5,5.190909090909));
#329 = DIRECTION('',(0.866025403784,-0.5,0.));
#330 = DIRECTION('',(0.,0.,1.));
#331 = PCURVE('',#45,#332);
#332 = DEFINITIONAL_REPRESENTATION('',(#333),#346);
#333 = B_SPLINE_CURVE_WITH_KNOTS('',6,(#334,#335,#336,#337,#338,#339,
    #340,#341,#342,#343,#344,#345),.UNSPECIFIED.,.F.,.F.,(7,5,7),(
    -0.646774826402,0.,0.646774826402),.UNSPECIFIED.);
#334 = CARTESIAN_POINT('',(2.012102759152,2.235242786767));
#335 = CARTESIAN_POINT('',(2.100710364548,1.501990296334));
#336 = CARTESIAN_POINT('',(2.195845267643,0.935288476351));
#337 = CARTESIAN_POINT('',(2.296856555346,0.519802166904));
#338 = CARTESIAN_POINT('',(2.40240309231,0.245995035926));
#339 = CARTESIAN_POINT('',(2.510198073591,0.109090909091));
#340 = CARTESIAN_POINT('',(2.725789682392,0.109090909091));
#341 = CARTESIAN_POINT('',(2.833584663673,0.245995035926));
#342 = CARTESIAN_POINT('',(2.939131200637,0.519802166904));
#343 = CARTESIAN_POINT('',(3.04014248834,0.935288476351));
#344 = CARTESIAN_POINT('',(3.135277391435,1.501990296334));
#345 = CARTESIAN_POINT('',(3.223884996831,2.235242786767));
#346 = ( GEOMETRIC_REPRESENTATION_CONTEXT(2) 
PARAMETRIC_REPRESENTATION_CONTEXT() REPRESENTATION_CONTEXT('2D SPACE',''
  ) );
#347 = PCURVE('',#348,#353);
#348 = PLANE('',#349);
#349 = AXIS2_PLACEMENT_3D('',#350,#351,#352);
#350 = CARTESIAN_POINT('',(-5.196152422707,9.,14.9));
#351 = DIRECTION('',(0.866025403784,-0.5,0.));
#352 = DIRECTION('',(-0.5,-0.866025403784,0.));
#353 = DEFINITIONAL_REPRESENTATION('',(#354),#358);
#354 = HYPERBOLA('',#355,9.818181818182,9.);
#355 = AXIS2_PLACEMENT_2D('',#356,#357);
#356 = CARTESIAN_POINT('',(5.196152422707,9.709090909091));
#357 = DIRECTION('',(0.,-1.));
#358 = ( GEOMETRIC_REPRESENTATION_CONTEXT(2) 
PARAMETRIC_REPRESENTATION_CONTEXT() REPRESENTATION_CONTEXT('2D SPACE',''
  ) );
#359 = ORIENTED_EDGE('',*,*,#360,.F.);
#360 = EDGE_CURVE('',#24,#323,#361,.T.);
#361 = SURFACE_CURVE('',#362,(#367,#383),.PCURVE_S1.);
#362 = HYPERBOLA('',#363,9.818181818182,9.);
#363 = AXIS2_PLACEMENT_3D('',#364,#365,#366);
#364 = CARTESIAN_POINT('',(1.538370149107E-15,9.,5.190909090909));
#365 = DIRECTION('',(-1.709300165674E-16,-1.,0.));
#366 = DIRECTION('',(0.,0.,1.));
#367 = PCURVE('',#45,#368);
#368 = DEFINITIONAL_REPRESENTATION('',(#369),#382);
#369 = B_SPLINE_CURVE_WITH_KNOTS('',6,(#370,#371,#372,#373,#374,#375,
    #376,#377,#378,#379,#380,#381),.UNSPECIFIED.,.F.,.F.,(7,5,7),(
    -0.646774826402,0.,0.646774826402),.UNSPECIFIED.);
#370 = CARTESIAN_POINT('',(0.964905207956,2.235242786767));
#371 = CARTESIAN_POINT('',(1.053512813351,1.501990296334));
#372 = CARTESIAN_POINT('',(1.148647716446,0.935288476351));
#373 = CARTESIAN_POINT('',(1.249659004149,0.519802166904));
#374 = CARTESIAN_POINT('',(1.355205541114,0.245995035926));
#375 = CARTESIAN_POINT('',(1.463000522395,0.109090909091));
#376 = CARTESIAN_POINT('',(1.678592131195,0.109090909091));
#377 = CARTESIAN_POINT('',(1.786387112476,0.245995035926));
#378 = CARTESIAN_POINT('',(1.89193364944,0.519802166904));
#379 = CARTESIAN_POINT('',(1.992944937144,0.935288476351));
#380 = CARTESIAN_POINT('',(2.088079840238,1.501990296334));
#381 = CARTESIAN_POINT('',(2.176687445634,2.235242786767));
#382 = ( GEOMETRIC_REPRESENTATION_CONTEXT(2) 
PARAMETRIC_REPRESENTATION_CONTEXT() REPRESENTATION_CONTEXT('2D SPACE',''
  ) );
#383 = PCURVE('',#146,#384);
#384 = DEFINITIONAL_REPRESENTATION('',(#385),#389);
#385 = HYPERBOLA('',#386,9.818181818182,9.);
#386 = AXIS2_PLACEMENT_2D('',#387,#388);
#387 = CARTESIAN_POINT('',(5.196152422707,9.709090909091));
#388 = DIRECTION('',(0.,-1.));
#389 = ( GEOMETRIC_REPRESENTATION_CONTEXT(2) 
PARAMETRIC_REPRESENTATION_CONTEXT() REPRESENTATION_CONTEXT('2D SPACE',''
  ) );
#390 = ADVANCED_FACE('',(#391),#146,.F.);
#391 = FACE_BOUND('',#392,.F.);
#392 = EDGE_LOOP('',(#393,#394,#395,#428));
#393 = ORIENTED_EDGE('',*,*,#360,.F.);
#394 = ORIENTED_EDGE('',*,*,#132,.T.);
#395 = ORIENTED_EDGE('',*,*,#396,.F.);
#396 = EDGE_CURVE('',#397,#95,#399,.T.);
#397 = VERTEX_POINT('',#398);
#398 = CARTESIAN_POINT('',(-5.196152422707,9.,19.272031077731));
#399 = SURFACE_CURVE('',#400,(#405,#412),.PCURVE_S1.);
#400 = HYPERBOLA('',#401,9.818181818182,9.);
#401 = AXIS2_PLACEMENT_3D('',#402,#403,#404);
#402 = CARTESIAN_POINT('',(1.538370149107E-15,9.,30.609090909091));
#403 = DIRECTION('',(-1.709300165674E-16,-1.,0.));
#404 = DIRECTION('',(-0.,0.,-1.));
#405 = PCURVE('',#146,#406);
#406 = DEFINITIONAL_REPRESENTATION('',(#407),#411);
#407 = HYPERBOLA('',#408,9.818181818182,9.);
#408 = AXIS2_PLACEMENT_2D('',#409,#410);
#409 = CARTESIAN_POINT('',(5.196152422707,-15.70909090909));
#410 = DIRECTION('',(0.,1.));
#411 = ( GEOMETRIC_REPRESENTATION_CONTEXT(2) 
PARAMETRIC_REPRESENTATION_CONTEXT() REPRESENTATION_CONTEXT('2D SPACE',''
  ) );
#412 = PCURVE('',#111,#413);
#413 = DEFINITIONAL_REPRESENTATION('',(#414),#427);
#414 = B_SPLINE_CURVE_WITH_KNOTS('',6,(#415,#416,#417,#418,#419,#420,
    #421,#422,#423,#424,#425,#426),.UNSPECIFIED.,.F.,.F.,(7,5,7),(
    -0.646774826402,0.,0.646774826402),.UNSPECIFIED.);
#415 = CARTESIAN_POINT('',(-2.176687445634,-3.764757213233));
#416 = CARTESIAN_POINT('',(-2.088079840238,-4.498009703666));
#417 = CARTESIAN_POINT('',(-1.992944937144,-5.064711523649));
#418 = CARTESIAN_POINT('',(-1.89193364944,-5.480197833096));
#419 = CARTESIAN_POINT('',(-1.786387112476,-5.754004964074));
#420 = CARTESIAN_POINT('',(-1.678592131195,-5.890909090909));
#421 = CARTESIAN_POINT('',(-1.463000522395,-5.890909090909));
#422 = CARTESIAN_POINT('',(-1.355205541114,-5.754004964074));
#423 = CARTESIAN_POINT('',(-1.249659004149,-5.480197833096));
#424 = CARTESIAN_POINT('',(-1.148647716446,-5.064711523649));
#425 = CARTESIAN_POINT('',(-1.053512813351,-4.498009703666));
#426 = CARTESIAN_POINT('',(-0.964905207956,-3.764757213233));
#427 = ( GEOMETRIC_REPRESENTATION_CONTEXT(2) 
PARAMETRIC_REPRESENTATION_CONTEXT() REPRESENTATION_CONTEXT('2D SPACE',''
  ) );
#428 = ORIENTED_EDGE('',*,*,#429,.F.);
#429 = EDGE_CURVE('',#323,#397,#430,.T.);
#430 = SURFACE_CURVE('',#431,(#435,#442),.PCURVE_S1.);
#431 = LINE('',#432,#433);
#432 = CARTESIAN_POINT('',(-5.196152422707,9.,14.9));
#433 = VECTOR('',#434,1.);
#434 = DIRECTION('',(0.,0.,1.));
#435 = PCURVE('',#146,#436);
#436 = DEFINITIONAL_REPRESENTATION('',(#437),#441);
#437 = LINE('',#438,#439);
#438 = CARTESIAN_POINT('',(10.392304845413,0.));
#439 = VECTOR('',#440,1.);
#440 = DIRECTION('',(0.,-1.));
#441 = ( GEOMETRIC_REPRESENTATION_CONTEXT(2) 
PARAMETRIC_REPRESENTATION_CONTEXT() REPRESENTATION_CONTEXT('2D SPACE',''
  ) );
#442 = PCURVE('',#348,#443);
#443 = DEFINITIONAL_REPRESENTATION('',(#444),#448);
#444 = LINE('',#445,#446);
#445 = CARTESIAN_POINT('',(0.,0.));
#446 = VECTOR('',#447,1.);
#447 = DIRECTION('',(0.,-1.));
#448 = ( GEOMETRIC_REPRESENTATION_CONTEXT(2) 
PARAMETRIC_REPRESENTATION_CONTEXT() REPRESENTATION_CONTEXT('2D SPACE',''
  ) );
#449 = ADVANCED_FACE('',(#450),#111,.T.);
#450 = FACE_BOUND('',#451,.T.);
#451 = EDGE_LOOP('',(#452,#485,#508,#535,#536,#537,#538,#571,#604));
#452 = ORIENTED_EDGE('',*,*,#453,.F.);
#453 = EDGE_CURVE('',#67,#454,#456,.T.);
#454 = VERTEX_POINT('',#455);
#455 = CARTESIAN_POINT('',(5.196152422707,-9.,19.272031077731));
#456 = SURFACE_CURVE('',#457,(#462,#478),.PCURVE_S1.);
#457 = HYPERBOLA('',#458,9.818181818182,9.);
#458 = AXIS2_PLACEMENT_3D('',#459,#460,#461);
#459 = CARTESIAN_POINT('',(7.79422863406,-4.5,30.609090909091));
#460 = DIRECTION('',(-0.866025403784,0.5,0.));
#461 = DIRECTION('',(-0.,0.,-1.));
#462 = PCURVE('',#111,#463);
#463 = DEFINITIONAL_REPRESENTATION('',(#464),#477);
#464 = B_SPLINE_CURVE_WITH_KNOTS('',6,(#465,#466,#467,#468,#469,#470,
    #471,#472,#473,#474,#475,#476),.UNSPECIFIED.,.F.,.F.,(7,5,7),(
    -0.549306144334,4.873434103376E-02,0.646774826402),.UNSPECIFIED.);
#465 = CARTESIAN_POINT('',(-6.28318530718,-4.372031077731));
#466 = CARTESIAN_POINT('',(-6.196865598376,-4.93703280808));
#467 = CARTESIAN_POINT('',(-6.10538420306,-5.366877061944));
#468 = CARTESIAN_POINT('',(-6.009509223039,-5.671666887911));
#469 = CARTESIAN_POINT('',(-5.91056071075,-5.857480289993));
#470 = CARTESIAN_POINT('',(-5.810426637345,-5.926958392611));
#471 = CARTESIAN_POINT('',(-5.611316302796,-5.831536638412));
#472 = CARTESIAN_POINT('',(-5.512341282156,-5.666636750238));
#473 = CARTESIAN_POINT('',(-5.41571555952,-5.383695368876));
#474 = CARTESIAN_POINT('',(-5.323138379894,-4.978364155822));
#475 = CARTESIAN_POINT('',(-5.235626454544,-4.442759289652));
#476 = CARTESIAN_POINT('',(-5.153695412742,-3.764757213233));
#477 = ( GEOMETRIC_REPRESENTATION_CONTEXT(2) 
PARAMETRIC_REPRESENTATION_CONTEXT() REPRESENTATION_CONTEXT('2D SPACE',''
  ) );
#478 = PCURVE('',#82,#479);
#479 = DEFINITIONAL_REPRESENTATION('',(#480),#484);
#480 = HYPERBOLA('',#481,9.818181818182,9.);
#481 = AXIS2_PLACEMENT_2D('',#482,#483);
#482 = CARTESIAN_POINT('',(5.196152422707,-15.70909090909));
#483 = DIRECTION('',(0.,1.));
#484 = ( GEOMETRIC_REPRESENTATION_CONTEXT(2) 
PARAMETRIC_REPRESENTATION_CONTEXT() REPRESENTATION_CONTEXT('2D SPACE',''
  ) );
#485 = ORIENTED_EDGE('',*,*,#486,.T.);
#486 = EDGE_CURVE('',#67,#487,#489,.T.);
#487 = VERTEX_POINT('',#488);
#488 = CARTESIAN_POINT('',(8.9,-2.179871302482E-15,20.9));
#489 = SEAM_CURVE('',#490,(#494,#501),.PCURVE_S1.);
#490 = LINE('',#491,#492);
#491 = CARTESIAN_POINT('',(14.4,-3.526982781544E-15,14.9));
#492 = VECTOR('',#493,1.);
#493 = DIRECTION('',(-0.675724628517,1.655048006838E-16,0.737154140201)
  );
#494 = PCURVE('',#111,#495);
#495 = DEFINITIONAL_REPRESENTATION('',(#496),#500);
#496 = LINE('',#497,#498);
#497 = CARTESIAN_POINT('',(0.,-0.));
#498 = VECTOR('',#499,1.);
#499 = DIRECTION('',(-0.,-1.));
#500 = ( GEOMETRIC_REPRESENTATION_CONTEXT(2) 
PARAMETRIC_REPRESENTATION_CONTEXT() REPRESENTATION_CONTEXT('2D SPACE',''
  ) );
#501 = PCURVE('',#111,#502);
#502 = DEFINITIONAL_REPRESENTATION('',(#503),#507);
#503 = LINE('',#504,#505);
#504 = CARTESIAN_POINT('',(-6.28318530718,0.));
#505 = VECTOR('',#506,1.);
#506 = DIRECTION('',(-0.,-1.));
#507 = ( GEOMETRIC_REPRESENTATION_CONTEXT(2) 
PARAMETRIC_REPRESENTATION_CONTEXT() REPRESENTATION_CONTEXT('2D SPACE',''
  ) );
#508 = ORIENTED_EDGE('',*,*,#509,.F.);
#509 = EDGE_CURVE('',#487,#487,#510,.T.);
#510 = SURFACE_CURVE('',#511,(#516,#523),.PCURVE_S1.);
#511 = CIRCLE('',#512,8.9);
#512 = AXIS2_PLACEMENT_3D('',#513,#514,#515);
#513 = CARTESIAN_POINT('',(0.,0.,20.9));
#514 = DIRECTION('',(0.,0.,1.));
#515 = DIRECTION('',(1.,0.,-0.));
#516 = PCURVE('',#111,#517);
#517 = DEFINITIONAL_REPRESENTATION('',(#518),#522);
#518 = LINE('',#519,#520);
#519 = CARTESIAN_POINT('',(-0.,-6.));
#520 = VECTOR('',#521,1.);
#521 = DIRECTION('',(-1.,-0.));
#522 = ( GEOMETRIC_REPRESENTATION_CONTEXT(2) 
PARAMETRIC_REPRESENTATION_CONTEXT() REPRESENTATION_CONTEXT('2D SPACE',''
  ) );
#523 = PCURVE('',#524,#529);
#524 = PLANE('',#525);
#525 = AXIS2_PLACEMENT_3D('',#526,#527,#528);
#526 = CARTESIAN_POINT('',(0.,0.,20.9));
#527 = DIRECTION('',(0.,0.,1.));
#528 = DIRECTION('',(1.,0.,-0.));
#529 = DEFINITIONAL_REPRESENTATION('',(#530),#534);
#530 = CIRCLE('',#531,8.9);
#531 = AXIS2_PLACEMENT_2D('',#532,#533);
#532 = CARTESIAN_POINT('',(0.,0.));
#533 = DIRECTION('',(1.,0.));
#534 = ( GEOMETRIC_REPRESENTATION_CONTEXT(2) 
PARAMETRIC_REPRESENTATION_CONTEXT() REPRESENTATION_CONTEXT('2D SPACE',''
  ) );
#535 = ORIENTED_EDGE('',*,*,#486,.F.);
#536 = ORIENTED_EDGE('',*,*,#94,.F.);
#537 = ORIENTED_EDGE('',*,*,#396,.F.);
#538 = ORIENTED_EDGE('',*,*,#539,.F.);
#539 = EDGE_CURVE('',#540,#397,#542,.T.);
#540 = VERTEX_POINT('',#541);
#541 = CARTESIAN_POINT('',(-10.39230484541,1.27269028647E-15,
    19.272031077731));
#542 = SURFACE_CURVE('',#543,(#548,#564),.PCURVE_S1.);
#543 = HYPERBOLA('',#544,9.818181818182,9.);
#544 = AXIS2_PLACEMENT_3D('',#545,#546,#547);
#545 = CARTESIAN_POINT('',(-7.79422863406,4.5,30.609090909091));
#546 = DIRECTION('',(0.866025403784,-0.5,0.));
#547 = DIRECTION('',(0.,-0.,-1.));
#548 = PCURVE('',#111,#549);
#549 = DEFINITIONAL_REPRESENTATION('',(#550),#563);
#550 = B_SPLINE_CURVE_WITH_KNOTS('',6,(#551,#552,#553,#554,#555,#556,
    #557,#558,#559,#560,#561,#562),.UNSPECIFIED.,.F.,.F.,(7,5,7),(
    -0.646774826402,-1.110223024625E-16,0.646774826402),.UNSPECIFIED.);
#551 = CARTESIAN_POINT('',(-3.223884996831,-3.764757213233));
#552 = CARTESIAN_POINT('',(-3.135277391435,-4.498009703666));
#553 = CARTESIAN_POINT('',(-3.04014248834,-5.064711523649));
#554 = CARTESIAN_POINT('',(-2.939131200637,-5.480197833096));
#555 = CARTESIAN_POINT('',(-2.833584663673,-5.754004964074));
#556 = CARTESIAN_POINT('',(-2.725789682392,-5.890909090909));
#557 = CARTESIAN_POINT('',(-2.510198073591,-5.890909090909));
#558 = CARTESIAN_POINT('',(-2.40240309231,-5.754004964074));
#559 = CARTESIAN_POINT('',(-2.296856555346,-5.480197833096));
#560 = CARTESIAN_POINT('',(-2.195845267643,-5.064711523649));
#561 = CARTESIAN_POINT('',(-2.100710364548,-4.498009703666));
#562 = CARTESIAN_POINT('',(-2.012102759152,-3.764757213233));
#563 = ( GEOMETRIC_REPRESENTATION_CONTEXT(2) 
PARAMETRIC_REPRESENTATION_CONTEXT() REPRESENTATION_CONTEXT('2D SPACE',''
  ) );
#564 = PCURVE('',#348,#565);
#565 = DEFINITIONAL_REPRESENTATION('',(#566),#570);
#566 = HYPERBOLA('',#567,9.818181818182,9.);
#567 = AXIS2_PLACEMENT_2D('',#568,#569);
#568 = CARTESIAN_POINT('',(5.196152422707,-15.70909090909));
#569 = DIRECTION('',(-0.,1.));
#570 = ( GEOMETRIC_REPRESENTATION_CONTEXT(2) 
PARAMETRIC_REPRESENTATION_CONTEXT() REPRESENTATION_CONTEXT('2D SPACE',''
  ) );
#571 = ORIENTED_EDGE('',*,*,#572,.F.);
#572 = EDGE_CURVE('',#573,#540,#575,.T.);
#573 = VERTEX_POINT('',#574);
#574 = CARTESIAN_POINT('',(-5.196152422707,-9.,19.272031077731));
#575 = SURFACE_CURVE('',#576,(#581,#597),.PCURVE_S1.);
#576 = HYPERBOLA('',#577,9.818181818182,9.);
#577 = AXIS2_PLACEMENT_3D('',#578,#579,#580);
#578 = CARTESIAN_POINT('',(-7.79422863406,-4.5,30.609090909091));
#579 = DIRECTION('',(0.866025403784,0.5,0.));
#580 = DIRECTION('',(0.,-0.,-1.));
#581 = PCURVE('',#111,#582);
#582 = DEFINITIONAL_REPRESENTATION('',(#583),#596);
#583 = B_SPLINE_CURVE_WITH_KNOTS('',6,(#584,#585,#586,#587,#588,#589,
    #590,#591,#592,#593,#594,#595),.UNSPECIFIED.,.F.,.F.,(7,5,7),(
    -0.646774826402,-1.110223024625E-16,0.646774826402),.UNSPECIFIED.);
#584 = CARTESIAN_POINT('',(-4.271082548027,-3.764757213233));
#585 = CARTESIAN_POINT('',(-4.182474942631,-4.498009703666));
#586 = CARTESIAN_POINT('',(-4.087340039537,-5.064711523649));
#587 = CARTESIAN_POINT('',(-3.986328751833,-5.480197833096));
#588 = CARTESIAN_POINT('',(-3.880782214869,-5.754004964074));
#589 = CARTESIAN_POINT('',(-3.772987233588,-5.890909090909));
#590 = CARTESIAN_POINT('',(-3.557395624788,-5.890909090909));
#591 = CARTESIAN_POINT('',(-3.449600643507,-5.754004964074));
#592 = CARTESIAN_POINT('',(-3.344054106543,-5.480197833096));
#593 = CARTESIAN_POINT('',(-3.243042818839,-5.064711523649));
#594 = CARTESIAN_POINT('',(-3.147907915745,-4.498009703666));
#595 = CARTESIAN_POINT('',(-3.059300310349,-3.764757213233));
#596 = ( GEOMETRIC_REPRESENTATION_CONTEXT(2) 
PARAMETRIC_REPRESENTATION_CONTEXT() REPRESENTATION_CONTEXT('2D SPACE',''
  ) );
#597 = PCURVE('',#310,#598);
#598 = DEFINITIONAL_REPRESENTATION('',(#599),#603);
#599 = HYPERBOLA('',#600,9.818181818182,9.);
#600 = AXIS2_PLACEMENT_2D('',#601,#602);
#601 = CARTESIAN_POINT('',(5.196152422707,-15.70909090909));
#602 = DIRECTION('',(0.,1.));
#603 = ( GEOMETRIC_REPRESENTATION_CONTEXT(2) 
PARAMETRIC_REPRESENTATION_CONTEXT() REPRESENTATION_CONTEXT('2D SPACE',''
  ) );
#604 = ORIENTED_EDGE('',*,*,#605,.F.);
#605 = EDGE_CURVE('',#454,#573,#606,.T.);
#606 = SURFACE_CURVE('',#607,(#612,#628),.PCURVE_S1.);
#607 = HYPERBOLA('',#608,9.818181818182,9.);
#608 = AXIS2_PLACEMENT_3D('',#609,#610,#611);
#609 = CARTESIAN_POINT('',(-6.153480596427E-15,-9.,30.609090909091));
#610 = DIRECTION('',(6.837200662697E-16,1.,0.));
#611 = DIRECTION('',(0.,-0.,-1.));
#612 = PCURVE('',#111,#613);
#613 = DEFINITIONAL_REPRESENTATION('',(#614),#627);
#614 = B_SPLINE_CURVE_WITH_KNOTS('',6,(#615,#616,#617,#618,#619,#620,
    #621,#622,#623,#624,#625,#626),.UNSPECIFIED.,.F.,.F.,(7,5,7),(
    -0.646774826402,-1.110223024625E-16,0.646774826402),.UNSPECIFIED.);
#615 = CARTESIAN_POINT('',(-5.318280099224,-3.764757213233));
#616 = CARTESIAN_POINT('',(-5.229672493828,-4.498009703666));
#617 = CARTESIAN_POINT('',(-5.134537590733,-5.064711523649));
#618 = CARTESIAN_POINT('',(-5.03352630303,-5.480197833096));
#619 = CARTESIAN_POINT('',(-4.927979766066,-5.754004964074));
#620 = CARTESIAN_POINT('',(-4.820184784785,-5.890909090909));
#621 = CARTESIAN_POINT('',(-4.604593175984,-5.890909090909));
#622 = CARTESIAN_POINT('',(-4.496798194703,-5.754004964074));
#623 = CARTESIAN_POINT('',(-4.391251657739,-5.480197833096));
#624 = CARTESIAN_POINT('',(-4.290240370036,-5.064711523649));
#625 = CARTESIAN_POINT('',(-4.195105466941,-4.498009703666));
#626 = CARTESIAN_POINT('',(-4.106497861545,-3.764757213233));
#627 = ( GEOMETRIC_REPRESENTATION_CONTEXT(2) 
PARAMETRIC_REPRESENTATION_CONTEXT() REPRESENTATION_CONTEXT('2D SPACE',''
  ) );
#628 = PCURVE('',#272,#629);
#629 = DEFINITIONAL_REPRESENTATION('',(#630),#634);
#630 = HYPERBOLA('',#631,9.818181818182,9.);
#631 = AXIS2_PLACEMENT_2D('',#632,#633);
#632 = CARTESIAN_POINT('',(5.196152422707,-15.70909090909));
#633 = DIRECTION('',(0.,1.));
#634 = ( GEOMETRIC_REPRESENTATION_CONTEXT(2) 
PARAMETRIC_REPRESENTATION_CONTEXT() REPRESENTATION_CONTEXT('2D SPACE',''
  ) );
#635 = ADVANCED_FACE('',(#636),#82,.F.);
#636 = FACE_BOUND('',#637,.F.);
#637 = EDGE_LOOP('',(#638,#639,#660,#661));
#638 = ORIENTED_EDGE('',*,*,#213,.F.);
#639 = ORIENTED_EDGE('',*,*,#640,.T.);
#640 = EDGE_CURVE('',#214,#454,#641,.T.);
#641 = SURFACE_CURVE('',#642,(#646,#653),.PCURVE_S1.);
#642 = LINE('',#643,#644);
#643 = CARTESIAN_POINT('',(5.196152422707,-9.,14.9));
#644 = VECTOR('',#645,1.);
#645 = DIRECTION('',(0.,0.,1.));
#646 = PCURVE('',#82,#647);
#647 = DEFINITIONAL_REPRESENTATION('',(#648),#652);
#648 = LINE('',#649,#650);
#649 = CARTESIAN_POINT('',(0.,0.));
#650 = VECTOR('',#651,1.);
#651 = DIRECTION('',(0.,-1.));
#652 = ( GEOMETRIC_REPRESENTATION_CONTEXT(2) 
PARAMETRIC_REPRESENTATION_CONTEXT() REPRESENTATION_CONTEXT('2D SPACE',''
  ) );
#653 = PCURVE('',#272,#654);
#654 = DEFINITIONAL_REPRESENTATION('',(#655),#659);
#655 = LINE('',#656,#657);
#656 = CARTESIAN_POINT('',(10.392304845413,0.));
#657 = VECTOR('',#658,1.);
#658 = DIRECTION('',(0.,-1.));
#659 = ( GEOMETRIC_REPRESENTATION_CONTEXT(2) 
PARAMETRIC_REPRESENTATION_CONTEXT() REPRESENTATION_CONTEXT('2D SPACE',''
  ) );
#660 = ORIENTED_EDGE('',*,*,#453,.F.);
#661 = ORIENTED_EDGE('',*,*,#66,.F.);
#662 = ADVANCED_FACE('',(#663),#348,.F.);
#663 = FACE_BOUND('',#664,.F.);
#664 = EDGE_LOOP('',(#665,#666,#667,#668));
#665 = ORIENTED_EDGE('',*,*,#322,.F.);
#666 = ORIENTED_EDGE('',*,*,#429,.T.);
#667 = ORIENTED_EDGE('',*,*,#539,.F.);
#668 = ORIENTED_EDGE('',*,*,#669,.F.);
#669 = EDGE_CURVE('',#285,#540,#670,.T.);
#670 = SURFACE_CURVE('',#671,(#675,#682),.PCURVE_S1.);
#671 = LINE('',#672,#673);
#672 = CARTESIAN_POINT('',(-10.39230484541,1.27269028647E-15,14.9));
#673 = VECTOR('',#674,1.);
#674 = DIRECTION('',(0.,0.,1.));
#675 = PCURVE('',#348,#676);
#676 = DEFINITIONAL_REPRESENTATION('',(#677),#681);
#677 = LINE('',#678,#679);
#678 = CARTESIAN_POINT('',(10.392304845413,0.));
#679 = VECTOR('',#680,1.);
#680 = DIRECTION('',(0.,-1.));
#681 = ( GEOMETRIC_REPRESENTATION_CONTEXT(2) 
PARAMETRIC_REPRESENTATION_CONTEXT() REPRESENTATION_CONTEXT('2D SPACE',''
  ) );
#682 = PCURVE('',#310,#683);
#683 = DEFINITIONAL_REPRESENTATION('',(#684),#688);
#684 = LINE('',#685,#686);
#685 = CARTESIAN_POINT('',(0.,0.));
#686 = VECTOR('',#687,1.);
#687 = DIRECTION('',(0.,-1.));
#688 = ( GEOMETRIC_REPRESENTATION_CONTEXT(2) 
PARAMETRIC_REPRESENTATION_CONTEXT() REPRESENTATION_CONTEXT('2D SPACE',''
  ) );
#689 = ADVANCED_FACE('',(#690),#310,.F.);
#690 = FACE_BOUND('',#691,.F.);
#691 = EDGE_LOOP('',(#692,#693,#694,#695));
#692 = ORIENTED_EDGE('',*,*,#284,.F.);
#693 = ORIENTED_EDGE('',*,*,#669,.T.);
#694 = ORIENTED_EDGE('',*,*,#572,.F.);
#695 = ORIENTED_EDGE('',*,*,#696,.F.);
#696 = EDGE_CURVE('',#247,#573,#697,.T.);
#697 = SURFACE_CURVE('',#698,(#702,#709),.PCURVE_S1.);
#698 = LINE('',#699,#700);
#699 = CARTESIAN_POINT('',(-5.196152422707,-9.,14.9));
#700 = VECTOR('',#701,1.);
#701 = DIRECTION('',(0.,0.,1.));
#702 = PCURVE('',#310,#703);
#703 = DEFINITIONAL_REPRESENTATION('',(#704),#708);
#704 = LINE('',#705,#706);
#705 = CARTESIAN_POINT('',(10.392304845413,0.));
#706 = VECTOR('',#707,1.);
#707 = DIRECTION('',(0.,-1.));
#708 = ( GEOMETRIC_REPRESENTATION_CONTEXT(2) 
PARAMETRIC_REPRESENTATION_CONTEXT() REPRESENTATION_CONTEXT('2D SPACE',''
  ) );
#709 = PCURVE('',#272,#710);
#710 = DEFINITIONAL_REPRESENTATION('',(#711),#715);
#711 = LINE('',#712,#713);
#712 = CARTESIAN_POINT('',(0.,0.));
#713 = VECTOR('',#714,1.);
#714 = DIRECTION('',(0.,-1.));
#715 = ( GEOMETRIC_REPRESENTATION_CONTEXT(2) 
PARAMETRIC_REPRESENTATION_CONTEXT() REPRESENTATION_CONTEXT('2D SPACE',''
  ) );
#716 = ADVANCED_FACE('',(#717),#272,.F.);
#717 = FACE_BOUND('',#718,.F.);
#718 = EDGE_LOOP('',(#719,#720,#721,#722));
#719 = ORIENTED_EDGE('',*,*,#246,.F.);
#720 = ORIENTED_EDGE('',*,*,#696,.T.);
#721 = ORIENTED_EDGE('',*,*,#605,.F.);
#722 = ORIENTED_EDGE('',*,*,#640,.F.);
#723 = ADVANCED_FACE('',(#724,#727),#200,.F.);
#724 = FACE_BOUND('',#725,.F.);
#725 = EDGE_LOOP('',(#726));
#726 = ORIENTED_EDGE('',*,*,#185,.T.);
#727 = FACE_BOUND('',#728,.F.);
#728 = EDGE_LOOP('',(#729));
#729 = ORIENTED_EDGE('',*,*,#730,.F.);
#730 = EDGE_CURVE('',#731,#731,#733,.T.);
#731 = VERTEX_POINT('',#732);
#732 = CARTESIAN_POINT('',(6.,-1.469576158977E-15,14.9));
#733 = SURFACE_CURVE('',#734,(#739,#746),.PCURVE_S1.);
#734 = CIRCLE('',#735,6.);
#735 = AXIS2_PLACEMENT_3D('',#736,#737,#738);
#736 = CARTESIAN_POINT('',(0.,0.,14.9));
#737 = DIRECTION('',(0.,0.,1.));
#738 = DIRECTION('',(1.,0.,-0.));
#739 = PCURVE('',#200,#740);
#740 = DEFINITIONAL_REPRESENTATION('',(#741),#745);
#741 = CIRCLE('',#742,6.);
#742 = AXIS2_PLACEMENT_2D('',#743,#744);
#743 = CARTESIAN_POINT('',(0.,0.));
#744 = DIRECTION('',(1.,0.));
#745 = ( GEOMETRIC_REPRESENTATION_CONTEXT(2) 
PARAMETRIC_REPRESENTATION_CONTEXT() REPRESENTATION_CONTEXT('2D SPACE',''
  ) );
#746 = PCURVE('',#747,#752);
#747 = CYLINDRICAL_SURFACE('',#748,6.);
#748 = AXIS2_PLACEMENT_3D('',#749,#750,#751);
#749 = CARTESIAN_POINT('',(0.,0.,13.9));
#750 = DIRECTION('',(0.,0.,1.));
#751 = DIRECTION('',(1.,0.,-0.));
#752 = DEFINITIONAL_REPRESENTATION('',(#753),#757);
#753 = LINE('',#754,#755);
#754 = CARTESIAN_POINT('',(0.,1.));
#755 = VECTOR('',#756,1.);
#756 = DIRECTION('',(1.,0.));
#757 = ( GEOMETRIC_REPRESENTATION_CONTEXT(2) 
PARAMETRIC_REPRESENTATION_CONTEXT() REPRESENTATION_CONTEXT('2D SPACE',''
  ) );
#758 = ADVANCED_FACE('',(#759,#762),#524,.T.);
#759 = FACE_BOUND('',#760,.T.);
#760 = EDGE_LOOP('',(#761));
#761 = ORIENTED_EDGE('',*,*,#509,.T.);
#762 = FACE_BOUND('',#763,.T.);
#763 = EDGE_LOOP('',(#764));
#764 = ORIENTED_EDGE('',*,*,#765,.F.);
#765 = EDGE_CURVE('',#766,#766,#768,.T.);
#766 = VERTEX_POINT('',#767);
#767 = CARTESIAN_POINT('',(6.,-1.469576158977E-15,20.9));
#768 = SURFACE_CURVE('',#769,(#774,#781),.PCURVE_S1.);
#769 = CIRCLE('',#770,6.);
#770 = AXIS2_PLACEMENT_3D('',#771,#772,#773);
#771 = CARTESIAN_POINT('',(0.,0.,20.9));
#772 = DIRECTION('',(0.,0.,1.));
#773 = DIRECTION('',(1.,0.,-0.));
#774 = PCURVE('',#524,#775);
#775 = DEFINITIONAL_REPRESENTATION('',(#776),#780);
#776 = CIRCLE('',#777,6.);
#777 = AXIS2_PLACEMENT_2D('',#778,#779);
#778 = CARTESIAN_POINT('',(0.,0.));
#779 = DIRECTION('',(1.,0.));
#780 = ( GEOMETRIC_REPRESENTATION_CONTEXT(2) 
PARAMETRIC_REPRESENTATION_CONTEXT() REPRESENTATION_CONTEXT('2D SPACE',''
  ) );
#781 = PCURVE('',#747,#782);
#782 = DEFINITIONAL_REPRESENTATION('',(#783),#787);
#783 = LINE('',#784,#785);
#784 = CARTESIAN_POINT('',(0.,7.));
#785 = VECTOR('',#786,1.);
#786 = DIRECTION('',(1.,0.));
#787 = ( GEOMETRIC_REPRESENTATION_CONTEXT(2) 
PARAMETRIC_REPRESENTATION_CONTEXT() REPRESENTATION_CONTEXT('2D SPACE',''
  ) );
#788 = ADVANCED_FACE('',(#789),#747,.F.);
#789 = FACE_BOUND('',#790,.F.);
#790 = EDGE_LOOP('',(#791,#792,#813,#814));
#791 = ORIENTED_EDGE('',*,*,#765,.F.);
#792 = ORIENTED_EDGE('',*,*,#793,.F.);
#793 = EDGE_CURVE('',#731,#766,#794,.T.);
#794 = SEAM_CURVE('',#795,(#799,#806),.PCURVE_S1.);
#795 = LINE('',#796,#797);
#796 = CARTESIAN_POINT('',(6.,-1.469576158977E-15,13.9));
#797 = VECTOR('',#798,1.);
#798 = DIRECTION('',(0.,0.,1.));
#799 = PCURVE('',#747,#800);
#800 = DEFINITIONAL_REPRESENTATION('',(#801),#805);
#801 = LINE('',#802,#803);
#802 = CARTESIAN_POINT('',(6.28318530718,-0.));
#803 = VECTOR('',#804,1.);
#804 = DIRECTION('',(0.,1.));
#805 = ( GEOMETRIC_REPRESENTATION_CONTEXT(2) 
PARAMETRIC_REPRESENTATION_CONTEXT() REPRESENTATION_CONTEXT('2D SPACE',''
  ) );
#806 = PCURVE('',#747,#807);
#807 = DEFINITIONAL_REPRESENTATION('',(#808),#812);
#808 = LINE('',#809,#810);
#809 = CARTESIAN_POINT('',(0.,-0.));
#810 = VECTOR('',#811,1.);
#811 = DIRECTION('',(0.,1.));
#812 = ( GEOMETRIC_REPRESENTATION_CONTEXT(2) 
PARAMETRIC_REPRESENTATION_CONTEXT() REPRESENTATION_CONTEXT('2D SPACE',''
  ) );
#813 = ORIENTED_EDGE('',*,*,#730,.T.);
#814 = ORIENTED_EDGE('',*,*,#793,.T.);
#815 = ( GEOMETRIC_REPRESENTATION_CONTEXT(3) 
GLOBAL_UNCERTAINTY_ASSIGNED_CONTEXT((#819)) GLOBAL_UNIT_ASSIGNED_CONTEXT
((#816,#817,#818)) REPRESENTATION_CONTEXT('Context #1',
  '3D Context with UNIT and UNCERTAINTY') );
#816 = ( LENGTH_UNIT() NAMED_UNIT(*) SI_UNIT(.MILLI.,.METRE.) );
#817 = ( NAMED_UNIT(*) PLANE_ANGLE_UNIT() SI_UNIT($,.RADIAN.) );
#818 = ( NAMED_UNIT(*) SI_UNIT($,.STERADIAN.) SOLID_ANGLE_UNIT() );
#819 = UNCERTAINTY_MEASURE_WITH_UNIT(LENGTH_MEASURE(2.E-07),#816,
  'distance_accuracy_value','confusion accuracy');
#820 = PRODUCT_RELATED_PRODUCT_CATEGORY('part',$,(#7));
ENDSEC;
END-ISO-10303-21;
