ISO-10303-21;
HEADER;
FILE_DESCRIPTION(('Open CASCADE Model'),'2;1');
FILE_NAME('Open CASCADE Shape Model','2026-09-23T09:50:26',('Author'),(
    'Open CASCADE'),'Open CASCADE STEP processor 7.9','Open CASCADE 7.9'
  ,'Unknown');
FILE_SCHEMA(('AUTOMOTIVE_DESIGN { 1 0 10303 214 1 1 1 1 }'));
ENDSEC;
DATA;
#1 = APPLICATION_PROTOCOL_DEFINITION('international standard',
  'automotive_design',2000,#2);
#2 = APPLICATION_CONTEXT(
  'core data for automotive mechanical design processes');
#3 = SHAPE_DEFINITION_REPRESENTATION(#4,#10);
#4 = PRODUCT_DEFINITION_SHAPE('','',#5);
#5 = PRODUCT_DEFINITION('design','',#6,#9);
#6 = PRODUCT_DEFINITION_FORMATION('','',#7);
#7 = PRODUCT('Open CASCADE STEP translator 7.9 83',
  'Open CASCADE STEP translator 7.9 83','',(#8));
#8 = PRODUCT_CONTEXT('',#2,'mechanical');
#9 = PRODUCT_DEFINITION_CONTEXT('part definition',#2,'design');
#10 = ADVANCED_BREP_SHAPE_REPRESENTATION('',(#11,#15),#508);
#11 = AXIS2_PLACEMENT_3D('',#12,#13,#14);
#12 = CARTESIAN_POINT('',(0.,0.,0.));
#13 = DIRECTION('',(0.,0.,1.));
#14 = DIRECTION('',(1.,0.,-0.));
#15 = MANIFOLD_SOLID_BREP('',#16);
#16 = CLOSED_SHELL('',(#17,#356,#382,#409,#414,#449,#504));
#17 = ADVANCED_FACE('',(#18),#33,.T.);
#18 = FACE_BOUND('',#19,.T.);
#19 = EDGE_LOOP('',(#20,#51,#78,#79,#142,#171,#276,#300));
#20 = ORIENTED_EDGE('',*,*,#21,.T.);
#21 = EDGE_CURVE('',#22,#24,#26,.T.);
#22 = VERTEX_POINT('',#23);
#23 = CARTESIAN_POINT('',(61.9,-72.07179616131,233.));
#24 = VERTEX_POINT('',#25);
#25 = CARTESIAN_POINT('',(64.25,-70.,233.));
#26 = SEAM_CURVE('',#27,(#32,#44),.PCURVE_S1.);
#27 = CIRCLE('',#28,2.850595238095);
#28 = AXIS2_PLACEMENT_3D('',#29,#30,#31);
#29 = CARTESIAN_POINT('',(61.5,-69.2494047619,233.));
#30 = DIRECTION('',(-2.449293598295E-16,-1.110223024625E-16,1.));
#31 = DIRECTION('',(1.,-2.719262146894E-32,2.449293598295E-16));
#32 = PCURVE('',#33,#38);
#33 = SPHERICAL_SURFACE('',#34,2.850595238095);
#34 = AXIS2_PLACEMENT_3D('',#35,#36,#37);
#35 = CARTESIAN_POINT('',(61.5,-69.2494047619,233.));
#36 = DIRECTION('',(0.,1.,1.110223024625E-16));
#37 = DIRECTION('',(1.,0.,0.));
#38 = DEFINITIONAL_REPRESENTATION('',(#39),#43);
#39 = LINE('',#40,#41);
#40 = CARTESIAN_POINT('',(6.28318530718,-6.28318530718));
#41 = VECTOR('',#42,1.);
#42 = DIRECTION('',(0.,1.));
#43 = ( GEOMETRIC_REPRESENTATION_CONTEXT(2) 
PARAMETRIC_REPRESENTATION_CONTEXT() REPRESENTATION_CONTEXT('2D SPACE',''
  ) );
#44 = PCURVE('',#33,#45);
#45 = DEFINITIONAL_REPRESENTATION('',(#46),#50);
#46 = LINE('',#47,#48);
#47 = CARTESIAN_POINT('',(0.,-6.28318530718));
#48 = VECTOR('',#49,1.);
#49 = DIRECTION('',(0.,1.));
#50 = ( GEOMETRIC_REPRESENTATION_CONTEXT(2) 
PARAMETRIC_REPRESENTATION_CONTEXT() REPRESENTATION_CONTEXT('2D SPACE',''
  ) );
#51 = ORIENTED_EDGE('',*,*,#52,.F.);
#52 = EDGE_CURVE('',#24,#24,#53,.T.);
#53 = SURFACE_CURVE('',#54,(#59,#66),.PCURVE_S1.);
#54 = CIRCLE('',#55,2.75);
#55 = AXIS2_PLACEMENT_3D('',#56,#57,#58);
#56 = CARTESIAN_POINT('',(61.5,-70.,233.));
#57 = DIRECTION('',(-0.,1.,1.110223024625E-16));
#58 = DIRECTION('',(1.,0.,0.));
#59 = PCURVE('',#33,#60);
#60 = DEFINITIONAL_REPRESENTATION('',(#61),#65);
#61 = LINE('',#62,#63);
#62 = CARTESIAN_POINT('',(0.,-0.266453503281));
#63 = VECTOR('',#64,1.);
#64 = DIRECTION('',(1.,0.));
#65 = ( GEOMETRIC_REPRESENTATION_CONTEXT(2) 
PARAMETRIC_REPRESENTATION_CONTEXT() REPRESENTATION_CONTEXT('2D SPACE',''
  ) );
#66 = PCURVE('',#67,#72);
#67 = PLANE('',#68);
#68 = AXIS2_PLACEMENT_3D('',#69,#70,#71);
#69 = CARTESIAN_POINT('',(61.5,-70.,233.));
#70 = DIRECTION('',(0.,1.,1.110223024625E-16));
#71 = DIRECTION('',(1.,0.,0.));
#72 = DEFINITIONAL_REPRESENTATION('',(#73),#77);
#73 = CIRCLE('',#74,2.75);
#74 = AXIS2_PLACEMENT_2D('',#75,#76);
#75 = CARTESIAN_POINT('',(0.,0.));
#76 = DIRECTION('',(1.,0.));
#77 = ( GEOMETRIC_REPRESENTATION_CONTEXT(2) 
PARAMETRIC_REPRESENTATION_CONTEXT() REPRESENTATION_CONTEXT('2D SPACE',''
  ) );
#78 = ORIENTED_EDGE('',*,*,#21,.F.);
#79 = ORIENTED_EDGE('',*,*,#80,.T.);
#80 = EDGE_CURVE('',#22,#81,#83,.T.);
#81 = VERTEX_POINT('',#82);
#82 = CARTESIAN_POINT('',(61.9,-71.1,230.86899308396));
#83 = SURFACE_CURVE('',#84,(#89,#130),.PCURVE_S1.);
#84 = CIRCLE('',#85,2.822391399408);
#85 = AXIS2_PLACEMENT_3D('',#86,#87,#88);
#86 = CARTESIAN_POINT('',(61.9,-69.2494047619,233.));
#87 = DIRECTION('',(1.,0.,-0.));
#88 = DIRECTION('',(0.,1.,1.110223024625E-16));
#89 = PCURVE('',#33,#90);
#90 = DEFINITIONAL_REPRESENTATION('',(#91),#129);
#91 = B_SPLINE_CURVE_WITH_KNOTS('',8,(#92,#93,#94,#95,#96,#97,#98,#99,
    #100,#101,#102,#103,#104,#105,#106,#107,#108,#109,#110,#111,#112,
    #113,#114,#115,#116,#117,#118,#119,#120,#121,#122,#123,#124,#125,
    #126,#127,#128),.UNSPECIFIED.,.F.,.F.,(9,7,7,7,7,9),(3.14159265359,
    3.195074460845,3.295352849448,3.470840029503,3.734070799587,
    3.99730156967),.UNSPECIFIED.);
#92 = CARTESIAN_POINT('',(-8.881784197001E-16,-1.430010135873));
#93 = CARTESIAN_POINT('',(4.717081025666E-02,-1.430010135873));
#94 = CARTESIAN_POINT('',(9.434145710366E-02,-1.429649756463));
#95 = CARTESIAN_POINT('',(0.141189741225,-1.428928912887));
#96 = CARTESIAN_POINT('',(0.187390634959,-1.427852912874));
#97 = CARTESIAN_POINT('',(0.232650856383,-1.426432042076));
#98 = CARTESIAN_POINT('',(0.276730208035,-1.424680715318));
#99 = CARTESIAN_POINT('',(0.319449680282,-1.422616193666));
#100 = CARTESIAN_POINT('',(0.438005017495,-1.415833130389));
#101 = CARTESIAN_POINT('',(0.510110563468,-1.410373049197));
#102 = CARTESIAN_POINT('',(0.57618930654,-1.403998324108));
#103 = CARTESIAN_POINT('',(0.636123790756,-1.396848380474));
#104 = CARTESIAN_POINT('',(0.690356918445,-1.389048910454));
#105 = CARTESIAN_POINT('',(0.739404266851,-1.380702654486));
#106 = CARTESIAN_POINT('',(0.783826917399,-1.371894811841));
#107 = CARTESIAN_POINT('',(0.894700799563,-1.34659445366));
#108 = CARTESIAN_POINT('',(0.952685503496,-1.329292833055));
#109 = CARTESIAN_POINT('',(1.000901776005,-1.31116206656));
#110 = CARTESIAN_POINT('',(1.041809596741,-1.292426776419));
#111 = CARTESIAN_POINT('',(1.076896839438,-1.273227358364));
#112 = CARTESIAN_POINT('',(1.107377207491,-1.253665561806));
#113 = CARTESIAN_POINT('',(1.134089303012,-1.233812454227));
#114 = CARTESIAN_POINT('',(1.193101683663,-1.183585835326));
#115 = CARTESIAN_POINT('',(1.221516691886,-1.152915358243));
#116 = CARTESIAN_POINT('',(1.245151290897,-1.121890931096));
#117 = CARTESIAN_POINT('',(1.265181495974,-1.090600977607));
#118 = CARTESIAN_POINT('',(1.282420776638,-1.059108525256));
#119 = CARTESIAN_POINT('',(1.297420954785,-1.027454308025));
#120 = CARTESIAN_POINT('',(1.310594287962,-0.995669397228));
#121 = CARTESIAN_POINT('',(1.333904036259,-0.931883920068));
#122 = CARTESIAN_POINT('',(1.344040911885,-0.899883398879));
#123 = CARTESIAN_POINT('',(1.352966858492,-0.867797922821));
#124 = CARTESIAN_POINT('',(1.360894480557,-0.835643219327));
#125 = CARTESIAN_POINT('',(1.367977979976,-0.80343068318));
#126 = CARTESIAN_POINT('',(1.374337204525,-0.771169210905));
#127 = CARTESIAN_POINT('',(1.380069682354,-0.738866101885));
#128 = CARTESIAN_POINT('',(1.385250642497,-0.706527026207));
#129 = ( GEOMETRIC_REPRESENTATION_CONTEXT(2) 
PARAMETRIC_REPRESENTATION_CONTEXT() REPRESENTATION_CONTEXT('2D SPACE',''
  ) );
#130 = PCURVE('',#131,#136);
#131 = PLANE('',#132);
#132 = AXIS2_PLACEMENT_3D('',#133,#134,#135);
#133 = CARTESIAN_POINT('',(61.9,-73.1,238.5));
#134 = DIRECTION('',(1.,0.,0.));
#135 = DIRECTION('',(0.,1.,1.110223024625E-16));
#136 = DEFINITIONAL_REPRESENTATION('',(#137),#141);
#137 = CIRCLE('',#138,2.822391399408);
#138 = AXIS2_PLACEMENT_2D('',#139,#140);
#139 = CARTESIAN_POINT('',(3.850595238095,-5.5));
#140 = DIRECTION('',(1.,0.));
#141 = ( GEOMETRIC_REPRESENTATION_CONTEXT(2) 
PARAMETRIC_REPRESENTATION_CONTEXT() REPRESENTATION_CONTEXT('2D SPACE',''
  ) );
#142 = ORIENTED_EDGE('',*,*,#143,.T.);
#143 = EDGE_CURVE('',#81,#144,#146,.T.);
#144 = VERTEX_POINT('',#145);
#145 = CARTESIAN_POINT('',(61.1,-71.1,230.86899308396));
#146 = SURFACE_CURVE('',#147,(#152,#159),.PCURVE_S1.);
#147 = CIRCLE('',#148,2.168222884343);
#148 = AXIS2_PLACEMENT_3D('',#149,#150,#151);
#149 = CARTESIAN_POINT('',(61.5,-71.1,233.));
#150 = DIRECTION('',(-0.,1.,1.110223024625E-16));
#151 = DIRECTION('',(1.,0.,0.));
#152 = PCURVE('',#33,#153);
#153 = DEFINITIONAL_REPRESENTATION('',(#154),#158);
#154 = LINE('',#155,#156);
#155 = CARTESIAN_POINT('',(0.,-0.706527026207));
#156 = VECTOR('',#157,1.);
#157 = DIRECTION('',(1.,0.));
#158 = ( GEOMETRIC_REPRESENTATION_CONTEXT(2) 
PARAMETRIC_REPRESENTATION_CONTEXT() REPRESENTATION_CONTEXT('2D SPACE',''
  ) );
#159 = PCURVE('',#160,#165);
#160 = PLANE('',#161);
#161 = AXIS2_PLACEMENT_3D('',#162,#163,#164);
#162 = CARTESIAN_POINT('',(61.1,-71.1,238.5));
#163 = DIRECTION('',(0.,1.,1.110223024625E-16));
#164 = DIRECTION('',(1.,0.,0.));
#165 = DEFINITIONAL_REPRESENTATION('',(#166),#170);
#166 = CIRCLE('',#167,2.168222884343);
#167 = AXIS2_PLACEMENT_2D('',#168,#169);
#168 = CARTESIAN_POINT('',(0.4,5.5));
#169 = DIRECTION('',(1.,0.));
#170 = ( GEOMETRIC_REPRESENTATION_CONTEXT(2) 
PARAMETRIC_REPRESENTATION_CONTEXT() REPRESENTATION_CONTEXT('2D SPACE',''
  ) );
#171 = ORIENTED_EDGE('',*,*,#172,.F.);
#172 = EDGE_CURVE('',#173,#144,#175,.T.);
#173 = VERTEX_POINT('',#174);
#174 = CARTESIAN_POINT('',(61.1,-71.1,235.13100691603));
#175 = SURFACE_CURVE('',#176,(#181,#264),.PCURVE_S1.);
#176 = CIRCLE('',#177,2.822391399408);
#177 = AXIS2_PLACEMENT_3D('',#178,#179,#180);
#178 = CARTESIAN_POINT('',(61.1,-69.2494047619,233.));
#179 = DIRECTION('',(1.,0.,-0.));
#180 = DIRECTION('',(0.,1.,1.110223024625E-16));
#181 = PCURVE('',#33,#182);
#182 = DEFINITIONAL_REPRESENTATION('',(#183),#263);
#183 = B_SPLINE_CURVE_WITH_KNOTS('',8,(#184,#185,#186,#187,#188,#189,
    #190,#191,#192,#193,#194,#195,#196,#197,#198,#199,#200,#201,#202,
    #203,#204,#205,#206,#207,#208,#209,#210,#211,#212,#213,#214,#215,
    #216,#217,#218,#219,#220,#221,#222,#223,#224,#225,#226,#227,#228,
    #229,#230,#231,#232,#233,#234,#235,#236,#237,#238,#239,#240,#241,
    #242,#243,#244,#245,#246,#247,#248,#249,#250,#251,#252,#253,#254,
    #255,#256,#257,#258,#259,#260,#261,#262),.UNSPECIFIED.,.F.,.F.,(9,7,
    7,7,7,7,7,7,7,7,7,9),(2.28588373751,2.49981096653,2.686997291922,
    2.850785326641,2.994099857019,3.119500071101,3.174362664761,
    3.277230027875,3.367238970599,3.524754620367,3.761028095018,
    3.99730156967),.UNSPECIFIED.);
#184 = CARTESIAN_POINT('',(4.526843296087,-0.706527026207));
#185 = CARTESIAN_POINT('',(4.522632738003,-0.732808941679));
#186 = CARTESIAN_POINT('',(4.518058059743,-0.759067113626));
#187 = CARTESIAN_POINT('',(4.513078379678,-0.785298458291));
#188 = CARTESIAN_POINT('',(4.50764401027,-0.811499255158));
#189 = CARTESIAN_POINT('',(4.501695363314,-0.837665071069));
#190 = CARTESIAN_POINT('',(4.495159120255,-0.863790473744));
#191 = CARTESIAN_POINT('',(4.487941667594,-0.889868534713));
#192 = CARTESIAN_POINT('',(4.47290066093,-0.938659010218));
#193 = CARTESIAN_POINT('',(4.465265411081,-0.961384640661));
#194 = CARTESIAN_POINT('',(4.456932121316,-0.984060951952));
#195 = CARTESIAN_POINT('',(4.447798709799,-1.006680346855));
#196 = CARTESIAN_POINT('',(4.437741064593,-1.029233593666));
#197 = CARTESIAN_POINT('',(4.42660302964,-1.051709041775));
#198 = CARTESIAN_POINT('',(4.414178251507,-1.074091151035));
#199 = CARTESIAN_POINT('',(4.387938817842,-1.115842120841));
#200 = CARTESIAN_POINT('',(4.374491891604,-1.135237909206));
#201 = CARTESIAN_POINT('',(4.35965271799,-1.154531121964));
#202 = CARTESIAN_POINT('',(4.34318482703,-1.173703645157));
#203 = CARTESIAN_POINT('',(4.324786458461,-1.192731855602));
#204 = CARTESIAN_POINT('',(4.304066837003,-1.211584944408));
#205 = CARTESIAN_POINT('',(4.280498353472,-1.230220503089));
#206 = CARTESIAN_POINT('',(4.229548450273,-1.264633943629));
#207 = CARTESIAN_POINT('',(4.20301205634,-1.280477857386));
#208 = CARTESIAN_POINT('',(4.173207947142,-1.296062950488));
#209 = CARTESIAN_POINT('',(4.139501624806,-1.311333592633));
#210 = CARTESIAN_POINT('',(4.101055477398,-1.326214438417));
#211 = CARTESIAN_POINT('',(4.056833100635,-1.340604764702));
#212 = CARTESIAN_POINT('',(4.005371160878,-1.354355958067));
#213 = CARTESIAN_POINT('',(3.892404634497,-1.378533929228));
#214 = CARTESIAN_POINT('',(3.83295959467,-1.389161283622));
#215 = CARTESIAN_POINT('',(3.765753111515,-1.398988645063));
#216 = CARTESIAN_POINT('',(3.689693531735,-1.407826381786));
#217 = CARTESIAN_POINT('',(3.603915373391,-1.415452426351));
#218 = CARTESIAN_POINT('',(3.50793013428,-1.421559593142));
#219 = CARTESIAN_POINT('',(3.404173314008,-1.425884442919));
#220 = CARTESIAN_POINT('',(3.248991124999,-1.429354781006));
#221 = CARTESIAN_POINT('',(3.200958875298,-1.430045223566));
#222 = CARTESIAN_POINT('',(3.152424243523,-1.430359095029));
#223 = CARTESIAN_POINT('',(3.10373291559,-1.430290234869));
#224 = CARTESIAN_POINT('',(3.055254539261,-1.429838512054));
#225 = CARTESIAN_POINT('',(3.007344510664,-1.429009947785));
#226 = CARTESIAN_POINT('',(2.96030992945,-1.427815844675));
#227 = CARTESIAN_POINT('',(2.828321430716,-1.423374911483));
#228 = CARTESIAN_POINT('',(2.74619901303,-1.41924621418));
#229 = CARTESIAN_POINT('',(2.66967908608,-1.413983662571));
#230 = CARTESIAN_POINT('',(2.599703930689,-1.407733140275));
#231 = CARTESIAN_POINT('',(2.536180768599,-1.400650620865));
#232 = CARTESIAN_POINT('',(2.478705158973,-1.392865759513));
#233 = CARTESIAN_POINT('',(2.426724503517,-1.384489733858));
#234 = CARTESIAN_POINT('',(2.338492534988,-1.367846542984));
#235 = CARTESIAN_POINT('',(2.301087296304,-1.359696658288));
#236 = CARTESIAN_POINT('',(2.267068255562,-1.351224724745));
#237 = CARTESIAN_POINT('',(2.236040761335,-1.34248029513));
#238 = CARTESIAN_POINT('',(2.20765064068,-1.333503071251));
#239 = CARTESIAN_POINT('',(2.181592244321,-1.324325118249));
#240 = CARTESIAN_POINT('',(2.157599003321,-1.314972878835));
#241 = CARTESIAN_POINT('',(2.096668925743,-1.288834964653));
#242 = CARTESIAN_POINT('',(2.063520586944,-1.271735011679));
#243 = CARTESIAN_POINT('',(2.034770387865,-1.25428469066));
#244 = CARTESIAN_POINT('',(2.009541840754,-1.236560174663));
#245 = CARTESIAN_POINT('',(1.987197080172,-1.218613650572));
#246 = CARTESIAN_POINT('',(1.967254538449,-1.200484061075));
#247 = CARTESIAN_POINT('',(1.949336393724,-1.182202381065));
#248 = CARTESIAN_POINT('',(1.908859885872,-1.136174999552));
#249 = CARTESIAN_POINT('',(1.888460396941,-1.108268027082));
#250 = CARTESIAN_POINT('',(1.87094432079,-1.080149383526));
#251 = CARTESIAN_POINT('',(1.855696797587,-1.051865641081));
#252 = CARTESIAN_POINT('',(1.842286704953,-1.023449186284));
#253 = CARTESIAN_POINT('',(1.830389357883,-0.994924437112));
#254 = CARTESIAN_POINT('',(1.819765151206,-0.966309100089));
#255 = CARTESIAN_POINT('',(1.800680811799,-0.908925709752));
#256 = CARTESIAN_POINT('',(1.792220723548,-0.880157647029));
#257 = CARTESIAN_POINT('',(1.784653708658,-0.851327240861));
#258 = CARTESIAN_POINT('',(1.777841846339,-0.8224446954));
#259 = CARTESIAN_POINT('',(1.771680660793,-0.793517742277));
#260 = CARTESIAN_POINT('',(1.766086993831,-0.764552561781));
#261 = CARTESIAN_POINT('',(1.760992392409,-0.735554277752));
#262 = CARTESIAN_POINT('',(1.756342011093,-0.706527026207));
#263 = ( GEOMETRIC_REPRESENTATION_CONTEXT(2) 
PARAMETRIC_REPRESENTATION_CONTEXT() REPRESENTATION_CONTEXT('2D SPACE',''
  ) );
#264 = PCURVE('',#265,#270);
#265 = PLANE('',#266);
#266 = AXIS2_PLACEMENT_3D('',#267,#268,#269);
#267 = CARTESIAN_POINT('',(61.1,-73.1,238.5));
#268 = DIRECTION('',(1.,0.,0.));
#269 = DIRECTION('',(0.,1.,1.110223024625E-16));
#270 = DEFINITIONAL_REPRESENTATION('',(#271),#275);
#271 = CIRCLE('',#272,2.822391399408);
#272 = AXIS2_PLACEMENT_2D('',#273,#274);
#273 = CARTESIAN_POINT('',(3.850595238095,-5.5));
#274 = DIRECTION('',(1.,0.));
#275 = ( GEOMETRIC_REPRESENTATION_CONTEXT(2) 
PARAMETRIC_REPRESENTATION_CONTEXT() REPRESENTATION_CONTEXT('2D SPACE',''
  ) );
#276 = ORIENTED_EDGE('',*,*,#277,.T.);
#277 = EDGE_CURVE('',#173,#278,#280,.T.);
#278 = VERTEX_POINT('',#279);
#279 = CARTESIAN_POINT('',(61.9,-71.1,235.13100691603));
#280 = SURFACE_CURVE('',#281,(#286,#293),.PCURVE_S1.);
#281 = CIRCLE('',#282,2.168222884343);
#282 = AXIS2_PLACEMENT_3D('',#283,#284,#285);
#283 = CARTESIAN_POINT('',(61.5,-71.1,233.));
#284 = DIRECTION('',(-0.,1.,1.110223024625E-16));
#285 = DIRECTION('',(1.,0.,0.));
#286 = PCURVE('',#33,#287);
#287 = DEFINITIONAL_REPRESENTATION('',(#288),#292);
#288 = LINE('',#289,#290);
#289 = CARTESIAN_POINT('',(0.,-0.706527026207));
#290 = VECTOR('',#291,1.);
#291 = DIRECTION('',(1.,0.));
#292 = ( GEOMETRIC_REPRESENTATION_CONTEXT(2) 
PARAMETRIC_REPRESENTATION_CONTEXT() REPRESENTATION_CONTEXT('2D SPACE',''
  ) );
#293 = PCURVE('',#160,#294);
#294 = DEFINITIONAL_REPRESENTATION('',(#295),#299);
#295 = CIRCLE('',#296,2.168222884343);
#296 = AXIS2_PLACEMENT_2D('',#297,#298);
#297 = CARTESIAN_POINT('',(0.4,5.5));
#298 = DIRECTION('',(1.,0.));
#299 = ( GEOMETRIC_REPRESENTATION_CONTEXT(2) 
PARAMETRIC_REPRESENTATION_CONTEXT() REPRESENTATION_CONTEXT('2D SPACE',''
  ) );
#300 = ORIENTED_EDGE('',*,*,#301,.T.);
#301 = EDGE_CURVE('',#278,#22,#302,.T.);
#302 = SURFACE_CURVE('',#303,(#308,#349),.PCURVE_S1.);
#303 = CIRCLE('',#304,2.822391399408);
#304 = AXIS2_PLACEMENT_3D('',#305,#306,#307);
#305 = CARTESIAN_POINT('',(61.9,-69.2494047619,233.));
#306 = DIRECTION('',(1.,0.,-0.));
#307 = DIRECTION('',(0.,1.,1.110223024625E-16));
#308 = PCURVE('',#33,#309);
#309 = DEFINITIONAL_REPRESENTATION('',(#310),#348);
#310 = B_SPLINE_CURVE_WITH_KNOTS('',8,(#311,#312,#313,#314,#315,#316,
    #317,#318,#319,#320,#321,#322,#323,#324,#325,#326,#327,#328,#329,
    #330,#331,#332,#333,#334,#335,#336,#337,#338,#339,#340,#341,#342,
    #343,#344,#345,#346,#347),.UNSPECIFIED.,.F.,.F.,(9,7,7,7,7,9),(
    2.28588373751,2.49981096653,2.82070181006,2.981147231825,
    3.061369942707,3.14159265359),.UNSPECIFIED.);
#311 = CARTESIAN_POINT('',(4.897934664682,-0.706527026207));
#312 = CARTESIAN_POINT('',(4.902145222767,-0.732808941679));
#313 = CARTESIAN_POINT('',(4.906719901026,-0.759067113626));
#314 = CARTESIAN_POINT('',(4.911699581092,-0.785298458291));
#315 = CARTESIAN_POINT('',(4.9171339505,-0.811499255158));
#316 = CARTESIAN_POINT('',(4.923082597456,-0.837665071069));
#317 = CARTESIAN_POINT('',(4.929618840514,-0.863790473744));
#318 = CARTESIAN_POINT('',(4.936836293176,-0.889868534713));
#319 = CARTESIAN_POINT('',(4.956890968727,-0.954922502053));
#320 = CARTESIAN_POINT('',(4.970734244075,-0.993827740683));
#321 = CARTESIAN_POINT('',(4.986801627618,-1.032575471566));
#322 = CARTESIAN_POINT('',(5.005678939383,-1.071120999478));
#323 = CARTESIAN_POINT('',(5.028143743205,-1.109409176956));
#324 = CARTESIAN_POINT('',(5.055493812645,-1.147337219645));
#325 = CARTESIAN_POINT('',(5.089568631866,-1.184772383616));
#326 = CARTESIAN_POINT('',(5.157242844111,-1.239653767057));
#327 = CARTESIAN_POINT('',(5.182561061127,-1.257735657988));
#328 = CARTESIAN_POINT('',(5.211181982813,-1.275561106166));
#329 = CARTESIAN_POINT('',(5.243791437078,-1.293071900996));
#330 = CARTESIAN_POINT('',(5.281330684324,-1.310187669001));
#331 = CARTESIAN_POINT('',(5.324978592867,-1.326798458545));
#332 = CARTESIAN_POINT('',(5.376519082328,-1.342737257001));
#333 = CARTESIAN_POINT('',(5.468800457666,-1.365241759537));
#334 = CARTESIAN_POINT('',(5.502055679076,-1.372509377255));
#335 = CARTESIAN_POINT('',(5.538067588199,-1.379509865836));
#336 = CARTESIAN_POINT('',(5.5771116224,-1.386204766071));
#337 = CARTESIAN_POINT('',(5.619474535565,-1.39254788841));
#338 = CARTESIAN_POINT('',(5.665419897956,-1.398484708728));
#339 = CARTESIAN_POINT('',(5.715121291997,-1.40395367698));
#340 = CARTESIAN_POINT('',(5.822005115997,-1.413825200545));
#341 = CARTESIAN_POINT('',(5.879187399254,-1.41822782905));
#342 = CARTESIAN_POINT('',(5.940095944737,-1.422032270464));
#343 = CARTESIAN_POINT('',(6.004523498124,-1.425170806461));
#344 = CARTESIAN_POINT('',(6.072006509206,-1.427577494067));
#345 = CARTESIAN_POINT('',(6.141672979871,-1.429199236087));
#346 = CARTESIAN_POINT('',(6.212429091795,-1.430010135873));
#347 = CARTESIAN_POINT('',(6.28318530718,-1.430010135873));
#348 = ( GEOMETRIC_REPRESENTATION_CONTEXT(2) 
PARAMETRIC_REPRESENTATION_CONTEXT() REPRESENTATION_CONTEXT('2D SPACE',''
  ) );
#349 = PCURVE('',#131,#350);
#350 = DEFINITIONAL_REPRESENTATION('',(#351),#355);
#351 = CIRCLE('',#352,2.822391399408);
#352 = AXIS2_PLACEMENT_2D('',#353,#354);
#353 = CARTESIAN_POINT('',(3.850595238095,-5.5));
#354 = DIRECTION('',(1.,0.));
#355 = ( GEOMETRIC_REPRESENTATION_CONTEXT(2) 
PARAMETRIC_REPRESENTATION_CONTEXT() REPRESENTATION_CONTEXT('2D SPACE',''
  ) );
#356 = ADVANCED_FACE('',(#357),#131,.F.);
#357 = FACE_BOUND('',#358,.F.);
#358 = EDGE_LOOP('',(#359,#380,#381));
#359 = ORIENTED_EDGE('',*,*,#360,.F.);
#360 = EDGE_CURVE('',#278,#81,#361,.T.);
#361 = SURFACE_CURVE('',#362,(#366,#373),.PCURVE_S1.);
#362 = LINE('',#363,#364);
#363 = CARTESIAN_POINT('',(61.9,-71.1,238.5));
#364 = VECTOR('',#365,1.);
#365 = DIRECTION('',(0.,1.110223024625E-16,-1.));
#366 = PCURVE('',#131,#367);
#367 = DEFINITIONAL_REPRESENTATION('',(#368),#372);
#368 = LINE('',#369,#370);
#369 = CARTESIAN_POINT('',(2.,-2.22044604925E-16));
#370 = VECTOR('',#371,1.);
#371 = DIRECTION('',(0.,-1.));
#372 = ( GEOMETRIC_REPRESENTATION_CONTEXT(2) 
PARAMETRIC_REPRESENTATION_CONTEXT() REPRESENTATION_CONTEXT('2D SPACE',''
  ) );
#373 = PCURVE('',#160,#374);
#374 = DEFINITIONAL_REPRESENTATION('',(#375),#379);
#375 = LINE('',#376,#377);
#376 = CARTESIAN_POINT('',(0.8,0.));
#377 = VECTOR('',#378,1.);
#378 = DIRECTION('',(0.,1.));
#379 = ( GEOMETRIC_REPRESENTATION_CONTEXT(2) 
PARAMETRIC_REPRESENTATION_CONTEXT() REPRESENTATION_CONTEXT('2D SPACE',''
  ) );
#380 = ORIENTED_EDGE('',*,*,#301,.T.);
#381 = ORIENTED_EDGE('',*,*,#80,.T.);
#382 = ADVANCED_FACE('',(#383),#160,.F.);
#383 = FACE_BOUND('',#384,.F.);
#384 = EDGE_LOOP('',(#385,#406,#407,#408));
#385 = ORIENTED_EDGE('',*,*,#386,.F.);
#386 = EDGE_CURVE('',#173,#144,#387,.T.);
#387 = SURFACE_CURVE('',#388,(#392,#399),.PCURVE_S1.);
#388 = LINE('',#389,#390);
#389 = CARTESIAN_POINT('',(61.1,-71.1,238.5));
#390 = VECTOR('',#391,1.);
#391 = DIRECTION('',(0.,1.110223024625E-16,-1.));
#392 = PCURVE('',#160,#393);
#393 = DEFINITIONAL_REPRESENTATION('',(#394),#398);
#394 = LINE('',#395,#396);
#395 = CARTESIAN_POINT('',(0.,0.));
#396 = VECTOR('',#397,1.);
#397 = DIRECTION('',(0.,1.));
#398 = ( GEOMETRIC_REPRESENTATION_CONTEXT(2) 
PARAMETRIC_REPRESENTATION_CONTEXT() REPRESENTATION_CONTEXT('2D SPACE',''
  ) );
#399 = PCURVE('',#265,#400);
#400 = DEFINITIONAL_REPRESENTATION('',(#401),#405);
#401 = LINE('',#402,#403);
#402 = CARTESIAN_POINT('',(2.,-2.22044604925E-16));
#403 = VECTOR('',#404,1.);
#404 = DIRECTION('',(0.,-1.));
#405 = ( GEOMETRIC_REPRESENTATION_CONTEXT(2) 
PARAMETRIC_REPRESENTATION_CONTEXT() REPRESENTATION_CONTEXT('2D SPACE',''
  ) );
#406 = ORIENTED_EDGE('',*,*,#277,.T.);
#407 = ORIENTED_EDGE('',*,*,#360,.T.);
#408 = ORIENTED_EDGE('',*,*,#143,.T.);
#409 = ADVANCED_FACE('',(#410),#265,.T.);
#410 = FACE_BOUND('',#411,.T.);
#411 = EDGE_LOOP('',(#412,#413));
#412 = ORIENTED_EDGE('',*,*,#386,.F.);
#413 = ORIENTED_EDGE('',*,*,#172,.T.);
#414 = ADVANCED_FACE('',(#415,#418),#67,.T.);
#415 = FACE_BOUND('',#416,.T.);
#416 = EDGE_LOOP('',(#417));
#417 = ORIENTED_EDGE('',*,*,#52,.T.);
#418 = FACE_BOUND('',#419,.T.);
#419 = EDGE_LOOP('',(#420));
#420 = ORIENTED_EDGE('',*,*,#421,.F.);
#421 = EDGE_CURVE('',#422,#422,#424,.T.);
#422 = VERTEX_POINT('',#423);
#423 = CARTESIAN_POINT('',(63.,-70.,233.));
#424 = SURFACE_CURVE('',#425,(#430,#437),.PCURVE_S1.);
#425 = CIRCLE('',#426,1.5);
#426 = AXIS2_PLACEMENT_3D('',#427,#428,#429);
#427 = CARTESIAN_POINT('',(61.5,-70.,233.));
#428 = DIRECTION('',(-0.,1.,1.110223024625E-16));
#429 = DIRECTION('',(1.,0.,0.));
#430 = PCURVE('',#67,#431);
#431 = DEFINITIONAL_REPRESENTATION('',(#432),#436);
#432 = CIRCLE('',#433,1.5);
#433 = AXIS2_PLACEMENT_2D('',#434,#435);
#434 = CARTESIAN_POINT('',(0.,0.));
#435 = DIRECTION('',(1.,0.));
#436 = ( GEOMETRIC_REPRESENTATION_CONTEXT(2) 
PARAMETRIC_REPRESENTATION_CONTEXT() REPRESENTATION_CONTEXT('2D SPACE',''
  ) );
#437 = PCURVE('',#438,#443);
#438 = CYLINDRICAL_SURFACE('',#439,1.5);
#439 = AXIS2_PLACEMENT_3D('',#440,#441,#442);
#440 = CARTESIAN_POINT('',(61.5,-70.,233.));
#441 = DIRECTION('',(0.,1.,1.110223024625E-16));
#442 = DIRECTION('',(1.,0.,0.));
#443 = DEFINITIONAL_REPRESENTATION('',(#444),#448);
#444 = LINE('',#445,#446);
#445 = CARTESIAN_POINT('',(0.,0.));
#446 = VECTOR('',#447,1.);
#447 = DIRECTION('',(1.,0.));
#448 = ( GEOMETRIC_REPRESENTATION_CONTEXT(2) 
PARAMETRIC_REPRESENTATION_CONTEXT() REPRESENTATION_CONTEXT('2D SPACE',''
  ) );
#449 = ADVANCED_FACE('',(#450),#438,.T.);
#450 = FACE_BOUND('',#451,.T.);
#451 = EDGE_LOOP('',(#452,#481,#502,#503));
#452 = ORIENTED_EDGE('',*,*,#453,.F.);
#453 = EDGE_CURVE('',#454,#454,#456,.T.);
#454 = VERTEX_POINT('',#455);
#455 = CARTESIAN_POINT('',(63.,-58.,233.));
#456 = SURFACE_CURVE('',#457,(#462,#469),.PCURVE_S1.);
#457 = CIRCLE('',#458,1.5);
#458 = AXIS2_PLACEMENT_3D('',#459,#460,#461);
#459 = CARTESIAN_POINT('',(61.5,-58.,233.));
#460 = DIRECTION('',(-0.,1.,1.110223024625E-16));
#461 = DIRECTION('',(1.,0.,0.));
#462 = PCURVE('',#438,#463);
#463 = DEFINITIONAL_REPRESENTATION('',(#464),#468);
#464 = LINE('',#465,#466);
#465 = CARTESIAN_POINT('',(0.,12.));
#466 = VECTOR('',#467,1.);
#467 = DIRECTION('',(1.,0.));
#468 = ( GEOMETRIC_REPRESENTATION_CONTEXT(2) 
PARAMETRIC_REPRESENTATION_CONTEXT() REPRESENTATION_CONTEXT('2D SPACE',''
  ) );
#469 = PCURVE('',#470,#475);
#470 = PLANE('',#471);
#471 = AXIS2_PLACEMENT_3D('',#472,#473,#474);
#472 = CARTESIAN_POINT('',(61.5,-58.,233.));
#473 = DIRECTION('',(0.,1.,1.110223024625E-16));
#474 = DIRECTION('',(1.,0.,0.));
#475 = DEFINITIONAL_REPRESENTATION('',(#476),#480);
#476 = CIRCLE('',#477,1.5);
#477 = AXIS2_PLACEMENT_2D('',#478,#479);
#478 = CARTESIAN_POINT('',(0.,0.));
#479 = DIRECTION('',(1.,0.));
#480 = ( GEOMETRIC_REPRESENTATION_CONTEXT(2) 
PARAMETRIC_REPRESENTATION_CONTEXT() REPRESENTATION_CONTEXT('2D SPACE',''
  ) );
#481 = ORIENTED_EDGE('',*,*,#482,.F.);
#482 = EDGE_CURVE('',#422,#454,#483,.T.);
#483 = SEAM_CURVE('',#484,(#488,#495),.PCURVE_S1.);
#484 = LINE('',#485,#486);
#485 = CARTESIAN_POINT('',(63.,-70.,233.));
#486 = VECTOR('',#487,1.);
#487 = DIRECTION('',(0.,1.,1.110223024625E-16));
#488 = PCURVE('',#438,#489);
#489 = DEFINITIONAL_REPRESENTATION('',(#490),#494);
#490 = LINE('',#491,#492);
#491 = CARTESIAN_POINT('',(6.28318530718,-0.));
#492 = VECTOR('',#493,1.);
#493 = DIRECTION('',(0.,1.));
#494 = ( GEOMETRIC_REPRESENTATION_CONTEXT(2) 
PARAMETRIC_REPRESENTATION_CONTEXT() REPRESENTATION_CONTEXT('2D SPACE',''
  ) );
#495 = PCURVE('',#438,#496);
#496 = DEFINITIONAL_REPRESENTATION('',(#497),#501);
#497 = LINE('',#498,#499);
#498 = CARTESIAN_POINT('',(0.,-0.));
#499 = VECTOR('',#500,1.);
#500 = DIRECTION('',(0.,1.));
#501 = ( GEOMETRIC_REPRESENTATION_CONTEXT(2) 
PARAMETRIC_REPRESENTATION_CONTEXT() REPRESENTATION_CONTEXT('2D SPACE',''
  ) );
#502 = ORIENTED_EDGE('',*,*,#421,.T.);
#503 = ORIENTED_EDGE('',*,*,#482,.T.);
#504 = ADVANCED_FACE('',(#505),#470,.T.);
#505 = FACE_BOUND('',#506,.T.);
#506 = EDGE_LOOP('',(#507));
#507 = ORIENTED_EDGE('',*,*,#453,.T.);
#508 = ( GEOMETRIC_REPRESENTATION_CONTEXT(3) 
GLOBAL_UNCERTAINTY_ASSIGNED_CONTEXT((#512)) GLOBAL_UNIT_ASSIGNED_CONTEXT
((#509,#510,#511)) REPRESENTATION_CONTEXT('Context #1',
  '3D Context with UNIT and UNCERTAINTY') );
#509 = ( LENGTH_UNIT() NAMED_UNIT(*) SI_UNIT(.MILLI.,.METRE.) );
#510 = ( NAMED_UNIT(*) PLANE_ANGLE_UNIT() SI_UNIT($,.RADIAN.) );
#511 = ( NAMED_UNIT(*) SI_UNIT($,.STERADIAN.) SOLID_ANGLE_UNIT() );
#512 = UNCERTAINTY_MEASURE_WITH_UNIT(LENGTH_MEASURE(1.E-07),#509,
  'distance_accuracy_value','confusion accuracy');
#513 = PRODUCT_RELATED_PRODUCT_CATEGORY('part',$,(#7));
ENDSEC;
END-ISO-10303-21;
